<?xml version="1.0" encoding="UTF-8"?>
<svg viewBox="0 0 85.467712 45.37122" xmlns="http://www.w3.org/2000/svg">
 <defs>
  <filter id="a">
   <feGaussianBlur stdDeviation=".4587"/>
  </filter>
 </defs>
 <g transform="translate(-335.03 -593.5)">
  <path transform="matrix(1.0247 0 0 1.1645 -31.832 220.69)" d="m420.35 334.66c12.677-7.0451 12.343-9.8046 13.639-12.236-1.2365 2.3683-16.002 13.793-16.778 11.939 1.7329-1.2112 10.169-9.3811 9.9054-12.189-1.713 2.0499-10.779 12.552-12.898 12.069 1.2935-0.62385 7.5082-9.5517 7.3709-11.956-1.1735 2.0343-7.4144 11.97-10.716 12.354 1.5101-0.99044 4.8042-10.345 5.4406-12.615-1.2915 2.6774-5.2365 13.306-8.0127 12.25 1.5288-2.5902 3.0294-10.11 3.136-12.126-0.47622 2.6593-3.4146 12.069-6.5061 12.195 2.4609-1.5313 0.50741-9.6517 0.84387-12.019-0.84675 3.0958-0.33335 12.283-3.92 12.208 2.4698-1.4944 0.36805-10.141 0.78106-12.161-0.79885 2.6282 0.0366 10.945-3.1908 12.009 1.9625-1.6044-0.32043-9.8051-0.55826-12.275 0.0573 3.2581 0.13295 12.285-2.086 13.204 1.2331-1.5511-1.658-10.455-2.2377-12.312-0.14923 1.9174 2.5899 11.018 1.0275 12.574 1.032-2.1352-7.0092-11.012-8.9649-12.5 1.0224 1.7196 9.2542 10.696 7.0264 12.786-0.0166-2.5792-9.277-11.105-10.919-12.378 0.78576 1.4937 11.163 11.277 8.4295 12.584-0.23499-2.3284-11.711-9.8469-13.625-11.18 1.2374 1.7137 12.424 9.4876 11.661 12.272-0.54686-2.9001-14.779-10.2-16.651-11.856 1.3984 1.8261 15.366 9.8132 15.278 12.287-1.4989-2.2111-15.305-9.7042-17.64-11.052 1.63 1.6815 15.394 9.0052 15.948 11.552-1.3748-2.5751-17.591-6.8987-19.934-7.9709 1.8422 1.5234 18.41 6.005 18.366 9.0441-1.3694-3.0091-18.069-5.0138-20.858-5.8179 2.2592 1.4212 16.504 1.6195 17.412 5.9861-2.6077-2.5834-15.856-2.6912-18.862-2.5588 2.3394 0.90688 15.767 0.23984 16.426 3.7561-2.6271-2.7726-15.066-0.74921-17.776-0.9006 2.3772 0.67308 14.701-1.7236 15.501 2.708-2.6092-3.5818-12.818 0.43598-15.853 0.76785 2.8741 0.10035 12.196-2.3008 13.443 1.9365-2.3244-2.3259-10.44 0.43658-13.088 1.0839 2.4916-0.11664 9.5783 1.0137 10.765 3.7419-4.5758-1.6267-7.6487-1.2182-11.678-0.31981 4.7126-1.5067 11.83 1.3286 9.4835 7.6948 6.8139-21.695 44.301-23.056 52.402-20.672 6.4862-1.5586 15.662-9.7837 17.563-11.809-6.2503 4.3249-13.174 8.744-19.094 9.9012z" filter="url(#a)" opacity=".5144"/>
  <path d="m397.91 611.22c12.677-7.0451 12.343-9.8046 13.639-12.236-1.2365 2.3683-16.002 13.793-16.778 11.939 1.7329-1.2112 10.169-9.3811 9.9054-12.189-1.713 2.0499-10.779 12.552-12.898 12.069 1.2935-0.62385 7.5082-9.5517 7.3709-11.956-1.1735 2.0343-7.4144 11.97-10.716 12.354 1.5101-0.99044 4.8042-10.345 5.4406-12.615-1.2915 2.6774-5.2365 13.306-8.0127 12.25 1.5288-2.5902 3.0294-10.11 3.136-12.126-0.47622 2.6593-3.4146 12.069-6.5061 12.195 2.4609-1.5313 0.50741-9.6517 0.84387-12.019-0.84675 3.0958-0.33335 12.283-3.92 12.208 2.4698-1.4944 0.36805-10.141 0.78106-12.161-0.79885 2.6282 0.0366 10.945-3.1908 12.009 1.9625-1.6044-0.32043-9.8051-0.55826-12.275 0.0573 3.2581 0.13295 12.285-2.086 13.204 1.2331-1.5511-1.658-10.455-2.2377-12.312-0.14923 1.9174 2.5899 11.018 1.0275 12.574 1.032-2.1352-7.0092-11.012-8.9649-12.5 1.0224 1.7196 9.2542 10.696 7.0264 12.786-0.0166-2.5792-9.277-11.105-10.919-12.378 0.78576 1.4937 11.163 11.277 8.4295 12.584-0.23499-2.3284-11.711-9.8469-13.625-11.18 1.2374 1.7137 12.424 9.4876 11.661 12.272-0.54686-2.9001-14.779-10.2-16.651-11.856 1.3984 1.8261 15.366 9.8132 15.278 12.287-1.4989-2.2111-15.305-9.7042-17.64-11.052 1.63 1.6815 15.394 9.0052 15.948 11.552-1.3748-2.5751-17.591-6.8987-19.934-7.9709 1.8422 1.5234 18.41 6.005 18.366 9.0441-1.3694-3.0091-18.069-5.0138-20.858-5.8179 2.2592 1.4212 16.504 1.6195 17.412 5.9861-2.6077-2.5834-15.856-2.6912-18.862-2.5588 2.3394 0.90688 15.767 0.23984 16.426 3.7561-2.6271-2.7726-15.066-0.74921-17.776-0.9006 2.3772 0.67308 14.701-1.7236 15.501 2.708-2.6092-3.5818-12.818 0.43598-15.853 0.76785 2.8741 0.10035 12.196-2.3008 13.443 1.9365-2.3244-2.3259-10.44 0.43658-13.088 1.0839 2.4916-0.11664 9.5783 1.0137 10.765 3.7419-4.5758-1.6267-7.6487-1.2182-11.678-0.31981 4.7126-1.5067 11.83 1.3286 9.4835 7.6948 6.8139-21.695 44.301-23.056 52.402-20.672 6.4862-1.5586 15.662-9.7837 17.563-11.809-6.2503 4.3249-13.174 8.744-19.094 9.9012z"/>
 </g>
</svg>
