<svg xmlns="http://www.w3.org/2000/svg" viewBox="0 0 2048 2185"><defs><style>.a{fill:#afafaf;}.b{fill:#444844;}.c{fill:#bbb7b6;}.d{fill:#797471;}.e{fill:#444944;}</style></defs><title>man</title><path d="M901.25,43.63c11.62-1.79,23.43-1.29,35.15-1.38,35.87,1,72.35,8.06,103.81,25.93a151.88,151.88,0,0,1,53.64,49.41c12.56,19.08,23.46,39.18,35.15,58.79,6.68,11.39,13.09,22.94,19.6,34.43,2,3.74,4.38,7.27,5.88,11.24q-20.8-30.88-40.71-62.37c-11.6-17.64-22-36.22-35.6-52.42-19.07-22.17-44.75-37.91-72.09-47.78-33.5-12.1-69.42-15.59-104.83-15.85Z"/><path d="M1014.3,42.46c29.15-.29,56.53,11.94,81.21,26.38,18.29,10.83,36.85,21.36,53.88,34.14a40.25,40.25,0,0,0,3.72,2.18c20.46,5.78,42.37,7.55,61.26,18,16.17,8.78,30.47,20.57,44.05,32.88,28.5,26.25,52.14,58.2,66.67,94.25,16.16,39.95,22.09,83.06,26.16,125.69.4,4.73,1.17,9.48.76,14.24-7.26-46.16-14.16-93.06-32.26-136.47-14.14-34.45-36.46-65.1-62.92-91.11-13.43-12.67-27.12-25.32-42.93-35-18.53-11.45-40.48-14.55-60.69-21.81a217.88,217.88,0,0,1,38.53,41.7c5.19,6.9,9.4,14.53,15.33,20.86,14,15.66,31.07,28.3,44.1,44.83,12.43,15.43,20.64,33.63,28.5,51.67,7.5,17.44,15.26,35.08,18.19,54,4,24.57,1.92,49.57-.12,74.23-2.34,26.74-5.15,53.87-14.92,79.1,12.89-17.49,19.48-38.91,21.91-60.32,2.56-23.19,1.22-46.57-.27-69.79a346.19,346.19,0,0,0-5.94-43.49c8,19.78,11,41.2,12.84,62.34,2,23.65,2.17,47.9-4.17,71-4.11,15-11.11,29.41-21.5,41.08-2.22,2.57-5.21,4.56-6.67,7.71-1.26,2.32-2.1,4.9-3.89,6.88.73-2.21,1.62-4.35,2.51-6.5-2.17,1.55-4.24,3.2-6.46,4.65,2.91-4,7.72-6.66,9.06-11.62,7.34-21.63,9.87-44.53,11.35-67.21,1.29-25.64,3.79-51.4,1.27-77-1.66-17.24-7-33.87-13.64-49.77-8.43-20.08-16.16-40.7-28.2-59-11.71-17.59-28.1-31.25-41.72-47.25,21,35.43,36.94,74.29,43.24,115.14a237.63,237.63,0,0,1,2.27,48c-.57,5.46,1.62,10.69,1.83,16.12,2.86,31.52-8.76,62-22.47,89.82-4,7.73-7.35,16.07-13.37,22.53-2.33,2.24-5,4.86-8.4,4.85l.14-.63c5.94-2.31,8.56-9,11.14-14.4,11.24-28.79,24.51-57.34,28.68-88.26.85-4.67.29-9.51,1.78-14.06-2.36,2-1.11,5.4-1.83,8.07a196.82,196.82,0,0,1-18.52,57.55,99.89,99.89,0,0,1-7.36,12.62c8.86-17.44,15.94-35.87,19.62-55.14,9.93-47.2,2.95-96.72-14.21-141.4-7.35-19.39-16.83-37.91-27.28-55.79-10.72-18.14-22.5-35.81-36.84-51.31-13.73-15.17-30.46-27.2-47.52-38.32-20.95-13.44-41.82-27.42-64.9-37-13-5.58-27-8.27-41-9.75Z"/><path d="M751.75,67.27c33.08-18.63,72.51-24,109.85-19A227.31,227.31,0,0,1,927,67.4c2.69,1.21,5.33,2.79,8.38,2.9.72.77,1.43,1.56,2.16,2.34,11.71,5.53,22.75,12.43,33.52,19.6,3.46,2.2,6.56,5,10.41,6.59,13.74,5.85,27.08,12.61,40.25,19.68,12.81,6.88,25.42,14.24,36.93,23.18,18.41,14.53,33.69,32.55,47.88,51.11A417.82,417.82,0,0,1,1161.12,287l-.49-2a562.09,562.09,0,0,0-24.76-68.59c-9.47-20.83-18.23-42.76-34.27-59.58-15.59-15.46-31.59-30.72-49.8-43.1A262.71,262.71,0,0,0,962.42,76c-8.22-1.67-16.52-3.65-24.93-3.77l-.83-2.08a247,247,0,0,1,106.73,31.55c20.94,11.61,38.94,27.64,56.25,44a107.17,107.17,0,0,1,17.74,20.34c10.84,16.46,18.2,34.85,25.94,52.88a470.12,470.12,0,0,1,24.09,77c2.28,9.84,3.44,19.93,6.67,29.54.29-2,.49-4,.88-5.93,2,10.24,2.54,20.71,4.72,30.92,3.94,23.92,6.3,48.48,2.4,72.57-2.7,16.77-8.21,33.55-18.69,47.12,3.68-6.89,7.63-13.72,10.07-21.19a129,129,0,0,0,6.41-52.09,188.07,188.07,0,0,1-3.64,34c-2.07,10.64-5.62,21.58-13.41,29.48-4.33,4.39-9.9,8.06-16.2,8.55,9.87-3.82,16.6-13,19.94-22.74,4.17-12.28,4.7-25.35,6.51-38.09-4.78,18.18-12.16,37.39-28.19,48.56-2.78,2.34-6.77,3-9,6l-1.07-.47c-1.15.62-2.26,1.27-3.42,1.83,1.69-1.76,3.75-3.1,5.51-4.78A201.32,201.32,0,0,0,1141.45,326c-6.59-21.33-16.2-41.58-26.8-61.18A504.41,504.41,0,0,0,1032,152.42c-21.21-21.62-44.28-41.56-69.64-58.18-12.3-5.82-25.61-9-38.47-13.29l-.28-3.76c1,.26,2,.54,3.08.8l-2.06.23c-1.82,2,1.45,3,3,3.24,8.15,1.62,16.17,3.86,24.12,6.28C923.19,70,891,57.7,857.59,53.62a189.32,189.32,0,0,0-66.26,3.44,155.35,155.35,0,0,0-54.81,25.09C720,94,705.72,108.65,693.25,124.6c-11.72,14.76-21,31.19-30.55,47.39a223.87,223.87,0,0,1-17.84,25.41c5.78-1.48,12-1.49,17.52-3.92,7.39-10.27,16-19.65,24.55-29,13.39-14.1,28.23-27.18,45.55-36.24,18.33-9.61,38.58-14.8,58.78-18.82,29.66-5.56,60.85-7.42,90.19.92,17.21,5.42,33.26,13.92,49,22.63a368.48,368.48,0,0,1,83.42,64.59c31.11,32.27,54.89,70.81,75.13,110.59,10.83,21.29,20,43.56,25.48,66.87,6.25,27.2,7.51,56,.25,83.13,1.64-11,3.52-22,3.21-33.15.24-27.48-6.69-54.56-16.82-79.95-9-22.49-20.74-43.78-33.17-64.55-10.18-16.85-20.85-33.45-32.9-49A348,348,0,0,0,964.51,163a16.72,16.72,0,0,0-5.11-3.61A233,233,0,0,1,1010,213.53c15.15,21.93,27.49,45.64,39.29,69.51,11.09,22,21.77,44.15,30.88,67,13.76,34.4,23.09,71.72,18.66,109,0-10.66.21-21.37-1.14-32-2.86-24.42-10.43-48-19.66-70.72C1069,334,1057.66,312.7,1047,291.13c-11.38-22.51-23-45-36.88-66.05-15.33-23.18-33.42-44.92-55.72-61.71-26.11-19.84-58.13-29.94-90-35.84-24.64-4.49-50-5.67-74.82-2.11a170.91,170.91,0,0,0-50.23,15.45c13.81-8.5,29.47-13.65,45.24-17.15,25.52-5.38,52-5,77.69-1.32,31.12,4.64,62.53,13.31,88.7,31.33l.21-.21a364.91,364.91,0,0,0-42.3-25.06c-11.44-5.62-23-11.29-35.52-14.16-23.17-5.47-47.32-4.72-70.78-1.65-17.54,2.46-35,6.07-51.75,11.88A146,146,0,0,0,707.36,149c-16.66,13.22-30.93,29.1-44.86,45.09a730.33,730.33,0,0,1,82.82-8.64c19.07-1.09,38.64-1.53,57.1,4.12,18.08,5.59,34.23,15.72,50.49,25.14,14.33,8.36,28.27,18.18,38.14,31.74,12.55,16.88,19.67,36.91,26.63,56.54C928,333.19,934,364.68,944.2,395c4.81,14.89,10.72,29.61,19.66,42.54,8.22,11.92,18.53,22.22,29.11,32,10,9.1,21.26,17.43,34.51,20.93,14.33,4.08,30.18.59,42.17-8-7.38,6.85-17.48,10.1-27.33,11.2-1,2-3.13,3-4.77,4.39-7.39,6.08-15.39,11.8-24.61,14.68a36.31,36.31,0,0,1-21.4,0c-10.45,7.55-19.33,17-29.27,25.15-5.33,4.41-11.22,8.06-17,11.83,11.87-1.6,23.48-5.72,32.93-13.22-9.77,10.91-25.1,14.21-39,16.42-27.64,13.69-59.65,16.57-89.86,11.84a219.17,219.17,0,0,1-53.66-16c-2.64-1.08-5.29-3-8.27-1.85l.52-1.32-.73-.2c-3-2.28-6.54-3.64-9.78-5.49a262.89,262.89,0,0,1-33.62-21.35c-2.37-1.77-4.57-3.84-7.3-5l-.8-1.61a43,43,0,0,1-7.47-4.58l-1.72-.36,1-1.45-1.77-1.59c-4.43-3.18-10.08-3.68-15.3-4.59A66.54,66.54,0,0,1,724.77,504l-.48.91c-2.68-.11-5.09-1.63-7.72-2.09-15-3.59-30.31-.08-45.18,2.27A200,200,0,0,1,545,484.69c-19.41-10-36.3-24.2-55.44-34.7-14.33-7.86-30.64-12.8-47.1-11.91,13.18,17.43,28.52,33.41,46.23,46.26-2.1-4.16-4.42-8.22-6.19-12.54,5.44,6.64,8.5,15.66,16.41,19.93a234.74,234.74,0,0,0,114.65,39.34,242.92,242.92,0,0,0,65-4.27c16.38-3.27,32.08-9.16,48.26-13.21a62.42,62.42,0,0,0-28.34-4.4c-11.77.74-23.26,3.61-34.86,5.5-59.24,9.52-122.37-6.1-169.65-43.26a95.35,95.35,0,0,1-10.62-9.35A257.63,257.63,0,0,0,587.4,507a246.44,246.44,0,0,0,82.49,1.19c14.39-2.15,29.25-4.63,43.67-1.28a54.25,54.25,0,0,1,15.86,6.45c2.39-.31,5-1.12,7.11.54l-4.13.55c.42,2.25,2.9,3.35,4,5.3-2.38-1.49-4.59-3.21-7-4.62-11.35,2.78-22,7.6-33.13,11.16-43.67,14.35-91.76,15.18-135.74,1.67A224.5,224.5,0,0,1,507.41,504c24,25.36,55.7,43.6,90,50.57a179.33,179.33,0,0,0,99.19-8.3,29.33,29.33,0,0,1,4.06-1.24C663.91,565.19,619,568.83,579,556.57a159.93,159.93,0,0,1-80.33-57,14.55,14.55,0,0,0-3.8-3.94,228.65,228.65,0,0,1-28.85-24.7c1.46,5.22,2.77,10.56,5,15.51a266.87,266.87,0,0,0,32.31,39.68c13.89,13.58,30,25.23,48,32.61,19.26,8,40.34,10.58,61.06,10,46.68-2,92.34-17.15,132.23-41.24l1.34-.21a255.87,255.87,0,0,1-90.58,41.7c-25.78,6.13-52.86,8.52-79.06,3.66a125.22,125.22,0,0,1-42-15.66c-17.21-10.12-31.73-24.26-44.14-39.77-6.17-7.71-11.39-16.1-16.81-24.33,11.41,29.88,31.39,57.07,58.52,74.44,19.41,12.48,42.3,20,65.49,19.69,19.87-.59,39.29-5.17,58.88-8.1,10.62-1.58,21.2-3.48,31.87-4.69l0,.38c-22.92,5.19-45.73,10.91-68.79,15.42-18.12,3.73-37.16,4-55-1.07-32.76-8.78-61-31.47-78.24-60.51A167.73,167.73,0,0,1,465,471.88a7.09,7.09,0,0,0-2.06-4.36,194.24,194.24,0,0,1-15.72-19.1l-1.39.48c-.25-4.22-3.59-7.1-5.55-10.55-6.77.63-13.16,3-19.32,5.77,5.11-4.33,11.82-6.09,18.19-7.67a30.28,30.28,0,0,1-4.49-18.21h.42a25.8,25.8,0,0,0,6.3,17.74c8-.71,16.21-.92,24.16.75,5.4.87,10.53,2.84,15.83,4.16-6.22-2.3-11.76-7.27-13.16-14-1.15-7.42,1.3-14.71,1.76-22.08.39-6.56,2.36-14-2.1-19.66,5.31,2.29,6.42,8.52,6.9,13.64,1.07,8,0,16.11-.5,24.13.08,8.37,8.31,13.07,15.11,15.89a123.45,123.45,0,0,1-10.8-26c6.4,7.09,10.84,15.64,16.57,23.23A87.17,87.17,0,0,0,520,458.47c3.5,2.2,7.33,3.83,10.74,6.19a82,82,0,0,1-9.36-1.43c13.78,9,28,17.41,43.32,23.51a211.66,211.66,0,0,0,66.64,15.2c7.71.57,15.46,0,23.17.74-2.26-.35-4.54-.53-6.79-.85a156.92,156.92,0,0,1-34.27-5.26c-3.65-1-7.45-1.17-11.15-1.82a119.42,119.42,0,0,1-51.41-22.28c-2.63-2-5-4.33-7.84-5.92q-13.17-7.24-26-15c-8.32-5.07-16.37-11-22-19.09-8.17-12-11.26-26.46-14-40.46,4.55,12.48,7.62,25.87,15.77,36.68,8.17,11.87,21.66,18.07,34,24.57-3.28-4.26-6.09-8.9-9.43-13.08-11.48-9-22-20.57-25.47-35.1-2.48-8.53-.34-17.4-.72-26.08a12.88,12.88,0,0,0-7.09-11.4c-7.16-3.64-15.49-1.35-22.42,1.7-2.44.79-2.09,3.86-3,5.84.1-1.62.22-3.23.39-4.84a83.12,83.12,0,0,0-28.14,23.33l-3.56-2.13c5.78-11,9.13-25.73,22-30.5-6.58,4.16-10.59,11-13,18.28,6.59-6.06,13.69-11.74,21.92-15.42,2.38-1.17,5.22-1.79,6.83-4.1,7.43-8.92,18.8-13.87,30.2-15,11-1.2,22,1.86,31.91,6.38.19-1.15.41-2.3.65-3.45.15,1.31.29,2.63.43,4,17.3,8.57,31.56,21.82,46.36,34,27.34,22.62,53.89,46.18,81.39,68.6q12.82,9,25.93,17.65c-10.69-13.22-18.17-28.62-28.15-42.33a227.29,227.29,0,0,0-85.54-72.27c-19.58-9.51-41.12-16.17-63.08-15.49-23.68.19-46.4,8.13-68,17.13-10.16,4-19.8,9.28-30,13.16l2-1.29c16.2-8.87,32.46-17.8,49.81-24.26,18.87-7.14,39.12-11.6,59.39-10.11,20.89,1.44,40.93,8.7,59.38,18.31a214.81,214.81,0,0,1,82.3,75.62c9.26,14.5,16.47,30.3,26.92,44,2.48,3.57,6.37,5.69,9.66,8.4,5.88,4.26,11,9.48,17.21,13.32a205.86,205.86,0,0,1-32.13-41.53c-20.26-33.83-31.77-71.92-50.24-106.65-14.11-26.54-42.09-45.52-72.22-47.57-5.67-.44-11.32.16-17,.3,35.11-6.87,72.45,11.49,90.79,41.71,21.38,36,33.54,76.64,55.73,112.18,17.14,27.8,41.54,50.48,68.51,68.59,31.36,20.67,67.37,35,104.94,38.4,20.57,1.54,41.84-.06,61.17-7.7-30.42,1.37-61-6.53-87.54-21.2a176.67,176.67,0,0,1-67.27-66A232,232,0,0,1,746.21,398c-3.69-17.14-6.69-34.53-12.84-51-7.21-20-19.75-38.19-36.52-51.34a191.44,191.44,0,0,0-35.45-21.63c-12.08-5.61-25.66-9.54-39-7-10.38,1.86-20.28,6-29.51,11,15.16.43,30.35,3.11,44.34,9.12a117.61,117.61,0,0,1,49.62,39.41c21,29,29.77,64.3,44.43,96.51a783.06,783.06,0,0,0,40.54,79.59c4.93,8.21,9.44,16.81,15.93,23.93,5.85,6.31,13.57,10.46,21.37,13.88a184.92,184.92,0,0,0,44.49,13.77c5.56,1,11.32,1.92,16.93.74,2.79-.49,4.92-2.48,7.26-3.9-4,5.27-11.3,5.92-17.43,5.52a185.64,185.64,0,0,1-52.65-12.89c-7.56-3.33-15.29-6.82-21.3-12.63-6.57-6.08-11.26-13.8-16-21.34-22.94-36.25-41.89-74.94-57.6-114.84C705.11,375.7,698,356,687.14,338.32a114.46,114.46,0,0,0-25.89-30,116,116,0,0,0-51.94-23.71,112.37,112.37,0,0,0-68.49,9.81c-14.62,7.29-28.72,16.13-40.26,27.8-3.88,3.74-7,8.15-10.6,12.13,8.57-14.87,22.3-26,36.47-35.27a117.76,117.76,0,0,1,61.1-20.63c4.11.19,7.31-2.65,10.78-4.38,11.39-6,24-10.75,37-10.19,13.32.49,25.94,5.58,37.63,11.65,14.44,7.49,28.55,16.2,39.87,28,13.24,13.11,22.39,29.88,28.13,47.51,7.28,21.21,9.65,43.71,16.61,65,10.89,34.61,29.14,67.78,56.86,91.73-6.85-10.15-11.85-21.37-16.23-32.75-8.4-21.55-13.89-44.13-17.47-66.95a647.55,647.55,0,0,1-7.13-78c-.87-17.55-2-35.87-10.53-51.67-8.66-15.53-23.73-26.22-39.21-34.23-6.27-3.5-13.34-5.07-20.25-6.71-17.12-3.63-35.25-4.51-52.26.07-4.81.42-9.39,2.11-14,3.51-28.52,9.75-54,26.88-83,35.28-6.54,1.64-13.19,3.61-20,3.25,19.31-2.23,37-11,54.15-19.64,17.83-9.25,35.49-19.28,54.85-25a126.4,126.4,0,0,1,61.12-2.75c25.35,5.07,48.87,16.63,70.73,30.12,14.91,9.11,26.31,23,34.52,38.3,11.45,21.19,17.36,44.78,22.3,68.2,3.5,17.62,8.09,35.18,8.62,53.23.27,6-.71,12.07.11,18.08,1.7,14.41,8.25,27.94,17.32,39.15,11,13.47,25.82,23.45,41.76,30.19,15.36,6.48,31.81,10.7,48.52,11.31,14.1.38,28.87-1.53,41.26-8.67-22.65-10.54-41.47-28-56.49-47.75-16.75-22-28.2-47.58-36.32-73.89-6.83-22-11.57-44.68-15.24-67.44-2.26-13.61-4.5-27.39-9.77-40.23-6.29-15.48-16.52-29.14-28.64-40.55a181.73,181.73,0,0,0-47.83-32.07c-14.35-6.59-30.13-10.31-46-9.63-19.84.65-39,6.57-57.7,12.62a41.38,41.38,0,0,1-6.44,1.73c21.3-8.21,43.13-16.5,66.17-17.62,19.1-1.17,38,4.42,54.9,12.95,27.69,13.85,53.14,34.5,67.53,62.39,10,18.93,12.41,40.52,16.18,61.28,6.52,37.22,16,74.59,34.69,107.73,13.18,23.75,31.08,45.28,53.76,60.46,4.68,3.08,9.44,6.3,14.85,8,3.6-1.73,6.32-4.76,9.46-7.15-2.16,3.09-5.26,5.34-7.88,8a36.28,36.28,0,0,0,24.66-2.72,89.91,89.91,0,0,0,21.85-14.42c-13.27.5-26.29-4.17-37.17-11.55-12.64-8.33-23.43-19-33.82-30a129.73,129.73,0,0,1-23.58-36.55c-14.23-32.6-21.1-67.68-31.74-101.48-6.21-18.35-12.58-36.85-22.34-53.66a94,94,0,0,0-27-29.71c-9.6-7.05-20-12.88-30.26-18.93-14.29-8.25-29.18-16.29-45.6-19.23-15.35-2.82-31-2.35-46.54-1.48-46.5,2.23-93.3,6.7-138.08,20.06-12.14,3.44-24.62,7.73-33.86,16.71-12.2,11.74-18.62,27.82-24.82,43.22a36.19,36.19,0,0,1,1.55-5.4c5.23-14.55,11.47-29.38,22.74-40.34,7.3-7.11,16.64-11.56,26.14-14.91a380.36,380.36,0,0,1,44.5-12.35c2.93-.22,4.17-3.15,5.8-5.15,12.28-16.18,20.52-34.89,31.21-52.08,18.27-29.71,42.53-56.53,73.21-73.68m240.89,40.85a465.61,465.61,0,0,1,49.11,45.49,492.53,492.53,0,0,1,76.13,106.3c11.31,21.47,21.44,43.7,28.05,67.1,12.41,43.13,9.09,90.24-8,131.63,13.72-9.27,21.15-25.12,25.71-40.54,6.36-22.48,9.52-45.81,10.51-69.11-1.83-10.51-5-20.76-8.14-31-12.75-41-34-78.92-58.86-113.78-12.07-16.72-24.9-33-39.74-47.37-12-11.53-25.65-21.22-39.95-29.68-11.39-6.73-22.93-13.27-34.82-19.08M750.22,254.93c7.89,6.77,15.29,14.46,19.61,24.06,10.27,21.45,9.39,45.8,11.09,69,2.38,43.65,7.83,87.66,22.7,129,4.93,13.08,10.18,26.6,20,36.89,8,8.59,20,13.73,31.76,12.22l2-.71c-5.49,2.86-12.07,1.49-17.94.82,12.38,7.09,25.3,13.37,39,17.48a162.21,162.21,0,0,0,56.41,7c4.26-.94,8-3.44,11.82-5.42,13.83-7.52,25.37-18.4,37.33-28.47-16,6.53-33.67,7.82-50.69,5.69A143.9,143.9,0,0,1,890,509.48c-16-7.62-30.57-18.8-40.82-33.38-8.87-12.54-14.61-27.68-14.46-43.17,1.43-20-3.88-39.52-7.88-58.91-5-23.47-10.88-47.08-21.82-68.6-7.44-14.66-17.91-28.16-31.8-37.19-7.44-4.81-15.13-9.22-23-13.3M470.66,360.55c4.47-1,9.12-1.81,13.7-1,7,1.09,13.62,5.74,15.83,12.62,3.38,9.78-1.44,20,.46,30,1.93,13,9.84,24.24,18.58,33.72a115.17,115.17,0,0,1-13.27-71c.74,11.51,1.6,23.09,4.73,34.25a129.75,129.75,0,0,0,33,58.55c2.73,2.57,5.3,5.45,8.73,7.11,17.15,8.69,34.64,16.88,53,22.78,22.47,7.49,46.49,10.75,70.09,8.13-5.19-.66-10-2.88-15-4-23-2.23-46.77-4.26-67.61-15-13.91-7-25.16-18.41-33.69-31.3C547,427,539.46,406.18,531.26,385.9c-3.58-9.69-7.87-19.14-10.82-29,4.08,7.46,7.64,15.2,11.44,22.81,8.74,17.21,16.16,35.1,25.87,51.81,8.47,14.34,19,28,33.47,36.77,17.19,10.59,37.46,14.26,57.11,17.36-3.47-2.07-7-4-10.4-6.23C606.81,459,578.08,434.58,555.35,405c-10.86-14.19-22.14-29.59-23.82-48-8.65-4.77-18.21-8.4-28.19-8.65-11.86-.16-24.1,3.76-32.68,12.16m62.52-2.44c1.83,8.22,5.7,15.83,10.34,22.81,7.45,11,16.22,21,25.07,31a389.59,389.59,0,0,0,43.82,41.28c14.45,11.3,28.64,23.14,44.75,32.06,2.3,1.21,4.61,2.62,7.26,2.92,10.86,1.63,21.67,3.55,32.5,5.41-7.13,1.78-14.47-.9-21.7-.28a41,41,0,0,0,22,1l-.25,1c7-.21,13.82,1.36,20.61,2.77-19-13.68-38.72-26.26-58.68-38.44-12.33-8.91-24.11-18.59-35.8-28.32-16.48-13.78-33-27.56-49.29-41.52-13.2-11-25.65-23-40.58-31.65m-49.76,84c4.43,1.79,8.75,3.84,13,6-1.1-1.38-2.24-2.74-3.33-4.12-3.24-.61-6.44-1.36-9.69-1.86Z"/><path d="M816,94.79c29.9-1.95,60.17-4,89.9.95,34.26,5.62,66.47,20.91,94,41.77,39.91,30,69.52,71.52,92.7,115.28a635.14,635.14,0,0,1,29.76,65.2c7.51,19.71,13.8,40.06,16.24,61.07,2,17.46,1.17,35.39-3.58,52.35-3.22,10.87-8.16,21.75-16.53,29.61,5.19-6.87,9.84-14.25,12.54-22.5,8.41-24.64,6.82-51.53.9-76.54-5.86-24.67-15.92-48.07-26.64-70.95-19.16-41-41.73-81-72.44-114.5-29.65-32.4-66.9-59.05-109.56-71-22.38-6.34-45.79-7.7-68.93-7.74-20,.45-40,1.17-59.93,2.73-21.52,1.85-43.34,5.29-63.06,14.54a97.93,97.93,0,0,0-40,33c9-16,24.19-27.68,40.43-35.73C758,99.52,787.4,96.76,816,94.79Z"/><path d="M772.55,135.64c23.08-4,46.79-3.11,69.83.76a212.86,212.86,0,0,1,95.48,42.31c10.08,7.71,21,14.75,28.91,24.85,7.94,10.9,15,22.44,22,33.93,12.9,21.5,27.21,42.18,38.72,64.49a198.36,198.36,0,0,1,17.05,45.16c5.17,22.21,6.15,45.54,15.13,66.76,3.93,9.35,8.33,18.52,11.91,28,2.82,7.37,7.57,14.79,15.29,17.68,2.81.91,5.83.58,8.74.91-4.65.59-9.65.45-13.64-2.31-6.8-4-10.3-11.47-13.35-18.42-4.73-11.38-11.12-22-15.33-33.61-7.88-22.13-8.79-46-16.36-68.24-9-26.93-24.17-51.17-39.44-74.91-10-15.42-19.32-31.32-29.61-46.57-3.26-4.64-6.34-9.46-10.36-13.5-7.67-7.83-16.85-13.92-25.42-20.68-28.73-22.61-63.61-36.76-99.68-42.13-25.22-3.94-51.31-3.78-76.1,2.68a138.14,138.14,0,0,0-65.15,37.1c5.61-7.43,12.83-13.52,20.25-19.06a144.68,144.68,0,0,1,61.12-25.23Z"/><path d="M1156.6,188.9c-11.69-20.05-30-35.18-42.07-55,8.46,10.44,17.82,20.11,27.2,29.73,11.67,11.88,21.73,25.58,27.73,41.23,16.46,41.18,32.33,82.84,42.1,126.2,2.69,11.23,4.57,22.64,6.93,33.94.8-3.79,1-7.71,2.28-11.41a222.89,222.89,0,0,1,0,26.36c1.83,14.61,2.66,29.54-.12,44.1-3.27,17.15-10.1,33.34-17.12,49.24,1.27-6.8,4.4-13.11,6.29-19.76,5.53-17.06,9.34-35,8.24-53-4.37,19.94-10.61,39.66-20.64,57.53-2.85,4.78-7.14,9.59-13.13,9.8,5.95-2.31,9-8.19,11-13.87,8.61-23.72,15.76-48,20.19-72.91a711.79,711.79,0,0,0-22.8-94.29c-6.73-21.29-14.39-42.27-21.87-63.3-4.29-11.71-7.9-23.8-14.22-34.63Z"/><path d="M816.26,148.48c18-.34,35.86,3.5,53,8.85a188.9,188.9,0,0,1,53.68,28.29C938,197,951.49,210.89,961.16,227.25c8.44,14.3,14.11,30,21,45,5.83,12.68,12.87,24.8,18,37.81,6,15.28,7.87,31.84,14,47.09,8.79,21.3,22.58,40,32,61,6,12.82,11.53,26.26,21.16,36.89,8.17,9,19.68,15.63,32.1,15.53-11.74,1.42-23.13-4.07-31.64-11.8-9.42-8.45-15.76-19.63-21.31-30.85-4.45-9-9-18-14.28-26.63-7.73-12.82-16.15-25.31-22.14-39.08-5.89-12.86-8.32-26.88-12.38-40.33-3.64-12.24-9.78-23.5-15.55-34.83-8.84-16.69-14.61-34.8-23.28-51.57A127.78,127.78,0,0,0,935,203.42c-31.29-31.77-74.44-51-118.72-54.94Z"/><path d="M1217,150c15.46,4.72,31.21,11,42.77,22.72,7.2,7.4,12.69,16.23,18,25a543,543,0,0,1,53.38,118.77,407,407,0,0,1,11.1,43.6c-12.85-37.87-27.15-75.31-44.55-111.35Q1284,220,1268.11,192.46c-5.61-9.63-12.25-18.95-21.31-25.65-9-7.14-19.77-11.44-29.8-16.85Z"/><path d="M715.59,182.54A251.46,251.46,0,0,1,782.46,172c25.09-.17,50.39,4.34,73.31,14.74,31.14,14,55.58,39.58,74.14,67.75,18.54,27.71,31.24,58.71,43.7,89.48,11.15,27.48,22.26,55.1,36.76,81,10,17.81,22.44,35.2,40.29,45.83,14.11,8.37,32,11.51,47.66,5.86,3-1,5.67-2.61,8.55-3.84-6.31,5.06-14.46,7.45-22.42,8.2-16.38,1.5-32.95-4.18-45.76-14.32-16.92-13.22-28.53-31.75-38.75-50.33-13.53-24.53-23.75-50.67-34.57-76.45-13-31.11-26.69-62.24-46.11-89.95-10.36-14.71-22.29-28.44-36.34-39.75a151,151,0,0,0-56.49-28.83c-36.23-9.71-74.66-7-110.83,1.58v-.44Z"/><path d="M715.42,211.14c13.13-2.37,26.84-4.72,40-1.33,10.41,2.62,19.39,8.86,27.66,15.48,14.43,11.4,26.79,25.65,34.86,42.26,8.53,17.77,13.57,37,17.11,56.34,6.28,35.79,8.16,72.68,20.74,107.09,6.23,17.35,15.38,34,28.83,46.87,14.68,14.86,34.59,25.08,55.68,26,.61-.57,1.24-1.12,1.89-1.67-8.77-4.77-15.56-12.42-21.56-20.24-11.42-15.57-19.89-33-29.23-49.83-12.78-23.6-25.79-47.8-30.45-74.54-4.47-24.35-3.65-49.5-10.11-73.51-3.94-14.64-10.86-28.92-22.11-39.33-5.67-5.62-12.56-9.74-18.65-14.83,13.15,7,25.82,15.93,34,28.63,10.54,16.27,14.85,35.6,17.43,54.56,2.71,20.65,3.74,41.76,10.42,61.64,6.74,20.55,17.18,39.58,27,58.74,6.79,12.86,12.92,26.08,20.38,38.58,7.79,13.07,17.89,25.51,31.8,32.34a49.75,49.75,0,0,0,24.13,5l0,.42c-5.35.1-10.76.74-16-.55-5.9-1-11.22-3.9-16.74-6.06-.49.49-1,1-1.44,1.48-3.91-.6-7.88-.18-11.77-.82-18.24-2.48-35.15-11.62-48.42-24.19-19.88-18.89-31.26-44.9-37.8-71.13-10.37-41.41-10.75-85-25.26-125.43a114.09,114.09,0,0,0-29.64-45.84c-10.32-9.61-21.3-19.65-35.23-23.47-9-2.37-18.37-1.79-27.48-.67-21.79,2.81-43.52,6.15-65.33,8.66,18.3-4,36.84-7,55.24-10.56Z"/><path d="M1279.3,256a246.78,246.78,0,0,1,33.87,53.17c9.3,19.78,14.44,41.26,17.2,62.87,2.26,18.84,4.18,38,1.25,56.9-5.23,32.9-27.35,62.79-57.67,76.78a6.14,6.14,0,0,1-.25-7.08c-.17,1.72-1.33,4.6.84,5.43,28.73-16.7,48.62-47.79,51.61-80.92,1.41-16.09-.12-32.24-1.88-48.23-2.54-21.83-7.12-43.55-15.43-64-7.74-19.38-18.71-37.22-29.54-55Z"/><path d="M1251.4,258.79a246.75,246.75,0,0,1,26.1,109.28c3.88,25.21,6.32,51.29.53,76.41-3.39,14.48-9.45,28.82-19.78,39.73,14.68-24.23,18-53.37,16.66-81.18-4.54,27.1-13.59,53.73-28.71,76.8-1.47,2.49-4.34,3.21-7,3.14,2.42-.76,5.1-1.51,6.12-4.14,10.5-20.63,17.5-43,21.69-65.69,2.13-10.62,2.65-21.45,4-32.16-1.63,4.46-1.48,9.27-2.35,13.88-3.05,18.76-8.43,37.54-18.84,53.62-6.83,10.58-15.84,20-26.88,26.14-5.68,3.22-13.36,5.59-19.24,1.58a18.82,18.82,0,0,0,14.75-3.16c15-10.15,25.7-25.51,33.29-41.74,8.13-17.62,12.92-36.49,18.88-54.9,1.43-10.43-.28-20.91-1-31.33-.74-22.48-6-44.54-12-66.11-1.77-6.81-4.74-13.28-6.17-20.17Z"/><path d="M1337.8,262.54c6,0,10.79,4.31,14.21,8.88,28.72,36.89,38.11,87.41,26.58,132.51-2.75,9.9-6,19.83-11.27,28.71,6.64-21.21,10.65-43.42,9.91-65.71a186,186,0,0,0-29.14-96.6c-2.45-3.49-5.83-6.72-10.26-7.21,0-.14,0-.44,0-.58Z"/><path d="M780.53,288.16c9.84,12.2,15.85,27,20.34,41.9,6.81,24.27,9.62,49.4,15.08,74,6.9,31.94,17,63.53,33.55,91.88,7.94,13.45,18.22,26.29,32.34,33.58,14.9,7.82,32.28,8.5,48.72,7.42,10.15-.61,20.13-2.74,30.23-3.71-15.14,4-30.64,7.06-46.32,7.55-12.6,0-25.5-2-36.77-7.84-14.68-7.4-25.45-20.54-33.89-34.32C826,468.72,815.61,435,809.25,401c-5.3-27.63-6.82-56-15.23-83a139.36,139.36,0,0,0-13.49-29.84Z"/><path d="M1191.4,366A228.45,228.45,0,0,0,1180.64,311c10.85,19.14,15.89,41.11,17.39,62.93a219.72,219.72,0,0,1-6.41,66.89c-2.84,11.36-8,22.7-17.39,30.11-1.42.75-.51,2.29-.44,3.47-.52-1-1-2.07-1.51-3.09,8.82-8.5,12.59-20.62,14.71-32.36,4.16-24.07,6.09-48.63,4.41-73Z"/><path d="M1389.4,349.44c4,5.3,5.73,11.83,8.39,17.81,4.78,2.4,8.05,7,11.42,11,13,17.2,16.25,39.92,13.77,60.9a128.63,128.63,0,0,1-21.31,57.1,78,78,0,0,1-36.28,28.58,70.5,70.5,0,0,0,38.8-22,108.73,108.73,0,0,0,16.08-23,179.67,179.67,0,0,0,10.55-31.18c2.27-10,2.49-20.74-1.18-30.43-1.33-4-3.8-7.36-5.73-11,9.2,7.87,13.7,20.38,13.24,32.32L1439,439q-.68,2.84-1.37,5.67c8.61,7.8,11.51,20.21,9.63,31.39-2.39,13.47-10.74,25-20.35,34.38-9.66,9.9-21.11,17.83-33.09,24.63,7.07.81,14.05-1.53,20.42-4.4,9.39-4.53,18-11.36,23.06-20.64,5.93-9.87,9.31-20.94,12.48-31.92a65,65,0,0,1-6.74,34.48c-6.34,13.42-20.13,22.64-34.7,24.6-5.1.67-10.53.44-15.19-1.92a27.81,27.81,0,0,0-4.68,2.92c-3.35.64-6.36,2.3-9.52,3.47a125.14,125.14,0,0,1-19.77,5.73c8.23-4,16.63-7.67,24.55-12.3-10.58,1.77-21.72,2.65-31.23,8-2.79,1.49-5.07,3.71-7.63,5.51,2.87-5.1,7.62-8.92,12.79-11.51,12.21-6.43,26.77-6.33,38.83-13.1,2.56-3.53,4.51-7.47,6.84-11.16-6.91,5.53-14.56,10.34-23.09,12.92-10.26,3.33-21.18,3.56-31.85,3.07-10.29-1-20.82-2.55-29.95-7.71,6.6,1.54,13.1,3.92,20,3.86,18.29,1,35.85-7.82,48.47-20.61,12.41-13,20.42-29.52,25.76-46.48,6.71-22.21,8.53-47-.37-68.82a62.68,62.68,0,0,0-14.43-21.67c6.46,22.27,6.1,46.74-2.6,68.37s-24.5,40.75-45.3,51.47c4.62-4.64,9.89-8.61,14.18-13.61,15.68-16.81,26.8-38,30.76-60.75,3.89-21.2,1.21-43.12-5.48-63.47m42.53,118.23c-6,18.86-16.17,36-27.6,52.05a79.88,79.88,0,0,0,34.76-58.4l.58,0a67.36,67.36,0,0,1-3,26.89c8.21-12.45,10-29.9,1.15-42.51C1435.4,452.94,1434.5,460.53,1431.93,467.67Z"/><path d="M1334.4,359.76c11.8,17.9,18.55,38.89,20.56,60.18,1.72,19.87-.28,40.24-7.12,59-4.33,11.55-11.7,23.06-23.43,28.08,5-4,9.55-8.71,12.55-14.47,5.86-10.58,8.38-22.59,10.24-34.43,4.1-26.61,1.58-54.07-6.38-79.73-1.71-6.38-4.59-12.36-6.42-18.68Z"/><path d="M1404.4,408c.53-6.09,0-12.21.44-18.29,8.07,37.18-2,78-26.68,107-7.92,9-18.53,16.37-30.65,18.07-7.51,1-15.77.28-22.2-4,11.35,3.79,24.05,1.56,34-4.9,11.3-7.36,19.3-18.67,25.78-30.27A157.59,157.59,0,0,0,1404.4,408Z"/><path d="M1337.6,390.58c4,23.32,2.14,47.45-3.43,70.36-2.81,10.82-6.14,21.61-11.17,31.62-3.3,6.37-7.87,12.6-14.52,15.72-3.52,1.74-7.62,1.43-11.26.3,3.51-.14,7.27-.17,10.18-2.46,7.2-5.25,10.7-13.93,13.47-22.1a336.84,336.84,0,0,0,15.41-77.9c.53-5.17.55-10.39,1.32-15.54Z"/><path d="M446.74,450.18c2.63,5.63,3.78,11.84,5.92,17.67,7,20.94,14.68,41.86,26.29,60.74A149.12,149.12,0,0,0,512.44,568c13.81,11.11,30.22,18.41,46.93,24,15.1,4.76,30.24,9.77,46,12,13.42,2,27.14.37,40.19-3,16.34-4.1,31.7-11.09,47.26-17.38a281,281,0,0,1-33.52,16.43c-20.64,8.54-43.7,12.41-65.77,7.7-20.43-4.42-40.75-10.1-59.8-18.83-14.6-6.64-27.46-16.54-38.56-28,6.59,11.71,14.72,22.9,25.62,31,12.3,9,27,13.92,41.69,17.34,23.86,5.35,48.52,8.51,73,6,18.68-1.89,37.26-7.5,52.84-18.2l-.68-1.22c1,.1,2,.17,3,.2-.9.7-1.8,1.41-2.67,2.16-3.85,26.86-6,54-7.18,81.06-.41,11.69-1,23.39-.37,35.06-.82,8.25-.09,16.52-.1,24.79l-1.29-.24c-1.54,14.06-2.55,28.18-4.07,42.25-1.72,19.87-2.23,40.9,6,59.51a481.39,481.39,0,0,1,0-54.39c-.75-15.59-2.09-31.19-1.82-46.81l1.35,0c.12,11.85.68,23.72,1.7,35.53,3.09,19.58,2.89,39.49,5.84,59.09A1032.62,1032.62,0,0,0,708.51,941c11,45.47,23.33,90.59,33.68,136.21,7,28.9,22.94,54.48,38.29,79.59,10.39,16.33,20.59,32.77,30.86,49.17a883.52,883.52,0,0,0,67.12,91c13.07,15.52,25.64,31.54,40.13,45.8,13.22,13.25,28.28,25,45.43,32.66,38.65,17.45,82.76,22.88,124.39,14.52,33.88-7,66.53-21.66,93-44.07,13.37-11.13,23.56-25.41,32.91-39.93,8.44-12.94,16.21-26.32,24.9-39.1,12.55-18.71,25.93-36.85,38.91-55.26,20.36-28.91,39.93-58.79,53.1-91.76,16.15-40.33,23.88-83.58,26.67-126.8,3.75-47.41,3.92-95,1.67-142.51-4.83-98.66-20.54-196.64-44.23-292.48-1.83-8.13-4.47-16.09-5.87-24.31a1603,1603,0,0,1,44.81,225.34c2,15,3.1,30.28,4.93,45.11h.5c.68,1.92-.77,4.45-.19,6.66a1276.58,1276.58,0,0,1,3.31,151.25c15.55-10.27,24.22-27.44,31.91-43.8,6.93-15.73,13.53-31.6,20.59-47.27,9.39-21.61,19.71-42.81,28.47-64.7,7.21-18.08,13.45-36.77,15.72-56.19,2.22-19.75-.09-40.35-8.77-58.39-1.42,3.17-2.64,6.43-4.08,9.59-2.51,5.64-6.23,10.83-7.81,16.84,4,19.08,1.35,40.13-9.53,56.57,1.91-17.71,5-35.28,7.39-53-4.7,7.56-10.21,14.74-17.34,20.16-3.55,3-7.72,5-11.65,7.37-3.06,3.37-5.57,7.25-9.12,10.18,4-13.16,10.06-25.55,14.84-38.4,7.9-30.82,11.19-63,8.35-94.72-1.71,5.69-2,11.68-2.71,17.55-1.95,18.61-2.68,37.35-5.32,55.88a169.77,169.77,0,0,1-14,49.37c-2.74,6.58-7.06,12.54-8.35,19.67-4.6,16.75-8.16,33.88-8.35,51.31-3.2-12.62-2.94-25.82-.8-38.59l-1.55,2.29-.8-2.26a62.53,62.53,0,0,1-3.45,21.49c-4.23,11.88-2.47,24.62-2.83,37a75.18,75.18,0,0,1-5.81-24c-1.38,10.78-.21,21.73-1.77,32.48-1.48-11.14-4.23-22.3-3.2-33.62.45-6,3.19-11.51,5.35-17.06,3.21-8,5.87-16.31,6.79-24.91,1.69-15.43-.65-30.87-1.23-46.29a156.64,156.64,0,0,1,7,31.46c6.8-10.44,13.29-21.66,14.88-34.23,1.63-8,1.37-16.45-2-24a31,31,0,0,1,5.87,11.21c2.67-16.26,3.65-32.73,4.75-49.14,1.6-23.94,1.75-48,2.4-71.92,5.54,33,5,66.8,2,100.06,2.56-17.43,4.31-35,8.85-52.1,1.11-4.13,1.93-8.45,4.31-12.09-1.34-18.31-4.82-36.39-9.21-54.2,6.83,14.29,11.07,29.71,13.77,45.28a209.45,209.45,0,0,1-3.14,83.77c-1.26,5.1-3.13,10.08-3.48,15.37-1,10.3-4.9,20-9.58,29.15,23.28-20.34,35.27-52.85,30.6-83.43l1.68,2.19a251.32,251.32,0,0,0-.84-64.84c-1.93-12.08-5.32-24.53-13.4-34-9.92-11.31-23.63-18.42-37.32-24.13,12.88,1.47,25.17,7.15,35.56,14.8,12.75,9.42,19,25.07,21.17,40.33,3.27,22.93,2.14,46.78-4.95,68.92a74.57,74.57,0,0,1,3.5,18.73,100.53,100.53,0,0,0,3.25-39.3c7.24,14.13,6.31,31.06,1.56,45.83,11.93,19.44,15.13,43.07,12.66,65.46-2.49,24.26-11.35,47.24-20.74,69.56-6.12,14.12-12.73,28-19.12,42-8.88,19-17.64,38.14-27.22,56.84-8,15.27-18.22,30.61-33.9,38.86-.47,13.39-1.6,26.74-2.53,40.1-3.41,43.45-12.14,86.87-29.55,127a43.11,43.11,0,0,0-4.61,15.2c22.16,9.75,44.47,19.36,65.44,31.54,27.79,15.95,53.49,37.07,70.11,64.83,1.25-.13,2.62-.52,3.8.25l306.09,158.93c27.69,14.63,56.78,26.51,84,42.07,23.08,13.16,45.3,29.39,60.23,51.77,7.53,10.66,12.31,22.86,18.3,34.39q27.87,55.76,55.76,111.52c4.31,9.07,9.6,17.74,12.53,27.41,40.2,114.17,53.24,237.54,39.36,357.7-5.5,52.81-13.15,106.15-6.67,159.23h-4.38c-5.6-48-.1-96.36,5.13-144.15,2.89-26.2,5.6-52.44,6.49-78.8A795.49,795.49,0,0,0,1999,1671.63c-2.47-8.39-6.6-16.09-10.52-23.85l-37-74c-10.24-20.7-20.85-41.22-30.78-62.06a131.42,131.42,0,0,0-29-37.94c-20.1-18.1-44.23-30.83-68.34-42.68-16.13-7.95-32.54-15.3-48.52-23.55q-155.28-80.67-310.58-161.3c11,20.06,15.71,43.09,15.44,65.84.33,20-2.3,39.95-4.43,59.83q-20.67,187.09-41.34,374.18c.42,2.83-2.74,1.48-4.41,1.75.88-17.1-9.22-32.41-21.24-43.64-14.73-14.29-33.62-22.91-50.31-34.52-13.62-9.19-26.25-20.94-32.95-36.23-8.54-19-9.12-40.17-13.08-60.34-2.72-13.9-7.23-28.06-16.8-38.85-6.08-7-14.19-13.18-23.75-13.76-8.91-.63-17.11,4.12-23.47,9.94-10.15,9.53-17.34,21.95-21.81,35.06-6.52,19.85-6.4,41-10.16,61.4-4.6,25.24-14.7,49-25.23,72.26-49,105.31-86.86,215.27-123.71,325.27-9.79,29.19-20.75,58.55-23,89.52-1.55,19.77,1.89,40.5,13,57.27-1.2.78-2.4,1.57-3.58,2.4-11.05-16.56-14.81-37-13.83-56.63,1.53-32.23,13-62.73,23.05-93,36.37-108.26,73.48-216.58,121.38-320.39,9.14-20.1,18.27-40.34,24.13-61.68,6.06-20.45,6.24-41.95,10.12-62.81a101.43,101.43,0,0,1,18.88-43.42c53.85-118.4,83.35-247.74,86.94-377.75-4.68,26.19-7.84,52.65-10.28,79.15-1.54,14.34-2,28.78-3.42,43.13-2.66-45.1,2.37-90.48,13-134.33-26.44,52.24-65.54,96.48-95.59,146.5-8.65,13.83-17.18,27.81-27.5,40.48-12.21,14.63-27.52,26.46-43.94,36-34.89,20.22-75.48,31.21-115.89,29.11a212.16,212.16,0,0,1-65.34-13.43,146.71,146.71,0,0,1-38.54-20.69c-17.62-13.17-32.25-29.77-46.28-46.59-11.26-13.7-22.74-27.22-33.65-41.19a896.3,896.3,0,0,1-61.93-90.34c-6.52-10.25-12.8-20.65-19.47-30.79.81,11.7.79,23.47,2.66,35.07,4.68,34.34,7.5,69.45,1.37,103.8l-1.09.11a365.7,365.7,0,0,0,.48-50.42c-.44-6.23-.53-12.5-1.64-18.66.85,49.44-1.56,99,3.72,148.31a485.54,485.54,0,0,0,32.84,133c20.42,50,50.93,96.51,92.33,131.57-4.94,10-6.39,22-2.6,32.61,4.67,13.57,15.44,24,27,31.95,18.19,12.29,39.27,19.05,59.27,27.7,16.55,7.27,33,16,45.31,29.59,9.66,10.46,15.63,23.83,18.71,37.62,3.42,14.72,4.14,29.87,5.1,44.9,2.82,45.88,5.39,92.07.08,137.87-4.12,36.26-14.24,71.42-21.9,107-3.89,18.43-7.78,37.13-7,56.08a186.91,186.91,0,0,0,2,23.14c.38-3.25.83-6.46,1.5-9.63,1.37.33,2.76.69,4.16,1.07a46.41,46.41,0,0,0,1.7,27.43h-9.06c-2.47-16.92-5.25-33.94-4.59-51.1.44-17.6,4.35-34.85,8-52,7.55-34.38,17.18-68.43,21.06-103.5,5.63-49.48,2.07-99.34-1-148.87-1.35-18.48-3.54-37.59-12.62-54.08-7.81-14.33-21-24.9-35-32.69-20.35-11.46-43-17.78-63.75-28.51-12.54-6.44-24.49-14.6-33.48-25.6-7.2-8.89-12.18-20-11.82-31.64-.13-6.26,1.47-12.38,3.68-18.18a300.54,300.54,0,0,1-39-41c.1.72.29,2.17.39,2.89l-3.76.81c-3.16-9.17-11.87-15.07-20.87-17.62-8.84-2.63-19.23-2.49-27,3.08-6.2,4.57-8,12.69-8.81,19.92-1.46,16.44,1.88,32.78,4.39,48.95l1-2.91a240.38,240.38,0,0,1,100.19,60.29c23,23.09,41.68,51.52,49,83.59,6.34,28,3.56,56.92.47,85.15a1712.69,1712.69,0,0,0-8.15,303H944a1740.43,1740.43,0,0,1,7.71-298.22c3.08-28,6.49-56.62,1.11-84.59-6.64-34.4-26.9-64.74-51.81-88.77a234.72,234.72,0,0,0-94.75-56.11c4.14,22.14,4.51,45.47-2.12,67.17-4.44,14.58-13.66,27.74-26.53,36.07,2.07-8.85,2.12-18.2-1-26.82-5.85-18.62-20.09-32.63-29.63-49.24-17.6-29.62-28.21-62.68-37.51-95.67-6.29-22.42-11.94-45-18.71-67.31-13.52-45.49-25-92-27.45-139.59-2.17-39.6,2.51-79.94,17-117,9.85-25.51,24.27-49.4,43.27-69.15-19.27,8.7-39.25,15.78-58.21,25.17-32.32,15.93-64.83,32.43-100,41a190.83,190.83,0,0,1-42,5.58c-3.37-.17-6,2.2-9,3.53q-178.38,93.69-356.79,187.36c-3.74,2.11-8.1,3.54-10.87,7q-11.16,12.84-22.38,25.61a83.25,83.25,0,0,0-9.46,12.54c-21.35,32.22-38.83,67.18-50.55,104-5.5,50.45-10.36,101-15.62,151.48Q27.05,1972,5.3,2185H1q29.5-288.95,59.05-577.87c11.24-36,28.16-70.22,48.59-101.91,3.82-5.8,7.46-11.75,12.25-16.81q11.92-13.58,23.79-27.19c1.76-2.08,4.29-3.19,6.64-4.42q184.14-96.49,368.18-193.21c13-.62,26.09-1.54,38.84-4.46,39.89-8.55,76.12-28,112.53-45.62,20.45-9.47,41.93-16.66,61.88-27.21,4.52-2.68,8.2-6.52,12.54-9.47,5.4-3.57,9-9.13,13.23-13.86,3.53-4.38,7.8-8.06,11.85-11.92.91-4.53-2.39-8.07-4.38-11.73-8.9-15.4-17.26-31.24-23-48.12-3.66-10.66-5.54-21.8-8.29-32.71-4.91-21.61-10.72-43-15.76-64.59-.41.86-1.24,2.57-1.65,3.42.37-1.45.82-2.85,1.3-4.24-5-20.43-10.29-40.81-15-61.32-2.34-8.88-3.53-18.07-6.39-26.78-.21-4.73-1.54-9.29-2.35-13.92-2.3-11.72-4.25-23.51-6.17-35.29.09,10.18,3,20,4.34,30.07.8,6.36,2.72,12.51,3.52,18.87-1.37-2.55-2.34-5.28-3.48-7.91l-.43,3.26c-4.84-12.23-7.21-25.23-9.41-38.14-2.27-9.44-8.08-17.49-11-26.7-6-17.8-5.64-37-3.35-55.4,2.63-20,5.61-39.88,9.2-59.69.73-3.69.51-7.46.7-11.18A876.23,876.23,0,0,1,684.51,621c.75-7.4,2.2-14.74,2.45-22.19-15.35,12.69-34.82,19.48-54.43,21.82-24.68,3-49.74,0-73.79-5.89A91.3,91.3,0,0,0,561,646.5c7.67,33.61,29.24,62.3,35.57,96.32,2.55,12.34,1.29,25,3.13,37.45a1,1,0,0,1-1.69-.17c-1.4-4.84-1.83-9.88-3-14.76-2.26-1.79-5-3.1-6.6-5.58-3.85-5.33-4.2-12.13-5.75-18.3a45.27,45.27,0,0,0-9-17.89c-8-9.89-18.17-18-25.11-28.79-6-9.57-9-20.7-10.64-31.77-2-16.08-.63-33.14,6.57-47.84-.44,3.78-1.43,7.46-2,11.23a108.71,108.71,0,0,0,7.35,57c8.14,19.44,29.35,30.22,35.38,50.85,2.25,6.7,1.54,13.9,3.22,20.7.9,3.86,3.49,7,6.44,9.52a132.8,132.8,0,0,0-8.22-36c-8.35-22.76-20.86-43.89-27.23-67.39-4.19-15.07-5.71-31.21-1.73-46.5-14.1-3.76-28.08-9.15-39.61-18.3-11.31-8.82-19.13-21.26-25-34.18-1.51-3.06-2.5-6.4-4.54-9.17-20.9-26.21-32.06-58.6-39.76-90.83-.76-3.94-2.46-7.82-2.16-11.88m957.38,266.88c-1.43,6.11-4.81,11.71-5.07,18.07,2.59-5.73,3.54-12,5.07-18.07M1381,759.7a103.83,103.83,0,0,1-.68,22.7c3.33-5.07,3.91-11.19,5.46-16.91,1.27-5.61,2.81-11.16,4.26-16.73-3,3.66-6.08,7.26-9,10.94m-52.47,391.46a1024.89,1024.89,0,0,1-8.82,112.74A987.12,987.12,0,0,1,1246.21,1526c6.54-5.42,14.54-9.67,23.21-9.78,8.95-.3,17.39,4,23.85,10,10.79,9.56,17.27,23,20.77,36.8,5.87,22.15,5.26,45.83,14.24,67.17,5.37,13.2,15.49,23.83,26.85,32.16,16.67,12.59,36.09,21.2,51.95,34.92,10.39,8.92,19.58,19.83,24.15,32.91,2.48-19.38,4.33-38.84,6.58-58.24q15.84-143.48,31.68-286.93c2.55-24.94,6.41-49.85,5.94-75-.13-18.18-3.28-36.54-10.82-53.16-8.42-18.63-21.46-34.89-36.58-48.51-28.75-25.86-64.5-41.82-99.55-57.16m-572.39,21.45a67.18,67.18,0,0,1-18.69,16.23,150.37,150.37,0,0,0-18.5,18.67c-23.66,28-38.64,62.6-46.11,98.31-5.68,27-6.67,54.77-4.82,82.22,3.18,45.37,14.28,89.72,27.22,133.17,7,23.12,12.77,46.58,19.41,69.8,11,38.57,24.17,77.64,48.72,109.95,10.6,14.39,20.43,30.88,20.21,49.36,9.69-9.07,15.51-21.54,18.44-34.33,4.32-19.08,3.66-39,0-58.14-2.63-15.47-5.45-31.07-5-46.83.44-8.84,1.85-18.53,8.22-25.2,7.18-7.33,18.41-8.84,28.13-7.18,7.26,1,13.92,4.28,20,8.33-16.4-22.31-29.78-46.76-40.77-72.14-17.19-40.1-28.41-82.66-34.27-125.86-7-51.72-5.09-104-5.31-156,.12-25.43,0-50.89-2-76.26-5.82,4.39-10,10.5-14.79,15.91Z"/><path d="M1474.3,476.89c-2.07,12.14-6.92,23.65-12.49,34.57a43.23,43.23,0,0,1-11,13.77c10.54-1.08,12.72-13,18.54-19.75.46,4.76-.93,9.43-1.63,14,3.44,3.91,6.28,9,5,14.36-1.87,7.18-8.54,11.5-14.36,15.34-3.24,2.16-7.27,1.63-10.87,1.07,7.35,5.23,12.67,13.56,12.95,22.73.16,6.28.74,13.29-2.9,18.78.36-6.69-.95-13.33-2.45-19.81a28.85,28.85,0,0,0-9.72-15c-7.28-6.24-14.61-13.13-24.12-15.67,12.46,8.75,24.19,19.49,30.57,33.6,2.56,5.15,3.66,10.82,5,16.37-.19,5.8.13,11.82-2.18,17.29-.77-9.82-3-19.6-7.39-28.44-6.81-14.64-18.08-26.4-27.73-39.13-2.62-.18-5.25-.06-7.85-.2,5.3-3.09,11.86-3.16,17.64-1.48s11,5.33,15.88,8.93c3.21-.61,6.82-.72,9.45-2.93s4.89-4.71,7.5-6.89a72.35,72.35,0,0,1-32.89-.27c9.16-4,19.29-4.68,29.15-5a25.21,25.21,0,0,0,9.15-2,23.56,23.56,0,0,0-1.23-9.08c-1.86,3-4.08,6-7.47,7.4-5.79,2.62-12.21.38-18.25,1.22-5.42,2.08-10.71,4.55-16.32,6,6.84-6.34,15.33-10.48,22.52-16.38,5.48-4.42,8.69-10.83,12-16.86C1463.87,494.54,1468.67,485.46,1474.3,476.89Z"/><path class="a" d="M1307.6,526.52c1.41-.11,1.32,2.39.58,3.16C1306.73,529.8,1306.8,527.26,1307.6,526.52Z"/><path class="b" d="M978.67,536c-.28-1.42.27-2,1.64-1.72C980.55,535.7,980,536.27,978.67,536Z"/><path d="M1319.4,537.68c13,19.33,20.18,42.12,23.52,65.06l1.17-.44A391.55,391.55,0,0,0,1357,670c3.5,12.4,7.64,24.67,9.95,37.38,5.35,28.25,3.21,57.32-1.73,85.46l-1.21.11c.28-8.66.46-17.31,1.25-25.93-.12-23.76-1.19-47.79-7.51-70.82-6.19-22.59-12.74-45.41-13.6-69l-.37-.11c-.94,3.63,0,7.69-1.81,11-2.63-21.54-5.95-43.06-11.82-64-3.17-12.28-7.43-24.24-10.7-36.48Z"/><path d="M1327.1,538.85c14.73,10.32,22.95,27.27,28.14,44a350.2,350.2,0,0,1,13,73.11c1,16.17,1.33,32.5-.4,48.62-2.64-27.41-5.22-54.89-10.14-82-4-21.13-7.33-42.76-16.34-62.48C1337.85,552.22,1332.64,545.35,1327.1,538.85Z"/><path d="M1355.4,548c15.64,8.51,24.49,25.47,28.67,42.19,5,21.28,4.52,43.59.93,65.06-1.57,8.32-3.41,16.67-6.52,24.57.88-11.92,2.59-23.8,2.86-35.77.67-22.64.19-45.94-7.44-67.53A73,73,0,0,0,1355.4,548Z"/><path d="M1384.4,555.38l.45-.08a146.19,146.19,0,0,1,17.28,58.64c1.69,19.12-.81,38.46-6.15,56.85-4.55,16.08-10,32.32-9.61,49.24-.16,5.2,1.23,10.24,1.93,15.34-5.19-11-5.89-23.59-4.54-35.51,2.21-19.61,9.52-38.24,11.5-57.89C1398.76,612.76,1394.37,582.95,1384.4,555.38Z"/><path d="M1417.2,567.82c6.67,3,12.16,8.18,16.32,14.11,6.2,9.1,8,20.32,8.57,31.1.87,15.67,1.56,31.71-2.7,47-3.72,15.37-10.83,30.68-8.5,46.83l-.77-.36a59.19,59.19,0,0,1-.94-25.88c2.3-14.2,6.82-28.09,7-42.59-.05-12,.33-24.11-.79-36.1a47.73,47.73,0,0,0-9.61-25.22c-2.45-3.35-5.69-6-8.59-8.88Z"/><path d="M516.66,607c.69-2.61,1-5.4,2.65-7.63-.23,5.85-1.06,11.68-.91,17.56-.22,17,3.57,33.76,8.08,50.07,3.72,13.51,7.32,27.58,15.86,39A44.13,44.13,0,0,0,564.15,722a80.46,80.46,0,0,1-.2-8.36c3.19,3.28,4.35,7.83,6,12,3.61,10.9,5.61,22.53,4.64,34,4.81-1.06,10.2-.33,13.83,3.25,5.6,5.53,7.77,13.4,10.32,20.62l.84-.52.56-.7c.58,6.64,5,11.89,9.6,16.38a50.32,50.32,0,0,0,25.89,13.61l-.91-2.49c5.13-16,5.81-33.13,4.06-49.75-1.94-20.4-7.63-40.15-12.5-60-5.48-21.25-10.4-43.11-9.08-65.2A311.06,311.06,0,0,0,624.93,673c6,22.62,13.7,44.84,17.41,68,3,18.56,3.25,37.84-1.79,56.07,2.6-5.55,5.73-10.84,8.4-16.36,1-1.72,1-3.7,1.07-5.6.79-42-13.25-82.94-10.9-125a168.27,168.27,0,0,1,3.69-25l.42.07c-2.11,21.94.21,44,3.78,65.65,3.1,20,7,40,8,60.28.21,3-.09,6.09.56,9.08,6.52-32.73-1.14-66.5,5.85-99.18,2.08-8.78,4.81-17.61,9.82-25.2a111.3,111.3,0,0,0-7.07,31.34c-2.17,27.61,2.75,55.31-.46,82.88,5.89-26.59,12.47-53.48,11.39-80.93,4.45,19.74,2.4,40.24-.85,60-5.19,31.14-14.42,62.11-12.38,94,.74,9.65,4.28,19.33,11.66,25.87-9.19-4.85-13.64-15.2-15.49-24.94-3.21-18.93-.67-38.18,2-57-1.13,6-4.14,11.37-6.26,17-1.93,11.1-4.74,22.26-10.26,32.16,2.26-7.93,4.38-15.93,5.32-24.14-6.17,9.43-12.41,20.4-10.22,32.1.65,4.72,3.49,8.62,6.65,12-8.09-4.54-10.49-14.75-9.72-23.37-9.26-1.09-18.51-4.64-25.46-10.94-.4.39-.78.8-1.15,1.22,6.59,13.41,16,26.4,16.35,41.9.29,10.3-2,21.09,2,31,5,12.85,16,21.79,25.31,31.39-13.09-6.87-25.84-16.61-31.6-30.67-3.87-9.75-2.27-20.43-1.91-30.61.51-9.75-3.18-19-6.33-28-1.9-5.11-3.32-10.37-4.84-15.6l1.24.31c-.26-.56-.77-1.7-1-2.26a49.28,49.28,0,0,1-13.29-17.86c-1.35-3.13-2.63-6.28-4.22-9.28-3.74.39-7.89,1.71-9.5,5.46-3.49,7.92-2.35,16.94-.87,25.21,4.19,20.29,14,38.74,22.78,57.33-8-8-14-17.77-19.27-27.72-7-13.73-11.94-29.18-10.09-44.73.72-5.4,2.38-11.23,6.83-14.74,2.72-2.21,6.37-2.34,9.7-2-2.28-3.67-5.09-8-9.82-8.44-4.11-.61-7.65,2.16-10,5.24-4.07,5.46-5.59,12.39-6,19.07.7,4.71,1.91,9.34,2.18,14.12-.61,1.52-1.36,3.12-.71,4.78,3.72,16.08,12.46,30.42,22.23,43.51,8.14,10.8,16.75,21.27,24.22,32.57a141.62,141.62,0,0,1,15.85,31.23c3.6,9.69,8.25,19.07,14.66,27.24a86.55,86.55,0,0,0,33,26c5.58,2.53,11.54,4.81,15.84,9.36,5.91,5.89,8.5,14.49,15.28,19.59,3.19,2.39,7.48,4.26,11.46,2.93l.84-2.56c.12,1.38.91,3.58-1.22,3.73-5.25,1.17-10.69-1-14.53-4.59-5.43-4.71-8.43-11.47-13.54-16.45-4-3.77-9.16-5.84-14.16-7.87a90.76,90.76,0,0,1-38.53-28.5c-7-8.7-11.56-19-15.6-29.33A132,132,0,0,0,607.49,887c-11-16-24.08-30.39-34.09-47-7.14-11.91-12.68-25-14.38-38.9-.74-5.31-.16-10.67-.25-16-3-6.11-8.09-10.83-13-15.47-10.42-10.14-15.92-24.41-17.58-38.66a126.19,126.19,0,0,1,1.53-35.13c-5.65-11.65-9-24.23-12-36.77-4-17-5.24-35-1.13-52.1m15.4,93.18c.38,18.12,1,37.11,9.8,53.46,4.34,9.25,12.81,15.49,18.13,24.06,1.92-.25,1.5-4,2.46-5.6,2.71-4.69,6-9.35,11-11.79a125.6,125.6,0,0,1-9.19-37.86c-9.54-.84-18-6-24.74-12.53,4.42,13.28,12.63,24.78,18.26,37.5,3.23,7.78,6.33,16.4,4.57,24.9a139.89,139.89,0,0,0-11.1-24.11c-6.78-12.45-14.5-25.64-13.48-40.36-2-2.51-3.82-5.09-5.67-7.67Z"/><path d="M595.23,636.56c.41-4.55.41-9.17,1.42-13.64,1.87,26.1,2.1,52.54,8.39,78.09,4.7,20.24,15.25,39,17,59.89,1,12.28-1,25.8-9.35,35.38a51.8,51.8,0,0,0,5.37-30.35C616,745.4,605.15,727.28,600,707.56c-6.15-23.1-6.44-47.3-4.78-71Z"/><path d="M579.45,652c-1-9.11-2.11-18.59.69-27.5,1.25,13,5,25.63,7.44,38.47,2.58,12.65,4.93,25.35,6.82,38.12.41,3.38,1.18,6.77.78,10.2-8.28-18.8-13.17-39-15.73-59.29Z"/><path d="M1348.7,671.21l.55-.12c1,9.52,3.47,18.8,6.21,28a215.07,215.07,0,0,1,8.29,49c.27,7,1.42,14,.88,21-.56,7.6-.92,15.21-1.18,22.82-1.42,3.44-.57,8.15-3.14,10.77-.81-2.52-.06-5.16-.13-7.72,0-9-.75-18-1.35-27.06-1.08-16-2.24-32-4.59-47.92-2.09-16.22-7.25-32.24-5.54-48.76Z"/><path d="M1226,717.18a115.78,115.78,0,0,0,17.12,2.15l-.76-2.51c1.6,1.07,3,2.75,5,3a51.74,51.74,0,0,1,13,4.68,50.54,50.54,0,0,1-4.46-7.3c8.42,5.17,14.19,13.38,21.27,20.07,5.5,5.92,11.31,11.64,16,18.26-4-2.62-7.55-5.89-11.35-8.79.64,1.52,1.3,3,1.89,4.59a117,117,0,0,1-12.5-13.08c-4.58-6.11-11.75-9.59-18.65-12.41a117.64,117.64,0,0,1,8.34,10.54c2.57,3.15,5.31,6.19,7.58,9.58-6.37-1.68-9.72-7.83-15.32-10.78a87.26,87.26,0,0,0-14.82-7.33c4,3.83,7.7,8.06,12.54,10.93l-2.49-.18c.89,1.42,1.81,2.87,2.69,4.33-5-2.26-8.76-6.3-13.35-9.11-7.17-3.18-14.5-6.24-22.2-7.83,7.77,4,15,9.7,19.36,17.37-10-5.43-19-12.59-28.43-18.94-5.84-1-11.77-1.29-17.63-2.17,0-.16,0-.48.05-.65a158.1,158.1,0,0,1,17.54-1c6,.55,11.95-1.21,17.95-.35l-.88-2.29c4.5,3.41,10.32,3.36,15.42,5.35a60.54,60.54,0,0,1,9.57,4.34c-1-1.51-2-3-3-4.51-6.6-1.52-13.7-2.18-19.47-6m-2.59,6c1.87,1,3.81,1.77,5.75,2.6-.23-.4-.71-1.18-.95-1.57-1.61-.36-3.21-.72-4.8-1Z"/><path class="c" d="M1404.1,717.06c-1.53,6.06-2.48,12.34-5.07,18.07C1399.29,728.77,1402.67,723.17,1404.1,717.06Z"/><path d="M1260.3,717.79c7.76,2,14.57,6.66,20.67,11.73,8.68,7.68,16.27,17.47,18.84,29-4.45-5.83-8.54-12-13.58-17.34-7.7-8.79-16.87-16.06-25.93-23.36Z"/><path class="c" d="M1223.4,723.23c1.59.31,3.19.67,4.8,1,.24.39.72,1.17.95,1.57-1.94-.83-3.88-1.65-5.75-2.6Z"/><path d="M1172.2,724.53c13.64,1.7,27.56,3.06,40.43,8.22,6.39,2.78,12.9,6.27,17.09,12a85.12,85.12,0,0,0-14.61-6.82c2.57,2.65,5.48,5,7.69,8-9-3.62-17-9.35-25.89-13.21-3.16-1-6.36-1.77-9.56-2.52,7.76,3.79,15.43,8.08,21.6,14.25,1.69,2,4.26,2.82,6.58,3.94l-2.64-.27.2,1.7c-3.79-2.54-8.45-2.4-12.73-3.43,1.27,1.71,2.55,3.4,3.7,5.22-4.8-2.11-8.76-5.73-13.56-7.78-8.18-2.58-16.32-5.32-24.22-8.68-3-1.31-6.25-2.34-8.34-5a86.2,86.2,0,0,0,14.46,3.27,36.57,36.57,0,0,1,18.45,5.23c2.89,1.85,6.23,2.76,9.42,4-7-4.52-14.36-8.52-20.78-13.86-2.12-1.92-4.83-2.92-7.29-4.28Z"/><path d="M1282,724.47c5.88,2.75,10.29,7.84,14.05,13,4.44,6.51,7.86,14,8.43,21.94-4.59-6.68-8.34-13.9-12.87-20.61-3.12-4.85-6.59-9.45-9.61-14.34Z"/><path d="M1145.1,733.66c9.29,5,18,11.52,28.48,13.81-5.51-4.25-11.6-7.85-16.35-13,9.52,2.67,18.09,8,25.72,14.2a4.31,4.31,0,0,0,2.41,1.06c5,.8,10.08,1.74,15.18,2.23-4,1.6-8.33,1.34-12.52,1.27,1,1.21,2.11,2.49,3.13,3.75-2.68-1-5.14-2.48-7.76-3.56-3.65-.69-7.38-.92-11-1.5,3.38,3,6.92,6,9.41,9.8-11.45-5-21.3-12.81-31.33-20.09l1.16-1.27a33,33,0,0,1-6.49-6.7Z"/><path d="M1137.7,740.22c3.31,3,6.28,7,10.68,8.47,11.57.91,20.55,8.86,30.33,14.15-9.33.61-18.73-2-26.9-6.42C1145.61,752.73,1139.47,747.53,1137.7,740.22Z"/><path d="M1116.7,766.59c-1.37-7.21-2.7-16.3,3.64-21.63-2.5,7.61,0,15.39,1,23,.77,4.29,1.4,8.8,4.06,12.41C1119.81,778.34,1118.13,771.77,1116.7,766.59Z"/><path d="M1131.2,746.14A92.36,92.36,0,0,1,1142,754.4c2.07,2.09,5.24,2.06,7.79,3.31a56.61,56.61,0,0,1,16.05,11c-4.83-.43-9.14-2.65-13.51-4.52,4.36,4.12,10.43,5.15,16.07,6.35-6.68,2-14.51,1.1-19.75-3.75-6.52-6.22-13-12.67-17.42-20.61Z"/><path d="M1146.1,777.78c-13.1,1.23-23.68-14.51-17.53-26.16.9,6.71,2.9,13.57,7.67,18.6C1139,773.36,1142.55,775.62,1146.1,777.78Z"/><path d="M1416.9,772.06a43.27,43.27,0,0,1,3.22-18.38c-.57,5.11-1.1,10.27-.51,15.41,1.46,13.34,8.47,25.42,9.49,38.84.92,16-5.79,31.32-14.23,44.52-8.66,13.42-22.31,22.87-30.12,36.89-2.4,4.09-3.75,8.67-5.7,13a55.09,55.09,0,0,1,7.81-22.9c5.78-9.58,14-17.35,20.26-26.61a104,104,0,0,0,13.83-28.71c2.08-7.14,3-14.77,1.55-22.12C1420.82,792,1417.28,782.27,1416.9,772.06Z"/><path d="M785.12,760.19c.84-.85,1.72-1.67,2.63-2.45-1,3.07-3,5.61-4.71,8.28l4.75-.14c-2.75,1.88-6.39,2.28-8.71,4.79-8.56,9.07-19.37,15.55-30.07,21.77-3.6,2-7,4.32-10.88,5.84,3.44-4.11,8.22-6.88,11.44-11.19,6.79-8.48,15.5-15.87,26-19.22,2.86-.73,4.91-3,6.9-5-5.91,2.7-12.19,4.83-17.6,8.47-13.63,11.12-26.59,23.07-40.68,33.61,9.88-13.32,22.54-24.34,35.22-34.93a70.48,70.48,0,0,0-19.23,13.62c-7.88,8.25-18,15.32-21.69,26.6,0-7.88,4.69-14.69,9.76-20.33,6.9-7.81,14.11-15.9,23.76-20.32,7.24-2.7,13.78-7.46,21.58-8.47a48.61,48.61,0,0,0-9.26,5.63,215.39,215.39,0,0,1,20.8-6.57Z"/><path d="M803,763.57c2.66-1.76,5.15-3.75,7.79-5.54-1.38,2.64-3.44,4.82-5.16,7.24-6.16,5.09-12.43,10.12-18,15.91-6.29,6.49-12.16,14.5-21.27,17.06a85.82,85.82,0,0,0,14.3-16.15c-7.23,5.43-13.9,11.59-21.42,16.63,2-3.54,4.87-6.42,7.32-9.61-5.44,3.6-10.72,7.57-16.79,10.06,6.36-7.28,14-13.29,21.45-19.48,6.83-5.25,13.44-11,21-15.09-2,3.06-4.68,5.63-7,8.45,5.58-3.79,12.3-5.43,17.71-9.48Z"/><path d="M824.43,765c3.76-.65,5.91-4.24,9-6.12-.93,1.82-2,3.59-2.94,5.41-5.63,6.83-11.06,13.83-17.07,20.35,6.59-5.42,13.3-10.85,21-14.67,5.75-2.42,11.26-5.51,17.25-7.34-.78.75-1.56,1.49-2.35,2.22l4.71.06c-3.63,2-7.82,3-11.28,5.31-11.15,8.66-20.88,19.11-32.56,27.07,2.63-4.63,6.37-8.46,9.63-12.63-4.58,2.78-9.18,5.54-14,7.88-3.81,3.2-7.45,6.88-12.39,8.32,7.06-6.64,12.3-14.87,19-21.86,2.91-3.45,6.33-6.44,9.25-9.88-13.67,7.42-24.09,19.46-38,26.57a10.33,10.33,0,0,0,1.31-3.57c7-7.63,15.52-13.51,23.24-20.31,4.07-3.29,8-6.78,12.56-9.4-1,1.73-2.14,3.38-3.3,5a42.57,42.57,0,0,1,6.94-2.42Z"/><path d="M886.13,761.65a17.22,17.22,0,0,1,5.16-1.61c-6.29,4.92-12.71,9.79-18.08,15.74,4-1.85,8-4,12.18-5.33,9.18-1.78,17.87-6,27.39-6.07-7.51,3.56-15.49,6.12-22.79,10.13a120.17,120.17,0,0,0-25.29,17.71l-2.24-.94c2.3-2.79,4.72-5.49,7-8.29-3.07,1.87-6.56,3.36-8.74,6.33-3.33,4.12-6.22,8.56-9.43,12.76.62-3.84,2.35-7.34,4-10.81-4,2.35-8,4.66-12.15,6.63,4.85-6,11.52-10,17.32-14.94a68.93,68.93,0,0,1,25.61-21.31Z"/><path d="M833.53,786.19a103.87,103.87,0,0,1,33.07-25.25c-3.67,4.51-8.43,7.92-12.46,12.07,6.51-2.11,11.18-7.52,17.54-10a58.74,58.74,0,0,1-5.24,5.8c1.92-.18,3.85-.3,5.79-.34-3.1,2.64-7.64,2.8-10.71,5.54-8.49,8.27-16.7,16.83-25,25.23a59.73,59.73,0,0,1,10-16.41c-3.23,1.8-6.36,3.79-9.53,5.7-4.76,3.51-8.35,8.31-12.67,12.31a52.8,52.8,0,0,1,4.28-8.2c-2,.53-3.9,1.14-5.88,1.63,3.54-2.8,7.58-5,10.83-8.13Z"/><path d="M722.58,779.19c6.63-8.54,16.59-15.62,27.84-15.17,3.57.4,7.09-.21,10.64-.57-12.63,6.73-25.24,14.49-34.55,25.59a114.86,114.86,0,0,0-16,21.09,40.3,40.3,0,0,1,7-15.91,94.72,94.72,0,0,1,12.49-15.58c6.48-5.53,14-9.66,21.57-13.47-15.55,2.59-25.87,15.88-33.79,28.38l-1.17-1c.06.56.16,1.66.21,2.21-3.82,4.83-7.17,10.07-11.64,14.34,4.84-10.43,10.3-20.71,17.31-29.86Z"/><path d="M1106.5,781c-5-4.32-9-11.66-5.62-18.15a23.14,23.14,0,0,0,6.3,12.45c3.77,3.85,7.25,9.49,13.51,8.72-4.57,4.14-10.77.86-14.19-3Z"/><path d="M890.76,781.35c7.76-5.16,16.57-9.58,26.13-9.33-4.59,2.23-9.2,4.4-13.72,6.75,2.08.17,4.17.28,6.25.61-5.12,1.49-10.13,3.34-15.09,5.29-6.29,3.54-11.79,8.39-18.34,11.49a78.11,78.11,0,0,1,5.7-7.16,189,189,0,0,0-24.27,10.62,41.43,41.43,0,0,0,4.15-7.45c.49.84,1,1.7,1.51,2.54-.1-.65-.31-2-.42-2.63l2.34.4c7.88-5.19,16.77-8.47,25.76-11.13Z"/><path d="M1128,794.69c18.15-13.75,40.76-21,63.38-22.13,18.82-.88,38,.69,56.06,6.15,12.79,4.11,24.65,10.64,36.28,17.24-8-2.78-15.43-6.81-23.36-9.71a111.05,111.05,0,0,0-28-7.54c-25.22-3.66-51.63-3.44-75.87,5.13-12.49,4.16-23.64,11.38-34.29,19-7.44,5.42-15.38,10.79-20.25,18.81-1.86,2.89-2.72,6.24-4.1,9.36a32.64,32.64,0,0,1,8.08-17.45C1112.29,806.15,1120.34,800.58,1128,794.69Z"/><path d="M1139.4,799.81a91.93,91.93,0,0,1,67.19-20.36c17.55,1.17,34.17,8.12,48.91,17.42a105.18,105.18,0,0,1,24.75,21.32,14.31,14.31,0,0,1,2,3.31c-7-4-13.27-9.07-20.37-12.88-15.42-8.53-31.75-15.79-48.92-20,5.47,4.52,9.58,11,9.53,18.32.82,11.89-7.51,22.57-17.94,27.38,13.33-.91,26.83-1.34,39.9-4.4,9.46-2.11,17.92-9.17,28.05-7.57-6.59.18-12.4,3.38-18,6.46-9.88,5.23-21.12,6.93-32.09,8.26-17.58,2.11-35.49,2.78-53-.23-9.74-1.59-19.08-5-28.83-6.53-8.45-1.27-17.51-.94-25.19,3.15-1.61,1.07-2.46,2.94-4.1,4a99.19,99.19,0,0,1,28.17-37.69m50.46-10.28c-6.63.94-13.43,2-19.4,5.25a14.74,14.74,0,0,0-7.24,8.13c-2.75,7.58-.15,16.29,5.3,22,4.3,4.72,10.57,7.24,16.84,7.93,13.92,1.38,28-8.44,31.68-21.87,2.27-8.25-3.21-16.56-10.53-20-5.1-2.78-11.12-2.07-16.65-1.43m-74.72,43.08a41.35,41.35,0,0,1,22.24-5.23c11.62.47,22.75,4.17,34.23,5.64-5.48-3.65-10.18-8.74-12.32-15.06-2.19-5.75-1.35-12-.38-17.93.58-3.63,3.25-6.31,5.58-8.94a97,97,0,0,0-49.35,41.52Z"/><path d="M899.73,786.21a42.71,42.71,0,0,1,27.88-5c-4.42,2-9.28,2.57-13.78,4.3,2.59.36,5.2.7,7.79,1.23-9.61,2.94-19.88,3.16-29.37,6.54-3.79-.09-7.49.75-11.21,1.24,5.35-4.52,12.36-5.83,18.69-8.31Z"/><path class="b" d="M1189.8,789.53c5.53-.64,11.55-1.35,16.65,1.43,7.32,3.45,12.8,11.76,10.53,20-3.71,13.43-17.76,23.25-31.68,21.87-6.27-.69-12.54-3.21-16.84-7.93-5.45-5.71-8-14.42-5.3-22a14.74,14.74,0,0,1,7.24-8.13c6-3.21,12.77-4.31,19.4-5.25m-4,11c-4.4,2.82-6.36,9.14-3.75,13.81,2.12,4.94,9.38,6.15,13.3,2.7,3.85-2.83,4.4-9.14.91-12.46a9.11,9.11,0,0,0-2.75-2.91c-2.3-1.32-5.17-2.38-7.71-1.14Z"/><path d="M913.43,790.94c7.32-.8,15.17-1.77,22,1.74a59.1,59.1,0,0,1-18,1.81c-9.72-.23-19.26,1.83-28.8,3.32,6.57-6.22,16-7.91,24.77-6.87Z"/><path class="d" d="M1185.9,800.53c2.54-1.24,5.41-.18,7.71,1.14-2.89,0-6.56-.67-8.55,2-2.22,2.74-2.49,7.8.89,9.75,3.1,1.52,7.61.78,9.41-2.39,1-2,.81-4.29,1-6.43,3.49,3.32,2.94,9.63-.91,12.46-3.92,3.45-11.18,2.24-13.3-2.7-2.61-4.67-.65-11,3.75-13.81Z"/><path class="c" d="M1185,803.65c2-2.65,5.66-2,8.55-2a9.11,9.11,0,0,1,2.75,2.91c-.19,2.14,0,4.44-1,6.43-1.8,3.17-6.31,3.91-9.41,2.39C1182.51,811.45,1182.78,806.39,1185,803.65Z"/><path d="M815.35,810.09c20.62-5.14,42-5,63.07-5.85,11.59-.24,23.38,1.09,34.13,5.67,11.15,4.54,21.38,11,31.35,17.66,5.66,4.07,11.42,8.94,13.76,15.74a44.75,44.75,0,0,0-16.31-15c-12-6.9-24.22-14.07-37.81-17.5-11.08-3.1-22.71-2.73-34.08-2s-22.67.61-33.94,2c-16.56,1.87-33.17,5.67-48,13.35a213.56,213.56,0,0,0-34.35,23c5.28-6.54,12.24-11.48,18.91-16.51C784.94,821,799.6,813.61,815.35,810.09Z"/><path d="M857.4,810.47c5-.47,10-.78,15,.25a112.74,112.74,0,0,1,38.86,11.54c8.15,4,16.21,8.66,22.59,15.25,3.63,3.66,7.11,7.84,8.59,12.88-2-1.39-3-3.67-4.47-5.49-6-7.77-14.7-12.9-23.47-17A135.78,135.78,0,0,0,883.7,818a21.37,21.37,0,0,1,4.58,21c-2,6.63-6.64,12-11.71,16.46,13.53-2.64,27.14-4.85,40.74-7.08a39.38,39.38,0,0,1,17.24.86c-4.53.08-9.12-.59-13.58.52-21.45,5.11-43,10-64.64,14.07-6.23,1-12.54,2-18.86,1.56-7.75-.43-15.56-.51-23.21-2-9.69-1.57-19.29-4.54-29.21-4,12.33-3,24.91,1.42,37.34,1.63,7.68-.12,15.42.88,23.08-.22-14.3-3.72-23.74-20.25-18.77-34.39-17.26,8.15-33.47,19.52-44.59,35.26-2.15,2.8-3.65,6.06-6.09,8.63,2-12.26,9.32-23,17.68-32,16.52-17.26,40.16-26.25,63.7-27.86m2.45,4.07c-6.38.67-12.79,1.7-18.78,4.06-3.57,1.45-7.14,3.55-9.07,7-3.41,5.89-3,13.5.37,19.33a25.6,25.6,0,0,0,18.92,13c14.71,2.37,30.32-8.11,33.5-22.7,1.64-7.58-3.41-15.22-10-18.59-4.51-2.62-9.88-2.7-14.92-2.08Z"/><path class="e" d="M859.85,814.54c5-.62,10.41-.54,14.92,2.08,6.61,3.37,11.66,11,10,18.59-3.18,14.59-18.79,25.07-33.5,22.7a25.6,25.6,0,0,1-18.92-13c-3.37-5.83-3.78-13.44-.37-19.33,1.93-3.47,5.5-5.57,9.07-7,6-2.36,12.4-3.39,18.78-4.06m-6,11.06c-5.34,3-7.25,11.2-2.86,15.81,3.83,4.79,12.37,3.22,14.54-2.43,1.71-3.32.3-7.12-1.91-9.79-1.14-.88-2.24-1.76-3.3-2.69a7.44,7.44,0,0,0-6.47-.9Z"/><path d="M963.09,822.54c5.35,5.83,9,13,12.76,19.88,5,10.15,10.89,19.86,14.76,30.52,11.34,29.38,14.56,61,18,92,1.55,15.41,4.1,30.7,5.44,46.13.86,9.59,1.62,19.21,2.69,28.79.87,7.75,2.81,15.37,3.16,23.19.27,5.76.64,11.77,3.54,16.91,4.3,7.8,11.4,13.51,18.54,18.6,5.15,3.51,10.86,7.26,17.34,7.17,5.74-.27,9.73-4.83,12.86-9.14,10.83-15,28.75-25.13,47.36-25.29a61.12,61.12,0,0,0-44.32,24.57c-3.26,4.3-6.4,9.27-11.73,11.18-6,2.25-12.53-.09-17.83-3.08a99.46,99.46,0,0,1-16.81-12.37c-2.16-1.8-5-2.52-7.54-3.44a104.61,104.61,0,0,0-32.82-4.63c10.53-5.16,23.36-3.49,33.9.89-1.8-3.33-3.63-6.71-4.36-10.45-1.4-6.75-.94-13.72-2.35-20.47-2.77-14.33-3.62-28.93-5.11-43.43-1.13-12.1-2.84-24.13-4.22-36.19-2.57-24.06-4.67-48.25-9.66-72a188.05,188.05,0,0,0-17.23-49,221.39,221.39,0,0,0-16.33-30.44Z"/><path class="d" d="M853.89,825.6a7.44,7.44,0,0,1,6.47.9c-2.69.49-6.11.07-7.88,2.59-2,2.63-2.29,7.08.51,9.27,3.23,2.06,8.63,1.16,10.19-2.63.58-2.13.39-4.37.48-6.54,2.21,2.67,3.62,6.47,1.91,9.79-2.17,5.65-10.71,7.22-14.54,2.43-4.39-4.61-2.48-12.81,2.86-15.81Z"/><path class="c" d="M852.48,829.09c1.77-2.52,5.19-2.1,7.88-2.59,1.06.93,2.16,1.81,3.3,2.69-.09,2.17.1,4.41-.48,6.54-1.56,3.79-7,4.69-10.19,2.63-2.8-2.19-2.47-6.64-.51-9.27Z"/><path d="M670.83,889.94c2.14-8.26,2.51-16.83,3.88-25.21,2.67,10.94,2.42,22.4.31,33.42-.71,3.75-1.86,7.94-5.25,10.15-1.62,1.34-4.63,2-4.24,4.65.15,10,5.11,19.12,11.42,26.56,2.64,3.27,5.89,6,8.53,9.27-11.94-5.53-22.34-15.81-25.5-28.86-.68-3.78-1.5-7.87-.13-11.58,1.19-3,4.45-4,6.84-5.78,2.66-3.65,3-8.39,4.14-12.62Z"/><path d="M1327.9,1046.4c-2-18.84,1.79-38.47,11.62-54.75-3,9.41-6.52,18.71-8.26,28.48-2,8.64-2.26,17.51-3.36,26.27Z"/><path d="M1139.6,1007c7.23,8.51,9.37,20.06,9.6,30.93-.11,7,.47,14.32-2,21-1.65,4.31-4.49,8.51-8.92,10.31a24,24,0,0,0,8.45-17.38c.44-11.66.73-23.65-2.82-34.91-1-3.5-2.9-6.64-4.29-10Z"/><path d="M953.22,1033.8a149.81,149.81,0,0,1,8.33-18.51c-1.45,7.07-5,13.46-6.77,20.46-3.92,13.33-.51,28.2,7.74,39.21,2,2.66,4.44,4.9,6.46,7.53C953.42,1072.48,947.08,1051,953.22,1033.8Z"/><path d="M1277,1117.9c-.89-17.88,2.09-36.31,10.33-52.32-5.44,25.51-8.82,52.05-3.83,77.93-4.39-7.76-5.79-16.84-6.5-25.61Z"/><path d="M812.77,1114.1c-.44-4.83-1.18-9.8.16-14.55,1.48,18.39,8.92,35.8,18.31,51.49a136.8,136.8,0,0,0,31.3,35.82c-14.53-7-25.87-19.14-34.48-32.51-7.74-12.19-13.4-25.89-15.29-40.25Z"/><path d="M818.63,1166c-21.88-5.35-36.24-30.53-30.61-52.17a52.7,52.7,0,0,0,19.87,45.68,70,70,0,0,0,10.74,6.49Z"/><path d="M1204.8,1131.3c1.84-1.17,3.41-3,5.57-3.53l.66,1.32c-6.24,5.43-10.08,12.84-15.29,19.14-6,7.36-12.53,14.2-18.81,21.29-12.71,13.74-28.84,23.58-44.7,33.21-15.44,9.28-31.9,17.71-49.89,20.48-15.89,2.5-32.05,1.3-47.94-.5-20.3-2.34-40.68-5.71-59.89-12.89-18.78-7.41-34.14-20.9-50.17-32.77-6.22-4.34-11.67-9.67-17.94-13.93-2.58-1.88-5.79-2.36-8.72-3.4-3.5-1.76-6.78-3.9-10.17-5.83l1.46-1.4c11.36,5.27,24.09,5.8,36.35,7.21,8.1.67,16,2.41,24.12,3.37a226.66,226.66,0,0,0,38.62,1.75c14.41-1,29.18-4.25,43.45-.4,8.52,2.16,15.83,8.45,24.93,8.34,10.75-.06,19.88-6.5,28.41-12.26,20.23-1.74,40.48-3.48,60.75-4.66,21.63-2.16,41.68-12.09,59.2-24.54m-48.89,25c-9,2.1-18.26,1.71-27.38,2.65-14.25,1.17-28.52,2.15-42.76,3.46-8.8,5.93-18.28,12.43-29.36,12.34-9.54.25-17.22-6.31-26.13-8.57-14.07-3.57-28.52-.17-42.7.66a240.87,240.87,0,0,1-47.15-3,304.82,304.82,0,0,0-31-3.56c29.26,5.78,57.73,14.89,87,20.73,21,4.27,42.58,7.06,64.06,5.43,21.13-1.51,41.82-6.29,62.38-11.16,12.95-3.09,26-6.25,38.18-11.77a186.3,186.3,0,0,0,26.86-15.1c5-3.63,10.35-7.05,13.82-12.27-14.06,9.08-29.28,16.8-45.78,20.18m9.35,7.5c-15.73,7.72-33,11.3-49.92,15.32-22.93,5.39-46.28,10-69.93,9.8-46.69-.9-91-17.33-136.23-26.78q8.88,7.72,18.39,14.68c14.81,11.07,29.15,23.35,46.4,30.53,17.94,7,37,10.39,56.05,12.79,17.35,2,35,3.85,52.39,1,17.15-2.75,32.86-10.7,47.62-19.52,16.93-10.23,34.22-20.71,47.38-35.75,5.7-6.56,11.92-12.69,17.09-19.69A170.4,170.4,0,0,1,1165.26,1163.82Z"/><path d="M381.19,1381.7c8.26-7.75,15.82-16.22,24.33-23.69a546.27,546.27,0,0,1-37.89,41.16,300.18,300.18,0,0,1-39.87,33.13c-7.86,5.57-15.74,11.32-22,18.7-5.86,6.91-9.54,15.89-9.27,25a23.92,23.92,0,0,0,11.51,19.2c10.17,6.36,22.41,7.53,33.44,11.77,6.86,2.33,13.37,6.2,17.82,12a43.74,43.74,0,0,0-18.85-10.52c-11.33-3.37-23.54-4.37-34-10.31-8-4.4-13.78-12.95-13.77-22.2-.65-10.41,3.63-20.65,10.32-28.47,8.92-10.78,21.35-17.62,32.41-25.89a449.14,449.14,0,0,0,45.8-39.93Z"/><path d="M1157.4,1454.1c5.76-18.5,11.54-37,18.63-55.08-11.85,42.36-23.87,84.69-33.92,127.53q-16.59,68.67-29.1,138.27l-.57-.07c5.21-45.72,14-91,24.52-135.74,6.24-25.12,12.77-50.18,20.44-74.91Z"/><path d="M371.41,1434.3c21,1.25,41,9.34,58.83,20.22,28.49,17.39,50.44,43.38,68.85,70.84,12.84,19.27,24.31,39.4,35.71,59.55q56.37,98.94,108.56,200.2,29,56,56.28,112.8c17.67,35.95,34.46,72.34,51,108.81,1.86,4.13,3.9,8.19,5.54,12.43-9.19-17.9-17.54-36.26-26.69-54.2q-94.09-192.75-199.17-379.89c-17.86-31.48-35.12-63.7-58.78-91.31-14.16-16.61-30.73-31.34-49.67-42.28a130.82,130.82,0,0,0-50.49-17.17Z"/><path d="M990.21,1435.2a46.24,46.24,0,0,1,26.5,9.49c11.66,8.61,19.81,21.12,31.74,29.43a9.89,9.89,0,0,0,10.52.36c6.26-3.54,9.71-10.29,15.7-14.19,5.84-4,11.93-8,15.54-14.26-2.12,7.38-8.54,12.1-14.19,16.76-5.35,4.23-8.17,10.94-14,14.62a14.38,14.38,0,0,1-16.16.33c-12.79-8.71-21-22.34-32.93-32-6.6-5.27-14.53-8.54-22.68-10.51Z"/><path d="M1726.2,1446.9c-16.17,71.18-30.28,142.86-40.8,215.11q-8.61,59-14.78,118.37c-.43,3.24-.39,6.52-.71,9.79-.6-5.67,0-11.36.32-17a1577.41,1577.41,0,0,1,43.58-281.08c3.95-15.1,7.58-30.33,12.39-45.17Z"/><path d="M1826.9,1463.3l.48.13a1026.39,1026.39,0,0,0-81.33,181c-9.76,28.57-17.57,57.76-26.35,86.64-15.11,50.58-31.17,100.89-45.45,151.71-14.7,52.59-27.23,105.9-34.4,160.08-6.22,47.52-9.88,95.62-22.25,142.09h-.83c12.72-51.82,14.67-105.41,22-158.1,7-51.05,19.22-101.21,33-150.82,15.17-54.77,33-108.77,49.23-163.21,7.89-26.8,15.74-53.64,25.39-79.88q15.15-41.73,33.87-82.05C1794.3,1520.94,1810,1491.75,1826.9,1463.3Z"/><path d="M181.82,1489.1c.78-1.26,1.55-2.5,2.33-3.73a416.13,416.13,0,0,1,123.71,114c13.56,19.2,22.28,41.32,29.07,63.69,12,40.63,17.83,82.71,26.83,124a1470.63,1470.63,0,0,1,25.36,370.24l-4.23-.2a1466.78,1466.78,0,0,0-27.77-381.23c-8.75-41.39-14.6-83.58-28.21-123.77-6.41-18.53-14.5-36.69-26.21-52.51A411.19,411.19,0,0,0,181.82,1489.1Z"/><path d="M481.46,1485.8c24.79,27,48.37,55.15,71.79,83.36,51.52,62.74,100.66,127.45,146.81,194.24,7.46,11.13,15.37,22,22.33,33.44-23.12-30.86-45.88-62-69.19-92.7q-72.86-96.7-149.45-190.5C496.39,1504.3,488.58,1495.32,481.46,1485.8Z"/><path d="M191.17,1535.6c12.55-2.68,26.13-2.48,38.05,2.68,15.44,6.75,25.75,20.87,34.44,34.72,9.46,15.39,20.32,29.84,31.1,44.31,14.66,19.76,28.55,41.18,33.44,65.67a176.33,176.33,0,0,0-24-46.05c-11-15.61-23.27-30.31-34.23-46-10.68-15.9-19.18-34.09-34.93-45.79C222.61,1535.81,206.23,1534.38,191.17,1535.6Z"/><path d="M1874.6,1548.9c2.23-5,4.29-10.15,6.73-15.08-9.27,27-20.91,53.12-33.13,78.89-38.08,78.45-86.85,151.91-145.84,216.21,5.45-7.73,11.84-14.76,17.52-22.32a1185.81,1185.81,0,0,0,154.72-257.7Z"/><path d="M1280.7,1615.4c4.59-23.85,6-48.17,6.26-72.41,1.87,44.81-5,89.72-18.13,132.53-12.18,40.76-29.22,79.87-47.72,118.12-29.39,61.2-63.29,120.3-88.44,183.49-12.23,30.77-23,62.25-29.75,94.72-7.95,37.06-10.92,75.36-6.61,113.1h-.47a325.79,325.79,0,0,1-2.51-60c1.74-35.82,9.42-71.1,20-105.28,9.54-30.45,21.66-60,34.92-89,28.74-63.24,64.06-123.3,91.51-187.15,18-41.13,33.13-83.81,40.95-128.13Z"/><path d="M835,1600.7c2.33,1.16,5,0,7.49.51A18.3,18.3,0,0,1,856.7,1610c-1.26.67-2.5,1.39-3.75,2.11a15.89,15.89,0,0,0-10.88-6.78C853,1614.9,862,1627.48,864.61,1642c1.1,5.33-1,11.76-6.3,14-5.89,2.45-12.74,1.18-18.29-1.59-9.52-5-17.7-13.71-20-24.48-1.87-9.17,1.09-19.82,8.93-25.39,1.93-1.43,4.53-1.93,6-3.91M823.9,1627c1,9.16,7.45,16.78,14.9,21.75,4.92,3.31,11.21,5.56,17.1,3.72,4.11-1.57,5.43-6.58,4.33-10.5-2.64-12-9.56-22.93-18.72-31.07-1.47.36-2.94.7-4.39,1.07-.45-2-.91-4-1.35-6-8.55,2.79-12.91,12.5-11.87,21Z"/><path d="M777.18,1667.7c4.58-7.07,14.24-11.11,22.18-7.32-.68,1.2-1.34,2.42-2,3.67a18.78,18.78,0,0,0-9.06-.44c.26,1.75,2.25,2,3.59,2.67-1.9,8.62,3.24,16.43,5.18,24.54,1.56,5.95,1.43,13.11-3.1,17.78-3.63,4.22-10.6,5.83-15.1,2.05s-5.28-10-5.78-15.51c-.71-9.21-1.26-19.39,4.09-27.44m1,8.15c-2,7.26-1.22,14.9-.47,22.29.54,3.86,1.65,8.68,5.75,10.22,5.3,1.06,9.94-4.35,10.22-9.32.53-10.45-7.22-19.39-6.4-29.88,0-1.41,1-3.55-.74-4.25A17.37,17.37,0,0,0,778.17,1675.85Z"/><path d="M146.1,1746.9c-6.06-19.62-11.14-39.68-13.36-60.11A436.69,436.69,0,0,0,308.36,1958c5.39,3.72,11,7.17,16.19,11.14-32.78-18.16-62.25-42.05-88.06-69.15-40.95-43.5-72.34-96.09-90.39-153.08Z"/><path d="M1911.2,1711.8c-1.5,12.89-5.19,25.43-8.32,38-25.77,91.22-79.6,174.72-153.49,234.29,5.7-6.32,12.42-11.66,18.24-17.87C1837.87,1896.92,1888.05,1807.7,1911.2,1711.8Z"/><path d="M1406.1,1773.9c-2.78,18.08-5.8,36.44-13.56,53.18-6.42,13.82-15.53,26.17-25.11,37.94q-84.33,105.47-171.06,209c-10,11.69-19.61,23.76-30,35.12,7.71-10.62,16.14-20.72,24.16-31.11q85.42-108.27,173.56-214.34c9.58-11.34,18.85-23.11,25.61-36.39s10.73-27.66,13.71-42.14c.86-3.76,1.36-7.61,2.67-11.23Z"/><path d="M976.43,1877.1c6.58-1.44,13.49,1,18.45,5.35,5.12,4.5,9.53,10.3,10.81,17.14,2.13,12-2.27,25.18-11.61,33.13-8.34,7.28-22.34,7.92-30.36-.15-12.76-13.44-11.85-37.08,1.69-49.66a23.74,23.74,0,0,1,11-5.81m-.5,4.55a21.5,21.5,0,0,0-10,7.06c-9.19,11.15-9.39,28.68,0,39.81,4.74,5.69,13.37,7,20,4.17,10.72-4.86,16.56-17.29,16-28.69-.15-6.63-3.82-12.54-8.52-16.95-4.39-4.57-11.2-7.5-17.47-5.4Z"/><path d="M1875.9,1902.6c5.34-8.47,10.09-17.3,15.53-25.69-9.59,19.89-20.58,39.11-31.79,58.13-40.55,68-88.2,131.94-142.69,189.45l-1.8,1.75c5.26-7.45,11.68-14,17.27-21.21A1679.07,1679.07,0,0,0,1875.9,1902.6Z"/><path d="M215.35,1923a334.93,334.93,0,0,0,38.36,31.75c17.6,12.41,35.69,24.18,52.59,37.56,15.3,12.67,29.56,27.07,39.68,44.29,9,14.82,14.29,32,13.87,49.43-1.28-6.32-1.6-12.83-3.57-19-5.44-19.43-17.17-36.44-30.81-51.05C292.44,1980.7,245.84,1961,215.35,1923Z"/><path d="M113.58,1941.9a298.76,298.76,0,0,0,60.18,179.57,74.86,74.86,0,0,1,4.77,6.54c-12.08-11.93-22-25.88-30.89-40.32A248.85,248.85,0,0,1,112.78,1973a174.85,174.85,0,0,1,.8-31.12Z"/></svg>