<?xml version="1.0" encoding="UTF-8"?>
<svg viewBox="0 0 288.3215 369.23785" xmlns="http://www.w3.org/2000/svg" xmlns:xlink="http://www.w3.org/1999/xlink">
 <defs>
  <linearGradient id="b">
   <stop stop-color="#be0000" stop-opacity=".712" offset="0"/>
   <stop stop-color="#f00" stop-opacity=".496" offset="1"/>
  </linearGradient>
  <linearGradient id="a">
   <stop stop-color="#edeeee" offset="0"/>
   <stop stop-color="#e6e6e6" offset=".5"/>
   <stop stop-color="#fff" offset="1"/>
  </linearGradient>
  <linearGradient id="k" x1="152.87" x2="185.85" y1="185.42" y2="153.28" gradientUnits="userSpaceOnUse" xlink:href="#a"/>
  <linearGradient id="j" x1="194.41" x2="233.82" y1="121.88" y2="109.86" gradientUnits="userSpaceOnUse" xlink:href="#a"/>
  <linearGradient id="i" x1="263.56" x2="287.48" y1="152.41" y2="158.06" gradientUnits="userSpaceOnUse" xlink:href="#a"/>
  <linearGradient id="h" x1="172.29" x2="189.89" y1="294.57" y2="245.59" gradientUnits="userSpaceOnUse" xlink:href="#a"/>
  <linearGradient id="g" x1="137.83" x2="147.5" y1="230.6" y2="192.33" gradientUnits="userSpaceOnUse" xlink:href="#a"/>
  <radialGradient id="f" cx="290.02" cy="58.289" r="8.5137" gradientTransform="matrix(1 0 0 1.6484 -102.92 -82.052)" gradientUnits="userSpaceOnUse" xlink:href="#b"/>
  <radialGradient id="e" cx="169.44" cy="117.36" r="13.118" gradientTransform="matrix(1 0 0 .88603 -102.92 -30.879)" gradientUnits="userSpaceOnUse" xlink:href="#b"/>
  <radialGradient id="d" cx="119.95" cy="204.38" r="17.033" gradientTransform="matrix(1 0 0 .53176 -102.92 51.442)" gradientUnits="userSpaceOnUse" xlink:href="#b"/>
  <radialGradient id="c" cx="158.61" cy="270.97" r="13.303" gradientTransform="matrix(1 0 0 .60376 -102.92 63.116)" gradientUnits="userSpaceOnUse" xlink:href="#b"/>
 </defs>
 <g transform="translate(-102.92 -44.255)">
  <path d="m202.91 178.19c-6.4984 0.7488-21.53 3.4908-28.906 6.3438-0.00323 0.11376-0.03125 0.22931-0.03125 0.34375 0 7.4785 6.9532 13.531 15.5 13.531s15.469-6.0528 15.469-13.531c0-2.4288-0.75046-4.7156-2.0312-6.6875z" fill="#520"/>
  <path transform="matrix(.36508 0 0 .36508 120.29 117.37)" d="m204.94 184.86a15.483 13.548 0 1 1 -30.967 0 15.483 13.548 0 1 1 30.967 0z"/>
  <path d="m195.05 181.96a1.7204 2.258 0 1 1 -3.4407 0 1.7204 2.258 0 1 1 3.4407 0z" fill="#fff"/>
  <path d="m212.04 179.7s-22.365-0.43009-42.579 8.8169c2.1505 3.2257 8.8169 7.3116 8.8169 7.3116s-13.763-5.5912-16.128-8.3868c32.902-17.204 45.59-12.258 45.59-12.258l4.3009 4.516z"/>
  <path d="m141.07 153.9c0.60013-0.68583 4.6362-1.1591 6.8815-1.7204 3.5282-0.88205 7.0005-2.1802 10.322-3.0106 1.692-0.42301 3.4407-0.57346 5.1611-0.86019 2.0247-0.33746-3.7275 1.7204-5.5912 2.5806-2.0208 0.93266 4.3009-1.1469 6.4514-1.7204 2.5907-0.69085 5.2602-1.375 7.7417-2.1505 2.1486-0.67142 4.2598-1.1359 6.4514-1.7204 4.7092-1.2558 0.61085 0.61085 1.2903 1.2903 0.10443 0.10443 2.0601 1.2361 2.1505 1.2903 1.7957 1.0774 4.2524 0 6.0213 0 3.7611 0 7.4367-0.82207 11.182-1.2903 2.1805-0.27257 7.7208 0 7.7417 0 1.0137 0-0.28673 2.0071-0.4301 3.0106-0.42769 2.9939 6.031 0.48507 9.032 0.86019 2.2681 0.28351 5.814 1.7204 9.462 1.7204 3.7937 0 6.3159 1.0414 9.032 1.7204 2.033 0.50825 3.65 0.8423 5.5912 1.2903 1.5713 0.36261 3.8402 0.64004 5.1611 0.86018 1.9919 0.33199 3.724 0 6.0213 0 0.45336 0 0.28673 0.86019 0.43009 1.2903 0.47332 1.42 2.8673 0.86019 4.3009 1.2903 1.4936 0.44809 2.3456 1.7592 3.4408 2.5806 1.0104 0.75782 2.8636 1.5909 3.8708 2.1505 1.1823 0.65683 1.4336 2.2938 2.1505 3.4407 1.0124 1.6198 0.83015 2.4905 1.2903 3.8708 0.65738 1.9721-1.355 3.7262-1.7204 4.731-0.92766 2.5511-1.6554 0.91964-3.8708 2.1505-1.7861 0.99226-4.4463 0.29642-6.4514 0.4301-2.5621 0.17081-4.8083-0.84853-7.3116-1.2903-3.6887-0.65096-7.2034-1.0549-10.752-1.7204-1.8732-0.35122-4.8378-2.5801-6.4514-3.4408-2.9322-1.5639-6.3636-2.236-9.462-3.0106-2.1337-0.53342-4.2015-1.8006-6.0213-2.5806-2.7275-1.1689-5.2038-1.8386-8.1718-2.5806-2.6061-0.65153-5.1516-1.503-7.7417-2.1505-2.4677-0.61692-2.6558 0-5.1611 0-1.2716 0-4.4153 0.94613-6.0213 1.2903-1.8137 0.38866 2.3172-1.3241 3.0106-1.7204 3.2725-1.87-0.72668 0-2.5806 0h-6.4514c-3.0491 0 2.412-0.90449 3.4407-1.2903 0.56952-0.21357 0.86019-0.86019 1.2903-1.2903 1.9288-1.9288-5.4478 0.28673-8.1718 0.43009-0.83479 0.04394-1.4336-0.86018-2.1505-1.2903-2.2162-1.3297 4.8744-1.7204 7.3116-2.5806 0.22904-0.08084-6.0743 0.598-8.1718 0.86018-3.0076 0.37595-5.3654 0-8.1718 0-2.1805 0 2.725-1.7031 3.4408-2.1505 6.0674-3.7922 0.36432 0.72865-0.43009-0.86019-0.2443-0.48858-7.2059 0-8.1718 0-0.90672 0-1.7204-0.57346-2.5806-0.86019-1.2539-0.41797-2.5806 0.57346-3.8708 0.86019-2.4963 0.55474-5.2623 1.4618-7.7417 2.1505-5.0397 1.3999 0.15686-0.4706 0.43009-1.2903 0.32473-0.97418-4.7532 0.21781-6.4514 0.43009z"/>
  <path d="m320.85 170.67c3.0326-1.4418 5.6348-2.4862 8.6019-3.8708 3.0847-1.4395 5.9128-2.2711 9.032-3.4407 2.787-1.0451 5.9732-1.8074 8.6019-2.5806 2.7029-0.79499-0.97799 0.65199 1.2903-0.86019 1.8812-1.2542 3.1854-0.95563 4.3009-1.2903 3.452-1.0356 1.9952-0.44338 3.8708-0.86018 2.3482-0.52182 1.555-0.8886 3.0106-1.7204 0.55667-0.31809 1.1469-0.57345 1.7204-0.86018l2.5806-1.2903c0.71389-0.35694 3.0077 0 3.4408 0 1.4509 0 2.6414-1.132 3.0106-1.2903 1.6876-0.72328 0.17536-0.13152 1.7204-1.2903 0.87314-0.65485-1.5793-4.7379-1.7204-5.1611-0.39591-1.1877 0.30131-3.9171 0.43009-5.5912 0.24254-3.153-1.2408 2.1714-1.7204 3.0106-0.11397 0.19945-2.4782-2.4782-3.0106-3.0106-1.4336-1.4336 0.57346 4.0142 0.86019 6.0213 0.25964 1.8175-2.2938-2.8673-3.4408-4.3009-0.54476-0.68096 0.28673 1.7204 0.43009 2.5806 0.12018 0.72107-0.28672 1.4336-0.43009 2.1505-0.18861 0.94304-1.7204-0.86018-2.5806-1.2903-0.46233-0.23117-0.86018 0.57346-1.2903 0.86019-0.72559 0.48373 0.28673 1.7204 0.4301 2.5806s-1.7204 0.28673-2.5806 0.43009c-1.4764 0.24607-2.8673-0.86019-4.3009-1.2903-1.5657-0.4697-3.154-0.86019-4.731-1.2903-0.69157-0.18861-0.86019 1.1469-1.2903 1.7204-1.4638 1.9517 0.4401-0.26406-2.1505 1.2903l-2.1505 1.2903c-0.93624 0.56174-0.86019 2.0071-1.2903 3.0106-0.61086 1.4253-2.5806 1.7204-3.8708 2.5806-1.8121 1.208-3.543 2.0667-5.1611 3.0106-1.8648 1.0878-3.9591 2.6394-5.1611 3.4408-1.3316 0.88772-2.3304 1.8125-3.8708 3.0106-1.9524 1.5185-1.289 2.1484-2.5806 4.3009z"/>
  <path d="m295.04 199.49c-0.85576-3.6496 3.6626-8.0989 6.8815-10.752 1.4964-1.3603 2.827-2.056 4.731-3.4407 1.9822-1.4416 3.4484-1.8568 5.5912-3.0106 1.8601-1.0016 4.345-1.5518 6.0213-2.1505l6.0213-2.1505c1.4721-0.52576 3.7664-0.9416 5.1611-1.2903 2.1515-0.53787 4.3435-0.86871 6.4514-1.2903 1.7577-0.35155 3.492-0.53723 5.5912-0.86019 1.8672-0.28726 3.9425-0.28161 6.0213-0.43009 3.2014-0.22867 3.2171 1.1698 4.731 1.7204 0.20128 0.07319 1.9163 3.8325 2.1505 4.3009 0.939 1.878 2.6603 2.3943 4.3009 3.8708 1.1441 1.0297 4.2459 1.7691 5.1611 2.1505 1.4669 0.6112-3.371-0.67419-4.3009-0.86018-2.9922-0.59845-2.2878-2.2878 0 0 3.0194 3.0194-0.106 0.0424-2.1505 0.86018-1.248 0.49918-4.5944-2.6801-5.1611-3.0106-1.7513-1.0216 2.8673 2.8673 4.3009 4.3009 2.3318 2.3318-1.3994-0.39983-3.0106-0.86018-1.1858-0.33881-2.0071-1.4336-3.0106-2.1505-1.0434-0.74531 1.1469 2.2938 1.7204 3.4408 1.3631 2.7262-4.7262-3.8661-6.8815-6.0213-2.6115-2.6114-0.31766 4.1295-0.4301 5.5912-0.01435 0.18662-6.027-5.1668-6.4514-5.5912-1.5441-1.5441-1.7204 4.0142-2.5806 6.0213-0.96503 2.2517-4.5877-1.7204-6.8815-2.5806-1.7502-0.65634-3.7275-0.28673-5.5912-0.4301-0.8873-0.06825-3.2755 2.1837-3.8708 2.5806-1.569 1.046-0.60822 6.1881-2.472 6.4749-1.9845 0.3053 3.7595 7.1423-4.5336 0.38211-1.6598-1.353 7.2689 5.0954-0.28793 2.9536-8.582-2.4323 1.0204 2.97 1.1019 3.8672 0.09086 0.99943-4.1186-1.5356-5.1222-1.5356-0.91798 0-1.9147 1.5417-2.4882 0.82484-0.652-0.815-2.6067-2.5392-1.9549-1.724 2.6996 3.3764-1.1517 0.3815-1.1517 0.66823 0 1.0137-2.3022-0.87222-2.4456 0.13133-0.08359 0.58516-1.1469 0.28672-1.7204 0.43009-1.1066 0.27666 0.15804 0.01975-3.4407-0.43009z"/>
 </g>
 <path d="m246.07 143.29s19.898-12.245 21.429-21.429 1.5306-18.368 1.5306-18.368 19.898 6.1226 18.368 27.552 5.9995 44.188-6.1226 45.919c-10.715 1.5306-27.552 10.715-16.837 32.144 6.1987 12.397-13.776-32.144-18.368-65.818z" fill="url(#i)"/>
 <path d="m210.13 155.76c6.8555-3.1124-6.1226-31.311-6.1226-44.389-6.3566-6.3567-45.187-96.656-31.411-104.31s13.776 3.0613 26.021 15.306 9.1839 26.021 18.368 36.736 15.306 33.674 38.266 105.61c10.715 36.736 10.715 50.511 10.715 50.511s-4.0268-14.247-26.987-24.961-28.85-31.448-28.85-34.509z" fill="url(#j)"/>
 <path d="m265.34 286.61c-7.6532-48.981 6.1226-65.818-9.1839-78.063s-36.736-32.144-56.634-47.45-32.144-30.613-47.45-38.266-19.498-14.247-50.111-34.145-43.204-29.07-52.913-17.237c-5.4408 6.6305 9.3853 24.051 27.29 31.825 2.932 9.0215 35.115 40.086 42.401 41.835 4.1666 10.484 54.538 36.443 45.354 56.341 21.429 9.1839 56.858 13.22 72.165 25.465s30.613 64.287 29.082 59.695z" fill="url(#k)"/>
 <path d="m252.99 309.14c10.715-6.1226-7.6532-70.41-24.49-82.655s-62.757-26.021-76.532-32.144-38.266-9.1839-58.165-16.837-48.981-18.368-62.757-19.898-26.021-10.715-29.082-1.5306-6.1226 22.96 22.96 32.144 47.182 18.147 62.757 26.021c15.024 7.5953 30.33 14.625 61.226 21.429 31.533 6.9448 12.481 20.322 12.481 20.322s47.215-11.138 54.868-3.4852 26.021 50.511 36.736 56.634z" fill="url(#g)"/>
 <path d="m179.12 369.24c-4.592-24.49 3.0613-59.695-9.1839-70.41s-51.693-20.924-82.031-37.134c-29.706-15.872-54.808-18.394-43.482-39.398 4.8733-9.0377 36.112 8.2191 45.296 11.28s34.298 1.7654 51.135 9.4187 39.797-3.862 55.103 0.73 3.0613 1.5306 3.0613 21.429 27.552 36.736 29.082 58.165-29.082 10.715-48.981 45.919z" fill="url(#h)"/>
 <path d="m53.799 219.27c-4.817-2.4041-16.119 2.8549-9.2635 10.668 0.37054 0.30051 13.71 4.8082 16.489 4.8082s7.9666-6.6114 7.9666-8.1139-15.007-7.2124-15.192-7.3626z" fill="url(#c)"/>
 <path d="m24.878 169.18c2.5938-0.30708 10.19-7.6772 9.0783-10.902s-17.601-5.8347-24.085-6.756-12.228-1.2284-8.893 6.9095 0.92636 8.9056 23.9 10.748z" fill="url(#d)"/>
 <path d="m79.504 78.938c-0.89808 5.4256-5.9965 6.1486-8.6907 5.6699s-19.449-6.1486-17.204-14.766 4.191-11.011 13.022-5.1064 13.92 9.2554 12.872 14.202z" fill="url(#e)"/>
 <path d="m193.62 26.617c4.1962-3.3092 0.4417-12.379 0.4417-12.379l-7.0673-14.095c-7.0673-1.3482-9.828 7.1087-7.7298 14.463s3.9753 12.379 5.963 12.624 5.0796 2.0836 8.3924-0.61282z" fill="url(#f)"/>
</svg>
