<svg xmlns="http://www.w3.org/2000/svg" viewBox="0 0 164.37 181.57"><title>tela</title><path d="M112.18,4.54c.26-1.18.85.38,1.58,0C113.7,5.52,112.43,4.65,112.18,4.54Z"/><path d="M122.85,10.86c.64-1,1.9.7,2.76.79C125,12.64,123.71,10.95,122.85,10.86Z"/><path d="M90.85,10.86c.79-.14,1.24.08,1.19.79H90.85Z"/><path d="M63.2,12.44c.12-.54,1-.33,1.58-.4C64.67,13,63.73,13,63.2,12.44Z"/><path d="M60.83,14c.77-.16.58,1.8-.4,1.18v-.79C60.77,14.49,60.81,14.26,60.83,14Z"/><path d="M105.07,14.41c2.1,1.15,4.12,7,1.58,9.08C108,20.07,105.19,17.64,105.07,14.41Z"/><path d="M105.47,20.34c.84-.18.75.56.79,1.18-.32-.07-.39-.4-.79-.39Z"/><path d="M111,22.31c1.38.37-.06,4.29-1.18,4.74.11,2.61-1.61,3.39-1.58,5.92C106.61,29.9,108.77,24.91,111,22.31Z"/><path d="M54.51,23.1a5.3,5.3,0,0,1-3.16,2.37C51.45,23.73,52.9,23.34,54.51,23.1Z"/><path d="M87.3,33.37c1.62.83,1.1,3.3.4,4.74C87.13,37.48,88.25,34.58,87.3,33.37Z"/><path d="M69.13,36.93c4.41-1.51,6.64,2.58,8.69,4.74-.15,1.3-1.15,1.74-1.58,2.76C76.84,40.33,73.43,37.38,69.13,36.93Z"/><path d="M95.59,46.41c.15-.75.5.25.39.79C95.84,48,95.48,46.95,95.59,46.41Z"/><path d="M93.22,48.38c1.49,1.8.4,6.18,3.16,6.72,1.22-.53-.74-1.76.4-2.37a11.08,11.08,0,0,0,4.35,1.58c-.05.87-1.68.17-2.37.4-.41.76-.1,2.22-2,2.37C94.73,55,92.62,53.07,93.22,48.38Z"/><path d="M77.42,54.31c.54-1.26.39,1.4.4,2C77.27,57.54,77.43,54.89,77.42,54.31Z"/><path d="M91.64,54.31c.87.31.51,1.86,1.58,2C92.19,57.41,90,55.55,91.64,54.31Z"/><path d="M80.19,55.49H81v1.58h-.79Z"/><path d="M135.49,60.23c1,2.32-2.19,3.86-2,6.72-.54-.12-.33-1-.39-1.58a6.27,6.27,0,0,0-.79,6.72c-3.3-2.89.06-7.95,1.18-11.06,1.18.48,1.66.43,2-.79Z"/><path d="M69.92,73.27c-6.27-1.52-11.65-5.52-20.15-3.56C55.76,66.26,66.56,69.11,69.92,73.27Z"/><path d="M34,70.11c-9.2-1.75-7.39,10.83,1.18,8.29-2.41,2-7-.23-8.69-1.58a10.46,10.46,0,0,1,0-5.53C28.17,70.42,32.16,67.13,34,70.11Z"/><path d="M119.29,70.5c-4.88-.65-10.06-.34-13.83,1.58-1.6.82-2.59,2.83-4.35,2.37,1.92-3.12,7.73-5.2,13.43-5.14C116,69.34,118.8,68.46,119.29,70.5Z"/><path d="M131.15,76c1.26-.34,1.22.62,2,.79C132.81,77.73,130.67,77.21,131.15,76Z"/><path d="M93.22,79.59c.7,1.63-1.27,3.33-2,5.14-.57,1.46,0,3.46-1.58,3.95A23.36,23.36,0,0,1,93.22,79.59Z"/><path d="M22.91,80.38c1.9,1.52,2.67,4.18,5.53,4.74C26.28,86.82,23.41,82.91,22.91,80.38Z"/><path d="M81.37,80.77c2.48,1.46,3.4,8.09,1.18,10.67-1.1-.45.19-2.16,0-4.74C82.41,84.66,81,82.54,81.37,80.77Z"/><path d="M55.3,83.14c2.81.75,4.11,3.05,7.11,3.16s6.72-3.23,9.88-.4c-.56,1.93-2.35.24-3.56.4a11.84,11.84,0,0,0-5.14,2.37c-1.8-1.79-3.06.94-5.14,1.19-2.55-1.48-4.44-4.08-7.9-3.56C50.45,83.56,55,85.47,55.3,83.14Zm3.95,5.14c.68.1,2.34-.74,1.19-1.18C60.4,87.84,59.13,87.37,59.25,88.28Z"/><path d="M34,92.23a1.09,1.09,0,0,1-1.19.79C32.6,92.18,33.35,92.27,34,92.23Z"/><path d="M136.28,92.23c.4.26.41.91,1.18.79-.12.54-1,.33-1.58.4C135.77,92.78,136.26,92.73,136.28,92.23Z"/><path d="M40.29,93c.7.29.06.72,0,1.18C39.59,93.91,40.24,93.49,40.29,93Z"/><path d="M32,98.15c.05-.87,1.67-.17,2.37-.4C34.32,98.63,32.69,97.93,32,98.15Z"/><path d="M125.61,100.92c.81.11.78,1.07,1.58,1.18C126.8,103.1,125.45,101.79,125.61,100.92Z"/><path d="M42.27,106.05c.52.14.62.69,1.19.79-.16,2.11-.75,4.88-2.76,3.95,0-.75,1.31-.27,1.19-1.18-1.11-.49-2.78.8-3.56.79,0,0,0-.78,0-.79-.81.18-1.43,2.22-2.37.79C37.48,108.38,42.34,109.68,42.27,106.05Z"/><path d="M82.16,106.84c.45,1,2,2.19,1.19,3.16-1.82-1.18-2.68-1.93-5.14-.79A3.32,3.32,0,0,1,82.16,106.84Z"/><path d="M92.43,109.21c-1.67,0-2.55-.76-3.95,0C88.45,106.49,92.68,106.1,92.43,109.21Z"/><path d="M123.64,108.42c.58.34,1.25.59,1.19,1.58C124.24,109.66,123.57,109.41,123.64,108.42Z"/><path d="M47.4,117.9c1.16.68-.9,1.44-2,1.18C45.68,118.29,47.27,118.83,47.4,117.9Z"/><path d="M95.59,121.85c-1.94,7.69-15.08,9.11-21.33,4.74-.68-2.75-3.19-3.65-4.34-5.93,4.83-.9,10.07-3.23,13.82,0C88.14,118.51,91.62,120.63,95.59,121.85Z"/><path d="M40.69,123c-.07-.86,1.4-.18,2-.4C42.73,123.5,41.26,122.82,40.69,123Z"/><path d="M106.65,148.32a14.44,14.44,0,0,1,5.93,1.58v2.77a5.7,5.7,0,0,0-4.35,3.56c-1.67-2.74,1.91-3.62,2.76-5.13-.18-2.19-4.89.15-4.35-2.77Z"/><path d="M104.68,153.06c.15-.75.5.25.39.79C104.92,154.6,104.57,153.6,104.68,153.06Z"/><path d="M108.23,157.41c.92-.77,2.46,1.21,2.76,2.37C109.56,159.51,109.22,158.13,108.23,157.41Z"/><path d="M115.34,158.19c.32.08.39.4.79.4,8.45,3.36,14.9,9.7,24.1,12.64,2.31.74,5.2.93,7.9,1.58a77.79,77.79,0,0,0,13.43,2c1.07-.38,3-2.27,2.77.4.44,1.5-2.55.45-4,.4-4.45-.17-7.77-.08-12.25-1.18-1.33-.33-2.66-1.23-3.95-1.58-3-.82-5.77-.9-8.29-2-6.72-2.86-12.87-8.22-19.75-11.06C116.13,159,115.05,159.27,115.34,158.19Z"/><path d="M45.43,159.77c.71-.11.81.38.4.4-.06,2.13-2.24,1.31-3.56,2s-2.28,2.08-3.56,2.76c-3,1.6-6.81,1.38-9.09,4a19.5,19.5,0,0,0-8.69,2.76c-7.4-.58-14.2,1.11-20.94-2,.73-1.9,5.38.12,6.72-1.18,4.37,2.29,14.41,2.17,20.15,0,6.45-2.44,12.58-6.84,18.56-8.69Z"/><path d="M110.21,160.17c-.49,2.15-4.24,1-3.56,4.35C103.87,162.92,107.31,159.76,110.21,160.17Z"/><path d="M107,165.31c1.89,1.2-2.74,4.52-5.13,4.74a3.64,3.64,0,0,1-2.77-.79c.09-1.56,3.75.67,3.56-2C104.12,168.92,106.43,166.85,107,165.31Z"/><path d="M88.09,176.76c-.07,1.89-.69-.68-2,0-.8.45.85,1.75.4,3.16-1.69-2.25-2.9-5-7.51-4.35-1.08.29-.79-.79-1.58-.79-1.27.7-2.46,1.49-2.76,3.16-1,0-.78-1.32-.79-2.37C78.29,172.72,84.09,175.6,88.09,176.76Z"/><path d="M71.89,177.16c1,.75,3.19,4.77-.39,4.35C72.47,180,71.88,179.44,71.89,177.16Z"/><path d="M80.19,177.94c-.84.48-1.15,1.49-2.37,1.58C78.39,178.78,78.7,177.77,80.19,177.94Z"/><path d="M80.58,178.34c1.41-1.14,3.79,1.83,2.77,3.16C81.55,181.32,81.88,179,80.58,178.34Z"/><path d="M88.48,177.94c1.37.51,2.28,3.16,0,3.16A3.84,3.84,0,0,0,88.48,177.94Z"/><path d="M77.42,179.92c1.27-.35.54,1.3,1.58,1.18-.1.93-1.73.23-2,0A1.85,1.85,0,0,0,77.42,179.92Z"/><path d="M86.11,180.32q1.29-.11,1.18,1.18Q86,181.61,86.11,180.32Z"/><path d="M82.56,4.14c4.85-.05,14-2.22,17.77,1.58-1.12,1.59-3.42-.53-5.53-.79-3.17-.39-6.35.4-9.09.79.41.75,3.08.09,1.58,1.58a14.64,14.64,0,0,1,2.77.79c-3.05.46-7.28-.18-11.46.79,1.2-1.43,4.44-.83,5.92-2-3.28-.38-7.92,1.29-10.66,2.77.75,1.1,1.6-1,3.16-.4-.82.63-2,.86-2.37,2,3.62.11,11.69-4.18,15.41-.4C89.36,11.64,83,9.39,83,12c-1.37-.29-2.1-1.21-3.56-.4.62,1.36,3.45.5,4.35,1.58-.47,1.45-1.06.1-2,0-3-.35-7.27.08-9.88,1.58,4.36-.23,10.23-1.48,14.22,1.19.53,1.32,1.79,1.89,2.76,2.76-.85.44-3.34-.86-3.55-2.37-3.56,0-6.36-1.48-9.87-.4,1,2.19-.79,1.19-2,2,3.14,1.55,4.8,1.66,7.11,2.76-2.42.46-7.72-2.33-9.87,0,1.08,1.16,3-.35,3.95.4-.56,1.15-3.92-.5-3.95,1.18,2.18,1.18,5.94-1,6.72,2a16.47,16.47,0,0,0-7.9-.79c.35,2.15,3.25.94,4.74,1.18a14.31,14.31,0,0,1,6.32,2.37c-3.6.94-7.65-2.45-11.46-.4.21,1.64,3.56.13,4.35,1.19-.78.86-3.55-.8-3.95,1.18a18.82,18.82,0,0,1,7.9,1.58c-1,1.29-1.79,1.16-3.16.4-.58,1.5,1.77.08,1.19,1.58-2.47-1.34-6.61-1.52-9.09,0,.71.87,3.09.07,3.95.79-1.45-2,3.25.43,4.35.79.55-.14,0-.69-.4-.79,1.78-1,1.52.91,1.58,2,0-.22-.24,1.22-.39.79C76,37.65,78.57,39,77.82,39.7c-.68-1.29-2.08-1.87-2.76-3.16a15.24,15.24,0,0,0-5.93-.79c1.09-.88,3.13-.82,5.14-.79a2.36,2.36,0,0,0-2-1.19c-1.89-.27-3.47,1-5.53,1.58-3.14.91-6.56.89-7.9,2.76-.67-.89.24-1.63.4-2.37.58-2.79.57-6.36,1.58-8.69.69-1.58,2.35-2.69,3.16-4.34.21-.43-.16-1.13,0-1.58.74-2.1,2.51-3.69,3.55-5.53.23-.4-.19-1.16,0-1.58,1.13-2.43,4.55-4.88,5.93-7.51,1,.16.86-.72,2-.4.45-1.24-.11-1,.39-2C81.53,1.63,90.36-1.67,97.57,1c-.31,1.9,1.52,1.64,2.37,2.37-4.17-1.22-12.1-1.6-17.38.79ZM96,1.77C95.74.44,93.86.74,92.43.59,92.57,2,95,1.2,96,1.77Zm-17,4c.9.11,1.49-.1,1.58-.79C79.88,5,78.61,4.53,79,5.72ZM68.34,19.15c.14,1.5,1.35-.77,2.37.79-.52-2.1,2.2-1,2.37-2.37C70.44,17,70.12,18.82,68.34,19.15Zm-.79,4.34a2.25,2.25,0,0,0,2.37-1.18C69,22.62,67.78,22.54,67.55,23.5Zm.39,2h.79v-.79h-.79ZM64.39,29c.75.63,2.27-.35,2.77-1.18C66.18,27.51,64.47,27.45,64.39,29Zm2.77.4a1.09,1.09,0,0,0,1.18-.79C67.72,28.67,67,28.58,67.15,29.42Zm0,4.74a1.09,1.09,0,0,0,1.18-.79A1.09,1.09,0,0,0,67.15,34.16Z"/><path d="M124,20.34c-.11-.81-1.06-.79-1.58-1.18,1.33-.81.28-.82,0-2,.74.32,1.6.51,2,1.18A11.44,11.44,0,0,1,126.8,16c.06-1,.07-1.92-.79-2,2.47-1.37.9-6.19,0-8.69-1.5-.34-2.62-1.07-4.74-.79,1.42-1.13,1.44-.43.79-2.37,1.46.8,2.35-.27,4.35,0,1.45.85-2.21-.15-2,.79.93,1.29,2.24-.37,3.16-.4,2.14,1.85,4.86,6.75,2.76,10.27-1.68.07-.45-2.48-.4-3.16-2,0-.13,3.82-2.37,3.56,1.3,3.06,3.18,7.54,2,9.87.12.81,1.07.77,1.18,1.58.66-.39.28-1.83,1.18-2,1.52-.29,1,1.07,1.58,2a33.55,33.55,0,0,1,5.14,20.54c-.43,5-.88,12.29-5.92,14.61-.58,2.32-2.26,3.54-2.77,5.93a1.85,1.85,0,0,0-1.18-.4,13.14,13.14,0,0,0,0,8.69c-.52-.14-.62-.69-1.18-.79A12.48,12.48,0,0,0,130.35,78c-.29.7-.72.06-1.18,0-1.15.76,2,1.86.79,2.77-2-.9-2.12-3.67-3.95-4.74.19,2.08-1.15,6,1.18,8.29a2.24,2.24,0,0,0-1.58,2c.77.54,3.08,1.5,2.37,3.16-1,.12-.31-1.53-1.58-1.18-.93.57.49,2.11,1.18,2.37-.06.46-.72.33-1.18.4.91,2.38,3,3.57,4.34,5.53,2.8.67,7.26.71,8.69-1.18-1.83-.27-6.39,1.22-8.69-.4,4.35.7,10.7-.38,12.64-4.35-1.58-.51-3.05,2.47-5.53,2.37.27-2.14,7.13-3.21,7.11-9.48,1.18,1.33-.57,3.1-.39,4.74,2.74-.6,3.73-8.94.79-10.27-1.88,5.5-4.46,10.28-12.64,9.48-.11-.72,3.48-.31,1.18-.79,2.15-.75,5.48-.32,6.32-2.37-.65-2.86-4.94.29-6.72-1.18a3.55,3.55,0,0,1,2.77-.79c.36-1.55-2.09-.29-2.37-1.18,2.21,0,8.15,0,6.72-3.56,2.16,2.53,3.88-2.86,2-4.35-1.17.9-.39,3.13-2.77,3.56.06-1.79,1.76-1.93,1.58-3.95-.14-1.31-2.28-.62-3.56-.79-1-.9,3.25.11,3.56-.79-.08-3.47-6.46-2.15-7.9-2,.05-.71-.48-.83-.39-1.58,3.32-.15,6.31,0,8.3,1.19.39,3.56,4.68,3.21,3.95,7.9a16.51,16.51,0,0,1,2.37,1.58c.52,5.53-.15,10.72-2.37,15A20.26,20.26,0,0,0,143,99.34c-.56,2.35-2.63,4.75-4,7.51-1.13,2.37-1.51,5-2.37,6.32-2.34,3.59-6.13,6.38-9.48,7.11-1.47,2.41-5.55,5.32-9.08,3.16.13-.93.62-1.48.39-2.76,1.61-.16,1.22,1.68,2.37,2a12.85,12.85,0,0,0,4.34-1.58c-.47-.36-1.71-1.93-2.37-.79-1.21-1.58-1.89-3.4-.79-5.53,1.59.41-.05,1.6.39,3.16,1.71,2.25,3.81.09,5.14-1.18-1.25-1.12-2.81-1.93-3.56-3.56,1.1-1.1,1.11.9,1.58,1.58,1.37-.74,2.1.19,3.56.4,1.17-.81,2-2,3.95-2-2.1-1.06-5.72-.6-7.11-2.37-.23-1.52,1.67.36,2.37.4.59-1.77,3.53.72,4.35-1.18.07-.86-1.4-.18-2-.4,1.1-.74,2.94-.75,3.95-1.58-.08-1.21-2.59,1.28-2.37-.79,1,0,2.26.15,2.76-.39-1.53,0-.38-1.17-.39-1.19-.74-1.05-2-1.39-3.55-2.37a15.57,15.57,0,0,0,3.95-.39c1,0,.48.29.4.79,2.06.09,2.57-1.37,3.56-2.37-.07-.32-.4-.39-.4-.79-7.93.16-10.9-4.64-13.43-9.87-.45,2-1.25,7.83.79,8.69-3.12,1.37-2,6.72-3.56,8.69.47,1.77,2,2.45,2,4.74-2.28.56-.86-2.57-2.37-2.76-1.5,2.71-2.24,6.18-3.95,8.69,0,1,1.47.64,2,1.19-.11.93-1.47,0-1.58-.4-2.61,2.48-3.4,6.43-5.53,9.48-1.2,1.73-2.94,2.92-4,5.53-.65,1.69-.07,4-2,5.13-.49,4.12-1.47,7.75-2,11.85-.78-5.79,1.39-12,3.16-16.59-1-.39-2.14.95-2.77,1.58-2.12,2.15-4.13,5.18-6.32,7.11-1-.16-.86.72-2,.4-1.59.93-3.08,2.83-4.74,3.56-.91.4-2.18-.7-2.37.79-8.85,1-21.2-1.38-24.89-9.09-2.4-1.16-3.8-3.31-5.93-4.74.37,8.87.75,16.57-2.76,23.31.74-6.45,2.31-13.67,1.19-20.54a29.19,29.19,0,0,0-3.16-9.09c-1-1.75-1.77-2.79-2.76-4.74-1.46-2.85-2.53-5.57-4-7.9-.4-3.29-1.68-5.69-2.76-8.29,0-5.77-2.44-13.8,0-20.14-.19,9.41.78,20.43,4.74,28.44,1.06,2.14,2.61,4.35,4,6.72,5.51,9.74,13.91,20.86,24.89,24.89C90.79,149,97.17,144,103.5,137.65c3.13-3.13,7.48-7.28,9.88-11.06,1-1.56,1.41-3.83,2.37-5.93,3.35-7.32,7.45-15,8.29-24.89.25-2.89-.62-6.36.79-7.9.18-.84-.56-.75-1.19-.79.36-4.11.39-8.57,1.58-11.85-1.3-3.59-1-10.47,1.19-13-.27-4.11.47-8-.4-11.06-.59-2.07-2.63-3.09-2.37-5.13,1.25,1.12,1.38,3.36,3.16,3.95.3-.89.07-2.51,2-1.58,0-1.33-1-4-1.58-4.35-.22-.14-.5.64-.4.79-1.5-2.18-1.7-3.71-3.55-6.32,1.42.69,2.31,1.9,3.55,2.76,1.1-.68-1.47-1.77.4-2.37.76.73.18,1.87,1.58,3.56a7.52,7.52,0,0,0,3.56,2.37c-1.56-2.92-2.42-6.53-4-9.48.23-1.19,2-1.35.4-2.37,2-.76,3.81,1.14,4.74,5.14,1.05-4.53-1.48-9-3.95-13-.81.64-1,1.9-1.58,2.77a2.23,2.23,0,0,1-1.58.39c.06.46-.09.7-.4.79.22,2.59-.92,3.82-1.18,5.92-2.62,1.72-5.6,3.1-5.93,7.11-4.56,2.81-4.46,10.29-12.64,9.48-.14.67.31.74.79.79-4.46,2.39-5,8.69-11.46,9.08C94,62.55,91.77,63.11,90.85,65c-3.11-.49-9.78,2.66-13.43,2.76-1,.53.44,1.47-.39,1.58-2.84-.09-2.68-1.24-5.14-1.18-1.7-4-3.75-7.9-2.37-12.64.4-1.37,2.57-3.26,3.56-5.14.74-1.4,1-3.92,3.16-4-.11.81-1.07.78-1.18,1.58.88.94,2.71.86,3.95.4,1.19,1.09-.94,2.2-.79,3.56-.71,0-.83-.48-1.58-.4v2.37c-1.26-3.31-1.81,1.9-1.58,3.56.56,4,3.08,7.47,5.14,7.5,1,.12.31-1.53,1.58-1.19-2-1.26-2.66-3.93-4-5.93,2.5-4.48,1.28-12.67,7.51-13.43C84.76,47,82.73,48.16,81.37,50c.06.46.72.33,1.18.4a7,7,0,0,1-3.16,3.56c.18,1.78-.26,3.14,0,4.34.56,2.61,3,3.41,4.35,5.14,1.44-.13,1.48-1.69,2.76-2-1.78-2.23-3.3-10.5-.79-13.82.56-.74,2.5-1.15,2.37-3.16A9.57,9.57,0,0,0,89.67,46c-.57,1.4-2.09,1.86-2,3.95C86,45.78,83.4,57.53,86.51,59c.81-2.4-1.07-5.32-.79-7.51.65,1.06,1.24,2.19,2,3.16C89.11,53,88,50.32,89.27,48c.54.12.33,1,.4,1.58,1.06-.52.65-2.5,1.18-3.55,1.29.46-1.07,2.1,1.19,1.58-1.14,1.47-.75,3.87-.4,5.92-.83-.49-1.54-1.09-2.37-1.58-.67,3.75,1.5,7.95,5.93,7.9-.21-1.37-2.13-1-3.16-1.58,1.52-2.07,4.13.93,6.71.4,2.21-.46,3.19-2.15,4.74-4-.87.08-.52-1-1.19-1.58s-2.4-.9-3.16-2c-3.33-4.73-2.07-15.3,2.77-16.59.73.06.24,1.34.79,1.58.95-3,.68-7.22,3.95-7.9.06,2.69-1.84,6-.4,9.87a1.93,1.93,0,0,0-.79,2,1.42,1.42,0,0,0,2,1.19c-1.83,1.67,1.66,2.81,3.16,3.56.59-.17-.15-.51,0-1.19,1.19.8,3.88.38,4.35-.79-4.06-1.35-6.33-4.47-6.72-9.48.78.66.5,0,1.58,0,.22.88-.75.56-.79,1.19.59.85,1.12-.43,1.58.79.52-.14.62-.69,1.19-.79-1.25-1.63-1-3.58-2-4.74.78-1.32,1.87,0,2.37,0,.49,1.28-1.28.3-.79,1.58,1.26,3.27,1.54,6.06,6.32,6.32.87-.84,1.12-2.3,2-3.16-4.22-.35-4.5-6.44-7.9-6.32-.1-1.29,1.23-1.14,1.58-2,.19-3.36-.45-7.56,2.37-8.3.13,1.31.89,3.55-1.18,3.55.41,2.1.42,4.58,1.18,6.32a1.86,1.86,0,0,0-1.18-.4c.27,2.36,1.05,4.22,3.56,4.34-.32-1.66-2.31-1.64-2.37-3.56a3.23,3.23,0,0,0,3.56,1.19,12.56,12.56,0,0,1,1.58,6.32c1.77-.12,4.83-4.32,4.34-6.72-2,.15-1.94,2.28-4.34,2,.63-1.36,3.25-1.18,3.95-2.77a3.34,3.34,0,0,0-.4-3.16c-4.49,1-6.84-1.62-7.51-5.53-.32-1.88.23-4.09,0-5.93-.53-4.21-2.39-6.31-5.93-7.51,2.72-1.14,4.08,2.49,5.93,3.56.26-1.44-.85-1.52-.79-2.77,1.89.74.9,4.37,2.37,5.53,1.27-4-1.73-7.22-4.74-8.3,4.11-.14,5.6,4.28,5.93,8.69.07.89-.75.5-.79.79a14.82,14.82,0,0,0,.79,4.35c.75,1.64,2.54,3,4.34,2.37Zm1.58-16.59c.55,1.31,2.23,3.55,3.16,3.16-.88-.17-.16-1.95-.4-2.77C127,4,126.93,3.08,125.61,3.75Zm-50.56,49c-.09-.31-.33-.46-.79-.39-2.41,2.16-1.84,8.71,1.19,9.88C74.9,59.56,74.06,55.65,75.05,52.73Zm32.39-8.29c-.06,1.77,1.78,1.65,3.56,1.58C110.63,44.67,108.8,44.79,107.44,44.43Zm2-9.08c-.47,2,2.84,7.21,5.53,4.74C112.38,39.24,111,37.16,109.42,35.35Zm4,2.37c-.79-.4-.62-1.75-2-1.58C110.79,37.69,113.2,38.24,113.37,37.72Zm9.88-15.8c.75,1.13,2.27-1.37,2.76-.4-.36.7-1,1.15-1.18,2,.5.95,1.73,1.17,1.58,2.77,2.81-.92,4-7.78.79-9.09C126.39,19.27,124,19.77,123.24,21.92Zm-5.14-1.18a3,3,0,0,0,2.37,2.37C119.85,22.15,119.4,21,118.11,20.73Zm.39-2c-.16,1,.72.86.4,2C121.13,21.14,119.77,18.39,118.5,18.76Zm4.35,4.34q.11-1.29-1.18-1.18C121.39,23,122.48,22.68,122.85,23.1Zm11.46,7.11c-.59-.33-.57-1.27-.79-2,.79-.2.9,2.18,1.58.79-.92-1.06-1.14-2.81-2.37-3.56.07,2.22-1.34-1.37-1.58,0C132,27,133,30.43,134.3,30.21Zm0,1.19c.31.88.23,2.14,1.18,2.37-.23-1.28.12-2,.79-2.37A1.47,1.47,0,0,0,134.3,31.4Zm2,5.13c-.09-.7.4-2-.79-1.58C135.38,35.85,135.58,36.44,136.28,36.53ZM99.94,38.11v.79c1,.61,1.16-1.34.39-1.19C100.31,38,100.27,38.19,99.94,38.11Zm36.34,5.53c.07.63-1,1.6.39,1.19,1.09-2.37-1-4.72.79-6.72C134.79,38.19,136.11,42.21,136.28,43.64ZM114.16,39.3c.62,0,1.37.05,1.18-.79h-.79C114.56,38.9,114.23,39,114.16,39.3Zm-11.46,2c.93-.33,0-2-.4-2.37C102,39.19,101.25,41.64,102.7,41.27Zm29.63-.4c.11-.9-.1-1.48-.79-1.58C131.43,40.2,131.63,40.78,132.33,40.88ZM98.75,45.62c-1.15-.21-.58,1.75-.39,2.37.85,2.77,4.12,5.37,6.71,4.35.48-2.33-1.69-2-2.37-3.16-.64-.68-.78-1.86-1.58-2.37.85-1.66.14-5.14-1.18-5.92-3.21,3.08,1.53,8.45,2.37,9.88A8.92,8.92,0,0,1,98.75,45.62Zm7.9-.79a5.09,5.09,0,0,0-2-4C104.89,42.64,105.33,44.18,106.65,44.83Zm-1.58,4.35c.19-2.41-2.19-2.11-1.19-4.35-1.56.51-1-1.15-2-1.19C101.68,46.58,103.21,49.61,105.07,49.17Zm7.5-2c1.79.08,2.25-1.17,2.37-2.77C113.56,44.76,113.1,46,112.58,47.2Zm-6.32,0c-.08,3.55,6.91,2.68,3.56.4-.15.68.58,1,0,1.19C108.23,48.65,108.25,46.92,106.26,47.2ZM90.06,51.94h.79v-.79h-.79Zm41.08,2.76c.1-.56.65-.67.79-1.19C131.12,53.17,130.16,54.54,131.14,54.7ZM87.69,61c1.55,1.52,2.75.1,4.74,0a14.19,14.19,0,0,0-3.95-4.34A6.85,6.85,0,0,1,87.69,61Zm0,3.16c.46,1,1.86-.44.79-.79C88.48,63.92,87.79,63.75,87.69,64.18ZM126,69.71c-.61-2,1.3-4.1-.4-4.74C125.87,66.35,124.1,69.24,126,69.71Zm15,14.22c1.16,0,1.47-.9,2-1.58C141.71,82.25,141.09,82.82,141,83.93Zm-4.74,27.65c.1-.56.65-.67.79-1.19C136.25,110.05,135.3,111.42,136.28,111.58ZM130,116.72h-1.58A.84.84,0,1,0,130,116.72Z"/><path d="M77.42,60.23a11.47,11.47,0,0,0,2.37,2.37C79.54,64.19,77.45,61.44,77.42,60.23Z"/><path d="M105.47,3.35c4.26,1,8.51,5.44,8.29,12.24h-1.58c-.07.86.32,1.26,1.19,1.18-2.83.2-2.35,3.71-4.35,4.74-.08-1.9-.61-3.34-.79-5.13.78,0,.5,1.08,1.58.79-.22-3.64-2.53-4.84-2.37-7.9-1.07-1.17-1.83-2.65-3.56-3.16,3.11-.86,4.67,3.23,6.32,5.14,0-3.15-3.27-6.47-6.71-7.51,3.74-.38,7.32,4.7,8.29,7.11C112,7.65,108.46,4.71,105.47,3.35Z"/><path d="M53.72,18.76c3,.4,6-2.65,9.08-3.56-4.51,2.87-9.18,5.56-12.64,9.48-1.29-1.06,1.45-1.42,1.58-2.37-2.76,0-3.9,1.63-5.14,3.16.59,1.31,1-.82,2-.4-1,.83-1.47,2.57-3.16,1.58,0,.38.48.31.79.4-.62,1.57-1.41.51-2.37,1.58.66,1.65-2.23,1.92-2.37,4,.44.92,1.56-.77,2-1.19,4.07.45,6-4.08,9.88-5.13-.12.93-1.22.88-1.58,1.58,1.75,1.34,2.63-1.57,4.74-1.19A86,86,0,0,0,47.4,33c1-1.53,2-3,3.95-3.55-2.73-.23-5.21,3.21-6.72,5.53.38.73,1.42-1.18,2-1.58C49.75,35,52.56,28.24,56.09,29c-5,2.52-8,7-12.24,10.27-.1,3-2.77,5.31-2.37,7.51,2.77-3.07,5-6.94,9.09-9.08.11.64-.37.68-.4,1.19,1.08-.64,2.48-.94,2.37-2.76,1.74-1,3.14,0,4.34-1.19,1.15,1.43-.68,3.26-2.76,2.77-2.74,2.79-6.31,4.75-7.51,9.08,2.53.09,3.74-4.38,6.72-5.13.06-.46-.09-.7-.4-.79,1.15-.82,2.85-1.1,3.56-2.37-.67,4.21-6.93,6.23-8.69,10.67-1.05,0-.86-1.25-2-1.19-1.14,1.39,2,1.4-.79,2,3.23,1.31,5.22-4.19,8.3-5.53-1.51,3-4.1,4.86-5.92,7.51.35,1.4,0,1,.39,2.37C42.6,61,46.72,70.79,46.22,80.38c0,.81.65,2.68-.79,2.76-.44-3.77.21-8.14-.79-11.06-.47-1.37-1.91-1.81-2-3.16-.69.36-.87,1.23-.79,2.37.86.5.88.09,2,.79v2.76c-.81.69-.78-.29-1.58.4-.29,1.21,1.08.76.79,2-1.06.62-.79,1-2.37,1.58.23-.82,1-1.13.79-2.37-1,2.13-3.76,3.4-3.95,5.14-1.45.11-4.64-.88-6.32.79a33.55,33.55,0,0,0-2.76-2c3.93.3,9.77-.36,11.06-3.95-1.62-4,.63-10.34-3.16-12.64.6-1.26.14-1.74,0-3.16-.27-.21-.45.76-.39.79-3.28-1.69-1.26-11-.79-15-1.24.08,0,2.58-1.58,2.37-.14-3.47,1.9-6.58,2.37-9.87,1.18-8.23,7-19.75,13-23.7.18-.12.63.13.79,0,5.18-4.1,10.95-8.51,19-8.69.29,1.76-4.33.65-3.16,2a3.23,3.23,0,0,1-2.37.79c-.93,1.4-1.08,1.23-1.19,3.16A13.78,13.78,0,0,0,55.7,16c1.25,1,2.44-1.49,4.35-1.19-1.69,1.74-4.65,2.2-6.32,4Zm1.58-2.37c-1.37-.29-2.09,2.09-3.16.79a6.86,6.86,0,0,0,3.56-2.77c-3.81.8-6.09,4.35-7.9,6.71-1.1,1.44-3.13,2.48-4.34,3.95A30.55,30.55,0,0,0,39.9,31a17.1,17.1,0,0,0-1.58,4.35c2.06-1.34,2.32-4,3.56-5.92,2.4-3.79,5.61-6.84,8.29-9.87.1.69.68.9,1.58.79C52.36,18.45,54.59,18.18,55.3,16.39Zm-13,19c.12-1.34,3.11-1.87,1.58-3.56C43.25,32.75,40.51,34.51,42.27,35.35ZM35.55,56.68c0-1.83.22-3.91-.79-4.74C34.81,53.92,34,55.56,35.55,56.68ZM46.61,18.76c1.06.23,2-1.62,1.19-2C47.68,17.71,46.43,17.52,46.61,18.76ZM56.88,14c1-1.35,3.72-1,4-3.16C59.09,11.23,56.18,12.51,56.88,14ZM43.45,36.14c.69,1.4-.26,1-.4,2.37,1.34-.26,3.37-1.88,2.37-3.16C45.37,36.21,44.43,36.2,43.45,36.14Zm-2.37,6.32c1.69.87,1.63-3.23,1.19-2C41.91,41.18,41.31,41.64,41.08,42.46Zm4.74,1.19c1.33-.12,1.58-1.32,2-2.37C46.47,41.4,46.22,42.59,45.82,43.64Zm-2,3.56c1.62-.1,1.37-2.06,2-3.16C44.32,44.25,44.08,45.72,43.85,47.2Zm-.79,2a1.48,1.48,0,0,0,1.58-1.58A1.48,1.48,0,0,0,43.06,49.17Zm-6.72,4.74c2.26,4.19,3.15,9.76,4.74,14.61,1.31-7.39-1.26-14.26-3.95-19A17.74,17.74,0,0,0,36.34,53.91Zm5.14,20.93h.79c.44-.57.43-1-.4-1.18C41.85,74.17,41.37,74.21,41.48,74.85Z"/><path d="M22.91,75.24c.75.65-1.13,2-1.58,2.76-.84,4.77,3.4,10.13,8.3,10.67.71.08,6.6-.26,4.35-1.19,3.64-.31,5.36-2.54,6.72-5.14-5,3.17-14.87,3.71-15.8-3.16.64,1.06,4.47,2.74,3.16,3.16,4,.79,12.52,1.87,13.83-3.16,1.92,3.08-1.4,7.68-2,9.48-1.3-1.07,1.08-1.79.79-3.16-2.35,1-6.35,5.67-11.06,4.35-.15.21-1.92.58-.79.79a8.48,8.48,0,0,1-3.56-.79c-.16-.1-.23-1-.4-1.19a5.93,5.93,0,0,0-2-.79c-.94-1.32,0-3.55-1.58-4.35C19.89,88,24,92.08,27.65,91.44A3.55,3.55,0,0,0,29.23,93c1,.16.86-.72,2-.39-1.21,1.6,2.41,1.1,3.56,1.58.07.34-.15.37-.39.4-.07.34.15.37.39.4-1.15,1-3.8.13-5.14,0-.18.84.57.75,1.19.79-1.38,1.1-2.65-1.29-4.74-.79.87,1.5,3.2,1.54,4.74,2.37-2.31.59-5.17-1.67-7.11-2.76.11-2.88-2-3.54-2.77-5.53-.48,6.54,5.24,10.3,11.85,11.06.06.86-1.4.18-2,.39.12.54,1,.33,1.58.4-2.91.77-5.83.05-7.9,0-.37,1.77,1,.35,1.18.4,2.54.76,4.59,2.59,7.51,2.76,1.89.11,3.21-.14,5.13.4-.44.48-.34.81.4.79-.57.88-2.35.54-3.16,1.18.06.46.72.33,1.19.4-.27,1.16-2.78-1.84-5.53-.79,1.71,1.09-.61.79-1.58.39.06-.46.72-.33,1.19-.39-1.33-.7-2.23-.07-4.35-.4,1.43,2,4.61,2.24,7.51,2.77.4,1.19-.88.7-1.58.79.48,1.62,1.52.23,2.37,0a1.08,1.08,0,0,0,.79,1.18c-.36.35-1.17.07-2.37.4,1,.61,1.69.83-.39.79,0,1.22,1.19,1.18,2.37,1.18.64,2.65,4.37,2.22,7.51,2.37-1.65,2.18-5.38-.76-7.11,2.37,1.5,1,3.94.67,6.32,1.58-1.5,2.9-6.24-.78-8.29,0-.75,0,.24,1.54.79,1.58-2.13.58-1.93-2.3-2.77-3.95-.35.18-.71.35-.79.79C29.07,115,28.95,111,25.68,110c-.17-.75-.85-1-.79-2-.52-.4-1.46-.39-2-.79,0-1-.74-1.22,0-2A22.43,22.43,0,0,1,20.15,95c1.22,1.88,1.15,6,4.35,4.74-1.74-2.06-4.4-5.14-4.74-9.09-.07-.81.73-1.55.79-2.37.34-4.33-1.33-10.62,2.37-13Zm14.61,29.62c-.7.09-2-.4-1.58.79h1.58ZM25.68,95c.19-1.24-1-1.11-1.58-1.58C23.91,94.65,25.09,94.53,25.68,95Zm5.53,19c.11-1-.14-1.7-1.18-1.58C29.91,113.41,30.17,114.07,31.21,114Z"/><path d="M104.68,10.86c1-1,2.05,1.35,2.37,2.37C105.72,13,106.08,11,104.68,10.86Z"/><path d="M123.24,12c-.2-.52,2-.17,1.58.79C123.75,13.12,124,12,123.24,12Z"/><path d="M101.91,15.2c-.46.06,4.65,2.69,3.55,4.74A34.59,34.59,0,0,0,101.91,15.2Z"/><path d="M97.57,15.6c3.24-.73,3.82,4.61,7.11,5.14-.32,1.77.53,4.36-2,4.74,1.07,1.56-1.49,2.3-2,3.56.23,1.28-.27,1.84-.4,2.76-2.64-.67-2.5,1.44-3.55,2.37.28-3.51-.49-7.79-3.56-9.09,3-1.2,4,3.1,5.14,5.14,1-.74.28-3.15-.4-3.56.4-1,.68,1.38,1.58,1.19C100.75,24,98.13,20,95.19,18c2.61-.11,5,3.42,5.93,6.32.88-1.82-.94-4.32-2-5.53.8-1,1.4,1.47,2.37,1.58C102.11,18.42,99.27,16.53,97.57,15.6Z"/><path d="M96,16c.48-1.19,1.58.21,1.58.79C98.49,17.66,96.56,16.09,96,16Z"/><path d="M94.8,21.52a10.1,10.1,0,0,1,2.76,4A12.54,12.54,0,0,1,94.8,21.52Z"/><path d="M90.85,24.29c1.19-.65,2,2.44,3.16,3.16C92.51,26.85,92.24,25,90.85,24.29Z"/><path d="M44.64,29c2.45-.32,3.08-2.45,5.14-3.16-.5,2.78-3.73,2.85-5.14,4.74C43.8,31.33,45.53,29.92,44.64,29Z"/><path d="M86.9,27.45c2.18.19,4.76,3.4,5.14,6.72,1.15-2-.5-4.5-1.58-5.53.73-.46,1.34.73,2.37-.4A27.3,27.3,0,0,1,95.2,33c-.65.67-1.65,1-1.58,2.37H91.25c-.76,1.34-1.31,2.91-2.37,4-.79-1.22.63-1.56.79-2.77.46-3.54-1.86-6-4-7.9,2.82.87,3.91,3.47,5.14,5.92C91.69,31.61,89.21,28.57,86.9,27.45Zm6.72,4.74c0-1-.08-2-1.19-2C92.25,31.45,92.93,31.83,93.62,32.19Z"/><path d="M84.93,33c.66-1.89,1.86,1.93,2,3.16C85.34,36,86.87,32.75,84.93,33Z"/><path d="M82.16,33c2-.83,2.76,3,4.35,4-.27,2.5-2,3.52-2.76,5.53C84.37,40.17,86.12,34.27,82.16,33Z"/><path d="M78.61,33.37c.39-1.31.78.44,1.18.4C79.57,34.91,79.18,33.16,78.61,33.37Z"/><path d="M113.37,34.16c1.17-.89,2,2,3.55,2C115.57,37.21,114.23,34.9,113.37,34.16Z"/><path d="M77,36.93c.91-1,1.53,1.61,2.37,2C78.67,39.73,78.2,37,77,36.93Z"/><path d="M83.35,37.32c1.19,1.21-.31,3.09-.4,4.35-1.85-2.12-1.62,2.23-4,2,.83-1.28,2-2.21,1.58-4.74.32.27,1.08.61,1.19,0,.54.12.33,1,.39,1.58C83.34,40.21,83.49,38.91,83.35,37.32Z"/><path d="M92,44.83c.46.59,1.14,1,1.18,2-.37-.24-1.46-.92-1.18.4C91,46.83,92.59,46,92,44.83Z"/><path d="M39.5,92.23c-.33,1.25-2,1.12-2.37,2.37C36.46,93.9,37.91,92,39.5,92.23Z"/><path d="M39.9,104.87c0-.38-.48-.31-.79-.39a7,7,0,0,1,3.16-1.58c-.24,1.34-1.75,1.41-2.37,2.37C39.45,105.19,39.68,104.87,39.9,104.87Z"/><path d="M130.35,104.47c-1-.79,1.58.12,2,.39C131.85,106.07,130.82,104.59,130.35,104.47Z"/><path d="M46.22,122.25s0-.38,0-.4C49,120.92,44.05,123.79,46.22,122.25Z"/><path d="M94.41,168.46C93.82,169.7,94,172.1,94,174c-2.89,1.29-4.48-1.37-6.32-2.37-1.53.44-1.82,2.13-3.56,2.37-2.11,0-2.11-2.1-3.56-2.77-4.12-.63-4.93,4.61-9.48,1.58-1.29-.86-.46-2.1-2.37-3.55-1.54,1-2.39,2.25-4,2-2.9-.51-1.66-4.55-4-5.92-2.83-.2-3.56,1.71-6.71,1.18-1.53-2.38,0-4.53.79-6.71-.77-1.84-3.21-1.4-4.74-1.58-1.35-2.35-.42-5.91,2.37-6.32.08-1.4-1.85-.78-1.58-2.37.48-2.59,2.74-4.92,5.53-4-1.14,1.63-4.27,1.26-4.74,3.56.59,1.14,3.94,1.57,2.76,3.16-.9,1.73-4.57.69-3.95,3.95,1.67.93,4.61,1.91,5.53,2.37.64,3.14-1.88,3.12-2,5.53-.29,1.08.78.79.79,1.58,3.13-.78,6.38-2,8.69.4-.06,1.65-.14,3.3.79,3.95,2.15-.09,3-1.49,5.14-1.58,1.75.75,1.41,3.6,3.16,4.35,4.08.4,4-3.41,8.69-2.37.76.82,1.25,1.91,2,2.76,2.26.29,1.5-2.45,3.56-2.37,2.64-.27,2.74,2,4.74,2.37q1.37-2.39,2.76-4.74Z"/><path d="M105.47,89.86C104.4,91,107.05,91.68,107,93c-2.6-.14-2.84-4.51-7.11-4.74-1.39-.07-1.65,1.14-3.16.39,1.33-1.17,3.76-1.24,5.93-1.58,3.34,3.29,9.2.13,12.25,0-.31.87-1.86.51-2,1.58,1.26.4,3.48-.09,5.14.79-1.24,1.63-3.78,2.31-5.93,2.76-1.35.29-3.28,0-4.74.4C107,91.47,106.62,90.29,105.47,89.86Z"/></svg>