<?xml version="1.0" encoding="UTF-8"?>
<svg viewBox="0 0 990 765" xmlns="http://www.w3.org/2000/svg">
 <path d="m501.04 395.46c40.116-55.305 48.782-95.726 62.369-91.858 10.62 3.0236 5.5161 12.113 33.582 18.526 26.948 6.1574 54.481-15.967 60.201-42.659 7.619-26.163-4.7303-59.047-32.358-67.165-27.341-9.895-59.929 6.1886-69.658 33.419-14.096 31.13-21.324 72.244-66.88 107.53l-34.967 27.086-121.01 170.84c-13.53 22.088-21.654 51.472-4.1117 79.445l172.83-235.17zm129.82-103.12c-23.306 23.25-64.534 9.0706-64.463-21.965-1.6504-28.554 33.055-54.558 58.852-38.26 21.721 11.428 21.565 44.309 5.611 60.225z" stroke="#000" stroke-width="7.5406"/>
 <path d="m439.23 396.97c-39.993-55.395-48.569-95.834-62.164-91.996-10.627 3-5.5431 12.1-33.624 18.451-26.962 6.0974-54.445-16.088-60.106-42.794-7.5602-26.179 4.8623-59.036 32.508-67.092 27.363-9.8341 59.916 6.322 69.583 33.574 14.026 31.161 21.163 72.292 66.641 107.68l34.907 27.164 120.63 171.11c13.481 22.118 21.54 51.52 3.935 79.454l-172.31-235.55zm-129.59-103.41c23.254 23.302 64.513 9.2144 64.512-21.821 1.7144-28.55-32.933-54.632-58.766-38.391-21.746 11.38-21.664 44.261-5.7452 60.212z" stroke="#000" stroke-width="7.5406"/>
</svg>
