<svg xmlns="http://www.w3.org/2000/svg" viewBox="0 0 612 792"><title>3546</title><path d="M255,38c-19.1-7.6-28.13,10.84-39,18-2.47,7.21-12.4,12.26-11,20-9.91,6.42-10.65,22-17,32-3.62-2.64,1.29-10.4,3-15,5.44-14.6,13.37-30.53,24-40-.41-2.41,1.83-2.17,1-5,5.46-2.21,10.2-5.14,13-10C236,33.24,253.72,27,255,38Z"/><path d="M368,67c-5,5.84-11.6,8.06-16,16-.76,1.37-.44,3.09-1,4-2.61,4.22-7.39,19-8,25s1.54,12.43-1,18c.24,3,3.72-4,5,0-1.32,3.35-4.28,5.05-9,5,2.11-4.23,2.26-10.4,3-16-6,.69-4,9.31-9,11,.06-7.61,2.93-12.4,8-15,2.77-20.9,8.67-38.66,22-49C363.76,66.57,367.88,64.79,368,67Z"/><path d="M365,74c.89.44,1.79.88,2,2-11.61,11.25-17.51,31.76-17,52-3.25-3.79-2.48-10.89-2-16C349.31,98,356.63,80.1,365,74Z"/><path d="M397,82c4.57-.87,4,7.89-1,6C393.8,85.9,395.79,83.55,397,82Z"/><path d="M225,90c-1.49-1.18-4.47-.86-4-4C224.41,83.54,227.69,86.82,225,90Z"/><path d="M426,88v5c-3.94.61-4.43-2.24-5-5C422.91,86.12,422.81,88.59,426,88Z"/><path d="M447,88c-.13,1.79,1.22,2.11,1,4-1.5,1.38-5.74-.14-6-3A6.51,6.51,0,0,1,447,88Z"/><path d="M221,96a3.85,3.85,0,0,1,4,6C220.75,102.92,220.73,99.6,221,96Z"/><path d="M394,96c-.13,1.79,1.23,2.11,1,4-2,0-1.27,2.73-4,2C388.3,100.16,388.45,94.83,394,96Z"/><path d="M444,96c-3.55,6.79-11.23,9.44-14,17,4.79,4.47,1.35,9.07,1,16-13.56.38-3.25-13.62-4-21C432.1,103.44,434.78,96.44,444,96Z"/><path d="M456,105c-2.2,2.08-4.3-1.58-8-1-6,2.38-8.86,7.8-15,10-.7-6.61,10.54-15.71,17-15C452.59,99.29,457.43,100.28,456,105Z"/><path d="M420,101v6c-4,.31-5.41-1.92-5-6C418.08,100.3,416.92,100.3,420,101Z"/><path d="M392,104c.52,3.78,1.4,4.69-1,7a7.05,7.05,0,0,1-4-6A6.5,6.5,0,0,1,392,104Z"/><path d="M226,112c-1.43,1.53-5.21,1-5-2C222.49,108.41,226.7,108.54,226,112Z"/><path d="M413,110c4.17,0,4.5,3.89,3,7C411.49,117,410.1,111.95,413,110Z"/><path d="M386,117c2.09-.42,2.65.69,4,1,.11,4.17-2,5.45-5,4A6.5,6.5,0,0,1,386,117Z"/><path d="M224,118c4.65-.89,5.13,5.3,0,4Z"/><path d="M308,122a2.76,2.76,0,0,1,2,3c-1.61.28-1.72-.94-3-1C307.19,123.19,308,123,308,122Z"/><path d="M410,125c4.78-1.18,7,3.47,5,6C411,131.31,409.59,129.08,410,125Z"/><path d="M387,127c3.46-.7,3.59,3.51,2,5C385.54,132.7,385.41,128.49,387,127Z"/><path d="M375,137c1.16-.16,1.78.22,2,1,.45,5.19-.61,10.37,0,15,1.82,13.81,8,24.92,16,32C377.06,179.58,373,157,375,137Z"/><path d="M500,140h8c-.22,4.11-.16,8.51-3,10C500.38,149.62,501.06,143.94,500,140Z"/><path d="M481,145c1.74.9,3.85,2.24,2,4C479.89,149.47,479.43,146.49,481,145Z"/><path d="M287,152c4.53,2,9.32-2.16,10,4-3.18,1.84-7.79,0-10,0Z"/><path d="M271,153h2v2h-2Z"/><path d="M128,156c1.62-.28,1.72.95,3,1-.19.81-1,1-1,2h-2Z"/><path d="M277,193c-2.68,2.69-3.8-1.27-6-2-12.76,7.9-17.84,23.49-30,32-.55,1.45,1.17,5.17-1,5-.38,3.38,4.43,1.57,3,6-4.83.49-5.43-3.23-8-5,11-15.33,23-29.68,35-44C274.82,185.18,276.58,188.42,277,193Z"/><path d="M563,191h2v2h-2Z"/><path d="M307,195c-1.49,1.59-5.7,1.46-5-2C303.49,191.41,307.7,191.54,307,195Z"/><path d="M312,195v4C307.35,199.9,306.87,193.7,312,195Z"/><path d="M270,196a6.51,6.51,0,0,1,5,1c-1.64,6.07-.27,10.9-5,15,1.39.61.15,3.85,2,4,.08,3.75-7.08.25-7,4-1.58-2.29.76-3.73-4-2-.31-2.34-2-4.13,0-6,3.21-.88,2.07,2.59,4,3,2.74,0,2.38-4.72,1-6-3.08,0-7.08,2.93-7-2,3.43-2.15,4.35,2.42,9,0C270.82,204.37,271.26,200.29,270,196Z"/><path d="M303,200c-1.68,1.7-5.87.8-5-3C300.89,195.76,302.56,196.49,303,200Z"/><path d="M320,200c-.71,3.6-4.69,1.41-6,0C314.71,196.4,318.69,198.59,320,200Z"/><path d="M564,202c-2.61.28-4.3-.37-4-3C561.38,197.52,564.76,198.48,564,202Z"/><path d="M308,200c1.79-.13,2.11,1.22,4,1q.7,4.7-4,4A3.74,3.74,0,0,1,308,200Z"/><path d="M268,202c.42,2.09-.69,2.65-1,4q-3.82-.18-4-4A3.74,3.74,0,0,1,268,202Z"/><path d="M396,201h3c.45,2.29,3.53,7.05,1,9-4.09,1.09.14-6.13-5-4A6.5,6.5,0,0,1,396,201Z"/><path d="M556,201a5.46,5.46,0,0,1,5,5c-5.21-2-6-1.84-10,1-.44-.89-.88-1.79-2-2C549.31,201.65,555.32,204,556,201Z"/><path d="M324,202h3v4C323.66,207,323.72,204.61,324,202Z"/><path d="M394,209c-1.61-.28-1.72.95-3,1-2.65-.35-3.37-2.62-4-5C389.8,202.7,395,204.45,394,209Z"/><path d="M315,205a6.51,6.51,0,0,1,5,1C319.91,209,314,208.68,315,205Z"/><path d="M542,205h4q.7,4.7-4,4Z"/><path d="M532,206q3.82.18,4,4a5.61,5.61,0,0,1-4,1A3.74,3.74,0,0,1,532,206Z"/><path d="M324,209h4v4Q323.3,213.69,324,209Z"/><path d="M420,250c-9,.72-7-9.68-12-13-4.58,11.6,20.43,20.11,14,39-6.73-2.65-6.31-11.24-9-17-3.43-7.34-8.74-13.85-14-20a4.71,4.71,0,0,0,1-3c-.29-2-2.71-2-3-4-3.64,1.71-8.23,0-8-5,9.13-3.94,8.26,10.27,19,8-1.43-5.23-1.95-11.39-8-12-3.42-.75-1.27,4.06-5,3-3.38-5.07,3-7.74,6-7-.77-6.79-10.33,1.06-12-4-.81.19-1,1-2,1-2.17,6.17,6.26,1.74,6,6-3.29,2.56-6.36-1.78-10-2,.9-3.16,3-4.39,1-8,3.65-2.06,4.49.45,7,2,3.84-3.66,7.79-1,12-4,1.31.35,1.57,1.76,3,2-2,13.05,6.66,20.4,9,32C416.8,245.87,420.94,245.4,420,250Zm-1,15c.28-2.28-.24-3.76-2-4C416.72,263.28,417.24,264.76,419,265Z"/><path d="M514,214c-1.43,1.53-5.21,1-5-2C510.49,210.41,514.7,210.54,514,214Z"/><path d="M550,215c-1.28,1.37-4.72,1.37-6,0-.9,5.94.87,8.34-1,13-2.08-.59-3.23-2.1-5-3,2-3.82.2-7.65,0-12C542.6,213.08,548.42,208.18,550,215Z"/><path d="M255,212c1.31.35,1.57,1.76,3,2-.25,3.75-2.41,5.59-3,9a4.71,4.71,0,0,0-3-1C252.65,218.31,254.26,215.6,255,212Z"/><path d="M533,212c1,4.71,2.62,8.72,3,14-9.23.65-3.22-8-8-12C529.91,213.57,529.81,211.14,533,212Z"/><path d="M330,213h5C336,217,329,217,330,213Z"/><path d="M323,215c2.64-.3,3.28,1.38,3,4h-4C321.58,216.91,322.69,216.35,323,215Z"/><path d="M332,219c.42,2.09-.69,2.65-1,4-.93-1.07-3.69-.31-3-3A5.58,5.58,0,0,1,332,219Z"/><path d="M255,226c-2,4.8-4.77,2.7-10,4a3.73,3.73,0,0,1,0-5C249.79,229.72,250.83,221.23,255,226Z"/><path d="M556,225c2.16,5.82-6.34,6.94-5,1A6.5,6.5,0,0,1,556,225Z"/><path d="M403,226c.28,2.62-.36,4.3-3,4a4.71,4.71,0,0,1-1-3A5.58,5.58,0,0,1,403,226Z"/><path d="M246,231c1.62-.28,1.72.95,3,1-2.79,3,1.19,7-5,7C243.67,235.34,245.11,233.44,246,231Z"/><path d="M293,236c-3.85,9.48-17.06,13.82-9,25,.86,1.2,2.11,4.39,3,5,4.87,3.35,17.83,4.67,26,5,3.11.12,8.31-3.72,10,1-6.77,3.33-17.86,3.37-26,2-10.64-1.79-19.77-9.06-20-19C276.84,248,283,234.32,293,236Z"/><path d="M436,241c-2.73.73-2-2-4-2C432.06,232.25,440.16,236.18,436,241Z"/><path d="M241,236c-.08,3.25-1.28,5.39-4,6C234.75,239.46,237.55,235.9,241,236Z"/><path d="M250,236h3c.28,2.62-.37,4.3-3,4Z"/><path d="M245,241h3c.42,2.09-.69,2.65-1,4C245.24,244.76,244.72,243.28,245,241Z"/><path d="M432,245c5.34,4,9.66,9,14,14C437.17,258.5,433.44,252.89,432,245Z"/><path d="M173,247h3v3h-3Z"/><path d="M556,247h2v2h-2Z"/><path d="M418,252h3v4C418.36,256.3,417.72,254.62,418,252Z"/><path d="M253,253c.93,1.07,3.69.31,3,3Q252.1,256.9,253,253Z"/><path d="M430,253c.81.19,1,1,2,1-.19.81-1,1-1,2-.81-.19-1-1-2-1C429.19,254.19,430,254,430,253Z"/><path d="M330,257c4,0,4.11,3.89,5,7-3.24,1.76-5.18,9-10,6C328.8,265.67,327.93,261.84,330,257Z"/><path d="M388,266c-3.77-.23-5.4-2.6-5-7C388.15,257.7,390.52,262.75,388,266Z"/><path d="M246,260h4C250.79,263.85,245.21,263.85,246,260Z"/><path d="M143,265c.55,3.79,3.25,5.41,3,10,2.21.92,4.48,4.4,2,7-4.55-3.78-6.7-10-9-16A5.58,5.58,0,0,1,143,265Z"/><path d="M241,266h2c-.18.85.39.94,1,1v2c-.85-.18-.94.39-1,1h-2c.18-.85-.39-.94-1-1v-2C240.85,267.18,240.94,266.61,241,266Z"/><path d="M388,266c2.46-.13,4.82-.15,6,1,.13,2.46.15,4.82-1,6C389.67,272.33,387.57,270.43,388,266Z"/><path d="M253,271c-3.2-.14-7.65,1-7-3C248.05,266.24,252.6,268,253,271Z"/><path d="M245,274c.86,3.19-1.57,3.09-2,5C240.7,278.22,242,272.81,245,274Z"/><path d="M395,274h5c-.69,4,1,5.71,1,9,5.84-1.51,5.8,2.87,8,5-3.27,2.73-4.35,7.65-9,9-2.67-4.46,3.24-7.76,4-12-2.36.76-6.91,2-9,0C397.39,279.78,395.64,279.69,395,274Z"/><path d="M239,276c.28,2.61-.37,4.3-3,4a4.71,4.71,0,0,1-1-3A5.58,5.58,0,0,1,239,276Z"/><path d="M318,279c3.26-.26,4.81,1.19,5,4-2.46.13-4.82.15-6-1A4.71,4.71,0,0,0,318,279Z"/><path d="M325,280h3a6.51,6.51,0,0,1,1,5c-3.08.7-1.92.7-5,0A6.5,6.5,0,0,1,325,280Z"/><path d="M150,283h3c1.85,2,1.49,7.36-3,6C149.1,286.07,149.1,285.93,150,283Z"/><path d="M331,285a31.31,31.31,0,0,1,12,4c-2.75,6.56-5.6-1.61-12,0Z"/><path d="M392,286c2.4.93,2.65,4,7,3,1.06,4.54-9.7,4-10,1C388.12,286.79,392.3,288.63,392,286Z"/><path d="M156,289c3.73-.4,5.87.8,6,4-.89.44-1.79.88-2,2C156.8,294.87,155.6,292.73,156,289Z"/><path d="M401,302c-4.85-2.85-14.09-1.67-15,5-2.63.3-.79-3.88-4-3-4.7,1.63-7.22,5.45-10,9-4.33-1.45,1.05-2.23,0-6-4.3-.3-3.91,4.09-7,5-7-.28-13.92.39-18,4-5.32,4.71-4.53,14.58-11,19-.3-7.11,6.29-15.61,11-21-9.34,3.32-16.46,15-13,25-11.62-3.93,2.22-17.68,5-23-5.07.59-5.11,6.23-9,8-2.83.83-2.59-1.41-5-1-4.49.2-5.26,5.26-8,8-1.47,1.48-3.69,1.44-5,3-5.83,7-6.63,15.51-11,24-4.36-.83-4.69-14.66-3-22,2.87-12.42,22.48-25.2,36-28,9.45-2,20.22.92,29-2,8.63-2.86,11.37-14.65,26-13,2.54.29,2.08,2.08,4,3C395.63,297.27,401.63,296.31,401,302Zm-31,3c3.77.77,4.78-1.22,8-1,1.46-5.54,10.17-3.83,12-9C379.68,294.68,372.48,297.48,370,305Zm-10,5c2.28.28,3.76-.24,4-2C361.72,307.72,360.24,308.24,360,310Zm-19-1c-19.52,5.48-37.55,12.45-40,35,4-3.71,6.2-9.13,9-14,9.86-7.47,20.2-14.47,33-19C342.89,309.78,342.7,308.63,341,309Zm-13,12c2.54,1.06,5.7-2.11,3-3C330.89,319.89,327.69,318.69,328,321Z"/><path d="M409,293c7.37,3,7.32,13.35,13,18-3.69,14.31-11.38,24.62-21,33,11.27-6.4,19.44-15.89,22-31,4.66-.74,9.49,6.33,13,10,.7,6.91-3,16.22-7,24-2.64,5.08-5.43,12.8-11,13,5.26-12.41,14.81-20.52,15-38-5.38,3.61-2.81,11.46-6,17-2.71,4.7-12.43,14.67-19,11,4.07-6.27,9.81-10.85,12-19-9.14,7-16.31,20.85-31,19-.19-4.72,5.52-5.26,8-7,4.49-3.16,8.08-6.62,12-10,1.45-7.55,8.15-9.85,9-18-21.35,5.65-39.07,14.93-52,29,.43-4.75,4.78-9.22,8-12,10.53-9.07,26.81-14.86,43-20-27.66-.41-49.87,21.28-67,38,11.85-23.15,37.24-32.76,62-43-1.42-1.68-5.42,1.27-7-2C406.14,299.74,414.22,299.08,409,293Zm5,55c5.76-4,12.42-13.07,14-21,.17-.83,2.73-5.93-1-6C424.65,331.32,416.32,341,414,348Zm6-19c2.65-.09,5.19-5.38,3-7C422.17,324.5,420.26,325.93,420,329Z"/><path d="M156,304c3.13-.46,3.2,2.14,3,5C154.95,310.12,154.06,305.93,156,304Z"/><path d="M174,308c-1.16-.16-1.78.22-2,1-2.31.31-1.11-2.89-3-3C169.43,302.6,175.52,303.67,174,308Z"/><path d="M433,316c22.18-8.86,22.12,26.49,6,28,2.28-9.18,11.18-18.32,3-27-2.92,1.42,1.26,9.93-3,10C435.4,324.48,439.49,317.16,433,316Zm12,22c.52-3.84,6.42-7.54,3-12C448,330.33,443.21,335.16,445,338Z"/><path d="M513,321c6.34,4.66,6.87,15.13,13,20,4.2,1.71,6.84-1,9,2-2,6.36-8.89,1.41-11,0-5.35-3.55-8.53-13.71-11-18Z"/><path d="M361,323c-.07,2.69-2.29,4.81-4,3C357.87,324.54,358.5,322.83,361,323Z"/><path d="M71,326q4.7-.7,4,4C71.65,330.69,71.34,328.32,71,326Z"/><path d="M580,327v4a4.71,4.71,0,0,0-3-1v-2A4.71,4.71,0,0,1,580,327Z"/><path d="M534,328h3c1.39,3,4.34,8.42,2,12h-4C534.14,336.73,532.36,330.62,534,328Z"/><path d="M291,333h3c-2.85,19.18-24.87,27.78-29,49,5.42.42,6.17-3.83,8-7,3.4,1.26,3.64,5.69,4,10-7,3.58-11.85,3.33-19,6,.26-3.74,2.32-5.68,4-8C263,357.63,284.13,352.47,291,333Z"/><path d="M74,336c.42,2.09-.69,2.65-1,4q-3.82-.18-4-4A3.74,3.74,0,0,1,74,336Z"/><path d="M560,339c4.42-.09,2.78,5.89,7,6q-.18,3.82-4,4c-.64-3-1.56-5.77-5-6C557.27,340.27,560,341,560,339Z"/><path d="M555,345a3.61,3.61,0,0,1-6-3C551,340.14,556.36,340.51,555,345Z"/><path d="M69,342c2.37.55,4.15,3.87,2,6C66.76,347.9,66.35,344,69,342Z"/><path d="M554,347h3c1.15,3.15-1.57,2.43-2,4C553.64,350.69,554.17,348.5,554,347Z"/><path d="M535,348c3.09-.17,4.5,3.52,3,5C535,353.07,532.93,350.06,535,348Z"/><path d="M568,352c-.28-2.61.36-4.3,3-4C572,350.81,572.14,352.26,568,352Z"/><path d="M544,349c2.09-.42,2.65.69,4,1,.42,2.09-.69,2.65-1,4C543.88,354.46,543.8,351.86,544,349Z"/><path d="M533,357c-2.86.2-5.46.13-5-3C529.93,352.06,534.12,352.95,533,357Z"/><path d="M71,358c-2,0-1.27,2.73-4,2-.44-.89-.88-1.79-2-2C64.81,353.1,71.19,353.1,71,358Z"/><path d="M539,358c-.09,3-6,2.67-5-1C535.77,355.14,536.92,357.44,539,358Z"/><path d="M384,359c2.35,3.93-4.07,6.6-8,9-8.33,5.09-18.45,11.12-31,14a35.22,35.22,0,0,1-13,0c1.85,3.21,6.15,3,9,3,11.24,0,30-8.27,38-13,4-2.34,6.79-6.69,11-7-4.48,12.85-22.71,12-32,20-3,.31-7.78-1.11-8,2,8.41.34,21.63-1.85,30-6,6.14-3,10-9.68,17-10-11,16.7-47.2,25.11-69,13-2.69.4-11.55,1.79-12-3,24.14-1,52.77-4.88,64-22Z"/><path d="M41,364c-.78,9.31.16,26.16-2,37-.43,2.17-.48,6.05-4,6C35.28,394.78,37.55,376.34,41,364Z"/><path d="M64,366c2.09-.42,2.65.69,4,1,.26,3.26-1.19,4.81-4,5C62.63,370.72,62.63,367.28,64,366Z"/><path d="M173,366c.89.44,1.79.88,2,2-1.44,7.77-2.93,14.85-2,22,1.57,12,13.15,26.61,23,34,2.88,2.16,7,4.54,12,4-7.88-2.81-13-7.76-19-14-3.74-3.88-7.66-11.55-10-19-1.63-5.18-6.51-14.62,0-18,1.16,22.69,10.81,49.4,38,46,.2,5.86-8.08,3.25-8,9C184.22,427.68,161.29,395.33,173,366Z"/><path d="M47,373c-3.81,5.59,2.41,5.7,0,11-5.4.07-3.6-7.07-5-11A3.74,3.74,0,0,1,47,373Z"/><path d="M552,378c-1.62,1.38-1.24,4.76-5,4C547.8,379.8,549,378,552,378Z"/><path d="M66,382c-.19,2.81-1.74,4.26-5,4a5.61,5.61,0,0,1-1-4C61.28,380.63,64.72,380.63,66,382Z"/><path d="M547,385v2C542.12,388,545.15,381.68,547,385Z"/><path d="M46,385h3c2.77,1.77-.33,4.93,0,6,.82,2.62,5.28,2.85,2,7,1.89,1.78,4.43,2.91,4,7-1.42-.09-2.83-.17-3,1C48.45,401.08,45,391.19,46,385Z"/><path d="M538,386c3.23.37,7.6,2.9,5,6C540.57,390.76,537.7,390,538,386Z"/><path d="M61,390q3.82.18,4,4a5.61,5.61,0,0,1-4,1A3.73,3.73,0,0,1,61,390Z"/><path d="M83,391c1.76.24,2.28,1.72,2,4C81.89,395.47,81.43,392.49,83,391Z"/><path d="M192,395c1.16-.16,1.78.22,2,1,2.79,11.48,15.1,21.64,28,14C216.06,427.77,189.49,406.68,192,395Z"/><path d="M83,397h3v5C82.88,402.46,82.8,399.86,83,397Z"/><path d="M84,405q4.7-.7,4,4Q83.3,409.69,84,405Z"/><path d="M53,408c5.54-1.17,5.43,3.9,4,7C53.17,414.46,51.57,411.1,53,408Z"/><path d="M87,411c3-1,1.77,2.23,2,4H86C85.58,412.91,86.69,412.35,87,411Z"/><path d="M63,416c.13,1.79-1.22,2.11-1,4-3.73,1.06-3.23-2.11-5-3C57.85,415.08,61.39,414.29,63,416Z"/><path d="M88,417h2c-.18.85.39.94,1,1v2c-.85-.18-.94.39-1,1H88c.18-.85-.39-.94-1-1v-2C87.85,418.18,87.94,417.61,88,417Z"/><path d="M47,418c2.32.28,2.3,2.67,1,4C45.68,421.72,45.7,419.33,47,418Z"/><path d="M334,454c2.1-2.2,4.45-.21,6,1,7.12-4.56,10.67-10.88,23-8,2.63.3.79-3.88,4-3,1.33,8,11.43,4,16,2,1.31,4.31-2.84,3.16-4,5,3.66,3.27,5.26-4,10-3,1,4.31-3.76,2.91-4,6,4.74-.26,5.13-4.87,11-4-.35,3.6-1.53,4.82,0,8-3.21.88-1.37-3.3-4-3-2,3.63.55,4.39,5,4,1.36-.31.83-2.5,1-4,3.87-.54,4.12,2.55,7,3-1.22,3.12-2.7,6-8,5-2,.63-.28,5.05-4,4,.85-3.19-.87-3.8-2-5-2.65,12-16.33,15.34-27,14-4.32.68-4.11,5.89-10,5v-4c-5.68.58-10.82,3.13-15,0C338.67,468.32,329.22,464.59,334,454Zm18-5c-2.86,4.86-14.64,7.84-10,14,3.48-1.85,4.06-6.6,7-9,8.45-2,13.51-3,23-1C369.07,447.93,359.76,449.24,352,449Zm11,9c-4.75-5.15-15.32,1.75-16,7s2.63,6.24,6,10c2.46-1.18-2-3.78,1-5,3.74-1.45,8.17,1.59,13,2C367.11,465.89,362.43,464.57,363,458Zm11,12c5.86-1.8,12.07-3.27,13-10-5.8-2.57-6.19,3-11,4-3-1.28-2.68-6-7-6h-3C366.16,464.51,370.7,466.63,374,470Zm-34-2h2v-4h-2Z"/><path d="M68,453c1.16-.16,1.78.22,2,1-7.29,8.16-7.59,35.52,9,27,.26,3.33,3.63,6.87,1,10-3,0-1.28-4.72-3-6-3.16-.49-3.53,1.8-7,1C59.62,480.81,60.82,460.72,68,453Z"/><path d="M298,466c-21.49,1.62-40.38,6.19-56,14-.79-4.3,5.26-10.22,10-13s15.93-7.5,24-8C283.54,458.54,296.3,459.22,298,466Z"/><path d="M153,483c5.55,10.45-14.47,18.15-18,8,3.51.49,6.51,1.49,11,1C150.05,490.72,150.05,485.38,153,483Z"/><path d="M239,521h3v3Q238.73,524.27,239,521Z"/><path d="M359,533c4.15.27,3.9-1.31,7,0-.36,10.61-14.4,10-21,9v-3c.43-3.57,4.51-3.49,7-5-5.12-2.75-8.67,4.64-14,5,2.19,2.14,3.81,4.85,3,10-2.54,2.46-9.3,2.6-13,1-.76-4.76,2.52-5.48,4-8,0-3-5-1-5-4,1.39-5.53,9.09-4.33,14-6,3.45-1.17,8-4.82,15-4C357.12,529.55,359.25,530.08,359,533Z"/><path d="M459,543c-1.49,1.59-5.7,1.46-5-2C455.49,539.41,459.7,539.54,459,543Z"/><path d="M381,557v6c-9.61,1.75-10.83,7.27-21,7-.76,1.57-3.17,1.49-3,4h-8c-.83,2.83,1.41,2.59,1,5,8.6.13,15.44-6.37,22-5,.78,4.78-2.09,5.91-6,6,0,4-.29,7.71-3,9-8.39-3.28-17-6.35-21-14-3.74-1.07-2.85,2.48-6,2a5.46,5.46,0,0,1-5-5c3.76-10.58,21.14-7.53,27-16,1.33,1.67,5.67.33,7,2C368.22,551.27,375.13,553.87,381,557Zm-23,4c-1,8.34-13.55,2-14,9,6.27,1.08,15.69-2.83,20-7C363.08,561.25,360.87,560.79,358,561Z"/><path d="M460,602c2.73-.73,2,2,4,2a6.51,6.51,0,0,0-1,5c-4.2-.21-4.2,3.8-8,4C456.69,609.36,457.65,605,460,602Z"/><path d="M448,646c-6.23,5.07-11.58-5.89-5-8C446.23,639.1,448.48,641.18,448,646Z"/><path d="M399,649c2.88.12,6.55-.55,8,1v5C402.49,659,395.55,655.2,399,649Z"/><path d="M264,665c-7.57,4.09-15.56.48-22-2-6.42,1-14.2,16-20,5,8.17-9.68,21.19-16.14,35-9C260,660.55,264.44,660.65,264,665Z"/><path d="M356,657c4.58.42,5.29,4.71,8,7,13.54,4.41,30.7-.1,41-1,1.08,5-10.55,7.6-14,8-8.88,1-19.31-2.59-27-3-.6,1.18,1,8.42-5,7-1.56-2.06.44-7,3-8C359.26,664.4,355.39,662.94,356,657Z"/><path d="M399,676c.16,6.49-6.49,6.17-12,7-.3,2.64,1.39,3.28,4,3,.68,5.1-8,4.76-11,3-1.23-4.56,3.51-3.16,4-6-3.78-.59-12.67-1-15-6C377.67,675.92,389.61,680,399,676Z"/><path d="M424,693c-2.46,3.45-7.79,1.37-9-2C414.58,682.7,424.65,687.07,424,693Z"/><path d="M282,693c2.09-.42,2.65.69,4,1C285.88,696.84,281.74,695.92,282,693Z"/><path d="M331,694c-2.28,6.05-9.11,7.56-14,11-1.59,5-4.23,9.53-5,16-1.58,13.37,3.87,29.27,0,39-5.5-1.82-4.64-11.65-5-19-.7-14.46,1.3-30.49,7-39,6.09-1.58,9.52-5.81,14-9C329.62,692.72,329.72,693.94,331,694Z"/><path d="M215,703h-6c-1.11-1.89-1.28-4.72-2-7C212.89,691.86,217.67,696.61,215,703Z"/><path d="M261,694c.45,2.88,3.54,3.13,3,7-1.86,2.81-7.43,1.9-12,2-14.47,2.87-11.66,23-22,30-5.91-4.86.35-9.62,3-15C239,705.88,242.09,692.92,261,694Z"/><path d="M392,698c-2.73,2.65-8.46,1.77-9-3C386.24,693.54,391.91,693.53,392,698Z"/><path d="M390,705c-4.67,7.52-20.4,4-29,5,3.12-4.3-2.39-8.71,0-12C368.35,696.28,379.32,703.88,390,705Zm-14,2c-.82-2.89-8.93-3.68-11-2C368.79,705.55,371.25,707.42,376,707Z"/><path d="M336,701c2.32.28,2.3,2.67,1,4C335.38,704,334.7,702.33,336,701Z"/><path d="M206,704c.1,3.44.52,7.18-2,8-3.21-1.12-4.79-3.87-5-8C200.89,702,203.72,703.52,206,704Z"/><path d="M372,713c2.54,2.59,4.54,3.49,9,2,.87,6.2-3.45,7.22-9,7C371.52,718.42,370.37,716.22,372,713Z"/><path d="M547,733h2v2h-2Z"/><path d="M546,736c-1.7,5.37,3.44,3.89,7,4,1.61,2.8,5.82,6.94,3,11-4.95.61-6.4-2.27-10-3-1.85.15-.61,3.39-2,4-5.74-1.26-10.2-3.8-11-10C536,738.71,538.88,735.22,546,736Zm-7,11c3.81-.19,6.58-1.42,7-5C542.45,738.06,536.16,742,539,747Z"/><path d="M394,756c0,4.62-2.84,6.49-8,6C380.7,755.61,390.18,751.85,394,756Z"/><path d="M344,765c-1.75,2.45-6,2.36-9,1C332.11,755,346,754.48,344,765Z"/><path d="M435,228c-.43-1.91-2.86-1.81-2-5a6.51,6.51,0,0,1,5-1c.07,6.29-3.57,6.26-3,11-2.87-.13-4.75-1.25-4-5Z"/><path d="M257,271c-.87,2.48-4.48,5.23-7,3A59,59,0,0,1,257,271Z"/><path d="M566,336a6.51,6.51,0,0,1,5,1c-3.56,5.08,1.34,2,1,8C567.78,344.22,567.42,339.58,566,336Z"/><path d="M355.38,639.54,348,638c2.24.46,4.78,1,7.38,1.54Z"/><path d="M594,715c-6.94-6.55-23.95-9.71-33-8-6.94-6.18-16.12-4.8-23-9-9.2-5.62-14.13-17.81-20-26-4.12-.78-5.13,1.53-9,1-6.84-10.49-17.63-17-26-26-3.1-7-1-22-3-34-1.29-7.75-4.57-13.18-5-18,2.63.72,3.79,5.92,7,3,.89-6.55-6-5.35-4-13,5.86-6.8,17.89-6.67,20-15,1.73-6.82-4.79-9.87-8-17,.65-3.68,5.95-2.72,9-4,3.09-2.25,4.84-5.83,11-5-.81-12.6,6.32-24.69,5-35-1-7.79-9.23-10-9-18,10.61-6.49,17.15-15.79,24-25,7-9.38,16.57-17.19,19-30,3,0,3.89-2.11,6-3,1-13.14,6.67-21.52,10.53-31.75a6.87,6.87,0,0,1,.28-4,11.13,11.13,0,0,1,.62-1.3,3,3,0,0,0-.43,0c3-9,6.91-17.08,7-29,4.19-3.52,8.73-8.19,11-15,2.84-8.52.86-20.79,10-24,.95-5.05,2.81-9.19,2-16-2.8-3.87-8.25-5.08-9-11,1.34-5.32,8.5-4.83,14-6,4-7.63-1.17-16.59-1-26,.08-4.51,2.61-8.78,3-13,1.08-11.64-2.2-19.4-6-25-4.42-1.44-7.28-.56-12,0-.51-4.63-3.34-8.67-4-14-1.53-12.38,3.41-27.14-1-37-1.53-3.41-6-6.59-9-10-6.27-.6-6.45,4.89-13,4,3.4-3.86,7.82-5.66,9-10,4.11-15.08-9.36-24.19-16-31-.08-4.67,2.11-4.82,1-10-5.63,1.87-8.17-5.95-11-10,.48-3.18,3.15-4.18,3-8-2.94-12.72-17-14.33-34-13-9.92-6.74-16.76-16.57-29-21-8.73,3.27-17.83,6.17-27,9-11.57-8.79-23.08-21.75-43-19-.92-5.08-4.57-7.43-4-14-8-5.23-11.49-16.59-20-24-6.89-6-24.18-14.49-34-16s-24.59-.79-31,6c.09,6.09,2.3,10.14-3,12-11.77-5.36-27.69-7.32-40-9-42.82-5.85-65,9.39-87,27-33.68,13.32-59.76,34.24-62,79-4.06,3.6-4.52,10.81-9,14-18.31-4.67-23.69,9.62-35,15-1.08,2.59-3.62,3.72-4,7-11.16,6.51-17.71,17.62-24,29-.78,11.56-6.48,18.19-7,30,5.37,4,7.66,11,8,20-1.29,1.38-4.34,1-7,1-13.68,18-29.16,34.18-30,65-1,2-4.42,1.58-4,5,.61,1.39,3.85.15,4,2,1.43,7.15.78,10.41,3,17-4.77,7.4-5.44,15.63-9,25-1.83,4.83-5,9.52-6,14s-.2,10.83-1,16c-1.5,9.67-4.14,15.35-2,26,2.45,12.18,7.51,25.55,9,39,1.69,15.21,6.29,21.58,12,33,1.92,3.84,2.27,8.23,4,11,1.48,2.37,5.61,5.24,8,8a87.38,87.38,0,0,0,21,18c5.17-.5,6.5,2.83,12,2-.1,9.43,10.61,8.05,10,18,11,5.39,21.25,20.53,39,17,4.09-.81,5.86-4.61,11-6,2.79-2.45,3-9.72,8-7,.12,4.57-1.67,5.46-2,9-1.77,19.16,18.75,21.71,19,43,7.45,10.08,27.71,14.29,37,4,1.18,1.48.87,4.47,4,4,11.55-.33,14.2-11.13,25-7,4.41-5.76,8.74-14.06,6-24,5.19-5.7,14.38-3.9,21-3,.34,3.67-5.74.93-4,6,.58,3.09,3.62,3.72,6,5,6.52-1.81,6.78-9.89,11-14,13.2-1,9.76,18-3,12-1.44,2.17.77,7.38,4,8,6.32.65,6.23-5.11,13-4,14.64,17.36,27.34,36.66,47,49,2.13,3.48,4.77,10.85,2,16-13.87-1.21-16.27,9.06-23,15-5-2.54-7.84,2.67-11,5-3.51-1.16-5.4-3.94-10-4-5.26,2.4-7.6,7.73-11,12-4.89-.23-6.29,3-11,3-8,10.38-29,7.66-37,18,6,2.1,14.8.15,22-2s14.35-7.81,20-10h8c3.62-.71,3.12-5.54,6-7-.47,3.11,2.51,3.57,4,2,.16-4.49-3.72-4.95-5-8,4.67-3.78,13.89,9.63,21,1-1.42,4.8,3.36,8.57,2,10-8.82,1.51-18.46,2.21-25,6-2.85,4.5-.51,8.11-1,14-.87,10.43-8.27,23-6,31,3.29,11.52,22.8,7.31,24-5,1.09-11.16-9.89-12.91-10-25,10.39-1.94,20.23-4.43,31-6,.87-5.87-3.74-6.26-4-11,4.1-1.9,6-6,9-9,6.74,1.92,6.27,11.06,12,14,.93-5.39-.53-8.21-3-13,4-4.34,1.41-15.26,9-16-2.18,3.19,2,9.63,1,13-.19.62-3.45-.57-3,1,.08.28,2.74-.23,3,0,1.87,1.7-.29,9.61,5,6,2.4-12.36-10.7-26.47-6-38a72.42,72.42,0,0,1,35,15c17.87-7.76,29.4-24.46,45-33a103.34,103.34,0,0,0,14-9c8.66-6.48,12.82-10.19,18-19,5-8.57,8-17.3,15-24-2,5,1.27,8.74,2,14,3,21.91-4.9,49.42,4,67-7.72,2.28-12.7,7.3-17,13-2.49-.15-3.1,1.57-5,2-3.35,8.32-15.63,7.71-18,17,9.11.18,14.55-8,22-13,1.74-1.16,4.17-.91,6-2,4-2.41,6.85-9,13-7-2.77,5.9-9.44,7.89-14,12-2.42,15.58-11.29,24.71-23,31,.17-2.5-1.54-3.13-3-4-7.54,4.38-14.38,10.68-22,15-5.35,3-11.8,3.94-17,7-10.24,6-16.61,16.92-28,21-7.33-7.34-6-23.38-13-31-14.17,1.84-14.17-10.5-23-14-.93,10.34,8.71,8.52,10,17,2,13-8.47,10.88-10,20-.56,3.37,2.14,15.23,5,16,6-2.31.36-10.11-1-14,4.92-5.74,10.67-10.67,11-21,4.41,1.92,6.8,5.87,7,12,4.57.77,4.8,5.87,6,10-2.92,1.08-3.51,4.49-3,9,3.8,3.69,8.58.2,15,1,3-1.38,4-4.62,7-6,16.37-8,28.45-20.21,45-28-8.91,6-3.91,17.46,0,26-2.52,7.48-13.21,6.79-15,15,2.41,2.28,5.8-.83,9-3,.94-.64,8-6,8-6,6-8.32-3-14.62-4-22,5.43-8.23,11.15-16.19,23-18,9.5-8.94,17.93-17.17,21-32,8.42-.91,10.31-8.35,14-14,4.8-.14,8.57.76,10,4-7.68-1-8,5.33-13,7,1.8,9.83-3.16,14.81-3,23-2.69-2.64-6.62-4-11-5-4.53,4.35-5,8.78-4,17-8.91,5.09-21.14,6.86-25,17,1.76,4.24,5.54,6.46,7,11-2.59,8.07-9.36,12-12,20a24.8,24.8,0,0,0,6,12c4.67.19,9.07.88,13,0,8.85-2,15.31-11.1,23-10-5.52,5.07-11.66,3.71-16,10-6,8.65.86,23.73-8,31-5.6-3.64-27.36-12.43-24,1,12.18-4.75,19.37,5.31,29,3,5.52-7,5.93-18,5-29,5.66-13.34,27.72-10.28,37-20a6.51,6.51,0,0,0-1-5c5.58-3.42,10.26-7.74,17-10,2.88-5.46,4.89-11.78,11-14-4,7.64-1.93,21.4-11,24,1.64,1.09,6.88,3.7,9,1-1.26-.68-.36-7.63,2-8-2,9.81,7.75,10.4,7,16,3.25-2.58,7.39,1.58,9-3,0-6.9-9.26-.61-10-8,5.46-3.2,9.68-7.66,11-15,3.78-.85,4.69,3.32,7,1,1.59-6.5-5.43-3.49-8-5s-1.75-4.19-4-5c-2.87-1.13-7.8-.2-10-2,1.31-6.28,6.4-9.45,12-12,11.44-5.21,17.83,13.14,29,11,3.79-1.21,5.89-4.11,9-6a55.8,55.8,0,0,0,20,2c3.1.57,2.63,4.7,6,5a46,46,0,0,0,13-1v-7c-5.56.11-12.13-.8-15,2ZM13,416c.46-10.94-2.68-24.3,1-35,2.09,3.14,1,11.67,0,15C14.74,400.5,17.11,413.24,13,416ZM484,575c-4-1.43,2.59-5.71,2-10C491.13,566.76,485,572.84,484,575Zm-15-25c-4.07.07-4.3-3.7-4-8,6-1.37,7.73-6.93,14-8C475.72,539.76,465.26,540.1,469,550Zm-54-81c7.89,6.17,21.13,5,30,8-.8,3.69-4.12.83-6,0C430,482.3,417.24,478.67,415,469Zm9,12c-1.55,2.75-6,.1-7-1C418.33,477.46,421.44,481.47,424,481Zm1-11c-13.28,1.12-21.39-25.44-10-35C405.6,449.73,416.74,461.84,425,470Zm-7-12c-4.89-.44-4.61-6.05-5-11C416.44,448.89,416.36,454.31,418,458Zm40-87c4.29,1.17,1.37,4.25,1,6-1.43,6.77-8.77,19-14,25-4.3,5-14.08,11.21-25,11-4.34-.08-8.33-.33-11-4C435.88,406.88,448,390,458,371Zm-19,12c1.78.73.14,1.82,0,3C437.22,385.27,438.86,384.18,439,383Zm70,11h5c-.85-2.15-4.39-1.61-6-3,.44-13.85-10.52-19.09-10-30-.31-1.36-2.5-.83-4-1,3-4.67-1.31-12.19,1-16,1.61-.28,1.72.95,3,1,4.12,6.77,11,13.94,14,22,1.53,4.11,4.47,14.79,5,19,.93,7.48,1,18-1,24-2.92,8.72-5,16.27-9,24a70.25,70.25,0,0,1-7,11c-2.4,3.27-4,5.5-7,9-1.86,2.19-3.23,5.21-4,6s-3.27.43-4,1c-1.91,1.48-3.86,5.25-6,8-4.54.8-7.74,2.93-14,2C490.62,456.59,508.33,430.16,509,394Zm-41,72c.31-3.36,3.35-4,6-5C473.38,464,471.78,466.11,468,466Zm8-141c7.06-.06,8.77,5.23,11,10C481.23,333.77,478.48,329.52,476,325Zm4,37c-1.47-.89.27-7,1-9C483.53,354.95,480.45,359.71,480,362Zm-7,4a81,81,0,0,0,4-19C482.51,349.8,477.47,363.67,473,366Zm8-53c-6.77,2.09-10.12,1.55-18,0-1.19-3-.27-3.4,1-6C466.87,316,476.27,306.94,481,313Zm-13-7c2.55.12,5.15.19,5,3C470.36,309,466.73,309.93,468,306Zm20-18c2.27-1.87,3.86,2.39,8,0-2.55,1.79-1.33,7.34-5,8-2.85-.82-5.08-2.26-6-5,2.44-2.54,2.13,2.11,6,1C493.19,291.32,489.1,288.68,488,288Zm6,11c1.29-3,3.88-4.79,6-7C504.76,293.34,497,305.41,494,299Zm10-1c3.73-.4,5.87.8,6,4-5.17-2.88-4.31,5.45-9,6a4.71,4.71,0,0,1-1-3C500.89,302.22,503.71,301.38,504,298Zm-6,8c-5.63,0-13.19-6.8-17-12C489.64,295,493.29,301,498,306Zm-4,19a75.65,75.65,0,0,1-18-25C485.81,304.53,491,313.72,494,325Zm-8-3c-5.7-1.64-12.69-2-16-6,3.87,1.77,9.94.94,14,0C483.74,318.93,486.26,319.07,486,322Zm-10-1c-.51,3.85-6.78,3.25-7-1C472.25,319.42,473.65,320.68,476,321Zm9,3c5.66,0,6.93,4.4,11,6C493.06,331.23,485.92,328.1,485,324Zm12,9c.93-3.91,4.72,1,6,2,6.69,5,17.72,14.06,19,25,20,24.05,8.89,70.16-4,94,.27-9.53,6.28-19.06,7-31,.85-14.1.95-31-2-45-1.07-5.08-5.34-9.78-7-15-.91-2.85-.1-5.61-1-8-3.44-9.19-10.83-17.42-18-21,7.75,9.73,14.56,16.71,17,30-4-5.33-7.41-11.26-11-17-5.54-4.12-12.4-6.94-13-16C493.3,330.12,495,335.9,497,333Zm-6,133c-4.95-.77-3.37,4.4-10,4,17-16.62,34.15-33.18,39-62C522.27,435.28,503.93,450.59,491,466Zm8,0c-2.31,2.14-7,3.06-9,4,3.84-4.16,9.53-6.47,12-12C504.42,457.85,501.09,464.07,499,466Zm-10,7c-3,6.12-12.38,6.09-20,5C473.88,472.36,481.84,476,489,473Zm29-97c2.55.11,2,3.35,2,6C518.34,381,518.91,377.75,518,376Zm0,60c.23,6.58-7,19.62-12,21C505.74,449.6,515.15,443.58,518,436Zm-24-71c4.4,3.69-1.78,9.77-2,15C489.8,376.09,494,370,494,365Zm5,30c-.88-6.11-5.21-12.44-2-22,1.61-.28,1.72.95,3,1,13.43,33.42-4.52,70.7-25,86C485.87,441.74,503,423.08,499,395Zm-49,72c-9,4-13.55,10.9-22,4,2-3.09,7.06-.13,11-1,5.11-1.12,8.11-4.86,11-7,9.49,1.49,11.58-4.42,16-8,1.17.16.84,1.82,1,3C463.74,462.32,457.16,463.8,450,467Zm12,0c-.35,3.32-5.76,1.57-9,2C454.72,467,458.18,466.84,462,467Zm-9-6c2.26-4.41,7.85-5.48,11-9C467.76,452.87,458.18,461.37,453,461Zm3-23c-.93-4.29-4.95-9.3-9-12,.74,5.42,9.83,10.72,8,22-10.83-2.17-20.25-5.75-23-16,6.67.13,19.54,4.67,18,13,5.9-8.92-8.37-18.2-19-14-1-1.33-.95-3.72-3-4,4.39-7.44,14.39-3.1,24-5,4.67,7.34,10.11,14.69,6,26C455.55,446.63,456.8,441.69,456,438Zm-6,13c-11,.62-17.13-3.54-19-12,4.22,1.78,7,5,10,8C443.78,448.55,449.46,447.21,450,451Zm2-51c0,5.66-5.7,14.29-13,16C440.4,411.72,450.07,407.08,452,400Zm-27,2c.16-1.54,6-6,10-7C432.42,398.09,428.88,400.21,425,402Zm-17,2c-1-1.33-.95-3.72-3-4,11.15-3.52,24.14-5.2,31-13C433.48,395.48,420.12,401.78,408,404Zm-2,0c.17,1.63-6.54,2-5-1A6.5,6.5,0,0,1,406,404Zm32,6c2.56,0,1.22.74,1,2-8.92,7.54-27.6,9.09-35-1C414.93,413.78,429.5,417.52,438,410Zm-2,6c.95,5.34-10.88,8.27-18,6C421,419.32,433,421.47,436,416Zm-9,14c4.62,1.91,1.09,6.07,2,12,1.77,7.56,11.11,7.56,15,13-9.64.3-14.43-4.23-16-12-4.77,4.17,4.23,9.91,6,14,10,1.35,15.35-2,21-5-2.65,3.51-4.24,9.06-8,11-.9.47-1.71-1.95-2-2-.92-.17-5.59,2.94-6,3,0,0,.07-2,0-2,.23.1-7.16,1.72-6,2C420.12,460.89,415.62,439.86,427,430Zm17,45c3.11-7.55,18.5-2.28,25-1C463,476.78,449.19,477.49,444,475Zm34,6c14-1.41,21.82-17.77,33-23-9,11.68-23.82,27.62-45,25-2.73-.34-6.62-.31-8-4C466,476.78,471.19,481.69,478,481Zm27-5c1.67,1.41-2.45,5.49-3,8C497,481.68,503.51,478,505,476Zm-10,26h3c.48,3.15-1.42,3.91-2,6C493.79,507.88,495.58,503.76,495,502Zm1-11c-1.71-2.21-.74-8.14,3-8C501,485.48,499.13,490.54,496,491Zm-10,24c-.25,8.75-8.66,18-18,21C471.53,526.53,481,523,486,515Zm-19,19c-1.17-.16-.84-1.82-1-3,1.7-.37,1.89.78,2,2C467.15,532.82,467.06,533.39,467,534Zm10-13c-3.5-1.88.76-5.78,2-9,2.62-6.78,3.59-16.91,7-25h5C484.81,496.81,485.7,513.7,477,521Zm3-27c-1.07,14.2-4.67,29.16-18,28,.84-5.5,7.48-5.19,11-8,.69-8,4.69-12.65,5-21C479.16,492.84,479.78,493.22,480,494Zm-17,29c3.58-.58,3,3,3,6C461,529.9,461.88,525.71,463,523Zm24,14c-2.55,2.78-3.76,6.91-10,6C478.09,538.76,482.36,537.69,487,537Zm4,25c3.11.22,1.69,5,2,8C488.27,570.54,490.27,564.34,491,562Zm-10-25c-.93-5.61,6.62-11.36,9-17C492,526.67,486.29,534.27,481,537Zm8-23c2.13-8.6-1.1-17.55,3-25,2.46.39,2.07,5.69,2,9C493.89,503.44,493.69,511.08,489,514Zm11,28c.29-2,2.71-2,3-4C505.52,539,502.2,542.42,500,542Zm8-32c-.06,14.94-3,27-13,32,4.14-7,6.74-14.8,3-23-4.85,4.41-1,11.49-6,16-2.42-10.31,6.88-18.56,10-29h2C507.41,505.26,505.65,509.69,508,510Zm-4-36c-2.55-4.58,4.19-8.46,6-12C516.15,466.45,506.44,469.76,504,474Zm13-7c-3.57-4.06,2.69-9.28,5-14a128.72,128.72,0,0,0,7-18h3C532,450.67,523.67,458,517,467Zm18-26c-7.2-14.8,5.29-25.38,2-45h4c-3.82-3.51-5.85-8.82-6-16,4.47-.14,4.62,4,9,4-.59-3.4-3.84-4.16-7-5-.59-5.58,5.42-6.48,3-11,4.65,2.42,5.57-2.14,9,0-3.78,2.75-1.08,6.08-7,7,.28,2.05,2.67,2,4,3,3-1.18,3.44-5,2-8a13.43,13.43,0,0,1,8,6C554.93,403.59,545.28,422.61,535,441Zm43-104c-3.55,1.55-.6-3.4-3-3-4.42,1.45-.25,5.32,1,7,.09,7.76-3.29,12-9,14-3.63,1-.84-4.49-4-4-3,.7-1.59,5.75-5,6-3.95,1.28-2.42-2.91-5-3-4.29.78.91,4.84-2,7h-5v-6h-3c-3.41,2.12-.37,2.9,0,6-2.93,1.07-5.16,2.84-10,2-8.59-7.08-12-19.38-22-25,.25-3.59-3-3.66-3-7-.66-1.34-2.14-1.86-4-2-.73-2.73,2-2,2-4a5.61,5.61,0,0,0-4-1c-3,.66,1,2.14,0,4-5.46.13-5.21-5.46-7-9,3.08-.74,1.92,2.74,5,2,2.42-5.75-3.53-3.65-4-4-1.39-1.06-1.4-4.83-5-4-.15-2.49,1.57-3.1,2-5,6.17,3.16,9.86,8.81,15,13,4.12-1.35.15-5.61,2-8-1.91-1.88-1.81.59-5,0-2-4.7,4-7.23,8-9,.48,3.15-1.42,3.91-2,6,.91,3.8,4,.73,7,1,2.16,2.28-2,3.87-3,6,1.5,1.17,2.45,2.89,5,3,1.44-.23.35-3,2-3,3.37,1.19,0,10.95,5,13-.33,3.54-2.75,2.46-1,6h4c3.08-1.59-1.79-2.14-2-4-.09-.82,1.67-2.09,2-4,.83-4.77-3-10.74-1-16-2.09-3.15-4.07-.6-7-2-7.27-15.42-29.74-20.9-28-42-2.16-4.84-10.4-.21-11-8,21,7.34,41.13,15.54,62,23,4.54,4.46,11.41,6.59,19,8,9.86,8.47,11.78,24.89,22,33C585.15,330.15,579,331,578,337ZM550,145c6.19,2.15,6.3,10.37,6,19-2.4,1.27-3.68,3.65-8,3,2-4.62,5.05-8.28,4-16-3.23-1.24-.77,3.24-4,2C547.35,149,550.65,149,550,145Zm-8,26c-5.3.7-7.19,4.81-12,6,2.27-10.4,13.08-12.25,18-20C552.09,160,543.6,167,542,171Zm-4,8c1.19-4.15,4.82-5.85,7-9C547.47,173.85,542.2,178.5,538,179Zm4-22c1.55-5.12,1.68-11.65,4-16C549,143.41,546.11,155.26,542,157Zm-2-27c3.15-1.37,1.95,6.57,4,3,3.51,1.71-2.33,2.19-3,3,5,8.74-2.45,18.57-3,28-7.85,2.15-7.82,12.18-15,15,1.84-5.49,4.47-10.2,9-13-.64-7.76,4.88-14.15,6-21C538.82,139.95,535.84,134,540,130Zm-21,31c1.22,3.45,2.05,7.28,5,9-.71,5-2.47,8.86-7,10C520.59,173,516,166,519,161Zm12-18c-9.64-5-7.13-22.21-23-21-1.44-2.42,2.82-6.05,3-10,8.42,2.92,14.25,8.42,17,17,.73,4.38-2-.81-2,2C527.67,135,531.59,136.74,531,143Zm-2,9c-2.69-1.18,0-5.21,0-7C533.56,145.12,529.54,150.67,529,152Zm5-32c2.94,2.68,6.35,7.54,3,11C534.75,128.19,530.44,122.73,534,120ZM509,99c6.23,2.31,11.82-.42,19,0,2.79,2.21,3.66,6.34,5,10-.69,3.14-2.67,1.3-5,1,.54,3.05,6.81,3.69,3,8-7.89-2.44-10.84-9.83-21-10C510.78,103.88,508.46,102.87,509,99Zm-1,16c-1.16-.16-1.78.22-2,1-2.34-.26-.58-4.39,0-5C507.76,111.24,508.28,112.72,508,115Zm-7-20c3.48,3.4,9.82,8.13,3,15-3.18-3.18-8.5-9.48-7-14-3-3.38-7.77-4.89-9-10C491.93,86.19,496.88,91,501,95Zm-6,7c3,5,6.29,9.71,9,15-2.76,7.24-2.17,17.83-10,20C497.51,126.61,495,114.3,495,102ZM462,86c6.14.32,11.67-4.17,17-2-1.07-.44,3.88,2.87,4,3,1.27,1.35,4.39,6.63,6,10s3.17,7.82,3,12c-6.78-4.89-13.12-10.21-23-12-1.61-6.72-7.09-9.57-13-12C457.94,83.08,459.7,85.88,462,86ZM334,12c2.92,1.12-1.27,3.25-3,3C330.69,12.69,333.89,13.89,334,12ZM324,46c-12.35,6.55-30,36.49-11,47-3,10.59,1.46,28.44-2,36-8.31-2.07-12.4-18.1-13-28-.17-2.76-.4-6.86,2-8-4.78-5.3,2.85-15.76,2-20-4.55,3.11-7.19,8.15-13,10-5.55,13.17-1.15,29.21,3,43-18.65,0-22.53-14.8-25-31-6.09,1.08-3.06,8.53-2,12,2.15,7,9.16,15.68,12,20,7.09.47,11.78,5.61,19,3-1.08,6.57-5,9.29-10,10-21.82,3.09-37.26-27.48-37-54,.16-16,6.44-28.66,12-38,11.34-10.12,30.83-20,49-12-4.45,4-10.71,3.47-16,6-17,8.13-30.73,26.43-31,51,8.49-3.26,2.3-26.26,14-23,.21-12,9.38-19.56,21-23-7.36,7.18-22,24.27-12,36C298.7,70.69,304.74,51.74,324,46Zm-9,91c0,2,2.73,1.27,2,4-2,1.37-5.71,1-8,2C310.42,140.42,311.34,137.34,315,137Zm-19-32c1.12,8.16,8,16.07,1,21-6.59-4.47-11.41-37.84-2-45,1.7-.37,1.89.78,2,2C295.79,90.51,295,98.08,296,105Zm-2-39c-2.94,4.36-2.62,11.24-9,13,2.23-17.5,11.89-35.15,34-36C311.28,51.35,300.56,56.27,294,66ZM195,55c1.09.47-14.68,10.67-6,3C190,57.11,192.81,56.06,195,55Zm-32,9c2.08.56,2.12,1.56,1,3h-2C161.72,65.38,162.94,65.28,163,64ZM149,82c2.74-4.76,3.59-8.12,8-11,1.17.16.84,1.82,1,3-6.2,4.8-8,14-14,19C140.83,91.1,147,85.43,149,82Zm-17,67c2.72-4.18,1.44-10.12,3-18,1.13-5.69,5.8-10.91,5-18,15.63-20.37,23.74-48.26,49-59-11.94,11.4-21.8,24.86-32,38-9.51,19.17-20,42.65-22,66,4.8.14,2.42-6.92,4-10,7.7-20.3,14.43-41.57,29-55,9.35-22.65,29.54-34.46,47-49-4.8-6.21-7.63,4.37-13,4,6.87-8.59,16.43-19.36,32-23,21-4.9,52.33-3.6,70,3,3.59,1.34,9.25,1.78,10,6-.61,4.9-4.44-1.48-6-2-19.46-6.72-36.73,2.12-49,11-4.26.26-6-2-9-3-12.14,5.2-20.19,14.47-29,23-.13-1.79,1.22-2.11,1-4-7,2.23-8.65,11.83-13,19-3.65,6-9.23,12.5-12,19-1.66,3.9-1.56,9.43-3,14s-4.4,13.77-5,22c-1.31,18,3.9,34.35,6,50,5.62,6,9.11,14.22,17,18,3.86.14,8.78-.78,10,2-1.18,6.45-9.7,3.36-13,2-8.84-3.64-21.53-19.39-23-29-.8-5.22,1.62-8.46,0-13-5.37,3.54-3,13.19-2,17,3.76,13.91,19.3,26,32,30-.6,2.4-1.44,4.56-1,8-3.74,2.13-5.68-.12-8-2-.85,11.83,16,2.9,14-7,4.69,9.18-1.15,20.94-13,19-12.45-2-23.18-22.7-23-32-3.7-2.47-6.53-20.57-6-29s6.22-15.6,4-22c-6.1,3.42-5.45,9.79-6,17-.24,3.14-2.07,5.54-2,8,.29,10.12,4.27,24.57,9,35,3.37,7.44,7.27,15.92,13,21,4.82,4.27,11,4.27,15,10-25.6,1.8-34.31-21.59-40-43,1.56-2.29,1.56-9.71,0-12-10.62,21.6,19,67.39,40,57a9.76,9.76,0,0,1-8,8c-14.3,2.63-33.67-18.4-38-38-.43-1.92.35-5.34,0-8-.63-4.7-2.94-9.38,0-15-4.29-3.56-2.22,5.93-6,6-2.24-30.58,13.75-42.91,20-65-4.61-.21-6.68,7.29-9,12-2.59,5.26-5.13,11.34-7,16-.9-9.07,5.17-21.07,9-30s5.91-14.67,10-23c5.67-11.54,13.34-23.78,19-36-8.86,4.1-13.76,18-19,28-3.64,7-9,14-12,21-3.37,7.91-4.36,17-8,25-5.7,12.48-14.6,22.41-17,39,.85-15.59,7-30.19,13-44,1.91-4.37,3.09-9.9,5-14,.35-.75,2.72-1.29,3-2a75.29,75.29,0,0,1,4-9c2.09-3.84,4.94-7.31,5-12-5.65.92-7.41,8.06-10,13-9.88,18.84-17.26,39.57-23,65-5.23,23.18-10,51.63-5,79,2.87-5-.08-12.62,0-19,4.07,1.26,1.65,4.89,2,7,3.83,23.27,18.4,36.54,36,47,1.88,1.91-.59,1.81,0,5,3.48-2.45,12.27-1,14,4-7.58,5.15-14.91-3.42-19-8,.18,4.18-6,2-8,4-.54,4.73,5.66,2.73,8,2,7.2,5.42,20.34,10.78,24-1,18.76-1.45,23.81-24.68,15-40,10.07-1.93,5.15-18.85,17-19-4.79,22.45,28.58,6.75,36,17-.4,2.65-4.31,5.69,1,6-4.26,4.51-7.68,2.32-11,2-.41,2.41,1.83,2.17,1,5,1.69,3,6.45,2.89,11,3-1.29,4.71-8.45,3.55-10,8a6.51,6.51,0,0,1-5-1c-2.28,1.39-3.87,3.46-6,5-14.84-.85-19.09,14.84-28,21-5.57,3.85-14,6-20,10-3.29,2.16-5.44,6-10,7-3.1-4.23-1.47-13.2-8-14-2.27,3.86,3.65,12.68,0,18-2.6-.85,1.92-4.39-1-6-2.61,5.39-5,11-12,12-3.63-.37-.68-7.32-4-8-2.21.13-.43,4.24-1,6-5.65.65-5.51-4.49-10-5-.11,6.78,7.26,6.08,10,10-.85,7.15-4,12-13,11-3-3.67-.78-12.55-6-14-3.15,2.58,2.5,4.77,1,9-9.59-3.75-9.62-17-15-25,3.18-6.46-2.62-12.62-4-20a86.71,86.71,0,0,1,3-42c-5,2.66-5.53,9.81-6,17-3.94-5.89-1.17-22.74,6-26,3.68,13,2.24,27.16,4,40,2.21,16.18,12.25,27.6,20,37,3.47-1.06,5.23,1.24,8,1,8-.69,16.39-14.74,5-17-.29,4.31,3.74,8.84-2,13h-8c-15.32-12-22.26-34.76-20-59-10.26-11.74-1.84-30.91,2-43-5.62,1.38-2.24,11.76-8,13,1-40.41,19-71.39,30-105-8.74,7.6-9.79,22-15,33-.69,1.45-2.9,3.05-4,5-1.77,3.15-1.34,6.11-5,7-12.46,28.88-29.14,55.6-26,94,.57,7,1.5,12.63-3,19,.47,4.11-2.51-.79-4,2,.07,5.07-1.72,8.28-1,14-3.67-1.49-2.06-7.3-2-10,.28-12.4,4.18-28.52,5-41-5.52,1.81-2.78,11.88-6,16-.39-14.39,4-32.62,9-45-2.08-2.16-3.41-.05-4,2-2.66-3.7,3-7.63,2-13,2.14-1.19,5.59-1.08,7-3,2.1-3.73,1.47-7.44,3-11,2.89-6.73,10.59-11.16,9-19-6.12-.29-8.8,11.08-13,16,.39-10.32,9.35-17.29,15-26,1.68-2.59,2.23-7.14,4-10C128.79,150.73,131.3,150.08,132,149Zm49-83c3.31,1-1.12,2-1,3C177.1,68.44,181.53,67.44,181,66Zm-4,6c-1.57,1.43-.79,5.21-4,5C173.62,74.62,174.34,72.34,177,72Zm-7,10c-1.78-.73-.14-1.82,0-3C171.78,79.73,170.14,80.82,170,82Zm-5,7c-2.36-.28,1.15-2.67,1-4C169.07,86,164.85,87.67,165,89Zm82-42c-2.09,1.58-4.07,3.26-7,4A7,7,0,0,1,247,47Zm-35,68c.41,3.72,2.83,7.88,3,12,.13,3-1.45,6-1,9,1.52,10.25,9.09,19.16,15,26,3.26,3.77,8.94,7.27,8,12-15.83-3.84-18.47-20.86-27-32-.51-4.83.15-10.82-3-13,.08,21.92,13.48,39.19,29,49,4.48-3.38,6.05-4.13,14-3-1.65,6.53-7.06,9.35-16,8-16.53-2.49-33.58-27.39-30-41-12.45,6.92,9,22.37,1,28,1.76,1.85,3.1-.26,4-2,5.84,2.7,2.17,9.23,7,12a7,7,0,0,1-4,7c-8-.24-12.15-10.37-14-18s-.91-17.08,0-25c-4.19,1.14-2.23,8.44-4,12-5.71-10,1.35-23.77,0-36,1.34-1,2-2.7,4-3,1-26.71,19.88-44.08,34-61,1.55,3.58-5.43,7.21-8,10C216.93,80.15,209.32,90.7,212,115Zm26,50c3.19-.62,12.21-.18,17,3,.12,8.17-12.3,4.23-16,2-5.13-3.09-19.54-21.61-22-29-.91-2.73-.51-5.68-1-8,1.62-.28,1.72.95,3,1C223.48,146.19,228.65,157.68,238,165Zm-11-21h2c5.91,4.09,6.29,13.71,12,18C233.64,162.68,229.05,152,227,144Zm-2,66c3.77-3.9,5.15-10.18,12-11-.77,16.23-1.91,32.09-16,35C225.12,225.72,226.36,221,225,210Zm-1-8c.58-2.54,3.62-5.27,6-3C230.16,202.28,225.92,203.8,224,202Zm-12-4c.19-4.68,8.15-9.7,7-19,6,1.63,9.16,6.18,16,7C232.14,194.81,224.5,198.83,212,198Zm-10-14c3.09,4.52,7.32,5.26,11,9-4.07,1.1-5.82-.06-10-1-1.82-7.85-6.78-12.55-7-22C199.27,174.23,199.21,179.92,202,184Zm-9-27c3.61.72,1,7.62,3,10C192.46,166.21,194.08,160.25,193,157Zm2,128c-5.82.51-11.19,1.48-18,1-5.14-6.31-12.62-5.16-14-16,7.83,7.2,19.06,17.54,33,10,4.22-5.78,10.34-9.66,11-19-.24-1.76-1.72-2.28-4-2,.11-2.55,3.35-2,6-2,3.56,16.93,1.42,37.28-20,35-2-.21-6.44-.16-7-3,10.91-1.64,19.44.08,23-8C200.9,277.62,198.53,284.49,195,285Zm-49-84c-1,6,.64,11.57,1,17,.89,13.54,2,24.62,7,36,2.4,5.49,7.52,12.8,8,22-33.11-26.06-20.55-95.41-2-128,3.93,2.93-.46,7.41-1,11-.33,2.2.24,4.53,0,7-.68,7-4.14,14.07-5,20-2.29,15.84-2,31.47,2,46-1,3.71-2.14,2.61-1,7,2.74,9.92,12.37,13,16,22,6.05.61,9.07,4.27,13,7h9c1.49-5.4-3.1-12.72-11-12,1.88,3.45,7.94,2.73,9,7-2.09,5.72-7.18-4.51-10-1-1.44-1.22-1.52-3.82-3-5-1,0-.78,1.22-1,2-2.9-3.14-3.89-5-8-5-12.1-13.51-16.67-43.13-12-67,1.7,3,1.1,8.23,2,12,1.76-.24,2.28-1.72,2-4,4.49,2.85,0,14.71,4,18-6.56,20.22,17.36,42.57,35,45-.42,2.25-5.48-.15-5,3,1.6,2.8,4.5-1.4,8,0-3.19,16.27-16,24.17-30,15-13.25-8.7-25.33-39.38-25-58,0-1.75,1.61-2.9,2-5,1.28-7,0-16.31,2-22C147.2,191.82,146.49,198.09,146,201Zm52,54c-7-1.18-18.36-7.65-24-15-4.7-6.13-7.29-13.75-8-22,.12.11.93-.13,1,0,5.39,10.51,16.85,31.42,36,31,8.53-.19,11.05-7.27,15-15C217.94,243.58,210.78,257.14,198,255Zm16-25q3.72.22,5-2C222.65,230.34,213.17,236.06,214,230Zm53,33v4c-3.39-3.18-10,2.87-10-3C260.9,267.4,261.94,261.53,267,263Zm-1,23c-.69,2-2.67,2.67-5,3C260.54,285.88,263.14,285.8,266,286Zm-35,22c5.7-8.3,10.9-17.1,25-17-7.74,6.26-17.9,10.1-19,23-4.1,1.89-6.53,5.47-9,9C226.64,319.6,233.4,315.76,231,308Zm0-18c1.37-3.29,5.29-4,9-5C238.31,288,234.17,288.51,231,290Zm2,5c-2,2-2.1,5.9-6,6C228.19,298.19,228.62,294.62,233,295Zm17-10c1.1-2.56,5.37-2,9-2C258.65,286.32,253.24,284.57,250,285Zm-74,48c-3.22,1.63-5.42.48-9,0-.15,5.43,5.51,3.5,9,3-3.44,9.9-10.53,16.13-10,30-3.2,3.08-3.53-2.35-7-2-.91,4.91,4.19,3.81,4,8-.65,12-11.24,14.1-11,27a6.51,6.51,0,0,0-5,1c3.16,14.13-7.86,23.68-17,24-16,.56-26.95-19-34-27,.08-1.58-.48-3.81,1-4-5.7-4.33-6.68-12.77-7-20,7.09,4.25,6.36,16.31,12,22,2.87-1.67-1.09-4.81-2-6,5.75-.74,7.59,7.42,13,11,5.73,3.79,13.1,5.21,22,3-4-3.89-9.67-.44-15-3-10.21-4.9-21.21-16.94-25-27,11.35,12.26,23.06,27.41,47,24-4.22,21.43-24.46,13.76-36,3,5.43,18.62,44,19.94,39-6a22.57,22.57,0,0,1,2-6c-.11-2.55-1.83-3.5-3-5,6.81-3,11.73-16.38,6-23-3.12,3.07,1.32,8.18-1,11-5.32-1.35-3.5-9.83-6-14-2.64.7-2.11,4.55-5,5-17.79.45-23-11.69-28-24,6.2,5.26,16.58,21.32,30,17,3.09-1,5.95-3.69,6-9,10.09,2.09,12.06-3.94,17-7,3,6.54-2.61,10.8-6,14,7.5,4.86,13.81-14.86,5-17-.41-2.41,1.83-2.17,1-5,6.19.19,10.8-1.2,12-6C179.16,326.42,173.55,328.38,176,333Zm-2,131c-6.93,3.73-12.21,9.13-13,19-2.31-1-2.07-4.6-2-8-1.77-1.88-2.92,1.19-5-1-2.09,1.19,3.16,3.42,3,6,.09,7.42-2.48,12.19-4,18,3.36,5.31,6.38,11,6,20-4.1,1.56-8.74,2.6-11,6-13-3-31.45,1.22-37-11-3.55,2.78-8.39,4.28-14,5-2.22-2.75,4.52-5.25,0-8-4-.65-4,2.65-8,2-1.94-3.06-4.1-5.9-5-10,.81-.86,2.74-.59,3-2,7.34,2.31,9.93,10.45,23,8,7.44-1.39,10.59-7.74,14-13,1.52-3.94-2.94-6.95-1-8,11.77,8.81,1.43,22.84-10,23,6,10.5,17.37-.54,24-4,.3-2.64-2.09-2.58-4-3,.47-6.67-2.58-9.72-7-17-4.19-6.9-8.76-14.57-17-18-1.4-10.27-6.61-16.73-7-28,4.24-.24,5.08,2.92,8,4-.41,24.41,10.78,37.22,34,38,3.26-1.45,2.52-2.23,2-6,6.95-1.24,15.11-10.19,7-15-6.78.78-3.08,6.19-5,11-4.27-.86,1.63-8.19-6-7-.46,3.73-1.63,3.69-3,8-11.93.51-14.16-13.73-13-23,9.12,9.58,29.58,2.28,31-10,.43-3.72-1.15-15.76-9-9-.92,3.92,5.27.73,6,3,.73,13.7-15.74,20.56-26,14,3.25-4.9,11.54,1.44,14-4-3.46-6.21-10.94,0-18-1-.84-2.16-2.59-3.41-2-7,10,1.36,23.24-.1,22-13,3.55-6.11,8.1-11.23,7-22,3.33,2,3.25,7.42,10,6C151,429.72,167.07,448.58,174,464Zm-7-22c3.51,3.16,5.49,7.84,9,11C173.14,453.17,167.07,447.95,167,442Zm55,78c4.07,2-2.64,7.17-7,7C215.74,523.08,219.52,522.19,222,520Zm-2-2c3.51,1.71-2.33,2.19-3,3C214,519.83,220.28,519.76,220,518Zm-17-12c-12.78,2.44-22-16.93-17-29,6.75,3.36,18.93,9.3,28,4,1.36-.31.83-2.5,1-4,4.64-1,8.18-3.15,12-5-4.08,11.29-20.22,17.64-35,12,8.14,8.72,30.53,4.1,34-8,1.49,1.51,1.61,4.39,2,7-6.91,12.43-29.3,11.21-40,3,5.08,12.51,30.7,21.17,41,8,2.06,16.3-27.86,13.53-32,2-.81.19-1,1-2,1C196.37,501.3,202.23,501.1,203,506Zm-10-27c3.8-4.62,12,4.33,19,0C207.49,483.78,198.86,479.11,193,479Zm50-76c-2.3-2.69,2.33-7,7-6C248.54,399.88,243.71,399.38,243,403Zm0,7c0-5.68,5.42-5.92,7-10C250.71,402.41,247,408.94,243,410Zm0,6c5.36,4,13.15,5.52,12,16C249.36,428.37,237.58,424.59,243,416Zm-3-1v-2c.85.18.94-.39,1-1C242.94,411.6,242.46,416.56,240,415Zm-1-2c-2.72-2.47.83-7.11,2-9C243.33,406.07,238.6,409.54,239,413Zm4,13c-2.48,4.77.31,9.45,5,10-.62-3.71-4.7-4-5-8,3,2.34,6.93,3.74,9,7-.24,3.1-2.78,3.88-4,6-6-5-10.25-11.75-11-22C239.89,420.44,238.56,426.1,243,426Zm-7,35c-1.06-4.79,3.14-7.78,3-13-.2-7.52-9.3-15.07-4-23C239.72,434.54,246.83,452.78,236,461Zm-1-16c4.94,1.56-.09,8.8,0,12C232.1,454,235.38,448.77,235,445Zm-1-3c-2.22-.71-3.32-4.69-2-6C234.22,436.71,235.32,440.69,234,442Zm-3,12a49.33,49.33,0,0,1-5,9c-3.93,5-11.31,9.55-19,9,1-4,6.56-3.44,10-5,6.6-5.07,12.55-10.79,14-21C233.46,446.55,231.69,452.09,231,454Zm6,8a1,1,0,0,1,0,2c-1,2.62-3.17,4.16-5,6-1.33,1.67.36,6.36-3,6C229.13,468.8,233.47,465.81,237,462Zm2,28c.11,3.29-8.73,4.83-8,0-6.26,8.82-23.45,11.93-32,3,10.66,4.22,24.48.84,29-7C231.88,487.12,232.42,491.57,239,490Zm9,11c5.95,5.38,8.42,14.25,10,24-5.07-1.82-2.33,1-6,2-1.36-5.87.18-11.19-1-19-.89.44-1.79.88-2,2C246.73,508.94,248.62,503.71,248,501Zm-2,37c-.76-2.79,3.87-8.77,9-9C254.83,534.83,249,535,246,538Zm6,1c.17,1.63-6.54,2-5-1A6.5,6.5,0,0,1,252,539Zm-10-3c-2.3-3.67,1.68-9.62,7-9C250,533.3,244.52,533.19,242,536Zm7-20c.49,3.16-1.8,3.53-1,7a69.1,69.1,0,0,1-22,9c2.7-4,5.61-7.73,10-10,.88-3.21-2.59-2.07-3-4,2.77-5.23,9.79-6.21,11-13,2,4.4.36,13.67-7,12C240.84,522.95,243.84,516.61,249,516Zm-9,17c-2.61,2.72-4.89,5.77-10,6-2.59-4.67,5.28-6.41,8-9A2.76,2.76,0,0,1,240,533Zm-11-10c-2.41,6.92-6.52,12.15-13,15C218.86,535.51,224.16,526.84,229,523Zm-4-4c1.28-1.37,4.72-1.37,6,0C231.6,521.29,224.08,522.63,225,519Zm3,23c-2.35.32-3.75,1.58-7,1a23.56,23.56,0,0,1,6-9C228.22,535.89,227.11,538,228,542Zm13-34c-3.79-3.26,1.55-10.23-2-15,4.68,0,6,3.28,7,7C242.11,500.45,241.77,504.44,241,508Zm-8-12c7.93,2.27,1.43,13.19,0,18-6.75-1.75-6,4-11,4C225.34,510.34,231.94,505.94,233,496Zm-12,30c1.8,5.82-5.32,11.33-13,11C211.86,532.86,215.78,528.78,221,526Zm-10,6c-2.16-.84-3.41-2.59-7-2,1.8-2.53,5.27-3.4,9-4C213.79,529.46,211.89,530.22,211,532Zm-26-7c2.57-1.06,10.82,1.77,18,1,4.13-.44,8.39-4.19,9-1C203.44,528,192.37,530.8,185,525Zm21,6c-2.21,3.58-8.29,2.26-11,2-10.14-1-18.66-8.5-24-14,5.53-1.51,11.24,5.41,14,10A62.84,62.84,0,0,0,206,531Zm-6,6c-2.4-.89,2.17-3,4-3C205.6,537.94,199.68,534.35,200,537Zm-3-3c-9.12,4.59-21.81-.42-28-6-3.63-3.27-5.93-8.85-7-13C173.41,521.59,179.08,533.92,197,534Zm-27-4c5.63,4.7,13.85,6.81,22,9h-6C179.12,537.55,172.56,535.77,170,530Zm11,15c3,1.71,8.6.74,8,6-10.71.72-13.7-6.3-17-13A19,19,0,0,1,181,545Zm-19-36c2.81-.15,2.88,2.45,3,5C161.2,514.87,160.3,510.68,162,509Zm0-4c1.42-2.63,3.8,2.11,4,4C163.43,508.9,164.57,505.1,162,505Zm-2-1c-5.92-3.1-3.24-12.91-1-18C164.24,490.88,157.65,499.14,160,504Zm-10,24v2h-2v-2Zm-23-3c-.79,3.34-8.05,4-11,2C116.71,523.37,123.29,525.62,127,525Zm4-22c-1.71,4.87-6.67,9.84-12,8C124.23,509.57,126.34,505,131,503Zm-16-20c-2.15,1.18-2.4,4.27-7,3-8.89-3.38-12.36-15.45-11-26-4.92,4.32-2.15,17,2,23,2,2.84,5.09,3.76,6,6h7c-17.63,10.12-25.49-13.24-26-30-.18-3.83.82-.36,3-1-7.2-10.57,1-25.3,1-34-3.33,4-4.88,9.79-6,16-8.32-19.71-6.51-46.58-4-68-3.87-.87-1.63,4.37-6,3-.63-8.63,2.79-13.21,3-21,2.15,9.28,8.6,23.48,5,32,9.49,10.34,7.82,34.72,18,47-7.34,10-2.61,26.61,3,35,6.64,1.64,19.49,7.9,14,18C113.05,486.17,117.32,484.46,115,483ZM73,406c1.16-.16,1.78.22,2,1,.48,17.18,5.75,29.59,8,45C71.34,445,67.76,420.7,73,406Zm-3,1c2.68-9-1-24.36,5-30,.92,9.18-.57,23-4,31C70.15,408.18,70.06,407.61,70,407Zm18-42c1.06,4.58-.64,10,0,15,3.06,23.88,20,42,44,47,4.56.56,4.23-3.77,9-3,1.55,7.39-9.82,10.06-19,10-3.29-3.38-6-7.33-10-10-2.71.9.84,3.68,2,4-3.5-.35-9.57-5-13-9-14.65-17-17.58-50.16-22-78,1.16-.16,1.78.22,2,1C80.11,350.4,86.06,356.63,88,365Zm-4-17q2.22,1.28,2,5Q83.78,351.72,84,348Zm3,10c2.42.58,2.22,3.78,3,6C89.52,365.38,86.85,360.56,87,358Zm36,91c2.2-2.24-.2,4.93-1,6,2.57,12.09,6.66,22.67,22,22-4.69,6.18-12.53-.54-15-2-1.87-1.11-4.25-.44-5-1-7.82-5.84-11.82-18.17-12-29a35.3,35.3,0,0,1,10,0c-.06,3.61-2.49,4.84-3,8C121.54,452.88,122.88,451.54,123,449Zm-11-8a6.51,6.51,0,0,1,5,1C117.17,443.63,110.46,444,112,441Zm7,0c-3.07-.26-4.5-2.17-7-3,.71-3.71-1.71-4.29-1-8C114.9,432.43,119.35,434.32,119,441Zm-13,26c-6.08-5.35-9.13-17.61-7-28,1.16-.16,1.78.22,2,1C100,451.66,105.41,456.92,106,467Zm4-26c-4.64-.69-6.17-4.49-7-9C107,433.35,109.11,436.56,110,441Zm-9-17c2-1.94,8.64,4.15,6,7C102.84,430.83,103.28,426,101,424Zm5,9c1.24-4.13,2.91.38,5,1C109.78,437,107.18,433.29,106,433Zm-6-5c-3-3.67-4.42-8.92-6-14C98.14,416.52,99.13,422.2,100,428Zm59-30v-2h2v2Zm2-10c-6.17,2.24-3,11.15-2,17-10.36-3.71-1.27-17,2-22,4,0,.85,7.15,3,9C160.77,392.9,162.6,388.74,161,388ZM96,203c3.92-.36,2.06,8-1,7C94.2,206.53,96.49,206.16,96,203Zm1-1c4.6-14.07,10.56-26.77,20-36-5.64,7.7-8.67,18-14,26C102.44,196.77,101.34,201,97,202Zm0,13c2.45,3.83-1.81,9.49-2,14C93,225.66,96.82,219.51,97,215Zm0,51c-3.53,32.8-2.78,78.55,13,101-8.45,2.1-9.26-12.06-15-16-7.33-24.85-5.67-61.49,0-87C96.7,263.63,96.89,264.78,97,266Zm22-20c-1.43-14.44,4.82-29.84,7-44C124.76,213.76,128.14,238.8,119,246Zm-2-18c-2.21,12.95,2.36,28.64-7,35-2.49-36.57,9-60.49,21-85C128.74,192.56,120.25,209,117,228Zm19,117c3.47.8,3.84-1.49,7-1,.65,4.32-1.73,5.61-3,8-16.17.84-21.85-8.82-28-18,5.65-5,11.47-9.86,11-21C132.92,320.29,126.2,338.43,136,345Zm-3-10c3.31,1,5.9,2.77,6,7C135.11,341.56,132.23,340.1,133,335Zm-23-5c-2.21-5.13-.87-13.8-3-19,2.25-2.5,3.35,4.59,5,6,2,1.34,4.76,1.91,7,3C116.67,324,115.37,329,110,330Zm11-15c-5.14.81-7.86-.81-10-3a18.79,18.79,0,0,1,2-11c-2.61-.28-4.3.36-4,3-.71-2.75-1.94-14.58,5-13-1.6-9-5.22-19.39,0-29,1.16-.16,1.78.22,2,1,.24,16.09,4,28.62,7,42C119.69,307.89,120.73,308.9,121,315Zm-10-28c-7.4,5.79-5.6,29-4,42-6.37-3.76-5.88-14.34-6-21-.21-11.14,3.58-21.19,7-29C110.72,279.94,110.29,284,111,287Zm21,79c1.87-1.46,6.63,0,8-2a7.05,7.05,0,0,1,4,6c-4.24.64-11.69,2.48-13-2-1.33,1-3,1.65-4,3-13-6.71-20-24.6-22-39,1.16-.16,1.78.22,2,1C109.95,349.38,118.39,360.27,132,366Zm-8,6c-2.5,2.73-3.85.82-8,1-9.56-11.77-14.23-28.43-17-47,1.16-.16,1.78.22,2,1C104.05,342.8,110.2,363.67,124,372Zm18,11c-1.64,6.36-9.85,5.5-14,5-11.23-1.36-23.2-13.7-26-22C114.11,372.89,120.12,385.88,142,383Zm-20-6c4.49-4.36,16.55-2.61,22-1C141.6,382.08,125.84,380.94,122,377ZM111,191c-.55,4.78-3.29,7.38-5,11C105.5,200.13,107.45,192.15,111,191ZM78,180c3.88-5.67,6-9.68,10-15,2.71-3.58,7.34-10.06,11-13,3.39-2.72,22.4-15.81,28-6-.21,4.46-7.29,2-8,6-1.44-1.22-1.52-3.82-3-5-25.66,16-43.31,40-49,76-4.26-1.4-3.42-7.91-7-10C65.3,202.81,71.11,190.08,78,180Zm19-6c-5.28.71-7,6.94-11,13-1.42,2.17-3.81,3.88-5,6-2.76,4.91-3.29,12.09-8,15,7.31-21.69,18.18-39.82,35-52C108.61,162.29,97.15,165.13,97,174ZM72,231c-5.26-4.4-1.94-14.53,0-20C73.59,216.75,70.49,224.14,72,231ZM37,319c1.07-3.74-2.48-2.85-2-6,2.94-3.4,2.83-9.83,3-16,3.52-5.15,7-10.29,8-18-7,4.37-5.5,17.17-15,19-2.23,4.44-1.94,11.4-6,14,.71-28,16.17-41.16,28-58-.25,7.76-7.23,17.43-5,31,5.63,1,7.31-2,7-7-1.29-2.8-2.07,3.15-5,2,1.85-15.82,6-29.37,16-37,1.31-2.36.42-6.91,2-9,7.66,0,3.75,11.59,11,12,3.28-4.52-4.39-5.2-3-11a17.64,17.64,0,0,1,11-8c-.47,8.19-3.71,13.62-6,20a8.22,8.22,0,0,1-7,0c-.55,2.22,1.91,1.42,2,3-13.33,20-30,42.61-33,70-.26,2.3,1.07,4.31,1,7-.11,4-2.79,6.2-4,10s-.82,8.15-2,12c-6.83,22.3-17.38,42.14-19,68C13.22,376.56,33.07,353.07,37,319Zm28-46c-2.79,1.65.92-4.21,2-5C70.68,270.17,64,270.22,65,273Zm-8,11c.9-1.77,2.41-2.92,3-5C62.09,279.89,59.68,284.58,57,284ZM45,321c1.15-6.52,2.49-12.84,5-18,4.75,2.23-1.36,8.79-3,13C46.32,317.75,48.74,321.68,45,321Zm11-34c2.24,4.6-3,10.3-4,15C49.76,295.83,55.4,291.61,56,287ZM16,425c0-2.36,1.72-2.94,1-6C20.86,418.41,18.45,425.59,16,425Zm57,84c.43-3.57,7.31-.69,6-6-2.38-1.66-7.5,2.47-12,2-12.79-6.63-20.19-15.83-20-32,.15-12.52,6.25-25.6,6-37-3.47,2.25-3.82,7.5-5,12-.74,2.81-1,5.38-2,10-.27,1.21-2,2.07-2,2-1.13,9.85,2.78,20.64,3,31-4.63-1.52-10-11.35-5-16-1-1.34-2.7-2-3-4,.55-16.11,3.83-29.5,11-39,3-.31,3.57-3.09,8-2-9.06-7-13.55,6.82-18,11-2.24,12.45-5.94,25.73-2,39-11-9-12.37-27.63-18-42a260.12,260.12,0,0,1,11-61c.35,10.11-9.3,46.94,5,48,8.75.65,10.28-13.34-1-13-3.52,4.49,6.61,2.26,5,8-10.29,1.41-9.84-8.15-9-21,1.58-24.15,10.27-50.95,18-67,.45,9.46-7.78,18.88-8,31,4.68-4.45,4-15.69,8-23,.75,6.72-2.25,18.18-1,26,.45,2.78-5.45-.78-5,2,.44,5.08,2.11,1.17,5,1,.59,3.08.26,7.08,4,7,2.62-3-1.73-8-1-16,.49-5.33,4.87-14.56,7-20,5.2-13.3,14.37-26.89,17-42,.17-2.5-1.54-3.13-3-4,1.45-4.17,4.63-6.62,5.79-11.08,0-.31,0-.62.07-.93-4.25-.58-6.16,5.95-7.87,9-6,10.71-12.78,24.36-18,36,.69,3.33-2.07,1.61-3,1-.76,4.91-4.71,6.63-5,12-.33-8.28,5.77-15.76,8-24,.47-1.73-.36-4.33,0-6,4.56-21.08,16.71-38.38,28-52-.85-2.93-3.22.6-5,0-.2-3.32,4.95-3.93,7-2,2.44-11,9.47-22.44,7-35-6.54.64-9.52,9.56-15,8,.46-21.75,10.61-34.56,21-49,8.72-12.11,15.33-22.34,28-28-9.92,16.47-28.15,32.14-31,56-1.08,9,1.74,18.83-1,25,0,3.38,2.33,4.34,4,6-2.41,29.16-14.76,73.84-3,109,1.35,4,4.34,7,6,11,3,7.26,3.94,13.83,8,19,6.07,7.73,23.1,18.32,38,10-1.83,5.36-5.89,6.79-11,7-11.43.47-28.2-12.81-34-20-4.26-5.28-7.35-13.08-10-21-2.73-8.15-3.77-16-6-24-4.53-16.24-.26-45.15,1-63-4.12,1.19-4.4,4.22-5,7a62.65,62.65,0,0,0-1.13,8H78q-.09.48-.21.92C76.71,298.08,79.66,315.47,79,331c-.7,16.43-7.75,31.42-10,47-2,13.55,1.2,30-3,40a119.6,119.6,0,0,0-9,61c.28,2.72-.67,6.06,0,8,2.25,6.55,7.86,9.54,17,11-2.83-6.16-14-4-15-12,4.18-.42,11,9.88,18,4-30.83-2.66-17.37-47.46-10-66,2.25,6.35,4.3,19,9,26,1.95,2.05,4.72,3.28,7,5,2.56,18.91,4.62,43.19,27,39,4.17-1.5,5.21-6.12,10-7-2.47,2.59,2.16,3.72,2,7-4.34,14.86-30.1,13.26-35,0-.49-3.14,3.45-2.64,1-5-6.14-10.22-15-21.81-13-37-4.19-1.19-1.79,4.21-4,5,.84,15.41,17.93,27.46,10,42,.67,5,3,8.29,4,13-5.74.74-8.16-1.84-12-3ZM50,349c4-19.7,10.49-36.85,20-51,1.79-.28,2.05.95,1,1-.45,7.63-4.2,13.45-7,20-2.92,6.82-5.07,16.53-10,21C53.59,343.92,53.61,348.28,50,349ZM91,531c-1.06-3.73,3.75-1.58,3-5,1.63-5-7.08-4.85-5-7,1.89-2,4.72-.48,7,0-1.13,13.8,6.05,19.28,20,18C107.66,542.34,95.5,536,91,531Zm24,4c-11,.37-17.61-3.72-17-15,9-.86,15-5.57,19,3-3.44,1.83-5.09-.71-7-3-2.39,8.46,5.71,10.82,13,10,5.17-.58,8.07-7.23,12-4C133.46,534.13,118.71,529,115,535Zm5,2c-.64-6,16.78-2.54,17-11a6.51,6.51,0,0,1,5,1C138.39,536.25,127.58,532.74,120,537Zm27,7c1.3-2,4.28-2.39,6-4-.45-2.28-5.52-5.05-3-7,1.48-1.16,2.52-1.16,4,0,0,13-4.3,32.63,9,37,1.07,2.59.64,6.7,3,8C155.7,575.77,146.4,562.23,147,544Zm16,42c8.78,2.58,18.14,5.69,28,2C186,598.16,166.86,593.88,163,586Zm28,0c-8.56-2.44-16.28-5.72-22-11,.32-6-2.4-8.93-3-14-3,0-1.28,4.72-3,6-12.72-5.59-3.95-23.9-8-36,4.08-.75,4.54,2.13,6,4-3.37,15.25,1.14,28,18,26,2.31.31,1.11-2.89,3-3,.24-4.24-2.92-5.08-4-8-7.47,11.2-22.5-3.4-13-13-1.13-2.53-4.82-2.51-4-7,5.42-3.33,6.73,2.27,10,4-.77,11.77,7.18,14.82,13,20,5,.68,7.3-2,11,0,.74,8.1-10.25,17-15,10-4.68-.68-1.55,6.45-6,6,2.37,8.76,14.07,7.22,22,8C197.23,583.56,193.74,584.4,191,586Zm-21-28c2-1.69,6.24-1.09,9-2C179.16,561.28,173,558.07,170,558Zm25,9c-1.67-1-7.1,3.47-10,4-4,.73-8.33-1.1-2-1,4.06-2.27,9.55-3.11,12-7C199.68,563.12,193.91,564.46,195,567Zm3,1c.07,7.24-10,8-15,7C185.9,570.56,193.14,570.48,198,568Zm0,25h9C206.25,595.54,197.72,598.32,198,593Zm11-22c-1.45.55-5.17-1.17-5,1-1,3,2.23,1.77,4,2-.18,9.15-4.55,14.11-12,16,.92-5.08,8.64-3.36,7-11-.8-2.2-2-4-5-4,3.47-7-.16-13.12-2-20,3.59.59,4.84-1.16,7-2-1.51-3-4.39.83-7,0-.93-2-3.26-4.76-1-7-5.76,2-8.65-2.83-13-5,6.2.28,17.29-.73,23-4,4,4.64,12.58,3,17,0-5,8.07-1.51,12.68,0,22-6.71-3.81-14.67-7.61-20-1,2.09,3,5.26-1.33,9,0-.16,4.51-7.66,1.67-7,7,6.88-1.47,15.83,5.86,10,14C211.1,577.56,209.88,574.46,209,571Zm2-9a4.71,4.71,0,0,1,3-1c3.87,1.14,3.38,6.62,8,7,.92,9.25-1.69,15-9,16C220.22,577.65,217.28,567.27,211,562Zm5,27c0-2.91,5.65-2.36,7-1C222.57,590.24,218.07,588.4,216,589Zm10-44c-3.66,8.27,4.07,12.16,11,13C232.27,567,214.71,548.83,226,545Zm1,7c-.72-3.06,1-3.65,1-6,4.28,3,6.72,7.95,14,8C239.57,557.84,231.14,552.85,227,552Zm26,6c-1.91-.42-4.3-.36-4-3C251.61,554.72,254,554.66,253,558Zm5-8c-2.33,1.5-1.53,2.45-1,5-6.81-5-22.83.55-25-11,5.36,5.92,6.34-4.2,13-3v4c5.08,1.08,11.65-4,14,1,2-1.37.54-6.13,2-8-4.2-.21-4.2,3.8-8,4a62.56,62.56,0,0,1,6-11c6.73,3.61,3.87,16.79,10,21C266.06,554.55,262.68,549,258,550Zm42,118v-4h3C303.28,666.62,302.64,668.3,300,668Zm-11,59c-3.22,5-9.62,7.55-15,3,1.91-8.42,3.55-17.12,6-25C283.58,711.76,289.72,715.94,289,727Zm-10-30v-8c7.69-3.11,29.54-10.84,31,3C299.1,694.38,289.85,696.87,279,697Zm29-16c-14.22-2.66,3.46-29.51,10-10C314.86,674.64,313.5,682,308,681Zm18-6c-7.48-1.85-4.72-13.95-15-13,0-3.71,1.54-5.8,3-8,4.95-.61,6.4,2.27,10,3v6c3.8,1.47.2-4.47,4-3,2.67,4.18-5.1,5.2-7,8,2.36,3.26,5.66-.92,8-1C328.49,670.16,326.06,671.39,326,675Zm17-38c.2-2.52,30.63,3.15,32,1-2.93,4.15-11.6,3.11-19.62,1.54,19.53,4.14-12.44-1.73-12.38-2.54Zm24,13c-.48-2,4.58-3.22,5-1C373,652.6,367.68,650.77,367,650Zm9-3c-3-2.31-10.2-.46-12-4,11.45,2.27,19.14-5.59,30-7C391.49,643.16,382.14,643.47,376,647Zm18-14c3.7-3,7.07-6.26,12-8C403.76,629.42,399.06,631.4,394,633Zm15-8c-2.48-2.54,3.42-5.2,6-6C414.78,622.78,409.86,621.86,409,625Zm20-15c2.57-4.43,4.88-9.12,10-11C436.16,603.16,434.31,608.31,429,610Zm12-16c2.25-3.75,3.49-8.51,8-10C446.77,587.77,445.34,592.34,441,594Zm-12-2v6c-10.06,8.84-23,25.33-40,31-8.08,2.69-24.52,5.9-35,4-15-2.72-23.77-12.1-37-18-11.28-13.39-25-24.31-33-41-4.66-4.67-6.39-12.28-11-17-2.33-16.34-10.91-26.42-13-43,3.86-4.3,6.48-2.47,11-3,1.19-4.19-4.21-1.79-5-4,3.12-4.55,4.61-10.72,9-14,3.65,1.05,6.2,8.42,6,10-.29,4-7.9.77-8,5,3.13,4.77,12.63-.45,11-4,20.59,5.94,25.13-20.1,18-34-2.21.79-2.5,3.5-4,5-3.52-1.15-5.92-2.07-10-2-11.7.2-20,8.77-28,14,1.37,2.88-.64,12.08-4,10,2.57,3.77-.53,4.36,1,11,3.64-3,4.43-8.91,5-15,7.26-10.06,16.54-19,32-16-1.57,2.56-6.6,5.42-10,3-13.74,4.52-21.15,18.68-25,30-6.6-.2-5.79-7.93-8-12s-7.26-7-7-12c-4.18-.84-4.72,1.94-8,2-1.93-2.07-5.76-2.24-6-6,4.19-.19,3.09,4.91,8,4-.56-4.77-5-5.71-6-10,5.39-10.61,15.74-16.26,15-33,1.41-1.84,4.86,1.57,7-1,3.29-2.87,6-7.36,6-11,0-8.84-9.38-12.82-14-18,4.57-4.1,5.09-12.24,14-12-3,8-4.91,18.19,4,19,3.25.29,8.28-2.4,9-8-1.06-2.27-6.29-.38-9-1-1.3,3.95,3.67,2.42,1,5-9.66-1.11,0-10.92,1-14,15.72.68,27.81.42,36-8,14.83-2.2,26.75,14.72,17,28-2.59,1.07-4.9,2.43-9,2,1.46-4.54,7-5,6-12-6.38,1-6.75,7.92-12,10,.92-5.58-5.89-3.45-4-10-4.38,1.62-4,8-7,11,0,5.92,8,8.9,12,5,2.72,2.95,4.26,7.08,8,9,9.81-2.82,19.59-7.64,23-17,1.09-3,2.41-10.43,2-14-1.61-13.84-15.24-14.89-28-19-4-.63-2.86,3.8-7,3,1.29-5,5.1-8.36,10-7,2.77-4.23,5.31-8.69,10-11,2.22-.55,1.42,1.91,3,2,16.23-3.77,27.21-12.79,41-19,6.78-5.89,16.45-8.89,17-21-4.84-.5-3.8,4.86-6,7-7.78,3.77-13.48,12.35-24,15-2.47.62-5.68-.33-8,0-8.1,1.17-14.26,5.25-20,9-2.65-2.71,4.12-4.5,6-6,20.45-18.22,34.83-42.5,67-49-4.54-2.81-11.92.31-16,2-24.05,10-39.51,35.73-60,50-6.82,1.94-8.64-5.28-12-1-.05,4.42,7.6,6.36,11,4-3.9,5.77-16.63,11.37-20,21-4.68-2.19,2.08-7.49,2-12-.11-6.12-2.2-10.56-10-11-4.1,2.47-.62,5.82-1,9-1.38,11.45-8.73,19.28-17,25H262c-1.81-1.85-4.85-2.49-6-5-3.21-3.29-3.82,6.26-8,2-1.73-6.06,5.49-3.18,6-7,0-3.67-3.5-3.83-5-6-7.9,1.77-13.73,5.61-22,7,0,2,2.73,1.27,2,4,3.66.74,5.56-2.46,8,0,2-2.08,4.79-7.23,8-5-2.2,11.82-19.08,7.25-27,4,1.27,9.52,18.7,7.91,25,4-2.71,5.88-16.64,6.68-26,3-4.3-1.69-5.93-7.33-10-6,3.51,9.57,22.22,13.92,32,8,3.15,8.63-10,6.42-16,5-14.64-3.45-23.38-13.49-30-24,.53,16.51,18.94,23.69,35,28,3.25.58,4.65-.68,7-1,0,2.42,1.81,14.2-4,14,1.48,12.64-6.38,21.85-18,21-.36,3.36,4.33,1.67,6,3-4.37,12.87-21.26,3.74-27-2,1,13.7,29.39,17,30,1,4.66.66,4.43-3.57,8-4-1.18,10.15-6.13,16.54-11,23a49.69,49.69,0,0,0-18,8c10.67,6.07,23.7-2.1,27-10,2.41,2.48-2.3,6.31-3,9-6.15-.34-9.93,6.1-16,7-12,1.79-21.42-5.33-27-13-3.57,1.24,0,9.06,3,10-1,1.34-2.7,2-3,4-1.5,23.06,13.18,32.78,36,29,3.2-.53,5.79-1.9,9-4-1.24,7-11.4,12.07-19,12-13.48-.13-21-13.36-29-18,6.44,11,22.85,25.33,40,16,1.14,4.95-9.3,4.94-13,5-12.1.2-25.27-5.92-29-13,.94-8.42-.6-9.17-1-17-3.9,1.12-2.67,12.55-2,15,3.56,13.1,23.9,18.73,40,15-3.28,4.58-10.45,5.86-16,6-18.62.46-31.76-14.7-35-32,.3-3.7,4.4-3.6,3-9,8.59,3.39,13.38-4.24,14-12-.52-1.48-1.48-2.52-2-4-.38,4.73-.83,15.06-10,14,4.32-5,4.87-13.8,11-17-.64-2.29-2-6,0-8,5.8,5.83,15.61,16.18,27,10-7.82.35-18.73-1.81-22-9,4.66,3,10.53,4.8,15,8,7.43-1.57,15.21-2.79,19-8-8.36,2.56-21.33-1.77-29-8-2.05-.95-.85-5.15-4-5-1.74,11.08,13.33,14,23,17-20.86,2.19-30.81-15.19-37-31-1.65,10.32,7.51,18.49,12,26-7.77-7.64-18.27-17.24-20-31-1.27-10.13,3.18-21.5-1-32,3.37,2.76,2.86,8,5,13,3.14,7.32,10.4,15.85,16,22,1.65,1.81,9.05,5.89,14,4-1.42-3.58-6.45-3.55-10-5-12.17-11.37-23.74-25.35-22-45,.31-3.48,1.44-10.85,3-15,.89-2.37,3.91-3.8,5-6,3.66-7.36,2.67-15.71,5-23,2.87-9,10.32-17.27,17-19,.89-2.11,3-3,3-6,7.74-2.26,12.25-7.75,21-9-9.54,13.45-26.1,19.89-29,40-1,2.29-3.89,2.78-5,5,4.52,1.1,4.15,12.81-1,13-2-17,5.08-34.36,16-44,2.33-2.06,6.53-1.91,7-6-2-.89-5.81,2.14-8,4-8.67,7.34-21,25-18,44,.55,3.49,1.09,9,6,9,3.28-4.72,4.06-11.94,4-20,16-6.62,22.22-23.11,30-38-.08-4.75-.21-9.54,5-9-.49,7.51-6,10-6,18,5.09-2.95,4.4-10.29,7-15,2.26-4.09,6.38-6.09,8-10,1.72,6.65-11.13,10.7-7,20-6.38,12.14-24.62,26.18-27,44-1.19,8.94,1,27.33,12,22,.1-5.57-3.46-2.29-6-4-7.84-17.7,3.84-35.07,12-46-1.73,9-13.76,20.9-9,38,3.62-3.76,1.13-7.39,2-12,4.06-21.54,20.18-37.06,34-50-1.66-4.63-2.68,1.51-6,1,7.34-11,18.71-18,34-21-20.85,11.81-34.62,30.71-45,53-2.83-.83-2.59,1.41-5,1-9.71,8.86-13.53,31.14-3,42,2.69-7.19-5.13-18-2-28,1.31-4.19,6.66-5.89,7-11,2.41.41,2.17-1.83,5-1,14.13-21.2,22-48.71,52-54-15.09,8.58-29,18.31-36,35,6.33,2.11,6.88-6.1,9-9,6.6-9,16.76-17.33,28-23,4.46-2.25,11.81-2.94,20-4-1.71-2.29-7.63-.37-11-1,6.73-7.2,22.06-3.55,29,2-21.2-1.88-44,7.49-55,22,5.53,2.36,7.3-4.46,11-7,11.9-8.17,28.27-13,46-12,.36,4.24-4.81,1.83-6,2a29,29,0,0,0-15,6c-6.3,4.86-15.66,13.86-14,22,6,.83,6.5-4.87,9-8,.73-.91,3.38-1.11,4-2,.91-1.3,0-2.94,1-4,7.88-8.35,18.66-11.61,35-12-12.3,5.36-25.8,9.53-35,18a4.71,4.71,0,0,1,1,3c12.09-6.28,23.2-18.75,42-15,2.27-1.73,3.59-4.41,8-4,3.21-.87,3.13,1.54,4,3,1.54-2.13,3.61-3.72,5-6,3.57,2.57-5.46,4.32-2,7,5.71-1,8.1-7.07,13-10,3.49-2.09,7.82-1.86,11-4,1.12-.75,4.78-5.34,6-7-12.76-1.08-24,8-32,15-12.4,0-20.39-2.84-33-2-2-13.34-21.24-17.26-34-11-9-5.35-18.23.9-28-3,1.2-7.7,6.38-15,12-21-5.11-4.56-11.48-7.85-15-14,1-10.35,4.61-18.06,8-26-4.28-.62-4.08,3.26-8,3,1.12-1.23.87-2.05-1-2-4.74,3.12,1,5,2,8-1.28,1.72-6,0-6,3-.28,2.62.36,4.3,3,4-.1,2.57-3.9,1.43-4,4-1.31,3.4,5.48,3.73,3,5-2.54,2.63-4.05-.19-5-2-4.59,3.93-15.94,2.81-22,0-.16-17.49,10.55-24.12,9-43,7.21-2.12,11.79-6.88,14-14-.87-1.46-1.5-3.17-4-3-.37,6.05-3.87,13.81-14,13-1-8.88,14.29-16.78,21-15,1.06-3.73-3.75-1.58-3-5,6.64-9.35,23.1-8.9,30-18-1-1.33-.95-3.72-3-4-3.87.46-2.93,5.74-6,7-6.78-1.82-12.88-6.5-17-11-3.8-4.15-8-12-10-18-4.08-12.57-3.83-27.59-9-40-8.66,25.32,5.81,40.88,14,56,3,5.48,10.09,11.6,15,15q-.18,3.82-4,4c-3.7-.12-2.52-1.46-2-4-3.54-.54-2.46,3.54-6,3-.28-4.05-3.44-5.23-7-6-2.32-7.06-8.1-13.4-11-20-1.12-2.56,1.1-6.37-3-7,.08,6.48,3.6,11.32,6,16,2.53,4.92,6.32,9.37,6,14-11.61-5.39-13.12-20.88-19-32-5.46,2.93,2.32,6,1,11-4.6,2.45-8.23-5.2-10-10-3.57-9.66-6.55-28.26-3-42,2.21-8.53,9.08-13,9-20,7.94-9.06,16.53-17.47,29-22-8.43,9.6-21.32,24-24,41-1.17,7.42-1.74,18.21,3,25-1.77-22.19,5.09-49.24,21-60-5,7-5.58,18.42-10,26,.25,1.09,2,.68,2,2-.25,1.57-1,3.31-1,5,.49,18.06,10.83,42.69,26,52,5,3.09,21.17,8.13,25-2,1.9-1.87,2.51-.11,5,0-.43-2.69-3.75-5.13-1-8,5.89-.23,8.82,2.52,11,6-2,5.15-6.88,11.08-14,8,.65,6.68,6.82,2.61,11,2-1.39,4.73-7.14,2.21-10,7,2.13,4.46,5.35-3.71,12-1,1,5-6.32,1.68-8,4-1.47,3.8,4.47.2,3,4-21.07-3.9-29.54,12.1-40,22,14.06.84,17.84-25.63,35-15,4.64,2.88,7.23,3.24,8,9h7c1.61,6.72,5.53,11.14,10,15-.9-11.44-14.24-19.09-18-31-1-3,2.23-1.77,4-2,1.64-4.36,6.41-5.59,9-9-.86-2.18-10.72,3.17-10-3,8.52,0,14.48,1.12,19,7-.07,4.26-6.6,2.07-8,5v7c7.51,10.49,15.83,20.17,21,33,6.69,7,13.49,13.85,18,23,5.9,4.85,10.15,12.8,15,20,2.54,3.77,5.38,7.75,7,12h-8c-4.06-9.6-11.74-15.59-19-22-1.67-6.33-4.38-11.62-10-14,.49-7.16-3.32-10-8-12-1.35-2.49-3.21-5.25-5-8-1.33-2-1.3-7.26-6-6,2.3,4.37,3,10.29,7,13,1,3.64-4.87.46-3,5,1.62,5.25,5.08-3.59,8,0,.31,2.31-2.89,1.11-3,3,1.48,4.2,3.87,2.28,7,1-1.62,2.38-3.59,4.41-5,7,3.18-.25,5.27-.23,10,2-3.54,1.8-3.95,6.72-8,8-2.62-1.88,3.88-4.63-1-6-3.94-1.6-.35,4.32-3,4-7.56-2.93-19.41-5.23-17-15-3.59-1.93-3.66.38-7,1-6.71-3-10.67-8.66-19-10a5.61,5.61,0,0,1-1-4c-2.5,2.5-6.95,3.05-9,6,3.79,11.82,17.75,11.52,28,15,1.71.58,3.69,3.16,6,4s5.21.13,7,1c.75.37,1.29,2.71,2,3,10.13,4.09,20.75,5.84,29,11,.53-2.91-3-9.39-10-8-.1-4.43,1.18-7.48,5-8a16.38,16.38,0,0,0,3,6c.6.78,3.56,2.07,4,3,1.48,3.13-.25,8.38,1,11,2.09,4.37,5,4.28,8,8-18.33-.11-42.69-1.76-56,6,6.62,4.12,15.33-2.1,24-2,11.28.13,27.81-1.19,41,1q3.27-.27,3,3a31.86,31.86,0,0,1,11-4c4.25,1.09,5,5.67,10,6,3.92,4.41,5.88,10.79,13,12,.56-4.89-3.88-4.78-6-7-7.61-8.86-16.13-19.05-25-30-4.72-5.83-10.33-11.42-10-17,.54-9.06,11.15-10.29,11-22-9,1.65-8.27,13.06-15,17,0,2.66.38,5.71-1,7-2.32-.28-2.3-2.67-1-4-7.68-5.66-10.64-16-19-21-.85-6.15-5.69-8.32-7-14,8.62-.52,14.94-6,12-15-.13-.41-2-3-2-4-.17-3.47,2.44-5.62,2-8-.69-3.74-3.72-5.74-4-8-1.33-5.33,5.33-2.67,4-8-2.08-3.29-4.22,1.69-6,2-4.37-2.29-11.29-2-17-3-4-4.29-7.46-9-8-15-1-10.7,5.32-20,12-27-4.49-2.11-7.82,4.57-10,8-.64-15,9-28.31,25-30-1.29-4.28-6.08-2.76-9-2-17.42,4.52-22.66,36.06-20,59-2.94-1.44-2.7-5.41-3-8-1.15-9.85-.64-24.15,2-33,.68-2.28,2.32-5.91,5-7,.64-14.35,14.43-15.57,18-27-10.51.9-15,16.28-23,23-.47-7.81.81-13.86,7-15,.46-3.12-2.14-3.2-5-3-6.56,4.44-2.3,19.7-5,28-6.77-.18-6.17-8.45-6-12,.5-10.39,10.31-22.86,16-27,1.58.08,3.81-.48,4,1,2.87-1.47,2.11-6.56,7-6-1.87-6.19,3.53-12,5-18,10.27-3.67,24.62,1.59,28,11a86.15,86.15,0,0,0-22-7c.22,6.26,15,6.2,21,10,7.86,6.53,8,26,21,24-3.87-1.13-2.45-7.55-5-10,5.66-2.37,3.11,11.34,11,10-1.19-6.47-7.33-8-8-15-3.8-1.47-.2,4.47-4,3-7-13.73-17.45-31.64-36-31-9,.31-11.64,7.55-20,7,1.07-2.93,4.84-3.16,4-8,5.1.78,12.44-3.09,18-5,.22-3.88-6-1.3-6-5,8.3,0,15.51,5.86,22,10,17,10.81,29.12,25.1,37,46-11,6.3-25.47,9.2-27,25,6.27-1.4,4.39-10.95,12-11-1.86,3.47-5.15,5.51-7,9,7.79,2.28,8.93-10.27,16-12,9.9.81,13.42.3,20-3,2.17.17.45-3.55,1-5,7-.53,11.55-2,17,2,1.45,1.07,2.33,3.7,4,5,1,.81,3,.16,4,1,8.68,7.2,15.31,18.65,21,25,3.08-1.33-1.86-4.45,1-6,1.43,2.57,3.53,4.47,5,7,14.62,1.71,18.7,14,25,24a22.81,22.81,0,0,0-3,11,5.05,5.05,0,0,0,3,3c5.72-1.54,8.53-5.76,14-5-.94-5.5-3.05-8.15,0-13,7.81.19,10.92,5.08,15,9,.86,3.19-1.57,3.09-2,5,.11,1.89,3.31.69,3,3-1.35,10.68-5.26,22-15,27,1.89,5.45,6.92-2.62,10,1-2.24,6.76-2.84,15.15-12,15,.65-18.32-11.15-24.19-19-34-2.66,0-5.71-.38-7,1,1.67,14.89,24,19,15,38-1.37-13.18-11.74-23.62-21-32-.12-6.76-1-8.8,0-15,1.58-3.42,6.08-3.92,6-9-9.27-2-11.48,14.84-9,23,3.61,11.86,27,20.32,18,36-21.18-10.48-32.29-55.67-14-74-.68-3.65-3.79-4.88-5-8-6.11,1.22-9.6,5.07-15,7-4.08,5.87-13.62,26.15,0,29,4.42-4.34-2.34-14.42,0-20,7.55,5.27,10.3-3.7,14-8,.89,3.26-4,9.32-6,13,1.71,2.84-.82,5.1-1,8-.7,11.35,4.51,24,6,35-1.89-.11-.69-3.31-3-3-.08,4.45,2.13,7.2,6,5,1.09,8.91,9.53,10.47,13,17-19.28,16.44-29-31.69-25-44-3.14-.47-2.64,2.69-5,3-1.38,18.7,6.93,30.82,9,43,2.79,2.21,5.23,4.77,10,5-5,.37-10.82,2.05-14,1-10.55-3.49-13-23.65-10-34-.35-4.12-5.1-5.85-1-9-2.22.78-5.42.58-6,3q-.7,4.7,4,4c-5.15,12.57,1.83,29.2,7,38-11.91.57-16.11-33.8-15-49,.55-7.58,2.37-17.24,5-24,2.95-7.56,10.58-13.87,9-21-4.2,1.46-6.69,8.68-10,16-5.07,11.21-9.09,26.06-7,47,2.19,21.93,9.29,40.74,31,31,2.14,3.92-2.06,5.38-5,7-3.21.88-1.37-3.3-4-3-4.3,2.37-9.66,3.67-17,3-15.87-14.1-1.26-48.31-11-61-3.87.78-.25,4.57,0,7,.68,6.62,1.08,17.51,0,24-.67,4-3.58,4-3,8-12-1-15.81-10.19-20-19,10.41.59,5.31,16.69,20,13-3.8-6.2-6.92-13.08-6-24-.43-3.78,4.85-4.86,2-8-10.58,3.71-4.73,20-2,29-7.58-2.72-6.78-15.45-6-25,.5-6.11.51-12.74,2-18-10.71,4.15-4.42,20.31-6,30-11.06-7.13-6.54-26-9-42,6-10.84,8.07-25.86,17-36a18,18,0,0,0,9-7c-.59-2.08-2.1-3.23-3-5-6,2.26-14.65,6.85-19,13-3.39,4.79-8.25,13.7-4,18,3.42-8.58,6.34-17.66,14-22-7.61,12.67-18.31,29.65-18,50a101.78,101.78,0,0,0,16,52c-5.73,2.43-12.16-2.29-12-9-9.76-7.91-11.79-23.54-14-39-5.59,12.29,4.49,27.47,7,38,2.55,4.78,8.52,6.15,8,14h-9c.35-1.31,1.76-1.57,2-3-14.06-2.74-24-26.11-26-43-2.11-18.18,4.78-35.74,9-49-3.78.58-8.62,9.72-10,14-5.46,16.93-.91,40.52,4,55-4.82-4.63-8-15.66-9-25-.68-6.09,1.16-13.05,2-19-6.23.56-4.66,14.2-4,21a61.13,61.13,0,0,0,2,11c4.28,13.71,15.43,24.21,21,34-11.33-6-21.27-23.92-26-40-5.22-17.73,3.27-49.35,13-63,1.4-2,5.17-3.76,4-7-5.7-.32-11.42,9.63-14,16-4.3,10.62-6.64,26.43-8,38-1.42,12.09,5.33,26.78,10,36,4,7.82,9.78,14.16,13,20,9.89,4,18.52,10.37,31,9,4.81-4,8-7.36,17-5,2.28,6.68,6.31,11.45,11,17,4.14,4.91,7.06,14.34,14,19,2.34,9.32,8.83,14.51,13,22-5.45,2.22-11,4.36-13,10,1.85,4.89.21,7.76-2,11,.46,3.2,3.81,3.53,4,7-2.21.79.19,6.19-4,5,.19,3.47,3.54,3.8,4,7-1.07,6.26-6.53,8.14-11,11-4.51-1.23-13.57-4.85-15-11-1.14-4.91-.78-13.62,7-13-.14,5.89-4.28,6.62-3,12,1.65,6.92,12.19,9.09,16,2-2-2,.24-6.14-1-9-3.73-8.6-22.54-13.62-21,3-3.66.66-3.84-2.16-7-2,2.08,4,5.61,5,8,9s2.81,10.56,7,14c4.66,1.91,6.6.5,10,3,11.85-12.82,29.66-19.67,41-33-.64-5.69-6.49-6.18-6-13-9.17-10.5-17.6-21.73-24-35-2.74-4.59-9-5.69-8-14,7.08.28,11.73-4.37,16,1,9.38-1.62,11.32-10.68,23-10,2.91-6.4,10.59-4.44,16-4,4.81-1.19,5.59-6.41,7-11,2.66,0,5.71-.38,7,1,.7,3.7-4.27,1.73-5,4,4.07,6.54,16.39-.54,20-4,12.6-.07,22.33-3,30-8,4.65-1,6,1.3,9,2,3.39-3.15-3.68-5.56-1-8,10.76,4.88,7,22.64,6,35-8.79,1.7-9,.48-18,2a9.82,9.82,0,0,1-5,6c1.41,4.88,9.13,4.73,12,3,1.31-4.31-4.76-1.24-4-5,6.37.53,9.59-2.17,13-2,2.42.93,3.44,6.26,2,8-4.33.13-2.46-5.93-7-3-.87,4.21,3.32,3.35,5,5,.25,3.59-3,3.66-3,7-2.87-1.5-2.11-7.22-7-4,.19,2.81,1.74,4.26,5,4-5.21,18.12,16,6.28,27,5,6.24,4.2.92,15.62,0,23-1.35,10.82,1.76,23.15-1,29-3.57,1.43-6.45,3.55-11,4-1.23-3.24,3.23-.76,2-4-2.82-1.51-6.9-1.77-11-2-6.2-6.81-17-5.91-28-10-19.48-7.21-46.31-15.66-66-25,1.09-6.3,6.4-1.77,10-2,4.39-.29,9-1.56,14-2,13-1.15,27.6-.42,36-5,.43,2.24,4.93.4,7,1-2.59,4.52,4.83,3.4,7,6a25,25,0,0,0,0-13c-5.7-1-5.18,4.15-10,4-.3-2.63,3.88-.79,3-4a4.71,4.71,0,0,1-1-3c-5.57-1.9-3.53,3.8-7,4-3.63,1-.84-4.49-4-4-5.92,4.21-14.76-1.46-20,6-5.9-.91-13-2-15,3-1.79.13-2.11-1.22-4-1-3.14-.47-2.64,2.69-5,3H474c-4.6-7.74-9.06-15.6-13-24,23.29.23,42.71-.23,63,4,.64-2.69,3.86-2.81,4-6,1-3.62-4.32-1-5-3,1.17-2,3.28-5.6,1-8-4.2,1.75-2.67,4.45-5,9-4.38-.18-5.14,3.25-9,1-3.47.14-1.6-5.07-5-5-10.61,8.32-32.67-.79-44,7-3.94.27-3.06-4.27-7-4-2.56,2,2.54,4.73,4,6,4.63,12.7,13.24,21.43,17,35,3.84,6,12.94,12.68,15,19,2.52,7.73-11.34,15.55-17,20-7.33,5.76-16.45,10.7-22,18,8.19,10,1.92,20.74-4,29-6.25,8.72-15.74,21.91-24,26-5.43.76-7.75-1.58-13-1,.16,1.16-.22,1.78-1,2,5.69,10.37,17.51-.59,28,0,7.86-7,21.23-10.67,23-23,1.21-8.41-4.35-16.24-4-27,8.32,1.09,10.05,9.2,10,16,4.37.7,2.13-5.2,5-6,12.8,9.8-3.14,30.47-1,42,8.54.87,7.15-8.18,14-9,2.35-6.15-.11-18.42,1-23,8.65,5.75,8.61,48.16-15,39,0,9.16,12.66,7.3,16,2,1.76,2.24,1.84,6.16,7,5,6.92,34.65-8.79,61.12-27,77,.78-6.3,7.15-10,11-16,6-9.3,10-20,13-34-1.39-1.27-.43-4.9-3-5-2.42,15.91-5.85,30.82-15,40-3,1-1.77-2.23-2-4-3.95,2.39-5.79,6.88-11,8-.16-3.16,2.66-3.34,2-7,16-1.67,18.46-16.87,22-31a7.07,7.07,0,0,0-3-2c-3.9,2-1.33,6.82-2,10-1.48,7-7.24,20.55-16,21,6.81-6.86,14.76-12.57,14-27-4,0-2.78,5.22-3,9-4.16,3.34-5.25,14.52-12,12,3.83-4.32,11.21-9.92,9-17-5,1.63-2.86,10.48-8,12a21.64,21.64,0,0,1-8-13c9.07-4.27,17.81-8.86,20-20-9.51,4.28-12.54,16.32-23,20-2.62.92-5.86.14-9,1,12.79-6.16,31.74-15.87,27-33-3.65,1.14-1.27,4.87-2,7-3,8.71-10.83,14.94-18,19,3.65-6.68,9.36-11.31,8-23q.18-3.82,4-4c.11-9.46,6.29-21.81-3-25-3.57.85-.12,2.46-1,6-4.11,6.22-5.54,15.13-13,18,.4-5.93,3.85-8.81,4-15-3.82-2.3-5.18,5.12-8,7-2.41,3.25-5.36,6-7,10-11,4.2-23,13.46-36,7,5.58-4.08,15.7-3.64,21-8-6.84-4.26-18-.57-27,0-1.45.09-3.5-1.2-5-1-11.65,1.59-22.45,7.48-28,15,6.55.35,10.52-7.3,18-10,8.94-3.23,18.95-.74,30-3-5.68,5.65-20.35,4.21-26,7,2.17,3.06,5.63-1,9,0-3.11,3.85-9.36,3.06-15,5-6.88,2.36-11.15,8.11-22,6-7.85-1.53-10.27-8.86-17-13-1,4.06,4.27,10.38,10,11,1,5.67,5.43,7.9,8,12,5.75-.25,7.54,1.37,12,1,15.86-1.31,26.89-25.19,34-4,3.26,0,5.21,3.65,8,5s7.69.39,9,4c-4.8.72-10.87.41-14,5-2.5.17-3.13-1.54-4-3-14.15,3.07-37.86.74-51,8-1.84,1-2.91,3.72-5,5-1.89,1.16-4.39.79-6,2a39,39,0,0,0-12,16c1,2,3.84,2.16,7,2,3.49-1.51,4-6,6-9,8.3-4.23,17-7.16,26-11,1.33-.57,2.68-2.58,4-3,7.81-2.47,17.25-1.7,26-3,7.86-1.17,19.44-2.89,29-5-2.09,4.25-6.22,6.44-12,7-.23,7.77-2.92,13.08-5,19,2.64,5,5.08,10.26,8,15-3.27,4.09-.18,8.94-1,16,5.63,7.26,20.39-.55,24,8-1.55,8.19-12.09,5.76-16,1-1.44.23-.35,3-2,3,2.64,16.1,28.45,6,20-8a59,59,0,0,0-7-3c7.31-4.61,15.7-.15,21,3,.65,4-2.65,4-2,8,10.57-.28,2.83-14.69-3-14,4-1.95,11.28,1.36,13,5,0,5.27-6.64,11.45-1,16,4.94-6.15,8.66-18.56,20-15-1.6,4.74-5,7.67-6,13-3.54-.8-2.83-5.84-6-7-1.48,4.78,5.11,9.34,4,17-12.94,1.56-21.77,18.15-12,28a7.07,7.07,0,0,0,2-3c1.8,1.22-1.12,6.14,0,10C442.51,552.18,448.32,584.66,429,592ZM280,487a96.68,96.68,0,0,1,11,6c2.8-.53,1.85-4.82,3-7,9.39,3.23-.23,11.87-4,14C283.8,499,274.86,493.06,280,487Zm-27-92q4.7-.7,4,4C254.46,398.88,253.12,397.54,253,395Zm44-8c5.37,2-2.12,6.76-3,9C290.67,392.6,297.79,391.18,297,387Zm-14,11c7.63-7,14.33-15,15-29,.89.44,1.79.88,2,2C299,384.69,294,394.32,283,398Zm43,10c3.46.2,1.82,5.51,3,8,3.7-.3.45-7.55,5-7-1.68,8.32-3.72,16.28-11,19C319.92,421,327.34,416.52,326,408Zm-18-17c10.24.1,26.54,2.79,26,17C324.45,403.22,319.55,393.78,308,391Zm1,38c.87-1.46,1.5-3.17,4-3C313.3,428.64,311.62,429.28,309,429Zm-13-9c1.29,1.38,4.34,1,7,1C303.6,425.95,295.58,423.61,296,420Zm49-57c-5,3.32-11.43,5.24-17,8C327.9,366.54,338.89,364.57,345,363Zm-12,0c1.79.13,2.11-1.22,4-1C336,362.54,332.58,367.18,333,363Zm9-2c.24-1.76,1.72-2.28,4-2C345.34,360.34,343.86,360.86,342,361ZM206,333c3.14-6,3.2-15.15,9-18,.92,7.93-7.55,15.11-11,22C201,334.28,205.05,334.81,206,333Zm-14,10c3.66-7.35,7.54-19.79,15-20C204,331.67,201,340.33,192,343Zm21-29c1.66-2,2.68-4.65,6-5C218.77,312.44,216,313.36,213,314Zm100-15a66.34,66.34,0,0,0-16,14C297.3,308.92,305.39,300.14,313,299ZM246,131c-5-5.06-7.24-18-7-25C241.77,113.89,242.81,123.52,246,131Zm61,35c-3.62.27-6.8-2.9-5-5A5.46,5.46,0,0,1,307,166Zm19,0c-4.48-1.2-1.85-5-2-9,2.09-.42,2.65.69,4,1C327.69,161,324.91,161.57,326,166Zm7-13h4c-1,8.43-2.83,12.56-1,20,9.46,2.79,5.63-7.7,11-9,3.2,9.12-2.7,15.31-12,15-1.92-5.08-5-9-7-14C328.68,160,332.88,158.54,333,153Zm5,18c.13-1.79-1.22-2.11-1-4C342.69,164.07,343.34,170.67,338,171Zm0-7c-1-4,3.74-10,6-14C350.94,153.56,344.39,164.37,338,164Zm1-12c-11.28-1.72-19.19-6.81-20-19,3.53,2.46,5.12,6.88,9,9,6-.3,10.93.4,14,3C341.74,148.07,339.83,149.5,339,152Zm-38,60c.66-3,2.14,1,4,0,.88,3.21-2.59,2.07-3,4C298.49,215.73,304.51,212.27,301,212Zm-11-6c2.79-1.81,7,1.92,10,3a4.67,4.67,0,0,1-4,4C300.17,207.86,290.69,209.44,290,206Zm207-38c6,4.34,7.89,19.48,3,26C496.17,188.37,502.42,177,497,168Zm-6-3c-2.48-3.44-9.48-6.84-8-11C487.78,155.55,490.24,159.43,491,165Zm-24-50c-1.58,4.08-5.2,6.13-7,10C457.74,121,462.1,115.13,467,115Zm-14,26c-5.16.79-4.12-5.2-3-8C453.46,133.2,451.82,138.51,453,141Zm-24,49v5c-1.17-1.5-2.89-2.45-3-5Zm-21,0c-.28,2.32-2.67,2.3-4,1C404.28,188.68,406.67,188.7,408,190Zm43,91c2.79-2.67,4.94.94,8,1,10.84-.67,12-21.48,2-24-5.86-2-6.21,5.06-10,2,7.34-15.35,25.33-.52,21,16-1,3.79-7.54,9.63-9,10C457.7,287.36,451.81,286.34,451,281Zm1,8a6.51,6.51,0,0,1,5-1C458.68,292.75,451.24,293.51,452,289Zm5-18c-2.11.89-3,3-6,3-2.65-1.79-1.49-6.1,1-8C454.06,267.28,457.07,267.6,457,271Zm-1-8c2.9-1.95,2.59-3.3,7-2a21.56,21.56,0,0,1,0,17c-2.29.64-6,2-8,0C458.76,273.26,459.87,268.44,456,263Zm-14,24c-.35,6.91-12.37,5.84-12-1C434,286.37,439.58,285.08,442,287Zm-6-10c3,.09,2.68,6-1,5C432.83,279.92,435.12,278.77,436,277Zm85-36a2.76,2.76,0,0,1-3,2C517.53,240.87,519.43,241.1,521,241Zm3,1a5.62,5.62,0,0,0,1-4c3.74-1.07,2.85,2.48,6,2C529.49,241.49,526.61,241.61,524,242Zm-4-23c.34-1.21,2.66-.81,3,0C523.91,221.16,519.34,221.32,520,219Zm-60,92v6c-2.81-.19-4.26-1.74-4-5C457.79,312.13,458.11,310.78,460,311Zm-28,56c9.32-8.68,16.07-19.93,23-31C460.7,352.12,445.24,363.27,432,367Zm-40,30c.24-1.76,1.72-2.28,4-2C397,398,393.77,396.77,392,397Zm-2,2c-.12,2.21-4.24.42-6,1C385.33,398.57,388.45,397.35,390,399Zm-13,9c-6.77,2.78-20.78,7.5-25-1,9,1.93,20.32-1.4,26-6C383,401.67,374.65,403.57,377,408Zm39,15c-.11,2.55-3.35,2-6,2C410.11,422.44,413.35,423,416,423Zm46,144c-3.17,4.36-4.16,13.24-11,11,7.1-6.23,9.62-17,17-23,1,0,.78,1.22,1,2C470.14,561.92,464.48,563.59,462,567Zm8-21c-.28-2.61.36-4.3,3-4C472.58,543.91,472.64,546.3,470,546Zm7,14c1.61-.28,1.72.95,3,1,.13,1.79-1.22,2.11-1,4,1.76,3,2.08-3.83,5-3-.83,7.84-3.9,13.43-12,14C474.5,568.17,476.15,565.73,477,560Zm11,108c6.53,3.47,10.35,9.65,18,12,4.65-3.83,9.21-.44,13,2,.37,1.7-.78,1.89-2,2,3.79.92,6.08,5.66,11,8-7.33,1-18.06-13.15-34-9a11,11,0,0,0-7,6C476,684.91,479.84,672.54,488,668Zm7,44c.88-3.95,4.75-6,4-10,4.56-1.25,7.39-2.54,11,0-5.23,22.43-20.24,35.09-40,43-1-2.07.91-9.27-1-13,4.92-1.75,9.56-3.78,12-8,4.11,1.63,6.85,3.64,9,3C497.76,724.67,493.36,719.34,495,712Zm-31,8c4.58-.76,7.12-3.55,10-6,3.74.59,3.1,5.57,6,7-3.7,3.63-7.09,7.58-14,8C465.56,725.78,464.08,723.58,464,720Zm0,12q-7.65,1.35-12,6c-5-6.23,1.32-16,10-15C462.25,726.41,464.53,727.8,464,732Zm21-9c.85-3.86,4.27-9.22,8-7C493.89,721.59,489.13,725.62,485,723Zm-3-4c-3.61-.72-3.59-5.07-4-9,5.83.16,5.07-6.26,8-9C494.61,705.27,489.65,717.33,482,719Zm-5-34c10.1,5.56,8.86,19-2,23C471.27,700.47,476.82,694.16,477,685Zm-7,19c2.79.88,3.32,4,4,7-4,2.38-6.35,6.32-12,7a10,10,0,0,0-3-6C461.08,707.75,467.32,707.65,470,704Zm-10-8c4.24-.24,7.92.08,9,3-.34,5.58-7.84,8.48-11,8C457.2,701.86,459.07,699.4,460,696Zm-29,65c-1.56-12,12-16.26,10-27-.69-3.75-3.3-4.52-6-8,3.59-8.41,13-11,22-14,1.45,1.55,2.1,3.9,3,6-3.42,4.58-10.38,5.28-12,11-1.09,3.87-.4,11.54,2,16,3.08,5.72,9.85,4.58,11,11C454,760.64,439.84,767.28,431,761Zm34-9c-3.19.86-3.09-1.57-5-2,1.33-1.43,4.45-2.65,6-1A4.71,4.71,0,0,0,465,752Zm-12-11c1.13-5.54,8.91-4.43,12-8C475.29,741.34,456.22,754.44,453,741Zm36,2c-3.34,8-12,10.69-22,12,.06-8.94,9-9,17-10,5.17-5.83,10.08-11.92,16-17C501.64,734.32,495.9,741.89,489,743Zm42-9c-1.58,4.42-4.53,7.47-8,10C519.6,739,526.61,731.28,531,734Zm-8-9c2.41-.41,2.17,1.83,5,1C528.18,727.63,521.46,728,523,725Zm3,5c-2.36,4-7.27,5.4-8,11-3-1.45,1.32-3.9,0-7,1.79.11,7.11-3.45,2-4C521,727.18,524.25,730.28,526,730Zm-14-9c.34,5.71-5,11.63-10,15,4.07-5.93,2-18,10-20-.52-4.35,6.15-17.61-3-19-9.85-1.5-11.53-1.45-16,9-1.36-3.31-2.91-6.42-4-10,7.84-17.52,36.41-3.66,42,8C517.06,702.06,522.24,719.24,512,721Z"/><path d="M268,347c5.57.55,7.32-11.34,12-15,1.35,11.43-9.56,19-15,27-5,0-11,1-12-3,6.14-3.18,14.91-8,12-17,9,2,1.53-12.47,9-12C274.69,336.36,272.48,342.82,268,347Z"/></svg>