<svg xmlns="http://www.w3.org/2000/svg" xmlns:xlink="http://www.w3.org/1999/xlink" viewBox="0 0 2041.25 2812.5"><defs><style>.a{fill:none;}.b{fill:#9cd7d4;}.c{clip-path:url(#a);}.d{fill:#ffee80;}.e{clip-path:url(#b);}.f{opacity:0.4;}.g{fill:#995900;}.h{clip-path:url(#c);}.i{opacity:0.2;}.j{fill:#ffe640;}.k{clip-path:url(#d);}.l{opacity:0.3;}.m{fill:#a16700;}.n{fill:#ffd1a8;}.o{clip-path:url(#e);}.p{fill:#fff;}.q{clip-path:url(#f);}.r{fill:#f0b986;}.s{fill:#d9a26d;}.t{fill:#c41216;}.u{clip-path:url(#g);}.v{fill:#660042;}.w{fill:#ebb583;}.x{clip-path:url(#h);}.y{fill:#2f0073;}.z{clip-path:url(#i);}.aa{clip-path:url(#j);}.ab{clip-path:url(#k);}.ac{clip-path:url(#l);}.ad{fill:#a6004f;}.ae{clip-path:url(#m);}.af{clip-path:url(#n);}.ag{clip-path:url(#o);}.ah{clip-path:url(#p);}.ai{fill:#ba7e2e;}.aj{fill:#8b0004;}.ak{fill:#d9a26c;}.al{clip-path:url(#q);}.am{clip-path:url(#r);}.an{fill:#f5d712;}.ao{fill:#ffe430;}.ap{fill:#ebc212;}.aq{clip-path:url(#s);}.ar{opacity:0.5;}.as{fill:#003f9e;}.at{clip-path:url(#t);}.au{clip-path:url(#u);}.av{clip-path:url(#v);}</style><clipPath id="a"><rect class="a" width="2041.25" height="2812.5"/></clipPath><clipPath id="b"><polygon class="a" points="1092.52 404.2 1470.04 404.2 1470.04 927.46 1092.52 927.46 1092.52 404.2 1092.52 404.2"/></clipPath><clipPath id="c"><polygon class="a" points="1058.81 210.49 1878 210.49 1878 947.79 1058.81 947.79 1058.81 210.49 1058.81 210.49"/></clipPath><clipPath id="d"><rect class="a" x="1206.19" y="448.16" width="217.41" height="559.04"/></clipPath><clipPath id="e"><rect class="a" x="479.48" y="1175.05" width="203.85" height="95.74"/></clipPath><clipPath id="f"><rect class="a" x="492.94" y="985.87" width="282.25" height="180.86"/></clipPath><clipPath id="g"><rect class="a" x="725.9" y="764.41" width="171.98" height="421.4"/></clipPath><clipPath id="h"><polygon class="a" points="197.21 1375.86 1304.25 1375.86 1304.25 2667.18 197.21 2667.18 197.21 1375.86 197.21 1375.86"/></clipPath><clipPath id="i"><polygon class="a" points="186.11 2255.66 543.99 2255.66 543.99 2610.88 186.11 2610.88 186.11 2255.66 186.11 2255.66"/></clipPath><clipPath id="j"><polygon class="a" points="284.59 2273.44 1279.86 2273.44 1279.86 2554.04 284.59 2554.04 284.59 2273.44 284.59 2273.44"/></clipPath><clipPath id="k"><rect class="a" x="1272.21" y="2275.95" width="30.01" height="39.81"/></clipPath><clipPath id="l"><rect class="a" x="1140.31" y="2346.73" width="213.26" height="320.45"/></clipPath><clipPath id="m"><polygon class="a" points="315.99 1216.61 1166.39 1216.61 1166.39 1681.52 315.99 1681.52 315.99 1216.61 315.99 1216.61"/></clipPath><clipPath id="n"><rect class="a" x="304.91" y="1142.17" width="1221.18" height="562.01"/></clipPath><clipPath id="o"><rect class="a" x="980.76" y="981.87" width="335.67" height="110.9"/></clipPath><clipPath id="p"><polygon class="a" points="800.36 281.11 1368.8 281.11 1368.8 728.86 800.36 728.86 800.36 281.11 800.36 281.11"/></clipPath><clipPath id="q"><rect class="a" x="1290.42" y="338.86" width="34.97" height="23.18"/></clipPath><clipPath id="r"><polygon class="a" points="1181.86 288.81 1756.63 288.81 1756.63 837.21 1181.86 837.21 1181.86 288.81 1181.86 288.81"/></clipPath><clipPath id="s"><polygon class="a" points="1076.46 178.01 1648.16 178.01 1648.16 577.04 1076.46 577.04 1076.46 178.01 1076.46 178.01"/></clipPath><clipPath id="t"><rect class="a" x="732.74" y="579.61" width="175.96" height="365.34"/></clipPath><clipPath id="u"><polygon class="a" points="695.81 641.73 1319.29 641.73 1319.29 993.34 695.81 993.34 695.81 641.73 695.81 641.73"/></clipPath><clipPath id="v"><polygon class="a" points="706.21 777.7 880.95 777.7 880.95 987.61 706.21 987.61 706.21 777.7 706.21 777.7"/></clipPath></defs><title>Монтажная область 1</title><path class="b" d="M1610.77,2475.75H430.48a21.7,21.7,0,0,1-21.63-21.63v-2288a21.7,21.7,0,0,1,21.63-21.63H1610.77a21.7,21.7,0,0,1,21.63,21.63v2288a21.7,21.7,0,0,1-21.63,21.63"/><g class="c"><path class="d" d="M1199.59,234.27c-1.4-17.07,15.42-45,28.6-52.67,28.31-16.44,70.6-9,99.3,1.77,73.3,27.41,130.37,89.44,202,121.84,73,33,156.14,8.51,230.21,40.17,71.8,30.69,116.15,100.07,118.3,164.55-11.72-82.95-92.47-130.82-169.17-132.78-45.7-1.17-85.4-.07-129.93-13.05-30.95-9-81.62-22-106.07-43.69,11.52,12.78,45.29,44.34,58.15,59.3,19.64,22.85,38.86,47.21,54,73.28,29,49.85,36.13,104.55,56.72,157.27,19.34,49.53,37.93,110.62,7,160.59-23,37.19-75,76.5-114.37,93.92,22.77-27.81,33-44.79,41.27-72.25,8.41-27.9,7-57-2.1-84.48-19.24-58.12-73.15-92.92-121-127.12,27.86,24.57,56,59.46,69.12,94.4,15.42,41,.95,70.79-10.52,109.87-11.16,38-18.37,79.49-7.37,118.46,11.15,39.49,37.91,61.81,67,88-62.45-38-145.06-64.73-160.66-145.88-8.1-42.15.37-87.41-10.17-128.64-7.76-30.38-41.2-75-71.57-86.76,35.9,40.14,23.54,113.43.08,156.52-28,51.4-100,90-157.65,93.81,30-17.6,46.15-32.16,52.91-51.84,5.62-16.38,7.57-34.23,10.49-51.21,5.73-33.21,16.54-67.88,7.74-101.57-10.07-38.56-36.35-57.05-68.91-76.4-31.8-18.9-72.4-27-78.55-69.18-5.54-38,3.2-77.38-6.68-114.27-9.79-36.56-27.6-70.92-31.23-109-2.88-30.19,5.81-54.56,32.53-70.37,40.23-23.8,75.35-26.27,110.43-2.58"/><g class="e"><g class="f"><path class="g" d="M1458,861.3a262.48,262.48,0,0,1,1.47-37.63c2.19-18,8-35.25,8-53.5a2.6,2.6,0,0,1,2.13-2.64c.14-3,.32-6,.42-9a254.19,254.19,0,0,0-5.22-54.29c-6.35-30-22-52.55-44.52-72.77-21.53-19.32-43.78-36.28-60.7-60.12a386,386,0,0,1-26.32-43.47c-5.84-11.05-11.67-22.53-21.14-31-13.41-12-32.45-14.78-48.78-21.15-13.19-5.14-25.87-11.77-35.79-22-10.2-10.55-17.68-23.34-27.51-34.19-4.61-5.08-10.26-11.48-16.72-14.1-8.68-3.51-15.65,1.21-23.48,5.34-26.74,14.09-48.23,33.27-67,55.88-.1,21.27-1.42,42.78,1.66,63.89,6.15,42.19,46.75,50.28,78.55,69.18,32.56,19.35,58.85,37.84,68.91,76.4,8.79,33.69-2,68.36-7.74,101.57-2.93,17-4.88,34.82-10.49,51.21-6.75,19.69-22.94,34.24-52.91,51.85,35.19-2.31,75.75-17.63,108.38-40.91,0,0,.06-.09.11-.14q5-5,9.65-10.21c8.24-10.14,16.25-20.68,23.55-31.63,6-9.9,11.72-20.07,17.39-30.23,1.06-2.21,2.06-4.43,3-6.67a203.54,203.54,0,0,0,8-30.86c.67-5,1.21-10,1.79-15a149.29,149.29,0,0,0-26.62-83.44c-.58-.82-16.12-20.23-21.7-25.88-2.36-2.39,15.59,9.17,15.9,9.4,6.94,5.07,13.74,10.12,19.81,16,29.91,12.74,62.26,56.23,69.88,86,10.54,41.23,2.07,86.49,10.17,128.64,6.93,36.05,27.11,61.33,52.85,81.66a292.05,292.05,0,0,1-5-66.17"/></g></g><g class="h"><g class="i"><path class="g" d="M1873.41,477.32c-21.76-47.72-59.06-87.95-106.09-112.57a211.61,211.61,0,0,0-93.23-24.38c-41.25-.93-82.73,5.22-122.76-8-31.33-10.32-57.88-29.48-82.94-50.44-29-24.29-57.88-53-94.08-66.39-32.82-12.11-78.33-3.06-92.65,32.9-7.52,18.88,1,43.05-8.47,61.32-10.59,20.48-43.45-5-53.37-15.35-7-7.24-11.5-16.63-15-26.24a9.61,9.61,0,0,1-2.37-3.57c-9.43-24.47-40.41-26.69-62.84-24.56-24,2.28-50,10.91-64.48,31.38-8.41,11.88-12,31.44-16.31,50.91,6.09,32.24,20.57,62.25,29,93.91,3.49,13,4.64,26.35,4.93,39.82,18-20.55,38.41-38.11,63.41-51.29,8.43-4.44,18.32-11.26,27.85-7.06,12.76,5.62,22.43,18.06,30.62,28.77,12.79,16.72,23.74,30.47,43.42,39.53,14.41,6.63,30.39,9.37,44.63,16.24,26,12.52,35.19,41.66,49.29,64.67,10.08,16.46,21,32.76,34.85,46.31,10.67,10.43,22.7,19.54,33.94,29.35,19.45,17,36.53,35.81,45.46,60.46,6.88,19,9.87,38.22,10.73,57.57a3.42,3.42,0,0,1,.38,1.63c0,2.19-.1,4.37-.14,6.56.26,18-1.1,36-2.75,54.09-1.64,23.64-3.34,47.28-3.25,71,0,1.92.06,3.82.1,5.72a2.76,2.76,0,0,1,3.94,2.48c-.1,27,12.9,48,30.58,65.65a103.85,103.85,0,0,1-13-30.93c-5.49-23.16-4-46.61.25-69.74a231.3,231.3,0,0,1,6.34-28.4c1.79-7,3.67-14,5.53-20.84,6.76-25,14.71-52.2,15.48-78.86a132.24,132.24,0,0,0-14.25-50.45c-11.29-20.73-27.22-39.16-43.79-55.62A327.52,327.52,0,0,0,1437,591.88c-4.92-3.57-9.89-7.07-14.81-10.62q-9.13-6.28-18.41-12.14a9,9,0,0,1-4.18-5.92c-.43-.4-.86-.78-1.28-1.18-8.62-8.19,4.14-21.48,12.73-13.32,11.79,11.2,25.84,18.9,38.77,28.58,4.94,3.69,9.66,7.7,14.27,11.85,44.67,31.7,91.76,65.43,109.46,118.94,9.1,27.51,10.51,56.58,2.1,84.48-8.27,27.46-18.5,44.44-41.27,72.24,21-9.29,45.57-24.8,67.43-42.89A152.13,152.13,0,0,0,1610,809c17.64-31.08,25.46-66,25.23-101.6-.48-76.27-32.93-148.31-77.86-208.65-3.73-5-1.11-10,3.21-12.23a366.27,366.27,0,0,0-36.67-38c-8.87-7.94,3.91-21.21,12.73-13.32,33.47,30,61.33,65.93,82.86,105.39-8.78-29.93-18.18-59.55-34.49-87.63-15.14-26.06-34.36-50.42-54-73.28-12.86-15-46.63-46.52-58.15-59.3,24.45,21.66,75.12,34.67,106.07,43.69,44.53,13,84.24,11.88,129.93,13.05,76.7,2,157.45,49.83,169.17,132.78a159.87,159.87,0,0,0-4.6-32.62"/></g></g><path class="j" d="M1222.71,475.44c-5.6-3.38-11.09,15.12-12,18-7.64,23.56-4.65,47.91,2.55,71.15a117.84,117.84,0,0,0,18.32,40q19.1,27.41,40.74,52.86c19.88,26.61,38.9,54.56,44.55,88.16,5.15,30.67-3.8,59.34-6.36,89.65A204.9,204.9,0,0,0,1323.32,927c8.54,22.5,22.72,42.74,37.15,61.81,7.68,10.15,15.64,20.64,26.33,27.79-12.62-13.61-16.74-33-20.73-50.54-6.17-27.19,1.47-76.1-2-71.3a90.81,90.81,0,0,0,9,39.3q11.22,24.82,24.84,48.41a87.52,87.52,0,0,0,7.59,13.57,440.19,440.19,0,0,1-17.2-60.45c6.57,15.17,11.11,31.35,19.28,45.82,5.9,10.46,14.29,27.42,24.72,33.6-19.64-40.06-26.61-87-27.85-131.23-.56-19.92.77-39.2,5.18-58.62,4.25-18.67,12.09-36.46,17.47-54.8,5.87-20,9.68-42.91,8.07-63.83-1.63-21.37-7.26-41.3-14.64-61.38s-15.66-39.58-22.1-59.85c-6.83-21.51-7.11-42.5-11.69-64.35l-5.7-22.78A48.2,48.2,0,0,0,1364.2,472a46,46,0,0,0-25.16-15.4L1316.92,451c-19-4-37.79-4.38-56,2.68-10.33,4-21.12,8.22-31,13.29-4.23,2.18-10.93,6.35-12.72,11.25-1.43,3.92.37,8.62-3,12.08-.5-.21-1-.41,8.49-14.89"/><g class="k"><g class="l"><path class="m" d="M1214.22,490.33c-.34-.14-.67-.29,2.12-4.91a8,8,0,0,1-2.12,4.91m209.38,516.88c-6.85-13.55-13.38-27.12-18.12-41.68-12-36.91-14.45-75.57-10.42-114.05,4.11-39.22,15.65-76.52,23-115.08,3.76-19.76,5.75-40.16,3.35-60.22-2.08-17.45-6.95-34.43-8.88-51.9-5-12.88-10-25.76-14.13-38.91-6.83-21.51-7.11-42.5-11.69-64.35l-5.7-22.78A48.2,48.2,0,0,0,1364.2,472a46,46,0,0,0-25.16-15.4L1316.92,451c-19-4-37.79-4.38-56,2.68-10.33,4-21.12,8.22-31,13.29-4.1,2.11-10.47,6.09-12.49,10.8-3.42,4.64-6.13,13.7-6.77,15.67-7.64,23.56-4.65,47.91,2.55,71.15a117.83,117.83,0,0,0,18.32,40q19.1,27.41,40.74,52.86c19.88,26.61,38.9,54.55,44.55,88.16,5.15,30.67-3.8,59.34-6.36,89.65A204.9,204.9,0,0,0,1323.32,927c7,18.51,17.87,35.47,29.53,51.52-1.65-9.58-2.94-19.22-3.93-28.88a203.85,203.85,0,0,1-2-30.65c-.44-14.28-.22-28.6.74-42.9,1.42-21.06,4-42.3,9.07-62.82,3.62-14.69,8.21-29.09,11.68-43.73,7.52-53.43-.6-89.5.41-86.26,1,3.08,14,65.93,9.54,92.21-.13.75-14,122.06-14.13,123.77A90.79,90.79,0,0,0,1373,934.1q11.22,24.82,24.84,48.41a87.41,87.41,0,0,0,7.59,13.56,440.14,440.14,0,0,1-17.2-60.45c6.57,15.17,11.11,31.35,19.28,45.82,4.17,7.37,9.57,18,16,25.76"/></g></g><path class="n" d="M772.69,985.87c-15.66,20.89-33.48,40.14-49.41,60.81-14,18.24-25.73,39.16-41.07,56.29-16.06,17.94-37.62,29.06-60.15,36.3-22,7.08-44.66,17-67.29,21.27-14,2.62-29,2.44-43.14,3.63-8.1.68-16.59.75-24.61,2.07-5.42.89-9.63.26-12.12,4.19,7.85,19.62,26.46,18.08,43.86,18.08,8.06,0,16.63.86,24.55-.49,9.38-1.61,17.12-5.21,26.73-5.21-17.26,9.41-32.52,18.36-48,30.28-15,11.48-30.24,23.13-47.1,31.56,5.9,5.9,7,6.95,15.47,7.05,4.06,0,19-1.82,19.85-5.27-.75,3-7.16,10.93-4.22,14.39,2.05,2.42,15.06-.16,18.6-1,12.16-3,20-10.49,29.79-18,9-6.91,18.69-13.26,26.47-21.56,5.65-6,19.13-24.55,28.19-22.2-6.76,12.17-13.07,24.09-21.41,35.21-9.35,12.47-13.49,23-17.6,38,9.28,0,11.52-1,17.83-8.31,3.55-4.12,6-9.1,9.35-13.42,7.43-9.67,22.85-22,26.57-33.84.83-2.64,9.41-9.74,11.45-10.29,6.58-1.77,14.27-2.8,20.52-5.54,12.63-5.55,23.32-15.21,36.06-20.87-6,9.77-11.8,19.66-18,29.32-2.13,3.33-7.16,8.19-7.71,11.94-1,6.56,9.5,9.5,14.67,9,9.82-.93,18.92-14.62,23.43-22.24,6.43-10.88,11.59-22.63,18.61-33.16,6.32-9.48,15.45-13,21.28-23,4.89-8.32,9.92-18.41,9-28.12-1.09-11.33-4.69-26.29-.67-37.56,3-8.38,13.78-16.13,20.42-22.44,4.38-4.16,10.36-7.81,11.23-14.06s-2.21-14.89-3.35-21.18c-2.52-13.92-5.26-27.81-8.06-41.68"/><g class="o"><g class="l"><path class="p" d="M642.42,1191.61c-5,1.35-8.34-2.22-8.86-6.13-2.12,0-4.24-.1-6.36-.25a7.46,7.46,0,0,1-5.73-3.2,106.86,106.86,0,0,1-24.66-2.73,6.44,6.44,0,0,1-4.77-4.25c-7.56,1-15.13,1.82-22.65,2.78A443,443,0,0,1,504.1,1181a178.89,178.89,0,0,1-24.62-2.68c9.23,11.27,24.67,10.23,39.28,10.23,8.06,0,16.63.86,24.55-.5,9.38-1.61,17.12-5.21,26.73-5.21-17.25,9.41-32.52,18.36-48,30.28-12.42,9.54-25.08,19.16-38.67,27,31.24-14.2,61.45-31,85.33-55.56,6.46-6.63,16.81,3.3,10.37,9.91-24.45,25.13-55,42.54-86.8,57.21,5.54-.35,17.22-2.16,18-5.2-.75,3-7.16,10.93-4.22,14.39,2.05,2.41,15.06-.16,18.6-1,12.17-3,20-10.49,29.79-18,9-6.92,18.69-13.26,26.47-21.56,4.4-4.69,13.55-16.93,21.66-21,.72-1.55,1.47-3.09,2.16-4.66,3.73-8.46,16.25-1.44,12.55,7-10.79,24.44-25,47.15-40,69.27,3.94-.82,6.35-2.87,10.6-7.8,3.55-4.12,6-9.1,9.35-13.42,7.43-9.67,22.85-22,26.57-33.84.83-2.64,9.41-9.74,11.45-10.29,6.58-1.77,14.27-2.8,20.52-5.54a113.36,113.36,0,0,0,16-9.09,6.32,6.32,0,0,1,1.57-2.47q5.08-4.94,10-10a382.37,382.37,0,0,1-40.91,13.31"/></g></g><g class="q"><g class="l"><path class="p" d="M734.34,1071.63c6.6-27.47,24.91-49.9,40.7-73l.15-.22c-.83-4.19-1.65-8.37-2.5-12.56-15.66,20.89-33.48,40.14-49.41,60.82-14,18.24-25.73,39.16-41.07,56.3-16.06,17.93-37.62,29.06-60.15,36.3-22,7.08-44.66,17-67.29,21.27-14,2.62-29,2.44-43.14,3.63-6.13.52-12.48.69-18.69,1.31a148.36,148.36,0,0,0,16.28,1.21,472.8,472.8,0,0,0,65.1-3.86c20.29-2.55,40-5.62,59.76-10.75,8-2.09,16.51-4.22,25-4.94,4.17-1.45,8.35-2.87,12.59-4.1,22.4-6.46,48.75-12.07,62.69-31.5,1.29-2.15,2.5-4.34,3.65-6.57a84.72,84.72,0,0,0-1.41-26.41,6.59,6.59,0,0,1-2.24-7"/></g></g><path class="r" d="M702.67,1158.62c-1.13-2.55-44.2,13.88-48.23,14.36-9.08,1.07-17.09-1.14-25.75-3.69-12.61-3.71-22.65-4.71-35.54-2.13q-7,1.39-13.9,2.68c-11.12,2.78-22.22,5.65-33.56,7.39-20.2,3.11-49.06,5.65-69.43-3.85,8.48,16.51,26,15.15,42.5,15.15,8.06,0,16.63.86,24.55-.5,9.38-1.61,17.12-5.21,26.73-5.21l-.77.42c1.25.3,2.22,1.53,1.27,2.84-.67.93-1.42,1.78-2.15,2.65-8.91,15.21-26.18,24.36-40.23,34.13-10.51,7.31-21.32,14.15-32.05,21.11a99.69,99.69,0,0,1-12.47,7.09,28.11,28.11,0,0,0,6.74.65c4.06,0,19-1.82,19.85-5.27-.76,3-7.16,10.93-4.22,14.39,2.05,2.42,15.06-.16,18.6-1,12.17-3,20-10.49,29.79-18,9-6.91,18.69-13.26,26.47-21.56,5.22-5.57,17.11-21.75,26-22.35a2.15,2.15,0,0,1,3.43.89c3.24,9.32-9.46,23.71-13.84,31.31-5.68,9.84-11.88,19.37-17.35,29.33-2.12,3.86-4,7.85-5.89,11.82,6.7-.29,9.11-1.86,14.62-8.26,3.55-4.12,6-9.1,9.35-13.42,7.43-9.67,22.85-22,26.58-33.84.83-2.65,9.41-9.74,11.45-10.29,6.58-1.77,14.27-2.8,20.51-5.54,12.37-5.44,22.9-14.79,35.3-20.5,4.39-6.54,8.95-13,11.89-20.28a4.08,4.08,0,0,1-.27-.48"/><path class="s" d="M685,1168c-18.8,16.44-42,16.91-63.83,4.21a73.15,73.15,0,0,0-14.16-1.52,179.64,179.64,0,0,1-18.64,6.06A62.29,62.29,0,0,1,572,1183.9c.18.14.3.28.47.43,3.73.63,15.61-1.51,13.79,2.2-4.88,10-28.59,28.25-31.42,30.45-11.16,11.3-41.18,28-42.2,28.73s-2,1.39-3,2c-.33.7-.77,1.51-1.25,2.39,5.27-2.66,10.83-4.87,16-7.67q11.32-6.17,22.29-13c5.54-4.41,10.94-9,16.11-13.91,6.53-6.19,23.16-19.46,25.6-20.34a24.8,24.8,0,0,1,4.94-2,1.46,1.46,0,0,1,1.13.13,17.46,17.46,0,0,1,11,1c.6.24,7.49,4.55,10.44,6,5.23,1.93,18.42,5.36,19.28,5.13,6.58-1.77,14.27-2.8,20.52-5.54,12.37-5.43,22.89-14.8,35.3-20.5,4.23-6.3,8.58-12.54,11.53-19.5-5.86,2.73-11.71,5.47-17.6,8.12"/><path class="r" d="M780.75,1027.55c-2.52-13.93-5.26-27.81-8.07-41.68-7.54,10.06-15.58,19.73-23.67,29.37,4.71,8.67,8.85,17.9,10.55,27.33,2.37,13.1-4.8,20.38-11.39,30.87-10.82,17.23-4.86,32.91-7.36,51.56-2,14.68-10.9,24.86-19.7,36-10.51,13.37-16.32,29.44-26.24,43.24-5.11,7.11-13.53,19.22-23.45,20.61a11.4,11.4,0,0,1-3.79,0c2.94,3.32,9.44,4.77,13.19,4.42,9.82-.93,18.92-14.62,23.43-22.24,6.43-10.88,11.59-22.63,18.61-33.16,6.32-9.48,15.45-13,21.28-23,4.89-8.32,9.92-18.41,9-28.12-1.09-11.33-4.69-26.29-.67-37.56,3-8.38,13.78-16.13,20.42-22.44,4.38-4.16,10.36-7.81,11.23-14.06s-2.21-14.89-3.35-21.17"/><path class="t" d="M677.12,1210.43c-.89-.43-1.82-.89-2.75-1.37a59.1,59.1,0,0,1-8.21,12.75c.44,3.21,3.79,5.38,7.44,6.53l.12,0a189.7,189.7,0,0,0,13.17-14,56.84,56.84,0,0,1-9.77-3.92M507.67,1251.6c-1.77,3.31-3.47,7.11-1.67,9.23a3,3,0,0,0,1.69.78,37.15,37.15,0,0,0,5.58-15.12c-.59.1-1.19.19-1.78.24a53.81,53.81,0,0,1-3.81,4.87m67.06,4.93c-1.72,4.54-3.21,9.36-4.69,14.77,1.65,0,3.07,0,4.34-.13,2.93-6.08,4.75-12.5.35-14.64m-99.83-11.87c1.57,1.57,2.81,2.79,3.93,3.75a58.08,58.08,0,0,0,5.7-2.47c2.77-1.41,6.53-3.29,8-6.21a5,5,0,0,0-.32-5.08,181.22,181.22,0,0,1-17.33,10m12.12-78.4c-5.42.89-9.63.26-12.12,4.19.08.21.18.38.27.58,8.37.88,16.75.17,25.12-.57-.54-1.82-1.14-3.62-1.75-5.41-3.88.26-7.75.6-11.52,1.22"/><path class="n" d="M728.21,855.76c-2.07-.83.35,40,.84,42.87,3,17.74,4.73,36.17,10.38,53.31,11.38,34.5,26.46,68.46,35.06,103.83,8.26,34,.59,65.4-11.77,97-3.42,8.74-6.51,17.6-9.85,26.37-2.55,6.69-7,15.23-3.69,22.27,5.79,12.21,28,22.35,39.47,28.23,63.5,32.46,149.31,48.61,211.11,3,24.82-18.31,51.12-52.91,46-85.83-2.2-14.16-21.55-26.33-30-37.42q-15-19.73-30.43-39.24c-11.78-14.9-19.4-29.59-20.83-48.73-1.41-18.84-2.5-38.26-.4-57.06,2-17.67,8.08-35.6,15-52,4-9.55,7.37-19.21,11-28.91,1.58-4.21,7.16-22,12.6-22.89-7.6,5.51-22.87-25.88-27.27-31.2-10.76-13-24.58-23.59-39-32.32-28.94-17.56-63.84-33.83-98.1-34.78s-67.29,6.62-92.47,31.37c-12.27,12.06-17.86,23.48-19.61,40.6a82.69,82.69,0,0,0,.26,18.73c.85,7.84-.34,15.41-.51,23.42"/><g class="u"><g class="i"><path class="p" d="M739.44,954.08c11.38,34.5,26.47,68.46,35.06,103.83,5.66,23.31,3.84,45.39-1.85,67.15a626.91,626.91,0,0,0,39.79,52c4.82,3.06,9.74,6,14.71,8.71h0a127.36,127.36,0,0,0,27.6-12.3c11.44-6.82,22.08-15.39,30.08-25.76,3.4-7.17,6.49-14.47,9.45-21.61-1.58-10.67-4.38-21.27-6.89-31.14-5.4-21.25-11.9-42.23-15.35-63.93-7-44.32-1.21-90.7,5.67-134.7,6-38.52,8.24-79.8,20.13-117.27-19.17-8.24-39.43-14.06-59.48-14.61-34.35-.95-67.29,6.62-92.47,31.37-12.27,12.06-17.86,23.48-19.61,40.6a82.69,82.69,0,0,0,.26,18.73c.85,7.84-.34,15.41-.51,23.41l1.32-12.76c0,11.83,1.31,32.9,1.66,34.94,3,17.74,4.73,36.17,10.38,53.31"/></g></g><path class="r" d="M821.86,1120.88c-1.46,5.21-6,16.9,2.24,18.88,4.61,1.1,7.75-4.12,9.92-7.47.14-.21.25-.41.38-.62.61-12.61-1.08-24.57-7.13-36a159,159,0,0,1-5.39,25.2M1045.76,1149c-2.2-14.16-21.55-26.33-30-37.42q-15-19.73-30.43-39.24c-11.78-14.9-19.4-29.59-20.83-48.74-1.41-18.84-2.5-38.26-.4-57.06,2-17.67,8.08-35.6,15-52,4-9.55,7.37-19.21,11-28.91,1.45-3.87,6.29-19.18,11.29-22.32-7.92,1.59-21.8-26.73-26-31.77-10.76-13-24.58-23.59-39-32.32-28.94-17.56-63.84-33.83-98.1-34.78s-67.29,6.62-92.47,31.37c-12.27,12.06-17.86,23.48-19.61,40.6a82.69,82.69,0,0,0,.26,18.73c.85,7.84-.34,15.41-.51,23.41l1.32-12.76c0,11.83,1.31,32.9,1.66,34.94,2.06,12.08,3.54,24.48,6,36.58,9.25-1.67,18.78-5.36,27.68-.63,10.57,5.61,17.76,20,23.48,29.76,13.91,23.67,26.51,50.77,34.33,78.21.17.13.36.22.53.36l1.88,1.57c-6.22-34.92-14.3-69.26-26.68-102.78-2.21-6,2.3-12.53,7.92-14.29,38.36-12,79.16-8.9,118.66-13.29,5.63-.63,12.36,5.64,11.68,11.44-5.24,44.12-8.15,83.61-2.28,132.13,2.24,18.54,25,61.89,35,77.78,7,11.16,49.35,60.83,39.6,88.3a44.77,44.77,0,0,1-2.14,5c23.22-19,45.82-51.24,41-82"/><path class="s" d="M827.08,1110.73c-.11.93-.25,1.86-.4,2.79,1.63,4.75,1.55,10.17.9,15.11a50.62,50.62,0,0,1-1.06,5.6c1.86-.32,3.19-2.5,4.16-4l.2-.33c.33-6.72-.57-13.09-3.8-19.17"/><path class="v" d="M552,1359.78c-5.54-.09-15.16,4.38-19.15,5.82-10.1,3.63-20.1,7.49-30.07,11.46-21.58,8.59-43.86,13.93-66.71,18.06-12.42,2.25-24.82,3.48-37.34,4.85-2.6.29-19.85.29-21.43,3.07,2,5,6.24,9.63,9.36,13.81,10.34,13.87,21.33,27.24,31.69,41.09l11.8,16a23.32,23.32,0,0,0,9.48,10.71q2.2,2.83,4.78.23a27.43,27.43,0,0,0,13.15-11.62c29.56-30.45,55.9-63.52,82.29-96.67,3.81-4.78,9.67-9.75,12.14-15.4.64-1.45.16-3.08,1.19-4.54-.91.67-1.94,1.07-1.19,3.09"/><path class="n" d="M700.38,1234.66c-56,36.28-113.35,69.39-163,113.93-54.13,48.53-100.92,102-146.11,159.16-20.79,26.31-39.53,54.47-59.13,81.67-17.67,24.52-38.28,54.75-47,83.45-7.8,25.69-1.5,58.21,5,84.06,9.27,37.1,19.35,74.09,27.84,111.37,15.85,69.6,29.51,139.87,43.66,209.84,12.65,62.54,30.12,126.95,27.5,191.29-1.63,40.18-12.36,67.25-28,103.68-13.22,30.86-27.11,65.23-48.46,91.48-22.2,27.3-63.48,17.39-93.42,29.41-6,2.4-10.56,5-15.3,10.32-8.16,9.15-5.64,8.58-7.3,21.52-1.42,11.06-12.88,27-10.1,37.75,4.79,18.47,53.42,32.66,69.43,38.84,25.36,9.79,48.1,9.83,74.75,6.29,23.36-3.1,48.1-8.07,61.61-30.22,9.89-16.21,13.7-39.48,20.29-57.3s26.31-73,48-68.5c28,5.78,8.12,66.11,3.75,86.36l-12.31,57.06c10.1,1.19,37.25,9.73,45.83,5.39,7.4-3.74,12-26.86,14.1-36.79,6-28.63,5.42-58.3,12.69-86.78,8.65-33.94,26.78-73.05,16-107.79-4.86-15.62-10.75-21.57-22.47-33.29-9.88-9.88-28.25-21.95-34-34-4.85-10.14-3.36-27.57-4.47-38.82-1.58-16.09-4-32.36-4.77-48.52-1.49-31.26,0-62.94,0-94.24,0-55,6.25-109.21,7.13-164.06,1-59.81-3.32-121.37-25.14-177.83-6.54-16.94-15.9-33.25-23.74-49.63-3.79-7.92-17-27.16-16.49-35,.48-6.74,20.8-24.44,26.65-29.14,14.51-11.66,33.11-21,49.34-30,53.22-29.68,105.8-61.11,162.41-84.26,56.36-23,115.64-40.91,173.16-61,11.07-3.86,48.35-9.88,55.45-19.36,3.51-4.68-1-13.06-3.05-20.31l-37.08-130.12c-4.25-14.9-6.34-37.15-14.39-50.49-4.75-7.87-3.45-6.55-15-9.21l-113.8-26.22"/><path class="w" d="M880.61,1451.41l-37.08-130.12c-4.25-14.9-6.34-37.15-14.39-50.49-4.75-7.87-3.45-6.56-15-9.21l-113.81-26.22c-56,36.28-113.35,69.39-163,113.93q-7.61,6.82-15,13.79c3.07-1.53,6.12-3.11,9.16-4.7a222.17,222.17,0,0,1,26.92-11.86c33.79-12.41,67.89-24.14,103.84-28.19,4.65-.52,7.27,5.25,5.3,8.9-22.19,41.14-50.75,78.07-78.5,115.51-14.49,19.55-28.45,39.39-41.44,60-6.24,9.89-13.08,20-16.5,31.33-3.37,11.12,3.08,17.9,2.24,28.35-1,12.85-15.21,24-24.72,31a201.75,201.75,0,0,1-23.06,14.42c-15.85,12.06-33.06,22.21-50.69,31.76C418,1652.29,401,1665,382,1673.68c-.25.25-.51.48-.75.73-9.38,9.61-12.39,15.37-5.4,27.19,24.64,41.65,48.52,81.6,57.33,130,18.61,102.08,4.35,205.81,7.14,308.7,1.19,44,.65,92.33,13.36,134.75,6.87,22.93,19.72,39.74,33.34,58.87,7.16,10,15,22.84,11.59,35.74-3.4,12.68-16.07,21.14-26,28.48-19.29,14.25-32.48,31.12-46.12,50.69-19.92,28.6-42.12,65.48-74.39,81.41-14.52,7.17-30.27,8.64-46.17,10-16.86,1.48-35.28,3.3-51.94-.68-20.63-4.92-33.67-26.83-19.86-39-4.14-2.14-8.2-4.44-12.25-6.79-.91.32-1.81.65-2.7,1-6,2.4-10.57,5-15.3,10.32-6.23,7-6.24,8.33-6.63,14.33,3.36,1.93,4.31,10,7.42,11.59,13.18,6.93,21.57,9.43,35,15.94,15.62,7.58,37.18,11.12,54.81,12.39,23.57,1.7,46.9-3,69.91-7.76,4.06-2.51,14.56-.56,18.22-3.92,11-10.07,13.59-26.9,22.64-38.88,19.39-34.87,40.19-68.66,80.42-79.8a288.31,288.31,0,0,1,38.07-22.45,179.49,179.49,0,0,1,20.18-8.44,80.3,80.3,0,0,0-3.26-27.16c-4.86-15.62-10.75-21.57-22.47-33.29-9.88-9.88-28.25-21.95-34-34-4.84-10.14-3.36-27.57-4.47-38.82-1.58-16.09-4-32.36-4.77-48.52-1.49-31.26,0-62.94,0-94.24,0-55,6.25-109.21,7.14-164.06,1-59.81-3.32-121.37-25.14-177.83-6.55-16.94-15.9-33.25-23.74-49.63-3.79-7.92-17.05-27.16-16.5-35,.48-6.74,20.8-24.44,26.65-29.13,14.52-11.66,33.11-21,49.34-30,53.22-29.68,105.8-61.11,162.41-84.26,56.36-23,115.64-40.9,173.16-61,11.07-3.86,48.35-9.88,55.45-19.37,3.51-4.68-1-13.06-3.05-20.31"/><path class="s" d="M880.61,1450.7l-37.08-130.12c-4.25-14.9-6.34-37.15-14.39-50.49-1.35-2.23-2.2-3.7-3-4.76-4.58,12.61-10.08,24.95-15.62,37.08-18,39.32-38.5,77.45-59.22,115.36-14.1,25.79-29.81,51.15-42.26,77.8-6.34,13.56-12,27.49-17.36,41.65,45.09-16.62,91.34-31.06,136.52-46.84,11.07-3.86,48.35-9.88,55.45-19.37,3.51-4.68-1-13.06-3.05-20.31"/><path class="n" d="M800.36,1312.2C775.06,1427,751.68,1545,737.73,1661.73c-8.41,70.47-14.24,141.34-21.35,211.94-4.14,41.14-20.93,103.4,22.07,126.48,107.63,57.76,204.59,134,303.83,205.06,46,32.93,90.7,67.09,135.49,101.67,7.84,6.05,18,12.27,23.85,20.55,7.79,11.07,7.07,24.47,8.83,38.39a682,682,0,0,1,5.6,87.78c0,31.24-5.76,49-26.81,72.6-17.23,19.34-43.38,44.18-48,70.09-2.31,13.08,0,27.66,2.14,40.77,3.17,19.39,18.65,24.89,38.45,28.05,37,5.91,79.55-.21,107.35-26.62,13.4-12.73,24.86-24.2,29.44-42.31,2.71-10.71-2.77-32.67,2.53-41.07,2.77-4.38,12.74-2.31,17.13-8.92,3.94-5.94,1.92-18.3,1.8-24.9-.26-13.89-1.65-27.52-1.37-41.39.95-46.56,35-124.65-3.28-160.62-17.93-16.84-41.18-29.17-60.44-44.84-23.17-18.85-48.05-36.59-69.88-57-40.05-37.38-74.09-84.16-105.67-128.59-29.55-41.57-58.85-101-107.91-122.67-28-12.38-56.49-24.12-84.2-37.23-14.32-6.78-32.68-13.08-45.24-22.62-12.31-9.35-10.87-18.39-6.84-33.81,6.13-23.45,20.64-46.43,31.49-68.23,14.84-29.81,30.42-59.25,45.52-88.93,9.56-18.78,22.37-38.59,28.08-58.67,8.19-28.84,8.31-62.81,12.24-92.5s15.46-66.79,12.79-96.64c-1.8-20.13-18.62-43.65-27.21-61.93-15.4-32.75-28.82-67.8-46.68-99.3-7.67-13.53-29-41.82-42.92-42.42-10.49-.45-33.14,19.06-42.72,24.56-8.75,5-29.52,10.65-25.5,23.71"/><g class="x"><g class="l"><path class="p" d="M769.32,1774c18.88-96.92,34-127.44,51.4-224.62-30.18,29.62-57.82,53-79.53,88.48-4.26,27.7-.16-3.73-3.46,23.9-8.41,70.47-14.24,141.34-21.35,211.94-4.14,41.14-20.93,103.4,22.07,126.49,14.92,8,29.61,16.39,44.15,25a73.83,73.83,0,0,0,7.57-4.3c1.8-9.85-2.71-20.51-9-30.49-16.66-17.06-28.09-37.89-29.8-64.81-1.51-23.8,2.39-48.32,5.24-71.91,3.23-26.73,7.58-53.3,12.73-79.72m507.05,806.38c-2.88,11.05-7.74,22.63-16,29.74-.64,5.13-8.81,3.85-8.81-1.07v-3.81a4.24,4.24,0,0,1,.94-2.77c1.47-8.44,4.09-17,8.51-24.24a73.36,73.36,0,0,0-6.52,4c-5.07,13-14.61,24.11-22.81,35.12a4,4,0,0,1-1.63,1.33l-.07.12a4.49,4.49,0,0,1-8.3-2.75,3.62,3.62,0,0,1-1.5-4.57c4.83-13.55,11.94-25.23,20.3-36.18-8.56,3.5-15.86,8.19-21.8,17.3-5.26,8.07-7.06,18.09-13,25.58a3.69,3.69,0,0,1-3.63,1.39c-1.42,4.37-2.81,8.75-4.29,13.09-1.34,4-7.68,2.37-6.32-1.61,6.28-18.46,11.1-37.74,22.43-53.94l.07-.08c1.2-2.32,2.53-4.57,3.9-6.78a81.79,81.79,0,0,0-11.87,8.51c-.53.56-1.09,1.09-1.59,1.67-9.38,11.19-13.67,28.83-20.85,41.59-1.8,3.21-6.4,1.19-6.14-1.83a3.33,3.33,0,0,1-4.51-3.77c3.51-15.48,12.69-32.54,22.56-45.33-1.58.73-3.16,1.48-4.72,2.27q-1.39.7-2.68,1.46-10.17,9.63-19.39,20.19c-2.48,4-4.79,8.31-7.23,12.74a3.06,3.06,0,0,1-4.29,1.22l-.13.17c-2.29,2.95-7.17-.76-5.21-3.84,8.24-12.93,15.19-27.26,27.2-37.24a69.5,69.5,0,0,1,10.92-7.38,216.3,216.3,0,0,0,17-14.39c.79-.76,1.61-1.5,2.39-2.28l.37-.36a146.17,146.17,0,0,0,15.78-18.6,177.72,177.72,0,0,0,10.3-19.27c9.14-24.69,14.25-48.27,17.92-74.18,0-3.88-.1-7.78-.35-11.71-1.42-22.31-3.91-45.77-13.5-66.27a76.84,76.84,0,0,0-8.49-13.85c-6.84,3.44-15,5.08-22.93,6,1,6.41,1.26,13.16,2.14,20a682,682,0,0,1,5.6,87.78c0,31.24-5.76,49-26.81,72.6-17.23,19.33-43.38,44.18-48,70.08-2.31,13.08,0,27.66,2.13,40.77,3.17,19.39,18.65,24.89,38.46,28.05,37,5.91,79.55-.21,107.35-26.62a199,199,0,0,0,15-15.49,335.25,335.25,0,0,0-27.88-42.65M486.63,1397.56c-33.69,34.79-64.92,71.63-95.39,110.19-20.79,26.31-39.53,54.47-59.13,81.67-17.67,24.52-38.28,54.75-47,83.45-7.8,25.69-1.5,58.2,5,84.06,9.27,37.1,19.35,74.09,27.84,111.37,15.85,69.6,29.51,139.87,43.66,209.84,12.65,62.54,30.12,126.95,27.5,191.29-1.64,40.18-12.36,67.25-28,103.68-13.22,30.85-27.11,65.23-48.46,91.49-22.2,27.3-63.47,17.39-93.42,29.41-6,2.39-10.56,5-15.3,10.32-6.56,7.35-6.22,8.44-6.7,15.3,15.29-15.56,36-21,57.14-24,18.29-2.65,40.53-2.68,56.18-13.79,18.47-13.11,30.95-36,41.37-55.52,11.86-22.2,22-45.29,33.26-67.8,45.71-91.54,25-199,1.82-293.71-12-48.91-23.46-98.11-36.2-146.81-11.94-45.63-27.93-90.28-35.65-136.94-7.78-47-7.65-95.58,14-139.15,22.29-44.77,55.61-85.84,89.24-122.53,36.16-39.46,76.49-75.59,116.64-110.92,12.61-11.1,25.58-21.77,38.45-32.55a469,469,0,0,0-49.43,11.52c-12.34,3.61-24.81,7.32-37.44,10.18"/></g></g><path class="w" d="M1338.73,2479.9c.94-46.56,35-124.65-3.28-160.62-17.93-16.84-41.18-29.17-60.44-44.84-23.17-18.85-48.05-36.59-69.88-57-40.05-37.38-74.09-84.16-105.67-128.59-29.55-41.57-58.85-101-107.91-122.68-28-12.37-56.49-24.12-84.2-37.23-14.32-6.78-32.68-13.08-45.24-22.62-12.31-9.35-10.87-18.39-6.84-33.81,6.13-23.45,20.64-46.43,31.5-68.23,14.84-29.81,30.42-59.25,45.51-88.93,9.56-18.78,22.37-38.59,28.08-58.67,8.19-28.84,8.31-62.81,12.24-92.5s15.46-66.79,12.79-96.64c-1.8-20.13-18.62-43.65-27.21-61.92-15.4-32.75-28.82-67.8-46.68-99.3-7.67-13.53-29-41.82-42.92-42.42-10.49-.45-33.14,19.06-42.72,24.56-8.75,5-29.52,10.65-25.5,23.7-12,54.57-47.17,225-54.4,287.69C774.11,1574.08,855,1437.28,855.44,1445c1.48,28.28,0,0,1.33,28.16,1.31,27.8.49,55.68-1.18,83.45-.78,13.1-1.77,26.18-2.85,39.26-.81,9.79-.9,20-2.85,29.62-3.69,18.28-10.5,36.23-11,55.05-.09,3.62-.4,8.94,2.29,11.77,3.13,3.29,10.49,3.24,14.58,3.41,9.11.4,18.17-.76,27.27-.88a1.73,1.73,0,0,1,1.71,1.68c3.1,32.83-11.86,66.47-22.6,96.71-5.93,16.68-10.9,33.65-17.51,50.09-8,19.91-17.14,39.36-24.15,59.65,45.13,17.17,86.4,42.85,124.28,72.6,65.86,51.71,120.46,114.73,172,180.23,25,31.75,50.48,63.37,79.38,91.7,26.1,25.58,56.43,50.93,92.6,60.11a1.7,1.7,0,0,1,.32,3.14c16.42,9.1,31.86,21.48,38.71,39.39A56.19,56.19,0,0,1,1330,2383c-1.07,4.34-3,8.52-4.77,12.63-.93,2.22-2.5,5-3.58,7.71-2.44,16.89-5.17,33.4-6.65,50.46-1.44,16.68-1.2,33.31-2.24,50-1.73,27.77-13.71,52.66-33.36,72.13-1,2.2-2.75,2.64-5,4.24-5.88,4.19-4.58,9.7-7,15.48-1.9,4.59-6.77,9.58-11.76,10.6-12.38,2.52-8.48-10.29-4.16-18.49a36.54,36.54,0,0,0-9.7,8.28c-2.31,2.85-4.18,6.11-7,8.49-3.31,2.76-9.08,5-12.91,1.84-4.66-3.9-2.65-11.86.16-18.62a39.21,39.21,0,0,0-5.33,8.47c-1.8,3.89-3.28,7.92-5.82,11.42-2.81,3.89-7.55,7.59-12.15,3.8-6.51-5.36-2.56-17.08,2.56-26.49-3.93,5.23-6.86,11.11-11.41,16.49-3.34,3.94-9.54,9.17-15,6-10.37-5.95,1.46-24.12,9.5-34.79-5.69,4.17-9.85,9.85-14.21,15.77-3,4-6,9-11.25,10-7.46,1.56-12.93-4.44-15.22-11a55,55,0,0,0-2.4,8.84c-2.31,13.08,0,27.66,2.13,40.77,3.17,19.39,18.65,24.89,38.45,28.05,37,5.91,79.55-.21,107.35-26.62,13.4-12.73,24.86-24.2,29.43-42.31,2.7-10.71-2.77-32.67,2.53-41.07,2.77-4.38,12.74-2.31,17.12-8.92,3.94-5.94,1.92-18.3,1.8-24.9-.26-13.89-1.65-27.52-1.37-41.39"/><path class="y" d="M544,2390.73c-12.42,5.72-25.48,10-37.73,16-13.91,6.89-25.63,17.54-40.14,23.32a1.7,1.7,0,0,1-2.16-1.61c-.11-33.36-3.59-66.6-12.78-98.73-1.65-5.78-4-12,1.54-16.18,8.73-6.49,20.25-9.16,30.43-13.36-3.54-10.33-2.39-25.83-3.4-36.14-.28-2.79-.59-5.59-.91-8.4-29.32,10.53-58.91,15.69-89.59,6.95,0,2.28-.05,4.56-.15,6.84a213.28,213.28,0,0,1-6.13,43.55c11.25,4.29,24.16,1.73,35.22,6.62,9.1,4,11,14.86,12.51,23.73,2.06,12.11,3.71,24.34,5.34,36.52,2.11,15.77,5.75,31.53,6.78,47.4.69,10.58-.09,18.67-7.71,26.38a98.4,98.4,0,0,0-23.45,36.63c-8.77,23.25-19.65,45.92-44.08,56.43-7.64,3.29-16.51,4.81-24.6,6.55-.67.14-6.6,3.16-4.92-1.79,8.93-13.35,1.91-35.25-3-48.93-5.17-14.52-11.93-28.05-25.16-34.89-10,10.29-23.08,14.41-37.1,16.76,31.08,41.8,11.08,69.24,10.16,69.18-30.17-1.79-58.53-15.49-85.69-34.93-2.25,11-13.41,34.77-10.77,44.94,4.79,18.47,53.42,32.66,69.43,38.84,25.36,9.79,48.1,9.83,74.75,6.29,23.36-3.1,48.1-8.07,61.61-30.22,9.89-16.21,13.7-39.48,20.29-57.3s26.31-73,48-68.5c28,5.78,8.12,66.1,3.74,86.36l-12.31,57.06c10.1,1.19,37.25,9.73,45.83,5.39,7.4-3.74,12-26.86,14.11-36.79,6-28.63,5.43-58.3,12.69-86.78,7-27.38,20.12-58.13,19.26-87.23"/><g class="z"><g class="i"><path d="M544,2390.73c-12.42,5.72-25.48,10-37.73,16-13.91,6.89-25.63,17.54-40.14,23.32a1.7,1.7,0,0,1-2.16-1.61c-.11-33.36-3.59-66.6-12.78-98.73-1.65-5.78-4-12,1.54-16.18,8.73-6.49,20.25-9.16,30.43-13.36-3.54-10.33-2.39-25.83-3.4-36.14-.28-2.79-.59-5.59-.91-8.4a226.34,226.34,0,0,1-22.32,6.82c.83,10.65.35,21.24-3,31.46a41.39,41.39,0,0,1-8.71,15.68c-.51.55-3.28,3.16-6.23,5.67q-.14,2.71-.27,5.42c12.42,39.23,34.94,98.15,2.43,124.67a26.38,26.38,0,0,1-5.65,8.28,98.4,98.4,0,0,0-23.45,36.63c-8.77,23.25-19.65,45.92-44.08,56.43-7.64,3.29-16.51,4.81-24.6,6.55-.67.14-6.6,3.15-4.92-1.79,7-10.5,4.17-26.27.27-39.18A66.28,66.28,0,0,1,323,2530.64c-10.8,8.89-23.17,12.28-34.38,10.94-2,7.74-5.32,12-5.69,12-30.17-1.79-58.53-15.49-85.69-34.93-2.25,11-13.41,34.77-10.77,44.94,4.79,18.47,53.42,32.66,69.43,38.84,25.36,9.79,48.1,9.83,74.75,6.29,23.36-3.1,48.1-8.07,61.61-30.22,9.89-16.21,13.7-39.48,20.29-57.3s26.31-73,48-68.5c28,5.78,8.12,66.1,3.74,86.36l-12.31,57.06c10.1,1.19,37.25,9.73,45.83,5.39,7.4-3.74,12-26.86,14.11-36.79,6-28.63,5.43-58.3,12.69-86.78,7-27.38,20.12-58.13,19.26-87.23"/></g></g><path class="y" d="M1338.73,2479.9c.75-36.82,22.18-93.33,12.19-133.17-.21,2.18-.43,4.2-.62,5.93-2.24,20.72-6.58,42.05-13.69,61.7a1.71,1.71,0,0,1-3.27,0c-10-26.16-23.58-49.5-44.26-68.7a1.73,1.73,0,0,1-.05-2.39c11-14.6,8.55-32.7,13.19-49.31-8.61-5.86-17.24-11.7-25.26-18.05-2.83,22.92-19,44.48-39.82,53.88a106.79,106.79,0,0,1-30.43,8.44c2.48,8.53,2.51,17.91,3.73,27.55.18,1.44.34,2.86.51,4.29,10.94,6.93,25.84,7,38,3.6,6.39-1.79,13-6.13,19.72-6.25s12,5.09,16.25,9.84a178.41,178.41,0,0,1,20.77,27.78c11,18.51,16,39.16,16,60.62,0,26.2,2.17,54.32-4.07,80a1.71,1.71,0,0,1-2.46,1.06c-18.67-12.36-38.19-23.47-59.34-31a120.13,120.13,0,0,0-33.87-7.23c-6.22-.37-12.45-.45-18.66-.75a130,130,0,0,1-14,18.48c-4.07,4.56-8.63,9.44-13.29,14.56,19.23-5.13,41,1,58.77,8.26,20.46,8.38,41.83,21.1,54.13,40a1.73,1.73,0,0,1-.56,2.33c-13,9.55-25.05,34.78-42.66,20.79-3.63,3.39-8.53,9.58-13.64,10.35-17,2.56-14-4-18.61-1.68-9.27,4.72-16,5.65-22.51-2.95-7.07,4.51-14.4,3.61-20.57-2-19.75-2.6-25.67-9.57-27.26-26.49a53.81,53.81,0,0,0-1.76,6.86c-2.31,13.08,0,27.66,2.13,40.77,3.17,19.39,18.65,24.89,38.45,28.05,37,5.91,79.55-.21,107.35-26.62,13.4-12.73,24.86-24.2,29.44-42.31,2.7-10.71-2.77-32.67,2.53-41.07,2.77-4.38,12.74-2.31,17.13-8.92,3.94-5.94,1.92-18.3,1.8-24.9-.26-13.89-1.65-27.52-1.37-41.39"/><g class="aa"><g class="l"><path class="p" d="M1266.69,2314.82a5.91,5.91,0,0,0,.37-2.53c-.58,1.05-2.73,1-.37,2.53m0,0c0,.09,0,.19-.08.29a2.36,2.36,0,0,1,.34-.11l-.26-.18m11.16,15.36a6.41,6.41,0,0,0,2-3.88c-6.72,5.67-13.44,10.69-21.7,13.86,6.23-7.19,11.51-14.67,15-23.56-2.68.87-4.71,3.1-6.91,4.8s-4.26,3.46-6.42,5.17c1.66-3,4-5.56,5.45-8.67.42-.87.91-1.82,1.27-2.79-1.7.55-3.62,3.13-4.77,4.2-5.56,5.14-12,10.32-18.63,13.83-7.24,3.81-15.88,7.81-24.21,8.25,3.07.41,6,1.25,9.11,1.52,1.6.14,10.74-.23,11,.35a83.71,83.71,0,0,1-13.21,5.07,32.7,32.7,0,0,0-7.09,2.23c4,.85,8,1.58,11.67,3.36-2.47,3.91-7.54,5.83-11.43,8.13.2,1.63,4.85,2.35,6.33,2.77,6.82,2,13.42,1.31,20.17-.51,5.91-1.6,11.7-3.34,16.75-6.92,4.32-3.06,7.54-7.2,11.38-10.8a97.57,97.57,0,0,1-12.65,5.62,82.6,82.6,0,0,0,11.47-13.34,76.19,76.19,0,0,0,5.32-8.69m-83,202.45a17.55,17.55,0,0,1,3.66-.07c.31,0,.62.05.93.07Zm42.51,3.36c6.39.33,12.5,1.7,18.72,3.07-1.61-2.67-6.15-4.2-8.83-5.77-3.19-1.87-7.56-3.65-9.89-6.59,6.45.64,12.71,2.36,19,3.75-2.79-1.75-5.52-3.26-8.17-5.24,2.26-1.69,7.64,1.32,10.26,1.83-2.68-3.12-7.93-5.23-11.56-7.09a67.94,67.94,0,0,0-24.37-7.39c-6.26-.57-12.78.93-19-.07,4.36,1.23,8.66,2.71,12.88,4.35-5.72,1.42-11.62.85-17.34,2.73,3.27,1.59,6.88,2.06,10.1,3.85-1.93,1.38-8.38,1.08-10,1.31a60.81,60.81,0,0,0-7.86,1.43c4.19.18,8.81.57,12.39,2.91-2.42,1.19-5.1,1.34-7.74,1.75-1.14.18-5.13.33-5.71,1.67,3.72.27,7.5.3,11.28.27,7.92.81,15.72,3.35,23.28,5.59q14,4.14,27.74,8.89a97.38,97.38,0,0,1,16,6.77,71.41,71.41,0,0,0-12.09-8.13c-6.24-3.53-13.19-6.07-19.2-9.91M390.71,2306.85a5.28,5.28,0,0,1-1.59-.14c2.76,1.16,5.31,2.28,1.59.14m5.84-33.15a29.75,29.75,0,0,1-3.64-.26c1.77.85,4.3,3.66,4.26,5.74s-1.77,2-3.56,3.09c-.15,2.53,3.38,3.18,4.18,5.46-1.1,2-6.28,2.33-6.62,4.37-.4,2.43,5.84,3.29,5.2,5.81-2.33,1.15-5.14,1.29-7.3,2.75.76,2.3,4,2.5,5.19,4.58a4.33,4.33,0,0,1-3.42,1.59,16.72,16.72,0,0,0,3.09,1.28c4.81,1.29,10.5,1.62,15.38,2a62.2,62.2,0,0,0,12.05,0c2.57-.31,5.34-1.39,8-1.47-5.51-.13-11.76-2.89-16.73-5.29,6.47-1.59,13.34-1.44,19.54-4.06a5.67,5.67,0,0,0-4.79-1.53,44.63,44.63,0,0,1-9.32-2.56c.77-2.27,8-3.1,9.46-3.6,1.78-.58,4-1.06,5.33-2.53-2.26-1-4.86-.24-7.23-.51,1.69-1.68,4.46-3.05,6.37-4.28,1-.65,5-2.41,4.79-3.56-10.5-2.11-21.23-2.51-31.7-5a83.93,83.93,0,0,0-8.5-2m-5.84,33.15.13,0-.87-.4.73.42m-66.94,180.42c-2.63-5.18-7.48-13.21-13.89-14.15,1.12,5.45,4.46,10.44,4.54,16.12-1.74-.07-3.17-1.95-4.47-3a84.78,84.78,0,0,0-8.21-5.53c-.81,1.73,1.16,4.07,1.8,5.76a28.91,28.91,0,0,1,1.74,6c-3.64-3-6.85-6.74-11-9.14,0,2.22,1.46,5.13,2.07,7.08.28.9,1.42,3.32.8,4.18-3.45-1.64-6.61-6.28-10.66-6.94,0,0,0,0,0-.05l-.66,0,0,.07a5.63,5.63,0,0,0-1.3,0c1.11,2.4,2.09,3.22,2.06,1.37a130.82,130.82,0,0,1,8.75,18.25,97.7,97.7,0,0,1,4.42,14.37,9.14,9.14,0,0,0,1.72,6,35.51,35.51,0,0,0,1.83-12.39l-.29-6.77q-1.67-3.28.5-5.12c3.66,5.74,6.45,12,10.08,17.73.38-6.42-1-12.89-.75-19.34,2.41,3,3.88,6.83,5.73,10.21.29-3.68-.9-7.41.82-10.8,2.55,2.08,4.28,4.66,6.25,7.28.57.76,2.31,3.77,3.63,3.56a31.81,31.81,0,0,0-.7-8.65c-1-5.4-2.37-11.27-4.85-16.17"/></g></g><g class="ab"><g class="i"><path d="M1298.56,2315.76c1-7.26,1.68-14.64,3.67-21.76-8.61-5.86-17.24-11.7-25.26-18.05a64.46,64.46,0,0,1-4.76,17.36,78.35,78.35,0,0,1,26.35,22.45"/></g></g><g class="ac"><g class="i"><path d="M1338.73,2479.9c.75-36.82,22.18-93.33,12.19-133.17-.21,2.18-.43,4.2-.62,5.93-2.24,20.72-6.58,42.05-13.69,61.7a1.71,1.71,0,0,1-3.27,0,230.19,230.19,0,0,0-11.12-24.72,142,142,0,0,1-4.54,40.13c-.18.66-.44,1.24-.67,1.85a123.35,123.35,0,0,1,4.64,34c0,26.2,2.16,54.32-4.08,80a1.71,1.71,0,0,1-2.46,1.06q-4.14-2.74-8.35-5.38c-5.45,14.56-16.09,27.72-29.31,34.09a78.35,78.35,0,0,1,11.39,13.65,1.73,1.73,0,0,1-.56,2.33c-13,9.55-25.05,34.78-42.66,20.79-3.63,3.39-8.53,9.58-13.64,10.35-17,2.56-14-4-18.61-1.68-9.27,4.72-16,5.65-22.51-2.95-7.07,4.51-14.4,3.61-20.57-2-19.75-2.6-25.67-9.58-27.26-26.49a53.81,53.81,0,0,0-1.76,6.86c-2.31,13.08,0,27.66,2.13,40.77,3.17,19.39,18.65,24.89,38.45,28.05,37,5.91,79.55-.21,107.35-26.62,13.4-12.73,24.86-24.2,29.44-42.31,2.7-10.71-2.77-32.67,2.53-41.07,2.77-4.38,12.74-2.31,17.13-8.92,3.94-5.94,1.92-18.3,1.8-24.9-.26-13.89-1.65-27.52-1.37-41.39"/></g></g><path class="ad" d="M668.44,1236.66c-36.14,19.71-74,27.52-113.44,37.52-41.26,10.47-80.87,22.62-123.7,24.65-28.64,1.36-57.6,2.36-86.26,1.09-21.77-1-40-8.86-61.37-12.45,18.85,25.64,43.05,63.69,75.37,67.54,62.17,7.4,121.26.29,180.35-18.85,71.34-23.12,91.24-29.27,160-59.12-63.45,77-89.39,108-138.84,193.82-6.23,10.8-27.8,50.29-29.41,63.19-1.58,12.65,70.42,59.39,80.46,69.38,25.56,25.45,44.45,58.07,70.73,82.68,13-58.54,179.23-308.05,183.62-306.59,5.9,2,2.18,29,3.05,59.27,2,67.89,5.86,136,8.13,203.68.74,22.25-4.74,24.6,19.77,24.7,19.6.08,40.32-1.75,59.82.24,36.28,3.7,75.89,11.6,102.12,36.79,16.24-30.78,9.81-63.07,12.63-95.75,1.59-18.43,24.14-49.15,43.83-25.93,11,12.93.43,35.26-2.47,50.22l-12,61.94c42.37-2.64,83.85-5.74,125.93-11.47,24.23-3.3,51.88-4.17,75.2-12,21-7.08,41.91-18.48,62.92-26.33,27.38-10.22,15.95-29.09,9.91-54.73-5.79-24.6-5.26-39.38,25.83-37.54,28.79,1.7,72.67,25.95,89,50.76,9.6,14.62.33,61.79,18.31,50.57,33.72-21,12.75-104,.31-130.49-36.75-78.27-94.2-136.42-162.31-188.67-86.15-66.1-195.85-92.08-273-168.49-5.22-5.18-12.46-13.87-18.55-18.29-15.38-11.14-8.91-4.14-22.78,3.64-9,5-16.55,11.63-26.13,16-30.61,13.87-66.23,17.53-99.51,17.65-45.46.16-111.66,1.24-138.9-41.76-4.25,11.45-62.11,73.32-98.54,93.19"/><g class="ae"><g class="l"><path class="p" d="M694.39,1283.07c-37.86,44.06-74.88,92.8-105.29,140.11-28.87,44.91-46.43,81.32-49.52,87.85,10.58,13.37,43.25,40.25,56.49,50.8,12.28-28.55,39.42-109.68,81-178.74,44.62-74.1,94.19-134.06,111.25-157.88-8.74,1.43-35.78,7.48-42.28,13-12.31,10.8-30.33,25.7-51.66,44.84M649,1263.93c-3.31,1.15,51.65-48.37,48-47.3-10.06,8.22-19.92,15.31-28.58,20-36.14,19.71-74,27.52-113.44,37.52-41.26,10.47-80.87,22.62-123.7,24.65-28.63,1.36-57.6,2.37-86.26,1.09-10.23-.45-19.68-2.44-29-4.79q4.38,5.14,8.9,10.18c5.52,1.67,11,3.35,16.51,5.21,20.56,1.88,41.19,4.92,61.73,3.28,43.46-3.48,87.92-10.42,130.65-19.14,66.77-13.61,125.63-34.34,115.21-30.73m511.32,216c-11.09-49.31-37.83-90.17-72.68-126-22.72-23.33-47.39-44.65-70.92-67.14.32.86.58,1.74.92,2.59q11.29,22,22.81,43.87c2.52,4.54,5,9.11,7.23,13.76a9.1,9.1,0,0,1,.69,6.37c10.35,17.85,21.2,35.46,30.7,53.57a8.71,8.71,0,0,1,.35,7.77c20.87,50.29,26.3,104.91,22.62,159.58,4.38.57,8.88,3.06,13.24,8.2,11,12.94.43,35.26-2.47,50.22l-9.47,48.79c6.84-.2,13.68-.37,20.49-.72l17.85-2.59c18.54-65.11,33.58-132,18.66-198.32M894.27,1365.95c-2.29-34.78-.91-69.9-3.88-104.65-2.87,8-6.74,32.8-9.44,40.9-4.72,19.26-6.55,54.58-11.8,73.67,2.91,16.61-.92,37.22-.17,62.92,1.82,62.74,5.27,125.67,7.57,188.28,14.16,2.51,28.54,4.75,42.67,4.88q13.21-2.21,26.25-5.4c-15.19-42.76-29.07-85.9-37-130.88-7.55-42.87-11.34-86.32-14.2-129.72"/></g></g><g class="af"><g class="i"><path d="M1508.13,1523.42c-36.75-78.27-94.2-136.42-162.31-188.67-86.15-66.1-195.85-92.08-273-168.49-5.23-5.18-12.46-13.87-18.55-18.29-15.38-11.14-8.91-4.14-22.78,3.64-8.68,4.87-16.11,11.22-25.29,15.56,24.22,42.2,59.26,77.75,90.5,114.67q12.59,14.89,25.08,30c39.48,42.29,77.83,85.6,114.44,130.82,29.47,36.39,60.72,76.15,72.94,122.27,9.14,34.47,4.8,72-6.7,106.08,20.82-7.1,41.51-18.34,62.33-26.11,27.38-10.22,15.95-29.08,9.91-54.73-5.79-24.6-5.26-39.38,25.83-37.54,28.78,1.7,72.67,25.95,89,50.76,9.6,14.62.33,61.79,18.3,50.57,33.72-21,12.75-104,.31-130.49m-480-215.49c-5.23-10.7-13.92-32.07-19.5-42.59,3,16,7.77,46,10.09,62.15,6.41,44.41,11,89.16,16.19,133.72,4.51,38.81,6.79,80.79-7.17,118.05-12.94,34.54-38.18,60.39-75.35,66.74-25.13,4.29-50.29,1.56-75.26-2.29.51,21.08-4.31,23.36,19.74,23.45,19.6.08,40.32-1.75,59.81.24,36.27,3.7,75.89,11.6,102.12,36.79,16.24-30.78,9.81-63.07,12.63-95.75,1.18-13.67,13.88-34,28.39-34.22-7.6-50.5-17.45-100.64-31.43-149.84-10.92-38.43-22.68-80.51-40.26-116.46m-143.8-21.39c.71-5,1.28-10,1.78-15.08a299.36,299.36,0,0,1-30.43,38.12c-25.11,27-54.18,49.44-81.44,74.09-30.34,27.43-60,56-85.07,88.41a337.77,337.77,0,0,0-57.33,114c-2.92,10.16-5.49,20.4-7.92,30.68,19.74,22.83,36.5,48.85,58.37,69.33,13-58.54,178-306.49,183.62-306.59,7.16-16.57,13.06-74.72,18.2-91.86.07-.37.14-.75.21-1.12M746,1238.23c-20.44,12.35-49.55,17.58-71.33,27.36-46.71,21-49.8,14.92-99.74,25.25q-22.69,7.31-45.63,13.28c-44.92,11.67-91.49,19.94-138,20.25a407.08,407.08,0,0,1-66.41-5.25c-4.51-.71-9-1.71-13.56-2.68-2.15-.08-4.3-.18-6.46-.27,15,18.91,32.82,36.31,54.12,38.84,62.17,7.4,121.27.29,180.35-18.85,67.33-21.81,97.56-32.5,162.5-60.37,18.05-16,46-38.66,44.16-37.55"/></g></g><path class="v" d="M1488.59,1597.88a351.87,351.87,0,0,0-31.87-80.4q-6.92-10.75-14.61-21.07c-49.45-66.55-116.65-123.52-186.84-167-27.58-17.09-56.31-33.13-85.54-47.73,59.67,47.08,108.14,106.58,145.59,172.86a1103.66,1103.66,0,0,1,51.74,103.17c1.62,3.74,3.27,7.62,4.88,11.6.66-11.68,7.75-17.94,28.61-16.71,28.79,1.7,72.67,25.95,89,50.76.24.37.46.77.68,1.17-.53-2.21-1-4.43-1.6-6.63m-466.53-301.15c20.82,57.74,28.86,120.87,38.07,180.7,6.21,40.32,11.46,81.06,13.45,121.86,6.33-17.46,25-36.41,41.68-16.77,3.18,3.75,4.51,8.29,4.79,13.21a300.56,300.56,0,0,0,11.23-74.4q.15-5.62.1-11.23c-10.7-80.11-51.19-157.95-109.32-213.37"/><path class="n" d="M1378.31,986.67c-10.37-24.57-21.9-48.63-33.64-72.55-21.31-43.39-47-83.18-74.48-122.85-27.94-40.31-50.14-85-74.76-127.34-10.69-18.36-12.8-38.6-21.78-57.42a94.89,94.89,0,0,0-20-27.49c-4.78-4.5-17.74-18-24.6-16.45,17.11-17.88,35.39-29.84,60.69-33.46,12.5-1.79,27.72-3.06,40.31-2.37,13.65.75,4.52,15,7.9,25.82,6.8,21.82,38,28.37,59,24.2,9.84-2,21-4.28,26.62-14.16,4.85-8.59-9.32-19.08-15.05-25.82,17.22-2.72,34-1,51.26-5.66a184.06,184.06,0,0,0,41-17c28.37-15.85,45.31-35.21,48.27-68.46,2.9-32.6-7.82-66.91-26.76-93.38-10-14-22.77-25.74-34.56-38.23-7.24-7.67-17.21-22.52-26.56-27,4.49-1.13-10.62-5.06-12.93-5.3a98.8,98.8,0,0,0-35.44,2.27c-25.13,6.41-48,8.13-73.78,8.73-22,.51-45.67,3.71-63.93,17-17.63,12.85-32,32.29-44.89,49.58-13.59,18.26-27.45,32-45.11,45.8-19.68,15.42-37.4,34.21-58.92,47.18-10.17,6.13-21.49,10.13-31.75,16.11-5.25,3.06-19.19,15.14-24.23,13.1-4.22-1.71-9.37-17.35-12.35-21.43-6.91-9.49-14.63-20.42-23-28.59-14.46-14.18-33.52-25.25-54.35-21-24.5,5-35,29.41-45.62,49.32-12,22.44-19.55,45-26.08,69.43-2.25,8.45-10.72,24.59-7.87,32.88s16,19.31,21.79,26.17c14.4,17.13,33.54,28.76,52.41,40.32,21.22,13,41.55,26.71,64.42,36.75,23.63,10.37,46.84,21.73,71,30.8,23,8.62,50.09,8.51,71.86,19,11.63,5.62,20.47,16.92,30,25.52,11.15,10.09,22.3,20.25,32.79,31,19.39,20,33,43,46.47,67.1,12,21.56,22.89,43.55,36,64.32,15.47,24.43,23.83,54,36.55,79.92-2.5-1.46-23.68,3.44-30.11,4.81-14.32,3.06-28.07,7.32-42.16,11.18-28.06,7.68-55.06,16.75-82.7,25.75-25.14,8.18-49.44,17.59-73.11,29.48-21.76,10.94-54.77,26.79-62.86,52.17-4.05,12.71,8.07,22.27,15.69,31.65a195.19,195.19,0,0,0,29.11,29.17c22.53,18.15,44,37.34,67.72,54.09,10.78,7.63,21.36,17,32.59,23.85,12.29,7.44,27.54,1.93,40.57-1.17,14.33-3.41,28.33-8,42.51-11.92,10.75-3,32.38-5.64,40.2-14.15-5.49-11.57-29.94-7.86-39.11-5.77-12.57,2.88-33.73,7.52-44.33,15.36,11.76-4.24,17.71-26,21.25-36.18,6.8-19.54,18.79-37.38,25.35-56.64,2-6,2.61-9.22-6-7.23-7.41,1.7-14.55,13.64-18.37,19.4-10.08,15.2-13.55,31.48-19.81,48.25,5.51-19.13,9.37-39.81,17.83-57.92,3.14-6.71,21.58-32.62,8.54-32.24-8.32.25-23.9,19.2-27.41,27.1-4,9.06-7.68,18.51-11,27.84-2.26,6.28-4.37,25.71-10.31,29.76,2.51-23.16,10.25-45.88,12.38-69,2.56-27.59-15.59,5.37-18.58,13.13-3.73,9.69-7.17,46.29-20.47,44.61-6-.76-15.66-13.34-19.41-17.5-8-8.9-13.43-20.07-22.46-28.12-7.32-6.54-17-11-26-15-5.84-2.63-14.5-2.55-11.36-9.67,3-6.73,16.22-9.12,22.15-11.69,11.45-5,22.12-8.71,34.62-10.43,48.78-6.72,98.49-3.54,147.5-9.42,28.21-3.39,58.66-5.08,85.81-14,11.88-3.89,22.94-10,34.75-14.08,4.67-1.63,17.23-7.43,21-8.1,27.18-4.87,6.27-39.16,0-53.9"/><g class="ag"><g class="l"><path class="p" d="M1136.34,1032.12c30.05-8.2,61.21-14.36,92.32-16.91l11.9-2.49c25-5.2,50.87-8.76,75.85-15-17-6.61-34.84-11.49-52.76-15.89.21.43.4.86.61,1.29-2.5-1.46-23.68,3.44-30.11,4.81-14.32,3.06-28.07,7.32-42.16,11.18-28.06,7.68-55.06,16.75-82.7,25.75-25.14,8.18-49.44,17.59-73.11,29.48-17.51,8.8-42.22,20.82-55.44,38.39,47.92-28.39,102.16-46.08,155.59-60.66"/></g></g><g class="ah"><g class="l"><path class="p" d="M1099,595.48c-4.48-1.76-11,1.25-14.85,3.18-16.83,8.34-31.46,23-44,36.8a159.1,159.1,0,0,0-24.63,36.9c-3.56,7.25-5.73,15-8,22.69,1,.39,2,.8,3.06,1.19,23,8.62,50.09,8.51,71.86,19,6.63,3.21,12.35,8.27,17.81,13.61-4.11-11.49-2.65-25.32-2.16-37.07.72-17.13,1.72-34.38,3.28-51.45.91-10,3.17-19.82,3.36-29.87.1-5.49.29-12.64-5.74-15m-23.81-182.14a10.26,10.26,0,0,1,1.52-1.32l0-.05c-16.48,13.87-32.13,29.24-50.56,40.36-10.17,6.13-21.49,10.13-31.75,16.11-5.25,3.06-19.19,15.14-24.23,13.1-2.46-1-5.24-6.72-7.71-12.14a112.39,112.39,0,0,0-16,13c-13.45,13.73-26.05,29.89-31.6,48.55-3.35,11.26-5.34,32.56,6.71,39.18,16.56-25.72,38.4-47.77,61.21-68.17,15.19-13.58,31.32-26.16,46.21-40.07,16.33-15.26,30.86-32.31,46.19-48.54m-194.66-2.79c-24.5,5-35,29.41-45.62,49.32-12,22.45-19.55,45-26.08,69.43-2.26,8.45-10.72,24.6-7.87,32.88s16,19.31,21.8,26.17a128.47,128.47,0,0,0,20.13,18.9c.29-11.48,1.46-23,2.59-34.31,2.62-26.19,5.53-52.25,11.27-78,4.78-21.41,10.14-45.93,22.11-64.69,2.77-4.33,13.27-17.65,21.41-19.41a46,46,0,0,0-19.74-.31m480.63-123.5c4.49-1.13-10.62-5.06-12.93-5.3a98.77,98.77,0,0,0-35.44,2.27c-25.13,6.41-48,8.13-73.78,8.73-21.83.51-45.37,3.68-63.58,16.78-.86,6.92-1.43,13.87-1.65,20.87a11.85,11.85,0,0,0,2.08-1.06,2.35,2.35,0,0,1,2.87.42c19.35-15.7,44-23.52,68.69-25.38,10.74-.81,21.68-1.82,32.46-1.59a64.11,64.11,0,0,1,15.67,1.84c1.82.51,7.36,3.91,8.33,4,3.9.28,13.87-5.13,18.64-6.45,9.28-2.57,18.7-4.7,28.16-6.47,2.11-.39,11.09-2.74,18.13-3a32.14,32.14,0,0,0-7.66-5.58"/></g></g><path class="r" d="M1318.3,551.39c3.57,8.33-.13,12.2-5.84,14a1.23,1.23,0,0,1-.88.64,68.63,68.63,0,0,1-14.29,1.84l-.08,0c-8.62,2.24-20.23-1.13-27.4-3.24-1.76-.52,26.24,5.42,33.06-3.65a12,12,0,0,0,2.57-6c-.62-6.62-9.67-13.22-17.14-16.53-2.21-.86-4.29-1.54-6-2-1.55-.44,30.39,1.87,36,15m104-199.12a159.85,159.85,0,0,0-10.51-13,80.64,80.64,0,0,0-4.45,21.26c-1.23,17,1.33,33.93-.8,50.94-3.25,25.82-14.29,49.63-33.8,67.12-3,2.66-6.19-3.48-5-8.84,1.55-6.87,3.58-13.61,5.31-20.45,2.12-8.37,3.05-18.28,1.43-26.8-1.83-9.63-9.41-15.67-16.53-21.67a8.65,8.65,0,0,0-3.84-2,50.05,50.05,0,0,0-9.37-.52c-6.38.25-12.38,3.49-18.83,2.6-4.14-.57-8.3-4.71-11.77-7-4.18-2.76-8.11-5.57-13-6.85-2.89-.75-6-2-8.87-2.55,2.36,3.19,6,6.08,8.62,8.94,3.88,4.29,7.71,8.66,11.36,13.14,9,11,11.56,26,10.47,40-1.31,16.76-5.55,20.66-7,37.38-1,11.51-85.61,18.67-100.64,18.64-21.71,0-47.6,8.94-56.62-14.27-9.22-23.75,6.32-63.77,6.88-87.64.28-11.68-4.91-33.73-17.67-39.49-1.13-.51-6-7.28-6.8-10.8a29.28,29.28,0,0,1-.65-4.33c-3.46,4.48-6.8,9-10,13.32-13.59,18.26-27.45,32-45.11,45.8-4.22,3.3-8.34,6.78-12.43,10.3,2.64-1.84,5.27-3.58,7.88-5.14,11.26-6.68,27.59-16.16,41-10.26a20.39,20.39,0,0,1,8.41,6.86c.3,8,.63,15.9-.18,23.82-1.59,15.5-8.5,29.48-13.21,44.14-4.83,15-8.12,30.52-13.72,45.32-7.06,24.47-26.41,42.31-50.82,49.58-34.66,10.33-66.14-9.94-101-6.46-8.42.84-17,5.2-25.32,5.46a10.07,10.07,0,0,1-8.14-3c-7.76-7.62-3.36-24-1.25-32.94,3.32-14.05,15.07-21.84,24.86-31.56,8.41-8.35,16.6-16.24,25.94-22.83-3.46-5.2-7-15.21-9.34-18.36-6.91-9.49-14.63-20.42-23-28.59-10.07-9.87-22.36-18.21-35.92-20.94a47.53,47.53,0,0,1,8.07,7.35c13.85,16.16,17.41,39.55,18.46,60.13.35,6.72.58,14-2.12,20.29-3.25,7.61-10.15,11.47-15.9,16.94-12.51,11.9-2.07,21.89,2.27,34.68,3.17,9.32,2,34.67,19.86,27.76,3.77-1.46,6-3.78,10.19-4.87A49.06,49.06,0,0,1,953,571.4c10.31.22,20.39,3.11,30.15,6.17,13,4.08,25.22,8,39,8.92,11.09.7,22.29,1,33.4.74,22.95-.52,45.76-6.63,67.84,2.72,14.88,6.31,26.76,17.86,35.16,31.5,13.28,21.57,19.13,47.43,20.63,73,9.28,31,32.19,59.12,48.93,85.32,6.85,10.72,16.65,23.13,9.34,35.82-8.76,15.2-22.19,29.85-35.38,42.43,6.77,12.61,13.54,25.18,20.89,37.43,10.24-10.73,29-14.68,41.72-19.63,8.63-3.37,18.72-7.4,27.64-2.63,8.31,4.45,14.28,14.85,18.91,22.69,10.48,17.75,26.79,58.3,32.77,78,5,16.3,4.14,3.73-56.73,11.77,79.42,22.87,53.28,41,38.18,47.81-20,9-57.7,19-79.4,22-52.28,7.35-105.23,7.68-157.58,14-31.91,3.87-76.45,12.05-87.93,46.94,23.51,2.78,44.93,13.91,63.84,27.8a144.14,144.14,0,0,1,26.1,24.62c3.49,4.22,6.82,8.57,10.21,12.88,2.28,2.9,4.58,5.8,7,8.61.13.15.28.34.42.54a52.7,52.7,0,0,1,1-13.19c-5.91-3.06-13.61-13-16.87-16.62-8-8.9-13.43-20.07-22.46-28.12-7.32-6.53-17-11-26-15-5.84-2.63-14.5-2.55-11.36-9.67,3-6.73,16.22-9.12,22.15-11.69,11.45-5,22.12-8.71,34.62-10.43,48.78-6.72,98.49-3.54,147.5-9.43,28.21-3.39,58.66-5.08,85.81-14,11.88-3.89,22.94-10,34.75-14.08,4.67-1.63,20-4.44,21-8.1,29.19-3.22,6.27-39.17,0-53.9-10.37-24.57-21.9-48.63-33.64-72.55-21.31-43.4-47-83.18-74.48-122.85-27.94-40.31-50.14-85-74.76-127.34-10.69-18.36-12.8-38.59-21.78-57.42a94.91,94.91,0,0,0-20-27.49c-4.78-4.5-17.74-18-24.6-16.45,17.11-17.88,35.39-29.84,60.69-33.46,12.5-1.78,27.72-3.06,40.31-2.37,13.65.75,4.52,15,7.9,25.82,6.8,21.82,36.93,28.64,57.89,24.47,9.84-2,22.39-4.28,27.7-14.44,4.56-8.74-9.33-19.08-15.06-25.82,17.23-2.72,34-1,51.26-5.66a184.06,184.06,0,0,0,41-17c28.37-15.85,45.31-35.21,48.27-68.46,2.9-32.6-7.82-66.91-26.76-93.38m-99.65.09q0,1.52,0,3a.81.81,0,0,0,.59,1,7.88,7.88,0,0,1,.1,2.49c.88-.91,2.42-1.33,3.58-1.93,2.78-1.44,5.37-3.07,8.29-4.25,3.43-1.38,7.58-2.92,10.19-5.68.08-.09.15-.18.22-.27a10.62,10.62,0,0,0,.55,1,9.15,9.15,0,0,0,.09-1.76,1.42,1.42,0,0,1,.68-.43,4.92,4.92,0,0,0-.75-.26c0-.39-.06-.77-.13-1.16-.32-1.89-.4-3.64-.65-5.56a52.27,52.27,0,0,0-5.3-16.09c-2.66-5.26-7.48-13.47-13.24-16.12-.24,2.36,1.47,5,2.17,7a81,81,0,0,1,2.94,13.6c.57,3.71,1.38,8,.13,11.64-1.43,4.2-5.47,2.23-7.34-.2a40.18,40.18,0,0,1-3.6-4.76c-.09,2.81.65,5.54,1.07,8.3a63.22,63.22,0,0,1,.42,10.36m-179.86,762.74c-.37,18.94-4.86,37.79-8.66,56.24-2,9.72-3.71,23.57-10.37,32.32,8.51-5.59,13.24-15.36,16.26-25.44,3.29-19.19,8.93-38.16,10.7-57.38,1.34-14.52-3-12.26-7.94-5.74m45.65-9.93c-10,25.15-21.74,50.3-29.26,76.36-2.69,9.31-4.89,18.78-10.92,26.61-4.27,5.55-9.93,9.32-16.1,12.26,16.41,1,25.92-14.64,30.21-29.79-.54,1.54-1.07,3.08-1.65,4.62,5.51-19.13,9.37-39.81,17.83-57.91,3-6.51,21.35-29.1,9.88-32.16m-31.78,116.43c-4.61,4.58-10.39,7.4-16.4,9.63,13.11.83,23.14-7.11,30.74-17.41,4-7.74,6.64-16.79,8.58-22.36,6.8-19.54,18.8-37.38,25.35-56.64,1.76-5.16,2.41-8.25-2.92-7.76-2.94,9.17-8.48,17.41-12.58,26.09-6.32,13.38-11.69,27.26-17.52,40.87-4.07,9.5-7.75,20.12-15.24,27.58m82-7.37c-30.16,10.39-59.67,24-91.52,28.08-13.91,1.8-25.62,1.87-38.51-3.68,3.25,2.37,6.53,4.64,9.86,6.66,12.29,7.44,27.54,1.93,40.57-1.17,14.33-3.41,28.33-8,42.51-11.92,10.75-3,32.38-5.64,40.2-14.15a10.68,10.68,0,0,0-3.12-3.82"/><path class="s" d="M1268.7,548c5.6,2.3,7.94,6.8,12.88,9.59,2.87,1.62,7.67,3.31,12.31,1.43,2.85-1.15,4.73-4.82,5-7.1.23-2,2.64-7.24-4.9-7.39,2.28-.23-2.68-.05-5.58.5-2.54.41-1.81,4.76-4.32,4.8-6,.09-4.78-2.27-6.42-3.26a21.41,21.41,0,0,0-8.12-2.89c-5.34-.47-9.14-.18-11.33,4.48,3-1.63,7.44-1.42,10.49-.16m10.12,21.1c-9.1-.89-31-3.9-34.22-13.26-1.84-5.28-4.21-12.31-2.37-17.62,1.65-4.75,10.18-14,13.4-16.93-6.36,3.57-49.67-4.51-51.21-4.49-13.63.21-43.46-9.49-47.71-10.49-10.52,16.41-26.57,31.34-43.17,40-.84.54-19.75,11.62-28.25,17.12,1.76-.23,3.51-.48,5.27-.69,12.95-1.59,26.34-2.83,39.17-.8,16.91-17.5,35.05-29.21,60-32.78,12.5-1.78,27.72-3.06,40.31-2.37,13.65.75,4.52,15,7.9,25.82,6.8,21.82,39.66,31.32,60.21,25.45,17.25-4.93,23.37-7.88,25.38-15.41-2.69,6.31-30.7,7.87-44.73,6.49"/><path class="t" d="M1145.87,1111.55a74.3,74.3,0,0,0-3.31,10c-.14,1.24-.25,2.47-.32,3.73a27.27,27.27,0,0,1,7.76,1.24c.25-1.9.51-3.8.69-5.7,1-11.3-1.38-12.43-4.82-9.31m43.54-6.11a176.76,176.76,0,0,0-9.61,16.08,39.87,39.87,0,0,0,6.29,2.46c4.41-8.09,8.09-16.78,3.31-18.54m12.62,21.64a52.25,52.25,0,0,0-9,13.61,13.24,13.24,0,0,1,1.34.33,12.59,12.59,0,0,1,7,2.81c1.26-3,2.47-6,3.5-9,1.75-5.13,2.4-8.22-2.85-7.76m38.85,89.65c-5.79.66-11.12,3-16.16,5.85.35.81.65,1.65.95,2.45.15.39.29.79.43,1.19,6.44-2,12.28-4.53,15.62-8.16a10.14,10.14,0,0,0-.83-1.34"/><path d="M1328.36,343.71a32.39,32.39,0,0,0-4.88-20c-5.49-8.59-17.81-17.79-13.32-29.39-4.07-1.23-5.8,7.37-6.38,9.83-1.43,6-1.14,11.07,1.73,16.72,3.48,6.84,8.19,12.84,11.29,19.92a109.72,109.72,0,0,1,4.44,12.53c.78,2.59,3.58,8.2,3.26,8.44-.3-2.51,3.38-12.27,3.85-18"/><path d="M1331.6,451.08c-1.16,6.58-3.88,13.77-1,20.3,2.47,5.66,8.32,9.16,13.77,11.44-5.72-2.08-8-10.94-7.61-16.38.36-4.62,3.21-8.4,4.93-12.57a55.6,55.6,0,0,0,3.57-13.31c1.35-9.53.73-19.24-5.86-26.75-2-2.31-9.64-12.5-12.79-12.95,4.11,13.46,7.68,35.12,5,50.23"/><path class="ai" d="M1318.8,299.9c3.83,3.18,18,23.86,20.5,31.36,1.6,4.77,3,9.41,5.76,13.65,1.66,2.53,4.16,4.22,6.46,6.07-2.24-3.1-3-7.67-3.69-11.34-.65-3.31-1.29-6.59-2.2-9.84-1.38-4.92-3-10.43-5.55-14.83a33.58,33.58,0,0,0-8.41-10.05,44.11,44.11,0,0,0-8.87-4.88c-1.62-.71-3.39-1.19-4.94-2.05a9,9,0,0,0-1.44-.8"/><path class="ai" d="M1357.33,394.09a14.22,14.22,0,0,0-.29,5.13,10.32,10.32,0,0,0,2.63,4.78,45.73,45.73,0,0,1,10.76,21.43c1.76,9.36-.54,19.33-1.32,28.7-.38,4.6-1.1,9.17-1.45,13.78-.22,2.86-.95,5.93-.87,8.81a36.81,36.81,0,0,0,1-3.6c.65-2.12,1.46-4.19,2.21-6.28,1.9-5.28,4.15-10.38,5.86-15.73a123.94,123.94,0,0,0,3.07-12.91c.9-4.4,1.73-8.86,1.12-13.39-1-7.32-6.28-14.7-11.21-19.92-2.71-2.87-5.36-5.76-8.22-8.47a29.09,29.09,0,0,1-2.76-3.13c-.09.5-.51.76-.62,1.21-.5,2.11,4,9.41,4.32,10"/><path class="t" d="M1229.84,319.4c1.34-2.48-.59,1.81-.84,2.19-1.67,2.53-12.28,12.65-13.27,18.31-2,11.54.86,25.13,4.81,36,3.83,10.52,11.48,17.09,17.35,26.28s10.65,18.81,17.73,27c-2.07-11.56-7.05-18.74-4.93-31.27,2.07-12.24,6.41-18.15-1.13-29-2.44-3.49-5.12-6.56-5.35-11-.24-4.63,2.83-8.42,1.29-13.23-3-9.42-14.36-16.25-13.74-27.46"/><path class="p" d="M1248.94,395.89c.21-6,.85-12.38-.61-18.29-1.21-4.89-3.93-9.54-5.71-14.27a1.91,1.91,0,0,1,.11-1.75,2.15,2.15,0,0,1-.91-1.72c-.06-10.71-3.14-17.52-7.54-26.86a42.69,42.69,0,0,1-3.53-10.88c-.64,1.45-1.28,2.91-1.83,4.38-1.62,5.33-1.68,11.12-1,17,1.22,4.21,2.45,8.42,3.56,12.67,2.15,8.25,3.42,16.68,5.69,24.89,2.22,8,5.51,15.48,8.74,23.13.6,1.43,1.29,2.89,2,4.36a108.69,108.69,0,0,1,1-12.69"/><path class="aj" d="M1231.1,333.76c1.55,4.4,4.76,7.76,5.35,12.51.69,5.53-2,10.59.45,16,1.53,3.39,4.15,6.21,5.27,9.82,1.38,4.45.71,9.1.59,13.66a72.3,72.3,0,0,0,2,18.05c1.9,8.34,5.64,15.61,9,23.15.61.77,1.22,1.55,1.86,2.29-2.07-11.56-7.05-18.74-4.93-31.27,2.07-12.24,6.4-18.15-1.13-29-2.43-3.49-5.12-6.56-5.35-11-.24-4.63,2.83-8.42,1.29-13.23-3-9.42-14.36-16.25-13.75-27.46l-1.11,1.23c-.15,5.22-1.38,10,.45,15.25"/><path class="ak" d="M1279.75,334.58c6.74-4.31,12.42,10.59,10.75,16.41-1.39,4.83-4.65,10.45-4.76,15.51-.1,4.77-1.21,4.6-.45,9.3.4,2.45.37,4.78-2.64,6.16-3.35,1.54-4.76-.59-5.68-3.28-1.66-4.83-1-7.73-2.76-12.26-1.2-3.13-3-5.15-4.63-8-.94-1.66-2-3.68-1-5.7.55-1.19,1.59-1.3,1.6-2.65-.58-.56-1.56-6.93-3.66-8.3-1.43-4,5.95-2.49,13.27-7.18"/><g class="al"><g class="l"><path class="p" d="M1292.16,339.86a.7.7,0,0,0-.32-.55,24.31,24.31,0,0,1,3.66,2.89c3.25,2.65,7.06,4.58,10.39,7.15,6.11,4.71,12.1,9.52,19.5,12.08-.81,1.33-5.18.06-6.49-.16a63,63,0,0,1-11.66-2.6,60.65,60.65,0,0,1-8.79-4c-2.08-1.16-2.67-2.62-3.44-4.9-.94-2.81-1.58-5.39-3.16-7.92-.11-.17-1.56-2-1.44-2.37.45-1.52,2,.41,1.73.41"/></g></g><path class="j" d="M1671,602.93c-.82-2.1,61.17,85.07,52.38,72.7-15.44-21.72-28.72-45.61-39.95-69.76-10.62-22.84-18.84-47.65-35.74-66.85-1.48-1.68,26.72,38.41,36.47,60.09q5.89,13.09,12.63,25.94a1.54,1.54,0,0,1,.22.27,155.53,155.53,0,0,0,56.36,60.52c18.36,8.15,38,11.78,58.45,8.57q4.62-.73,9.17-1.76c-32.77-3.36-64.92-16.05-87.7-38.47-36.88-36.3-48.52-87.9-63.06-135.58-14.47-47.46-40.3-87.41-81-116.59-46-33-84.53-72.72-129.13-107.42-27.41-21.33-87.48-79-126.11-66.67-17,5.42-23.81,22.89-23.74,39.85.12,28,7.76,7.32,28.4,15.17,19.61,7.46,19.19,31.6,42,61.92s45.14,28.09,44.34,34.2c-9.73,37.87-13.43,69.16-9,98.27.9-2.17-43.79,33.52-54.86,64.79-35.93-30.25-79-54-113.85-85.59-31.39-28.47-53.89-62.47-54-106.33-.06-18,3.54-38.6,19.42-49.78,7.79-5.49,19.19-4.12,19.53-11.88-3.07-4.45-9.2-12.82-11.3-14.43-7.64-5.86-17.74-8.71-27.26-6.84-19.22,3.76-27.12,22.74-32,39.46-13,44.46,10,90.08,36.83,125,32.23,41.83,68.74,65,113,92.08a530.7,530.7,0,0,1,47.1,32.07c-1.81,31.92,19.08,61.24,42.79,79.57,53.25,41.17,100,131,65.61,201.81,10.76-9.95,29.57-51.9,33.23-67.79,5.92-25.72,1.49-61.5-4.16-87.28-10.38-47.4-67.91-91.11-89.32-146.77,12.41,20.34,59.26,43.54,73.88,50.16,25.68,11.64,49.47,26.68,67.88,48.33,19.45,22.89,31,51.1,38.43,80,2.16,8.45,3.47,72.26,4,72.55,19.25-42.56,32.45-86,34.55-132.88,1-22.1-.89-42.81-7.69-64-6.75-21-25.7-40.92-30.55-61.36,41.36,52.79,54,124.26,110.87,165.75,20.71,15.1,41.28,22.81,61.86,25.18-38.45-31.34-70.83-69.4-89-116.18"/><g class="am"><g class="i"><path class="m" d="M1729.37,704.28c-34.23-25.37-54.7-64.46-71.68-102.49-10.11-22.65-19.8-45.65-33.17-66.62-14.31-22.44-31.68-43.23-49.63-62.83-35-38.17-75.93-67.45-120.31-93.72-20.74-12.28-42.15-23.54-62-37.27-9.06-6.27-18.28-12.86-26.48-20.29a155.4,155.4,0,0,0,14.65,23.8c20.83,27.66,41.21,28.24,44,32.76,4.9,2.1,9.42,5.57,13.66,8.44,10.47,7.07,20.62,14.74,30.54,22.57,20.91,16.5,39.92,35.17,58.44,54.27q9.49,9.78,18.55,19.91c18,15.86,35.48,32.43,47.07,53.16,36.89,51.85,50.94,118.49,105.09,158,19.58,14.27,39,21.94,58.48,24.73a97.58,97.58,0,0,1-27.25-14.39m-265.2-213.6a233.31,233.31,0,0,1-30.94-51.76c-4.06-9.48-7.69-19.35-9.56-29.52-.9-4.87-1.26-9.9-2.3-14.72-6.86,31-9.08,57.65-5.26,82.64.06-.14-.07-.12-.36,0,5,16.73,8.84,33.51,17.56,49a231.13,231.13,0,0,0,31.17,42.88c5.16,5.63,10.57,11,16.13,16.2l.08,0c25.68,11.64,49.47,26.68,67.88,48.33,19.45,22.88,31,51.1,38.43,80,2.16,8.45,3.47,72.27,4,72.55A451.33,451.33,0,0,0,1610.75,735c-3.19-51.68-24.55-102.19-58.09-144.61-27.59-34.9-61.08-64.63-88.49-99.68m-59-4.81c-13.75,12.15-36.43,35.18-43.89,56.24-35.93-30.25-79-54-113.84-85.59-31.39-28.47-53.89-62.47-54-106.33-.06-18,3.54-38.6,19.42-49.78,7.34-5.17,17.87-4.26,19.36-10.62-6.07.31-11.93-.39-17.78-1a73.37,73.37,0,0,0-30,30.78c-3.73,20-3.05,40.62,0,60.88a214.34,214.34,0,0,0,10,24.43c8.57,16,19.43,31.25,31.43,45.54q17.6,14.93,35.34,29.71c21.88,13.62,43.41,27.84,64.94,42,41.89,27.55,82.4,57.31,113.21,97.37,4.38,5.7-54.38-42-80.77-61.44-.73,31,19.67,59.41,42.82,77.31,53.25,41.17,100,131,65.61,201.81,8.65-8,22.49-36.66,29.49-55.85,2-39.29-8.23-79.37-27.75-116.58-27.19-51.82-88.14-116.16-63.65-178.9"/></g></g><path class="an" d="M1457.35,938a164,164,0,0,1-6.83-30c-4.59-36.4,7-72.42,5.7-108.86a186.59,186.59,0,0,0-21.25-81c-15-28.36-37.34-51.83-61.47-72.66-14.51-12.53-29.76-24.17-44.89-35.92q-3-1.1-6.06-2.12,12.79,10.16,25.59,20.31c27.5,21.93,54.72,45.38,74.39,74.86a183.12,183.12,0,0,1,30.45,89.9c2.34,36.08-8.64,71.36-6.35,107.34a142.5,142.5,0,0,0,2,16.19c-11.44-31.07-18.17-62.57-19-95.9s.63-67-12.51-98.4c-11.78-28.16-31.74-53.08-53.26-74.42a389.64,389.64,0,0,0-52.95-43.54q-2.39-.7-4.79-1.37h-.39c44.34,30.38,86.3,69,107.67,118,13.81,31.7,12.08,65.9,12.79,99.67a291.79,291.79,0,0,0,19.51,98.77c3.35,8.81,7,17.48,10.83,26.07.25.35.47.72.71,1.07q1.7,2.48,3.34,5c.7,1.1,1.38,2.22,2.07,3.33s1.33,2.15,2,3.24c2.14,3.55,4.24,7.14,6.37,10.7-4.73-10.05-9.33-20.16-13.68-30.38M1244.47,612.8a333.22,333.22,0,0,0-36.19-44.5c-7.27-7.61-14.82-14.93-22.51-22.11-4.83-4.5-9.33-9.32-14.62-13.12l-1.49.69c5.07,3.77,9.38,8.49,13.94,12.92,6.17,6,12.36,11.94,18.34,18.12a364.34,364.34,0,0,1,33.83,39.94c18.75,26,33.57,55.65,40.23,87.15-10.87-39.4-37.6-75.52-69.84-99.12-10.67-7.81-21.54-15.52-30.94-24.88-8.07-8-15.76-17.93-15.11-29.69l-.56.26c-.31.19-.6.4-.9.6-2.11,16.26,13.83,30.76,25.05,40.18,8,6.68,16.41,12.73,24.7,19a155.49,155.49,0,0,1,24,23.07c19.23,22.29,34.94,48.37,41.69,77.25a130.09,130.09,0,0,1-8.62,84.69c.65,1.11,1.27,2.25,1.91,3.37q2.4-5,4.45-10.08c-1.14,3.78-2.42,7.53-3.79,11.25.84,1.51,1.68,3,2.5,4.55,10.34-27.19,14.79-56.3,11.15-85.35-4.22-33.78-18.37-66.08-37.2-94.22m139.39,188c7.91-30.91,16.31-63.82,7.63-95.51-7.09-25.9-25.21-48.41-44.26-66.7-19.82-19-44.19-36.74-71.48-42.86-.52-.35-1-.72-1.56-1.06,1.15,1.45,2.21,2.89,3.12,4.2,12,8.77,22.64,20.56,32.39,30.8,15.15,15.94,30,32,39,52.36,19.45,43.75,11.57,94.18-7.5,136.6a278.94,278.94,0,0,1-27.7,47.85,149.2,149.2,0,0,1-9.67,17.28c30.12-35,52.39-78.85,58.08-124.92,2.88-23.37,1.12-47.46-7.07-69.64-8-21.69-21.93-38.67-37.54-55.31a387.43,387.43,0,0,0-28-27.5c-3.33-2.9-6.79-5.79-10.41-8.46,24.23,7.4,46.05,22.93,64.26,40.08,20.51,19.32,40.26,43.62,46.65,71.67,7.77,34-3.38,68.64-11.66,101.46-7.29,28.89-11.85,58.33-7.83,88.1a158.66,158.66,0,0,0,14.86,48.51c3,4.64,5.64,9.28,7.85,12.28a107.67,107.67,0,0,0,7.31,8.74c-14.26-21.63-24-45.95-27.18-71.9-4-32.78,2.59-64.49,10.68-96.1"/><path class="d" d="M1596.29,536.44c-.49-.79-1.74-.07-1.25.73,25.75,42.12,49.85,85.88,62,134.09,12.6,50.1,9.88,102.24-15.59,147.92-8.53,15.29-18.87,29.43-29.83,43.09q-3.86,6-8.06,11.84c-2.21,3.07-4.44,6.18-6.77,9.22a1,1,0,0,0,.67-.35c31.35-35.69,59.81-73.52,67.61-121.63,8.14-50.26-5.12-101.51-25.76-147.2-12.21-27-27.32-52.59-43-77.72m-67.78-220.8c-12.94-13.5-25.72-27.15-38.16-41.12-6.59-7.41-12.92-15.12-19.19-22.92a505.4,505.4,0,0,1,61.39,52.86c7.61,7.62,15,15.39,22.44,23.18q-13.42-5.59-26.48-12m351.26,183.15c-4.72-13-9.58-26-16.35-38.1a173.07,173.07,0,0,0-34.6-42.9c-26-23.61-58.33-38.22-92.62-44.77-44.77-8.55-89.88-15.58-133.68-28.5-14.21-4.19-28.13-9.11-41.81-14.6-9.2-9.84-18.42-19.67-28-29.16-20.77-20.61-43.22-39.91-67.43-56.53-15.72-19.73-31.42-39.58-50.25-56.13-46.5-40.87-127.68-69.7-183.41-30-22.84,16.29-35.67,42.35-31.95,69.3-9.3-4.45-18.32-8.9-29-11a135.54,135.54,0,0,0-37.76-1.88c-24.88,2.23-50.38,11.47-68.53,29.1-16.93,16.45-25,39.44-24.82,62.81.25,28.07,11.78,52,25.41,75.91q3.61,6.32,6.91,12.73c3.75,13.78,8.34,27.32,13.24,40.74a3,3,0,0,1,1,1.18,90.84,90.84,0,0,1,4.46,10.8c3.84,11.18,5.6,22.86,6.47,34.68.25,1.36.54,2.7.75,4.07a1.16,1.16,0,0,0,.71-1.21c-1.54-27.24-6.09-54.08-16.95-79.26-2.12-4.92-4.49-9.71-7-14.43-4.42-17.38-7.4-35-7.54-52.84s3.17-36.12,12.37-51.72c10.51-17.82,27.65-30.36,46.39-38.5,20.28-8.8,47.5-8.8,65.37,5.28-11.82-5.28-26.06-5.75-38.67-4-18.68,2.62-37.45,11.11-50.87,24.53-25,25-26.32,63.06-18.46,95.59a189.49,189.49,0,0,0,13.29,37.1,3.12,3.12,0,0,1,1.55,1.35c3.81,6.28,7.71,12.5,11.58,18.72a1,1,0,0,0-.09-.93c-16.82-28.44-28.7-62.18-27.29-95.58.66-15.68,4.79-31.36,13.74-44.4,10.5-15.3,26.74-25.31,44.26-30.73s40.34-6.57,56.5,3.57c.39.43.81.82,1.18,1.27a.66.66,0,0,0,.9.07,38.8,38.8,0,0,1,6.28,5.6c.6.67,1.53-.3,1-1a38.34,38.34,0,0,0-9-8c-29.34-33.8-85.56-13.49-111.15,14.91-26.61,29.53-25.76,71.14-17.8,107.8-9.12-16.37-18.39-32.56-22.33-51.37-5-23.76-2.76-49.46,10.91-70.05,14.61-22,40.24-34.67,65.64-39.34a135.62,135.62,0,0,1,45.54-.58,93.69,93.69,0,0,1,23.68,6.66c2.79,1.24,5.54,2.55,8.29,3.84a70,70,0,0,0,3.08,12.1c.33.92,1.79.55,1.48-.41a70.17,70.17,0,0,1-2.47-10.72c3,1.39,6.05,2.72,9.19,3.85.69.25.95-.81.3-1.08-3.34-1.36-6.55-2.84-9.72-4.34-3.44-26.8,9.38-52.48,32.22-68.28,27.74-19.19,64.14-20.69,96-12.93a197.86,197.86,0,0,1,88.13,48c13.89,13.17,26.1,28,38.12,43a329.68,329.68,0,0,0-61.79-31.64c-29.62-11.25-61.08-16.78-92.74-13.6-12.61,1.27-25.73,4.06-36.43,11.2-9.37,6.25-18.76,16.14-17.27,28.19.06.5.82.53.8,0-.61-15.45,15.09-26.68,28-31.61,11.75-4.47,24.52-5.75,37-6.14,28.3-.9,56,5.05,82.33,15.35a334.08,334.08,0,0,1,65.42,34.92c7.8,9.75,15.61,19.48,23.83,28.77,11.46,12.94,23.25,25.58,35.22,38q-19.4-9.9-38-21.4c-34.37-21.33-66.48-46-98.24-71,4.58,1.08,9.1,2.24,13.53,3.41a1.29,1.29,0,0,0,.69-2.49c-6.41-1.9-13.07-3.76-19.85-5.35l-10.93-8.63c-1.35-1.07-3.29.8-1.92,1.92q3.23,2.67,6.49,5.32c-17.53-3.56-35.67-4.78-52.52.58-31.43,10-41.43,43.69-32.44,73.32a1,1,0,0,0,1.89-.52c-3.57-18.15-4.13-36.93,7.27-52.6,7.33-10.07,18.42-16,30.44-18.45,16.52-3.42,33.88-1.52,50.63,2C1425,256.35,1474,293.23,1528.72,320c15.83,16.26,31.94,32.25,48.06,48.22a1.14,1.14,0,0,0,1.61-1.61c-14.12-14.33-28.28-28.65-42.28-43.11q12.47,5.84,25.36,10.93c25.22,26.6,50.46,52.92,81.34,73.53,33.08,22.08,68.92,39.72,101.63,62.39,30.11,20.86,55.4,46.35,70.1,78.87q-2.09-8.12-4.66-16.17c-33.17-57.32-102.31-87.14-157.27-122.14a359.72,359.72,0,0,1-58.7-46.5c-9.23-9-18.1-18.4-26.93-27.82.8.3,1.58.64,2.38.93,42.41,15.75,86.88,24.52,131.27,32.55,20,3.62,40.4,6.39,59.87,12.47a183,183,0,0,1,48.5,23.3A179.63,179.63,0,0,1,1854.45,451c11.71,16.63,18.73,35.59,26.07,54.39-.25-2.21-.48-4.42-.76-6.63m-437.34,81.59a55.21,55.21,0,0,1,8.81,5.68q-4.34-3-8.81-5.68m121.82,251.19c4.89-17.51,11.36-34.69,13.75-52.8,2.12-16-.34-32.11-5.43-47.36-10.41-31.18-28.79-59.1-50.61-83.45a440.2,440.2,0,0,0-40.21-39c-7.08-6.12-14.43-11.91-21.58-17.94-6-5.07-12-10.06-19.37-13.06-.56-.23-1,.41-.92.91-2.52-1.5-5.05-3-7.62-4.37a.43.43,0,0,0-.44.75c22.55,14.93,44,30.74,61.71,51.43,18.69,21.89,34,48.69,40.22,77,7,31.47,0,62.87-10.5,92.69-10,28.36-20.26,55.64-13.78,86.14,5.26,24.74,19.29,45.78,34.22,65.84,3.39,3.58,6.82,7.11,10.37,10.56-16.57-22.37-33.86-45.22-40.85-72.59a105.49,105.49,0,0,1-.21-49.92c3.56-15.61,9.92-30.32,14.94-45.48,9.41-28.42,14.8-58.23,8.14-87.9-5.89-26.27-19.59-51.28-36.33-72.17-3.61-4.51-7.48-8.86-11.48-13.1,9.67,8.75,19,17.85,27.85,27.45,23.68,25.72,44.07,55.69,54.51,89.35a105.05,105.05,0,0,1,2.45,55c-3.83,17.36-10.38,34-14.45,51.27-6.6,28-5.63,57.17,4.78,84.13,7,18,17.35,34.3,29.28,49.41,4.9,5,10,9.75,15.49,14.35-16.47-18.94-31.54-39.4-40.9-62.75-12.26-30.59-11.81-62.92-3-94.37"/><path class="ao" d="M1545.39,338c13.84,4,27.71,7.91,41.55,11.91A343.51,343.51,0,0,1,1545.39,338m323.25,171.21c-17.91-29.59-36.7-59.09-61.16-83.78a204.27,204.27,0,0,0-91.72-53.92c-32.64-8.89-66.6-11.1-100-16.22-19.89-6-39.86-11.47-59.33-16.89-11.33-3.16-22.67-6.35-33.94-9.75a243.22,243.22,0,0,1-33.6-18.79c-17.52-11.77-33.83-25.22-51.31-37q-6.61-4.47-13.47-8.51a415.56,415.56,0,0,0-36.46-29.56c5.68,2.89,11.25,5.89,16.7,8.88-4.48-3.6-8.92-7.28-13.4-10.92a252.36,252.36,0,0,0-26.14-12.46c-33.81-18.7-70.56-25.8-96.33,7.65-14,18.22-14.25,41.88-11.22,63.7a7.4,7.4,0,0,1,2.24.27,1,1,0,0,0,0-.17,17,17,0,0,0-.17-2.44c-1.35-19.34-1.85-39.75,9.81-56.36,9.23-13.15,23.13-22.44,39.33-23.81a76.36,76.36,0,0,1,27.75,3.09,89,89,0,0,0-17.82-1c-39.21,2-60.63,44.61-49.59,80.09,1.28-.2,2.56-.39,3.84-.7a3.49,3.49,0,0,1,1.5,0l.27-.23c.44-.37,0-1-.53-.91-8.73,2-3.66-30-2.28-34.6,2.81-9.42,7.61-18.65,14.45-25.78,10.33-10.75,24.57-14.65,39.15-13.94,12.85.63,25.44,3.89,37.66,8.52A281.08,281.08,0,0,1,1391.25,242c6.53,4.73,12.89,9.7,19.12,14.82-7.06-3.53-13-7.87-20.83-4.27-.29.13-.09.6.21.51,8.7-2.68,18.81,4.18,26.68,8.86q6.12,5.19,12.13,10.5a1.57,1.57,0,0,0,2.57-1.48c3.83,2.53,7.61,5.15,11.35,7.83,14.54,10.41,28.44,21.67,43.14,31.85a239.41,239.41,0,0,0,21.24,13.09c-7.84-2.55-15.64-5.22-23.37-8.12a357.14,357.14,0,0,1-37.76-16.47c-11.75-6-22.67-13.56-34.45-19.55-.43-.22-.81.42-.38.65,10,5.53,19.35,12.24,29.31,17.9,4.85,2.76,9.83,5.3,14.88,7.71,26.46,23.23,53.91,46,83.19,65.59,27.92,18.68,58.22,33.89,85.63,53.26a221.37,221.37,0,0,1,60.45,64.43c16.25,26.23,25.78,56.2,44.25,81.1,21.62,29.16,53.67,47.34,85.5,63.34-4.61-2.9-9.32-5.56-13.65-9-24.31-13.24-47.92-28.5-65.62-50-20.59-25-30.33-56.4-46.91-83.84a223.53,223.53,0,0,0-53.29-60.66c-25.48-20-55.09-34.43-82.38-51.71-33.29-21.09-64-45.83-94.15-71.11q5.65,2.61,11.36,5c16.38,6.94,33.21,12.71,50.19,18a312.55,312.55,0,0,0,66.62,22.53c9.19,2.06,18.44,3.71,27.72,5.15,11.42,3.53,22.79,7.21,34.07,11.21,37.55,13.33,74.58,30.19,105.69,55.49,29.21,23.76,53.68,55,67.36,90.26,12.25,31.53,15.52,65.21,15.07,98.77a71.25,71.25,0,0,1,1.46,13.1c1.69-33.48.42-67.46-9.45-99.71-10.51-34.35-30.86-64.85-56.29-90-38.24-37.82-87.8-59.77-138.92-76.42,21.73,2.9,43.53,5.38,65,9.82,36.9,7.63,70.57,23.31,98.72,48.56,26.32,23.62,46.38,53,65,82.83a78.37,78.37,0,0,1,6.9,8.28.88.88,0,0,0,0-1m-666.28,34.64c-17.29-29.07-36.07-57.19-53.87-85.94-28.25-45.65-68.87-113.8-26.9-163.85,10.63-12.67,24.82-22.94,40.57-28.17a64.18,64.18,0,0,1,24.9-3.4c8.48.63,20.46,2.64,25.71,10,.56.78,1.83.08,1.31-.76-6-9.58-21.15-11.72-31.48-11.81-14.53-.14-28.7,5-40.85,12.72-24.25,15.41-40.15,40.27-40.94,69.26-.8,29.26,11.23,57.5,24.89,82.74,18.15,33.54,39.9,64.95,60.13,97.23,21.35,34.07,41.33,69,60.29,104.43,1.88,2.76,3.78,5.51,5.67,8.26a.87.87,0,0,0,.23-1.11q-23.57-45.48-49.68-89.58M1413.6,600.5c-8.76-16.92-17.22-34.76-20.75-53.62a85.93,85.93,0,0,1-.32-31.17c1.84-10.17,5-21.77,12.44-29.27.4-.4-.19-1-.61-.61-10.27,8.4-13.78,24.51-15,37.09-1.52,15.72,1.91,31.29,7.37,46,11.42,30.72,28.85,59.16,46.87,86.37s37.15,53.33,54.39,80.89c18.14,29,35.16,60,41.76,93.87,3.65,18.75,3.83,38.48-2.21,56.75-3.68,11.11-9.43,21.23-16.08,30.76a91.21,91.21,0,0,1-5.31,10.07c15.73-19.87,27.61-41.43,28.51-67.69,1.12-32.57-10.85-64.15-25.78-92.55-30.68-58.35-75-108.29-105.28-166.86m-107.3-72.38c-19.37-25.37-39.52-50.18-58.54-75.8-19.25-25.93-37.16-53.53-47.53-84.34-4.89-14.53-8.33-30.27-5.67-45.62,2.74-15.81,19.16-38.59,37.95-31,.74.3,1.29-1,.55-1.3-11.13-4.87-24.28,2.64-31.47,11.23-7.48,8.93-10.16,20.73-10.17,32.16,0,29.85,15,59.6,30.19,84.46,17.47,28.57,39,54.33,59.54,80.69,23.5,30.15,47.52,60.17,67.61,92.75s35.6,67.73,48,103.91q1.63,2.65,3.07,5.41a540.58,540.58,0,0,0-35.45-85.05c-16.37-31.07-36.76-59.57-58-87.43m114-165.46c22,14.29,44.95,27,67,41.09a696,696,0,0,1,118.14,95.63.57.57,0,0,0,.81-.8A677.47,677.47,0,0,0,1494.8,406.2c-21.42-14.13-43.85-26.61-65.64-40.14-19.11-11.87-42.29-24.39-54.28-44.15a.22.22,0,0,0-.38.23c9.38,18.17,29.24,29.73,45.84,40.53m25.13,20c-14.38-8.74-29.08-17.14-42.71-27a150.9,150.9,0,0,1-20.33-17.45c-6.58-6.87-14-14.81-16.6-24.12a.42.42,0,0,0-.82.23c2.72,12.29,14,23.45,22.9,31.71,10.47,9.67,22.44,17.6,34.5,25.11,27.12,16.9,54.71,33,81.34,50.73,51.64,34.32,96.84,75.44,130,128.24,17.55,28,31.52,58,42.83,89,.31.85,1.68.49,1.38-.38-18.5-52.2-45.29-101.27-82.32-142.67-42.32-47.33-96.36-80.64-150.14-113.31M1590.3,552.74c-1.67-3.55-3.41-7.08-5.31-10.53a.53.53,0,0,0-.9-.07q-2.71-4.48-5.49-8.88-11.15-17.59-23.9-34.08c-8.71-11.3-18.62-21.66-27-33.18-.24-.33-.8,0-.56.33,6.19,8.92,13.61,16.85,20.34,25.35q11.64,14.7,22.09,30.31,11.85,17.7,21.81,36.47c15.91,37.56,20.59,80.22,19.16,121.22-28.69-35.88-58.92-70.47-88.65-105.49-16.16-19-32.23-38.17-47.66-57.8-14.83-18.86-29.13-38.54-39.29-60.37-5.91-12.69-11.1-26.74-11.51-40.88-.38-13,2.76-25.87,2.59-38.88a.64.64,0,0,0-1.27,0c-1.14,11.74-3.73,23.37-4.11,35.18-.36,11.16,2.14,21.86,5.82,32.34,7.8,22.25,20.78,42.46,34.76,61.29,31,41.84,66.27,80.59,100.23,120,16.55,19.22,33,38.55,49,58.24-.34,7.75-.87,15.45-1.61,23-4.69,48.49-20.63,93.27-45.3,134.56-2.08,5.18-4.45,10.24-7,15.25,23.24-34.26,40.88-71.52,49.35-112.24a354.06,354.06,0,0,0,7-57.49c1.59,2,3.2,3.92,4.79,5.9,0-1.32-.13-2.65-.23-4-1.47-1.86-3-3.71-4.44-5.56a358.21,358.21,0,0,0-5-72.3,244.35,244.35,0,0,0-10.34-39.86q3.68,7.43,7.12,15c20.63,45.63,36.38,97.49,25.92,147.79-5.32,25.58-18.18,46.83-33.52,67.58a.81.81,0,0,0,.08,1.13c3.55-4,7.16-7.89,10.48-12,9.58-13.62,17.84-28,22.56-44.21,6.95-23.91,7.63-49.08,4-73.61-6.25-41.75-22.86-82.61-43.92-119.56M1806.83,679c-13.72-.73-27.18-3.89-39.54-10.68-23.14-12.7-39.39-35.21-52.44-57.54-26.93-46.07-43.16-97.78-74.13-141.62a203.45,203.45,0,0,0-27.64-32c-11.25-10.42-24.13-18.58-37-26.88-.4-.26-.76.37-.37.64,12.81,8.91,25.88,17.2,37.23,28a204.72,204.72,0,0,1,27.67,33c15.27,22.36,27.22,46.91,38.58,71.43,11.72,25.29,22.56,51.12,37.16,74.94,12.74,20.78,28.47,41.2,50.32,53s46.62,12.43,70.66,7.9a.85.85,0,0,0,.75-.8,124,124,0,0,1-31.28.67"/><path class="ap" d="M1696.22,442.27c-56.23-34.64-106.38-76.28-153.87-122-43.71-42.12-84.53-88.16-137.16-119.56a298.84,298.84,0,0,0-83.4-34.17c-24.95-5.9-54.19-8.41-77.76,3.72-39.17,20.16-50.71,74.7-23.43,108.95-17.26-5.48-30.27,10.39-37,26.8a115.8,115.8,0,0,0-8.14,34.2c-1.12,14,2.64,28,7.69,41,14.32,36.91,41.22,68.14,68.4,96.28,31.44,32.53,68.17,57.9,104.92,83.92,39.11,27.68,77.29,56.63,112.73,88.9l2,.83c.85.35,1.91.76,3.09,1.22-28.52-26.68-58.93-51.18-90.34-74.38-33.94-25.06-69.74-47.72-101.74-75.33-29.63-25.56-57.69-55.32-78.87-88.34-16.44-25.64-29.56-55-23.79-85.88,4.11-22,18.46-61.28,47.71-45.35a.33.33,0,0,0,.34-.58,32.23,32.23,0,0,0-5.48-2.77s0,0,0,0c-25.84-34.56-16.29-87.18,23.1-107.38,26.05-13.36,59-8.5,86-.83a308.18,308.18,0,0,1,81,36.32c49.78,31.67,89.08,76.24,131.34,116.78,43.47,41.7,89.25,80.45,140.28,112.64,46,29,94.32,54,141.33,81.21,1.94.69,3.88,1.39,5.81,2.14l3.05,1.2c-45.57-27.13-92.65-51.67-137.82-79.5M1211,270.55c.21.3.7,0,.5-.29-18.52-29.36-64.69-31.64-91.49-13.31-15.75,10.77-26.66,28.79-29.29,47.65-2.15,15.46,1.78,30.41,7.56,44.63,1.9,2.93,3.86,5.82,5.78,8.73-7.12-16-13-33-11.24-50.67a68.79,68.79,0,0,1,28.28-48.46c26.26-18.4,70.55-15.77,89.89,11.73m46.79,318.89c-9.63-9.37-20.38-17.48-30.36-26.46a146,146,0,0,1-14.24-14.37c-.32-.38-10.13-15.07-10.34-15,.65-.1.51-1.22-.16-1.16l-.55.05a.62.62,0,0,0-.61.61c-.1,2.24,1.91,4.48,3,6.27a94.87,94.87,0,0,0,9.55,13c7.75,8.83,16.81,16.37,25.75,24A337.28,337.28,0,0,1,1291,630.4c31.28,41.47,51,92,41.91,144.48-3.72,21.4-11.58,41.69-21.19,61.1q3.93-5.2,7.62-10.58c15.55-35,23.32-72.42,14.94-111.29-10.46-48.52-41.47-90.6-76.46-124.66m165,74.36c-15.82-23.45-35.27-44.11-55.17-64.1-11.7-11.75-25.64-22.93-34.85-36.8-4.32-6.5-7.9-13.58-11.81-20.33-1.94-3.35-1.95-5.79-6-6a.21.21,0,0,0-.14.05,19.4,19.4,0,0,0-1.2-2c-.47-.68-1.57-.06-1.12.65,3.08,4.92,3.44,10.74,5.31,16.12a98,98,0,0,0,7.32,15.47c6.06,10.81,13.52,20.77,21.24,30.44,15.9,19.92,32.85,39,49.11,58.58,33.45,40.37,67,90.58,67.65,145,.21,19.34-3.2,38.43-8.07,57.18a174.08,174.08,0,0,1-10.62,40.3,1,1,0,0,0,.9-.7c9.12-27.19,17.7-54.81,19.79-83.57,1.94-26.69-4.21-52.1-14.69-76.53-21.29-49.64-58-87.71-91.93-128.78-9.76-11.83-19.69-23.65-27.92-36.63a112.78,112.78,0,0,1-11-21.27c-1.67-4.56-2.36-9.41-4.47-13.73,3.66,1.16,6.79,10.64,8.26,13.49,3,5.89,6,11.84,9.87,17.24,7.59,10.59,18.11,19.44,27.27,28.65,19.44,19.53,38.71,39.41,54.82,61.84,16.84,23.46,29.75,49.9,39.65,77,10.51,28.73,16.08,58.41,15,89-1.16,31.74-8.21,62.8-16.81,93.27a99.53,99.53,0,0,0,5.14-9.07c6.76-24.09,12.21-48.54,14.15-73.54a230.61,230.61,0,0,0-11.07-90.7c-9.24-28.12-22-56-38.57-80.55M1527,519.19c-24.64-28.69-53.69-53.64-77.21-83.21-.21-.26-.68.09-.47.36,18.72,24.55,42,45.47,62.71,68.31,21.68,23.9,41.5,49.31,58.28,76.9,33,54.18,53.29,116.87,40.59,180.51-3.61,18.07-9.26,35.6-18.94,51.38-2.84,4.64-5.94,9.09-9.18,13.43-1.51,3-3.07,6-4.7,9,13.36-16.45,24.56-34.11,30.65-55.19a212.36,212.36,0,0,0,5-96.12c-11-62-46.3-118.31-86.73-165.39m78,196.35a82.14,82.14,0,0,1,3.85,13.33c-2.63-21.77-6.61-43.37-13.68-64.18-8.49-25-21.35-48.23-36-70.1-30.32-45.26-68.91-84-100.49-128.24-15.84-22.2-33.8-48.24-33.9-76.55a.21.21,0,0,0-.42,0c-1.61,22,10.61,43.45,21.91,61.36,13.64,21.63,29.67,41.62,46,61.28,34.91,42.08,71.77,84.34,93.85,135,9.49,21.77,15.16,44.77,18.92,68.11m-1-280.72c-50.37-52.52-104.45-103.28-166-142.69a503.5,503.5,0,0,0-43.9-30.2c-16.81-10.22-37.44-21.54-57.85-19.49-19.77,2-31.24,22.34-22.5,40.48a.29.29,0,0,0,.53-.22c-3.68-10.31-2.35-23,5.62-31,7.51-7.59,19.53-8,29.43-6.25,19.58,3.44,37.5,14.47,53.86,25.24,2.22,1.46,4.38,3,6.57,4.48-4.21-2.36-8.45-4.69-12.73-6.94-18.5-9.7-41-19.8-62.34-19.15-7.5.23-14.7,3-18.4,9.85-3.39,6.3-3.72,14.17.2,20.25a.42.42,0,0,0,.73-.43c-5.69-9.95-.41-23.57,10.68-26.67,9.11-2.55,19.62.13,28.56,2.4,20.34,5.17,39.12,15,57,25.75q12.52,7.52,24.72,15.48c26.8,20.56,52,43.09,76.28,66.74,15.8,15.38,31.28,31.09,46.78,46.77q3,1.69,5.84,3.51c-33-33.85-65.9-68-101.94-98.67Q1490.26,332,1513.81,352c30.21,25.69,58.47,53.52,85.85,82.18,27.66,29,56.08,57.27,73,94.19,12.89,28.2,19.93,58.32,24.34,88.87,1.54,5.2,2.91,10.44,4.06,15.71-3.53-32.83-9.43-65.43-21.86-96.17-16.4-40.55-45.32-70.84-75.12-101.91"/><g class="aq"><g class="ar"><path class="p" d="M1177.18,255.06a6.76,6.76,0,0,0-1.07.92c.56-.21,1.06-.49,1.07-.92m26.27,16.8a47.66,47.66,0,0,0-9-.38c-2.08.15-4.5.93-6.59.54,2.2-2.65,4.34-6.18,7.75-7.31-2.2-1-6.7-.92-8.66-1.17-3.48-.43-7.73-.45-11-1.79-1.47-.6-2.09-.64-1.83-2.45a6.78,6.78,0,0,1,1.93-3.32c-.5.18-1,.3-1.33.39-6.39,2-13,3.11-19.38,5.39a111.76,111.76,0,0,0-15.45,7c-1.18.64-5,3.33-6.61,2.64,6-10.68,18-15.22,28.66-19.87a6.06,6.06,0,0,0-5-.82,49.62,49.62,0,0,0-12.35.74c-5.62.89-11.16,2.62-16.87,2.82-.48-2.89,6.42-5.71,8.55-6.75,3.06-1.5,6.28-2.63,9.35-4.12a120.55,120.55,0,0,1-15-.28,47.64,47.64,0,0,0-7.18-.17,1.86,1.86,0,0,1-2.49,0c11.87-10.57,28.47-5.91,42.62-5.84a52.3,52.3,0,0,1,9.14.48c.94.16,2.24,0,3,.76-.26-.29-.76-.92-2.32-2.72-3-.8-5.94-2.51-8.88-3.57a59.38,59.38,0,0,0-16.72-3.56,45.47,45.47,0,0,0-17.23,2.84c-13.31,3.9-26.16,9.28-37.31,17.6A38.93,38.93,0,0,0,1082,259.77q-1.89,3-3.83,6c2.14-3.18,8.12-7.29,10.58-8.9,5.65-3.7,11.8-7.63,18.68-7.94-5.67,7-12.3,12.08-17.08,20.14-6,10.08-10,21.16-13.91,32.17a10.15,10.15,0,0,0,3.32-5.37A54.68,54.68,0,0,1,1090,283.37a74.15,74.15,0,0,1,14.46-12.47,15.23,15.23,0,0,1,7.15-4.39A47.59,47.59,0,0,0,1101,279a65.5,65.5,0,0,0-6.77,15.74,10.56,10.56,0,0,0,4.42-4.57,97,97,0,0,1,11.22-12.29,135.21,135.21,0,0,1,18.24-13.42,77.2,77.2,0,0,0-6.59,10.57,70.52,70.52,0,0,0-7.06,24.54c-2.32,13.88-2.29,27.75-3.32,41.73.66-7.59,4.13-14.33,8.2-20.73a188.89,188.89,0,0,1,17.14-23.42c-5,12.47-7.69,25.27-6,38.67,2.57-4.67,2.12-10.34,5.07-14.89.42,3.82.74,7.59,1.36,11.38a12.58,12.58,0,0,0,2.91-7.93,84.82,84.82,0,0,1,6.68-16.41c4.25-8.28,8.47-16.87,13.55-24.67a42.49,42.49,0,0,1,8.52-9.84c1.26-1,3.1-3,4.82-3.31-.48,1.85-2.31,4-3.19,5.78a91.25,91.25,0,0,0-5.6,14.62c1.68-2.36,4-4,6.29-5.71,1.85-1.4,3.64-3.55,5.92-4.21a24.66,24.66,0,0,1-2.72,6,35.67,35.67,0,0,0-3.75,12,64.92,64.92,0,0,0,0,25.58c2.35-16.44,12.19-31.79,23.44-43.66,2-2.1,3.93-4.54,6.6-5.8,1.94-.92,4.08-1.46,6.08-2.25a3.28,3.28,0,0,0-3-.73M1635.1,507a146.44,146.44,0,0,0-12.92-21,58.14,58.14,0,0,1-8.18-12c14.06,11.61,24.47,26.53,34.16,41.82a16.65,16.65,0,0,0-3.06-9.51l-5.6-12.49c-7.09-15.17-16.11-28.3-26.86-41-6.8-8-14-17-21.6-24.46-.85-.84-3.12-2.25-3-3.85-2-.29-1.21.57.53,2.52,2.73,3.06,5.26,6.22,7.73,9.5,5.63,7.47,11.3,14.95,15.55,23.31a222.51,222.51,0,0,0-23.93-20.42c-7.13-5.22-14.7-10.9-22.93-14.27,16.92,12.2,31.78,26.6,40.25,46-8.49-7.17-15.66-16-24.4-22.82a305.07,305.07,0,0,1,17.86,24.8q-4.18,3.74-8-6A234.73,234.73,0,0,0,1570.32,451c-3-2.21-20.83-16.57-23-13.37,7.84,7.22,16.06,14,23.91,21.22,11.68,10.73,22,22.69,32,34.93,12,14.69,22.4,30,30.54,47.22a298.45,298.45,0,0,1,12.57,31.48c-.16-10-2.67-20.17-5.15-29.81-3.11-12.09-8.68-22.65-12.57-34.33,7.36,9.31,12.73,19.62,18.35,30a11.66,11.66,0,0,0-2-10.12A113.59,113.59,0,0,0,1635.1,507M1263.51,178.14a16.33,16.33,0,0,1,3.44.45,4.74,4.74,0,0,0-3.44-.45m27.59,51.7c-.13-3.39,5.82-9.74,7.38-11.19,6.48-6,14.45-10,22.14-14.24-5.93-.93-15.94,1.36-21.2,2.93a42.36,42.36,0,0,0-14,6.64c3.76-6.94,9-15.68,17.05-18.32-11.29,5.29-23.78,7.4-34.38,14.23-.2-5.46,5.11-10.26,8.89-13.45,2.45-2.06,11.32-6.08,11.59-9-10.08,3.27-20,6.74-30.25,9.48-1.55-2.72,5.79-9.06,6.24-9.39a53.94,53.94,0,0,1,20.22-9.21c-9.3,1.61-21.35-.42-29.59,5.53.93-1.52,4.77-5,8.31-5.69-9.55-.31-18.47,7.56-25.14,13.82-7.67,7.19-13.92,16.33-17,26.51-1.64,5.46-4.82,14.44-2.95,20,3.55-11.92,8.87-21,18.68-28.61-2.78,5.65-5.23,10.66-6.9,16.74-2.61,9.47-3.32,18.78-3.28,28.59a7.92,7.92,0,0,0,2.86-6,56.48,56.48,0,0,1,7.45-15.88,83.22,83.22,0,0,1,20.8-19c-4,10.87-8.92,20.35-11.2,31.9,4.48,1,8-7.71,10.71-10.91,3.89-4.53,7.76-8.62,13.19-11.19a51,51,0,0,1-5.95,11.36,49.59,49.59,0,0,0-5,19.11,62.06,62.06,0,0,0,1.2,17.73,50,50,0,0,1,9.42-19.5c1.5-1.93,8.85-12.12,11.23-10.59-2.2,12.57-2.36,22.35,2.11,34.47,1.73-3.12,1.86-7.45,2.93-10.92a45.28,45.28,0,0,1,15.95-22.59c6.31-5,13.31-9.13,20-13.47-.14.09,6.77-3.62,7.46-5.2-11.11-4.86-28.8.25-39.06,5.3m292.8,338.95q-8-14.61-16.55-28.93-6-10.26-12.3-20.38a5.42,5.42,0,0,0-.47-1.24c11.28,11.23,22.26,22.27,30.78,35.88-3-5.29-5.83-10.18-9.12-15.26-8.14-12.57-16.61-26-26.44-37.25-10.36-11.91-22.37-22.32-33.79-33.19,0,.08.09.17.13.25l3.11,5.52c1.37,2.16,2.8,4.28,3.91,6.24,2.27,4,4.17,8.51,6.88,12.24a62,62,0,0,1-10.32-8.94c-4.74-5.07-6.64-10.42-7.93-16.42a277.11,277.11,0,0,0-23.3-28.42c3.31,7.49,6.77,14.9,10.1,22.38.69,1.56,7,12.57,5.4,14.3-13.4-11.08-26.26-22.65-37-36.4-7.16-9.18-12.77-19.33-19.79-28.59,5.55,15.41,13.22,30.05,19.85,45q-4.43,3.11-6.44-6.45-7.15-9.54-13.88-19.38-6.71-9.37-12.69-19.22a58.36,58.36,0,0,0-5-8.33,177.37,177.37,0,0,0,14.63,41.49q9,17.79,19,35.08a58.72,58.72,0,0,0,6,9.69c-6.15-7.52-12.81-14.61-18.62-22.42-5.52-7.42-10.56-15.09-15.36-23-.1,6.66,4.07,18.51,5.92,23.47l6.37,15.19a122.07,122.07,0,0,0,15.07,21.68c10.38,12.92,20.62,27.41,32.87,38.57a160,160,0,0,0,26.43,19.61,17.1,17.1,0,0,0-3.72-5.54q-6.14-7.93-11.62-16.35c-5.52-7.91-11-15.77-17.06-23.29,8.13,6.88,16.21,13.68,24.71,20.11,8.91,6.75,17.85,14.54,27.59,20-6.07-9.25-12.44-18.28-18.93-27.25-5-6.85-10.51-13.53-14.75-20.86,10.68,9.74,19.8,20.91,30.93,30.18a15.53,15.53,0,0,0-4.73-12.11q-4.1-6.77-7.81-13.76a11.53,11.53,0,0,1,6.71,5.76q10,10.15,20.21,20.17c12.23,12.27,23.17,25.09,34.21,38.39q1.39-4.46-3.2-8.24m-56.74-80.52-7.92-14.08a47,47,0,0,1-3.11-5.52l-6.1-10.85c.61,3.37,1.11,6.5,1.75,9.49,5,6.91,9.88,14,14.73,21l.65-.09M1340.68,229.5c4,1.41,7.83,2.71,11.63,3.88Zm18.42,5.8q-3.43-.88-6.79-1.92l8.35,2.78a5,5,0,0,1-1.56-.86m10.75,2.36a111.57,111.57,0,0,0-11.05-2.58c.09.08.2.14.3.22,2.44.62,4.91,1.2,7.5,1.69,1.08.2,2.18.41,3.25.68M1487.94,391a18.71,18.71,0,0,0,12.13,5.19c-15-9.91-30.25-19.33-45.1-29.43-8.93-6.07-22.63-14.37-29.76-23.75,17.58,7.77,34.19,18.12,51,27.36,15.67,8.6,31.11,18.35,47.65,25.17-16.74-12.41-33.06-25.31-49.27-38.41-18.51-15-39.71-30-54.2-49.24,10.31,5.1,20,12.08,29.77,18.17,12.62,7.86,25,17,38.33,23.75-5-7-11.67-12.81-17.85-18.79-7-6.74-14-13.34-20.69-20.4,3.06-1.32,12.09,5.63,14.41,7,6.39,3.87,12.56,8.09,19,11.87-8-8.24-16.8-15.81-25.2-23.67a189.36,189.36,0,0,0-14.87-13.46,31,31,0,0,1-4.73-4.16,356.83,356.83,0,0,1,46.12,31.45c-8.06-10.86-18.13-20.13-28-29.33-12.33-11.5-24.55-22.72-39.25-31.11s-30.29-16.58-46.77-21.34a12.07,12.07,0,0,1,3,1.29c-5.74-.69-11.15-2.77-16.95-3.08-6.54-.35-11.76,1.5-17.88,3,1.91-.43,3.55.21,5.37.79,5.43,1.74,11,2.64,16.59,3.94,11.09,2.61,22,5.79,32.33,10.6A207.64,207.64,0,0,1,1414.1,266a13.16,13.16,0,0,1,8.51,6.77c-15.63-6.51-31.49-15.07-48.67-16a48.32,48.32,0,0,0,10.73,5.51,90.71,90.71,0,0,1,16.65,10.47,111.93,111.93,0,0,1,18.45,17.2c-19.44-11.25-42.78-18.84-65.42-18.69,4.48,2.54,9.58,4.13,14.25,6.32a98.69,98.69,0,0,1,20.58,12.88,144,144,0,0,1,18.15,16.93c1,1.19,3.61,3,2,4.53-8.16-2.68-15.81-6.56-24.36-7.92,3.69,4.29,8.68,7.34,13.2,10.73q8.32,6.22,16.61,12.49c-6.75-1.7-13.34-4.84-19.85-7.28-7.11-2.66-14.17-5.47-21.42-7.74,1.44,4.75,8.94,9.6,12.23,12.69,7.37,6.93,14.25,13.69,22.35,19.81,13.15,9.94,27.24,18.48,41.57,26.59q18.93,10.23,38.22,19.75"/></g></g><path class="as" d="M814.43,509.77c20,20.33,42,42.4,67.91,55.09,29.61,14.49,59,27.7,90.57,37,33,9.77,66.16,18.66,99.52,27.34,11.72,3.05,23.5,5,35.43,7.18,17.35,3.1,36.9,9.58,54.55,9.74,13.49.13,23.64-9.2,33,3.7,11.65,16,21,34.43,31.26,51.37,15,24.56,29.36,49.84,48.65,71.2,10.77,11.93,20.88,24,30.91,36.56,3.31,4.15,12,11.6,13,16.78.45,2.41-2.31,10.49-3.66,12.6-2.41,3.77-1.85,3-7.55,3.26-29.55,1.58-54.15,26.44-79.54,39.53-27.49,14.17-56.13,29.12-85.91,38-16.54,4.91-31.82,8.84-48.86,11.15-17.25,2.34-31,.43-48.38-2a133.14,133.14,0,0,0-18.63-.8c4.14,11.45,10.95,24,12.87,36,.46,2.86.87,8.82,0,11.51-1.49,4.57,1.21,1.67-2.81,3.29-5.63,2.26-18.13.46-24.31,0-24.25-1.81-47.17-9.47-71.65-9.47H853.07c-10.78,0-17.45.27-27.5,3.58l-50.91,16.79c-26,8.56-52.63,15.29-79,22.4,0-7.93-1-15.93,1.46-23.41,3.17-9.69,9.7-19,11.86-28.91,3.35-15.37,2.11-34,1.67-49.84-.57-20.75-.13-41.07.63-61.83s5.92-39,11.55-59.07c4.11-14.68,5.21-29-.94-43.11C714.64,728.82,704.59,711.8,701,694c-1.88-9.2-6.3-20.84-4.88-30.2s6.29-22.45,10.88-30.72c8.62-15.54,23.34-28.75,38.3-38,8.59-5.29,18.5-8.84,27.7-13,6.52-2.95,17.61-6.64,21.82-12.64,6.08-8.66,8.32-23.83,11.81-33.83,3-8.53,5.35-17.22,7.84-25.9"/><g class="at"><g class="l"><path class="p" d="M755.55,794.47c-.07-1.56-2.36-3.21-3.35-4.14-1.77-1.65-2.42-2.83-1.39-.46-2.88,4.54-8.21,6.73-11,11.43l-3.08,6.48a19.08,19.08,0,0,0,1.47,10.5c.64,5.42-3.2,9.27-4.49,14.32-1.75,6.81.63,13.49,1,20.3a50,50,0,0,1-.13,9.37q-.89,5.19-1.72,10.38c-.32,7.67,1.72,15.28,3,22.77,1.48,8.47,2.85,16.94,4.55,25.37,1.61,8,2.51,16.28,4.61,24.16.7-3-.07-6.31-.31-9.35-.55-6.91-.82-13.83-1.23-20.75-.61-10.2-.78-20.51-1.67-30.68-.71-8.13-.27-16,.25-24.11.3-4.72.23-9.46.6-14.19.3-3.78,1.1-5.55,3.05-8.72,3-4.88-.19-10-.57-15.23-.35-4.81,2.49-5.71,4.69-9.4,2.91-4.88-1.94-7.7-.88-12.27.66-2.84,4.2-4.75,6.64-5.81m142.39-52.62a249.53,249.53,0,0,1-22.66-33c-3.64-6.37-7.81-16.36-4.17-23.63,1-2,2.47-3.8,3.4-5.82,1.66-3.64.76-6.48-1-9.91-1.67-3.26-3.28-6.08-4.69-9.32a51.77,51.77,0,0,1-1.09,6.63c-.85,4.67-3.07,8.63-7.55,10.6-3.14,1.38-5.68,1-5.75,4.95,0,2.59-.19,2.55-1.58,4.58,2,4,4.68,7.34,6.22,11.71,2.33,6.64,3.91,13,7.78,19,5.23,8.13,12.76,16.16,19.89,22.65,6.65,6.06,14.22,8.41,22,12.5-4.32-1.78-7.88-7.46-10.76-11M868.16,658.7c.21.52.43,1,.65,1.51a8.68,8.68,0,0,0,0-1.63c.4-.18-.13-.14-.62.12m-65.05-72.44q-7.31,2.18-14.4,5-6.06,2.95-12.05,6a161.3,161.3,0,0,0-19,10.29c-4.25,2.78-8.67,4.48-13.37,6.37-2.09.84-8.45,2.47-8.76,5.62-.14,1.46,1.33,2.09,1.81,3.12a1.86,1.86,0,0,1,0,1.59c.43,1.09,1.14,1.88,1.23-.28,2.37,4.54,8.17,13.07,10.31,11.63.12-4.94-2.88-10.31,3.71-12.23,3.23-.94,6.56-1.39,8.58-4.38a12.34,12.34,0,0,1,3.36-5.11,27.87,27.87,0,0,1,6.77-3.83c4.74-2.15,9.64-4,13.8-7.18,3.86-3,7.13-6.15,11.48-8.45,5.68-3,11.14-6.27,16.7-9.47,3-1.73,7.68-2.69,10-5.31a14.49,14.49,0,0,0-4.89,1.68q-7.56,2.61-15.2,5"/></g></g><g class="au"><g class="i"><path d="M1157.25,802c-22.83,12.55-49.9,9.53-74.33,4.22s-47.61-12.76-72.66-12.72c16.79,7.83,33.44,16,50.5,22.42,31.95,12,106.31,21.74,109.26,22.05,6.42-.13,21.07-.54,21,.39,6.73-.42,22.92.28,20.73.76-16.21,3.52-32.3,8.64-49,8.72a273.22,273.22,0,0,1-50.27-4.88c-34.79-6.37-68.31-18-101.83-29,10.89,16.68,105,62.63,103.19,62.32-28.42-4.86-56.7-13.17-81.74-27.73a147.43,147.43,0,0,1-33.35-26.08c-7.56-8-11.94-18.07-16.89-27.77-22.67.72-45.45.1-67.57-5.15-27.64-6.56-54.66-20.58-73.67-42-10.09-11.37-15.74-23.61-21-37.66-3.77-10-8.88-7.71-19.5-8.45-27.18-1.9-53.52-7.38-74.76-25.63a73.4,73.4,0,0,1-22.46-34c-3.09,7.27-5.77,15.61-6.75,22.1-1.42,9.36,3,21,4.88,30.2,3.36,16.48,12.22,32.3,19.24,47.72a97.87,97.87,0,0,0,15.92,9.91c19.47,9.52,42,10.37,61.57,20.1,19.38,9.66,33.73,27.92,49.17,42.6,17.23,16.39,34.93,32.52,54,46.77,13.34,10,22.16,20.5,23.92,37.67,1.64,16-2.8,32.12-16.28,41.86-12.14,8.76-27.14,10-41.42,12.59-21.74,3.88-41.46,12.71-61.31,22.05-14.5,6.82-29.52,12.19-44.33,18.05,4.42-1.35,8.84-2.73,13.22-4.18l50.91-16.79c10.06-3.32,16.73-3.58,27.5-3.58H940.8c24.48,0,47.4,7.66,71.65,9.47,6.18.46,18.68,2.26,24.31,0,4-1.61,1.32,1.28,2.81-3.29.87-2.69.46-8.64,0-11.51-1.92-12-8.73-24.55-12.86-36a133.14,133.14,0,0,1,18.63.8c17.4,2.42,31.13,4.32,48.38,2,17-2.31,32.31-6.25,48.85-11.15,29.78-8.83,58.42-23.78,85.91-38,25.39-13.09,50-38,79.54-39.53,5.7-.3,5.13.52,7.55-3.26,1.35-2.11,4.11-10.19,3.66-12.6-1-5.17-9.67-12.63-13-16.78-10-12.57-20.14-24.63-30.91-36.56-19.29-21.36-33.7-46.63-48.65-71.2-10.31-16.93-19.61-35.33-31.26-51.36-7-9.63-14.43-6.87-23.37-4.91,7.05,9.56,11.93,21.51,15.45,31.41,5.78,16.3,7.87,33.84,7.2,51.08a189.47,189.47,0,0,1-2.38,21.71c-.19,1.21-.29,2.43-.38,3.66-.13,1.78-.24,3.62-1.41,5.07-1.69,2.09-4.73,3.13-7.17,4-8.12,2.87-16.94,2.94-25.44,2.49-15.95-.84-31.49-4.61-47.06-8q-9.08-2-18.15-4a9.18,9.18,0,0,0-5.58-1c3.21,1.42,6.35,3,9.49,4.53,13.35,6.66,26.69,13.18,40.43,19a168.27,168.27,0,0,0,23.22,8.87,85.87,85.87,0,0,0,22.24,6.08"/></g></g><g class="av"><g class="l"><path class="p" d="M860.32,861.73c7,.87,13.74,3.26,20.63,4.88-4.39-12.31-17.77-21.08-27.18-29.2a342.7,342.7,0,0,0-41.31-31A354.14,354.14,0,0,0,778,787.8c-8.61-4.16-21.73-11.72-32.1-9.78-23.85,26.86-22,69.37-19.62,102.84.57,8.2,1.33,16.38,2.08,24.57.9,9.85,3.29,19.88,3.11,29.76-.17,9.39-4.56,16.41-9.8,23.88-5.49,7.83-11.39,15.38-15.47,24,4.37-3.71,8.88-7.07,14.36-9.29a1.36,1.36,0,0,1,1.68,1.63c-1.62,4.13-3.44,8.16-5.25,12.2,4.34-2.57,8.21-5.89,12.69-8.29,5.31-2.85,11-5.16,16.55-7.46,12.84-5.31,25.85-10.57,39.12-14.71,25.47-8,51.9-12.33,77.38-20.29-17.25-3.35-35-2.79-52.35-5.7a1.36,1.36,0,0,1-.64-2.24c14.41-13.56,36-12.3,53-20.82-13.69-8.71-30.49-9.83-45.23-16.22-1.13-.49-.75-2.16.28-2.48,7.72-2.39,16.12-1.22,23.48-4.72-1.84-3-4.64-4.87-7.57-7a1.37,1.37,0,0,1,.28-2.48c13-3.76,27.4-2.72,40.68.12-4.86-4-10.12-7.53-15.31-11.14a1.36,1.36,0,0,1,1-2.49"/></g></g><path class="y" d="M1003.16,583.9h-.23c-7.71,0-14-4.7-20.56-9.67a76.57,76.57,0,0,0-11.47-7.6,44.74,44.74,0,0,0-7.8-1.37c-7.41-.89-15.82-1.9-15.82-11.32-2.68-21.34-5.22-41.67-19.71-62a19.29,19.29,0,0,1-4.3-14.94c1.67-13.17,14.87-24,18.87-27,27-18,58.78-17.14,83.09,2.17l-1.78,2.24c-23.3-18.5-53.83-19.3-79.67-2.07-7.72,5.79-16.47,15.45-17.69,25a16.59,16.59,0,0,0,3.74,12.86c15,20.94,17.66,42.58,20.28,63.51,0,6.6,5,7.67,13.32,8.66A44.68,44.68,0,0,1,972,564a77.78,77.78,0,0,1,12.1,8c6.15,4.63,12,9,18.62,9.1a42.29,42.29,0,0,1,10.41-1.59c5.09-.34,9.89-.66,14.72-3.87l.26-.14c7.64-3.06,13.64-8.7,19.45-14.15,4.84-4.55,9.41-8.84,14.69-11.49,20.46-7.68,40.38-2.14,61.46,3.73,3.05.85,6.12,1.7,9.21,2.52l-.73,2.76c-3.1-.82-6.18-1.68-9.25-2.53-20.62-5.74-40.1-11.16-59.56-3.87-4.78,2.4-9.2,6.55-13.88,11-6,5.61-12.13,11.4-20.21,14.67-5.41,3.56-10.79,3.92-16,4.26a38.71,38.71,0,0,0-9.92,1.53Z"/><path class="v" d="M945.85,539.66a8.71,8.71,0,0,0-8.56,8.56v1.43c0,4.48,3.94,8.77,8.56,8.56a8.71,8.71,0,0,0,8.56-8.56v-1.43c0-4.48-3.94-8.77-8.56-8.56M973,553.93h-1.43c-4.48,0-8.77,3.94-8.56,8.56a8.71,8.71,0,0,0,8.56,8.56H973c4.48,0,8.77-3.94,8.56-8.56a8.71,8.71,0,0,0-8.56-8.56M995.8,568.2c-11,0-11,17.13,0,17.13s11-17.13,0-17.13m47.09-8.56c-11,0-11,17.12,0,17.12s11-17.12,0-17.12m-17.13,11.42c-11,0-11,17.13,0,17.13s11-17.13,0-17.13m45.67-30H1070c-4.48,0-8.77,3.94-8.56,8.56a8.71,8.71,0,0,0,8.56,8.56h1.43c4.48,0,8.77-3.94,8.56-8.56a8.71,8.71,0,0,0-8.56-8.56m24.26-2.85c-11,0-11,17.13,0,17.13s11-17.13,0-17.13m38.53,8.56c-11,0-11,17.13,0,17.13s11-17.13,0-17.13M930.49,477.94l-1.43-1.43c-3.17-3.17-9-3.41-12.11,0a8.72,8.72,0,0,0,0,12.11l1.43,1.43c3.17,3.17,9,3.41,12.11,0a8.72,8.72,0,0,0,0-12.11m15.35,56c11,0,11-17.13,0-17.13s-11,17.12,0,17.12M943,502.55v-1.43c0-4.48-3.94-8.77-8.56-8.56a8.71,8.71,0,0,0-8.56,8.56v1.43c0,4.48,3.94,8.77,8.56,8.56a8.71,8.71,0,0,0,8.56-8.56m77.06-55.66v-1.43c0-4.48-3.94-8.77-8.56-8.56a8.71,8.71,0,0,0-8.56,8.56v1.43c0,4.48,3.94,8.77,8.56,8.56a8.71,8.71,0,0,0,8.56-8.56m-84.2,20c4.47-.18,8.78-3.81,8.56-8.56a9.42,9.42,0,0,0-3.33-6.71,8.32,8.32,0,0,0-6.66-3.28,8.74,8.74,0,0,0-8.56,8.56,9.69,9.69,0,0,0,10,10M967.25,444v-1.43c0-4.48-3.94-8.77-8.56-8.56a8.71,8.71,0,0,0-8.56,8.56V444c0,4.48,3.94,8.77,8.56,8.56a8.71,8.71,0,0,0,8.56-8.56m20-14.27c-11,0-11,17.13,0,17.13s11-17.13,0-17.13"/><rect class="a" x="917.23" y="435.46" width="219.21" height="147.02"/></g><rect class="a" x="731.65" y="550.57" width="451.95" height="301.19"/><rect class="a" x="914.45" y="432.62" width="224.77" height="152.7"/></svg>