<svg xmlns="http://www.w3.org/2000/svg" viewBox="0 0 595.28 841.89"><defs><style>.a{fill:#fff;}.b{fill:#13110c;}.c{fill:#9d9d9c;}.d{fill:#3c3c3b;}</style></defs><title>glazz</title><path class="a" d="M248.84,501.3A61.84,61.84,0,0,0,236.29,510c6,1,12.2,4.9,18.32,6.83,5.95,1.84,11.64,1.69,17.37,3.17,12.72,3.27,22.62,10.67,34.24,16.29,15.11,7.22,35.15,8.22,50.83,5.22,21.68-4.13,43.9-21.9,65.62-22.56,8.49-.33,18.92.88,26.39,4.84-9-42-62.15-65.21-97.09-67.7-18.39-1.25-41.46.25-58.09,11.55-9.74,6.55-18,15.7-27.15,23-5.6,4.49-11.83,7.32-17.89,10.67Z"/><path d="M365,458.92c-28.47-3.54-84.82-.82-62.46,48.6,7.24,16.25,23.29,25.47,40.09,27.13,18.38,1.83,36.67-13.65,45.35-30.18,4.42-8.36,8.18-20.36,5.26-30-4-12.7-17-14-28.24-15.54Z"/><path class="a" d="M330.18,477.29C320.53,508,360.94,520,372,492.48,382.89,465.42,340.64,443.92,330.18,477.29Z"/><path class="a" d="M335.87,489.32c-10.35-13-16.46-11.31-19-5.62C308.13,503.47,332,507.13,335.87,489.32Z"/><path class="b" d="M377.24,454.16c15.89,6.52,33.69,16.71,46.67,28.92a149.37,149.37,0,0,1,14.71,16.52c4.6,6,8.74,16.11,14.56,20.61-17.1-13.36-30.42-32.83-49-43.81-19-11.28-40.3-18.55-62.11-16.42-17.11,1.68-31.49,2-46.27,12.94-9.28,6.8-16.88,15-25.05,23.26-7.19,7.25-17.29,12.34-26.82,15.14-15,4.59-29.91-4.11-41.76-12.79,6.77,6.63,19.58,6.66,28.16,5.65,9.82-1.22,15.94-8.09,23.81-14.58,24.51-20.14,46.13-42.15,78.74-43.19C348.33,446,362.76,448.07,377.24,454.16Z"/><path class="b" d="M283,520.35c3.46.92,7,2.06,10.64,3.39,30,10.48,50.84,25,82.13,12.45,14-5.55,25-14.73,38.2-21.44,15.48-7.89,36.5-4.09,44.4,14.56-18.11-9.34-30-14.85-49.74-6.48-16.06,6.75-30.15,18.35-46.69,23.78-13.24,4.31-60.7-5.41-67.42,12.8,3.69-10,16.45-15.79,23.79-16.6-12.64-3.17-26.58,2.75-37.25,11.84,6.8-8.46,15.65-15.28,25.46-16.88-14.64-1.42-29.25-.11-42.05,10.58,6.68-10.34,19.32-16.28,29.68-16.91-13.17-3.77-31,3.81-42.48,12.36,5.88-8.72,17.44-13.16,26.25-14.92-15.23.1-27.39,1.82-41.38,10.08,9-10,20.36-15,32.37-13.85-14.55.75-27.91-5.69-42.64,0,15.33-12.7,39.74-9.51,56.74-4.78Z"/><path d="M379.6,440.28c-20-4.56-51.49-9.52-70.17,3,7.94-1,14.85-3.28,23-2.73,22.62,1.48,44,6.08,64.24,17.58,8.59,4.9,17,9.39,24.77,15.6,7.15,5.78,11.48,14.21,19,18.92-8.38-25.05-37.07-46.73-60.83-52.34Z"/><path class="b" d="M276.75,484.51c-15,21.48-49,10.36-63.61-5.43,15.93,13,47.86,15.43,63.54,2.29-16.66,3.93-43.49-1.75-51-20.18,19.06,22.13,49,11.56,71.07,5.65-11.73,6.92-39.15,2.5-40.51-14.91,9.45,16.95,37.75,13.11,52.25,8.91a29.51,29.51,0,0,1-29.73-19.78c14.23,22.37,37.7,7.45,55,15.11-22.23,8.07-45.59,22.66-67.42,38l10.41-9.65Z"/><path class="c" d="M481,452.44c-4.69-13.78-6.92-27.76-13.2-41.2s-15.6-24.45-26.34-34.23c20.81,19,30,48.33,38.58,74.93Z"/><path class="d" d="M469.25,440.6c.27-11-10.77-27.92-16.61-36.8-8.79-13.36-20.79-24.87-33.34-34.26,15.08,18,39.67,33.57,44.39,58.78l5.56,12.28Z"/><path d="M462.36,432.21c-9-26.86-33.62-49.72-55.85-67.37,13.7,13.47,30,29.28,39.11,44.85C434,393.15,416.17,375.07,399,365.52c12.23,14.94,27.65,27.72,39.13,43-12.41-20.64-39.46-37.42-59.11-48.65,13.47,15.8,34.14,25.58,48,41.66-11.71-13.87-28.73-24.8-44.73-32.12,12,9.59,24.17,17.64,35.18,28.71-6.12-4.79-12-11.69-19.34-13.91a159.62,159.62,0,0,1,12.88,13c-6.23-6.69-17.66-13.62-25.42-18.46-6.1-3.81-14.51-5.07-19.8-9.93,7.42,3.83,15.18,10.83,21.38,16.68-7.12-4.8-15.61-7.4-23.71-9.49,5.26,1.93,10,6,14.93,8.63-5.93-3.92-13-5.21-19.8-6.48-7.22-1.36-15.52-4.27-22.81-3.18,8,2,16,5.24,24,7.39-12.64-4.42-26.05-10.35-39.34-11.61,8.33,4.1,17,8.06,25.57,11.49-11.42-5.15-24.54-6.24-36.89-6.89,4.57,3.42,13.37,5,19.21,5.53-9.26-.91-18.47-3-27.75-3.4,2.31,1.7,6.7,2.1,9.73,2.33-6.39-1.18-12.95-2.89-19.41-2.88a42.15,42.15,0,0,1,8.84,2.52c-6.74-1-13.67-.46-20.44-1.13a30.07,30.07,0,0,1,6.59,1.51c-5.67.86-12.28-.21-18.08-.59a33.41,33.41,0,0,0,7.94.82c-5.74.58-12.23-1.33-17.61,1.1,1.13.15,2.82.81,3.72.94-3.57.59-7.24-.12-10.74.89,1.29.21,2.71,1.07,4,1.35-8.52,4.22-21.2-1.87-30.73,0,2.65,1.38,6.63,1.8,8.57,3.87a40.12,40.12,0,0,0-16.26.07c1.78.37,3.61,1.18,5.29,1.7-3.93.22-8.07-.46-11.8.55,1.1.31,2.15,1.17,3.2,1.56-2.73,2-6.66,1.2-9.77,2.65a14.89,14.89,0,0,1,2.61,1.48c-2.91.29-6.41.38-6.66,3.53-5.7,2.46-10.27,3.88-16.05,6.35l.2,1c-3.81,3-8.07,3.48-11.54,6-2.54,1.82-4.72,3.45-7.25,5.23-4.38,3.08-9.32,5.4-13.54,8.71-2.76,2.16-5,5.83-8.37,6.91,2.36.61,4.78,1,7.13,1.65a21,21,0,0,0-10.37,1.25,27.18,27.18,0,0,1,7.29,2.58c-4-.1-8.46-.43-12.31.89,3,.84,6.22,1,9.22,1.93-3.59.31-7.37.17-10.85,1.41a17.11,17.11,0,0,0,6.77,1.15c-3.08.38-6.35.33-9.29,1.47a63.56,63.56,0,0,0,7.25,1.13c-3.7,1-8.82-.12-11.7,2.18a35,35,0,0,1,6.91,1.66c-2.51,1.09-5.36,1.1-7.84,2.29a18.14,18.14,0,0,1,4.81,1.7c-2.64.73-5.52.68-8.18,1.66a23.09,23.09,0,0,1,3.5,1.09c-2.26.71-4.73,1-7,1.88,3.26-1.31,7.28,1.31,10.36-1-3.12.6-6.25,1.3-9.38,1.9,6.95-2.39,13.94-5.55,21.3-5.95-4.7-.54-10.33.36-15,1.19,3.59-.64,7.47-1.48,11-2.44a52.28,52.28,0,0,0-11.17.42c3.1-2.11,8.81,0,12.61-1.73-3.22-.7-6.62-.38-9.77-.94,4.82-.58,10.52.32,15.1-1.37-3.49.09-7.24-.81-10.52-1.47,5.25-1.46,11.87-.81,17.46-1.52-4-.63-7.84-1.81-11.89-1.83,5.91-.88,12.37.55,18.09-1.6-3.41-.51-6.74-1.52-10.1-2.3,5-.72,10.85.26,15.48-1.58-4.27-1.07-8.77-1.24-13-1.77,5.85-1.48,12.66-.1,18.47-2-3.29-1.79-7.78-2.25-11.11-3,5.31-1.23,11.85-.86,17.49-1.53-3.92-.87-8.14-1-11.88-2.38a79.45,79.45,0,0,1,13.49-.44c-2.54-.19-5.15-.31-7.65-.41,4.35-.16,10.33.86,14.19-1.05a64.94,64.94,0,0,0-10.21-3.67c5.07.26,10.12,2.78,15.25,2.42-4.18-1.41-8.37-3.41-12.39-4.66,6.77,1.29,14.15,4.19,20.94,4.09-5-3.29-10.92-4-15.93-6.88,6.51,1.72,16.44,5.39,22.76,3.67-5-2.8-11.21-4.37-16.08-6.75,7.26.21,14.6,2.8,22.09,3.25-5.46-2-12.29-3.34-16.9-6.7,8.6-.82,15.71.31,23.82-3.45a46.6,46.6,0,0,1-5.14-1.35c3-1.27,11.9-2.71,14.63-1a2.24,2.24,0,0,0-1.21-.34c6.18-.17,12.82,1.42,19.08,1.8-4.31-2-9.2-2.8-13.7-4.36,9.93.58,21,6,30.65,5.27-5.62-2.43-11.25-5.31-17-7.37,3.49.6,7.4,1.85,10.57,2a35.25,35.25,0,0,0-4.49-2.47c6.4,2.33,13.18,6.72,20.13,7.89-4.12-4.43-10.68-6.52-15.94-9.22,9.14,2,17,9.18,26.26,10.65-6.36-5.16-14.06-8.47-21.55-11.57,8.38,3.14,16.67,7,25,10.35-6-4.37-13.47-7.4-19.47-12.08,9.57,2.36,19.08,7.25,27.9,11.78-5.22-5.23-12.84-10.78-19.66-13.12,10.83,4.57,22.44,14.27,33.53,16.6-7-8.46-17.47-12.67-26.31-18.87,10.13,5.37,21.09,10.94,31.53,15.44-5.73-7.91-18.81-12.92-27.67-16.73,11.88,4.06,23.14,10,34.15,16.16-7.57-6.24-17.18-11.33-25.77-15.91,9.63,1.1,18,9.5,26.9,13-6.37-3.45-13.6-8.89-20.68-11,9.81,3.44,18.66,9.5,27.87,14.21A67.39,67.39,0,0,0,302,392.07c12.14,3.57,24,11,35.12,17.27-9.14-4.58-16.87-15.09-26.6-17.82,9.37.19,17.43,5.81,25.78,9.54,6.36,2.84,18.75,5.61,23.21,11.1-8-9.88-21.54-14-30.9-22.54,6.6.11,15.38,7.82,21,11.26,8.47,5.2,16.62,11.11,25.08,16.09-8.3-8.62-18.22-15.2-27.18-22.75,11.19,3.53,20.58,12.78,32.11,16-6.86-6.5-16.71-10.47-22.46-17.89,14.89,3.88,27.87,17.74,42.72,23-8.37-9.15-19.71-15.58-27.65-24.9,16.23,3.45,28.85,22.77,43,30.42-8.77-12.56-23.88-20.52-34.48-31.42,17.8,12.13,31.66,30.48,49.68,42.05-10.77-10.94-18.29-25.42-29.62-35.71,14.89,10.87,26.55,29.78,43.05,37.71-8-12.69-20.66-22.39-31-32.51,13.47,9.79,25,23.62,36.7,35.58-7.36-8.89-12.26-20.77-20.13-29,11.79,10.86,20.82,25.74,31.66,37.7-6.94-11.68-12.81-24.49-21-35.33,9.33,8.48,13.91,20.65,21.6,30.49a96.14,96.14,0,0,1-13-24.14c9.36,10.37,13.66,25,22,36.3-7.35-9.82-9.85-23.24-17.88-32.94l9.6,12.56Z"/><path d="M476.55,447.47c-6.44-10.38-6-33.91-4-46,.65,11.08.07,22.65.88,33.46-1.23-13.47-7.85-31-11.63-42.66,4.49,14,7.54,28,10.54,42.22-4.92-15.11-9.21-34.06-18.86-46.48,6.57,13.69,11.47,28.56,16.24,43.27-4-15.9-18-41.47-31.45-50.52,13.3,16.77,24,35.11,30.76,55.7-5.22-17.25-20.72-36.44-33.62-48.08,16.13,20.75,33.93,47.06,39.48,73.59.66-6.15-2.08-12.87-2.92-19,1.19,3.32,1.54,10.91,3.56,15.41.48-7-2.87-14.29-2.28-21.21.82,2.68,1.69,5.35,2.56,8Z"/><path d="M459.62,423.83c6.86,10.29,9.58,24.57,13.63,36.3-2.84-3.85-4.16-9.38-6.44-13.71-2.7-5.12-6.29-9.63-8.93-14.75,4.26,7.25,7.38,15,10.86,22.5-5-5.8-8.48-14.5-12.89-21.17,2.81,7.33,7.77,13.59,10,21.24-3.71-8.41-7.94-16.77-13.77-23.82a77.92,77.92,0,0,1,10.81,22.26c-2.52-8.2-9-16.19-14.59-22.3,4.24,7.35,9.51,15.12,12,23.38-5.62-7.7-9.89-16.21-16-23.72,3.51,6.58,7.26,13,10.89,19.5-5.06-6-9.51-13.91-14.5-20.42,3.45,8.4,12.38,17.27,13.49,25.9-6.34-9.36-10.48-19.74-18.45-28,5.76,9.18,13.78,19.54,16.55,30.17-4.68-13-15.7-25.9-25.81-34.65,3.77,6.42,9.76,12,12.32,19.14-5.48-6.62-10-14.24-16.83-19.52,3.91,6.79,8.57,13.25,12.58,20-6.85-5-10.48-18.43-19.84-20.18,2.76,5.05,9.88,11,10.2,16.31-4.22-5.23-9.16-13.26-15.44-15.64,2.68,5.55,7.62,9.87,9.84,15.61-7.59-5.18-11.7-15.9-20.49-20.41,3.45,4.7,8,8.78,10.54,14.13-6.67-6.22-12.77-15.26-21.26-18.78,3.54,5.07,8.4,9.21,11.94,14.28-7.28-4.23-12-15.37-20.63-17.2,4,4.15,10.34,8.11,12.74,13.4-7.85-3.78-13-13.68-21.48-16,1.94,4,6.17,6.53,8.64,10.25-6.26-3.9-12-9.42-18.51-12.77,3,4.34,7.34,7.52,10.31,11.83-5.27-1.83-10.85-8.46-15.91-11.76,1.67,1.45,3.93,2.74,5.58,4.23-5.19-3.47-10.8-7.21-15.19-11.76,3.89,2.17,7.63,5,11.67,6.85a27.59,27.59,0,0,1-10.44-10.13c5.35,1.16,10.1,4.73,15.38,6.19a28.63,28.63,0,0,1-3.83-6.27c6.2,1.38,11.49,5.7,17.57,7.29-1.47-2.14-3.21-4.13-4-6.65,6.85,3.7,12.81,9.23,20.14,12-2.92-3.67-6.34-6.86-9.12-10.67,6.2,5.89,13.61,13.23,21.27,16.41A178.94,178.94,0,0,0,389.35,398c6.61,6.36,16.14,15,24.6,18.1-4.49-7.09-12-12.27-15.91-19.84,11.79,5.45,20.11,18.29,31.56,24.41-2.43-8-10.38-16.25-15.14-23.2,7.86,8.25,16.38,16.8,25,24.2-2.46-5.86-6.76-11.44-8.6-17.52,6.37,5.35,11.17,13,17.9,18-3.74-6.45-8.23-12.72-12.32-19,4.44,4.61,8.56,9.62,13,14.22-4.64-5-8.54-10.95-12.48-16.53,7.08,4.15,11.44,12.68,17.28,18.37-2.69-4.08-5.4-8.15-7.84-12.4,5.82,5,9.71,12.84,15.29,18.38a35.57,35.57,0,0,1-10.1-12.7c3.84,5.83,9.43,11.06,13.92,16.44l-5.89-5Z"/></svg>