<svg xmlns="http://www.w3.org/2000/svg" xmlns:xlink="http://www.w3.org/1999/xlink" viewBox="0 0 1649.33 2834.67"><defs><style>.a{fill:none;}.b{fill:#9fbcd3;}.c{clip-path:url(#a);}.d{fill:#fdd1a7;}.e{clip-path:url(#b);}.f{opacity:0.3;}.g{fill:#fff;}.h{fill:#eeb885;}.i{fill:#bf0000;}.j{clip-path:url(#c);}.k{opacity:0.2;}.l{clip-path:url(#d);}.m{clip-path:url(#e);}.n{clip-path:url(#f);}.o{clip-path:url(#g);}.p{clip-path:url(#h);}.q{fill:#5a1b0f;}.r{fill:#4b1a11;}.s{clip-path:url(#i);}.t{fill:#8c959d;}.u{fill:#e9e9ea;}.v{fill:#fcd0a7;}.w{clip-path:url(#j);}.x{clip-path:url(#k);}.y{fill:#d9a26d;}.z{clip-path:url(#l);}.aa{fill:#ce3331;}.ab{fill:#fdd4b0;}.ac{clip-path:url(#m);}.ad{clip-path:url(#n);}.ae{fill:#722814;}.af{clip-path:url(#o);}.ag{clip-path:url(#p);}.ah{clip-path:url(#q);}.ai{fill:#8c2020;}.aj{clip-path:url(#r);}.ak{fill:#c08482;}.al{fill:#231f20;}.am{fill:#402910;}.an{fill:#531b11;}.ao{clip-path:url(#s);}.ap{opacity:0.5;}.aq{fill:#a45270;}.ar{fill:#531a11;}.as{fill:#d15227;}.at{clip-path:url(#t);}.au{fill:#b71d83;}.av{clip-path:url(#u);}.aw{fill:#cf3a9c;}.ax{clip-path:url(#v);}</style><clipPath id="a"><rect class="a" width="1649.33" height="2834.67"/></clipPath><clipPath id="b"><rect class="a" x="367.35" y="1435.61" width="434.68" height="1233.37"/></clipPath><clipPath id="c"><rect class="a" x="455.27" y="2368" width="58.59" height="302.09"/></clipPath><clipPath id="d"><rect class="a" x="384.12" y="2528.21" width="80.51" height="32.64"/></clipPath><clipPath id="e"><rect class="a" x="1080.98" y="1439.28" width="138.26" height="1267.82"/></clipPath><clipPath id="f"><rect class="a" x="1179.26" y="2650.49" width="87.24" height="63.02"/></clipPath><clipPath id="g"><rect class="a" x="1169.92" y="2600.41" width="78.14" height="39.42"/></clipPath><clipPath id="h"><rect class="a" x="1174.11" y="2395.42" width="136.96" height="318.09"/></clipPath><clipPath id="i"><rect class="a" x="749.01" y="254.65" width="598.92" height="245.05"/></clipPath><clipPath id="j"><rect class="a" x="1009.56" y="802.83" width="288.76" height="357.65"/></clipPath><clipPath id="k"><rect class="a" x="168.94" y="554.81" width="765.73" height="519.91"/></clipPath><clipPath id="l"><rect class="a" x="1316.16" y="1080.17" width="54.09" height="34.95"/></clipPath><clipPath id="m"><rect class="a" x="759.53" y="480.71" width="23.06" height="92.07"/></clipPath><clipPath id="n"><rect class="a" x="790.09" y="383.52" width="86.26" height="279.37"/></clipPath><clipPath id="o"><rect class="a" x="803.15" y="326.57" width="365.23" height="201.16"/></clipPath><clipPath id="p"><rect class="a" x="903.44" y="339.03" width="136.14" height="99.92"/></clipPath><clipPath id="q"><rect class="a" x="867.71" y="537.07" width="33.68" height="74.91"/></clipPath><clipPath id="r"><rect class="a" x="846.05" y="645.59" width="41.47" height="18.81"/></clipPath><clipPath id="s"><rect class="a" x="930.34" y="516.48" width="77.4" height="48.59"/></clipPath><clipPath id="t"><rect class="a" x="671" y="641.05" width="409.98" height="565.43"/></clipPath><clipPath id="u"><rect class="a" x="837.33" y="1065.09" width="678.14" height="548.7"/></clipPath><clipPath id="v"><rect class="a" x="682.22" y="806.69" width="312.79" height="129.07"/></clipPath></defs><title>Монтажная область 1</title><path class="b" d="M1445.09,2583H264.8a21.7,21.7,0,0,1-21.63-21.63v-2288A21.7,21.7,0,0,1,264.8,251.7H1445.09a21.7,21.7,0,0,1,21.63,21.63v2288a21.7,21.7,0,0,1-21.63,21.63"/><g class="c"><path class="d" d="M768.81,1435.61c-9.56,20.5-29.72,35.6-38.88,55.92-8.57,19-11.53,42.94-16.92,63-12,44.71-22.55,90.14-36.4,134.31-6.19,19.73-25.23,78.07-36.47,95.25-17.31,26.47-49.88,45.84-68.76,74.82-34.92,53.63-32.54,56.54-47.19,105.16-26.31,87.36-33.5,173.84-47.17,263.85-3.58,23.56-10.1,46.87-15.65,70-5,21.05-7,49.1-16.67,68.57-8.88,17.85-27.85,32.81-38.76,50.27-5,7.95-14.6,18.16-17,27.22-2.89,10.84.75,24.91,0,36.2-1.54,23.32-6.83,47-10.24,70.12-2.81,19.1-11.13,37.16-11.33,56.34-.23,22.19,5.41,44.49,27.58,52.31,23.84,8.41,42,11.07,67.24,11.07,4,0,11.23.45,24.68-4.94,2.67-1.07,5.22-8.49,6.33-11.68,3.13-9,1.91-20.3,1.33-29.86-.81-13.49-7.74-26.71-9.33-40.14-1-8.51-.05-16.62.64-25.33,4.46-56.34,13.06-111.65,23.92-167.15,16.91-86.4,55.64-169.52,89.81-250.06,36.35-85.69,77.55-169,115-254.16,7.38-16.8,11.94-34.73,17.42-52.24,5.54-17.73,17.05-30.17,28.17-45.17,26.28-35.42,51.8-71,80.54-104.47,29.68-34.55,81.23-78.33,92.09-125.41,4.46-19.32-24-33.14-37.74-42.9-26.49-18.83-54-36.31-81.52-53.53q-22.24-13.9-44.71-27.42"/><g class="e"><g class="f"><path class="g" d="M439.63,2656.44a5.21,5.21,0,0,1-4.52-4.74c-1-9.38-2.39-18.74-4.32-28-.64-3.07-7-29.68-11.26-26.1a5.7,5.7,0,0,1-.89.61c5.85,13.66,6.62,34.12,6.78,43.49.11,6-7.94,6.51-9.89,1.44-5.67-14.76-7.33-30.46-10.51-45.84a30,30,0,0,0-4.77,8.33c.1,7.7.59,15.36,2.46,22.72a74.38,74.38,0,0,0,4.9,12.57c2.92,5.73-5.43,11-8.61,5.26-.77-1.38-1.45-2.78-2.09-4.18a5.72,5.72,0,0,1-2.49-1.1c-27.22-21.27-9-65.21,0-95.88.1-.42.22-.85.32-1.27a14.57,14.57,0,0,1-.29-4.29c4.09-52.83,9.36-125.17,54.92-160.48a259.69,259.69,0,0,0,14-27.28c2.27-7.13,4.55-14.25,7.1-21.29a18.6,18.6,0,0,1,2.53-4.76c26.74-89.1,30.71-182.34,50.33-273.52,8.48-39.39,20.26-78.59,36.43-115.53,12.64-28.9,29.25-57.54,53.12-78.49,11.88-14.19,25.08-27.33,37.64-41,23.08-44.66,40.14-92.18,60.43-138.18,9.53-27.91,18.66-56,28.36-83.8a596.66,596.66,0,0,1,38-86.74c8.33-15.59,19.75-33.87,24.77-52.49q-16.55-10.25-33.23-20.3c-9.55,20.5-29.72,35.6-38.88,55.92-8.57,19-11.53,42.94-16.92,63-12,44.71-22.55,90.14-36.4,134.31-6.19,19.73-25.23,78.07-36.47,95.25-17.31,26.47-49.88,45.84-68.76,74.82-34.92,53.63-32.54,56.54-47.19,105.16-26.31,87.36-33.5,173.84-47.17,263.85-3.58,23.57-10.1,46.87-15.65,70-5,21.05-7,49.1-16.67,68.57-8.88,17.85-27.85,32.81-38.76,50.26-5,7.95-14.6,18.17-17,27.22-2.89,10.84.75,24.91,0,36.2-1.54,23.32-6.83,47-10.24,70.12-2.81,19.1-11.13,37.16-11.33,56.34-.23,22.19,5.41,44.48,27.58,52.31a178.41,178.41,0,0,0,43.11,10c.44-4.19,1-8.38,1.58-12.55"/></g></g><path class="h" d="M895,1516.56c-26.49-18.83-54-36.31-81.52-53.53q-22.24-13.9-44.71-27.41c-9.55,20.5-29.72,35.6-38.88,55.92-7.87,17.44-11,39-15.66,58,15.51,3.95,31.17,12.82,43.52,19.23,22.36,11.62,45,26.47,51.47,52.48,6.54,26.42-5,53.61-17.27,76.52-.91,1.7-1.88,3.35-2.81,5-4.1,9.86-29.74,52-37.13,63.13-16.4,45-46.25,70.26-86.28,69.94,7.51,7.92,14.53,16.13,16.83,27.32,3.37,16.35-4.93,32.3-11.47,46.72-16.61,36.64-32,74.31-47.31,111.53-16.41,39.79-33.54,79.27-50.07,119-22.33,53.67-42.82,108.08-60.56,163.4q-12.28,47.89-21.32,96.56-8.84,47.5-14.93,95.46c-3.7,28.85-6.73,57.33-3.43,86.13a8.91,8.91,0,0,1,2.45,8.11c-.76,4.23.48,9.41,1.56,14.1a102.09,102.09,0,0,1,3,19.09,55.55,55.55,0,0,1,.18,6.71c-.47,11.65-18.37,12-18.21.19,0-2.05,0-4.08-.17-6.09a119.44,119.44,0,0,0-2.08-13.08,5.64,5.64,0,0,1-.87-.88,47.63,47.63,0,0,0-4.42-4.91c-.14,0-.25,0-.39,0-1.45-.12-2.87-.34-4.27-.59a123.11,123.11,0,0,1,3.62,11.81,80.37,80.37,0,0,1,3.64,22.54c.14,6.28-9.23,6.26-9.68.1a119.19,119.19,0,0,0-2.77-18.26,62.87,62.87,0,0,0-9.06-18.75c2.84,12.39,5,26.2.69,38.16-2.1,5.81-10.56,3.81-9.38-2.39,0-.07,0-.14,0-.21a4.32,4.32,0,0,1-.89-1.75c-2-8.13-4.08-16.28-5.32-24.55a20.56,20.56,0,0,0-6.6-5.93c.67,9.11,3,18.07,2.54,27.29-.27,5.83-8.53,6.33-9.57,1.11,0,0-.08-.07-.11-.12-5.34-8.07-5.39-17.74-5.82-27.15a4.9,4.9,0,0,1-2.47-1.83,31.69,31.69,0,0,0-3.39-3.92c2,6.51,3,13.36.07,19-2.7,5.25-8.53,7.08-12.36,1.91a15.56,15.56,0,0,1-1.43-2.38,4.19,4.19,0,0,1-5.36-2,64.7,64.7,0,0,1-7.7-25.81,85.93,85.93,0,0,0-1.65,15.18c-.23,22.19,5.41,44.48,27.58,52.31,23.84,8.41,42,11.07,67.24,11.07,4,0,11.23.45,24.68-4.94,2.67-1.07,5.22-8.49,6.33-11.69,3.13-9,1.91-20.3,1.33-29.86-.81-13.49-7.74-26.71-9.33-40.15-1-8.51-.05-16.62.64-25.33,4.46-56.34,13.06-111.65,23.92-167.14,16.91-86.4,55.65-169.52,89.81-250.06,36.35-85.69,77.55-169,115-254.16,7.38-16.8,11.94-34.72,17.42-52.24,5.54-17.73,17.05-30.17,28.17-45.17,26.28-35.42,51.8-71,80.54-104.47,29.68-34.55,81.23-78.33,92.09-125.41,4.46-19.32-24-33.14-37.74-42.9"/><path class="i" d="M488.87,2365.39c-12.26-4-26.09-9.2-37.61-17a103.76,103.76,0,0,1-5.51,15.86,104.09,104.09,0,0,0,8.5,7.5c7.37,5.57,16.44,9.55,25,12.8a153.86,153.86,0,0,0,30.16,8c.1-.53.2-1.06.3-1.59,1.24-6.36,2.64-12.69,4.11-19a206.32,206.32,0,0,1-25-6.57m5.22,254.4-.06.19c-4.78,13.72-18.22,20-31.59,22.77-27.89,5.81-56.41-.67-77.19-18.87-7.35-4.41-13.63-10-17.89-17-.2,22.13,5.47,44.32,27.58,52.13,23.84,8.41,42,11.07,67.24,11.07,4,0,11.23.45,24.68-4.94,2.67-1.07,5.22-8.49,6.33-11.68,3.13-9,1.91-20.3,1.33-29.86-.08-1.27-.25-2.53-.43-3.79m-71.18-56.51c11.77-1.69,23.54-3.17,35.12.39,10.13,3.11,18.6,9.73,26.85,16.17-.43-7.22.35-14.26.95-21.73q.78-9.89,1.74-19.74c-33.75-22.6-73.69-13.51-107.94,6-.32,2-.64,4-.94,6-1.73,11.76-5.54,23.12-8.27,34.59a7.29,7.29,0,0,1,.91.43c12.73-14.78,32.46-19.35,51.58-22.09"/><g class="j"><g class="k"><path d="M497.47,2368a179.58,179.58,0,0,1-6.11,20.51,154.71,154.71,0,0,0,18.09,4.06c.1-.53.2-1.06.3-1.59,1.24-6.36,2.64-12.69,4.11-19-5.63-1.06-11.13-2.46-16.39-4m-11.63,190.12q.78-9.89,1.74-19.74a78.09,78.09,0,0,0-17.6-8.83v39.63a151.44,151.44,0,0,1,14.92,10.68c-.42-7.22.35-14.25.95-21.73m8.26,61.68-.06.19c-3.05,8.75-9.63,14.46-17.46,18.17-3,14.11-10.37,25.3-21.3,31.83,2.25,0,4.54.08,6.9.08,4,0,11.23.45,24.68-4.94,2.67-1.07,5.22-8.49,6.33-11.68,3.13-9,1.91-20.3,1.33-29.86-.08-1.27-.25-2.53-.43-3.79"/></g></g><g class="l"><g class="f"><path class="g" d="M459,2533.91l1.14,0c-2.57.36-5.8-2.41-8.34-3.19-3-.92-5.87-2.12-9-2.29-6.64-.36-14.37-.59-20.67.94-7,1.71-14.54,2-21.42,4.72-2.66,1-5.45,2.67-8.24,3.87-2,.86-6.35,3.47-8.41,3.14,6.63-.22,12.36-1.84,19.19-1.84,7.59,0,15.24.3,22.83,0-2.5-.13-5.12,1.24-7.48,1.84-3.21.81-6.83,1-10,1.75-5.63,1.34-12.31,3.65-15.59,8.77,3.64,1.54,17.93-6.32,19.09-2a51.55,51.55,0,0,0-12.4,4.49c-3.26,1.58-11.84,2.88-12.48,6.42,3.69,1.41,9.71-2.81,13.7-3.37s7.83.36,11.78-.31a64.89,64.89,0,0,1,12.13-1.41q6.28,0,12.56,0c3.9,0,6.54,1.2,10.14,1.67,3.28.43,11.12.51,13.5,3-5.8-5.14-14.35-7.1-21.68-8.67,1.62-6,20.36,3.62,21.33-.92-4.85-1.55-7.84-3.74-12.43-5.92-2.85-1.35-10.11-1.56-10.69-4.94,4-1.45,10.11-.36,14.28-.36,3,0,10.61-1.33,12.74,1-3.6-2.59-4.84-5.21-9.15-6.87-5.49-2.11-9.76-3,3.55.45"/></g></g><path class="d" d="M1081,1461.23c0,21.51,14.56,48.28,21.32,68.45q15.08,45,30.68,89.78c13.94,40.22,32.47,80.26,41.63,121.81,10.43,47.31,24.81,97.2,29,145.43,4.79,54.9-10.37,111.81-16.93,166.32-5.68,47.16,2.18,97.68,4.2,145,1.88,44.17,5.24,88.2,8.37,132.31,1.79,25.24,6.08,51.53,5.46,76.83-.44,17.78-5.2,35.63-7,53.35-4.52,45.52,1.8,96.8-20.6,138.38-11.5,21.35-35.1,39.65-41.65,63.67-7.48,27.43,17.25,41.91,40.31,47,21.09,4.67,44.84,3.4,63.13-7.57,10.49-6.29,18.75-9.16,23.67-19.61,6.75-14.34,1.29-27.23,5.33-41.19,2.17-7.51-1.58-3,5.06-7.48,6-4,11.1-1.58,16.31-8.15,6.13-7.74,3.8-18.09,3.8-28.45,0-13.61-1.47-28.05,0-41.57,1.37-12.6,10.6-19.91,14.49-32.16,8.23-25.89.7-50.57-9.78-73.85-5.12-11.38-11.88-15.92-19.8-25.57-7.72-9.41-6-11.11-4.75-24.29,5.2-53.31,16.47-102.18,28.93-154.42,12.05-50.53,21-100.33,28.9-151.75,6.42-41.93,4.31-84-8.72-124.7-7.14-22.3-19-47-22.09-70.19-3.63-27.06-1.06-59.31,1.29-86.41,10-115.88,25.44-232.79,23.58-349.17-.2-12.23,2.34-27.15,0-39.12-2.59-13.23-13.43-26.58-20.52-37.6-6.42-10-26.34-49.34-37.25-49.09-4.85.11-15.05,10-19.23,12.79l-39.9,26.54-85.87,57.12Z"/><g class="m"><g class="f"><path class="g" d="M1163.73,2704.07c2.47-5.6,5.11-11.12,7.79-16.63-3.25-1.39-5.67-4.34-5-8.09a5.49,5.49,0,0,1-1.63-5.58c3-11.19,9.26-21.41,16.74-30.51-2.29-.18-4-.06-4.88.51a6.26,6.26,0,0,1-3.81,1,120.23,120.23,0,0,1-13,15.45c-1.29,2.22-2.59,4.43-3.79,6.72-3.94,7.51-15.42,1.12-11.5-6.37.34-.64.69-1.27,1-1.9a6.49,6.49,0,0,1,.36-1.93c4.69-13.29,13.06-23.62,23.19-33.25a7.14,7.14,0,0,1,3.31-1.85c1.74-2.56,3.49-5.08,5.31-7.5,7.19-9.54,14.63-18.83,21.35-28.62q4.34-14.4,7.86-29.07c3.43-19.33,5-39.09,7.92-58.57.83-11.62,1.57-23.24,2.32-34.87.34-11,.85-21.94,1.77-32.88q0-2.27.14-4.53c-.28-23-.89-46-1.14-69q-2.89-24.39-4.15-48.84-1.67-11.54-3.3-23.09c-3.56-25.08-7.45-49.94-4.12-75-.32-6.05-2.55-34.81-2.19-40.68-1.34-27-2.17-54.1-.82-81.3,2.45-49.28,6.73-98.47,14.72-147.15-9.45-23-9.19-52.23-8.3-74.68.4-10.09,1.15-20.16,2.13-30.2q-1.54-11.7-3-23.4c-.69-5.48-1.27-11-1.81-16.47-2.05-15.49-4.23-31-6.69-46.4-3-18.78-6.17-37.59-10.33-56.16-1-4.47-2-8.92-3.06-13.36-24.84-66.68-44.65-135-60.82-204.35-3.57-12-7.08-24.1-10.34-36.23l-35,23.29c0,21.51,14.56,48.28,21.32,68.45q15.08,45,30.68,89.78c13.94,40.22,32.47,80.26,41.64,121.81,10.43,47.31,24.81,97.2,29,145.43,4.79,54.9-10.37,111.81-16.93,166.32-5.68,47.16,2.18,97.68,4.2,145,1.88,44.17,5.23,88.2,8.37,132.31,1.79,25.24,6.08,51.53,5.46,76.83-.44,17.78-5.2,35.63-7,53.35-4.52,45.52,1.8,96.8-20.6,138.38-11.5,21.35-35.1,39.65-41.65,63.67-6.09,22.33,9.17,36.07,27.49,43.17a9.2,9.2,0,0,1,.74-3"/></g></g><g class="n"><g class="f"><path class="g" d="M1266.51,2650.49c-.55.1-1.11.2-1.67.27-1.6,3.55-5.83,5.15-11.57,5.54-10.5,18.89-22.95,37.22-44.51,44.12-4.75,1.52-9.73-2.08-10.92-6.53-.85.38-1.69.78-2.56,1.13a7.49,7.49,0,0,1-7.58-1.42c-2.88,6-5.73,12-8.43,18,20.2,3.8,42.38,2.11,59.68-8.27,10.49-6.29,18.75-9.16,23.67-19.6,5.46-11.6,2.93-22.25,3.9-33.28"/></g></g><path class="h" d="M1302.19,2246.64c12.05-50.53,21-100.33,28.9-151.75,6.42-41.93,4.31-84-8.72-124.7-7.14-22.3-19-47-22.09-70.19-3.63-27.06-1.05-59.31,1.29-86.41,10-115.89,25.44-232.79,23.58-349.17-.2-12.24,2.34-27.15,0-39.12-2.59-13.23-13.43-26.58-20.52-37.6-6.42-10-26.34-49.34-37.25-49.09-4.85.11-15.05,10-19.23,12.79l-39.9,26.54L1122.38,1435l-41.4,27.53c0,21.51,14.56,48.28,21.32,68.45q7.93,23.66,16,47.27a204.56,204.56,0,0,1,15.08-14c15.86-13.33,33.37-24.83,52.41-33.08,26.89-11.64,63.36-17.39,81.48,11.5,26.81,42.74,16.15,103.1,16,150.66-.19,57.3,12.2,200.34-17.55,224.09,18.54,14.07,23.81,82.69,29,105.75,9.77,43.16,2.91,89.33-7.05,133.13-3.37,27.15-8.67,54.19-12.74,81.15-5.66,37.54-9.73,75-15.91,112.3-1.71,15-3.23,30-4.37,45q.1,4.82.32,9.63,1.49,7.41,3,14.82c1.48,3.79,2.84,7.59,4.14,11.4,21.81,23.7,23.65,55.07,17.93,86-1.25,6.74-2.86,13.46-4.69,20.07C1271,2562,1260,2585.6,1256.14,2611c-1.41,9.19-2,18.1-3.23,26.72a5.66,5.66,0,0,1,.83,7.15c-1.16,2-2.27,4-3.37,6a61.51,61.51,0,0,1-12,24.09c-5,6.11-12.73-1.41-10.19-7.5,2.29-5.51,4.82-10.88,7.52-16.16a24.21,24.21,0,0,0-2.91,1.71c-5.2,8.58-10.61,17.59-18,24.35a4.62,4.62,0,0,1-1.48,1.23c-.81.68-1.61,1.38-2.47,2-3.51,2.54-7.66-1.47-6.93-5.12,1.42-7.1,7.1-13.37,11.55-18.79,1-1.28,2.13-2.54,3.2-3.8a69.09,69.09,0,0,0-10.56,5.65c-4.63,6.69-9.54,13.2-16.13,18-2.22,1.63-5.11.44-6.4-1.67a4.78,4.78,0,0,1-1.44-5.91c.48-.91,1-1.76,1.56-2.63,2.09-7.81,8-13.65,14-19.49a71.68,71.68,0,0,0-8.47,4.63c-6.74,7.35-12,16.36-20.78,21.69-2.8,1.69-7.39-.27-7.08-3.92a31.44,31.44,0,0,1,1-5.57,21.13,21.13,0,0,1,2.1-5.7,42.25,42.25,0,0,1,15-17.23,1.61,1.61,0,0,0-.21-.28c-2.92.28-5.84.54-8.74.94q-.9,1.33-1.85,2.69c-4.65,7-9.86,14.37-16.91,17.77-6.66,3.21-14.78,1.11-14.36-7.31,0-.25.06-.51.08-.76a59,59,0,0,0-3.89,10.15c-7.48,27.43,17.25,41.91,40.31,47,21.09,4.67,44.84,3.4,63.13-7.57,10.49-6.29,18.75-9.16,23.66-19.61,6.75-14.34,1.29-27.23,5.33-41.19,2.17-7.51-1.58-3,5.06-7.48,6-4,11.1-1.58,16.31-8.15,6.13-7.74,3.8-18.09,3.8-28.45,0-13.61-1.47-28.05,0-41.57,1.37-12.6,10.6-19.91,14.5-32.16,8.23-25.89.69-50.57-9.78-73.85-5.12-11.38-11.89-15.92-19.81-25.57-7.72-9.41-6-11.11-4.75-24.29,5.2-53.31,16.47-102.18,28.93-154.42"/><path class="i" d="M1204,2418.38a119.29,119.29,0,0,0,13.22,3.18c13.78,2.42,38.86,4,50.24-6.43a8.72,8.72,0,0,1,4.66-2.27c0-2.88.57-6.35,1.1-11.8.18-1.9.43-3.75.63-5.63a53.85,53.85,0,0,1-20.15,4.94,64.91,64.91,0,0,1-22.77,2c-6.7-.5-17.74-1.8-26.35-5.5.12,3.92.19,7.83.09,11.71-.08,3.28-.34,6.56-.67,9.85m103.54,106.4c4.4-13.82,4.27-27.3,1.63-40.41a167.27,167.27,0,0,1-11.2,40.25c-4.8,11.83-10.38,23.32-15.59,35-5.56,12.46-8.9,25.42-13.29,38.27-.43,3.09-.77,6.19-.94,9.32a1.65,1.65,0,0,1,.15.63,120.94,120.94,0,0,0,0,13.48,2,2,0,0,1-3.67,1.05,65.38,65.38,0,0,0-15.12-18.57c-.21-.15-.42-.29-.63-.47a52.35,52.35,0,0,0-5.71-4.19c-19.41-8.57-41.77-6.46-63.16-4.67-.91,2-1.85,3.9-2.89,5.82-5.32,9.87-13.22,19.09-20.83,28.52,23.08-1,45.06,1,67.22,11,11.16,5,36.29,20,31.13,30.34-8.39,16.83-11.94,9.82-60.45,11.91-21.72.94-36.79-8.87-47.63-13.27-9.31-2.37-9.66-5.17-9.32-10.08a55.41,55.41,0,0,0-1.77,5.29c-7.48,27.43,17.25,41.91,40.31,47,21.09,4.67,44.84,3.4,63.13-7.57,10.49-6.29,18.75-9.16,23.67-19.61,6.75-14.34,1.29-27.23,5.33-41.19,2.17-7.51-1.58-3,5.06-7.48,6-4,11.1-1.58,16.31-8.15,6.13-7.74,3.8-18.09,3.8-28.45,0-13.61-1.47-28.05,0-41.57,1.38-12.6,10.6-19.91,14.5-32.16"/><g class="o"><g class="f"><path class="g" d="M1173.56,2621.09c1.28.17,2.22.85,3.56.93,1.56.1,3.18,0,4.75,0a49.73,49.73,0,0,1,9.66.68c7.3,1.4,14.4,2.55,21.6,4.49,6.23,1.68,11.52,4.44,17.3,7.19,3.86,1.84,7.56,4.13,11.3,5.48-.32-1.47-2.23-3.45-3.46-4.41-.86-.67-1.84-1-2.67-1.66-1.27-1.08-2.05-2.61-3.38-3.72-2.84-2.38-6.1-5.39-9.48-7a24.29,24.29,0,0,1-4.84-2.68c2.88-1.33,7.87.41,10.6,1.16s5.19,1.73,7.83,2.53c1.76.53,3.69.7,5.3,1.62a9.57,9.57,0,0,1-2.58-1.84c-1.67-1.26-3.41-2.06-5.2-3.18s-3.44-2.44-5.1-3.65c-1-.76-1.71-1.71-2.76-2.47,2.08-2,8.07,0,10.47.47a62.14,62.14,0,0,1,11.61,4c-.25-1.93-1.8-2.56-3.11-3.75a82.7,82.7,0,0,0-8.75-6.74c-5.45-3.78-11.84-5.44-18.28-6.72a87,87,0,0,0-18.34-1.32c-1.81,0-2.91.66-4.63.94-2.7.44-5-.47-7.67.86,3,1.49,6.51,1.73,9.63,3.14,1.07.49,6.87,1.78,7.15,2.94-1.45.75-3.93.09-5.48.16-2.44.1-4.81.72-7.25.92-2.78.23-4.93,1.17-7.62,1.67-1,.18-2.34-.12-3.08.63a.58.58,0,0,1,.7-.3c1.22,1.42,4.6.75,6.32,1.22,2.45.67,6,1.51,8.17,2.87-1.07,1.29-2.86,1-4.33,1.13-2.3.15-4.5.48-6.79.79s-5.39.57-7.39,2.13a34.33,34.33,0,0,1-2.88,2.47c-1.42.88-3,.76-4.24,1.85-.5-1.18-.88-2.39,3.35-2.74"/></g></g><g class="p"><g class="k"><path d="M1307.59,2524.78c4.4-13.83,4.27-27.3,1.63-40.41a167.2,167.2,0,0,1-11.2,40.25c-4.8,11.83-10.38,23.32-15.59,35-5.56,12.46-8.9,25.42-13.29,38.27-.43,3.09-.77,6.19-.94,9.31a1.64,1.64,0,0,1,.15.63,120.94,120.94,0,0,0,0,13.48,2,2,0,0,1-3.67,1.05,52.89,52.89,0,0,0-3.62-5.92,138.31,138.31,0,0,1-10.41,40.32c4.32,5,6.17,10.83,2.4,17.3a21.33,21.33,0,0,1-8.6,7.73,8.37,8.37,0,0,1-2.28,4.92,52.61,52.61,0,0,1-8,6.65c-10.08,9.54-26.1,14.41-41.16,16.19a140.55,140.55,0,0,1-18.91,1l1.7.4c21.09,4.67,44.84,3.4,63.13-7.57,10.49-6.29,18.75-9.16,23.67-19.61,6.75-14.34,1.29-27.23,5.33-41.19,2.17-7.51-1.58-3,5.06-7.48,6-4,11.1-1.58,16.31-8.15,6.13-7.74,3.8-18.09,3.8-28.45,0-13.61-1.47-28.05,0-41.57,1.37-12.6,10.6-19.91,14.49-32.16m-40.08-109.65a8.72,8.72,0,0,1,4.66-2.27c0-2.88.57-6.35,1.1-11.8.19-1.9.43-3.75.63-5.63a53.7,53.7,0,0,1-19.91,4.92c.45,6.93,1.23,13.84,2,20.76a28.53,28.53,0,0,0,11.56-6"/></g></g><path class="q" d="M736.69,491.84c-4.36,1-6.92,6-7.89,9.95-2.61,10.77,1.78,22.91,3.69,33.17,4.69,25.16,26.49,45.11,44,62.28S814.1,626.84,836,637.85c10.37,5.22,22.21,9.23,33.3,12.67s23.91,8,35.53,8.67c13,.78,91,10.67,103.67,11.21,13.61.57,27,.43,40.57,1.25,12.81.78,24.67-.39,37.26,1.85,14.83,2.64,29.47,5.64,44.08,9.63,27.61,7.54,54.6,17.6,82.74,23.3,16.59,3.36,34.77,5.57,51.72,4.85,13.6-.58,25.88-5.28,38.26-10.62,14.24-6.14,61.91-45.34,74.42-51.75-5.67-2.31-55.35,7.63-67.92,8.15a206.73,206.73,0,0,1-71.92-9.47,152.52,152.52,0,0,1-31.06-14.4c-9.47-5.63-16.94-13-25.9-18.91s-43-33.32-52.45-38c15.59-.73,83.9,25.15,103,29.89,34,8.46,67.2.69,101.25-1.09,18.44-1,36.49-6.14,54.66-9.1,8.85-1.44,40.76-4,48.44-1.26,13.11,4.67,16.47,16.92,19.21,29.35,2,9.31,4.41,15.47-1,28.62-2.69,6.49,22-30.77,9.78-59.38-10.61-24.78-39-36.52-64.49-39.21-15.41-1.63-29.82-.11-45.18.9-15.13,1-29.79-1.47-44.65-3.94-12.68-2.11-25.9-3.26-37.64-8.91-13.49-6.5-26.56-15.46-39.16-23.56,13.94,7.54,26.67,9.5,42.07,12.27,14.71,2.65,28.72,7.74,43.27,11,14.27,3.22,29.73,4.93,44.35,3.77,14.25-1.14,28.88-1,43-3.31,29.21-4.87,55.72-14,85.26-4.5,25.48,8.2,41.71,30.21,47.22,52.87a217.42,217.42,0,0,0-3.46-43.83c-2.59-14-10-23.32-20.76-32.32-11.51-9.63-25.71-12.26-40.35-13.82-15.64-1.67-31.51-4-47.25-3.9-15.11.11-30,1-45-1.21-15.9-2.36-31.37-6.95-46.51-12.28-14.23-5-28.19-10.59-42.71-14.77-3.08-.89,26.15,2.17,39.31-.07,12-2.05,25.87-8.11,36-15.38,9.34-6.73,17.64-16.11,25-24.91,14.07-16.83,26-37.41,25.43-60a109.24,109.24,0,0,0-5.44-31.85c-4.25-12.27-13.47-18.54-21.09-28.4,7.3,8.57,10.73,26.21,11.8,37.07a97.62,97.62,0,0,1-4.42,40.92c-8.56,24.86-32.14,53.72-59.27,57.83-29.88,4.53-62.82-.41-92.07-7-32.51-7.36-62-23.12-93.62-33.05,17.5.43,32.47,4.65,48.58-4.95,13.76-8.19,26.93-21.41,38.1-32.82,23.41-23.93,36.36-58.16,35.09-91.67-1.27-33.33-12.49-68.85-32.42-95.7-9.77-13.16-21.64-24.42-34.08-35-11.49-9.78-24.09-21.15-39.36-24.17,35.86,19.67,60.93,64.28,70.56,102.88,8.39,33.62,11.85,86.9-23.11,108,8.06-9.34,22.67-44,21.32-59.83-2-23.85-2.35-24.12-6.74-41.34-4.16-16.32-15.13-32.32-23.25-47.15-6.3-11.51-14.85-27.83-26.27-35,16.71,24.82,16,30,17.76,35.3,4.52,13.6,8.47,27.49,10.21,41.71,2.49,20.37,1.88,45.27-12.89,61.29-17.84,19.34-45.59,11.11-67.22,5.42-29.43-7.74-57.43-20.1-87.08-27-19.31-4.49-90.78-35.05-177.27,7.69-121.45,60-92.65,122-99.55,125.78-24.72,13.39-29.21,11.68-40.12,41.86-10.44,28.89,13.14,52.49,11.29,52.9"/><path class="r" d="M1447.92,583.78c-33.49-18.12-79.54-9.14-115-3.25-34.16,5.67-68.28,11.28-102.81,5.12-25.85-4.61-52.88-10.16-77.65-20-15.82-1.81-31.2-5.79-46.49-10.22-11.83-1.31-23.65-2.58-35.34-4.55,16.05,6.66,32.61,12.06,49,17.76,9.12,3.16,18,6.79,26.58,10.75,26.53,6.93,70.34,23.08,85,26.73,34,8.46,67.2.69,101.25-1.09,18.44-1,36.49-6.14,54.66-9.1,8.85-1.44,40.76-4,48.44-1.26,13.11,4.67,16.47,16.92,19.2,29.35,2,9.31,4.41,15.47-1,28.62-2.43,5.85,17.41-23.85,12.37-50.72a43.46,43.46,0,0,0-18.19-18.16m76.84-26.39c-6.35-6.51-12.59-13.1-18.29-20.13a122.2,122.2,0,0,0-16.84-11.16c-7.33-2.78-14.72-5.34-22.25-7.39-19.44-1.79-39.74.8-60.4,3.84-37.17,5.47-75.6,4.79-112.86.25-25.2-3.07-51.94-7.87-75.06-19.38q11.38,10.54,23.77,19.89c10.14,3.83,20.14,5.45,31.65,7.52,14.71,2.65,28.72,7.74,43.27,11,14.27,3.22,29.73,4.93,44.35,3.77,14.25-1.14,28.88-1,43-3.31,29.21-4.87,55.72-14,85.26-4.5,18.25,5.88,31.73,18.85,39.94,34.06a101,101,0,0,0-5.52-14.47m-157.67,91.67c0,1.84-2.18,3.47-3.65,1.75a6.11,6.11,0,0,0-1.39-1.16c-12.18,1.55-28.8,4.4-40.65,6.09-8.16,2.3-16.27,4.77-24.4,7.18-9.26,2.74-18.8,6.07-28.44,7.17-16.78,1.9-35.16-2.1-51.26-6.42-18.6-5-36-12.51-53.82-19.7-21.4-8.65-43.78-7.93-66.3-10.5-26.65-3.05-56.86-12.46-71.15-37-1.46-2.5,2.38-4.84,3.83-2.34.16.28.34.54.51.82,29.62,10.34,62.59,20.1,94.4,16.8-45.41-12.92-96.76-37.74-117.49-81.5a1.79,1.79,0,0,1-1.56-.73c-14.12-17.07-47.28-9-64.49-1.73-21.38,9.08-40.29,23-60.4,34.49-17.37,9.89-36.35,18.7-56.66,19.5-9.33.37-19.74-.72-28.44-4.25-6-2.42-10.29-6.73-14.78-10.91a1.8,1.8,0,0,1-2.63-.26q-2.55-3-5-6.05a2.21,2.21,0,0,1-.7-.88C763.39,548,755,535.75,749,522.36c-3.28-7.3-4-13-3.24-20.84,1.06-11.37-1.74-19.28-5.73-29.67-5.8-15.09-6.46-30.8-1-46.08a103.05,103.05,0,0,1,9-19.44c-10.48,6-15,11.49-22.62,32.61-10.44,28.89,13.14,52.49,11.29,52.9-4.36,1-6.92,6-7.89,9.95-2.61,10.77,1.78,22.91,3.69,33.17,4.69,25.16,26.49,45.11,44,62.28S814.1,626.85,836,637.85c10.37,5.22,22.21,9.23,33.3,12.67s23.91,8,35.53,8.67c13,.77,91,10.67,103.67,11.21,13.61.57,27,.43,40.57,1.25,12.81.78,24.67-.39,37.26,1.85,14.83,2.64,29.47,5.64,44.08,9.63,27.61,7.54,54.6,17.6,82.74,23.31,16.59,3.36,34.77,5.57,51.72,4.85,13.6-.57,25.88-5.28,38.27-10.62,14.24-6.14,61.91-45.34,74.42-51.75-1.35-.55-5.2-.4-10.43.15M1198.42,341.21c7.6-4.35,14.11-10.4,21.23-15.44,8.19-13,19.35-41.48,18.16-55.42-2-23.85-2.35-24.12-6.74-41.34-4.16-16.32-15.13-32.33-23.25-47.15-6.17-11.27-14.51-27.15-25.58-34.5,16.7,18.76,29.63,39.12,36.27,64.95,6.85,26.62,8.46,56.25-1.63,82.28-9.27,23.92-27.64,38.53-50.74,48.19-3.84,1.61-8.11,3.23-12.6,4.68,2.85.41,5.71.75,8.6,1,12.57.87,25.21-.88,36.27-7.2m132.42,127.27c12-2.05,25.87-8.11,36-15.38,9.34-6.73,17.64-16.11,25-24.91,14.07-16.82,26-37.41,25.43-60a109.23,109.23,0,0,0-5.44-31.85c-3.16-9.14-9.09-15-15.06-21.4,19.93,34.91,17.1,76.08-9.73,106.63a110.46,110.46,0,0,1-48.92,31.73c-22.2,7.18-44.93,5.28-67.75,4.37,9.81,4.22,19.54,8.65,29.82,11.15,9,.47,22.76,1,30.68-.31"/><g class="s"><g class="k"><path class="g" d="M1319.16,489.88c-13.12-6.06-26-12.53-38.75-19.3-5.59-3-11-6.34-16.44-9.48-5.68-3.25-11.44-5.95-17.39-8.64-2.36-1.07-4.9-1.78-7.16-3a35.72,35.72,0,0,0-5.36-2c-.84-.31-4.54-1.17-4.73-2.15,1.87-.52,4.12,0,6,.26,2.11.29,4.3.22,6.43.44,2,.2,4,.24,5.94.43a70.28,70.28,0,0,0,12.21.6c1.1-.08,2.16-.4,3.27-.49a4,4,0,0,0,2-.44,36.13,36.13,0,0,0-5-.79c-2.93-.41-5.86-1-8.8-1.36a79.65,79.65,0,0,1-9.52-1.8c-2.44-.62-5-.77-7.41-1.44-5.1-1.39-10.27-2.8-15.43-3.93a29.22,29.22,0,0,1-5.37-1.91,51.85,51.85,0,0,0-6.75-2.36c-1.23-.36-2.33-.93-3.58-1.25a24.53,24.53,0,0,1-3.95-1.36c-2.34-1-4.88-1.54-7.29-2.46-1.48-.57-3-1-4.5-1.55s-2.64-1.32-4-1.83c-3.49-1.27-6.75-3.06-10.21-4.38s-6.88-2.67-10.24-4.19c-2.81-1.27-5.5-2.78-8.32-4a26.86,26.86,0,0,0-3.58-1.46,14.59,14.59,0,0,1-2.28-.66c-.93-.42-1.8-.58-2.66-1l7.78,2.18c-.69-.25-1.39-.53-2.16-.83a24.8,24.8,0,0,0-3.17-1.14c-1.51-.38-3-.82-4.46-1.32a47,47,0,0,1-5.26-2.13,24.28,24.28,0,0,1-3.43-1.68c-.79-.55-1.34-1.4-2.31-1.64a20.23,20.23,0,0,0,2.65,2.17,53.12,53.12,0,0,0,5.29,3.94c2.72,1.85,5.62,3.45,8.26,5.41,6,4.41,12,8.74,18.23,12.83,5.7,3.77,11.34,7.64,17,11.43,6,4,11.82,8.09,17.81,12,15.41,10.06,32.41,18,49.53,24.65,15.46,6,30.71,12.47,46.54,17.45,4.53,1.43,9,2.59,13.5,4.26,1.59.59,3.23,1.26,4.86,1.72.43.12,1,.35,1.39.11a26,26,0,0,0-3.2-1.8,73.07,73.07,0,0,0-6.51-3.37c-5.83-2.65-11.43-5.76-17.21-8.51-6.49-3.09-13.17-5.67-19.73-8.57-2.75-1.21-5.62-2.4-8.45-3.39,1.56,0,3,.73,4.47,1.26,2.59,1,5.2,1.85,7.79,2.79,10.33,3.75,20.64,7.51,30.9,11.47a242.86,242.86,0,0,0,28,9.27c3.05.77,6.15,1.69,9.28,2.17.56.09,1.15.14,1.74.19-2.17-.48-4.32-1.06-6.48-1.56-6.79-1.59-13.39-4.87-19.7-7.78m-165.23-79.38a21.06,21.06,0,0,0,3.46,1Zm191.41,88.73c.34.08.68.17,1,.24a5.39,5.39,0,0,0,1.58.21,12.1,12.1,0,0,0-2.6-.45M1153.76,382.29c5,.11,10-.21,15,0-7.1-.18-15.15-4.07-21.3-7.17-4.81-2.42-18.3-8.7-19.5-10,6.89.31,13.8.68,20.7,1.14a187.62,187.62,0,0,0,21.19.63c5.4-.25,10.77-1.17,16.16-1.69,4.94-.48,9.84-1.83,14.73-2.73a38.68,38.68,0,0,0,9.13-3.14c5.77-2.66,10.26-7.31,14.94-11.47a117.73,117.73,0,0,0,13.23-14.15c4-5,8.32-10.06,11-15.93,1.44-3.14,3-6.19,4.54-9.3,1.29-2.71,1.74-5.51,2.6-8.33,1.34-4.36,2.93-9.21,2.78-13.85-2.39,4.74-3.43,10.1-5.65,14.92-1.08,2.33-3,4.21-4.31,6.45-1,1.78-2.08,3.51-3.12,5.27l-19.53,20.55c-3.63,3-7.75,5.29-11.37,8.31-7.13,6-16.29,8.81-25.07,11.46a76.26,76.26,0,0,1-20.67,2.9c-1.49,0-25.43.92-69.86-10.31-7.19-1.82-14-4.45-21.21-6.27-3-.77-15.13-3.89-15.13-3.89s11.83,6.72,14.91,7.94c2.74,1.08,13.63,5.4,13.71,6.1-2.56-.21-15.56-4-19.49-5-4.87-1.28-8.8-4.75-13.6-6.13,1.47,2.23,22,18.59,24.55,19.41a48.34,48.34,0,0,1,6.83,3.16c4.13,2.09,8.48,3.33,12.73,5.11,10.55,4.44,20.49,10.31,31.7,13.08a90.94,90.94,0,0,0,19.35,3M806.14,319.4c0,.07.49-.13,1.1-.44-.72.45-.51.37,2.2-1.21l1.9-1.1c-.09.64-10.89,12.45-13.48,16.13-4.57,6.5-8.19,12.67-10.63,20.3-5.68,17.75-14.68,37.1-13.56,56.11-3.17-2.13-5.12-7.16-5.12-7.16s-6.49,4.56-7.4,5.4A35.85,35.85,0,0,0,750,426.51c-4.72,21.95,8.86,47.39,8.86,47.39s-4.4-21.85-.06-30.14c-.44,6.5,14.51,21.08,14.51,21.08s-3.49-17.27-3.83-22.4c1.59,3.56,6.61,10,6.61,10s.93-12.65,1.55-18.39a200.84,200.84,0,0,1,3.92-22.27c3-13.31,7.9-26,11.09-39.23-.43,2.78,1.78,10.94,2.59,12.51,3.08-13.1,1.65-17.77,4.63-27,1.46-4.49,4.08-17.23,9.18-19.4-.4,5.84,4.72,14.27,4.72,14.27s.2-10.27.36-13.81c.28-5.86,2.29-11.25,4.59-16.62,3.06-7.14,9.06-19.67,15.73-24.19-1.85,1.34-29,19.84-28.32,21.09m371.44-1.07c-17.79,4.92-34.54,5.42-52.81,4.09-12.56-.92-32.45-2.51-45.46-7.39,6.62.49,17.51.39,24.12.79,10.15.62,20.31.8,30.47.83,9,0,18.29.36,27.17-1.49,8.57-1.79,14.46-6.63,22.17-10.31-14.87,5.27-17.52,5.3-26.7,6.09-8.41.72-16.86-.33-25.23-1.26a170.64,170.64,0,0,1-26.11-5.16c-6.53-1.78-19.19-3.52-24.07-8.39,5,1.18,8.53,1.31,11.94,2.16a173.85,173.85,0,0,0,17.19,3.5c12,1.73,26.33,3.73,40.14,1.37-10.45-2.36-42.14-4.41-60.22-10-18.86-5.79-36.21-13.87-55.82-17.85-18.6-3.77-38.28-7.31-57.25-8.19a189.55,189.55,0,0,0-25.13.1c-4.58.38-8.84.89-13.48,1.25-8.17.61-18.56,6.41-21.66,6.35.15-3.6,30.81-13.14,33.6-13.48,12.55-1.54,25.93-.45,38.59-.45-14.08,0-27.2-6.64-41.78-6.25-15.22.41-28.51,5.54-41.53,13.29-10.49,6.25-21.69,13-30.39,21.71-9.74,9.73-12.3,27.51-12.69,30.19.37-.23,2.39,8.14,6.07,12.88,1-6.8,4.12-12.36,6.51-18.54-.15,1.75-.43,11.49,2.39,12.26,28.38-51.55,96.34-38.4,142.85-23.35,49.74,16.1,108.47,52.56,157.12,15.23m-315-2.06h0m0,0c0,.19,0,1.26,0,4h0c0,.07,0-.09.07-.37,0,0-.07.12-.07.37,0-.37,0-3.63,0-4"/></g></g><path class="q" d="M1379.64,704.72c-34.22,6.29-70.12,5.61-104.31.75a285.74,285.74,0,0,1-54.78-13c-19-6.69-36.25-17.23-54.36-25.86-18.86-9-38.81-15.6-59.95-13.47.87.07,1.74.23,2.58.29,3.13.2,6.26.25,9.39.44a53.64,53.64,0,0,1,9.76,1.42c32,5.76,59.87,27.94,90.16,39.09,36,13.25,75.67,18.29,113.87,17.58,21-.39,41.85-2.94,61.9-9.3a.44.44,0,0,0,.25-.66,71.29,71.29,0,0,1-14.5,2.69m64.63-78.65c-17.8-7.05-36.54-.62-52.67,7.75-20,10.36-37.67,24.37-57.16,35.52-47,26.87-100.54,11.21-146.34-9.82-26.28-12.07-52.08-25.39-80-33.29a.51.51,0,0,0-.27,1c48.47,16.81,92.35,48,143.41,57.09,22.95,4.09,48.85,3.62,70.64-5.44,19.45-8.09,36.39-21.71,54-33,15.76-10,35.28-21.89,54.72-21.16a38.43,38.43,0,0,1,13.57,1.81,1,1,0,0,1,.45,0,.67.67,0,0,0-.4-.44m60.15-76.42c-29.83-22.76-71.77-22.22-107.27-19.41-52.54,4.15-106.58,11.53-158.79.09-25-5.49-53.66-16.74-61-44a.65.65,0,0,0-1.26.35c11.46,45.57,74.56,51,112.72,52.39,21.41.8,42.85-.12,64.21-1.66,38.16-2.75,77.75-10.12,115.5-.46,19.09,4.88,40.24,14.56,48.84,33.53,4,8.79,4.69,18.26,3.49,27.64-.66,9.29-3.68,18.52-7.51,27.85l.11.06c2.1-4.43,4.48-8.67,6.16-13.31,1.75-4.82,2.58-9.85,3.79-14.82a1.15,1.15,0,0,1,.06-.12c2.34-17.92-2.48-35.5-19-48.13m-101.12,50.17-3,.27c-12.55,1.18-25,2.87-37.52,4.64,5.39-1.57,10.79-3.14,16.22-4.65,14.49-4.05,30.34-8,46.24-9.61a122.94,122.94,0,0,0-22,9.37m-9.57,5.4c-12.33,7.33-24.17,15.53-36.89,22.19a192.54,192.54,0,0,1-51.28,18c-18.09,3.59-36.76,3.82-54.75-.47-17.7-4.22-34.26-12.68-49.59-22.33-3.9-2.46-7.68-5.06-11.42-7.73,11.25,2.87,22.42,5.77,34,7.33a254.48,254.48,0,0,0,53.45,1.36c20.27-1.58,39.72-6,59-11.25,9.69-1.28,19.36-2.68,29-4,9.92-1.39,19.92-2.88,30-3.94l-1.54.9M1148,580.69c9.64,4.25,19.29,8.48,29,12.55,29.5,12.38,59.5,22,91.67,23.3a323,323,0,0,0,44.65-1.6c-36.53,8-74.95,8.89-111.47.53-5.58-1.28-11.16-2.63-16.74-4-12.9-9.59-25-20.18-37.12-30.79m272.91,6.64c-27.76,3.24-54.06,12.69-80.74,20.57-14.43,2-28.88,3.73-43.43,4.59-18.41,1.09-37.09.84-55.29-2.34-17.05-3-33.62-8.3-49.77-14.45-17.1-6.52-33.88-13.89-50.69-21.13l-3.75-3.27c-6.8-5.89-31.79-28.67-42.33-19.3a13.75,13.75,0,0,1,2.24,1.11c6.51-2.53,15.31,3.29,20.52,6.74a144.65,144.65,0,0,1,14.12,10.85c-13.39-5.39-26.52-9.21-41.36-9.37a.7.7,0,0,0,0,1.39c16.31.38,31.12,6.28,45.84,12.82l2,.9,1.31,1.17c12,10.94,24.21,21.83,37,31.84l-17.41-4.33c-14.13-3.53-31.07-8-40-20.48-.45-.63-1.51,0-1.05.62,13,18.51,40.68,22.15,61,27l1.67.41a267,267,0,0,0,22.36,15.32c27.8,16.87,58,26.72,90.76,23.05,30.06-3.36,58.05-15.15,83.53-31,8.71-5.41,17.84-11.39,27.32-16.54,3.28-.24,6.57-.43,9.85-.52,10.73-.29,22,.72,31.81,5.45,15.92,7.7,20,22.61,19.08,38.06a50,50,0,0,1-.5,7.9,57.84,57.84,0,0,1-2.74,13.24.52.52,0,0,0,.68-.31c6.33-16.89,9.53-38.9-3.56-53.57-11.47-12.85-29.47-15.06-46.25-14.51,16.78-7.89,34.57-12.08,53.11-5.29a.8.8,0,0,0,.88-.23,74.62,74.62,0,0,1,10.13,3.9,53,53,0,0,1,17.36,13c5.52,5.27,9.38,12.69,11.55,19.58,4.25,13.53,2.61,26.85.72,40.5a.83.83,0,0,0,.93-.62c6.5-22.06,4.9-46.67-11.87-63.86-19.15-19.63-49.38-21.91-75.11-18.9m-75.22-160.06c-16.37,15.52-36.73,28.44-58.81,33.78-24.39,5.9-47.93.48-69.77-11-21.3-11.22-40.82-25.51-64.53-31.39a.49.49,0,0,0-.26.93c23.79,6.88,43.54,22.71,65.3,33.91,20.21,10.4,42.15,15.73,64.81,11.48,44.11-8.29,82.07-44.77,99.33-85.13a134.24,134.24,0,0,0,10.89-58.34q-.32-1.45-.66-2.91c-.08,3.36-.38,6.73-.41,10a1.26,1.26,0,0,1-.25.75c-1.16,36.94-18.8,72.48-45.63,97.93m-109-1.21c-18.32-2.91-36.42-7.07-54.8-9.66-6.64-.93-13.57-2.59-20.5-3.58q2.15,1.22,4.25,2.53c1.54.85,3.08,1.68,4.62,2.52,6.06,1.09,12.12,2.11,18.2,3.15,17.43,3,34.67,7,52.16,9.61,27.86,4.19,57,4.61,82.86-7.93,42.33-20.5,62-69.08,64.88-114.4a1.13,1.13,0,0,1,0-.19c.29-4.7.41-9.37.35-14-.37-28.3-8.12-57-28.32-77.64a.49.49,0,0,0-.83.24,37.53,37.53,0,0,1,5.06,6.7c29.3,39.52,25.36,97.9,6.69,141.16-9.95,23-26.3,43-49.07,54.25-26.67,13.13-56.95,11.75-85.55,7.2m27.9-56.53c27.75-25.54,43.68-62.49,44.85-104.06a178.69,178.69,0,0,0-.69-20.93c6.28,18.69,7.72,39.26,4.64,59.65-6.42,42.41-31.93,87.64-73.38,104.19a103.22,103.22,0,0,1-49,6.47c-6.55-.71-19.09-1.7-27.77-5.6,33.8-1.71,68.72-9.67,101.37-39.72m-109.36,40c1.47,0,2.94-.1,4.41-.15,5.11,3.16,11.89,4.59,17.06,5.73,13.3,2.94,26.77,4.09,40.32,2.29,27.11-3.6,50.27-18.23,67.37-39.21,28.43-34.88,41.32-85,29.4-128.85a105.08,105.08,0,0,0-6.71-18c-5.41-33.8-20.16-68.61-46.08-85.7l-.2.3c3.58,3.66,7.07,7.57,10.39,11.65,16.3,16.49,26.62,41.07,31.73,66a92.81,92.81,0,0,0-32.89-32.91.58.58,0,0,0-.75.11c1.77,1.58,3.5,3.19,5.17,4.86a101.56,101.56,0,0,1,30.39,39,181.71,181.71,0,0,1,1.88,30.69c-1.15,40.83-16.77,77.11-44,102.15-32,29.45-65.17,37.8-104,39.17a11.92,11.92,0,0,1-4.3-5.34c-.34-.91-1.79-.52-1.46.4a13.31,13.31,0,0,0,3.28,5c-2.13.06-4.26.11-6.43.13q2.69,1.28,5.35,2.62"/><path class="t" d="M932.35,609.18c-10.68,14.15.72,38,10.69,49.6,11.27,13.1,31.8,23.7,49.19,17,24.85-9.62,23.86-48.55,7.77-65.34-6.08-6.35-15.2-9.88-23.3-12.78-8.76-3.14-21.42-6.69-29.48-.08-1,.86-.34,3,1.14,2.35,13.8-6.1,33.57,1.41,45.31,9.65,9.2,6.45,13.48,18.37,14.22,29.19s-1.91,23-10.56,30.21c-12.62,10.46-31.95,4.36-43.7-4.38a56.78,56.78,0,0,1-18.37-23.78c-3.9-9.35-7.28-21.6-2.18-31.1.24-.44-.42-.93-.74-.51"/><path class="u" d="M952.91,598.44c13.33-3,30.26,3.74,40.77,11.1,9.2,6.45,13.49,18.37,14.22,29.19.05.79.07,1.58.09,2.39a45.21,45.21,0,0,0,.19-6.34,57.13,57.13,0,0,0-2.26-12,55.4,55.4,0,0,0-7.8-11.81,67.81,67.81,0,0,0-13.21-8,80,80,0,0,0-20.3-6.5c-.68,0-1.33-.11-2-.12-3.33,0-6.51,1.05-9.67,2m-23.6,29.45s0,0,0-.07a33.49,33.49,0,0,1-.29-3.36,23.38,23.38,0,0,1,.27-9.14c-4.54,14.17,5.08,33.41,13.72,43.46,11.27,13.1,31.8,23.7,49.19,17a27.28,27.28,0,0,0,8-4.81,23.5,23.5,0,0,1-8.77,4c-6.63,2.43-14.4,1.94-21,0-10.76-3.22-19.34-10.24-26.67-18.53-6.13-6.94-14.88-18.67-14.48-28.47"/><path class="v" d="M781.69,554.82c-5.32,29.74-9,59.2-9,89.43V642.9c-14.95,1.89-31.26,4.37-46.09,1-18.32-4.16-37-14.42-56.29-13C641.1,633,611.92,650.94,596.24,675c-33.67,51.73-64.44,105.55-96.34,158.38A139,139,0,0,1,486.42,851c-10.57,11.09-30.4,24.11-41.09,35.19-20.81,21.57-29.46,32.62-48.93,55.44-25.88,30.32-51.44,54.92-84.32,77.59-7.62,5.25-22.31,20.29-33.38,15.49-7.72-3.34-15.58-20.35-20.54-27.38-6.23-8.82-12.46-17.57-18.28-26.67-7.25-11.33-14.11-28-24-37.15-4.64-4.28-9.68-6.38-11.55.41-1,3.77,3.69,13.14,5.28,17,5.33,13,13,25.33,19.35,37.81-16.21-9.27-29.37-21.24-42.69-34.6-6.72-6.74-20.77-34.85-30.67-36-14.5-1.73,6,34.33,10.24,39.77,11.25,14.58,22.81,28.07,35.27,41.65-14.24-9.89-28.92-18.93-41.38-31-6.14-5.95-37.33-52.34-44-37.29-4.57,10.32,12.6,33.83,18.18,40.68,11.79,14.49,26.55,27.49,40.24,40.21-6.66-1.16-15.81-6-22-8.54A109.25,109.25,0,0,1,129,1000.79c-12.27-8.82-28.8-28.27-37.56-25.35-18.87,10.56,40.65,52,60.11,64,15.84,9.81,63.07,39.92,56,61.07.79-2.38-21.79,7.89-24,9.41-6.75,4.64-14.42,10.09-19.82,16.31-5.91,6.8-22,37.13-1,32.25,7.81-1.81,24.59-22.26,31.36-27.21,11.95-8.73,26.56-9.34,40.52-14.26,26.39-9.3,46.69-27.14,71.38-39.24,41.37-20.29,84.61-34.15,123.77-58.92,26.32-16.65,52.32-31.74,71.89-55.93,7.85-9.7,18.7-25.47,23.6-36.86,4.53-10.53,4.76-17.4,11.53-26.61,5-6.79,14.26-12.46,20.57-18L598.12,846c23.12-20.19,45.81-41.06,69.44-60.65,5.94-4.92,18.72-19.06,26.44-12.39,5.8,5,.23,37.16,0,45.86-.87,27.34-1.45,54.7-2.15,82C786.66,876,881.5,851.09,976.6,827.21c6.29-1.58,36.06-13.68,42.2-10,.61.36,3.59,13.09,4.43,15,2.34,5.45,4.7,11.59,8,16.57,5.28,8,13.09,15.21,19.35,22.48,19.85,23.06,39.57,46.24,59.55,69.18,6.17,7.09,15.42,14.18,19.8,22.37,6.21,11.61,8.11,27.57,12.2,40.11,6.43,19.71,20.89,30.48,35.49,45q38.56,38.39,77.29,76.63c12.92,12.78,31.43,26.1,40.75,41.65,4.46,7.45,3.61,13.21,11.52,17.42,4.89,2.6,14.84,4.79,20.45,4.68,6.25-.12,12.54-4.28,18.76-5.12,5.93-.8,12.1.42,18.05-.18,22.9-2.31,30.8-33.62,45.72-47.74,10-9.49,26.06-12.59,36.67-21.46,3.29-2.76,13.42-12,14.27-16,.52-2.43,0-9.44-8.32-10.79-3.24-.52-14.47,3.31-17.19,4.72-6.91,3.58-9.32,7.12-15.51,11.91-9.58,7.41-22.53,8.92-34.37,11-.68-23.15,3.19-42.16,12.53-63.61,3.43-7.87,9.21-14.64,14.07-21.77,7.25-10.62,14.51-24.83,3.39-28.88-12.58,7.42-20.85,25.5-29.32,36.74-9.64,12.79-17.54,27.16-21.35,42.47-1.63-14.23-4.45-27.4-1.5-41.41,3.21-15.25,14.76-43.52,9.59-45.77-7.81-2.11-10.65,6.3-14.38,11.68-1.37-3-7.41,2.92-11.46,4.94-24.49,21.35-24.34,47.9-29.88,82.24-1.93-8.68-5-17.77-5.16-26.62,0-3.57,6.54-30-2.93-26.41-9.09,3.42-16.65,36.64-8.54,42.69-11.84-9.55-26.23-39.26-30.84-47-13-22-26.43-50.73-44.81-68.35-10-9.57-25.56-17-33.81-27.73-5.52-7.2-8.49-19.24-12.15-27.46q-22.07-49.53-44.29-99c-7.73-17.24-15.85-34-24.44-50.8-12-23.45-22.13-57.14-43.72-74-15.43-12.06-41.13-9.42-59.81-10.64-13.54-.88-25.46,1.71-39,3.12-12,1.25-24.19.61-36.25.61-17,0-14.57-1.19-19.53-17.53-3.42-11.29-5.4-32.61-12.78-41.86-6-7.55-23.57-13.14-31.88-17.77Z"/><g class="w"><g class="f"><path class="g" d="M1190.59,1027.85c-5-6.41-9.82-12.94-14.41-19.64a4.29,4.29,0,0,1-1.41-2.09c-1.34-2-2.68-4-4-6a214,214,0,0,1-16.72-31.31c-2.29-5.4-4-11.08-6.15-16.53a5.1,5.1,0,0,1-2.3-1.9C1132,929.89,1114,917.6,1099.52,897.7c-15.26-21-38.49-41.93-53.59-63-14.16-19.79-44.43-44.58-34.35-24.27.09,0-.08,4.32,0,4.37s7.65,3.35,8,4.56a135.55,135.55,0,0,1,9.88,26.56c.55,1,1.11,2,1.72,2.93,5.28,8,13.09,15.21,19.35,22.48,19.85,23.06,39.57,46.23,59.55,69.18,6.17,7.09,15.42,14.18,19.8,22.37,6.21,11.6,8.11,27.57,12.2,40.11,6.43,19.71,20.89,30.48,35.49,45q38.56,38.39,77.29,76.63c9.22,9.12,21.29,18.53,30.83,28.82,4.3,2.22,8.53,4.54,12.63,7q-21.14-26.82-42.91-53.07c-21.07-25.39-46.35-51-64.83-79.56"/></g></g><g class="x"><g class="f"><path class="g" d="M886.19,763.18q-23.38,12.3-45.95,26a24.24,24.24,0,0,1,2.06,1.58,54,54,0,0,1,10.61,12.83c11.22-4.32,22.86-7.51,34.49-10.89,14.61-4.26,29.49-8.53,44.69-9.85a394.52,394.52,0,0,1,2.57-43.14c-17,3.48-33.7,15.65-48.48,23.43m-85.14,41.38c-21.15-12.44-44.33-22.85-67.35-20.84a173.11,173.11,0,0,1,14.57,39.09c1.38,0,2.84.05,4.48,0,17.55-.55,35.07-1.62,52.59-2.44q7.69-.53,15.4-.76c-4.76-3.91-9.56-7.78-14.46-11.52-1.74-1.18-3.51-2.32-5.23-3.54m12.67-231.89-32-17.85c-5.32,29.74-9,59.2-9,89.43V642.9c-14.95,1.89-31.26,4.37-46.09,1-18.32-4.16-37-14.42-56.29-13C641.1,633,611.92,650.94,596.24,675c-33.67,51.73-64.44,105.55-96.34,158.38A139.12,139.12,0,0,1,486.42,851c-10.57,11.09-30.4,24.12-41.09,35.2-20.81,21.57-29.46,32.62-48.93,55.44-25.88,30.32-51.44,54.92-84.32,77.59-7.62,5.25-22.31,20.28-33.38,15.49-7.72-3.34-15.58-20.35-20.54-27.38q-3.27-4.64-6.52-9.27c-4.26-3.88-8.52-7.07-14.24-3.67-1.88,1.12-2.91,3.44-5,4.53-8.49,4.31-18-3.2-25.16,3.67-2.51,2.4-3.55,5.08-6.25,6.77l.16.17-.21-.15a10.25,10.25,0,0,1-3.27,1.27c-8.16,1.75-23.65-3.78-22.18,10.53.23,2.21-2.08,3.25-3.87,3a25.24,25.24,0,0,0-2.62,4.48c8.51,8.16,20.59,11.76,31.38,15.92,11.33,4.37,21.44,10.05,32.19,15.64,9.63,5,19.44,9.6,29.12,14.4,1.76-1.69,3.47-3.32,5.15-4.68,6.29-5,13.22-9.28,19.8-13.93,15.29-10.81,103.55-89.61,114.93-101.35,22.11-22.8,57.46-69.7,89.82-83.18C518.7,860.18,529,838,546.22,813.24c15.32-22,14.38-23.83,32.35-54.4,19.77-58.42,36.09-94.49,82-102.35,56.31-9.65,94.37,39.14,145.88,45-.49-42.69-4.66-87.4,7.32-128.82"/></g></g><path class="h" d="M1458.24,1089.53a42.48,42.48,0,0,1-2.94,3.19,53.47,53.47,0,0,1-5.93,6.4,39.65,39.65,0,0,1-7.68,6.78A53.88,53.88,0,0,1,1421,1117a151.92,151.92,0,0,0-19.43,15.13c-10.11,9.59-15.11,23.33-25.87,32.27-10.38,8.63-18.84,6.38-31.12,6.81-11.47.41-18.45,7.43-28.75,3.23a27.81,27.81,0,0,1-12.66-3.41,8.38,8.38,0,0,1-2.76-.85c-1.25-.65-2.48-1.31-3.72-2,3.27,6.48,3.24,11.59,10.42,15.41,4.89,2.6,14.84,4.79,20.46,4.68,6.24-.12,12.54-4.28,18.76-5.11,5.93-.8,12.1.42,18.05-.19,22.9-2.31,30.8-33.62,45.72-47.74,10-9.49,26.06-12.59,36.67-21.46,3.29-2.76,13.42-12,14.27-15.95a9.23,9.23,0,0,0-2.81-8.37m-267-151.59c-5.52-7.2-8.49-19.24-12.15-27.46q-22.08-49.53-44.29-99c-7.73-17.24-15.85-34-24.44-50.8-2-3.91-3.94-8.12-5.89-12.47-3.16-7-6.35-14.48-9.83-21.81l-.19-.4q-1-2.15-2.08-4.28l-.57-1.13q-.91-1.81-1.86-3.6l-.68-1.28q-1-1.81-2-3.57l-.6-1.06c-1.75-3-3.6-5.93-5.55-8.71-.27-.39-.56-.76-.84-1.15q-1.05-1.46-2.15-2.86c-.36-.46-.73-.91-1.09-1.35q-1-1.26-2.11-2.47c-.39-.44-.79-.88-1.19-1.31-.76-.82-1.55-1.6-2.35-2.37-.37-.36-.73-.73-1.1-1.07-1.18-1.09-2.39-2.14-3.64-3.12-15.43-12.06-41.13-9.42-59.81-10.64-1.56-.1-3.1-.15-4.63-.16-.72,0-1.43,0-2.14,0s-1.5,0-2.25,0c-1,0-2,.09-2.92.15l-1.18.08c-8.55.61-16.85,2.06-25.86,3-12,1.25-24.19.61-36.25.61-17,0-14.57-1.18-19.53-17.53-3.42-11.29-5.4-32.61-12.78-41.86-6-7.55-23.57-13.14-31.88-17.76l-85.74-47.78c-4.39,24.52,1.91,59.76.9,84.48,7,53.48,7,42.69,14.8,72.69.83,3.18-1,6.12-4,5.45-16.25-3.56-29.22-13.77-43.41-21.84-11.93-6.78-24.24-13.26-36.6-19.5,6.84,8.07,13.36,16.43,21.25,23.53,15.23,13.7,34.69,20,53.86,26,6.6,2.07,12.32,4.09,18.29,7.69,6.55,3.93,15.44,12,23.43,11.94s15.53-8.5,22.73-11.14c5.65-2.07,11.43-2.15,17.4-2.41,17.75-.77,30.93-8.08,47.35-13.75,11.88-4.1,24.6-6.69,37-8.9a242.11,242.11,0,0,1,40.88-4.1c2.3,0,4.6,0,6.89.09l1.52.06q2.92.12,5.84.34c1.15.09,2.3.22,3.45.34,1.42.14,2.85.28,4.27.47,2.68.36,5.36.77,8,1.29,2,.39,3.94.85,5.85,1.35.62.16,1.21.35,1.82.52,1.28.37,2.55.74,3.79,1.16.68.23,1.35.47,2,.71,1.14.41,2.27.84,3.38,1.29.66.27,1.32.54,2,.83,1.12.49,2.22,1,3.3,1.53.58.28,1.17.56,1.74.86,1.22.63,2.41,1.29,3.58,2,.4.23.81.45,1.21.68q2.38,1.42,4.66,3l.06,0c1.48,1,2.91,2.07,4.32,3.16.37.29.73.59,1.09.88,1.06.84,2.1,1.7,3.12,2.59l1.22,1.08q1.45,1.31,2.86,2.66l1.13,1.1q1.48,1.47,2.9,3l.85.91q1.79,2,3.5,4l0,.05q3.66,4.4,7,9.17l.31.45q1.46,2.11,2.87,4.29l.45.7q1.36,2.13,2.67,4.31l.35.58q1.44,2.43,2.83,4.91c11,19.73,19.26,41.83,27.4,62.2,12.61,31.56,28.45,61.5,41.62,92.78,5.28,12.55,7.9,23.15,15.72,32.44A271.89,271.89,0,0,1,1236,978a109,109,0,0,0-10.9-12.36c-10-9.57-25.56-17-33.81-27.73M1300.73,1081c2.28,2.45,14.32,14.12,16.54,16.63-.06-2.42-1.12-4.32-.15-7.27-1.94-8.38-4.81-17.12-4.93-25.63,0-3.23,5.34-25.13-.64-26.65-2,11.25-11.11,22.32-14.22,33.68-1,3.56,3,8.82,3.39,9.25m59.34,1.32c2.85-2.2,1.18-1.12,4.92-2.67-1.57-12-4-29.39-1.5-41.41,3.21-15.25,14.75-43.52,9.59-45.77h0c.26,14.47-9.14,30.58-14.7,43.46-.3,15.54-.21,31,1.7,46.39m22,34.85,3.61-4.74c-.37-22.11,3.51-40.6,12.55-61.33,3.43-7.87,9.21-14.64,14.07-21.77,5.95-8.71,11.88-19.83,7.69-25.78-5,13.82-13.57,25.65-23.48,36.48-.51.81-1,1.62-1.54,2.43l-.19.52c-3.74,14.48-9.3,28.51-11.63,43.31-1.62,10.29-.89,20.62-1.07,30.89m-23.34-113c-.57-2.58-7.22,1.51-9.44,3.75-3.71,12.9-9.26,25.28-11.71,38.51-2.37,12.79-1.45,25.82-2.15,38.75a94.14,94.14,0,0,0,5.93-18.7c.13-21.29,4.68-40.74,17.37-62.31m-757-189.54a670.3,670.3,0,0,1-51,44.68c-7.63,6-15.86,10.4-24,15.57-10.9,6.89-14.39,14.55-18.22,26.4-28,86.83-119.76,117.37-193.08,155.82-14,8.66-30.12,13-43.13,23.7-13.73,11.27-27.05,24.65-43.92,31.14-10.08,3.88-21.38,5-32.14,7.42a60,60,0,0,0-14.57,14.52c-4.2,5.82-8.33,11.87-14.56,15.7a17.7,17.7,0,0,1-14.73,2.16c-.23,5.24,2.33,8.63,10.45,6.75,7.81-1.81,24.59-22.26,31.36-27.21,11.95-8.73,26.56-9.34,40.52-14.26,26.39-9.3,46.69-27.13,71.38-39.24,41.37-20.28,84.61-34.15,123.77-58.92,26.32-16.65,52.32-31.74,71.89-55.93,7.85-9.7,18.7-25.47,23.6-36.87,4.53-10.53,4.76-17.4,11.53-26.61,5-6.79,14.26-12.46,20.57-18L598.12,846c23.12-20.19,45.81-41.06,69.44-60.65,5.21-4.32,26.49-27.39,30.31-3.12,5.57-15.23,27.64-24.94-27.53-35.95-2.75-.55-18.46,0-20.44,1.67-3.63,3.12,13.67,3.69,11,6.7-18.17,20.15-39.09,40.54-59.12,60m199.69-7.4c19.36,12.12,32.73,32.57,41.81,54.05l26.83-6.92c-12.21-26.06-39.94-45.23-68.65-47.13M201.09,1009.59c-1.76-1.22-3.53-2.42-5.3-3.62,2.65,2.09,5.37,4,8.09,5.84l.66-.48c-5.23-7-10.46-13.95-15.78-20.85-9.9-12.84-20.4-25.12-29.35-38.57-2.11-2.48-4.21-5.07-6.18-7.74,3.79,9.78,10.41,20.94,12.59,23.77,11.25,14.58,22.81,28.07,35.27,41.65M227.5,996c.45.45.87.92,1.32,1.37a24.8,24.8,0,0,1,3.06-1.22c-11.19-17.12-21.87-34.42-26.62-54.41a9,9,0,0,0-.93,2.21c-1,3.77,3.69,13.14,5.28,17,4.93,12,11.83,23.49,17.89,35m-19.81,95.73.35-.15a101.07,101.07,0,0,0-3.5-11.66,52.78,52.78,0,0,0-3.42-7.09q-9.23-10.66-19.38-20.37c-3.81-3.3-7.7-6.53-11.61-9.73-13.74-7.35-27.51-14.66-40.62-23.1C112.94,1009,97,996.06,89.82,977.31l-.35-.3c-11.74,12.56,43.48,51,62.09,62.48,13.74,8.51,51.09,32.3,56.14,52.27m-37.13-72.87c1.73.89,3.47,1.77,5.19,2.69a6.9,6.9,0,0,1,1.53-1.49c-18.85-18.33-36.05-38.28-50.32-60.42a75.39,75.39,0,0,1-11.91-15.8c-1.36,11.23,13.67,31.77,18.82,38.1,10.78,13.24,24,25.24,36.68,36.92"/><path class="y" d="M707.09,765.8c-1.51.14-2.12-1.76-2.83-2.73-3.06-4.15-8.21-6.94-12.91-8.63-8.37-3-16.93-3.85-25.71-4.89-5-.59-10-1.63-15-1.62.59.92,8.12,3,10.6,4.35,3.57,1.75,7.18,3.49,10.64,5.45,6.11,3.46,12.39,7.09,17.68,11.69,3.37,2.93,7.1,5,10.06,8.5,4.57,5.4,6.53,11.88,9.31,18.28-.6-7.41.29-14.92-.1-22.35-.09-1.75-1.08-12.67-4.28-12.47-.06.27-.12.54,2.52,4.4"/><path class="y" d="M830.81,706a187.58,187.58,0,0,1,17.62,17.35,58.63,58.63,0,0,0,8.21,4.81c15.37,7.29,31.81-3.46,44.42-11.94a258.3,258.3,0,0,0,34.15-27.77c2.79-2.67,5.84-5.52,8.86-8.54-4.15,0-8.3-.12-12.43-.12-17,0-14.57-1.18-19.53-17.53-3.42-11.29-5.4-32.61-12.78-41.86-6-7.55-23.57-13.14-31.88-17.76l-71.6-39.9a12.3,12.3,0,0,1-1.82,13,20,20,0,0,0-3.9,7.4c-.19,9.33-.75,18.64-.64,27.95a115.61,115.61,0,0,1,.69,12.7c5.16,26.93,19.07,53.8,35.39,75.81,1.73,2.15,3.5,4.25,5.26,6.37"/><g class="z"><g class="f"><path class="g" d="M1323.47,1102.11c2,1.7,4.17,3.42,6.22,5.06a64.31,64.31,0,0,0,10.15,6.91,8.45,8.45,0,0,0,2.7,1c1.11.08,1.67-.42,2.66-1.18,2.35-1.8,4.58-3.32,6.78-5.24s4.66-3.28,6.74-5.39a36,36,0,0,1,3.39-2.66c.78-.63.92-1.35,1.48-2.07a13.17,13.17,0,0,1,1.87-1.61c1.35-1.26,1.93-3.16,2.7-4.78a29,29,0,0,0,1.89-3.7,4.47,4.47,0,0,0-2.41-5.57,7,7,0,0,0-5.56.16,11.15,11.15,0,0,1-6.72.54c-4.4-1.07-9.45-5.36-14.16-2.39-1.63,1-3.51,2.83-5.36,3.25-2.56.58-5.22-.56-7.45-1.57s-6.33-.41-8.12,1.37c-1.51,1.5-3.75,4.78-4,6.89a8.48,8.48,0,0,0,2.71,7.09c.87.81,1.79,1.3,2.72,2,1.09.84.89,1.09,1.81,1.85"/></g></g><path class="aa" d="M1465.14,1090.59a2.87,2.87,0,0,0-.47-.87c-.89-.55-1.75-1.06-2.62-1.55l-.52-.19-2-.67-1.28.68a3.9,3.9,0,0,1-1.2.7,38.23,38.23,0,0,0-10.41,8.74A58.86,58.86,0,0,0,1452,1108c5.57-4,10.79-9.41,13.25-15.79,0-.55-.09-1.09-.17-1.63m-106.37-89.15a3.88,3.88,0,0,0-1.76,0c-2.29.55-4.7,2.87-6.94,6.15a17.15,17.15,0,0,1,6.13.24c1.28-1.65,2.49-3.35,2.65-5.14a5.46,5.46,0,0,0-.07-1.23s0,0,0-.05m-45.06,34a3.87,3.87,0,0,0-1.74.25c-2.21.83-4.32,3.42-6.14,6.95a17.1,17.1,0,0,1,6.11-.51c1.07-1.79,2.07-3.63,2-5.43a5.43,5.43,0,0,0-.22-1.21l0-.05m60.13-45.83-.15-.07c-4.42-.15-7,3.46-9.39,7.32a58,58,0,0,0,7.67,4.51c.89-2.42,1.7-4.87,2.53-7.31a24.6,24.6,0,0,0-.26-2.61,18.3,18.3,0,0,0-.4-1.83m35.07,16.38a37.68,37.68,0,0,1,6.73,5.48c.79-1.26,1.54-2.55,2.22-3.86a44.34,44.34,0,0,0,3.11-7c.12-.39.2-.8.3-1.2a9.91,9.91,0,0,0-2.91-1.62,40.09,40.09,0,0,0-9.45,8.15"/><path class="aa" d="M113,938.59a7.36,7.36,0,0,0-.22.76c2.07,5.13,6.84,9.54,11.39,13.19a57.29,57.29,0,0,1,8.48-5.93c-8.51-9-16.62-14.87-19.65-8m47.77,201.58a33.82,33.82,0,0,0-6.67,17.41,13.51,13.51,0,0,0,2.34,4.5,17.38,17.38,0,0,0,7.91-2.38c3-2.49,6-5,9-7.53-3.53-4.63-8.14-8.23-12.54-12m52.4-199.31c-2.37-2.19-4.83-3.75-6.94-3.89l-.59.75a24.52,24.52,0,0,0,5,11l1-.52a46.68,46.68,0,0,1,5.7-2.95,43.7,43.7,0,0,0-4.08-4.44m-54.24-.63c2.09-1.24,4.26-2.33,6-3.39a4.69,4.69,0,0,1,.88-.42c-4.47-5.85-9-10.47-12.9-10.94-2.12-.25-3.45.33-4.23,1.48,1.93,5.09,6,9.67,10.29,13.27m-70.2,32.51a8.82,8.82,0,0,0-1.09.76c.44,5.54,7.45,11.73,12.78,15.48.39-.34.76-.69,1.15-1a28.59,28.59,0,0,1,6.08-5.7c-7.3-6.21-14.23-11.08-18.92-9.51"/><path class="h" d="M985.07,787.2c1.07-.15,1.19-.9,1.86-1.51,2.67-2.47,6.89-4.35,10.61-5.62,6.38-2.18,13.47-2.82,20.32-3.59,5.6-.63,11.26-1.23,16.91-1.52,1.07,1.46-6.7,7.48-6.44,7.22-4.61,4.73-8.21,9.4-9.61,15.34-2.57,10.91-.89,22.08.27,33-3.85-.24-6.22-6.89-7.27-8.89-3.69-7.05-8.52-13.64-13.6-20.14q-2.68-3.56-5.71-6.95-2.61-2.38-5.43-4.6c-1-.9-3.94-3.47-3.7-4.89,1,.1,4.41,2.06,1.77,2.12"/><path class="y" d="M983.16,789.79c.93-.11,1-.64,1.62-1.07,2.33-1.74,6-3.08,9.24-4,5.56-1.54,11.73-2,17.7-2.54,4.88-.45,9.8-.87,14.72-1.08.93,1-5.83,5.29-5.61,5.1-4,3.34-7.15,6.64-8.37,10.84-2.23,7.71-.77,15.61.24,23.37-3.35-.17-5.42-4.87-6.33-6.28a96.92,96.92,0,0,0-11.85-14.24q-2.33-2.52-5-4.91-2.27-1.68-4.72-3.26c-.83-.63-3.43-2.46-3.22-3.46.83.07,3.84,1.45,1.55,1.5"/><path class="ab" d="M792.42,492.5c-7.16-14.25-22-16.87-28.68-.89-6.8,16.27-4.26,38.17-.06,54.81,1.87,7.43,4.07,16.65,9.11,22.67,3.87,4.62,13.45,7.81,18,2.29a147.82,147.82,0,0,0,10.82,72A152.83,152.83,0,0,0,821,676.79c7.51,9.76,17.64,22,27.68,29.06,18.82,13.25,42-5.67,59-14.33,24-12.21,41.11-32.09,57.34-53.59,8-10.6,18.49-28.23,24.73-40s22.66-52.08,25.61-65.15c6.79-30,4.62-27.63,3.67-58.67-1.81-58.89-53.05-98.51-110.25-95.57-14.45.74-31.55,2.55-44.19,10-12.8,7.57-23.39,20.49-32.66,31.87a154.79,154.79,0,0,0-24.6,42.15c-5,13-7.47,31.59-7.88,45.55.8-1-.65-2.74-7.13-15.64"/><g class="ac"><g class="f"><path class="g" d="M777.78,572.42c-14.45-20-24.88-79.61,4.82-90.35-6.85-3.3-14.55-.77-18.86,9.53-6.8,16.27-4.26,38.17-.06,54.81,1.87,7.43,4.07,16.65,9.11,22.67a14.79,14.79,0,0,0,4.95,3.68c0-.11,0-.23,0-.35"/></g></g><g class="ad"><g class="f"><path class="g" d="M864.69,388.58c-12.8,7.57-23.39,20.49-32.66,31.87a154.79,154.79,0,0,0-24.6,42.15c-4.87,12.62-7.3,30.46-7.82,44.26a41.53,41.53,0,0,0-2.33-4.87c-1.22,22.76,2.43,45.8-6.54,67.42-.11.79-.21,1.59-.31,2.38.13-.14.27-.26.4-.41a147.82,147.82,0,0,0,10.82,72,157.14,157.14,0,0,0,10,19.47A203.9,203.9,0,0,1,809,628.72c.18-39.49,8.91-81.44,30.67-114.88a6.23,6.23,0,0,1,3.06-2.51c2.46-12,1-25.28,2.13-37.36a228.29,228.29,0,0,1,5.61-33.73c5.09-20.18,12.61-39.1,25.15-55.69l0-.06.72-1a56.31,56.31,0,0,0-11.66,5.05"/></g></g><path class="h" d="M1019.13,474.12c-1.81-58.89-53.05-98.51-110.25-95.57a164,164,0,0,0-21.78,2.39c.1.16.21.32.3.49a1.5,1.5,0,0,1,1.42.91c10,24.49,20.61,50,33.85,73,4.11,7.11,9.8,13.38,14.67,20,3.35,4.53,11.24,17,10.52,18.25l-.31.55a1.89,1.89,0,0,1,.31,2.15,123.52,123.52,0,0,1-8.13,14.24c-2.33-2.18-4.39-4.23-3.85-5h0a2.15,2.15,0,0,1-.42-.22,1.32,1.32,0,0,1-.19-.21,43.38,43.38,0,0,1-7.5-7.41,1.5,1.5,0,0,1,.57-2.29,275.84,275.84,0,0,1-40.48-72c-3.65-9.51-7.31-19.05-10.75-28.65-.6-1.68-2.19-5-3.37-8.36-1.7.67-3.37,1.4-5,2.22.1.59.12,1.23.19,1.8.31,2.51.71,5,1.1,7.5.63,4,1.24,8.1,2,12.13a166.46,166.46,0,0,0,15.43,44.82,190,190,0,0,0,22.74,34.75c3.56,4.37,7.21,8.68,11.17,12.69,1.91,1.94,10,7.42,16.46,11.12q-2.65,3.95-5.37,7.84c-2.55,4.86-5,9.75-7.31,14.75-5.59,12.22-8,24.29-10.66,36.88a28,28,0,0,1,15.1-6.65c9.18-1.3,22.1-1.75,30.88,1.77,18,7.22,10.29,42.24,5.29,54.06C955.09,647.13,935,665.76,917,686.28,936.29,674,951,656.59,965.11,637.94c8-10.6,18.49-28.23,24.73-40s22.66-52.08,25.61-65.15c6.79-30,4.62-27.64,3.67-58.67m-233.05,56c0-.53-5.73-4.37.16-11.55-.5-6-.1-1.57-.5-8.48,0-.19-2.08-5.95-4.23-8.05-7.41-7.25-11.76,1.78-12.71,9.36,2.19-2.37,5.36-2.94,8.07,1.11,1.37,2,2.49,6.45,1.08,8.62-.88,1.36-2.72,2-3.62,3.65a17.21,17.21,0,0,0-1.6,6.94c-.27,4.47.4,9.62,2.65,13.55,3.62,6.31,9,2.33,10.71-3.24,1.19-3.83,0-11.64,0-11.9"/><path class="y" d="M784.11,511.31a14.94,14.94,0,0,1-1.35,7.38c-.82,2.12-3.5,5.16-3.46,7.5,0,3.16,3,8.7,6.73,8.72a4.31,4.31,0,0,1,.51.06c-.15-2.56-.46-4.69-.46-4.82,0-.53-5.73-4.37.16-11.55-.5-6-.1-1.57-.5-8.48a31.4,31.4,0,0,0-3.31-6.92,25.37,25.37,0,0,1,1.68,8.11"/><path class="y" d="M864.83,601.1c0,2.47-.11,4.95,1.56,6.67s3.75,1.85,5.3,3.5c1.77,1.88,2.74,4.18,4.73,5.84a16.31,16.31,0,0,0,5.41,3.4,13,13,0,0,0,6.71.08,27.25,27.25,0,0,0,6.06-1.88c3.13-1.7,8.44-3.65,10.92.76-1.46,1.75-4.53,2.48-6.38,3.59-2.3,1.37-4.42,2.91-7,3.43-5.14,1-10.46-1.14-15.17-3.51a11.64,11.64,0,0,1-5-5.25,30.84,30.84,0,0,0-5.32-6.66c-1.6-1.63-2.9-2.94-3-5.63-.07-1.18,1.29-4.19,1.25-4.33,0,3-.13-.39,0,0"/><path class="ae" d="M1237,564.36c-14.18-8.8-27.27-19.31-39.84-30.27-24.52-21.39-75.7-67.06-74.14-66.29,28.46,14.08,48.93,40.3,72.28,61.06,13.84,12.3,28.28,24.08,44.07,33.8,10.71,6.6,21.78,12.59,32.7,18.84-3.65-6.54-15.47-14.19-20.53-18.41-8.13-6.78-16.59-13.15-24.74-19.9-17.38-14.4-34.42-29.21-51.43-44-30.59-26.7-64.63-47.57-100.5-66.54,6.58,3.53,25.14,9.49,28.87,11.34,13.9,6.88,27.65,14.11,41.52,21.05,7.43,3.71,50.66,19.38,45,16.09-17.64-10.3-22.33-17.95-41-38.17-16.52-17.91-22-20.3-39.27-37.54-33.48-33.47-62.43-66.78-108.84-82.17-22.29-7.39-47.43-10.61-70.89-8.27a69.06,69.06,0,0,0-26.63,8.29c-6.23,3.45-12.12,14.07-17.67,16.22-4.77,1.85-6.57-.77-11.82-2-10.44-2.42-19.76.54-27.59,7.39-1.66,1.45-10.87,9.85-18.49,17.73-9.6,5-22.79,25.56-25.59,31.76-8,17.75-11.66,36.55-12.68,55.88-1.83,34.71,6.47,69.23,4.41,104.26,3-2.06,2.88-12.23,3.62-15.36,2-8.3,4.8-16.37,7.47-24.46,5.95-18,14.51-33,23.79-49.44,8.55-15.1,32-56.33,34.92-64.87,1.95-5.64,16.32,37.25,25.95,51.46,8.47,12.51,18.33,24,27.43,36,6.42,8.45,17.4,21.69,31.22,31.77-6.95-15.06-15.83-27-19.47-33.1a247.39,247.39,0,0,1-18.09-37.09c-9.84-24.93-13.56-41.79-6.62-29.27a165.22,165.22,0,0,0,39.23,47.77c30.27,25.08,61.6,55.65,99.62,68.55,16.47,5.59,35.77,10.91,53,12.89,19.44,2.23,38.91.53,58.36,3.27,16,2.25,31.81,5.34,47.5,9.07-11.19-5.92-23.68-9.55-36.53-11.78-13.16-2.28-26.5-3.45-39.79-4.73-11.39-1.1-23.9-1.22-34.48-6-1.59-.71,17.27,1.53,25.42,2.39,7.74.82,15.49,1.48,23.23,2.3,11.46,1.22,23,2.51,34.23,5s65.3,22.93,74.08,25.61c5.12,1.56,6.49,2,13.79,4.57-8.45-4.75-16.9-9.5-25.14-14.61"/><g class="af"><g class="k"><path class="g" d="M1163.14,521.13c-4-4.75-8.09-9.32-12.5-13.66-9.54-9.4-20.41-17.71-30.71-26.27-11.4-9.48-23.48-18.15-35.64-26.6-19.78-13.74-40.94-25.61-61.91-37.43A229,229,0,0,0,995.26,404c.52-1.27,4.58.77,5.17.91,4.71,1.11,9.48,1.43,14.18,2.77,9.61,2.75,19.19,6,28.55,9.47-8.43-5.64-18.45-8.85-27.36-13.65a9.14,9.14,0,0,1,2.81.41c2.94.74,5.79,1.51,8.79,2a348.22,348.22,0,0,1,36.63,8.22c7,1.88,14.1,3.58,20.92,6.05,6.42,2.33,12.7,5.14,18.9,8,5.12,2.35,10.1,5,15.13,7.53,1.62.81,5.66,3.75,7.71,3.57a55.85,55.85,0,0,0-6.33-6.81c-6.49-6.54-13.69-12.3-20.47-18.54-11.38-10.47-22-21.69-34.26-31.22-11.67-9.09-23.67-18.24-36.14-26.19-22.37-14.26-48.23-23-74.26-27.72-8.68-1.56-18.14-2.82-27-2-2.81.26-7.32.57-9.58,2.48,1,.16,2,0,3,.12,3.88.54,7.56,2.42,11.1,4,4.15,1.84,8.29,3.72,12.43,5.57,1.91.85,5.22,1.66,6.59,3.23-2.53.05-5.24-.91-7.75-1.33-6.17-1-12.45-1.31-18.68-1.72-4.51-.3-9.1-.69-13.6,0-1.35.21-2.82.27-3.87,1.21,3.93,2.45,8.18,4.58,12,7.3a100.63,100.63,0,0,1,12,9.36c1.48,1.43,3.2,2.93,4,4.85-1.32,2.59-5.48.65-7.2,0-6.56-2.31-13.1-4.48-19.83-6.26q-4.1-1-8.13-2.13a47.36,47.36,0,0,1-5-2.45,20.85,20.85,0,0,0-3.45-1.43c-.63,1.15.35,3.82.61,4.65a59.52,59.52,0,0,0,4.06,9.87c3.49,6.75,7.94,12.59,12.62,18.52-1.24,0-4.92-3-5.39-3.27-4.07-2.54-8.19-5-12.23-7.54a53.9,53.9,0,0,1-8.47-6,20.61,20.61,0,0,0-2.08-2.17c-2.2-1.51-3.16,1.81-4.19,3.41a26.41,26.41,0,0,0-3.56,7.39,49.76,49.76,0,0,0-1.44,6.17l-.91-2.74-.56-.44c-1,2.11.19,5.75.64,7.85.93,4.41,2.88,8.66,4.08,13,.44,1.57,1.49,2.81,2.17,4.27s1.07,3.31,1.91,4.87c1.5,2.81,3.16,5.55,4.57,8.4,2.21,4.48,4.83,8.8,7.08,13.3a113.35,113.35,0,0,0,6.4,11.65c1.05,1.6,2,3.23,3,4.87s1.63,3.63,2.66,5.37c2.08,3.53,3.44,7.27,5.76,10.67,1.63,2.4,3.55,4.45,4.78,7-.71-1.47-1.54-2.79-2.22-4.25-1.46-3.11-2.68-6.28-4.06-9.43-3.74-8.53-5.86-17.77-7.81-26.84A110.15,110.15,0,0,1,897,405.41c0-3.91.09-7.83,0-11.74-.16,2.07,1.91,4.75,3,6.37a88.52,88.52,0,0,0,7.25,9.76c5.11,5.64,10.39,10.92,15.87,16.21,6.57,6.34,13.37,12.81,20.84,18.08,7.81,5.52,14.72,12.21,22.16,18.23,4.72,3.83,9.77,7.24,14.51,11.07a127.8,127.8,0,0,0,14.08,10.4,193,193,0,0,0,18.2,10.09c5.44,2.53,10.66,5.52,16.16,7.93,4.57,2,9.25,3.68,13.85,5.6l.24.09c-1.92-1.25-3.77-2.64-5.59-3.93-11.13-7.92-21-17.67-30.76-27.17-4.45-4.35-9.15-8.42-13.64-12.72-4-3.82-7.61-8-11.4-12A66.33,66.33,0,0,0,975,445c-1.11-.88-2.78-1.49-3.19-2.78,3.77,1.66,7,4.47,10.66,6.42,9.9,5.3,20.12,10.07,30.09,15.27,5.55,2.89,11.37,5.16,17,7.83,7.35,3.48,14,8.14,21.22,11.85,5.44,2.79,10.89,5.47,16.22,8.48,1.74,1,3.45,2.17,5.27,3a18.24,18.24,0,0,0-1.89-1.33c-2.83-1.89-5.2-4.35-7.8-6.53-9.4-7.91-19.89-14.67-29.7-22.08-10.73-8.11-21.58-16-33.2-22.8-3.61-2.11-7.37-3.9-11.06-5.86a11,11,0,0,1-3.1-2c2.77.46,5.68,2.12,8.32,3,5.88,2.07,11.78,4.08,17.62,6.27,21.23,8,41.88,17.49,62.69,26.49,11.63,5,22.9,10.81,34.15,16.62a300.35,300.35,0,0,1,27.92,16c7.75,5.11,15.56,10.15,22.65,16.17,3.27,2.78,6.22,5.9,9.5,8.67-1.9-1.63-3.69-4.76-5.24-6.61m-120-13.62a28.12,28.12,0,0,0,6.68,3.36c-1.56-1.72-4.55-2.51-6.68-3.36M856.2,364.62a9.43,9.43,0,0,0,1.67-.79,9.53,9.53,0,0,0-2.46.33,1.86,1.86,0,0,0-1.53-.24.76.76,0,0,0,.14.65c-3.54,1.31-7,4.09-9.63,6.14a65.65,65.65,0,0,0-9.43,9.45c-1.64,1.92-3,4-4.72,5.9s-2.74,4.07-4.23,6.1-2.14,4.07-3.34,6.22a41.3,41.3,0,0,0-3.25,6.76c-1.5,4.38-2.5,9-4,13.31a78.82,78.82,0,0,0-2.86,12.86c-.4,2.42-1,4.7-1.23,7.14,2-3.77,4.51-7.34,6.63-11.09,1.52-2.69,3.27-5.23,4.93-7.83,1-1.63,2.16-4,3.92-4.93a29.39,29.39,0,0,1-2.31,5.54,13.9,13.9,0,0,0-1.13,2.93c-.63,2.11-1.7,3.95-2.45,6s-.89,4.09-1.57,6.13-1.54,4.29-2.25,6.45c-1.46,4.38-2.09,8.93-3.68,13.23-.77,2.08-1,4.32-1.68,6.44s-1.51,4.21-2.08,6.39c-1.17,4.45-2.45,8.87-3.7,13.3-.76,2.7-1.13,5.5-1.82,8.22-.25,1-.4,3.27-1,4.38a87.93,87.93,0,0,0,8.67-15.27c2.35-5.45,5.62-10.53,8.64-15.63,1.18-2,2.65-3.83,3.75-5.86a43.16,43.16,0,0,1,3-5.59,59.8,59.8,0,0,0,6.42-11.84c1.35-3,3.68-5.67,5.4-8.52,3.9-6.46,7.36-13.45,10.71-20.22,2.91-5.88,7.16-12.1,8.68-18.54a61.44,61.44,0,0,1,2.88-8.56c.69-1.73.39-2.76.62-4.47.15-1.11.61-2,.73-3.15a11.9,11.9,0,0,0-3.39-8.78,22,22,0,0,0-3-2.57"/></g></g><g class="ag"><g class="k"><path class="g" d="M1008.18,353c-.61-.67-1.89-.93-2.68-1.33-1.41-.7-2.7-1.62-4.13-2.26-2.09-.94-4.05-2.19-6.17-3.05-2.41-1-5-1.83-7.47-2.59a107,107,0,0,0-16.32-3.71q-3.17-.43-6.32-.9a5.63,5.63,0,0,0-2.72,0c.18.6,1.15.93,1.73,1.24,1.5.8,3,1.56,4.52,2.36a37,37,0,0,1,9.93,7.66c1,1.11,4.42,4.72,2.61,6.22a3.94,3.94,0,0,1-3,.34c-1.69-.38-3.26-1-5-1.38-3.21-.62-6.13-2.17-9.47-2.16-.61,0-1.63-.31-1.83.42s1.32,2,1.83,2.38c1.29,1.09,2.44,2.32,3.64,3.51a27.45,27.45,0,0,1,3.05,3.1c.9,1.26,1.91,4-.15,4.5-2.92.75-6-1.56-8.74-2.12-2-.4-4-1.07-6-1.38-.88-.14-3.43-.52-4.11.18-1.42,1.47,2.07,4.25,2.89,5.08,1.58,1.58,5.85,6.27,4.32,8.86-1.26,2.13-4.64,2.36-6.81,2.47-4.68.24-9.52-.56-14.15-1.14a92.7,92.7,0,0,1-13.46-2.71c-1.07-.29-6.14-2.35-6.71-.94-.48,1.19,1.71,3,2.36,3.84,1.8,2.25,3.5,4.57,5.29,6.82,2.1,2.64,4.41,5.1,6.48,7.76.78,1,3.2,3,3.16,4.49-.09,3.2-9.06-1.31-10.28-1.77-3.07-1.18-5.94-2.84-9-3.94-1.15-.41-2.35-.66-3.52-1-.86-.25-2.1-1-3-.61.08,1.64,3,3.41,4,4.38.72.72,5.83,4.38,5,5.78-1.21,2.07-12.2-6.31-14.41-6.15.17,1.19,2.23,2.87,3,3.76,1.55,1.82,3.35,3.45,5,5.14a238.08,238.08,0,0,0,20.37,18,143.47,143.47,0,0,0,19,13.11c1.73,1,3.48,1.86,5.27,2.73a5.46,5.46,0,0,0,2.1.91c-1.34-1.27-2.48-2.68-3.92-3.88a37.17,37.17,0,0,1-7.52-9.13c-.77-1.25-8.27-14.07-6.48-14.56.93-.26,3.78,2.85,4.38,3.32a37.18,37.18,0,0,0,10.71,5.75c2.78,1,5.66,1.78,8.34,3,2.14,1,4.17,2.16,6.36,3,2.71,1.07,5.92,2.57,8.88,2.82-.12-.53-2.13-1.92-2.17-2-2.27-1.95-4.51-4-6.71-6a74.49,74.49,0,0,1-5.43-5.43c-.93-1-2.24-2.17-2.66-3.52.4-1,1.63-.31,2.3-.07,1.91.67,3.79,1.34,5.73,1.93,3,.91,5.89,2.07,8.81,3.19,3.7,1.42,7.42,2.41,11.21,3.52,5.51,1.63,11.29,3.11,16.32,5.92-2-1-3.92-3.45-5.5-4.89-4-3.62-8.05-7.1-12-10.71a71,71,0,0,1-8.43-8.89c-.67-.88-3.91-4.69-3.3-6.17.82-2,3.91-.8,5.29-.59,2.88.45,5.8,1.11,8.7,1.4,1.09.11,4.17.7,4.93-.42-.36-1.31-1.78-2-2.75-2.85a21,21,0,0,1-3.49-3.67c-.85-1.31-1-3.21.85-3.39s4.26.62,6,1c4,.91,8,1.91,12,2.67,5,.94,11,2.61,16.13,1.7-.1-.71-1.71-1.57-2.08-1.85-2.57-1.89-5.13-3.8-7.75-5.62-4.26-3-8.69-5.76-12.72-9.06a35.49,35.49,0,0,1-6.37-6c.58-.89,2.79-.21,3.62-.06,4.52.8,9,2.64,13.4,4a57,57,0,0,0,9.92,2.27c1.13.15,2.66.58,3.76.13-.74-1.19-.28-1.36,1.18-1.25a18.55,18.55,0,0,1,5.81,1.59c1.92.81,3.91,2.3,6,2.54-2.44-3.93-6.81-7-10.36-9.82-3.39-2.67-7-5.08-10.52-7.51-3.09-2.11-6.1-4.37-9.3-6.3a140.32,140.32,0,0,0-14.34-7.9c-3.07-1.39-6.25-1.61-9.34-2.71"/></g></g><g class="ah"><g class="f"><path class="g" d="M871.69,594.85c-2.71.2-4.43,5-3.89,6.89,10.38-8.5,6.35,9.33,12.42,10.18,7.67,1.07,4.84-15.8,5.12-18.65.86-8.83,6.41-17.7,9-26.24,3-9.6,6.09-20,7-30-.27,6.21-3.91,11.8-5.94,17.61-2.1,6-4,11.56-7.24,17.19-3.07,5.42-6,10.79-9.61,15.94-2.06,2.95-7.46,5.57-7.76,9.08a2,2,0,0,1,.86-2c-2.5.18-.53.31,0,0"/></g></g><path class="t" d="M776.84,558.39c-13.56-11.41-38-1.28-50.09,8.07C713.07,577,701.4,597,707.21,614.69c8.3,25.32,47.23,26.38,64.84,11.2,6.66-5.74,10.67-14.66,14-22.59,3.59-8.58,7.81-21,1.63-29.43-.8-1.09-3-.5-2.41,1,5.37,14.1-3.18,33.45-12,44.74-6.93,8.85-19.06,12.5-29.9,12.66s-22.91-3.12-29.61-12.13C704,607,711.06,588,720.41,576.73a56.78,56.78,0,0,1,24.71-17.1c9.54-3.4,22-6.14,31.17-.54.43.26,1-.37.55-.71"/><path class="u" d="M786.48,579.48c2.32,13.47-5.32,30-13.23,40.13-6.92,8.85-19.06,12.5-29.9,12.66-.79,0-1.59,0-2.39,0a45.16,45.16,0,0,0,6.33.53,57.14,57.14,0,0,0,12.06-1.63,55.44,55.44,0,0,0,12.2-7.17,67.73,67.73,0,0,0,8.67-12.77,80,80,0,0,0,7.56-19.93c.07-.67.18-1.33.22-2,.21-3.32-.71-6.56-1.52-9.76m-28.17-25.12.07,0a32.92,32.92,0,0,1,3.37-.11,23.38,23.38,0,0,1,9.11.75c-13.91-5.28-33.64,3.32-44.12,11.42C713.07,577,701.4,597,707.21,614.69a27.31,27.31,0,0,0,4.38,8.28,23.48,23.48,0,0,1-3.53-9c-2.08-6.75-1.18-14.48,1.15-21,3.78-10.58,11.24-18.77,19.9-25.66,7.25-5.76,19.43-13.88,29.2-13"/><path class="ai" d="M865.91,639.6c-1.29-.28-1-.83-9-2.49-13.41-2.76-13.5-4.34-18.94-8.12-10.39-7.21-14.68-16.28-14.05-11.1.37,3.09,1.44,1.14,2.86,4.19,2.19,4.7,6.45,16.61,8.5,21.36,6.82,15.8,17.24,30.76,36.15,30.82a30.45,30.45,0,0,0,21.2-8.22,34,34,0,0,1,9-6.55c2.85-1.45,7.95-4.62,12.07-5.71-8.72,1.21-17.93-6.52-26.6-7.4-3.88-.4-7.62,1.07-11.51.78-3.35-.25-4.14-5.85-9.63-7.57"/><path class="aa" d="M903.41,656.11a73.71,73.71,0,0,1-8.28-.16c-5.22.65-10.84,1.48-16,1.14-.93.1-1.85.21-2.78.23-5.36.13-9.62-2-13.85-5.15-12.68-9.43-28.13-16-35.36-30.85q-1.34-1.29-2.7-2.56l-.43-.31c.44,2.21,1.44.8,2.75,3.63,2.19,4.7,6.45,16.61,8.5,21.36,6.82,15.8,17.24,30.76,36.15,30.82a30.45,30.45,0,0,0,21.2-8.22,34,34,0,0,1,9-6.55c1.27-.65,6.28-3.26,8.16-4.26-.71-.2-6,.93-6.34.87"/><g class="aj"><g class="k"><path class="g" d="M864.13,656c-2-.62-3.59-3.16-5.23-4.41a41.78,41.78,0,0,0-7.22-4.4c-3.49-1.64-7.59-3.09-4.59,1.22,4.58,6.57,16.23,14.24,24.06,15.48,3.9.62,9.1.82,12.95-.38s5-3,.76-4c-4.7-1.07-9.91-.3-14.71-1.4C866.66,657.3,864,655,861,654a18.76,18.76,0,0,1,3.12,2c-1.75-.55-3.71-2.47,0,0"/></g></g><path class="ak" d="M888.52,518.38c-1.76-11.13-7.21-22.38-15.17-29.36-4.36-3.83-10.11-6.33-16.09-8a5.25,5.25,0,0,1-.79,0c-6.94-1-13.42-2-20.43-1.56a38.75,38.75,0,0,1-9.15-.18c1,7.32,8.49,31.07,15.74,41.35,6.24,8.85,13,13.91,22.6,17.49,3.89,1.45,16.66,3.55,20,.86a63.71,63.71,0,0,0,3.48-15.34,31.19,31.19,0,0,0-.21-5.24"/><path class="al" d="M836.06,524.49c6,9.36,13,15,23.24,19.41,4.31,1.85,19.16,5.28,22.43,2.34s5.54-15.25,5.18-19.93c-.86-11.24-5.77-22.92-13.88-30.58-14.16-13.38-45.33-14.62-50-16-1.85,1.13,4.91,32.05,13.06,44.72"/><path class="am" d="M858,517.68c-11.48,0-11.69-17.85-.18-17.85s11.69,17.85.18,17.85m12.67-12.84c-2.69-2.2-8-8-20-10.23-3.7-2.89-12.75,7.48-12.39,14.67.69,13.68,18.31,24.5,29.22,16.81,10-7,11.72-14.21,3.12-21.25"/><path class="g" d="M884.49,527.8c-.58-7.58-6.94-16.87-13.86-23C873,512.85,868.81,523,858,523c-16.83,0-18.07-24.65-3.17-27.48-7.7-3.86-10-4.56-24.53-8.47-.75,8.26,2.2,27.22,9.53,38.61,5.42,8.42,11.64,13.48,20.89,17.45,3.88,1.67,17.22,4.74,20.17,2.1s3.9-13.19,3.58-17.39"/><path class="g" d="M847.32,504a3.75,3.75,0,1,0,3.75-3.75,3.75,3.75,0,0,0-3.75,3.75"/><path class="an" d="M828.88,447.41c1.2-5.84,39.38,4.62,43.14,6.71,10.22,5.7,36.89,23.68,38.51,36.24.62,4.78-16.74-10.19-17.39-10.88-8-8.47-13.93-16.23-24.63-21.44-2.74-1.33-41.41-10.77-41.57-11.88,0,0,5.75,2.09,1.95,1.24,0-.19,2.67.6,0,0"/><g class="ao"><g class="ap"><path class="aq" d="M1007.74,530.64c-17.25-7.22-28.77-17.07-47.64-13.35-10.94,2.15-15,7.6-21.35,17.31-5.13,7.84-8.22,19.74-8.41,27.48,3.55,1.86,10.39,2.52,14,2.79,11,.83,23.62-.85,33.4-6.49,13.05-7.52,23.07-15.4,29.72-27.27h0c-1.19,1.86-.48.74,0,0-.14,0-.15-.38.31-.48"/></g></g><path class="al" d="M1010.78,533.14c-4.9,12.09-14.45,20.27-27.49,28.23-9.63,5.89-23.21,8.05-35.44,7.71-5.13-.14-16.24-.67-18.6-3.82-2.05-2.74,4.4-18.53,6.47-22.58,5-9.74,11.48-15.59,22.63-19.08,19.5-6.09,32,3.25,52.43,9.54-.79.19-.09,1,0,0,.06-.14-1.74,3.45,0,0"/><path class="am" d="M968.86,547.6c-7.87,8.35-21-3.74-13.11-12.11s21,3.74,13.11,12.11m2.86-17.44c-3.47-.12-13.28-1-23.09,6.12-4.64.71-4.87,15.2.61,19.87,10.43,8.88,30.38,3.48,32.28-9.73,1.73-12.06.75-15.88-9.81-16.26"/><path class="g" d="M1001.26,536.6c-.13,0-.23-.26.19-.36-12.59-3.88-20.46-6.51-30.8-6a12.82,12.82,0,0,1,1.19,1,14.12,14.12,0,0,1,4.25,9.79,23.69,23.69,0,0,1-.45,3.92c-.91,4.67-5.08,8.53-9.52,9.81a13.85,13.85,0,0,1-13.27-3.27,17.93,17.93,0,0,1-4-6.53l-.53-3.65a11.81,11.81,0,0,1,1.18-5.62c-5.69,3.23-10.58,7.86-13.17,12.92-1.69,3.3-7.79,12.53-5.93,15.75s15.5,2.54,19.69,2.65a56,56,0,0,0,29-7.68c10.5-6.41,18.21-13,22.25-22.67h0c-.77,1.52-.31.6,0,0"/><path class="g" d="M950.44,538.41a3.81,3.81,0,1,0,3.81-3.81,3.81,3.81,0,0,0-3.81,3.81"/><path class="ar" d="M1026.38,498c-5.75.13-14.28-6.71-20.19-8.11-7.06-1.67-13.9-1.47-21.08-1.18-7,.28-41.38.73-43.08,9.24-1.27,6.35,11.71,1.42,16.33.79,10-1.36,20.11-3.24,30.21-3.33,11.17-.09,30.42,2.84,37.57,2.31q-3,.47.25.27c-2.2,0-1,0,0,0"/><path class="as" d="M709,638.64c-3.45,21.13-7.48,42.06-7.64,63.51-.15,20.43-5.19,107.92-11.91,129.35-5.83,18.61-13.39,37.06-17.82,56.08-7.73,33.12,4.83,73.28,31.21,95.77,7.12,6.07,20,8.89,25.63,16.21,5.23,6.86,6.27,22.56,9.31,31,10.61,29.52,31.79,51.34,51.62,75,11.91,14.23,23.77,28.43,36.79,41.52,15,15.06,37.17,31.63,37.43,53.35.24,20.87,2,41.75,3.18,62.59q34.33-12.26,68.62-24.64c28.78-10.39,62.29-18.19,89.17-32.89,15.59-8.53,20.4-37.34,26.57-53.27,9.64-24.88,16.7-54.32,29.87-77.56-2.35,4.14-17.68-18.83-19.26-23-6.17-16.34-11.45-33.24-16.71-49.9-3.89-12.3-7.38-24.74-11.08-37.1-3.8-12.69-9.2-20.78-3.65-32.44,7.62-16,13.9-25.16,15.51-43.35,2-22.84-7.31-42.14-16.87-62.36-6.36-13.47-11.87-20.36-21.84-31.27-8.92-9.76-11.56-22.57-15.43-35.27-7.89-25.89-6.92-55.69-9.45-82.62-9.48,1.1-21,2.29-21,2.29s-4,37.15-2.64,49.27c1.11,9.78,11.36,51.38,4.72,57.54-5.64,5.23-37.64,15.33-45.93,17.33-18.42,4.46-51.48,18.39-70.09,22-15.77,3.07-83.33,4.59-101.4,4.21-3.54-.08-21.33-2.25-23.2-4.65-2-2.6,0-16.32,0-19.24,0-23.08-.18-46.16,0-69.23.13-17.18,1.26-34.35,2-51.51.43-9.66,3.47-30.37,3.73-41.07-5.76-2.3-10.75-3-19.52-5.66"/><g class="at"><g class="k"><path class="al" d="M1061.73,1051.67c-6.17-16.35-11.45-33.24-16.71-49.9-3.89-12.3-7.38-24.74-11.08-37.1-3.8-12.69-9.2-20.77-3.65-32.44,7.62-16,13.9-25.16,15.51-43.35,2-22.84-7.31-42.14-16.87-62.36-6.36-13.47-11.87-20.36-21.84-31.27-8.92-9.76-11.56-22.57-15.43-35.27-7.89-25.89-6.92-55.7-9.45-82.62-9.48,1.1-21,2.29-21,2.29s-2.4,22.15-2.86,37.83a10.63,10.63,0,0,1,4.77,7c4.08,17.93,5.08,35.8,14.19,52.19,6.95,12.51,16.71,23,25,34.62,16.25,22.64,22.93,50.26,13.83,77.25-16.37,48.58-69.92,61.62-115.65,58-18-1.43-36.07-3.81-53.69,1.32-12.37,3.6-24.15,8.91-36.28,13.19-25,8.84-50.83,9.72-76.85,5.05-27.74-5-51-19-62.72-40.32,4,22.08,15.13,43.35,31.8,57.57,7.11,6.07,20,8.89,25.63,16.21,5.23,6.86,6.27,22.56,9.31,31a142.65,142.65,0,0,0,18.19,34c-2.34-15.08-.84-30.32,8-43.6,10.64-16.07,28.06-25.87,45.65-32.62,35.3-13.56,80.9-18.13,117.64-7.65,50.69,14.46,70.25,66.88,82.08,112.92,5.74,22.33,10.85,45,12.91,68,1,11.31,1.66,25.09-1.76,37a47.55,47.55,0,0,1,2.24,7.88c.63-.33,1.29-.62,1.91-1,15.59-8.53,20.4-37.34,26.57-53.27,9.64-24.88,16.7-54.32,29.87-77.56-2.35,4.14-17.67-18.83-19.26-23M722.13,823.87c-1-4.42.59-15.21.59-17.76,0-23.08-.18-46.16,0-69.23.13-17.18,1.26-34.35,2-51.52.43-9.66,3.47-30.37,3.73-41.07a84.42,84.42,0,0,0-10.67-3.24c-1.22,20.64-2.45,41.27-4,61.89-1.89,25.36-2.4,50.94-3.69,76.44q.45,22.41,1,44.82c3.68-.25,7.36-.34,11-.33"/></g></g><path class="au" d="M1018,1126.48c-22.15,24-49.79,43.12-79,57.43-19.87,9.72-60.21,14.89-75.4,17.91-19,14.81-34.52,43.06-54.92,60.2-48.21,40.51-94.33,58.76-153.54,74.67-90.47,24.3-144.76,67.4-217.9,119.73,13.65-14.73,121.81-5.27,136-4.27,43.61,3.09,84,20,122.42,40.8,83,44.92,155.44,116.71,255.76,120.73,100.65,4,178.35-92.49,268.94-126.18,52.93-19.69,107.62-23.76,163.48-26.15,38.75-1.66,98.37,3.36,131.66-20.48-39.58,7.41-94-52.16-118-76.42-40.72-41-67-89.59-102-134.86-34.61-44.78-72.83-78.77-120.82-108.39-34.27-21.16-104.4-56.11-104.4-56.11s-44,52.52-52.16,61.39"/><g class="av"><g class="k"><path class="al" d="M1397.43,1364.44c-40.72-41-67-89.59-102-134.86-34.61-44.78-72.84-78.77-120.82-108.39-34.27-21.15-104.4-56.1-104.4-56.1s-44,52.52-52.15,61.39c-22.16,24-49.79,43.12-79,57.43-19.87,9.72-60.21,14.89-75.4,17.91-9.26,7.21-17.69,17.61-26.25,28.36,11.3-5.1,21.82-6.49,34.31-4.79,28.82,3.93,52.06,23.54,69.55,45.65,19.65,24.85,33.72,53.76,45.61,83,13.83,34,25,71.32,30.17,108.21,9.43-56.87,7.82-115.17,19.86-171.7,6.93-32.55,19.27-77,56.91-85.44,29-6.54,58.79,10.75,81.23,27.19a326.74,326.74,0,0,1,75.48,78.27c24,34.71,48.46,74.47,54.5,117,.27,1.86-2,3.24-3.58,2.81-53.06-14.31-100.67,9.45-142.49,40.57-9.27,6.9-18.33,14.34-27.37,21.91-22.88,35.09-59.08,59-97,75.63-49.19,21.58-102.24,32.2-155.16,30.46,22.64,8.3,46.45,13.77,72.08,14.8,100.65,4,178.35-92.49,268.93-126.18,52.93-19.69,107.62-23.76,163.48-26.15,38.75-1.66,98.37,3.36,131.66-20.48-39.58,7.41-94-52.16-118-76.42"/></g></g><path class="aw" d="M1084.67,1125.32c-3.2,3.15-6.46,6.2-9.85,9,10.45,73.48,9.17,149,18.87,222.75,5.74,43.61,12.17,87.07,18.53,130.54a438.68,438.68,0,0,1,38.62-28.46c-28.58-107.68-49.65-218.66-65.17-330.5-.34-1.09-.66-2.2-1-3.29m-12.15,115.46c-2-33.05-4.2-66-8.65-98.62-1.4.88-2.8,1.77-4.24,2.57q-.62,8.65-1.48,17.29c1.82,27.2,1.16,54.88-.59,82.64-3.89,61.85-7.58,123.16-7.68,185.29-.06,39.63,1.25,79,3.64,118.36a288.76,288.76,0,0,1,21.91-26.27c5.29-5.63,10.75-11,16.29-16.19-7.56-86.44-20.36-263.83-19.2-265.07m-54.13-84.36c11.61,86.91-.74,178.49-15.48,263.48-6.56,37.82-13.25,76.39-21.91,113.83,9.11-14,24.24-30.87,31.51-49.29q5.59-32.86,9.07-66.35c9.05-85.45,17.33-180.52,4.82-268-2.69,2.17-5.37,4.26-8,6.32m-5.88,2.43c-2.84,1.84-5.65,3.62-8.43,5.35,5.25,87.9-13.7,177.64-34.55,260.54-10,40-20.29,80.79-32.93,119.82,2.2.7,4.38,1.44,6.57,2.19a138,138,0,0,0,19.91-15.39,965.84,965.84,0,0,0,25.17-106.23c15.22-84,30.37-177.72,24.27-266.28m-14.36,5.41c-2.87,1.35-5.72,2.65-8.53,3.91-3,85.25-29.15,168.71-56.55,245.33-13.2,36.92-26.67,74.67-42.27,110.32,6.25,3.06,12.44,6.31,18.6,9.67,16.5-37.06,30.1-76.42,41.49-116.86C973,1338.1,996,1250.27,998.15,1164.26M942.1,1301.64a458.84,458.84,0,0,0,24.74-94.27c1.64-10.48,3.17-21,4.77-31.44q-6.07,2.48-12.18,4.79c-5.82,25.9-16.18,51.22-25.15,73.26a508.45,508.45,0,0,1-36.71,73,10.83,10.83,0,0,1-1.16,3.23c-31.3,56.53-69.73,105.54-106.25,156.53a583.89,583.89,0,0,1,60.14,19.45c5.81-12.59,11.65-25.11,17.44-37.59,17-36.59,34.49-72.84,50.79-109.93.64-2.5,18-42.4,23.56-57m-27-43.68c9.07-21.17,20-45.71,26.79-71q-11.34,3.86-22.75,7.33a252.58,252.58,0,0,1-28.75,63.14c-32.43,51.17-77.06,87.7-122.31,119.92-29,31.9-62.29,56.68-94.22,83.79l.83.13q38.39,6.24,76.37,15.95c30.3-33.37,61.65-65.41,89.87-100.14,29-35.67,54.83-74,74.18-119.14m-141.61,86.2a6.62,6.62,0,0,1,5.19-2.94c8.64-6.57,17.18-13.34,25.57-20.44,36.52-30.9,72.71-69.84,92.08-119.84-10.4,2.87-20.86,5.5-31.37,7.67-8.94,12.12-18.21,23.31-26.56,33.35-27.92,33.57-57.87,63.52-92.28,85.68-44,28.31-91.28,46.32-137.46,67.68-31,14.35-60.94,18.57-88.71,40.29,35-.81,77.55,7.54,112.38,11.9,7.36-6.59,7.46-6.43,15.14-12.5,40.27-31.8,83.09-58,124-88.38.66-.84,1.36-1.63,2-2.49m379.41-186c-.87-1.73-1.74-3.49-2.62-5.26l-2.09-3.39q-9.83-13.5-20-26.59c-3.73-4.78-7.54-9.4-11.38-14,10.36,33.9,72.23,188.58,83.16,220.75,11.72,28.21,23.46,56.41,34.83,84.81q14.32-6.1,28.76-11.43c-20.27-46-38.07-94.05-58.37-140-16-36.17-34.74-70-52.28-105m145.13,159c-22.12-33.69-45.08-66.39-69.16-97.79-4.46-5.56-8.94-11.09-13.5-16.52-12.25-13-24.72-25.67-37.33-38.15q15.48,24.88,30.12,50.6,8.36,13.11,16.67,26.31c28.81,45.69,60.81,93.47,82.26,146.85,9.09-2.77,18.24-5.39,27.45-7.71q-17.25-32.53-36.52-63.58m-202.4-203.64c.52,3.86,1.07,7.72,1.61,11.59,10.81,35.31,18.58,71.91,26.07,108.63,9.42,46.2,20.51,90.61,33.5,135.38,7.08,24.4,13.8,49.06,20.85,73.54,11-6.26,22.18-12,33.47-17.43-52.05-95.15-70.45-213.54-111.31-316.87-1.39,1.73-2.75,3.48-4.18,5.16"/><g class="ax"><g class="k"><path class="g" d="M682.22,900.73c2.95,18.63,6.79,23.26,19.8,35,4.12-3,.83-17.33,2.05-22a47,47,0,0,1,9.6-17.68C723.85,884.06,742,875.59,756.85,871c30.34-9.42,63.25,4.7,92.41-5.39,28.14-9.74,52.51-22.1,82.57-27,19.26-3.12,36.13,4.19,54.5,3.13,15.89-.92,6.66-10.74-1.66-20.92-24.43-29.87-55.9-4-83.69,1.93-32.64,6.94-65.69,9.91-98.57,14.92-26.74,4.08-67.82-5.16-91.55,8.2-17.73,10-28.22,30.09-28.65,54.86"/></g></g></g><rect class="a" x="609.73" y="1118.83" width="724.87" height="427.92"/></svg>