<svg xmlns="http://www.w3.org/2000/svg" xmlns:xlink="http://www.w3.org/1999/xlink" viewBox="0 0 1616.16 3112.31"><defs><style>.a{fill:none;}.b{fill:#fad7e6;}.c{clip-path:url(#a);}.d{fill:#452400;}.e{fill:#3b3b3b;}.f{fill:#592f00;}.g{clip-path:url(#b);}.h{opacity:0.2;}.i{fill:#170900;}.j{fill:#fccfa6;}.k{fill:#d69f70;}.l{fill:#eebc8c;}.m{clip-path:url(#c);}.n{opacity:0.3;}.o{fill:#fff;}.p{clip-path:url(#d);}.q{fill:#cc8d56;}.r{fill:#ebda28;}.s{clip-path:url(#e);}.t{clip-path:url(#f);}.u{clip-path:url(#g);}.v{fill:#e6ab78;}.w{fill:#eeb885;}.x{fill:#c70074;}.y{clip-path:url(#h);}.z{fill:#990058;}.aa{clip-path:url(#i);}.ab{opacity:0.1;}.ac{fill:#b90066;}.ad{clip-path:url(#j);}.ae{clip-path:url(#k);}.af{fill:#1f1f1f;}.ag{fill:#733c00;}.ah{clip-path:url(#l);}.ai{clip-path:url(#m);}.aj{clip-path:url(#n);}.ak{clip-path:url(#o);}.al{clip-path:url(#p);}.am{clip-path:url(#q);}.an{fill:#14b0db;}.ao{clip-path:url(#r);}.ap{clip-path:url(#s);}.aq{clip-path:url(#t);}.ar{clip-path:url(#u);}.as{fill:#7a1834;}.at{fill:#bd661a;}.au{clip-path:url(#v);}.av{fill:#6e9dcf;}.aw{fill:#4c7cb0;}.ax{fill:#693304;}.ay{fill:#8c959d;}.az{fill:#d4d8d3;}</style><clipPath id="a"><rect class="a" width="1616.16" height="3112.31"/></clipPath><clipPath id="b"><rect class="a" x="460.68" y="376.71" width="276.33" height="337.81"/></clipPath><clipPath id="c"><rect class="a" x="635.7" y="707.04" width="497.43" height="158.19"/></clipPath><clipPath id="d"><rect class="a" x="641.32" y="1286.08" width="202.23" height="80.43"/></clipPath><clipPath id="e"><rect class="a" x="583.42" y="788.35" width="709.9" height="488.47"/></clipPath><clipPath id="f"><rect class="a" x="582.47" y="812.43" width="599.85" height="392.45"/></clipPath><clipPath id="g"><rect class="a" x="600.21" y="684.76" width="167.75" height="421.55"/></clipPath><clipPath id="h"><rect class="a" x="693.39" y="590.45" width="18.61" height="22.43"/></clipPath><clipPath id="i"><rect class="a" x="670.95" y="380.6" width="66.37" height="86.95"/></clipPath><clipPath id="j"><rect class="a" x="647.19" y="434.48" width="142.42" height="229.64"/></clipPath><clipPath id="k"><rect class="a" x="686.55" y="416.03" width="45.75" height="49.64"/></clipPath><clipPath id="l"><rect class="a" x="555.27" y="256.52" width="438.89" height="181.77"/></clipPath><clipPath id="m"><rect class="a" x="936.65" y="279.12" width="256.06" height="412.48"/></clipPath><clipPath id="n"><rect class="a" x="406.33" y="216.73" width="786.38" height="474.87"/></clipPath><clipPath id="o"><rect class="a" x="696.61" y="213.85" width="199.52" height="312.17"/></clipPath><clipPath id="p"><rect class="a" x="778.03" y="196.41" width="205.81" height="331.47"/></clipPath><clipPath id="q"><rect class="a" x="832.63" y="509.55" width="226.69" height="659.44"/></clipPath><clipPath id="r"><rect class="a" x="870.23" y="729.88" width="84.04" height="76.67"/></clipPath><clipPath id="s"><rect class="a" x="879.23" y="756.97" width="83.25" height="91.25"/></clipPath><clipPath id="t"><rect class="a" x="356.55" y="1580.19" width="418.8" height="985.53"/></clipPath><clipPath id="u"><rect class="a" x="776.67" y="1596.68" width="367.65" height="1023.95"/></clipPath><clipPath id="v"><rect class="a" x="266.64" y="2618.81" width="204.74" height="317.47"/></clipPath></defs><title>Монтажная область 1</title><path class="b" d="M1394.5,2626H214.21a21.7,21.7,0,0,1-21.63-21.63v-2288a21.7,21.7,0,0,1,21.63-21.63H1394.5a21.7,21.7,0,0,1,21.63,21.63v2288A21.7,21.7,0,0,1,1394.5,2626"/><g class="c"><path class="d" d="M615.14,457c4.09-5,9.58-11,9.23-17.84a.42.42,0,0,0-.84,0c.12,9.39-11.43,19.51-17.67,25.63a173.15,173.15,0,0,1-22,18.14c-16.34,11.42-33.66,18.94-52.64,24.8-16.16,5-33.28,9.23-48.36,17-15.68,8.09-8.68,6.5,9.94-1.29,18.08-7.55,37.44-11.91,55.76-18.83,17.82-6.73,34.14-17.21,48.61-29.52a140.23,140.23,0,0,0,18-18.15M463.4,520.88c18.36-11.62,38.67-18.65,59.21-25.31,18.87-6.12,37.89-12.3,55.11-22.35,16.28-9.51,30.88-22.59,42.84-37.12.22-.27-.16-.62-.4-.36-14,15.23-30.17,29-48.64,38.55-19.58,10.09-40.92,15.69-61.76,22.49-18.84,6.15-37.8,13.63-54,25.29-15,10.76-9.6,9.72,7.63-1.18m243,28.45c-2.87,2.65-5.66,5.35-8.43,8.08-27.91,20-50.79,45.81-70.42,74A322.64,322.64,0,0,0,599,680.54c-3.47,7.52-6.74,15.16-9.51,23s-6,16.44-5.47,25a.14.14,0,0,0,.28,0c-.19-9.45,4.12-19.43,7.58-28.06q4.8-12,10.58-23.59a340.72,340.72,0,0,1,28.14-46.35c16.23-22.67,34.69-43.43,55.91-61.27-18.2,19.47-34.39,40.59-49.57,62.69-10.36,15.07-20.61,30.32-29.2,46.49a160.55,160.55,0,0,0-9.87,22.12c-2.11,6-5.25,13.64-3.43,20.05.14.49.84.24.74-.24-1.8-8.4,4.39-20,7.77-27.36a230.72,230.72,0,0,1,11.34-21.32c9.09-15.37,19.36-30.1,29.71-44.65A561.81,561.81,0,0,1,704,555.56c.44-.31.86-.65,1.3-1a.89.89,0,0,0,.39-.73c.9-.89,1.78-1.81,2.69-2.69,1.27-1.24-.74-3-2-1.84m316.1-8.21c0-6.93-.49-13.87-1.14-20.76-.5-5.28-1.07-10.56-1.62-15.84-.47-4.5-2.62-11.91-.56-16.16a.34.34,0,0,0-.61-.32c-3.53,5.77-.41,16.76.12,23.14.34,4.14.67,8.29,1,12.43a.34.34,0,0,0-.32.12c-.07-.34-.14-.67-.21-1-1-4.68-2-9.4-3.36-14-.46-1.59-1.06-3.14-1.49-4.74s-1.62-4.31-1.74-5.42a.41.41,0,0,0,.81,0l0-.67c0-.47-.81-.57-.85-.08-.48,5.09,1.75,10.23,2.83,15.13,1.73,7.82,3.26,15.7,4.45,23.63a87.63,87.63,0,0,1,.12,11.49,224.19,224.19,0,0,1-3.37,25.69c-.15.81-.33,1.61-.5,2.42a140.82,140.82,0,0,1-7.58,23c-7.67,17.74-20.12,31.93-33.29,45.8-14,14.69-39.81,48-38.79,46.82q20.56-23.17,41.89-45.63c9.73-10.29,19-20.82,26.13-32.84-.86,2-1.75,4-2.68,5.93-14.14,29.82-55.84,82.35-54.87,81.22,21.87-25.76,44.1-51,58.2-82.11a181.06,181.06,0,0,0,11.22-32.83,156.86,156.86,0,0,0,5.59-29.23,164.25,164.25,0,0,1-2.52,40.83c-7,35.73-50,96.26-49,95,22.26-26.87,43.55-56.09,51-90.87,3.67-17.16,4-34.93,2.18-52.34-.28-2.6-.62-5.19-1-7.78m75.35,24.65c-2.9-18.21-8.56-35.62-15.29-52.74-7.53-19.14-16.24-39.12-17.25-59.95a.34.34,0,0,0-.69,0c.49,17.95,6.91,35.5,13.21,52.1,6.66,17.57,13.09,35.07,16.63,53.58,3.61,18.87,4.78,38.77.73,57.66-3.88,18.09-19.27,53.27-18.64,52.12,8.42-15.3,16.31-31.07,20.37-48.16,4.25-17.88,3.81-36.58.94-54.64"/><path class="e" d="M712.38,596.91c-26.28,28.75-55.06,71.43-36.31,111.55,8.4,18,23.41,31.44,38.44,43.84,19.61,16.18,39.65,31.83,59.36,47.89,2.73,2.23,6.45-1.82,3.71-4.06-15.48-12.61-31.23-24.88-46.7-37.51s-32-24.93-43.49-41.54c-27.85-40.36.83-85.59,29.06-116.47,2.39-2.61-1.67-6.32-4.06-3.71"/><path class="f" d="M632.81,376.7c-7.16,7.13-75.88,99.79-111.06,129-49,40.75-61.07,109.06-61.07,109.06s41.31-59.6,62.7-73.16,53.06-43.21,68.26-41.49c0,0-41.65,21.67-62.11,55.87s-42.48,94.46-42.48,94.46,33.89-41.19,40.5-47.17,50.57-37.44,50.57-37.44S561,582.34,552.44,621.24s-7.14,70.06-7.14,70.06,4.16-59.93,22.06-89.81,48.48-53.13,48.48-53.13S578,593.95,575.15,621.58s-8.21,91.87-8.21,91.87L570.49,731s12.34-61.39,33.24-85.82A523.59,523.59,0,0,1,655,593.53c20.31-17.3,42.51-33,42.51-33L737,460.3Z"/><g class="g"><g class="h"><path class="i" d="M632.81,376.7c-2.14,2.13-9.82,11.95-20.43,25.4-.8,11.13-6.19,22.3-12.62,32.3A156.67,156.67,0,0,1,581,461.9c-16.11,19.23-35.56,34.92-54.4,51.31-1.21,1.06-2.34,2.15-3.52,3.22q-3.53,3.28-7,6.61a204.64,204.64,0,0,0-42.65,60.87c-3.61,7.77-7.43,15.65-11.1,23.65-1.12,4.55-1.59,7.22-1.59,7.22s41.31-59.6,62.7-73.16c19.26-12.21,46.85-37.46,63.26-41.11,7.85-3.9,24.92-8.75,24.94-8.76a1.92,1.92,0,0,1,1.37-.29c.09,0-26.37,27.4-38,37.19-14.37,12.11-27.89,27.14-39.08,42.22A317.09,317.09,0,0,0,505,622.12c-2.66,5.53-5.68,11.26-8.66,17.11,10.54-12.65,26.82-32,31.19-35.94,6.61-6,50.57-37.44,50.57-37.44s-.24.23-.62.64a2.17,2.17,0,0,1,2.88,2.43c-.47,2.33-3.79,4.6-5.22,6.26a90.61,90.61,0,0,0-10.43,15.16,142.07,142.07,0,0,0-12.17,30.4c0,.17-.08.32-.12.49-8.55,38.9-7.14,70.06-7.14,70.06s4.16-59.93,22.06-89.81c13.14-21.94,33.11-40.29,42.8-48.5,9.59-9.31,11.91-7.33,10.17-1.8-6.3,20-22.85,34.93-31.37,54.1q-2.37,5.34-4.51,10.78c-5.09,32.74-9.77,65.07-10.09,98.47,5.17-20,15.34-53,29.36-69.38A523.58,523.58,0,0,1,655,593.53c20.31-17.3,42.51-33,42.51-33L737,460.31Z"/></g></g><path class="j" d="M790.11,599.83c2,4.11,22.23,45.38,25.48,56.23s15.78,28.17,8.6,39.73-29.4,7-29.4,7-77,.69-94.19,5.63-29.88,8.38-39.51,18.39S640.22,752,637.47,772.35,636,860.79,636,860.79l199.33,23.29L1184,833.8l39.68-34.88s5.61-38,1.06-57.42-10-39.4-30.09-56.81-70.72-2.5-70.72-2.5-80.49,24.7-97.85,26.08-43.74,6-49.5.41-21.06-59.88-21.06-59.88L939.32,533.68s1.66-43.88-3.15-49.18-120.82,19.36-120.82,19.36Z"/><path class="k" d="M1224.76,741.5c-4.55-19.44-10-39.4-30.09-56.81s-70.72-2.5-70.72-2.5-80.49,24.7-97.85,26.08-43.74,6-49.5.41-21.06-59.88-21.06-59.88L939.32,533.68s1.66-43.88-3.15-49.18-120.82,19.36-120.82,19.36l-25.24,96c2,4.11,22.23,45.38,25.48,56.23s15.78,28.17,8.6,39.73-29.4,7-29.4,7-77,.69-94.19,5.63c-9.25,2.66-17.19,4.89-24.05,7.93,29.17.81,61.1,24.74,74,47.88,20.37,36.65-.49,72.26-13.25,108.34l48.44,5.66c8.37-30.67,20.1-60.49,24-92.2.52-4.19,4.52-5.08,7.53-3.65,14.87-1.16,26.79,2.3,40.59,8.3,9.71,4.22,17.46,4,27.33.66,5.64-1.91,11-4,17.05-3.59a6.07,6.07,0,0,1,5.59,6.39c9.33,10.31,13.72,25.82,19.1,38s10.48,24.15,14.62,36.55L1028,856.3c-12.73-27.74-35.5-50.23-47.17-78.76-1.24-3,.91-5.8,3.48-7,33.94-16,68.29-32,104.45-42.33,22.74-6.5,49.11-12.63,70.66.63,23,14.17,32.78,44.26,35.8,69.67a179.85,179.85,0,0,1,1.17,24.43l27.31-24s5.61-38,1.06-57.42"/><path class="l" d="M760,875.29l.11-.13c10.19-10.43,12.18-32.69,15.4-46.47,4.44-19,5.31-39.17,11.7-57.66a64.16,64.16,0,0,1,5.43-11.57,13.83,13.83,0,0,1,1-8.79c7-16,14.64-31.56,19.39-47.88-8.63,2-18.26,0-18.26,0s-77,.69-94.19,5.63c-9.25,2.66-17.19,4.89-24.05,7.93,29.18.81,61.1,24.74,74,47.88,20.37,36.65-.49,72.26-13.25,108.34Z"/><path class="l" d="M1224.76,741.5c-4.55-19.44-10-39.4-30.09-56.81s-70.72-2.5-70.72-2.5-80.49,24.7-97.85,26.08-43.74,6-49.5.41-20.59-58.24-21-59.81c-1.35,16.13-3.08,32.25-3.1,48.45,0,12.67.35,25.42,1.07,38.17a177.42,177.42,0,0,0,19.52,35.29q4.06,3.67,8,7.42c-.09-.22-.19-.43-.28-.64-1.24-3,.91-5.8,3.48-7,33.94-16,68.29-32,104.45-42.33,22.74-6.5,49.11-12.63,70.66.63,23,14.17,32.78,44.26,35.8,69.67a179.85,179.85,0,0,1,1.17,24.43l27.31-24s5.61-38,1.06-57.42"/><g class="m"><g class="n"><path class="o" d="M1125.22,733.57c-21.41,20.88-37.72,46.47-49.18,74.12-6,14.46-11,29.26-16.17,44l59.22-8.54c1.89-37.58,5.54-75,14-111.63q-4,.93-7.9,2m-464.14-6.71c-9.63,10-20.86,25.19-23.61,45.49S636,860.79,636,860.79l38,4.44c-4.18-27.36-8.67-54.68-5.59-82.43,2.61-23.47,15-63.16,39.55-75.75a58.4,58.4,0,0,0-7.31,1.42c-17.2,4.94-29.88,8.38-39.51,18.39"/></g></g><path class="j" d="M687.85,1195.53c.82,15.62-17.09,35.36-26.15,46.61a326.58,326.58,0,0,1-42.91,44.19c-12.89,10.94-27.34,19.37-40.9,29.36-14.78,10.9-33.37,24.26-41.19,41.28-6.45,14-11.7,28.27,4.84,36.52,18.51,9.23,41.62,14,61.48,19.77,40.5,11.75,83,20.07,124.82,25.43,38.38,4.92,83.37,3.06,119.62-11.59,16.55-6.69,31.33-15.93,38.52-32.73,8.25-19.29,8.87-38.94,9.38-59.65.45-18.09-5.63-36.58,1.93-53.41,7.81-17.39,23.18-28.45,30-46.74,10.55-28.29,14.25-68.5-22-77-16.25-3.81-33.53-2.33-50.05-2.14-24.68.29-49.14-1.82-73.7-4-20.15-1.78-48.27-9.58-66.41,2s-28.93,29.43-29.78,50.5a17.86,17.86,0,0,1,2.47-8.39c.21,3.93-1.81,2.83,0,0"/><g class="p"><g class="n"><path class="o" d="M775.86,1366.47c12.69-.21,25.32-1.19,37.91-2.53a88.1,88.1,0,0,0,16.71-8.69,46.74,46.74,0,0,0,12.12-12.72,142,142,0,0,0-1.64-42.77c-24.08,4.65-48.27,4.91-72.81,1.78a354.71,354.71,0,0,1-39.83-7.64c-9.76-2.4-24.2-9.5-33.36-7.44-15.71,3.53-37,14.67-53.65,29.55a200.36,200.36,0,0,1,28.48,32.9c34,11.1,70.44,18.16,106.06,17.57"/></g></g><path class="l" d="M905.33,1157.57c-16.25-3.81-33.53-2.33-50.05-2.14-24.67.29-49.14-1.82-73.7-4-20.15-1.78-48.27-9.58-66.41,2s-28.93,29.43-29.78,50.5a17.81,17.81,0,0,1,1.94-7.34,5.67,5.67,0,0,1,.53-1.05,8,8,0,0,1,0,1.3c-.14,11.61-9.88,25.23-18.46,35.93,19.34-2.68,38.14-8.5,57.57-10.72,10.39-1.19,20.93-1.93,31.38-2.13,13.55-.25,47.39-1.57,49.64,17.87,1.52,13.18-8.85,28.22-14,39.65-3.62,8-5.61,16.3-8.16,24.66-2,6.5-4.34,12.9-5.78,19.56-1.23,5.73-3.21,17.68,3.52,21.2,3.7,1.94,4.58-2.4,5.44-5.59,2.42-9,2.67-18.61,3.18-27.83a69,69,0,0,1,7.52-28c4-8.11,9-15.5,14.22-22.85,2.88-4.06,5.45-8.88,10.56-10.35,8.9-2.57,22.77,1.41,31.22,4,9.36,2.84,14.09,7.49,12,17.81-1.44,7.17-5.36,13.62-6.85,20.75-1.91,9.14,1.56,19.14,2.69,28.2a55.24,55.24,0,0,1-7.61,35.53c-12,20.21-33.69,32.76-54.61,42-22.61,10-46.59,17-70.15,24.38-14.52,4.54-29.26,8.25-44.09,11.62,13.61,2.38,27.23,4.46,40.79,6.2,38.38,4.92,83.37,3.06,119.62-11.59,16.55-6.69,40.41-33.45,47.59-50.25,8.25-19.29-.21-21.42.3-42.13.45-18.09-5.63-36.58,1.93-53.41,7.81-17.39,23.18-28.45,30-46.74,10.55-28.29,14.25-68.5-22-77"/><path class="q" d="M785.8,1313l.08-.71c-2.19,4.8-4.92,9.28-4.89,14.77,0,2.3,0,10.14,3,10.83.7-4.67,1.52-9.21,1.88-14,.3-4-.27-7.84.85-11.71,0,1.47.08,2.94.15,4.4"/><path class="r" d="M926.88,832.23c-7.16-3-115.72,9.24-137.83,7s-61.41-14.17-92.31-10.93-83.84,18.93-83.84,18.93-5.94.38-5.62,7.42,18.12,35.57,8.68,59.84-1.4,12.9-21,38.55-32.1,33.55-32.1,53.72,15.84,45.88,15.84,45.88,15.91,32.84,31.21,33.79,82.77-20,82.77-20-2.3,62.87-13.28,83.55-14.28,28.82-28.27,43.8S628.82,1208,629.82,1220s18.91,22.71,20.75,22.83,13.9-.63,13.9-.63,10.22-13.28,18.94-23.21-9.45.07,14.61-8.36,88-14.9,90.76-14.16,34.81-.08,77.58,12.79,64.25,33,64.55,33.89,33.36,22.33,62,26.53,65.51,8.95,81.9,6.37,39.68-6.39,38.45-17.33,5.93-14.94-6.8-32.7-27.9-18.16-33.71-45.32,73.73-153.81,73.73-153.81l9.61-.44s32.47,33.54,39.52,37.35,15.47,7.55,26.42,6.37,27.86-7.45,24.74-15.56-13.44-23.46-13.44-23.46,16.63,2.68,30.13-2.74,26.36-10.14,28.33-27.42,3.9-35.25-6.83-59.52-14.63-49.54-14-65.39.6-47.48-5.61-63-.75-16.47-12.63-20.75-49.73-4.62-49.73-4.62l-78,9Z"/><g class="s"><g class="h"><path class="i" d="M1285,941.48c-10.73-24.27-14.63-49.54-14-65.39s.6-47.48-5.61-63-.75-16.47-12.63-20.75c-6.17-2.22-19.32-3.38-30.56-4,2.39,10.32,4.22,20.88,7.5,30.93,14.41,44.08,41.75,92.49,26.6,140.08-12.31,38.66-53.1,38.56-85.67,28.19-37.2-11.85-71-27.19-90.94-62.51-12-21.2-22.7-42.48-37.23-62.16-11.31-15.33-23.54-29.94-35.11-45.06l-67.28,12c22.6,34.09,45.85,76.4,47.18,118,.58,18.19-4.49,36.41-19.31,48-22.84,17.87-51.15,8.62-76.67,3.37-26-5.35-46.69,9.78-72,11.57s-39.45-18.15-40.76-41.73C777,943.4,783.6,916,786.1,890.38c1.62-16.56,3.28-34.32,8-50.86-2,0-3.69-.11-5.06-.25-16.65-1.65-43.07-8.85-68.3-10.92a55.59,55.59,0,0,1,.87,8c.94,31.29-20.63,59.18-40.48,81.22-24.24,26.91-53.86,49.31-76,78.06-10.59,13.77-21.93,31.54-21.78,49.56.06,6.81,2.75,14.51,3.66,21.87,6,9,14.5,18.86,22.8,19.37,15.3.95,82.77-20,82.77-20s-1.66,45.35-8.89,71.68c16.08-8.32,30.05-26.18,42.46-36.85,19.91-17.13,45.64-28,70.62-35.45,44-13.07,89.66-15.78,127.94,13,22,16.51,37.33,35.86,56.48,56.36,16.87,18.05,37.41,38.1,46.38,61.68,8.86,23.29-8.08,36.14-30.35,34.26-52-4.4-102.51-25.81-153-37.86-52.14-12.44-105.67-16.62-154.51,9.63-15.58,8.37-29.41,25.58-45.19,36.6,3,2.05,5.38,3.29,6,3.33,1.84.12,13.9-.63,13.9-.63s10.22-13.28,18.94-23.21c2.87-3.27,2.82-4.37,2.33-4.69,1.39-.21,4.78-1,12.28-3.67,24.06-8.43,88-14.9,90.76-14.16s34.81-.08,77.58,12.79,64.25,33,64.55,33.89,33.36,22.33,62,26.53,65.51,8.95,81.9,6.37,39.68-6.39,38.46-17.33,5.93-14.94-6.8-32.7-27.9-18.16-33.71-45.32,73.73-153.81,73.73-153.81l9.61-.44s32.47,33.54,39.52,37.35,15.47,7.55,26.42,6.37,27.86-7.45,24.74-15.56-13.44-23.46-13.44-23.46,16.63,2.68,30.13-2.74,26.36-10.14,28.33-27.42,3.9-35.25-6.83-59.52"/></g></g><g class="t"><g class="n"><path class="o" d="M838.61,860.41c-6.43-3-39.37-9.89-40.54-12,2.39,7.21,8.37,29,8.49,31.27.46,8.76,3.89,16.72,4.25,25,12.62,9.73,28.44,15.31,44.38,20.39,6.87-5.06,14-9.81,21.27-14.29,7.51-4.62,15.29-8.46,23-12.62.91-.49,2.13-1.08,3.51-1.74-4.28-17-7.42-42-7.66-49-9.7,1.24-49.62,16.37-56.72,13m332.24-47.61c-2.26-.43-2.83-.17,0,0m6.3.1c-3,0-5,0-6.3-.1.48.09,1,.21,1.65.38.36.1.65.15,1,.23l.52-.07c1-.15,2.11-.33,3.17-.44m-3.69.51c-12.92,1.82-25.82,3.27-38.85,4.22-13.71,1-27.44,1.95-41.05,3.89-4.18.6-12.31.8-15.94,3.88a51.57,51.57,0,0,0,4.52,6.62,62.38,62.38,0,0,1,6.72,23.09c2.05,15.64-1.86,31.54,2.51,46.83,6.88,24,30.27,40.7,52.49,49.19-1.94-10.59-5.36-19.14-6.35-30.47q-.41-11.59-.82-23.19a50.53,50.53,0,0,1,9.55-29.89C1153.8,854.68,1164,844,1172,831.39c3.37-5.24,9.73-12.68,10.29-19-4.09.94-4.87,1.89-8.85,1m3.69-.51,2.24,0a12,12,0,0,0-2.24,0M686.44,1142.25a11,11,0,0,1,1.71-4.07c-4.8,2.07-3.19,3-1.71,4.07m26.83-6c-3.48-4.38-5.53-8.57-11.94-6.66-4.62,1.37-10.3,4.22-13.18,8.63l1.21-.5c-.31,3.66-1.58,7.46-2.44,11-2.29,9.55-4.67,19.65-8.9,28.53-3.67,7.7-9.85,12.53-15.3,18.85-2.34,2.71-3,6.09-5.12,8.78,2-3.58,7.63-5.59,11.06-7.5,12.65-7.05,25.25-14.31,38.32-20.56,10.92-5.22,22-7.16,33.8-9.34,12.88-2.39,25.81-4.8,38.6-7.65-16.05-5.57-34.6-3.39-50.29-10.56-6.65-3-11.36-7.43-15.83-13M666.44,841c-.51.35-1,.73-1.51,1.1.91-.16,1.82-.36,2.73-.49-8.46-5.4-6.22-1.37-1.23-.61m-27.81,57.46c.13-18.58,3.72-34.41,16.81-48a75,75,0,0,1,9.49-8.39c-7.6,1.33-15.16,3.51-22.79,4.74s-18.81,1.82-24.8,7.75c-2.76,2.73-2.85,3.53-2.32,6.63a37.67,37.67,0,0,0,2.82,5.92,74.45,74.45,0,0,1,5.26,19.33c1.92,10,4.07,20.22,2.68,30.46-1.6,11.71-8.34,22.52-16.36,30.82-13.54,14-27.61,27.33-26.91,48.27,3.72-2,6.63-9.51,9.12-13,7.15-9.93,17.85-19.83,26.9-28,6.42-5.78,21.25-13.92,24-23.15a43.49,43.49,0,0,0-1.51-15.6,79.63,79.63,0,0,1-2.38-17.86"/></g></g><path class="j" d="M688.11,567.39c-4.62,6.64-21.47,39.5-19.85,55s12.34,26,12.34,26,42.67,54.51,43.74,57.87,16.59,22.09,14.65,40-1.23,13.26-1.94,17.88-55.58,110.35-57.24,113.36-55.2,116.4-59.7,128.52-17.69,24.31-19.48,45.65,2.58,56.9,2.58,56.9c10.4,27,11.06,41.68,23.33,39.29s35.06-5.26,43-13,29.24-22.42,41.81-48.66,22.85-42.06,28.94-69.51,28.27-165.08,29.06-167.87,20-64.87,20.89-65,8.44-16.09,8.44-16.09,4.46-2.77,13.86-18,13.19-3.44,13-21.77-2.49-29.14-13.47-48.86-16.67-23.85-17.76-27.57-5.24-34.7-5.45-39.28-100.73-45-100.73-45"/><g class="u"><g class="n"><path class="o" d="M763.4,719.5c-6.9-14-19.44-26.91-33.16-34.74-1,13.7,2.07,26.89,4.53,40.27,2.87,6.49,5,13.94,4.22,21.25-1.94,17.88-1.23,13.26-1.94,17.88s-55.58,110.35-57.24,113.36-55.2,116.4-59.7,128.52-17.69,24.31-19.48,45.65c-1.51,18.11,1.4,46.46,2.32,54.63l.75-.46C619,1055,641.36,1005.43,661.37,956.68c12.38-30.16,27.11-59.18,40.35-89,12.5-28.1,24.61-56.36,39.73-83.18a8.38,8.38,0,0,1,4.51-3.9A49.25,49.25,0,0,1,748,776c3.08-6,8.39-10.54,12.54-15.77,9.3-11.73,9.37-27.46,2.84-40.68"/></g></g><path class="l" d="M812,679.19c-11-19.72-16.67-23.85-17.76-27.57s-5.24-34.7-5.45-39.28-100.73-45-100.73-45c-4.62,6.64-21.47,39.5-19.85,55s12.34,26,12.34,26,15.86,20.26,28.48,36.84c2.14-3.69,5.92-6.81,11.79-8.85,17.39-6,35.89,1.72,46.17,16.18,12.58,17.68,17.19,42.58,12.2,63.63-3,12.7-9.08,24.5-14.13,36.46-6.19,14.67-10,30.19-13.85,45.6-14.68,58.08-25.36,117.25-46.89,173.38-7.48,19.51-51.15,108-90.51,126.8,3.09,7.27,6.34,10.64,12.7,9.4,12.27-2.39,35.06-5.26,43-13s29.24-22.42,41.81-48.66,22.85-42.06,28.94-69.51,28.27-165.08,29.06-167.87,20-64.87,20.89-65,5.95-10.91,22.36-30c5.78-6.72,13.12-7.47,13-25.8S823,698.91,812,679.19"/><path class="v" d="M787.89,736.18c.4-1.37.8-2.73,1.19-4.1.3-1.09.63-2.21,1-3.33a118.13,118.13,0,0,0-.33-24.27c-3.64-6.41-8.27-12.07-12.17-18.6-4.4-7.38-8-15.34-4.7-23.86,3.48-9,13-11.88,18.28-19.26a9.53,9.53,0,0,1,1.39-1.56c-1.58-10.65-3.52-25.77-3.66-28.85-.21-4.57-100.73-45-100.73-45a94.78,94.78,0,0,0-5.28,9.22,9.26,9.26,0,0,1,7.31,8c.61,5.94-6.11,22-8.1,32.49q3.46,3.67,6.83,7.41c7.76,6.88,14.91,14.38,22,22,34.82,25.11,77.43,45.75,77,89.62"/><path class="j" d="M631.48,320c-3.25,21.25-7,42.61-5.95,64.2,1.19,23.88,12.41,46.85,22.13,68.31,5.39,11.88,16.31,25.9,17.78,38.71,2.66,23.15-14,39.8-28.27,55.3a5.34,5.34,0,0,0,.76,7.92c4.29,3.18,3.89,3.11,13.68,7.19,5,2.07,8.66,2.72,12.79,4.19,5.32,1.89,3.56-.13,4.93,5.08,2.09,7.93-2.84,22.28,7.65,25.8,5.76,1.93,17.57-.8,23.85-1.08-6.54,5.14-13.34,12-8.24,20.51,4.41,7.35,7.91,1.85,14.45,4.4,8.77,3.42,14.12,18.18,16.72,26.33,1.78,5.58,2.53,13.45,8.55,16.1,5.09,2.24,18.62.95,23.79-1.08,4-1.55,8-5.58,11.41-8,11.28-7.92,23.83-15.16,34.33-24.08,11.74-10,21.52-23.37,32.75-33.22a93.83,93.83,0,0,0,12.5-13c11.43-14.77,21.49-30.75,32.12-46.06,3.4-4.9,6.65-9.91,10.08-14.8,2.16-3.08,7.37-8.12,8.16-11.74.84-3.83-2-9.15-3.39-12.88-3.87-10.79-8-21.49-12.16-32.19-12.33-31.86-25-63.59-37.71-95.3Q828,330.22,811.65,289.88c-1.22-3-3.14-12.45-5.9-14.55-4.42-3.36-19.37-2.05-24.91-2.63l-58.45-6.12c-7.09-.74-18-4.13-24.39-1.23-4.94,2.23-10,8.22-14.14,11.62l-21.91,18Z"/><path class="w" d="M894.07,498.12c-3.87-10.79-8-21.49-12.16-32.19-12.33-31.86-25-63.59-37.71-95.3Q828,330.22,811.65,289.88c-1.22-3-3.14-12.45-5.9-14.55-4.42-3.36-19.37-2.05-24.91-2.63l-58.45-6.12c-7.09-.74-18-4.13-24.39-1.23-4.94,2.23-10,8.22-14.14,11.62l-21.91,18-30.46,25c-3.26,21.25-7,42.61-5.95,64.2.65,13,5,32.57,11.89,45.8,2-2.84,14.35-18.47,17.08-20.38,12.08-8.45,19.66-6.59,19.18-6.14,7.27,2.36,18.6,2.95,20,11.7.91,5.85-4.74,5.49-9.55,20.84,9.69-7.79,19.46-14.64,25.27-8.94,4.24,4.16,9.42,6.91,8.48,12.35a90.35,90.35,0,0,1,9-8.54c6.29-11.14,22.26-12.67,33-4,11.77,9.46,16.58,22.53,17.92,36.41,2.16,8.85,2.19,18.59,2.54,27.55a382.13,382.13,0,0,1-.25,40.47c-.12,1.81-.07,4.53-.3,7.26a2.57,2.57,0,0,1,.06.6c-1.15,11.8-6.41,23-11.43,33.95,17.78-14.16,33.61-29.22,45.38-49.31,1.07-1.82,4.12-2,4.78.33,6.7,23.35,13.87,48,7.25,72.26a100.09,100.09,0,0,1-5.3,14.54,184.49,184.49,0,0,1,14.14-14.33,93.74,93.74,0,0,0,12.5-13c11.43-14.77,21.49-30.75,32.12-46.06,3.4-4.9,6.65-9.91,10.08-14.8,2.16-3.08,7.37-8.12,8.16-11.74.84-3.83-2-9.15-3.39-12.88M670,555c-2.45-1.07-7.7,0-10.39-.09-7.57-.2-15.12-.77-22.66-1.41a5.34,5.34,0,0,0,1,1c4.29,3.18,3.89,3.11,13.68,7.19,5,2.07,8.66,2.72,12.79,4.19,2.73,1,3.59.92,4,1.33a36.87,36.87,0,0,0,4.21-2c2-3.79,1.78-8.3-2.59-10.2"/><path class="x" d="M727.08,579.84c1.29-2.73,4.94-7.06,6-9.88.16-1.26-3.21-1.56-4.66-.74-6.15,8.94-17.1,10.57-27.3,11.34-7,.53-37.13,1.28-28.64,13,.43.59.76.26.75.81a9.36,9.36,0,0,0,3.73,2.27c5.76,1.93,17.56-.8,23.85-1.08-6.54,5.13-13.34,12-8.24,20.51,2.81,4.68,5.25,4.15,8.33,3.81,6.44-3.08,11.93-11.63,15.65-18,4.43-9.21,2.11-9.85,10.49-22.09"/><g class="y"><g class="n"><path class="o" d="M694.12,612.88a6.42,6.42,0,0,0,2.57-.65c.19-.09.37-.2.55-.3a62.86,62.86,0,0,1,4.09-7.72c3.08-4.89,7.47-9,10.66-13.76-5.56,2.86-10.89,6.13-15.16,10.52-2.27,3.14-4,6.85-3.27,10.38a6.44,6.44,0,0,0,.55,1.54"/></g></g><path class="z" d="M706.78,591.92a124.93,124.93,0,0,0,13.28-10.17c4.37-4,8.07-8.73,12.65-12.51a5.08,5.08,0,0,0-4.25,0c-6.15,8.94-17.1,10.57-27.3,11.34-7,.53-37.13,1.28-28.64,13,.42.59.76.26.74.81a9.37,9.37,0,0,0,3.73,2.27c5.46,1.83,16.3-.5,22.77-1,2.24-1.38,4.62-2.57,7-3.75"/><g class="aa"><g class="ab"><path class="ac" d="M692.74,462.68c.5,6.18.75.77,0,0-6.58-6.73-25.15-28-21.25-49.73,3.37-18.77,28.7-31.51,43.32-32.19,4.59-.21,18.63-1.93,22.13,13.46,1.52,6.69-1.82,14.18-2.82,21.13-2.35,16.38-28.77,43.6-40.4,52.19a5.88,5.88,0,0,1-1-4.86c0,.37-.92-.87,0,0"/></g></g><g class="ad"><g class="n"><path class="o" d="M669.27,505.61c-2.93,16.51-13.13,30.56-22.08,45.35,7.14-.38,14.25.37,21.47.35a4.49,4.49,0,0,1,3.09,1.13c5.5-5.26.76-16.65-.06-23.58-.92-7.75-1.67-15.5-2.42-23.25M788.63,639.55c-10.86,5.41-23.48,11.87-36,9.51-17.55-3.29-27-21.11-30.29-39.11-3.53,4.78-7.56,9.16-12.34,12.19,7.05,5.14,11.5,17.48,13.8,24.69,1.78,5.58,2.53,13.45,8.55,16.1,5.09,2.24,18.62.95,23.79-1.08,4-1.55,8-5.58,11.41-8,7.14-5,14.77-9.74,22.08-14.81l-1,.51m-81.48-151.1c.66-11.5,1.4-24.42,4.77-36.12A22.24,22.24,0,0,1,704,456c-1.76,2.37-6.07,3.24-7.79.16q-.81-1.45-1.6-2.9c-4.87-4.15-8.4-11.91-10-18.8-5.12,8.75-2.32,14.87,2.5,24,3.59,6.82,3.26,11.19,1.16,18.17-4.55,15.16,3.08,27.79,10.82,40.75q5,8.37,10.44,16.41a198.4,198.4,0,0,1-2.39-45.39"/></g></g><g class="ae"><g class="n"><path class="ac" d="M689.65,465.66c.09-1.19-3.4-7-3.08-9.94.7-6.38,8.39-11.48,13.08-15.34,9.18-7.56,27.15-13.61,32.39-24.35,2.08,10.85-9.19,23.28-16,29-4.23,3.51-21.18,20.06-23,19.91a7.66,7.66,0,0,1-3.33.77"/></g></g><path d="M728.88,429.79c-12.9,7.07-30.41,19.15-39.07,30.94-1.91,2.59,2.37,6.71-8.88,19.27,10.18.74,20.55-16.5,25.9-23,4.3-5.24,11.48-10.8,15.37-16.36,1.49-2.12,8.73-11.95,6.68-10.83"/><path class="f" d="M715.07,374.21c-24.37,2.4-45.39,18.6-49.08,44.81,4-1.74,8-10.83,11-14.25a102.14,102.14,0,0,1,14.57-14.23,108.9,108.9,0,0,1,15.28-10.2c2.5-1.33,10.48-3,12.85-5.5a22.35,22.35,0,0,1-4.58-.63"/><path class="af" d="M778.47,222.19c-12.1.42-18.91-.19-28.06,8.54-8.19,7.82-9.1,30.9-16.77,35.63-3.88,2.39-29.39.68-35.17.47-13.88-.5-13.44,3.88-13.15-11.12.39-20.68,23.72-36.62,41.56-38.49,11.91-1.25,25.85.36,37.43,2.8,2.94.62,18.15,7.62,14.17,2.15-3.68.13,2.17,3,0,0"/><path class="ag" d="M1147.89,538.08c-19.67-11.61-31.59-24-42.75-43.74a657.79,657.79,0,0,1-42-90.24c-13.63-35.62-25.24-79.52-51.87-107.91-35.71-38.06-90.61-72.49-144.33-73.33-10-.15-20.4,2.22-30.12.91-10.82-1.46-21.13-5.82-32.18-6.84-24.44-2.26-42.74,15.27-60.79,29.76-23.64-3.1-52.55-7.11-73.49,6.28-24.33,15.56-46.22,32.89-68.11,51.45s-45.5,38.92-71.48,51.87c-23.11,11.52-47.09,21.5-70.71,31.94,38.89-4.37,82.63-6.29,114.08-32.06C550.9,392.46,509.34,399.89,470.3,408c-28,5.79-56.05,10.64-84.36,14.58,15.51,4.23,32,11,47.89,12.91,17.53,2.11,36.76-.5,54.44-.75l-49.66,22,1.67-.09c.58-.19,30.68-1.34,44.18-3.81,22.29-4.06,42.07-14.53,61.31-26.06,1.23-.73-12.31,20.23-17,22.59-11.59,7.69-25.29,11.15-39.35,12.82a142.39,142.39,0,0,1-15.37,1.4c-9.51,3-19.73,2.37-29.46,4.66-12.6,3-24.23,8.7-35.16,15.52-1,.65-2.07,1.33-3.1,2C422.44,482,438.54,481,455.65,481c12.63,0,25.46.44,38,2.5,9.23-.27,18.49-.52,27.69-2a2,2,0,0,1,.51,0c1.68-.48,3.35-1,5-1.56a2,2,0,0,1,.9-.1l5-1.56c12.08-5.67,23.88-11.94,35.16-18.27,33.73-18.93,59.48-46,88.7-70.84,30.43-25.89,66.84-45.95,95-74.18,6.77-6.78,11.65-12.66,12.45.79.37,6.24,0,12.07.8,18.39a266.47,266.47,0,0,0,7.87,41.36c4.45,15.64,14.13,27.47,19.74,42.37,3.22,8.57,1.44,17.25,1,26.17-.91,19.5-5.31,38.83-11.77,57.18-5.78,16.43-11,33-16.8,49.49-2.84,8.11-5.37,21.46-12,27.48,13.64-12.31,27.25-24.54,38.53-39.16,17-22.1,24.29-50.68,36.74-75.48,11.43-22.74,9.69-31.71,19.13-16.76,8.59,13.6,11.07,174.2,14.07,188.81s18.31-164.09,21.67-148.74c7.07,32.24,59.49,104,60.5,137.18a262,262,0,0,1-1.87,43.6c-.27,2-5.76,21-5,21.7,3.74,3.52,52.6-63.77,55.93-68.77,9.64-14.45,19.21-29.45,24.15-46.23,2.93-10,8.27-25.59,5.39-37,7.08,20.56,13.08,42.49,13.94,64.19,1.07,27-7.7,55.71-13.91,81.89,14.06-21.25,26.95-45.35,32.6-70.31,6.74-29.81.52-63.56-7-92.77,12.6,24.13,21.75,52.61,21.19,80-.41,20.16-5.24,40.9-10.27,60.35-2.63,10.14-8.29,20.79-10.18,30.88.07-.36,4.91-4.09,5.49-4.66,4.92-4.83,8.93-10.94,12.45-16.81,11.29-18.83,16.91-40.39,18.16-62.21,2-35.16-4.21-71.82-14.28-105.48,12.67,15.32,28.25,30.15,46.13,39.08,22.71,11.33,51.66,12.23,76.17,19.17a408.3,408.3,0,0,1-44.81-22.6"/><path class="ag" d="M755.76,302.33c-15.71,15.6-31.73,30.85-48.28,45.57C691.65,362,675,375.2,659.86,390c-13.94,13.63-26.81,28.26-36.11,45.5-3.41,6.32-5.8,15.54-7.46,24.7,8-28.86,27.83-53,50.34-74.11,29.75-27.92,62.31-52.84,89.57-83.38a.3.3,0,0,0-.44-.41M616.29,460.22A102.4,102.4,0,0,0,612.64,492a290.71,290.71,0,0,1,3.65-31.75m174.92,1.25c7.54-27,10.95-54.86,14.3-82.61a.72.72,0,0,0-.71-.81c-.73,11.69-2.84,23.25-4,35a3.63,3.63,0,0,1-1.94,3.06,390.47,390.47,0,0,1-10.12,48.2c-.49,1.71-1.07,3.38-1.6,5.07-10.93,20.18-26.71,42.1-49.17,46.44-.07,0-.08.07-.14.1a26.64,26.64,0,0,0,8.86-1.14,5.12,5.12,0,0,1,.9-.22c15.33-6.4,27.2-20.85,36.32-35.65-3.35,9.2-7.19,18.21-11.45,27.07a149.1,149.1,0,0,1-16.08,26.33q-1.31,2-2.7,4c-1.51,2.13-2.93,4.35-4.36,6.56A141.9,141.9,0,0,0,772.09,510a276.59,276.59,0,0,0,16.08-38.41c2-3.54,3.81-7,5.49-10.35,2.54-5,4.88-10.17,7-15.42.45-3.24.83-6.5,1.18-9.76a168.27,168.27,0,0,1-8.92,22c-.54,1.11-1.11,2.25-1.68,3.4"/><g class="ah"><g class="n"><path class="o" d="M886,263.42a1.82,1.82,0,0,1-.43-.94A10.83,10.83,0,0,0,884,261c.57.82,1.42,1.51,2,2.41m21.86,1.6c-.59-.56-1.17-1.12-1.79-1.62a4.43,4.43,0,0,0,1.79,1.62m-18.62,2.25a21.9,21.9,0,0,0-2.93-3l9.08,10.57-.07-.11c-2.08-2.45-4.11-4.94-6.07-7.49m100.35,107A132.38,132.38,0,0,0,980.9,350a56.68,56.68,0,0,1-4.53-10c7.55,6.57,11.68,17.29,16.48,25.82-3.51-12.46-10.1-24.47-16.73-35.5l-8.68-13.76a186.84,186.84,0,0,0-54.2-48.73c-.36-.21-3.38-1.51-5.4-2.79,2.8,2.65,5.25,5.83,7.78,8.65,2,2.27,6.1,5.66,6.07,9-8.27-3.11-13.83-9.62-20.62-15a167.32,167.32,0,0,0-16.43-11.15c4,4.83,8.42,9.28,12.46,14.07-1.34-1.69-4.45-3.37-5.94-4.47-1.28-.95-4.07-4-5.66-3.85a1.84,1.84,0,0,0,0,.21c1,1.15,1.87,2.45,2.78,3.66.29.39.6.75.9,1.13l.93,1.09c1.77,2.06,3.48,4.2,5.14,6.4,1.35,1.59,2.7,3.17,4.07,4.76l-4-4.65a180.37,180.37,0,0,1,13,20.21c6.68,11.94,13,24.26,17,37.4,1.17,3.89,1.76,8.56,3.68,12.14.23-9.27.49-18.59-1.71-27.65,1.23-.37,7.07,8.57,5.86,6.8,3.86,5.67,7,11.75,10.25,17.75.87-8.54-2.26-17.16-5.36-25s-6.58-15.61-12-22.07a240.35,240.35,0,0,1,37.81,45.63,252.16,252.16,0,0,1,30,67.77,21.41,21.41,0,0,0-.29-8.79,148,148,0,0,0-4-24.83M825.86,379q-.68,4.07-1.46,8.1a45.89,45.89,0,0,0,1.46-8.1m-26.49-87.71c-8.05-7.08-17.48-12.35-26.5-18.36,4.7,4.44,8.31,10,11.33,15.42,3.84,6.84,7.55,13.81,8.88,21.45a12.48,12.48,0,0,1-4.59-5.77q-4.41-6.32-8.86-12.61a82.86,82.86,0,0,1-5.82-9.64c-.73,3,.52,6.94,1.13,9.55,1,4.48,2.09,8.9,2.74,13.46-1.75-3.46-4-6.69-5.44-10.28-.62-1.56-.56-3.73-1.81-4.87-1.09,1.14-1.27,3.47-1.41,4.84-.1,1-.26,2-.37,3.1a28.4,28.4,0,0,0-.84-4.63,171.36,171.36,0,0,0,16.58,80.38c2.35,4.71,4.79,9.72,8.58,13.68-4-11.36-5.37-23.87-7.1-35.73a216,216,0,0,1,16.62,46.27c-.57-8.92-.26-17.87-1-26.79-.86-11-3.55-21.53-6.34-32.23,6.4,17.35,12.79,35.41,13.51,53.89.34,8.81-1,17.61-2.28,26.38a157.8,157.8,0,0,1-3.52,19.46c5.08-18.31,10.89-36.84,14.29-55.4a163.48,163.48,0,0,0,2.38-36.35l-.35-7.78a5.42,5.42,0,0,1,.4-5.52c3.77,9.12,5.26,19,6,28.75a97.56,97.56,0,0,1,.19,17c3.45-20.65,4.56-41.84-5.27-61a93.28,93.28,0,0,0-21.22-26.73m-55-4.78c-12.49,4.19-29.54,15.09-34.26,13.83,10.36-14.23,31.46-15.85,39.51-20.89-.19-4.66-21.63-.78-23.31-.42-8.65,1.89-24,11.89-32.38,14.48,5.33-4.37,18.88-13.33,25.23-16a62.06,62.06,0,0,1,13.33-4.13,3.21,3.21,0,0,0,3.5-1.22c-10.62-1.44-37.68,7.61-47.65,10.95,5.4-9.77,32.43-13.35,34.71-14.23a18.77,18.77,0,0,1-4.65,0c-2.21,1-6.18-.21-8.11-.33-12-.74-23.73,2.11-34.58,6.93-12.6,5.59-25.05,12.13-35.71,21-4.8,4-11.62,8.9-14.23,14.76,7.08-4,13.27-9.1,20.73-12.52,1.52-.69,24.24-11.59,24.13-12.07-12.31,12.79-33.57,29-45.32,42-9.51,10.5-18.59,21-27,32.37,10.8-11.18,36.46-33.32,49-42.36-9.46,14.29-34.45,39.75-44,54A19.55,19.55,0,0,0,613.76,366q10.24-7.85,20-16.31c8.59-7.28,37.49-45.89,39.5-42.17-7.46,6.61-26.53,34.93-32.27,42.7-10.37,14-21.66,27-34.86,38.38-10.2,8.81-21.15,17-33.21,23.09-5.29,2.68-13.42,4.71-17.65,8.77,23.39-5.56,46.36-16.63,66.78-29,11.71-7.1,18.92-14.92,28.18-25.07,6-6.61,25-28.24,35.76-38-10.85,23.87-39.26,45.72-51.35,59.4,7.63-2.25,15.74-8.43,22-12.64,10.07-6.78,20.85-14,29.86-22.25,13.27-12.13,25.87-25,39.38-36.87,7-6.14,14-12.15,20.91-18.41,2.69-2.45,5.35-4.93,7.93-7.49,1.12-1.12,2.53-2,2.9-3.65-3.09-2-10.25-1-13.27,0M719.58,268l-8.35.38a55.25,55.25,0,0,1,7.14.59,2.41,2.41,0,0,0,1.21-1"/></g></g><g class="ai"><g class="n"><path class="i" d="M1147.89,538.08c-19.67-11.61-31.59-24-42.75-43.74a657.79,657.79,0,0,1-42-90.24c-13.63-35.62-25.24-79.52-51.87-107.91-5.45-5.81-11.35-11.53-17.62-17.06,10.67,16.81,18.56,35.9,24.43,51.05,22.7,58.63,25.82,123.26,41.18,183.89.68,2.69-27.54-37.21-37.65-57.64,8.14,31.1,19.55,61.38,20.15,94,.05,2.9-21.64-40.29-32-60,3.27,26.08-5.27,53.34-16.87,76.59a199.52,199.52,0,0,1-27.37,41.4,231.22,231.22,0,0,1-20.75,21.19c-.27.25-.62.52-1,.82a248.48,248.48,0,0,1-2,37.25c-.27,2-5.76,21-5,21.7,3.74,3.52,52.6-63.77,55.93-68.77,9.64-14.45,19.21-29.45,24.15-46.23,2.93-10,8.27-25.59,5.39-37,7.08,20.56,13.08,42.49,13.94,64.19,1.07,27-7.7,55.71-13.91,81.89,14.06-21.25,26.95-45.35,32.6-70.31,6.74-29.81.52-63.56-7-92.77,12.6,24.13,21.75,52.61,21.19,80-.41,20.16-5.24,40.9-10.27,60.35-2.63,10.14-8.29,20.79-10.18,30.88.07-.36,4.91-4.09,5.49-4.66,4.92-4.83,8.93-10.94,12.45-16.81,11.29-18.83,16.91-40.39,18.16-62.21,2-35.16-4.21-71.82-14.28-105.48,12.67,15.32,28.25,30.15,46.13,39.08,22.71,11.33,51.66,12.23,76.17,19.17a408.3,408.3,0,0,1-44.81-22.6"/></g></g><g class="aj"><g class="h"><path class="i" d="M1147.89,538.08c-19.67-11.61-31.59-24-42.75-43.74a657.79,657.79,0,0,1-42-90.24c-13.63-35.62-25.24-79.52-51.87-107.91-35.71-38.06-90.61-72.49-144.33-73.33-10-.15-20.4,2.22-30.12.91-10.82-1.46-21.13-5.82-32.18-6.84-24.44-2.26-42.74,15.27-60.79,29.76-23.64-3.1-52.55-7.11-73.49,6.28-4.43,2.83-8.75,5.74-13,8.69a135.09,135.09,0,0,1,28.06-6.43c18.84-2.06,56.23-5.08,77.87,7.21a91.82,91.82,0,0,1,10.33-32.05c3.81-7.11,15-4.58,15.49,2.66a9.31,9.31,0,0,1,6.49,9.63c0,.05,0,.1,0,.15a6.55,6.55,0,0,1,4.25,6.73c0,.84-.07,1.67-.11,2.51a9.37,9.37,0,0,1,5.83.11c1.51-5.76,5.59-9.91,12.13-11.29a8.86,8.86,0,0,1,1.55-2.33l.87-1,.22-.24a7.59,7.59,0,0,1,8.58-2.14c37.55-4.8,74.9,13.7,106.19,33.07,28.12,17.41,52.11,40.45,65.91,70.88a128.87,128.87,0,0,1,11.23,55.11c.23,2.69.33,5.37.38,8,1.31,13.33,1.21,26.79,2.12,40.22,1.62,23.74,6.53,47.06,11.48,70.28.59,2.76-24-41.69-25.48-49.35C987.37,499.78,966.39,535,956.48,572c-2.76,10.33-19.11,7-16.33-3.38,5.88-22,16.35-43.79,26.66-65.78-2.95,4.88-10.11,6.47-13.79.9-18.79-28.47-34.78-58.55-51.54-88.23-16.4-29-35.05-56.37-53.22-84.29q-2.85-4.38-5.72-8.74c.78,35.45-8,71.91-20.45,103.77-5.49,14.09-11.6,27.9-18,41.57-9,33.58-24.44,65.94-42.24,93.12-2,6.58-4.62,13.47-8.9,17.34,13.64-12.31,27.25-24.54,38.53-39.16,17-22.1,24.29-50.68,36.74-75.48,11.43-22.74,9.69-31.71,19.13-16.76,8.59,13.6,11.07,174.2,14.07,188.81s18.31-164.09,21.67-148.74c7.07,32.24,59.49,104,60.5,137.18a262,262,0,0,1-1.87,43.6c-.27,2-5.76,21-5,21.7,3.74,3.52,52.6-63.77,55.93-68.77,9.64-14.45,19.21-29.45,24.15-46.23,2.93-10,8.27-25.59,5.39-37,7.08,20.56,13.08,42.49,13.94,64.19,1.07,27-7.7,55.71-13.91,81.89,14.06-21.25,26.95-45.35,32.6-70.31,6.74-29.81.52-63.56-7-92.77,12.6,24.13,21.75,52.61,21.19,80-.41,20.16-5.24,40.9-10.27,60.35-2.63,10.14-8.29,20.79-10.18,30.88.07-.36,4.91-4.09,5.49-4.66,4.92-4.83,8.93-10.94,12.45-16.81,11.29-18.83,16.91-40.39,18.16-62.21,2-35.16-4.21-71.82-14.28-105.48,12.67,15.32,28.25,30.15,46.13,39.08,22.71,11.33,51.66,12.23,76.17,19.17a408.3,408.3,0,0,1-44.81-22.6M494.32,467.41c-23.27,3.75-46.76,4.89-69.87,8a150.18,150.18,0,0,0-15,8.29c-1,.65-2.07,1.33-3.1,2C422.44,482,438.54,481,455.65,481c12.63,0,25.46.44,38,2.5,9.23-.27,18.49-.52,27.69-2a2,2,0,0,1,.51,0c1.68-.48,3.35-1,5-1.56a2,2,0,0,1,.9-.1l5-1.56c12.08-5.67,23.88-11.94,35.16-18.27,28.18-15.82,50.8-37.3,74.51-58.44C629.23,409.74,615.94,417.85,602,425c-34.11,17.41-69.55,36.29-107.68,42.44m-6-32.72-.5.22c11.84-3.43,23.6-7.15,35.37-10.9h.05a126.11,126.11,0,0,0,16.95-9.68A271.54,271.54,0,0,0,569.29,380q-3,2.36-6.14,4.51a8.09,8.09,0,0,1-3,4.88c-11.31,9-24.42,15.13-38.27,19-21.35,9.37-44,13.06-67.94,15.43-15.25,1.51-30.23,3.21-45,5.74,8.3,2.56,16.66,4.84,24.89,5.83,17.53,2.11,36.76-.5,54.44-.75M568,359.76c10.35-9.94,19.27-21.21,27.59-32.94-22.88,15.87-46.4,30.74-71.46,43-11.63,5.69-23.48,11.45-35.88,15.36,26.66-3.12,53.66-7.91,76-22,1.26-1.1,2.5-2.23,3.73-3.4"/></g></g><path class="e" d="M1042.88,705.41c.19,0,.37,0,.55-.06-10.75-19.71-24.22-37.58-38.49-55-17.47-21.33-35.87-41.9-52.78-63.69A211.64,211.64,0,0,1,931,554.36c-6.58-12.67-15.72-26.69-17.93-41.11a2.38,2.38,0,0,0,0-3.85l-1.26-1c-1.76-1.37-4.81-.39-4.6,2.15.85,10,5,18.76,9.54,27.63,6.17,12.13,11.8,24.59,19.37,35.94,16,23.95,35.89,45.42,54.37,67.41,17.25,20.53,34.62,41.5,47.47,65.15,1.61-.5,3.23-.94,4.87-1.29"/><path class="e" d="M978.9,395.62c-8.78-11.57-6.07-32.79-60.39-37.66-.61-.05-2.33-.49-4.75-1-6.39-21.73-19.75-49.05-22.88-56.86-11.88-29.59-25.8-55-48-78.26-21.88-22.94-51.11-29.87-82-22.76-17.92,4.13-55.62,14.32-64.32,33.62a6.48,6.48,0,0,1,1.59-1.37c.27-2.25,22.59-8.79,26.15-9.49a66.17,66.17,0,0,1,44.62,7.4c23.12,13.06,41.89,37.35,55.18,59.63C839.24,314.22,855.41,341.31,863,370c.12.45.2.84.31,1.27-12.56,9.92-22.22,17.18-26.37,47.88-5.07,37.49-7.69,73,10.4,87.79s30.9,19.7,51.22,20.15,35.11,2.95,49.43-4.79,26.18-29.37,30.59-53.41,9.12-61.75.34-73.32M696.61,232.71a4.41,4.41,0,0,0-1.12,3,21.14,21.14,0,0,1,1.12-3m1.59-1.37c-3.23,4,0,.19,0,0"/><g class="ak"><g class="h"><path class="o" d="M860.91,408c7-18.68,21.95-28.82,35.21-42.15a195.92,195.92,0,0,0-21.66,4.85c-5.12,1.44-10.3,2.62-15.37,4-10.49,8.54-18.49,17.36-22.17,44.52-5.07,37.49-7.69,73,10.4,87.79,13.9,11.34,24.69,16.87,38.15,19a111.66,111.66,0,0,1-30.79-62.21A113.35,113.35,0,0,1,860.91,408M826.78,292.5a6.5,6.5,0,0,1,.8-2.89c-2.83-5.19-5.92-10-8.5-14-9.95-15.52-22.83-28.4-34.14-42.67-26.52-18.73-60.25-29.55-86.15-4a24.65,24.65,0,0,0-2.18,3.82,6.48,6.48,0,0,1,1.59-1.37c.27-2.25,22.59-8.79,26.15-9.49a66.16,66.16,0,0,1,44.62,7.4c23.12,13.06,41.89,37.35,55.18,59.63.84,1.41,1.69,2.85,2.53,4.28a2.29,2.29,0,0,0,.11-.65"/></g></g><g class="al"><g class="n"><path class="i" d="M978.9,395.62c-8.78-11.57-6.07-32.79-60.39-37.66-.61-.05-2.33-.49-4.75-1-6.39-21.73-19.75-49.05-22.88-56.86-11.88-29.59-25.8-55-48-78.26-17.79-18.64-40.43-26.71-64.84-25.26,33.34,7.31,60.55,32.67,80.38,63,16.51,25.28,28.33,53.76,40.44,81.29,3.59,8.15,1.56,14.19-5.77,19.71-5.37,4-12.26,5.6-17.93,9.08a62.33,62.33,0,0,0-5.51,3.86,195.24,195.24,0,0,1,37.24-2.27c12.23.37,24.78.8,32.59,11.62,8.47,11.75,11.77,30.86,14.71,44.66,3.19,15,3.7,29.9,2.74,45a5.8,5.8,0,0,1,0,3.21c-.13.49-.25,1-.38,1.47-.05.67-.09,1.33-.15,2a5.56,5.56,0,0,1-1.06,2.89c-3.48,14.58-6.21,28.91-15.67,41.21-3.46,4.49-10.48,1.35-10.91-3.75-1.83-21.7-13.36-41.24-23.17-60.24-5.52-10.68-13.06-29-25.53-34.19,1.7,13.3,7,25.71,10.48,38.72A178.81,178.81,0,0,1,897,513.39c-.1,5.52-8.21,9.72-11.38,3.83-7-12.94-12.39-26.95-22.29-38a134,134,0,0,0-12.19-12.13c-3.29-2.84-7.43-4.09-10.56-6.45a4.52,4.52,0,0,1-2.51-.15c.11,5.16,3.52,12.56,4.86,16.78A197,197,0,0,1,848.57,498a111.8,111.8,0,0,1,1.73,11.35c16.57,12.93,29.06,17.36,48.25,17.78,20.32.45,35.11,2.95,49.43-4.79s26.18-29.37,30.59-53.41,9.12-61.75.34-73.32"/></g></g><path class="e" d="M1233.54,1250.73c-21.23-28.7-38.23-61.32-54-93.25-8.14-16.47-15.06-33.41-21.91-50.45-4.61-11.46-9-29.74-18.32-38.47-2.58-2.43-6.29,1.63-3.71,4.06,5,4.7,7.94,15.63,10.73,21.87,3.09,6.93,5.92,13.93,8.74,21,5.2,13,10.6,25.9,16.66,38.51a861.06,861.06,0,0,0,43.65,79.47,298.83,298.83,0,0,0,21,29.13,220.38,220.38,0,0,0-18.1-14.94c-17.27-12.7-32-26.64-47.64-41.25-16.44-15.37-33.31-30.82-47.9-48-8.36-9.84-15.34-29.61-27.78-35.06-3.23-1.41-5.8,3.45-2.56,4.87,6.56,2.87,12.86,14.77,16.57,20.55a135.16,135.16,0,0,0,16.67,20.91c14.51,15.17,29.56,29.58,44.75,44a509.43,509.43,0,0,0,44.18,38c16.53,12.53,46.19,41.85,47,41.45,22.49,27.4,43.18,55.88,48,91.27,4.35,31.79-3.85,63.9-34.35,79.55-29.52,15.15-64.8,3.53-94.25-6.3-30.16-10.07-58.31-25.24-87.69-37.32a385.64,385.64,0,0,0-84.81-24.14c-29.77-4.9-63.13-9.09-92.59-.55a78,78,0,0,0-32.34,18.52c-11.84,11.14-14.61,27-25.07,38.51-2.38,2.62,1.67,6.33,4.06,3.71,9.37-10.31,12.08-24.89,21.84-35.4,13.37-14.4,31.51-21.38,50.72-23.49,33-3.62,67.68,2.17,99.81,9.38,64.19,14.42,119.14,54.36,183.91,66.91,25.45,4.93,50.46,3.91,71.4-13.09,18.4-14.95,26.68-37.17,26.21-60.53-1.25-62.09-48.54-103-82.91-149.44"/><path class="j" d="M1161,1012.95c5.86,40.83-1,90.44-24.27,125.08-10.85,16.15-25.26,28.23-39.38,41.27-8.62,8-13,10-24.58,1.43-19-14.17-34.28-36.24-49.66-54.05-13.24-15.34-22.47-33.59-30.53-52.07-5.49-12.58-10-25.5-14.89-38.31L867.75,747.06c-2.9-7.64-4.92-17.25-9-22.21-10.28-12.59-23.89-17.1-25.24-35.12a254.21,254.21,0,0,1,.13-44.29c2.15-21.64,6.21-43.34,6.44-65.12.25-22.64-2.72-45.21-6.48-67.49-1.88-11.16-3.92-22.3-6-33.44-1.81-9.85-7.26-24.57-4.88-34.55,2.89-12.13,11.49-8.42,16.4,1,13.34,25.54,16.76,56.32,21.6,84.26.81,4.65,3.53,28.61,10,29.09,11,.82,9.6-42.13,9.39-48.17-1-27.41-8.83-50.57-14.58-77.15-1.74-8-5.58-31.93,3.41-35.56,9.42-3.8,13.29,22,15,27.35,7.51,23.71,16.83,47.3,19.76,72.19.79,6.68-1.14,58.61,4.56,59.55,2,.33,8.79-9.28,9.73-11.29,2.17-4.65,2.42-11.3,3.49-16.29,2.05-9.59,4.17-19.16,6.17-28.75,4.1-19.64,6.21-38.16,4.16-58.17-.77-7.55-7.89-39.57,1.46-44.69,10.61-5.82,16.91,18.43,19.28,24,7.36-15.37,22.07,23.66,23.52,29.38,3.47,13.76,1.38,26.13.46,40.1-1.43,21.93-6.74,41.3-11,62.86-8.46,42.62-25.74,83.91-39.59,125.13-5.2,15.48-7,23.59-.77,40.07,8.08,21.54,22.36,42.51,33.45,62.59,25.24,45.68,57.28,85.53,85.09,129.6,11.93,18.9,23.47,38,35.37,57,2.06,3.27,6.34,13.94,9.87,15.72,3.76,1.89,16.15-1.18,21.33,0,18.55,4.06,35.76,17.07,50.65,28.38"/><g class="am"><g class="n"><path class="o" d="M1055.84,1125.92c-11.18-18.3-22.61-36.46-33-55.2-20.42-36.77-37.7-75.64-55.17-113.89-18.39-40.28-34.24-81.5-51.25-122.35-15.11-36.29-30.61-72.47-42.27-110-.57-1.24-1.18-2.48-1.74-3.72-10-21.94-7.47-49-5.84-72.33,1.15-16.5,1.48-34.27,10.8-48.62,8.26-12.71,21.86-19,36.34-21.89,12.54-2.46,46.85-.58,37.42-19.93a20.46,20.46,0,0,1-2.2.35,9,9,0,0,1-3.41,2.49c-4.39,1.85-9-1-13-2.8-5.81-2.55-9.81-4.81-15.21-3.39-2.74,2.89-5.93,5.66-9.59,6.91a8.29,8.29,0,0,1-2.89.48c-2.25.54-3.06,0-5.58-.46-5-.85-8.55-3.61-14.43-2.36-7.86,6.7-16.92,12.92-24.64,4.62-4.55-4.89-5.21-13.83-6.92-20-2.15-7.71-4-15.46-7.24-22.69a41.34,41.34,0,0,0-2.81-3.87c-1.26-1.53-3.23-4.39-5.1-5.29l-3.3-2.44-1.47,1.83c.08.48.17,1,.25,1.45,3.76,22.28,6.73,44.85,6.48,67.49-.24,21.77-4.29,43.48-6.44,65.12a254.21,254.21,0,0,0-.13,44.29c1.35,18,15,22.53,25.24,35.12,4.05,5,6.07,14.57,9,22.21l109.91,289.23c4.87,12.81,9.41,25.73,14.89,38.31,8.06,18.48,17.29,36.73,30.53,52.07,11.59,13.42,23.12,29.26,36.23,42.31-.81-12-1.36-24.05-2.61-36-.24-2.36-.54-4.7-.87-7"/></g></g><path class="l" d="M1161,1012.95c-14.89-11.31-32.1-24.33-50.65-28.38-5.19-1.13-17.57,1.93-21.33,0-3.53-1.77-7.82-12.45-9.87-15.72-11.89-18.93-23.43-38.07-35.37-57-27.82-44.07-59.86-83.92-85.09-129.6-11.09-20.08-25.38-41-33.45-62.59-6.18-16.47-4.43-24.59.77-40.07,13.85-41.21,31.12-82.51,39.59-125.13,4.28-21.56,9.59-40.93,11-62.86.91-14,3-26.34-.46-40.1-.8-3.17-5.66-16.52-11.09-25.22l0,.16a4,4,0,0,1,1.08,2.61c.18,3.11.26,6.22.32,9.32,4.29,21.67,3.38,44.23-1.3,65.88-1.23,7.62-2.92,15.11-4.89,22.54a164.12,164.12,0,0,1-4.5,20.15q-.95,4.46-1.9,8.93a4.21,4.21,0,0,1-.87,1.84,114.14,114.14,0,0,1-12.11,36.91c-4.29,11.07-9.07,22-14.08,32.93-10.4,22.73-22,46.69-22.1,72.11,3.52,24.83,16.09,47.6,26.88,69.89,12,24.78,23.35,49.87,35.93,74.36,7.64,14.88,15.94,29.39,24.46,43.77,29.13,43,59.19,85.64,80.06,133.42,13.69,31.34,23.42,64.48,26,98.68,1.76,23.14-2.3,44.31-8.86,65.47,2.52-1.12,5.06-3.19,8.13-6,14.12-13,28.52-25.12,39.38-41.27,23.27-34.63,30.13-84.25,24.27-125.08M941,558.41a6.61,6.61,0,0,1,1,.07c2.25-7.47,4.58-14.91,6.77-22.37,2.65-15.15,4.89-30.3,6.48-45.52.31-7.67.68-15.35.89-23,0-1.45,0-2.9-.06-4.34,0-1.64.09-5.82.13-10.92a168.07,168.07,0,0,0-3-29.62,5.14,5.14,0,0,1-.09-.89c-.12-.05-.21-.12-.32-.17-.11.2-.22.37-.33.59-.13-.3-.27-.66-.42-1.06a3.51,3.51,0,0,1-1.23-3.43c-2.75-7.75-7.6-20.77-14.72-20.38,12,33.24,11.24,70.46,6.37,105-1.08,7.65-2.55,15.09-4.29,22.44-.93,10.44-2.15,20.84-3.73,31.18a15.49,15.49,0,0,1,2.51,1.86,6.57,6.57,0,0,1,4,.59m-30.86.28q.54-1.66,1.06-3.33c-1.22,1.28-2.31,2.14-2.93,2-5.7-.93-3.77-52.87-4.56-59.55-2.93-24.9-12.25-48.48-19.76-72.19-1.7-5.37-5.58-31.15-15-27.35a5.84,5.84,0,0,0-1.07.63,9.71,9.71,0,0,1,.49,2.25c1.52,16.42,10.4,31.06,15.07,46.67,2,6.83,3.83,13.82,5.33,20.88,12.28,29.22,8.66,60.2,8,91a22.21,22.21,0,0,1,13.37-1m-71-112.87c-3.91-7.49-10.15-11.34-14-6.49a8.51,8.51,0,0,1,1.06,1.15c15.24,20.51,17.27,50.31,22.23,74.64,1.28,6.29,2.45,12.57,3.46,18.86,3.44,9.57,7.31,19.13,10.43,28.83.61-.38,1.18-.81,1.82-1.16a11.56,11.56,0,0,1,2.41-1,9,9,0,0,1,2.51-2.26c-5.27-4-7.6-24.12-8.33-28.35-4.84-27.94-8.26-58.72-21.6-84.26"/><path class="x" d="M962.24,418.14c-2.73-3.79-5.52-6.09-7.94-5.07a24.81,24.81,0,0,0-.77,4.83,2.32,2.32,0,0,1,.39,1.11,39.71,39.71,0,0,0,3.21,12c.64,1.55,1.34,3.08,2,4.61,3.27-.59,6.8-2.38,7.64-4.38a58.28,58.28,0,0,0-4.57-13.09m-23.86-25.8a6.08,6.08,0,0,0-6.25,0l-.22.15c-.22,1.57-.41,3.15-.57,4.72a173.32,173.32,0,0,0,4.41,20.13,51.09,51.09,0,0,0,10.62-4.45l-.18-.45a1.8,1.8,0,0,1,.19-2.06c-.63-6.7-4.37-12.4-8-18.07m-67,.13a4.49,4.49,0,0,0-3.56,0,6.16,6.16,0,0,0-2,1.41c-1.59,7.36-.67,14.93,1,22.41a35.44,35.44,0,0,1,12.11-3.79c-1.07-6.61-2.08-14.79-6.61-18.86a4.68,4.68,0,0,1-.95-1.19m-47.53,41.24c-.6,6.35,1.51,13.24,3.46,19a15.75,15.75,0,0,0,1.46,3.92c.58.8.93,1.34,1.14,1.7,0-.28.19-.57.86-.61,2.53-.16,5.91-2.74,8-4.06l.89-.56c-1.62-7.43-3.82-14.62-8.31-20.76-2.73-1.57-5.48-1.39-7.52,1.36"/><path class="v" d="M1108.44,1052.57a154.25,154.25,0,0,1,11.68-22.16c7.66-11.81,18.36-18.66,29.38-26-12-8.65-25.22-16.78-39.17-19.83-5.19-1.13-17.57,1.93-21.33,0-3.53-1.77-7.82-12.45-9.87-15.72-1.5-2.39-3-4.8-4.46-7.19,12.8,29.91,25.85,59.52,33.78,90.87"/><path class="an" d="M949.3,733.44c-4.81-4.72-11.39-6-17.87-5.94-18.12.06-37.86,8.23-51,20.65-10,9.39-21.11,27.87-16.92,42.14,3.73,12.69,14.68,15.87,26,16.27-1.71-4.71-3.14-9.51-4.45-14.36-5.49-1.28-9.33-4.66-7.76-12.83s7.42-16.54,13.29-21.95c8.8-8.12,40.49-24.46,48-10.49,2.67,2.61,4.57,6.51,6,9.37.79,1.57,1.53,3.25,2.27,5,3.46-.12,7-2.48,7.06-6.93.13-8.21,2-14.37-4.62-20.87"/><g class="ao"><g class="h"><path class="i" d="M949.3,733.44a18.48,18.48,0,0,0-5.22-3.56,6.71,6.71,0,0,1-5.66,4.47c-35.31,4.45-77,24.33-66.57,66.72a7.45,7.45,0,0,1,.14,1c4.9,3.15,11.13,4.25,17.45,4.47-1.71-4.71-3.14-9.51-4.45-14.36-5.49-1.28-9.33-4.66-7.76-12.83s7.42-16.54,13.29-21.95c8.8-8.12,40.49-24.46,48-10.49,2.67,2.61,4.57,6.51,6,9.37.79,1.57,1.53,3.25,2.27,5,3.46-.12,7-2.48,7.06-6.93.13-8.21,2-14.37-4.62-20.87"/></g></g><path class="x" d="M938.59,755.63c-19,4-35,17.74-46,33.21-9,12.71-23.18,34.93-16.13,51.44,5.13,12,18,7.86,27.61,4.18a4.17,4.17,0,0,0,.4-.2q-1.48-3.81-2.75-7.7l-.2.06c-2.66,1-6.27,3.08-9.16,3-9.94-.29-9.47-10.34-7.74-17.33C887,813,892.33,804,897.66,796a85.81,85.81,0,0,1,21.63-22.68,61.84,61.84,0,0,1,13.9-7.54c.64-.24,14.17-2.56,18.86-2.11a10,10,0,0,1-1.08,4.08c-.13.34-.24.72-.35,1.1a57.87,57.87,0,0,1,5.11,8.56,29.52,29.52,0,0,0,2.75-6.37c.09-.25.18-.49.27-.74a3.94,3.94,0,0,0,2.13-1.85c7.73-13.73-14.65-14.43-22.29-12.83"/><g class="ap"><g class="h"><path class="i" d="M957.35,757a6.36,6.36,0,0,1-5.48,3.6c-23.3,1.79-40.53,10.34-55.31,28.69-14.12,17.53-20.7,36.1-15.64,56.76,6.25,4.41,15.7,1.31,23.17-1.56.15-.06.27-.13.4-.2q-1.48-3.81-2.75-7.7l-.2.06c-2.66,1-6.27,3.08-9.16,3-9.94-.29-9.47-10.34-7.74-17.33C887,813,892.33,804,897.65,796a85.79,85.79,0,0,1,21.63-22.68,61.8,61.8,0,0,1,13.9-7.54c.64-.24,14.17-2.56,18.86-2.11a10,10,0,0,1-1.08,4.08c-.13.34-.24.72-.35,1.1a58,58,0,0,1,5.11,8.56,29.54,29.54,0,0,0,2.75-6.37l.27-.74a3.93,3.93,0,0,0,2.13-1.85c3.42-6.07.95-9.59-3.53-11.49"/></g></g><path class="j" d="M500.28,1608.42s6.83,74.88,41.84,146.65,116.23,214.79,116.23,214.79,91.89,144.38,87.06,164.77-26.13,36-31.54,38.11-107.32,59.89-128.45,79.19-75.82,65.79-89.57,86.59-84,130.35-84,130.35l-55.33,74,52.82,72.79,63.14-63.39,211.24-180.14,159-137.42s41.56-40.4,42.94-62.47-17.17-125.88-17.17-125.88S842.58,1857,822,1786.38s-78-199.65-78-199.65L598.1,1490.28Z"/><g class="aq"><g class="n"><path class="o" d="M388.24,2537.46c28.39-48.12,60.9-94.11,95.65-137.83,57.92-72.86,120.12-153.13,205-195.62,14.06-7,28-11.37,43-16,12.89-4,37.18-9.49,42.09-24,4.44-13.17-2.83-30.2-7.84-42.22-7-16.88-16.12-32.87-25.48-48.55a2255.57,2255.57,0,0,1-124.11-240.08c-36.58-82.19-78.23-163.69-92.9-252.89l-23.37,28.23s6.83,74.88,41.84,146.65,116.23,214.79,116.23,214.79,91.89,144.38,87.06,164.77-26.13,36-31.54,38.11-107.32,59.89-128.45,79.19-75.82,65.79-89.57,86.59-84,130.35-84,130.35l-55.33,74,16.56,22.82c4.77-9.58,9.71-19.06,15.13-28.26"/></g></g><path class="l" d="M868.52,2046.39S842.58,1857,822,1786.38s-78.05-199.65-78.05-199.65L598.1,1490.28l-97.82,118.14s2.49,27.19,12.12,64.49c2.93-4.35,6.05-8.39,10.11-10,8.69-3.4,18.9,6.5,25.33,12.59,3.7-5.88,8.54-10.82,12.47-16.59a2.58,2.58,0,0,1,3.63-.25c10.89,11.71,21.31,23.83,33.45,34.25,2.26-7.35,5.29-14.43,6.84-22a2.63,2.63,0,0,1,3-2c15.31,2,25.58,13.12,39.06,19.18,2.9-10.06,6-20,10.77-29.36a2.64,2.64,0,0,1,3.45-1.16c6.8,2.54,13.31,5.71,20,8.42,7.72,3.11,9.09.23,13.2-7.09a2.62,2.62,0,0,1,4-.79c8.43,5.94,23.68,26.2,33,8.28a2.6,2.6,0,0,1,4.44-.29c32,45.37,47.48,100.24,62.35,153.06,15.62,55.49,32.31,110.8,44,167.3,9.06,43.81,13.45,95.65,21.48,140.08,9.54,52.83.54,91.66-67.6,106.68-31.19,39-67.83,60.58-96.44,83.86-29,23.58-62.52,40.46-92.18,63-39.2,29.78-75.89,62.67-112.07,96-29.29,27-58.45,54-84.72,84-7.39,8.45-14.84,17.2-22,26.27l21.29,29.34,63.14-63.39,211.24-180.14,159-137.43s41.56-40.4,42.94-62.47-17.17-125.88-17.17-125.88"/><path class="j" d="M777.34,1633.23s-7.5,3.3,27.71,47.55,113.53,141.56,113.53,141.56,142.39,159.22,150.69,180.53,30.28,44.16,25.49,68.22-38.82,82.45-57,127.29-20.35,107.29-18.75,147.56,11.21,195.72-2.38,227.51,69.76,90.36,69.76,90.36l16.89-31.86,36.21-236.47s62.38-217.4,69-234.2,27.43-50.76,25.83-81.86-46.52-168.44-49.43-173.81-77.76-200-126-293.21-102.63-131.05-102.63-131.05Z"/><g class="ar"><g class="n"><path class="o" d="M1036.84,2620.63c.16-23.1.19-46.2.27-69.3.34-103.35,2.71-206.69,19.66-308.87,9.8-59.06,27.57-136.41,87.56-163.94-22.74-40.16-48.58-78.41-75.8-115.65-47.54-65-98.08-127.84-145.9-192.67-39.6-53.69-79.06-110.41-102.22-173.52l-43.06,36.56s-7.5,3.3,27.71,47.55,113.53,141.56,113.53,141.56,142.39,159.22,150.69,180.53,30.28,44.16,25.49,68.22-38.82,82.45-57,127.29-20.35,107.29-18.75,147.56,11.21,195.72-2.38,227.51c-5.62,13.16,5.37,30.89,20.17,47.17"/></g></g><path class="l" d="M1184.89,1905.62c-2.91-5.37-77.76-200-126-293.21s-102.63-131.05-102.63-131.05L777.34,1633.23s-7,3.1,24.59,43.59c-.11-.76-.22-1.52-.3-2.28a2.88,2.88,0,0,1,3.44-3,233.14,233.14,0,0,1,44.85,17.19c-4.08-8-8.2-15.79-10.14-24.83-.48-2.24,1.59-4.77,4-3.47,6.64,3.6,13.08,7.36,19.33,11.54,6.69-8.17,12.36-17.1,19.23-25.14a2.9,2.9,0,0,1,4.53.28,81.11,81.11,0,0,0,5.68,6c4.46-8.49,8.18-17.3,13.69-25.22a2.87,2.87,0,0,1,3.43-.68c7.67,4.45,13.83,10.52,20.43,16.23.26-9.12.51-21.55,7.37-26.59s17.16-.74,24.83,2.34c.93-6.75-.23-13-1.65-19.88-.49-2.39,1.54-4.55,4-3.47,30.17,13.31,47.52,47.78,63.65,74.57,22.83,37.94,46.49,75.09,67.36,114.21,39.44,73.91,74.77,149.94,101,229.6,9.41,28.6,21.27,64.75,9.72,94.45-4.69,12.05-14.72,19.49-24.6,27.16-6.88,5.34-15.46,11.43-17.73,20.36-1.73,6.83.23,15.21,1.11,22.05,4.72,36.7-10.29,72-21.27,106.46-13.15,41.28-26.38,82.35-36,124.63-9,39.4-17.41,79.19-25.18,118.85-7.64,39-13.21,79.09-6.93,118.67a2.28,2.28,0,0,1-1.76,2.73c-.05,1.54-.15,3.07-.29,4.6,7.59,6,12.79,9.64,12.79,9.64l16.89-31.86,36.21-236.47s62.38-217.4,69-234.2,27.43-50.76,25.83-81.86-46.52-168.44-49.43-173.81"/><path class="as" d="M340.75,2487.65l130.64,150.9s-53.73,89-57.38,99.54-3.34,17.38-10.39,13.57a69.45,69.45,0,0,0-14-5.59l12.45,62.05s23.83,40.18,30,55,10.73,24.27,9.79,33.94-2.92,26.67-2.92,26.67l-16.11,8.58s-41,6-70,3.18-85-23.65-85-23.65L266,2870.7l11.3-54.15-2.3-81,5.25-66.17,11.29-24-18.94-23.44s46.53-126.43,68.18-134.25"/><path class="at" d="M425.5,2905.69c-21.51,6.1-46,3.31-67.76.11-21.53-3.16-42.79-8.3-63.83-13.82-8.39-2.2-19-4.72-27.39-9.65l1.34,29.55s56,20.84,85,23.65,70-3.18,70-3.18l16.11-8.58s1.64-14.1,2.64-23.93a146.47,146.47,0,0,1-16.09,5.84"/><g class="au"><g class="h"><path class="i" d="M402.06,2808.13l-12.44-62.05a69.49,69.49,0,0,1,14,5.59c7,3.81,6.74-3.06,10.39-13.57s57.38-99.54,57.38-99.54l-17.09-19.75c-8.47,40.82-33.37,94.71-76,95.77-30.55.76-53.14-28.73-70.49-50a241.58,241.58,0,0,0-16.65-18.43l-2.16,4.59c27.63,43.4,65.07,81.62,83.69,130.28,5.72,14.95,11.12,34.67-2.12,47.11-10.33,9.7-25.07,9.49-37,14.56,10.86,3.24,21.71,6.48,32.32,10.63a206.68,206.68,0,0,1,19.62,8.45,10,10,0,0,1,9.68,3.48c1.63,1.93,3.23,4,4.73,6.22,5,4.61,8.54,10.09,9,16.69a27,27,0,0,1,0,4.5c1.11,8.66-1.64,17-11.4,23-16.19,9.91-38.14,6-55.63,2.48-23.76-4.77-56.21-13.84-75.17-32.79l1.2,26.55s56,20.84,85,23.65,70-3.18,70-3.18l16.12-8.58s2-17,2.92-26.67-3.62-19.09-9.79-33.94-30-55-30-55"/></g></g><path class="as" d="M938.7,2520.15s4.57,141,6.81,150.07,35.69,18.55,35.69,18.55-42.59,31.28-44.18,57-.92,80.73,3.9,86,26.59,101.49,26.59,101.49l63.16-2.87L1016,2843.07l10.54-4.15s43.38,26.35,61.2,55.4a477.5,477.5,0,0,0,37.21,52s133.09,14.6,148.86,2.65,16.07-54.15-3.17-69.78-61.75-22.87-61.75-22.87l-35.35-11.23-59.39-96.34-8.62-12.49,26.76,8,42.85-106.48s-152.2-81.12-182.16-94.43-54.25-23.21-54.25-23.21"/><path class="at" d="M1244.58,2926.24c-24.2,1-47.9,2-72.08.24-13.46-1-27.21-2.37-39.37-8.75-13.31-7-22.11-18.79-31.92-29.76-21-23.5-45.25-47.08-72.46-64.11-29-13.93-61.61-21.9-92-22.29.66,15.35,2,27.85,4.16,30.23,4.83,5.28,26.59,101.49,26.59,101.49l63.16-2.87L1016,2843.07l10.54-4.15s43.38,26.35,61.2,55.4a477.77,477.77,0,0,0,37.2,52s133.09,14.6,148.86,2.65c6-4.55,9.76-13.49,11.05-23.67-13.42-.14-26.86.36-40.26.93"/><rect class="a" x="277.49" y="2496.38" width="751.5" height="378.97"/><path class="av" d="M565,1322.32s-35.63,17.95-60.41,78.21-28.71,94.83-27.21,127.77,13.91,94.35,15.65,102.49,8.23-.41,3.74,21.8-5.49,30.51-5.49,30.51l37.44-38.84,19.4,18.38s20.71-28.45,26.45-23.21,18.2,28.06,18.2,28.06,15-24.06,24.48-27.25,12.76,33.81,21,36.18,10.75-33.5,10.75-33.5,28.75,8.2,39.94,21.57-.54-22-1.18-26.08,42.18,40.27,40,34.09c-1.43-4.12-6.73-39.73-6.73-39.73s29.42,36.61,28.9,39,6.88-33.73,6.88-33.73,6.62,29.61,8.56,33.14,4.43-20.12,4.43-20.12l2.63-15.1s15.41,56.31,17.06,42.55c1.5-12.45,9.52-23.13,9.52-23.13l23.16,15.76s-4.69-12.47-1-22.27S847.34,1670,847.34,1670l-4.06-35.89c19.67,25.24,15.94,35.35,15.94,35.35s9.06-32.36,7.46-43.29,19.17,22.51,19.17,22.51,12.42-29.37,5.25-36,8.85,2.35,18.65,17c4.81,7.19,12.23,3.79,13,9,0,0-3.33-41.11-9.09-45S947.88,1617,947.88,1617s-1.53-10.93-8.79-28.49,30.07,3.5,37.48,6.92,8.57-1.45,7.87-16.89-8.43-22-8.43-22,26.23,20.13,34.51,20.78S996.87,1546,996.87,1546s52.35,27.88,50.5,21.09-36-31.38-38.91-35.37S960.33,1450,960.33,1450l-40-71.08-17.24-18.08S837,1400.58,783.87,1392s-117.4-16-145.54-29.84c-23.68-11.66-67-22.05-73.33-39.82"/><rect class="a" x="477.11" y="1372.56" width="412.09" height="310.53"/><path class="aw" d="M626.76,1432.54c-15.44,7.71-37.31,1-52.47-3.71-9.84-3.07-19.65-6.6-29.2-10.46-3.43-1.39-6.58-1.74-8.26-5.51-5.08-11.41,6.77-27.37,14.06-36.58a19.07,19.07,0,0,0-6-3.39c-30.65,43.71-36.67,95.17-34.31,147.66a589.19,589.19,0,0,0,9.48,82.54c2.61,13.9,4.75,28.11,7.79,42.05l.85-.88,14,13.23c-6.09-32.26-16.17-64-19.6-96.71-4.58-43.83-6.65-92.6,3.71-135.73.63-2.62,3.37-4.76,6.14-4,27.15,7.09,52.32,24.57,81,24.75,13.15.08,22.65-4.77,28.71-16.69,4-7.79,6.4-19.81,0-26.26-1.52,11.75-4.61,24.05-15.94,29.71m164.36,16.37a158.37,158.37,0,0,1-.23,18.41c-.62,10.84-2.9,21.58-5.4,32.12-5.1,21.44-12.65,43.17-27.85,59.62a5.33,5.33,0,0,1-7.33.5,22.16,22.16,0,0,1-5.55-5.86c-3.47,1.66-8.53-.62-7.41-5.47,5.09-22,10-44.53,12.64-67.19,2-20.14,2.42-40.27-.18-60.42a23,23,0,0,1-7.17,1.5c7.55,43.75,1.81,88.92-12.4,130.82a240.35,240.35,0,0,1,21.1,16.55,6,6,0,0,1,4.85-4c14.12-1.67,19.8-20.58,23.41-32,3.83-12.13,7.78-24.43,11.1-36.69,4-14.88,7.15-30.35,7.31-45.8,0-5,0-10.11-.19-15.15,0-.5-.11-1.27-.22-2.12-8.72.22-6.85,8.75-6.46,15.23m158.38-18.2c-4.43,4.45-8.62,9.49-12.73,13.16-10.28,9.16-23,16.82-36.37,20.33-27.16,7.12-38.94-12.64-45.19-35-2.69.71-5.38,1.45-8.07,2.18,3.66,20.71,11.15,49,34.39,48.91,28.21-.11,52.17-24.14,71.82-42.69Z"/><rect class="a" x="585.09" y="1360.83" width="462.32" height="310.92"/><path class="ax" d="M913.47,1371.66c-43.17,38.86-113.85,38.6-168,33.11a486.2,486.2,0,0,1-109.76-24.49c-31.06-10.73-60.85-25-84.82-47.79a154.54,154.54,0,0,0-28.22,33.15c1.38,1.09,2.75,2.21,4.14,3.28,11,5.35,21.58,11.72,33,16.42,17,7,34.29,13.15,51.48,19.52,36.44,13.51,73.93,22.3,112.21,28.79a442.78,442.78,0,0,0,87.48,6.44l3.17-.59c23.42-4.46,46.57-10.37,69.82-15.6,11.75-2.64,23.12-6,33.43-12.37a159.76,159.76,0,0,0,15.12-11l-12.16-21.62Z"/><rect class="a" x="838.01" y="1371.67" width="94.52" height="62.23"/><path class="av" d="M860.83,1384.72c5.35-.72,9.87,11.69,11.59,15.23,5.8,11.91,8.62,25.13,11.9,37.87.68,2.63,1.78,4.71-.18,6.79-1.42,1.51-4.94,2.73-6.8,3.57s-5.38,2.67-7.45,2c-4.19-1.29-4.19-8.35-4.93-11.67-2.4-10.81-5.48-21.74-11-31.45-2.32-4.05-7.09-9.52-5.85-14.48a6.61,6.61,0,0,1,5.48-5.32c3.37-.55,11-1.44,12.25,3-2.26-.57-3.9-2-5-5.52"/><rect class="a" x="847.91" y="1384.69" width="37.34" height="65.64"/><path class="av" d="M617.06,1360.45c4.4,2.58,1.29,13.56.73,16.94-1.88,11.38-6.69,21.93-10.9,32.43-.87,2.17-1.13,4.2-3.7,4.49-1.86.2-5.15-1-7-1.48s-5.45-1.28-6.67-2.89c-2.47-3.27,1.22-8,2.41-10.72,3.87-8.69,7.28-17.84,8.19-27.59.38-4.07-.35-10.5,3.19-13.15a6.08,6.08,0,0,1,6.91-.46c2.83,1.56,9.07,5.35,7.67,9-1.4-1.68-1.87-3.6-.85-6.58"/><rect class="a" x="588.71" y="1357.15" width="30.68" height="57.19"/><path class="ay" d="M796.93,1401.71a51.78,51.78,0,0,1-6.9.09c-8.88-.44-18-1.55-26.82-2.22q-5.17-.34-10.31-1a28.56,28.56,0,0,0-4.4-.34,5.81,5.81,0,0,0-3.32,1.44c-1,1.06-.79,1.43-.92,3.45-.36,5.44-.71,10.88-1.21,16.31-.59,6.38-1.49,12.87-.88,19.28.25,2.63.55,2.95,3.08,3.5,14.21,3.1,29.08,3.92,43.52,5.21a12.69,12.69,0,0,0,7.44,0q2.38.06,2.54-2.58.36-3.48.57-7a80.76,80.76,0,0,0,.23-10.73,114.18,114.18,0,0,0-3-22.08c-.19-.79-.1-1.62-.31-2.39s-.89-1.35.71-1"/><path class="az" d="M779.49,1440.19c22.45,3.23,16.57-25.13,10.71-38.4H790c-8.88-.44-18-1.55-26.82-2.22q-5.17-.34-10.31-1a28.72,28.72,0,0,0-4.4-.33,5.82,5.82,0,0,0-3.32,1.44c-1,1.06-.78,1.43-.92,3.45-.36,5.44-.71,10.88-1.21,16.31-.45,4.91-1.07,9.88-1.07,14.83,12.52,1.79,24.94,4.08,37.5,5.89"/></g><rect class="a" x="972.11" y="2620.52" width="313.25" height="333.16"/><rect class="a" x="959.49" y="2835.21" width="71.19" height="98.09"/></svg>