<svg xmlns="http://www.w3.org/2000/svg" xmlns:xlink="http://www.w3.org/1999/xlink" viewBox="0 0 1735.31 2902.08"><defs><style>.a{fill:none;}.b{fill:#f26065;}.c{clip-path:url(#a);}.d{fill:#ebb583;}.e{fill:#ffca9c;}.f{clip-path:url(#b);}.g{opacity:0.2;}.h{fill:#fff;}.i{fill:#f0b986;}.j{clip-path:url(#c);}.k{opacity:0.3;}.l{clip-path:url(#d);}.m{clip-path:url(#e);}.n{fill:#a20063;}.o{clip-path:url(#f);}.p{fill:#3d0007;}.q{clip-path:url(#g);}.r{clip-path:url(#h);}.s{clip-path:url(#i);}.t{fill:#55a4db;}.u{clip-path:url(#j);}.v{clip-path:url(#k);}.w{clip-path:url(#l);}.x{fill:#407fa8;}.y{fill:#6b0046;}.z{clip-path:url(#m);}.aa{opacity:0.5;}.ab{fill:#380025;}.ac{fill:#b2b6ba;}.ad{clip-path:url(#n);}.ae{opacity:0.9;}.af{fill:#8c959d;}.ag{fill:#522200;}.ah{fill:#2e0000;}.ai{fill:#1a0011;}.aj{clip-path:url(#o);}.ak{fill:#f7b86f;}.al{clip-path:url(#p);}.am{clip-path:url(#q);}.an{clip-path:url(#r);}.ao{clip-path:url(#s);}.ap{fill:#dba97b;}.aq{fill:#ffd1a8;}.ar{clip-path:url(#t);}.as{clip-path:url(#u);}.at{clip-path:url(#v);}.au{fill:#d95da9;}.av{fill:#3c7b87;}.aw{fill:#d9a26c;}.ax{fill:#ffd5b0;}.ay{fill:#270000;}.az{fill:#2fb4c7;}.ba{fill:#d4d8d3;}</style><clipPath id="a"><rect class="a" y="-0.01" width="1735.3" height="2902.09"/></clipPath><clipPath id="b"><rect class="a" x="799.88" y="1124.37" width="196.82" height="81.96"/></clipPath><clipPath id="c"><rect class="a" x="345.58" y="1450.61" width="401.21" height="1302.27"/></clipPath><clipPath id="d"><rect class="a" x="1032.85" y="1479.79" width="235.86" height="1270.67"/></clipPath><clipPath id="e"><rect class="a" x="1236.94" y="2757.08" width="33.6" height="16.26"/></clipPath><clipPath id="f"><rect class="a" x="1278.04" y="2639.22" width="48.39" height="132.77"/></clipPath><clipPath id="g"><rect class="a" x="347.93" y="2641.28" width="124.87" height="129.3"/></clipPath><clipPath id="h"><rect class="a" x="363.42" y="2648.17" width="46.1" height="47.3"/></clipPath><clipPath id="i"><rect class="a" x="1229.02" y="2626.61" width="45.06" height="34.93"/></clipPath><clipPath id="j"><rect class="a" x="718.18" y="1275.25" width="247.77" height="133.55"/></clipPath><clipPath id="k"><rect class="a" x="965.29" y="1258.57" width="98.23" height="118.33"/></clipPath><clipPath id="l"><rect class="a" x="660.9" y="1301.47" width="441.36" height="207.73"/></clipPath><clipPath id="m"><rect class="a" x="726.17" y="1157.56" width="411.2" height="121.72"/></clipPath><clipPath id="n"><rect class="a" x="897.01" y="1238.36" width="55.76" height="39.09"/></clipPath><clipPath id="o"><rect class="a" x="1215.71" y="135.61" width="114.64" height="217.92"/></clipPath><clipPath id="p"><rect class="a" x="783.59" y="137.25" width="215.48" height="211.59"/></clipPath><clipPath id="q"><rect class="a" x="1011.35" y="134.6" width="449.87" height="598.89"/></clipPath><clipPath id="r"><rect class="a" x="1021.83" y="162.01" width="205.62" height="432.11"/></clipPath><clipPath id="s"><rect class="a" x="837.5" y="148.64" width="156.64" height="128.2"/></clipPath><clipPath id="t"><rect class="a" x="471.12" y="364.97" width="431.27" height="367.75"/></clipPath><clipPath id="u"><rect class="a" x="1022.66" y="1042.21" width="124.71" height="63.45"/></clipPath><clipPath id="v"><rect class="a" x="557.65" y="1169.35" width="145.89" height="65.36"/></clipPath></defs><title>blue</title><rect class="a" x="447.82" y="590.85" width="66.65" height="74.79"/><rect class="a" x="411.89" y="702.48" width="122.6" height="105.96"/><path class="b" d="M1460.59,2564.55H280.3a21.7,21.7,0,0,1-21.63-21.63v-2288a21.7,21.7,0,0,1,21.63-21.63H1460.59a21.7,21.7,0,0,1,21.63,21.63v2288a21.7,21.7,0,0,1-21.63,21.63"/><g class="c"><path class="d" d="M919.34,943.44c-2.07-1.47-1.85-2.7-1.1-4.34,1.19-2.63,6.37,5.2,6.76,5.69,3.74,4.72,6.39,10.22,9.51,15.35,9.62,15.81,30.18-1.94,31.64,16.47,2.93,37.06,42.15,78.23,60.92,104.23,9.77,13.54,21.59,25.5,31,39.26,9.12,13.29,43.82,41.22,46.19,44,4,4.81-.68,12.5-2.44,16.69-6.64,15.79-15,22.78-28,33.64-51.63,43.08-117.69,63.07-184.25,67.4-38,2.47-76.41-3.14-111.34-18.53a199.36,199.36,0,0,1-21.11-10.72c-6.41-3.79-12.8-5.94-14-12.41-1.08-5.57,1.29-13.66,1-19.78-.55-10.76-.32-21.56-.32-32.34,0-36.43-.53-72.42-12.55-107.59-11.72-34.3-41-68.8-61.57-90.23,7.12-9.42,2.7-16.54,13.83-24.5,9.78-7,21.64-10.79,32.91-14.57a256.26,256.26,0,0,1,78.09-13.57c24.72-.58,49.62-3.25,74.21-5.71,10.48-1,60.47-10.21,64.12,5.31A29.85,29.85,0,0,0,923,940c-2.05,1.08-.61,3.72-1.71,4.38l-1.95-1"/><path class="e" d="M902.56,1149.08c9,7,14.27,23.35,6.08,32.69-2.15,2.45-5.6.41-5.91-2.33q-.09-.79-.18-1.59c-3.5-6.92-4.53-15.9-5.65-23.35a3.45,3.45,0,0,1,.1-1.4c-1.63-2.76,2.49-6.43,5.57-4m-158.81,25.13c11.07,5.46,21.64,12.77,31,18.22,25.63,14.91,54.87,23.31,83.74,29.33,28.51,5.95,58.34,10.51,87.64,12.24,41.51-19.57,79-47.11,104.13-85.49l-1.81-2.45c-13.47-18.24-26.8-35.91-41.37-53.31-15.92-19-30.94-38.63-43-60.16-2,.73-4,1.46-6,2.21-19,7.15-37.64,15.29-57.07,21.24-14.89,4.56-32.33,8.53-48.86,7.74l.09.14c9.94,10.53,31.53,40.51,30.32,41.75,3.43,5.8,10,28.73,7.76,24.81-10.32-18.1-29.48-31.81-44-46.41-6.16-6.2-15.38-14.51-20.77-23.7q-2.79-2.52-5.52-5.1a143.89,143.89,0,0,1-18.16-3.61c-14.47-2.23-29-4-43.84-3.17-1,.06-2,.17-3.07.24-2.44.49-4.88,1-7.3,1.58-8.91,2.12-17.3,5.67-25.74,9a148.89,148.89,0,0,1,9.34,21.21c10.49,30.7,12.23,62,12.5,93.73"/><g class="f"><g class="g"><path class="h" d="M996.62,1137.23c-.23-.68-1.32-1-1.87-1.45-2-1.5-3.66-3.36-5.75-4.81-3.09-2.14-6.14-4.45-9.29-6.6-9.53,4.14-20.44,7.27-25.06,9.47-1.05.5-2.09,1-3.12,1.56-3.09,1.72-6.15,3.51-9.21,5.32-10,6.24-19.57,13.22-30.43,17.74,3.63,8.12,4.05,18.08.15,25.09a4.49,4.49,0,0,1-7.69.16c-3.76-6.52-5.34-13.81-7.08-21.06-20.77,2.68-41.32,0-61.83-3.75-10-.24-19.94-.36-29.91-.41-.78,2.54-1.55,5.05-2.36,7.45s-1.8,7.18-3.29,11.34a27.72,27.72,0,0,0,2.34,1.7c.31.22.63.41.95.62,2.15,1.18,4.57,2.44,7.11,3.7,3.94,1.65,8.05,3,11.9,4.74,4.35,2,8,4.86,12.6,6.26,6.49,2,12.29,4.46,19,5.72,5.09,1,10.22,2,15.27,3.23,6.61,1.56,13.1,1.72,19.82,2,3.25.12,6.31,1.13,9.57,1.12a42,42,0,0,0,6.49-.83c7.22-1.16,14.24-2.54,21.4-4,12.18-2.44,22.93-8,33-15.14,5.45-3.84,10-8.52,14.66-13.2,5-5,9.88-10.3,13.5-16.47,2.35-4,3.82-8.44,6.17-12.42.88-1.5,3.53-5.35,3-7.08"/></g></g><path class="i" d="M720.39,1390.75c0,31.89-19.44,64.1-25.4,95.29-5,26.38-7.17,53.58-10.15,80.25-7.75,69.19-14.6,138.48-21.29,207.78-4.21,43.62-7.67,87.31-11.35,131-4.54,53.94-49.72,107.59-80.71,150.69-8.1,11.27-56.14,61.74-65.65,82.34-15.61,33.8-33.42,68.81-44.93,104.28-15.29,47.15-25.47,96.9-39.59,144.43-14.39,48.46-30.65,96-57.19,138.72-26.94,43.37-4.18,107.06-10.83,157-1.4,10.54-6.14,20.5-7.44,31-1.61,13,3.87,22.81,8.54,35.63,12.71,35,60.85,27.09,91.12,18,55.87-16.75,9.32-107.75,4.88-145.63-5.64-48.17-16.9-105.72.92-152.91,7.33-19.41,22.78-38.41,33.33-56.2l53.49-90.2c53-89.33,136.08-160.92,167.35-262.65,15.07-49,49.5-86.8,71.87-132.44,19.25-39.27,36.53-76.13,50.64-117.31,36.51-106.54,74.65-210.76,99.9-320.47,4.67-20.3.2-40-1.95-60.7-1.56-15.07.95-55.89-10-64.33-5.13-4-23.35-3.49-29.4-4.39l-52.1-7.79-50-7.47c-7.7-1.15-25.66-7.63-33-4.93-11.75,4.33-24.29,39-31.16,51.08"/><path class="e" d="M846.14,1489.08c-8.21,11.19-2.43.38-15.32,28-1.65,0-28.51-42.11-41.29-61.56-7.33,14-31.86,47.14-32.32,43.45-3.35-27-13.66-34.61-18.87-48.35-19.08,19-36.27,39.17-47.71,63.47-2.25,17.38-3.86,34.9-5.8,52.2-7.75,69.19-14.6,138.48-21.29,207.78-4.21,43.62-7.67,87.31-11.35,131-4.54,53.94-49.72,107.59-80.71,150.69-8.1,11.27-56.14,61.74-65.66,82.34-15.61,33.8-33.42,68.81-44.92,104.28-15.29,47.16-25.47,96.9-39.59,144.43-14.39,48.46-30.65,96-57.19,138.72-26.94,43.37-4.18,107.06-10.83,157-1.4,10.54-6.14,20.5-7.43,31-1.61,13,3.87,22.81,8.53,35.63a40.84,40.84,0,0,0,1.63,3.81c11.36-2.51,22.95-3.73,34.54-5.09.11-9.77.34-19.58-2.21-29.11a1.38,1.38,0,0,1,.5-1.51c0-.12-.08-.24-.13-.35-.76-1.76,2.11-2.56,2.87-.82,4.29,9.88,3.69,20.58,5.26,31,3.82-.48,7.64-1,11.44-1.63A1.53,1.53,0,0,1,407,2744c-1-9.09-2-18.15-4.14-27.05-.17-.29-.31-.6-.49-.89a1.49,1.49,0,0,1,1.46-2.23,1.27,1.27,0,0,1,1.46.67c4.84,9.08,6.68,19.37,8,29.47a1.17,1.17,0,0,1-.07.58c2.68-.51,5.35-1.07,8-1.72a1.18,1.18,0,0,1-.11-.32,110.07,110.07,0,0,0-4.88-27.26c-.53-.86-1.06-1.72-1.62-2.55a1.29,1.29,0,0,1,.24-1.77l0-.08c-.53-1.58,2-2.7,2.71-1.19,1.09,2.27,2,4.58,2.93,6.9,4.22,7.49,7.28,15.84,7.7,24.38,2.2-.7,4.41-1.47,6.56-2.4,2.06-10.11,1.19-20.64-3.7-29.94-.89-1.69,1.62-3.24,2.55-1.55.4.72.72,1.46,1.08,2.2a1.51,1.51,0,0,1,.41.41,55.42,55.42,0,0,1,8.37,24.11,29,29,0,0,0,11.23-14.24c3.86-11.14-1.14-20.63-9.07-27.68l-.18-.09c-9.53-.25-19-1.47-28.54-1.77-.88,0-1.77,0-2.65,0q-3.64.43-7.27.94c-12,1.68-24.23,2.46-35.76,6.44-1.59.55-2.68-1.95-1.19-2.71l.34-.16a1.43,1.43,0,0,1,.77-2.24l3.33-1a1.55,1.55,0,0,1,.4-.36,36.1,36.1,0,0,1,5.77-2.8,1.15,1.15,0,0,1,.93-.72l.4,0h.1c.4-.06.79-.09,1.19-.14,6-1.94,12.47-2.86,18.55-4a162.59,162.59,0,0,1,22.77-2.54c-.71-.45-1.45-.87-2.15-1.34-13.79-9.17-6.34-34.59,11.36-28.62.52.18,1,.38,1.56.56-.25-1.21-.48-2.45-.68-3.72-3.26-21.12-2.47-42.55-2.13-63.84.32-19.79-1.9-39.47-1.33-59.25a273.63,273.63,0,0,1,10.64-68.34,321.41,321.41,0,0,1,23.81-58.36,7.33,7.33,0,0,1,.55-2.27c37.34-86.88,92.9-163.52,141.91-243.92,8.31-18,16.93-35.75,27.67-52.42a198.81,198.81,0,0,1,42.32-47.22c2.27-1.85,4.72-3.72,7.25-5.63,6.37-7.64,13-15.09,19.77-22.4l.08-.26A16.12,16.12,0,0,1,708,2018c3.71-11,7.62-21.9,11.85-32.71,18.41-47.16,44-91,62-138.37a1043.88,1043.88,0,0,0,42.22-142c15.48-68.92,24.71-139,28.94-209.5-2.3-2.1-4.61-4.19-6.88-6.31"/><g class="j"><g class="k"><path class="h" d="M738.35,1450.61c-19.08,19-36.27,39.17-47.71,63.47-2.25,17.38-3.86,34.9-5.8,52.2-7.75,69.19-14.6,138.48-21.29,207.78-4.21,43.62-7.67,87.31-11.35,131-4.54,53.94-49.72,107.59-80.71,150.69-8.1,11.27-56.14,61.74-65.65,82.34-15.61,33.79-33.42,68.81-44.92,104.28-15.29,47.16-25.47,96.9-39.59,144.43-14.39,48.46-30.65,96-57.19,138.72-26.94,43.37-4.18,107.06-10.83,157-1.4,10.54-6.14,20.5-7.43,31-1.61,13,3.87,22.81,8.53,35.63a40.34,40.34,0,0,0,1.63,3.81c7.12-1.57,14.34-2.62,21.58-3.53a169.24,169.24,0,0,1-3.24-48.25c.11-1.62.17-3.21.27-4.83-1.16.34-2.31.68-3.45,1.07-1.59.55-2.68-1.95-1.19-2.71l.34-.16a1.43,1.43,0,0,1,.77-2.24l3.33-1a1.55,1.55,0,0,1,.4-.36l.1-.05c1.21-21.71,1.7-43.11.82-65-1-24.5-1.48-48.91,2.95-73.14,4.84-26.47,20.19-49.29,24.31-75.78a24.38,24.38,0,0,1,2-6.62c9.16-37.55,22.74-74.46,33.23-111.43,13-46,27.77-91.48,46.54-135.46,17.47-40.92,40.36-77.89,70.46-110.77,25.43-27.79,54.3-52.11,82.58-76.93,1.48-5.05,3-10.1,4.56-15.13,8.89-28.28,20.53-54.79,38.87-77.9-1.31-26.2-1-52.55-.15-79,1.76-56.23,6.43-112.3,13.52-168.1,6.05-47.63,12.72-95.81,26.72-141.85,6.05-19.9,12.7-39.63,18.4-59.64,2.56-9,5.35-18.18,7-27.38-3.12-5.55-6.24-10.28-8.45-16.1"/></g></g><path class="i" d="M1024.67,1397.25a1114.53,1114.53,0,0,0,14.16,175.92c11.25,69.74,15.72,146.57,42.9,212.39a860,860,0,0,1,52,180.53c9.43,55.25,3,114.25,17.69,168.6,28.69,106,79.63,210.42,95.71,319.73,3.64,24.72,2.57,52.7-.06,77.47-2.94,27.76-5.81,59-13.1,86-1.58,5.83-4,8.08-5.68,13.12-4.06,12.38-1.79,29.37-7.27,40.6-5.75,11.76-16.51,14.33-18.57,29-1.27,9.07-2.17,31.74,1.91,40.15,14.45,29.76,53.2,38.74,81.6,29.16,35.4-11.95,39.08-45.1,39.08-75.86,0-42.75,8.14-84.63,3.58-127.16-1.45-13.56-2.22-27.6-6-40.75-3.7-12.94-13-25-15.8-38-3.35-15.37-1.74-33.59-2.55-49.24-2.93-56.72-6.13-113.43-8.8-170.17-2.06-43.61-3.15-87.27-4.67-130.9-1.91-55-19.89-100.44-42.62-150.07-7.27-15.86-15-27.67-14.77-44.6.27-22.81,3-45.89,4.55-68.65l11.82-178.12c5.57-83.92,11.53-170.79,8.84-254.85-1.11-34.63-3.25-64.79-28.33-90.18-23.53-23.83-51-44.14-78-63.85-18.5-13.51-16-14-31.34,2.28l-62.7,66.59c-8.5,9-34.24,27.39-33.59,40.88"/><path class="e" d="M1236.51,2697.34a2.21,2.21,0,0,1,0,.26c-2.77,11-3.85,22.38-6,33.55-.42,2.22-3.82,2.26-4.45.18a2.16,2.16,0,0,1-1.9-.86,2.65,2.65,0,0,1-.84.06,17.33,17.33,0,0,1-7.11,3.77c-2.11.57-4.12-2.25-2.33-3.85,11.85-10.61,8.66-30.27,22.84-39.15,2.55-1.6.57,5.29-.24,6m61.58-183q-5.9-38.62-8.62-77.59c-1.73-25.14-2.38-50.39-2.65-75.67-4.64-31-9.59-61.89-15-92.8-6.31-35.73-12.36-71-22.55-105.84-6.76-23.14-13.66-46.44-16.83-70.32-10.29-21-22.05-41.85-21-65.61.71-16.63,7.3-32.13,7.8-48.85a266.4,266.4,0,0,0-4.46-57.14,13.47,13.47,0,0,1-.07-4.38c-.92-8.63-1.61-17.39-2.08-26.34-5.18-99,1.49-198.3-1.61-297.39-1.48-47.35-5.54-93.76-19-139.38-1.84-6.23-3.8-12.43-5.79-18.61-5.24-1.53-13.58-3.88-13.87-2.93-1.42,4.63-.31,9.12-1.41,13.95,0,.88-18.91-9.55-21.81-11.37.75,10.79.18,30,2.47,35.54,1.26,3-28.21-13.75-35.79-21.64l-3.76-3.69c-1.61,17.62-15.32,37.39-13.25,54.66.43,3.57-21.35-22.2-24.9-27.33-.88-.82-1.78-1.61-2.62-2.47-.18.84-.38,1.68-.57,2.51-1.93,18.46-11.17,36.57-23.67,49.9a112.22,112.22,0,0,1-11.65,8.43,6.05,6.05,0,0,1-2.45.77q2.6,21.34,6,42.4c11.25,69.75,15.72,146.57,42.9,212.39a859.83,859.83,0,0,1,52,180.53c9.44,55.25,3,114.25,17.69,168.6,28.69,106,79.63,210.42,95.71,319.73,3.64,24.72,2.57,52.7-.06,77.47-2.94,27.76-5.81,59-13.1,86-1.58,5.83-4,8.08-5.68,13.12-4.06,12.38-1.79,29.37-7.27,40.6-5.75,11.76-16.51,14.33-18.57,29-1.27,9.07-2.17,31.74,1.91,40.16,9.86,20.32,31.06,30.94,52.56,32.59,9.52-7.06,18.47-14.65,24.83-24.55a99.79,99.79,0,0,0,9.82-20.35c-4.14,2.33-8.65,4.28-13.28,4.51,0,.14,0,.29,0,.43a2.35,2.35,0,0,1-2.23,1.75h-.5a2.36,2.36,0,0,1-2.33-2.2,2.09,2.09,0,0,1-3.2,0,23.41,23.41,0,0,1-14.52,2.47,2.48,2.48,0,0,1-2.43-.63c-.27-.09-.53-.19-.79-.29a2.68,2.68,0,0,1-1.45-.1c-.16.17-.29.35-.47.52-1.82,1.89-5.11-.46-3.72-2.74a39.7,39.7,0,0,0,4.53-11.81c-.26-8.51,6.54-33.24,5.42-24.47-3.31,25.74,3.4,33.19,3.4,33.19,6.47.74,14.17-.74,12.68-31.26,1.5-1.64,7.18,15.85,6.69,22.56a10.06,10.06,0,0,0,5.57,2.64c.85-.61,1.68-1.26,2.5-1.93a24.62,24.62,0,0,0,3.87-14.36,1.32,1.32,0,0,1,.55-1.15c-.17-2.34-.24-4.69-.18-7.05,0-1.92,3.28,10.27,4.28,15.35,12.13-.45,5-26.56,6.83-39.47,7.41-53.15-3.67-106.65-4.67-160"/><g class="l"><g class="k"><path class="h" d="M1210.58,2746.48c3.49-30.68,12.91-57.62,27.91-84.31,4.29-9.55,8.51-19.13,11.6-29.15a24.21,24.21,0,0,1,6.26-10.32c2.73-11.41,5.44-22.83,7.16-34.41,4.13-27.76,5-56.14,5.2-84.2-1.2-13-2.75-25.85-4.81-38.6-7.71-47.74-21.43-94.27-35.09-140.58-26.1-88.49-47.35-176.2-45.86-268.43a23.86,23.86,0,0,1-8.73-12.07c-6.28-18.44-13.28-36.59-18.15-55.48-5.26-20.4-11.54-47,4.4-64.32a25.53,25.53,0,0,1,4.58-3.93c-13.06-32.66-29.71-64.2-40.23-97.7a1198.13,1198.13,0,0,1-39.23-167.3c-6.91-42.54-12.86-85.22-14.25-128.29-.49-15.23-1.09-30.46-1.92-45.67,0-.64-.08-1.28-.11-1.91a90.81,90.81,0,0,1-22.34,41.79,112.18,112.18,0,0,1-11.65,8.43,6.06,6.06,0,0,1-2.46.77q2.6,21.34,6,42.4c11.25,69.75,15.72,146.57,42.9,212.39a860,860,0,0,1,52,180.53c9.43,55.25,3,114.25,17.69,168.6,28.69,106,79.63,210.42,95.71,319.73,3.64,24.72,2.57,52.7-.05,77.47-2.95,27.76-5.81,59-13.1,86-1.58,5.83-4,8.08-5.68,13.12-4.06,12.38-1.79,29.37-7.27,40.6-5.75,11.76-16.51,14.33-18.57,29-1.27,9.07-2.17,31.74,1.91,40.16a52.42,52.42,0,0,0,6.14,9.71,21.66,21.66,0,0,1,.08-4"/></g></g><g class="m"><g class="k"><path class="h" d="M1263.12,2760.2a28.39,28.39,0,0,1-7.86-3.12l-.33.62c-3.65,7-10.63,10.59-18,11.34a74.88,74.88,0,0,0,20,4.3,144.1,144.1,0,0,0,13.62-11.23,24.31,24.31,0,0,1-7.42-1.91"/></g></g><path class="n" d="M1312.2,2643.9c-12.28-10.8-27.49-18.67-43.78-21.08a67.07,67.07,0,0,0-22.93.49c-2.58.53-11.47,4.45-16.44,5.63-.27.63-.53,1.29-.76,2-4,12.26-1.86,29-7.14,40.25,9.75-2.36,20.63-2.76,29.3-3.21,17.1-.89,37.86-.87,53.3,7.69,10.64,5.9,19,19.87,10.62,31.25a19,19,0,0,1-2,2.23,5.82,5.82,0,0,1-1.89,5.18c-18.58,17.24-80.4,24.48-109.11,6,.1,8,.88,16.08,3,20.38,14.45,29.76,53.2,38.74,81.6,29.16,35.4-11.94,39.08-45.1,39.08-75.86,0-11.63.61-23.2,1.39-34.74a106.57,106.57,0,0,0-14.23-15.41"/><g class="o"><g class="k"><path class="p" d="M1312.2,2643.9c-1.87-1.64-3.82-3.19-5.82-4.69a95.6,95.6,0,0,1-2.44,30.17q-.13,2-.25,4.08c0,.71-.08,1.42-.12,2.13l.17.09c10.64,5.9,19,19.87,10.62,31.25a18.84,18.84,0,0,1-2,2.23,5.82,5.82,0,0,1-1.89,5.18,35.32,35.32,0,0,1-5.77,4.24c.7,19.73-12.24,40.89-26.68,53.41a67.72,67.72,0,0,0,7.92-2.08c35.4-11.94,39.08-45.1,39.08-75.86,0-11.63.61-23.2,1.39-34.74a106.57,106.57,0,0,0-14.23-15.41"/></g></g><path class="n" d="M444.81,2736c-8.41,2.09-18.77,2.73-28.63,2.44a76.47,76.47,0,0,1-24-.53c-13-2.17-36-8.71-31.32-26.51,4.78-18.13,34.09-24.1,49.64-26.06a53.41,53.41,0,0,1,22.5,2,6.86,6.86,0,0,1,.73-.2c17.09-2.89,38.68,18.56,32.26,35.64-3.55,9.45-11.85,12.4-21.18,13.25m12.5-85.24a70.33,70.33,0,0,0-6.26-3.38c-21.4-10.06-45.8-11.21-66.21.81-14.15,9.48-25.77,22.88-32,38.45a3.77,3.77,0,0,1-.48.84c-1.93,8.75-5.44,17.2-6.53,26-1.61,13,3.87,22.81,8.54,35.63,12.71,35,60.85,27.09,91.12,18,44.3-13.28,24.22-73.22,11.79-116.37"/><g class="q"><g class="k"><path class="p" d="M457.31,2650.71a70.49,70.49,0,0,0-6.26-3.38,84.78,84.78,0,0,0-17.68-6.05c.85,7.86,1.3,15.76,2.16,23.64.78,7.2,3,14.73,4.46,22.13,15.59,2.22,31.65,20.63,26,35.66-3.51,9.34-11.68,12.32-20.88,13.21-1.18,5.8-2.17,11.58-4.37,17.2a137.15,137.15,0,0,1-6.37,13.81c-.53,1-1.16,2.27-1.89,3.65,4.59-1.07,9-2.27,13.06-3.49,44.3-13.28,24.22-73.22,11.79-116.37m-97,63.49a72.38,72.38,0,0,1-8.63-24c-1.14,4.48-2.59,8.9-3.8,13.35a37.76,37.76,0,0,0,6.78,10.7c1.2,1.4,3.84,4.51,6.81,7.47a14.36,14.36,0,0,1-1.16-7.52"/></g></g><g class="r"><g class="k"><path class="h" d="M402.1,2649.3c.44,0,.66-.29.5-.7s-.59-.25-1-.3a24,24,0,0,0-2.61,0c-2.68,0-4.93.81-7.48,1.62s-4.76,2.36-7.18,3.47a20,20,0,0,0-3.61,2.37c-1,.72-2.06,1.23-3,2s-1.59,1.74-2.46,2.51-2.07,1.53-3,2.49c-1.42,1.44-3.22,2.76-4.48,4.21-.84,1-5.75,8.45-4,9.05a17.17,17.17,0,0,0,3.22-2.57c1.47-1.19,2.78-2.54,4.27-3.73a20.25,20.25,0,0,1,4.36-3c.86-.38,2.48-.66,3.14-1.29.07,1.41-1.47,2.06-2.41,2.78-1.18.91-2.08,2.1-3.19,3.09-3.28,2.94-6.67,6.6-8.16,10.86-.46,1.31-.07,1.68,1.26,1.5s2.79-1.55,4-2.29c2-1.3,3.36-2.77,5.76-3.35,1.48-.36,3.32,0,4.67-.64-.31.73-1.3.81-1.92,1.23a46.15,46.15,0,0,0-4.77,4.09c-3.3,3-6.77,7.06-8.33,11.3-.37,1-.66,1.58.61,1.49s3.19-2,4.1-2.64c4.7-3.51,10.46-5.41,15.89-7.48,2.47-.94,4.93-1.95,7.35-3,2.13-.92,4.34-1.12,6.47-2,1.88-.74,3.55-1.84,5.39-2.64a13.15,13.15,0,0,0,3.11-1.58c3-2.44-2-4-3.93-4.05a34.8,34.8,0,0,0-9.25,1.25c-1.26.28-2.59.14-3.65.71.09-.83,1.32-1.45,2-1.89a29.09,29.09,0,0,1,6-3,15.31,15.31,0,0,0,4.57-2.77c.5-.43,1.87-1.22,1.76-1.9s-2.19-1.54-2.81-1.7a21.48,21.48,0,0,0-5.6-.59c-3.07,0-6.57.05-9.35,1.55a21.46,21.46,0,0,0,3.38-2.29c2.08-1.4,4.27-2.65,6.46-3.87s6.91-3.13,7.47-5.83a2.85,2.85,0,0,0-1.27-3c-.64-.48-3.42-1.08-3.73-.11a4.6,4.6,0,0,1,1.49.61"/></g></g><g class="s"><g class="k"><path class="h" d="M1264.32,2627h-5.84c-3,0-6-.39-9-.42a18.81,18.81,0,0,0-7.42,2,33.93,33.93,0,0,0-3.54,1.87c-1.12.69-2.31,1-3.45,1.65s-6.89,4.5-3.29,5.25c1.73.36,3.49-.36,5.15-.4,1.42,0,3.76-.41,5.09.08a7.2,7.2,0,0,1-1.62,2.17,9.56,9.56,0,0,1-3,1.77,14.63,14.63,0,0,0-3.35,1.8,17.52,17.52,0,0,0-2.33,2,2.91,2.91,0,0,0-.83,1.85c-.06,1-.11,1.39.84,1.77,2,.81,4.14.24,6.22.92-.5,1.42-2.77,2.48-4,3.27a11.63,11.63,0,0,0-4.49,5.32c-.55,1.31-1,3.42,1,3.56a12.81,12.81,0,0,0,3.16-.58c2-.47,4.13-.9,6.17-1.23,5.71-.94,11.82-.36,17.6-.36a60.15,60.15,0,0,0,14.83-1.48c1.31-.33,2.64-.85,1.17-2a18.68,18.68,0,0,0-5.77-2.63,65.41,65.41,0,0,0-8.8-2.05c-1.49-.23-3-.24-4.47-.55a4.77,4.77,0,0,0-1.78-.25,3.64,3.64,0,0,1,1.81-1,45.24,45.24,0,0,1,5.16-1c2.37-.29,7.63,0,8.54-3s-2.61-4.79-4.8-5.84a35.68,35.68,0,0,0-7.71-2.11,14.75,14.75,0,0,0-4.52-.5,11,11,0,0,1,3.24-1.06c2.1-.26,4.26-.41,6.37-.5a15.06,15.06,0,0,0,6-1.07c.87-.42,1.87-.83,2.13-1.86.5-2-2.65-3.94-4.19-4.49a13.74,13.74,0,0,0-5-1.12,26.19,26.19,0,0,0-3.67.43"/></g></g><path class="t" d="M737,1215.53s-14.11,43.25-12.71,44.27S704.79,1331.59,698,1355s-37.06,71.19-37.06,71.19l20.48-16.58s-5.85,22.43,0,16.58,22.43-11.7,22.43-11.7-2.93,45.84,0,35.11,39-29.26,39-29.26,21.45,39,21.83,32.18,16.56-31.21,16.56-31.21,59.13,59.49,58.15,55,4.88-17.91,4.88-17.91,36.08,41,32.18,34.14,5.85-37.06,5.85-27.31,23.41,44,23.41,44,3.9-30.36,4.88-25.49,17.55,25.49,17.55,25.49l5.85-69.37s-8.78,3.9,11.7,2,46.81-7.8,46.81-7.8,12.68,72.17,20.48,75.09,9.75-50.71,19.51-45.84,6.83,45.84,6.83,45.84l9.75-7.8c9.75-7.8,13.65-54.61,13.65-54.61l24.38,18.53s2.93-35.11,5.85-40,45.84,24.38,45.84,24.38l-6.83-41.94,26.33,14.63,2-17.55s54.61,14.63,45.84,10.73-21.46-38-21.46-38,55.59,31,54.61,23.16-7.8-14.88-7.8-14.88h44.86s-21.94-17.55-61-107.27S1098.78,1154,1092.93,1152c0,0-30.23,35.41-63.39,49.07s-107.28,31.12-121.9,30.14-95.57-4.92-95.57-4.92l-64.37-21.48Z"/><g class="u"><g class="g"><path class="h" d="M965.17,1396.17a3.74,3.74,0,0,1,.78-2c-.36-17.43-3.67-34.87-6.91-51.92-2.94-15.49-5.21-32.34-8.83-48.31-52.44,11.45-106.14,8.36-157.71-5-1.91-.13-3.81-.29-5.71-.44a23.65,23.65,0,0,1-2.71,3.79c-3.48,4-8.81,5.76-13.94,6-4.77.27-10.31-2.17-13.71-5.42a20.34,20.34,0,0,1-5.32-9.06,288,288,0,0,1-30.33-8.64c-.78,2.92-1.66,6.14-2.61,9.58,17.5,4,34.56,11.53,50.39,18.67,26.13,11.78,52.05,24.27,76,40,28.76,18.91,56,40.41,82.61,62.15,1.26,1,2.51,2.07,3.76,3.1,7.56-1.57,15.13-3.08,22.72-4.46,2.9-.53,6.66-1.36,11-2.29.13-2,.29-3.92.5-5.89"/></g></g><g class="v"><g class="g"><path class="h" d="M979.61,1376.9c24.17-38.93,53.26-75.17,83.92-109.05-2.45-3.09-4.86-6.21-7.34-9.27-3.94,1.38-7.82,2.7-11.53,3.9-3,1-6.1,1.92-9.16,2.83-1.19.45-2.37.92-3.57,1.36-22,8.16-44,17.22-66.63,23.56,2.94,10.27,5.53,20.66,7.75,31.09,3.91,18.31,5.71,36.91,6.56,55.58"/></g></g><g class="w"><g class="g"><path class="h" d="M839.95,1360.28c-19.78-14.69-42.38-28.64-67-32.91a3.22,3.22,0,0,1-2.74-2.34c-19.22-6.88-38-15.3-56.72-23.56-5.74,20.12-12.25,42.28-15.53,53.52-6.83,23.41-37.06,71.19-37.06,71.19l20.48-16.58s-5.85,22.43,0,16.58,22.43-11.7,22.43-11.7-2.93,45.84,0,35.11,39-29.26,39-29.26,11,20,17.38,28.85c-4.54-17.09,18.45-54.79,47.42-59.91,9.94-1.75,57.88,1.42,76.62,12.47-12.62-15.82-28.19-29.5-44.29-41.46m188.51,3.39a365.68,365.68,0,0,0-29,46.2,246.2,246.2,0,0,0-11,25c2.52-.52,4-.86,4-.86s12.68,72.17,20.48,75.09,9.75-50.71,19.51-45.84,6.83,45.84,6.83,45.84l9.75-7.8c8.27-6.62,12.33-41.27,13.37-51.66-5-19.85-12.11-19.41-10.54-40,1.5-19.71,6.09-36.63,15.33-54,4.32-8.14,9.6-17.66,15.25-24.94,2.19-2.83,17.41-23.09,19.8-25.76-25.36,15.9-56.09,34.76-73.81,58.76"/></g></g><path class="x" d="M982,1421.33c-5.77-24.43-.78-50-2.85-74.81-2.35-28.19-8.78-61.72-26.55-85a5.22,5.22,0,0,1-1.5-.32c15,36.45,26,76.29,22.55,115.94a5.06,5.06,0,0,1-4.82,4.92c-30.41,3.86-30.22-36.09-32.75-56.51-1.4-11.27-9-33.35-8.7-50.66a43.3,43.3,0,0,0-4.91.63q4.52,34.24,10,68.29c2,12.54,2.77,37.59,16.38,43.16,7.07,2.89,16.44-.21,21.93,5.21,7.1,7,4.11,20.41,2.68,29a4.7,4.7,0,0,1-3.37,3.47c-21.91,3.78-41.88-.54-62.76-6,3.36,21.37,1.29,42.48,1.54,64.2,0,1.51,0,3,.09,4.59.67-3.36,1.26-5.29,1.57-3.76,1,4.88,17.55,25.49,17.55,25.49l5.65-67c1.81.25,5.36.23,11.9-.39,16.61-1.58,39.67-6.29,46.81-7.8.25-3.41,1.57-8.23,2-11.63-1.41.18-6.41,2.35-7.78,2.51a4.88,4.88,0,0,1-4.73-3.53M862.77,1277.11a46,46,0,0,1-11.53,37,32.66,32.66,0,0,1-14.34,10.15,3.92,3.92,0,0,1-2.86,0c-15.35,5-33.54,1.6-49.72-3.5-14.62-4.61-28.6-10.91-42.73-16.79-7.44-3.1-16.88-7.63-26-10l-1.91,6.74c10.5,10.61,28.75,18.21,41.66,23.45,18.25,7.4,38.09,12.46,57.79,13.47,18.5.95,40.4-1.33,50.26-19.31,7-12.81,6.09-28.16,1.57-41.63-.74.06-1.47.22-2.21.35m413.51,108.6s-21.94-17.55-61-107.27S1098.78,1154,1092.93,1152a232.42,232.42,0,0,1-21.28,21.24c4.08,3,7.21,5.57,8.38,6.44,19.23,14.24,39.37,28.86,54.61,47.52,7.66,9.38,14.14,20.89,5.4,31.57-9.35,11.42-25.94,19.28-39.06,25.64-15.55,7.52-31.86,8.18-45.21-3.7a140.49,140.49,0,0,1-25.61-31c-.83-1.09-1.62-2.23-2.4-3.36q-3.15,1.7-6.39,3.17,1.74,2.78,3.6,5.64a10.16,10.16,0,0,1,.86,1.2,5.34,5.34,0,0,1,.74,1.22c11.9,17.74,27.57,35.94,48.68,40.32,28.88,6,53.42-19,72-37.4,1.76-1.75,5.08-2.14,6.88-.16,26.57,29.3,35.28,66.71,48.41,103a301.74,301.74,0,0,0,12.37,30c12.84,6.25,24.8,10.91,24.34,7.26-1-7.8-7.8-14.88-7.8-14.88Z"/><path class="y" d="M758.31,1262.53c47,14.2,97.19,18.08,146.1,16.8,47.65-1.25,94.9-10.44,138-31.4,20.62-10,40.43-21.29,58.89-35,9.63-7.12,19.59-14.86,27.75-23.69,2.93-3.17,5.49-6.86,8.35-10.21a237.53,237.53,0,0,0-33-21.53,213.08,213.08,0,0,1-19,15.35c-11.27,10.15-24.89,18.05-39.26,24.59a146.87,146.87,0,0,1-25.65,13c-.65.33-1.28.71-1.94,1-31.69,15.87-65.38,23.42-100.43,27.31-40.07,4.45-80.89,3.27-120.28-5.75-20.1-4.6-39.32-12-58.27-20.15l-2.59,2.59s-7.21,22.09-10.81,35.07c12.14,3.57,24.49,9.61,32.15,11.93"/><g class="z"><g class="aa"><path class="ab" d="M1104.38,1157.55a212.81,212.81,0,0,1-19,15.35c-1.28,1.15-2.6,2.27-3.93,3.36a142.59,142.59,0,0,1,31.44,27.73,149.94,149.94,0,0,0,16.1-14.7c2.93-3.17,5.49-6.86,8.35-10.21a237.38,237.38,0,0,0-33-21.53m-58.23,39.94-.55.33c3.52,4.2,6.93,8.5,10.16,13,5.12,7.11,10.89,14.28,14.59,22.3,7.74-4.47,15.31-9.21,22.69-14.29-9.05-10.59-17.91-21.35-27.55-31.42a192.55,192.55,0,0,1-19.35,10.09M844,1240.15q-12-1-23.94-2.83a217.37,217.37,0,0,1-2,37.86q13.11,1.75,26.32,2.78a216.64,216.64,0,0,0,.24-32.52c-.2-1.76-.41-3.53-.61-5.29m-36.27,27.09c-.32-5.7-2.76-8.37-3.89-13.38a23.23,23.23,0,0,1-.24-6.49c.21-6-.49-9.44-2.32-13.56-1.13-.25-2.28-.45-3.41-.71-20.1-4.6-39.32-12-58.27-20.15l-2.59,2.59s-7.21,22.09-10.81,35.07c12.14,3.57,24.49,9.61,32.15,11.93a372.3,372.3,0,0,0,49.28,11.12c0-.13,0-.27.05-.4,0-.41.05-.82.07-1.22,0,0,0-.09,0-.13,0-.64,0-1.29,0-1.93,0-.91,0-1.82,0-2.72m110.42-28.4q-8.47.94-17,1.53c2,12.58,4.78,26.39,4.52,38.92a374,374,0,0,0,71.73-8.8c-2.32-13.71-5.27-27.38-6.58-41.15a361.89,361.89,0,0,1-52.7,9.49"/></g></g><path class="ac" d="M964.63,1261.72c-.37-2.63-.67-5.26-1-7.9-.18-1.13-.39-2.24-.55-3.38-.3-2.09-2.35-15.65-4.69-21.12a38.46,38.46,0,0,1-7.72,1,114,114,0,0,1-22.13,3.14c-7.85,1.25-15.55,3-23.52,3.75a12,12,0,0,1-4.25.87,70.4,70.4,0,0,1-7.11.35c1.94,14.5,2.32,29.76,2.19,44.57,7.24,2.81,17.66.37,25.25.51,16,.29,30.83-1.23,46.53-2.56-1-6.41-2.12-12.81-3-19.25"/><g class="ad"><g class="ae"><path class="h" d="M897.15,1248.37c-.11,1.59-.17,3.18-.12,4.76A276.25,276.25,0,0,0,914.1,1277c3,.09,6,.23,8.92.34-5.79-7-11.61-14-17.59-20.8q-4.09-4.12-8.28-8.15m5.12-8a18.85,18.85,0,0,0-4.15,1.89c3.29,3.49,6.5,7.06,9.68,10.64q11.85,11.83,22.77,24.53,3.67,0,7.33-.14-4.67-5.11-9.4-10.17c-8.47-9-16.67-18.8-26.23-26.75m19.44-2c-5.84.1-11.83,0-17.48,1.13,8.94,7.72,16.72,16.95,24.77,25.53q5.54,5.91,11,11.9a33.67,33.67,0,0,0,4.2-2c2.86-2.89,6-5.65,8.61-8.2-9.72-10.19-19.47-20.34-31.07-28.39M899,1274.29a36.13,36.13,0,0,0,6.13,2.64c2-.08,4.07-.08,6.11-.05-4.93-6.24-9.69-12.61-14.13-19.22.55,5.54,1.47,11.08,1.89,16.64"/></g></g><path class="af" d="M964.63,1261.72c-.37-2.63-.67-5.26-1-7.9-.18-1.13-.39-2.24-.55-3.38-.3-2.09-2.35-15.65-4.69-21.12-.67.18-1.39.33-2.14.46.07.39.13.77.19,1.16a63,63,0,0,1,1.57,9.27c2.5,12.21,5.42,28-3.28,34.58l-.14.27a1.86,1.86,0,0,1-1.88,1,15.13,15.13,0,0,1-2.37,1c-8.62,2.66-19.89,1.52-28.7,1.19-7.69-.29-15.36-.91-23-1.45-.93-.07-1.84-.08-2.74-.06q0,3.19,0,6.35c7.24,2.81,17.66.37,25.25.51,16,.29,30.83-1.23,46.53-2.56-1-6.41-2.12-12.81-3-19.25"/><path class="t" d="M1061.22,1193.78c4.2,4.73,16.95,22.31,19,26.79s4.59,8.76,6.78,13.17c2.7,5.43-4.44,11.5-9.27,14.16-7.49,4.11-11.85-1.26-15.4-7.86a116.54,116.54,0,0,0-7.33-11.52c-2.48-3.53-4.93-7.36-7.5-10.85-4.32-5.88-10.12-11.31-13.5-17.49-2.82-5.17,1.86-12.44,6.38-15.32,2.87-1.83,5.4-1,8.62.29,3,1.19,10.2,6.35,12.22,8.63"/><path class="x" d="M1087,1233.75c-2.19-4.41-4.72-8.67-6.78-13.17s-14.81-22.07-19-26.8c-2-2.27-9.22-7.44-12.22-8.63-3.22-1.27-5.75-2.11-8.62-.29-.18.11-.36.25-.54.37a17.7,17.7,0,0,1,6.38,1.67c12.48,5.94,23.58,22.48,30.58,34,2.77,4.56,8.89,17.16,3.49,21.76a6.24,6.24,0,0,1-4,3.56c-5,1.73-9.71-1.54-13.71-5.74,3.51,6.38,7.84,11.41,15.15,7.39,4.83-2.66,12-8.73,9.27-14.16"/><path class="t" d="M839,1235.57c-.07-3.45,1.53-.79,1.16,1.41-.77,4.54-2,9-2.65,13.58-.75,4.94-2.77,32-3,35.71s1.25,7.25-2.91,9c-4.42,1.84-14.46-.28-16.47-5.2-1.23-3-.18-9.15-.18-12.4v-15.19c0-3.11,0-6.26.07-9.36s1.34-12.26,1.69-14.21c.41-2.34,1-12.18,4.13-14.16,2.67-1.72,13.13-.13,14.11.07,1.54.32,8.6,6.56,4.07,10.77"/><path class="x" d="M834.9,1224.8c-.27-.06-1.29-.22-2.65-.39.15.45.27.93.38,1.41,9.31,5.45,1.67,33.87,1.29,40.87-.2,3.73-.16,10.64-1.4,16.25a2.44,2.44,0,0,1,0,.31v3.35a4.3,4.3,0,0,1-.13,1,3.71,3.71,0,0,1-2.72,4.28,16.25,16.25,0,0,1-6.61.25,10.79,10.79,0,0,1-5.17-.37,15.9,15.9,0,0,1-2.7-.57c3.08,4.06,12.36,5.7,16.41,4s2.66-5.19,2.91-9,2.27-30.77,3-35.71c.69-4.57,1.88-9,2.65-13.58a4.66,4.66,0,0,0-.3-2.49c2.51-4.12-3.6-9.41-5-9.7"/><path class="ag" d="M1453.93,555.91c-3.24,4.31-6.49,8.6-9.79,12.86-17.18,23.5-39.11,44-65,57-16.67,8.37-35.25,13.24-54,12-20.65-1.33-38.64-10.58-55.5-22-60.34-40.8-94.63-107.44-116.31-175.11-6.11-19.08-11.34-38.42-16.07-57.89-2.48-10.19-4.22-20.74-7.38-30.74-3.61-11.42-9.64-21.76-16.69-31.38-1.12-1.53-3.71,0-2.57,1.51,7.38,10.07,13.71,21,17.11,33,2.62,9.32,4.37,18.94,6.66,28.35,4.55,18.74,9.58,37.38,15.4,55.77,11.08,35,25.06,69.36,44.49,100.59,18.95,30.45,43.25,57.51,73,77.79,15.62,10.67,32.17,19.69,51.16,22.31,17.94,2.48,36.12-.62,52.79-7.45,39.17-16,70.44-49.78,90.79-86.18a1.4,1.4,0,0,0,.12-1.18c-2.3,3.91-5.88,7.58-8.21,10.68M1204.15,460.7a363.35,363.35,0,0,0,16.93,34.94,142.22,142.22,0,0,1-13.48-12c-2.75-6.44-5.26-13-7.59-19.53-11.13-31.17-19.73-64.56-38.77-92.05,26.64,19.7,30.9,60,42.91,88.6M1168,374.79a46.15,46.15,0,0,0-9.59-6.63c-.81-1.09-1.6-2.18-2.45-3.25-.25-.31-.79.11-.55.42.52.7,1,1.42,1.52,2.13a.74.74,0,0,0-.61,1.34c1,.61,2,1.31,3,2,21,31.25,29,71,42.58,106.83-16.14-17.85-29.09-39.11-41.68-59a.56.56,0,0,0-1,.56c13.16,22.81,27,46.52,45.47,65.64,10.2,24.89,23.85,47.45,47.57,63.3,50.3,33.6,125.67,14.37,170.53-19.85,24.8-18.91,45.1-47.11,43.66-79.55a.46.46,0,0,0-.25-.39,95.66,95.66,0,0,1-6.81,28.52c-17.71,45.87-71.21,74-117.89,82-28.11,4.79-59.19,3.41-84.18-11.62-21.94-13.19-36-33.82-46.53-56.37a134,134,0,0,0,13.95,11.28c2.46,4.23,5,8.39,7.6,12.44,10.8,16.79,24.53,31.59,43.37,39.21,23.86,9.66,51,4.51,74-5.07a.58.58,0,0,0-.31-1.12c-23.4,5.52-46.81,12.82-70.48,4-21.69-8.12-36.27-25.81-47.74-45.17,28.23,17,63.29,19.71,94.82,10.75,59.73-17,91.6-76.4,101.67-133.86,5.89-33.64,5.43-68.56-2.89-101.74,0-.12-.11-.16-.18-.24a55.09,55.09,0,0,1,.09,7.66c9.25,54.67,3,115.64-25.11,163.89-14.29,24.56-35,45.4-61.46,56.49-31.15,13.05-69.57,13.45-99.75-2.38a112.93,112.93,0,0,1-10.58-6.38c-8.55-14.87-16.84-30.59-22.85-46.53-6.07-16.1-10.37-32.81-17.13-48.66a136.71,136.71,0,0,0-6-12.54c3.77,4.67,7.65,9.19,11.67,13.47,5.92,10.18,10.81,21,15.37,30.49,10.64,22,21.3,46.22,41.36,61.42,36.77,27.86,93.15,12.44,115.86-25.89a96.9,96.9,0,0,0,11.57-65.85c.28,5.39-.55,11.32-.92,15.47,0,.24-.06.47-.08.71-1.79,38.16-22,73.75-62.21,83.88-24,6-50.16,1.37-68.42-15.92-18.07-17.11-27.56-40.73-38.64-62.49-2.59-5.08-5.34-10.62-8.37-16.2,17.87,17.24,38.89,28.88,66.91,26.09,36.38-3.63,70.25-23.52,96.64-48,28.09-26,48.28-58.91,53.55-97.23,6-43.54-4.47-87.7-11.23-130.53a.5.5,0,0,0-.68-.37,142.67,142.67,0,0,1,1.29,15c4.21,31.48,10.31,62.88,9.47,94.74-1,39.64-15.86,75.1-42.66,104.27-25.1,27.32-58.56,50-95.33,57.49-15.63,3.19-31.55,3-46.47-3.05-12.72-5.2-23.62-13.94-33.16-23.69-1.26-1.29-2.43-2.64-3.65-4-5.12-8.29-11-16.06-18.19-21.85-12-15.65-23.28-31.87-37-46-.77-.79-2,.41-1.2,1.2,10.67,11.23,20.56,25.05,30.79,38.86m71.3-6.89c23.72-4.48,46.09-13.11,64.79-28.67,37.82-31.48,51.41-82,52.26-129.44a310.86,310.86,0,0,0-9.27-81.38.41.41,0,0,0-.42-.33c.29,2.22.47,4.45.57,6.67,7.94,43.78,10.67,89.51-1.75,132.73-13.23,46-45.25,81.47-91.91,94.35-24.61,6.8-58.32,12.6-81.57-1.3a.76.76,0,0,0-.76,1.31c19.78,12.26,46.2,10.2,68.07,6.06m195.35,318.25c-22.73,10.39-47.23,15.8-72.46,14.69-1.13,0-2.25-.13-3.38-.21.53-.17,1-.31,1.57-.49,29.55-10.24,53.86-33.51,66.39-62a1.52,1.52,0,0,0,0-1.31,140.68,140.68,0,0,1-16.51,23.35,110.15,110.15,0,0,1-49.59,36.72,87.08,87.08,0,0,1-10.24,3c-24.16-2.9-47.52-11.3-68.6-23.41-25.16-14.45-48.11-34.42-65-58.09-17.85-25-29.22-55-36.64-84.69-1.88-7.53-7.11-44.66-20.64-39.87a.64.64,0,0,0,.34,1.24c8.86-1.81,12.8,18.53,14.29,24.28,2.59,10,4.76,19.93,7.74,29.79,8.79,29.11,20.76,57.54,40.32,81.14,29.6,35.71,71.53,62.92,117.43,71.37-23.22,2.32-46.51-4.56-66.89-16.86-26.66-16.1-48.63-39.82-65.21-66C1192.48,595,1178.92,566.87,1174,539c-1.83-10.31-3.22-20.87-6.73-30.79-2-5.68-5.11-13.31-12-13.79-1.92-.13-1.91,2.85,0,3,8.83.62,11.4,18.63,12.77,25.14,1.65,7.86,2.45,15.94,4.45,23.72A258.91,258.91,0,0,0,1215.07,635c30.53,41,81.37,79.79,134.65,68.16,3.07.37,6.14.68,9.24.88a145.3,145.3,0,0,0,87.4-22.08.68.68,0,0,0,.14-1.06,52.34,52.34,0,0,1-11.86,5.27"/><path class="ah" d="M1039.06,790c5.77,11.6,13.42,22.21,21.18,32.54,15.69,20.89,33.11,40.52,50.72,59.81.32.35.8-.16.51-.51-17.18-20.77-35.42-40.63-51.51-62.3-7.43-10-14.66-20.23-20.16-31.45-5.4-11-9.87-22.44-16.14-33a.51.51,0,0,0-.89.52c6.32,11.06,10.62,23,16.28,34.4m77.12,104.66a412.3,412.3,0,0,1-46.49-48.38,366.47,366.47,0,0,1-38.4-57.8,313.53,313.53,0,0,1-13.95-29.82c-2.31-5.71-4.74-12.35-10.31-15.61-.41-.24-.91.35-.52.68,6.93,5.87,8.81,16.34,12.2,24.41a303.92,303.92,0,0,0,13.87,28.61,364,364,0,0,0,38,56c14.46,17.56,30.64,33.39,47.63,48.47,15.33,13.6,31.64,28.46,51.69,34.42a.6.6,0,0,0,.46-1.09c-20.2-10.51-37.33-24.78-54.24-39.87m116.34-122.13c-21.86-16.42-37.55-39.83-51.61-62.89-15.81-25.93-31.63-51.85-48.76-76.94-5.07-7.43-10.37-14.94-15.95-22.28,9.43,9.65,19.11,19.06,28.69,28.56,25.12,24.88,47.82,51.87,71.68,77.93,22.25,24.3,45.61,48.24,71.19,69.09,3.76,3.07,7.63,6,11.59,8.82-23.88-2.68-46.94-7.34-66.83-22.28m181.69,12.51c-9,24.62-32.38,32.69-56.94,30.41-18.2-1.69-34.67-8.76-49.71-18.4l.51-.05a.64.64,0,0,0,0-1.28l-3-.3a224.56,224.56,0,0,1-22.71-17.52c-47.37-41.18-85.56-90.69-129.81-134.87-12.38-12.36-25.05-24.42-37.26-37-6.06-6.22-12.48-12.38-18.69-18.74-.84-.87-1.67-1.77-2.52-2.63a170,170,0,0,1-16-19c-.34-.48-1.13,0-.81.47a101.93,101.93,0,0,0,6.2,8.83c-1.34-1.13-2.65-2.3-4-3.37a.38.38,0,0,0-.54.54c15.54,17.41,30.85,34.43,44.25,53.62,14.09,20.18,27.27,41,40.14,62,21.44,35,42.36,76.24,80.18,96.24,17.65,9.33,39.51,14.78,59.77,13.39,17.05,11.37,35.95,19.61,56.84,20.93,23.93,1.51,49.21-7.46,55.12-33.07a.5.5,0,0,0-1-.27"/><path class="ah" d="M951.85,673c-64.63,1.7-182.38-41.18-185.32-104.38-1.16-24.88-3.22-49.68-.61-74.52,3.15-29.93,14.42-57.84,17.41-87.69,5-50.07-11.12-99.61-7.85-150.27,3.63-56.26,29.22-98,85.9-112.78C903,132.49,978.74,134.18,1013.67,164l-6.56,4.12c-.18-3.35.23-.07,0,0-.93-17.49,49.44-16.92,58.92-14.82,29.07,6.44,52.37,27.21,71.55,48.87,32.41,36.61,33.23,99.26,66.89,132.54,58.9,58.23,130.26-152.57,121.26-209.24,16.78,47.58,8.69,78.08-8.35,126.06-18.63,52.47-28.1,88.56-87.41,115.3,7.77,17.72,41.16,10.69,53.3,4.41,21.12-10.91,37.69-33.45,49-53.64,27.56-49.07,30.56-104.22,23.67-158.75,7.83,28.73,11,53.4,7.42,83.73-1.76,15-5.2,54.83-18.7,73.54,41.33-44.19,33-132.71,24.69-181.51,29.17,79.22,19.88,149.52-29.71,220.35-18.73,26.75-46.31,52.86-79.81,57.88-40.26,6-59.94-23.77-93.7-37.81C1208,415.58,1179,532.58,1253.39,554.3c106,31,181.62-64.83,169.36-162.72,16.07,16.13-3,93.61-5.88,104.42,51.67-31.53,37.2-127.49,29.66-174.25,21.82,60.88,31.94,130.85-12.08,185.17-20.71,25.55-52,56.39-80.8,71.79-37.71,20.15-82.16,16.79-82.24,15.37,12,11.29,52,25,86,23.48,31-1.4,55.51-14.7,56.58-48.31,31.46,69.38-70.63,62.2-106.51,52.37-40.24-11-111.46-35.12-131.81-75.85,15.95,49,30.38,109.15,70.25,145,45.29,40.73,107,39.34,123-25.22-.83,32.47-13.62,62.47-45.7,74.27-35.51,13.05-76.65-10.61-105.27-30.56-32.84-22.9-57.93-54-83.7-84.24-7.71-9-16.35-17.38-24.7-25.81-7.27-7.33-15.78-19-25.36-23.32,17.92,10.34,27,34.79,35.69,53,3.28,6.85,6.35,13.79,9,20.89a222.21,222.21,0,0,1,9.15,32.26c6.6,30.91,15.75,60.5,26.51,90.25C1176,804,1188.48,837,1209.72,863.62a223.35,223.35,0,0,0,43.1,40.91c-4.07,1.23-10.83-1.1-14-2.49-18.25-8-33.43-23-48.35-35.81-24.2-20.7-48.25-43.07-68-68.14,1.27,5.87,4.37,11.35,7.17,16.59,8.83,16.55,19.72,32.29,30.9,47.29a401.13,401.13,0,0,0,37.08,42.49c6.2,6.25,20.43,15.59,24,24-23.74-5.2-43.19-17-63-31.25-24.84-17.82-49.27-36.72-71.18-58-16.4-15.94-28.38-32.8-40.24-52.36-3.15-5.19-10.83-23.54-17.43-23.22-.9,24.72,9.61,46.21,22.44,66.73,18.87,30.16,44.51,53,69.31,78.09-6.49-3.49-11.24-4.17-22.15-14.32l-32.17-28.41c-40.1-36.43-81-77.34-107.59-125C942.26,709.74,939.41,665,942,652.27"/><path class="ai" d="M1103.51,778.67a3.1,3.1,0,0,1,5.54-1c1.2,1.78,2.33,3.59,3.44,5.42a3,3,0,0,1,5,0A277.66,277.66,0,0,1,1131,808.4c18,20.95,38.67,40,59.49,57.82,13.9,11.89,28.06,25.67,44.69,34-8.6-10.53-17.41-20.87-26.06-31.36-1.53-1.63-3-3.28-4.49-5-8.09-9.39-16-18.95-23.6-28.78a166.56,166.56,0,0,1-16.09-21.48q-8.08-10.18-16.26-20.28c-2.41-3,1.72-7.34,4.15-4.35q5.13,6.31,10.19,12.67a2.74,2.74,0,0,1,2.73,1.36q2.5,3.94,5.11,7.85c-1.16-3.82-1.17-7.2.63-9.73a3.13,3.13,0,0,1,1.24-1c-5.21-10.74-10.23-21.58-15.23-32.43-7.05-15.31-15-30.33-17.53-47.13l-.05-.13h0c0-.27-.11-.53-.14-.79a2.3,2.3,0,0,1,2.17-2.81c-8.17-47.88-27.61-93.49-62.39-128.27,0,0,0-.05,0-.07-12.12-12.22-30.48-37.81-41.55-51-2.47-2.94,20.36,16.55,25.91,21.06,9.71,5.84,23.16,13.67,32.6,20.05a205.75,205.75,0,0,1,22.63,16,1.45,1.45,0,0,1,.54.9c2.57,2,5,4.16,7.37,6.41l.44.37q-1.75-4.07-3.49-8.14c-41.72-98.49-65.39-204.9-125.14-295-3.24-4.89-3.56-9.72-2.08-13.86a160,160,0,0,1-10.06-26.1c-1.56,2-3.12,4.09-4.72,6.1-22.35,28-50.2,53.44-80.88,72-10.7,6.49-21.7,6.52-31,2.64-28.64,32.41-60.58,61.57-91.16,92.46-4.55,20.49-10.78,40.61-13,61.72-2.61,24.84-.54,49.64.61,74.52,2.79,60,108.87,101.6,174.94,104.27,1.25,19.39,6.31,46.79,18,67.82,26.55,47.66,67.5,88.57,107.59,125l29,25.6q-8.68-10-17-20.4c-19.27-24-44.22-49.28-49.06-80.86a3.57,3.57,0,0,1,2-3.6,84.26,84.26,0,0,1-2.35-22.82c6.6-.32,14.28,18,17.43,23.22,11.86,19.56,23.84,36.42,40.24,52.36,21.91,21.3,46.35,40.2,71.18,58a244.88,244.88,0,0,0,31.18,19.52c-15-19.69-29.88-39.44-43.9-59.82-16.58-24.1-36.37-47.93-47.17-75.32-1.21-3.07,2.79-4.67,4.88-2.88"/><g class="aj"><g class="g"><path class="ak" d="M1222.78,348.15c2.76,1.6,15.41,5.81,19,5.35,2.66-1,5.28-2.16,8-3.33,4.37-3.63,15.39-15.44,19.12-18.8a137.81,137.81,0,0,0,10.48-12.5c6.91-11.24,14.14-22.36,20.86-33.74,3.45-7.81,6.86-15.64,10-23.57a370.58,370.58,0,0,0,16.69-56.26c1.41-8.66,2.65-17.35,3.54-26.06a251.35,251.35,0,0,0-3.87-43.64c.74,63.4-57.61,230-110.78,207l.32.34c2.18,1.83,4.45,3.56,6.75,5.24"/></g></g><g class="al"><g class="g"><path class="ak" d="M809.83,348.84h0a49.71,49.71,0,0,0,8.63-8.57,3.46,3.46,0,0,1,3.84-1.42c1.29-1.82,2.65-3.76,4.06-5.84-4.35-1.59-4.73-7.74-.91-10.75a148.82,148.82,0,0,1,13.47-9.39c13-23.39,21.78-50.6-.53-62.18-3.41-1.77-2.65-7,.92-8,19-5.47,27,9.06,27.61,26.13a74.2,74.2,0,0,1-5.82,32.35c16.6-7.53,34-13.24,51.56-19.73,16.11-6,32-12.65,46.47-22.09,10.15-6.64,17.43-14.28,24.1-23a172.84,172.84,0,0,0,13.12-27.73c4.18-18.37,3.91-41.15-3.73-57.31-38.7-17.22-96.68-16.94-131.27-7.93-37.1,9.66-60.87,30.89-73.89,60.18-4.11,27.39-6.29,56.69.31,83.45,5.25,21.31,15.12,41.09,22,61.87"/></g></g><g class="am"><g class="g"><path class="ak" d="M1461.08,384.73q-.31-2.93-.7-5.86c-2.42-18.33-8.51-35.45-12.54-53.39-.43-1.25-.87-2.5-1.31-3.74,7.43,46.12,21.56,140-27.61,172.86a109.76,109.76,0,0,1-17.18,21.16c-11.58,14-41.6,38.57-57.65,47-1.41.74,35.51-25.56,49.06-46,6.25-7.42,7-8,12.67-15.92a216.82,216.82,0,0,0,9.85-22.13c2.57-11.2,12.21-56.66,11.77-66.89q-.33-3.39-.68-6.76c-.7-3.88-1.51-7.67-2.36-11.4a13.25,13.25,0,0,0-1.66-2.11c12.26,97.89-63.31,193.72-169.36,162.73C1179,532.58,1208,415.58,1166.17,375l0,0c-2.28-1.86-4.54-3.74-6.84-5.58-.55-.44-18.46-20.16-17.83-19.71,1.23.89,16.18,12.36,18.09,14,18.56,15.56,39.42,28.71,62,37.6a130.75,130.75,0,0,0,20.53,6.51c10.56.86,21.22.37,31.25-2.94A173.73,173.73,0,0,0,1297,390.24c14.17-13.31,26.84-28.61,39.11-44.37,9.67-15.11,21.32-28.83,28.93-45.21a157.45,157.45,0,0,0,7-18.25c8.27-35.4,9.52-71.92,7.76-108.22-.41-3.44-.86-6.86-1.28-10.3a293.3,293.3,0,0,0-9.13-29.3c8.23,48.31,16.43,135.49-23.47,180.11-4.13,7.08-9.64,13.1-15.1,19.18-5.06,6.9-10.2,13.74-14.81,21-1.35,2.11,12.54-23.57,20-34.77,2.43-3.64,5.12-7.56,7.68-11.65a155.42,155.42,0,0,0,9.85-24c.07-.56.21-1.13.24-1.69a1.92,1.92,0,0,1,.74-1.43c9.35-31.61,9.55-66.27,3.73-98.7,3.17,46.65-2.41,93-26,135-11.34,20.19-27.91,42.73-49,53.64C1276,375,1261,379,1248.55,377.8a2.61,2.61,0,0,1-2.67.4c-1.71-.6-3.37-1.28-5-2a21.61,21.61,0,0,1-4.91-2.41c-15.56-8.41-27.47-22.5-34.11-39.06a2.57,2.57,0,0,1,.23-2.59c-31.27-33.84-32.87-94.27-64.48-130-19.17-21.66-42.47-42.43-71.55-48.87-7.12-1.58-37.29-2.28-51.48,4.87q-1.94,12.28-3.21,24.65c.71,8,.92,16,1.07,24q.12,2.93.12,5.87c.09,3.93.2,7.85.41,11.78,4.83,32.06,13.06,59.71,29.91,89,15.44,26.81,30.94,53.37,43.15,81.87,14.39,33.57,23.29,68.74,30.92,104.29q1.15,3.87,2.31,7.74c12.61,41.93,26.34,84,47.57,122.52,22.41,40.61,55,80.29,100.36,95.41,24.46,8.15,53.14,13.09,77,.83,1.06-.54,2.09-1.13,3.12-1.72,14.62-14.9,21-36.27,21.58-58.86-15.93,64.56-77.67,66-123,25.22-39.87-35.85-54.3-96-70.24-145,1.58,3.16,6.5,9.33,6.82,9.65,9.65,9.76,20.15,17.69,31.11,25.55,1.9,1.07,3.77,2.18,5.64,3.27,15.45,7.7,31.62,13.77,47.24,21.05l2.21.74c11.85,4.13,24,7.44,35.79,11.65.52.19,5.17,2,7.31,2.51l3,.63c2.31.48,4.64.92,7,1.29,2.41.21,4.78.41,7.06.65,5.13.53,10.3.95,15.47,1.18,6.46.07,12.95-.13,19.38-.29l2.23-.07a98.87,98.87,0,0,0,16.38-3,43.11,43.11,0,0,1,5.17-1.6c11.62-4,22-10.88,26.81-21.83.2-.9.43-1.78.58-2.72.94-6.19,1.22-12.44,1.83-18.66-.75-2.1-1.62-4.27-2.65-6.53-1.07,33.61-25.56,46.91-56.58,48.31-33.9,1.53-73.61-12.06-85.84-23.32a4.17,4.17,0,0,0,.76.22c-3-1.22-6.17-1.83-9.13-3.21a82.2,82.2,0,0,1-16.61-8.24c-2.2-1.16-22.07-19.15-24.37-21.14,2.22,1.71,26.75,18.37,30.19,20a108,108,0,0,0,39,6.29,97.48,97.48,0,0,0,21.39-2.42c4-1,15.1-3.42,16.75-4,14.7-5.21,28.22-13.41,40.89-22.43a308.47,308.47,0,0,0,36.15-30.63c10.63-10.34,29.13-34.11,29.31-34.22,9.94-16.17,21.74-52.1,21.77-52.3,2.53-10.84,2.09-15.47,2.79-22.62,1.08-11.06.59-34.24.57-34.79"/></g></g><g class="an"><g class="g"><path class="h" d="M1178.7,353.36c6.12,4.79,12.87,8.24,19.81,11.73,3.39,1.71,6.8,3.3,10.31,4.74l1.44.57a127.85,127.85,0,0,1-11.49-7.69c-19.08-14.45-30.41-35.94-40.21-57.3-19.95-43.48-32.59-91.95-66-127.24a92.22,92.22,0,0,0-8.22-5.23,95.62,95.62,0,0,0-16.48-7.42c-5.94-2-11.83-2.6-18-3.15-7.92-.71-15.16-.53-22.75,1.77,3.22-.72,6.33.67,9.28,1.79a122.14,122.14,0,0,1,22.72,11.2c11.05,7.08,21.76,16,27.6,28.05-2.71,0-6.92-5.18-9-6.88a110.61,110.61,0,0,0-30.48-17.44c-5.51-2.13-10.84-3.63-16.79-3.49-2.9.07-5.7.6-8.58.84,21.12,4.64,40.2,17,55.33,32.11,18.77,18.77,34.83,40.85,41.83,66.79-2.31-7.87-9-16.1-14-22.17-11.09-13.49-25.14-24.33-40.12-33.13a142.13,142.13,0,0,0-27.61-12.44c-3.37-1.12-6.7-2.31-10.31-2.12,4.62.77,8.22,3.29,12,6,9.3,6.81,18.61,13.92,25.94,22.87-.86.59-8.29-5-8-4.86a95.37,95.37,0,0,0-9.87-4.68c3.72,3.36,7.75,6.23,11.3,9.82a92.18,92.18,0,0,1,15.62,21.15c5.11,9.45,13.29,20.35,15.22,31-.84-3.16-8.75-11.71-10.69-14.17-5.32-6.75-10.54-11.59-16.65-17.65-8.42-8.35-16.88-12.12-26.56-18.95,5.07,8.76,13.26,17.83,20.85,24.67,29.49,26.59,30.42,48.2,46.48,67.6,2.64,3.19-21.29-19.45-28.13-27.45a3.2,3.2,0,0,1-1.45-.78c-6.31-5.77-13.13-11.11-19.77-16.63,2.36,4.08,4.85,8.13,7.53,12.15,20.65,30.95,39.32,59.75,51.52,95.2.57,1.66,8,20,9.53,25.46,2.4,8.42,4.31,17,6,25.61,1.53,7.12,2.68,14.35,3.65,21.62q1,6.43,1.86,12.85c1.49,10.59,2.66,21.2,3.76,31.82,1,6.55,2.29,13,3.92,19.44,4.32,16.91,9.67,33.5,15.55,49.91-.12-.46-.26-.92-.38-1.38-2.27-9.24-3.67-18.63-5.17-28-.68-4.29-2.21-8.43-2.48-12.76-.1-1.54-.55-3.21-.69-4.79a17.28,17.28,0,0,0,.68,2.91c.81,2.74,1.47,5.47,2.22,8.23,2.13,7.88,6,15.27,9.41,22.65,3,6.54,5.59,13.26,9.32,19.44,1.73,2.86,3.55,5.67,5.31,8.5a24,24,0,0,1-2.35-5.83c-1.31-4.58-2.39-9.22-3.72-13.8-1.68-5.79-2.61-11.75-3.73-17.66-.87-4.63-2-9.22-2.78-13.87-.78-4.88-2.17-9.51-3.25-14.31-1-4.47-1.71-9.1-2.59-13.61-1.76-9.06-2.2-18.37-3.75-27.47-1.49-8.72-3.15-17.4-4.47-26.14-.75-4.92-1.83-9.78-2.55-14.71s-1.13-9.75-1.92-14.57a277.92,277.92,0,0,0-6.57-29.31c-1.21-4.36-7.11-18.3-6.34-21,2.11,1.79,3.17,5.49,4.27,8,2,4.53,3.51,9.27,5.64,13.76,5.14,10.82,7.24,23,10.17,34.61,2.2,8.7,4.16,17.33,6,26.12,1,5,2.59,10.64,2.18,15.81,1-2.74.8-5.6.8-8.47,0-5.79-.74-11.51-.8-17.3-.06-6.17.3-12.24-.65-18.36a69,69,0,0,0-1.67-7.29c.57,1.24,1.17,2.43,1.57,3.45,2.4,6.13,4.17,12.39,6,18.7,3.33,11.57,5.85,23.35,9.7,34.77,2,6,3.78,12.18,6,18.15,1.55,4.22,2.85,8.63,5.16,12.51,4.36,7.33,10,13.95,14.39,21.24-3.34-9.34-7.28-18.47-10.25-28-3.45-11.07-5.14-22.47-7.05-33.89-1.95-11.6-2.91-23.23-4.48-34.86-.84-6.26-1-12.59-2.18-18.81-1-5-2.47-9.83-3.77-14.71-1.23-4.57-2.8-9.08-4.41-13.53-2.06-5.71-5.19-10.59-8.31-15.77A217.69,217.69,0,0,0,1143,355.67c-2.12-2.68-4.51-5.28-6.41-8.12-2.19-3.26-3.85-6.26-6.71-9-2.23-2.15-4.31-4.48-6.41-6.75a10.44,10.44,0,0,1-.89-1.24c.67.61,1.4,1.15,2.11,1.7,2.64,2,4.89,4.42,7.74,6.19,4.8,3,9.33,6.5,13.89,9.84,4.83,3.54,10,6.57,14.82,10.08,4.65,3.36,9.83,5.78,14.64,8.92,6.07,4,12.87,6.57,19.54,9.32,5.65,2.32,10.83,4.86,16.87,6,5.16,1,10.09,3.17,15.29,3.81-11-3.36-19-10.45-28.36-16.81-2.21-1.5-21.16-15.44-20.38-16.25"/></g></g><g class="ao"><g class="g"><path class="h" d="M966.81,242c-9.24,11-23.62,15.49-36.36,20.91-6.28,2.67-12.81,4.77-19,7.53-2.71,1.2-5.51,2.27-8.18,3.55-1.78.85.28-1.12,4.38-3.51s8-4.85,11.82-7.51,8.06-5.18,12.12-7.71c2-1.24,4-2.41,6-3.59,1-.56,4-1.59,4.38-2.65-5.58,1.63-10.62,5.33-15.79,7.9-5.85,2.92-11.77,5.71-17.53,8.79-11.32,6.06-25.36,13.64-22.29,10.33,3.91-4.21,8-8.31,12.17-12.26a121.52,121.52,0,0,1,12.74-10.66c4-2.87,10-5.47,12.68-9.75-6.22,5.3-14.76,8.6-21.78,12.77-3.57,2.12-7,4.47-10.31,6.91-1.88,1.37-3.73,2.78-5.64,4.09-1.46,1-3.52,3-5.21,3.51.93-3.33,4.16-6.6,5.92-9.57s3.23-5.77,5.08-8.53A68.52,68.52,0,0,1,906.3,237c5.76-4.6,12-8.52,18-12.77,2.67-1.89,13.77-8.28,13.61-9.64-2.36-.24-14.23,2.53-17.35,2.75a110.67,110.67,0,0,0-19,2.6,128.85,128.85,0,0,0-16.81,5.57c-2.63,1-5.22,2.19-7.85,3.22-1.25.49-5.28,2.83-6.51,2.69,1-2.25,6.17-4.46,8.14-5.73A117.85,117.85,0,0,1,889,219.51c3.6-1.83,7.35-3.35,11.1-4.82s7.14-3.57,10.84-5.16c-3.32-.07-31.75,1.5-38.38,1.43s-12.53,1.2-18.81,2.78c-2.88.73-5.75,1.48-8.61,2.3-2.15.61-5.48,2.13-7.69,1.94.4-1.92,4.66-3.62,6.14-4.69,3.57-2.59,7.19-5.09,10.87-7.53a123.43,123.43,0,0,1,23.06-12c15.93-6.36,33.84-10.21,50.88-12.11-6.66.23-13.28,1.65-19.95,2.09a139.76,139.76,0,0,0-18.31,2.53c-12.7,2.54-24.09,7.31-35.71,12.75-.3-2.09,5-5.87,6.26-7.31a74.74,74.74,0,0,1,10.05-9.9c7.65-5.92,16.61-9.57,25.64-12.8A285.08,285.08,0,0,1,926.91,160c1.13-.27,20.41-2.79,20.29-3.53-3.25-.64-7.14-.33-10.45-.49s-6.33-.19-9.5-.16a139.19,139.19,0,0,0-20.34,1.57c-6.68,1-13.39,2.07-20,3.61-5.85,1.36-11.86,4.41-17.93,4.41,9.32-5.58,18.12-10.42,28.92-12.5,11.91-2.3,24.05-3.2,36.14-3.89,11.48-.66,22.5-.6,33.84,1.56,5.15,1,10.15,2.07,14.76,4.68,1.68,1,12.09,7,11.46,8.91a16.08,16.08,0,0,0-10-.58c-1.94.39-3.91.53-5.84.93-1.38.28-3,1.11-4.47.74,6.51,4,13.36,8.19,17.27,15-12.19,1.5-24.76,8-35.19,14.51,6.51-.26,12.62-4.32,19.23-3.07-6.53,4.64-11.87,10.56-17.79,15.91,1.53.17,3.33-.83,4.73-1.3a84,84,0,0,0,8.58-3.28c2.65-1.22,13.87-6.16,15.88-6.21-4.12,7.18-11.62,11.78-17.48,17.53-2.8,2.74-5.63,5.47-8.61,8s-6.49,4-9.14,6.65c5.35.44,22.61-9.93,25.42-11.59s4.88-3.85,7.45-5.79c-.76,7.64-11.42,23-17.39,30.42"/></g></g><path class="ap" d="M1058.11,1120.09c-9.44-13.77-21.26-25.72-31-39.26-6.5-9-15.44-19.83-24.49-31.66-.6.64-1.25,1.23-1.87,1.85a2.58,2.58,0,0,1-.44,1c-5.7,7.78-13.39,13.56-19.8,20.7a87.41,87.41,0,0,0-6.78,8.69,2.29,2.29,0,0,1-.68,2.49c-.95.89-1.86,1.79-2.76,2.71-3.08,4.86-6,9.85-9.09,14.71-4.35,7.88-9,11.76-10.3,24.78,1.83,8.74,5.35,6,4.88,9.65-.69,5.46,4.19,16.39,10.31,16.43,1.53,0-1.24,13.21,8.7,15.57,6.23,1.64,9-2.07,13.54-6.94,3.83-4.09,4.83-6.25,8.33-10.62.87-1.08,13.64-14.44,16.4-16.85.08-.08-3.53,12.9-3.78,13.4-1.41,8.72-2.91,17.52-2.69,26.38,0,.45,0,.93,0,1.4.88,3.43,2.49,6.52,5.06,8.28q1.32.65,2.7,1.23a10.91,10.91,0,0,0,5,.06,16.4,16.4,0,0,0,4-1.45c2.81-3.83,4.85-8.82,6.43-12,8-16.08,23.85-35.15,42.81-34.75-6.17-5.87-11.61-11.54-14.5-15.75"/><path class="i" d="M844.34,323.31c5.42-9,11.11-17.68,14.3-27.84,3.89-12.37,2.39-25.12-.32-37.61-1.91-8.78-5.89-16.79-15.7-18-9.62-1.15-19.72,4.71-27.34,9.94-3.5,2.41-5.53,5.52-7.88,9.09a109.64,109.64,0,0,0-14.21,30.28A102.28,102.28,0,0,0,792,337.82c.75,3.23,1.76,6.55,3.85,9.18,3.33,4.18,5.73,6.8,0,10.41-4.87,3.07-9.21,5.62-13.16,9.91q-5.31,5.77-10.32,11.8c-16.54,19.83-30,41.44-42.21,64.15-10.71,20-20.94,40.23-31,60.54q-5.67,11.41-11.27,22.85c-1.67,3.41-9.67,14.5-11.63,15.87a81.59,81.59,0,0,1-20,10.34c-10.74,3.7-17.59,1.1-27.32-3.12-10.11-4.38-20.2-8.88-30.73-12.17-7.85-2.45-16-3.63-24.08-5-8.74-1.49-19-2.95-27.13,1.41S531.82,544.83,525,550.8c-5.29,4.61-10.4,8.74-14.28,14.53C479,612.63,447.32,659.89,416,707.43c-6.69,10.17-13.08,19.9-20.71,29.39-18.78,23.38-37.66,46.68-56.15,70.3-20.33,26-40.81,52.08-58.8,79.74-4.95,7.61-11,16-13.47,24.87-1.52,5.5.11,11.7,1.42,17.08,2.5,10.26,6.38,20.18,10.53,29.87,4.39,10.24,8.53,22.09,14.92,31.3,7.74,11.17,17,21.46,25.71,31.9,24.24,29.2,48.72,58.3,74.49,86.18s51.64,55.27,77.7,82.67c10.31,10.84,20.6,21.69,31.1,32.35,6.09,6.18,12.83,11.25,19.56,16.75,8.93,7.3,18,14.35,26.13,22.55,6.28,6.37,13.68,12.85,22.21,15.93,7,2.51,12.59.41,19.23-1.73,16.7-5.4,33.43-10.68,50.17-16l21.58-6.81c1.67-.53,5.28-2.39,6.71-1.73,1,.47,2.29,3.45,2.89,4.35q2.74,4.11,5.51,8.21,7.08,10.49,14.36,20.84c4.52,6.39,9,12.86,14.09,18.86a27.1,27.1,0,0,0,4.06,4.29c2,1.49,9.91,6.76,13.33,5.51,9.38-3.44,6.72-10.24,6.48-11.94-.43-3-5-7.54-6.64-10.06l-26.37-39.95q-7.45-11.28-14.93-22.54c19.5,13.34,38.54,27.1,57.56,41.11,4.89,3.6,9.84,7.13,14.67,10.81,4,3,7.12,7.34,12.09,8.83,2.28.68,8.6.78,10.55-.92,1.26-1.1,4.28-4,4.85-5.54.37-1,2-2.68.41-8.78-.53-2.11,7,2.26,9.32,2.33,3.44.1,11.49.1,9-10.66-.76-3.24-4-7.24-6.36-9.55-2-1.92-5.51-3-8-4.23,2.26,1,5-.43,6.91-1.55a27.16,27.16,0,0,0,6-6.21c1.2-2,.45-8.11-.65-10.21-2.35-4.5-8.13-8-12.18-11-4.38-3.31-8.83-6.53-13.28-9.76q-17.57-12.75-35.29-25.31c-5.87-4.18-11.69-9.25-18-12.75-4.74-2.63-10.21-4.38-15.19-6.51-2.35-1-2.48-1.07-4.67-.77-7.93,1.06-16,3.92-23.78,5.82l-76.93,18.82c-6,1.47-13.16,4.49-19.4,4.75-4.59.19-10.39-2.28-14.72-3.64-4.59-1.44-8.19-2.68-11.64-5.9-18.24-17-33.5-38-49.1-57.41-10.35-12.85-22.42-25.6-31-39.73-9.63-15.83-18.33-32.28-27.57-48.35-14.23-24.73-28.59-49.41-43.68-73.63-5.93-9.53-11.94-19-18.48-28.17-3.52-4.9-7-10.59-12.7-13-3.68-1.56-7.43-3-11.15-4.46,29.19-33.24,58.8-66.19,89.5-98,8.44-8.76,17-17.47,25.88-25.75,4.84-4.49,9.85-9.5,15.82-12.45s11.42-8.92,16.66-13.45l29.4-25.42c3.17-2.74,2.88-3.18,6.53-2.18q8,2.18,16,4.27,31.13,8.16,62.48,15.42c58.65,13.6,118.18,25.8,178.24,31,24.38,2.11,49.61,3.51,73.88-.54,8.46-1.41,17.13-3.54,24.62-7.85,4-2.28,7-5.25,10.16-8.49q13.49-13.7,27.71-26.67a499.13,499.13,0,0,1,40.4-33.41c2.42-1.77,9.17-8.43,12.31-8.25.93.05,2.69,1.73,3.46,2.22l7.3,4.68,24.64,15.77c46.44,29.67,92.84,59.43,139.86,88.16,7.12,4.35,14.24,8.71,21.49,12.83,3.94,2.23,15.41,5.45,16,9.43.2,1.3-.41,1.76-1.2,3-2,3.27-3.9,6.63-5.68,10a132,132,0,0,0-11.35,29.17c-2.28,9.17-4.36,18.4-6.55,27.59-7.21,30.27-14.61,60.53-23.46,90.37-3.6,12.13-7.29,24.37-12.33,36-1.49,3.44-3,7.19-5.42,10.14-3.92,4.86-11.85,6.46-17.6,8-10.23,2.71-18.06-.82-27.86-3.55-15.09-4.2-30.28-8.14-45.66-11.15a148.62,148.62,0,0,0-20.49-2.94c-7.09-.38-13.16,1.59-19.55,4.74-21.53,10.61-35.14,28.49-43.82,50.43-1.74,4.4-3.52,8.88-5.33,13.17-3,7-.49,19,7.31,14l6.5-5.2c-14.79,21.21,0,23.79.79,24.66.58.61-.95,11.91,4.42,14.35,7.8,6.34,10-4.29,12.93-8.35,5.94-8.11,11.53-16.6,19.09-23.36,8.29-7.41,18.44-13.51,27.4-20.14,3.09-2.28,6.19-5.06,10.06-5.76s8.45-.08,12.44.39a163.84,163.84,0,0,0-21.65,16.26c-11.87,10.56-26.78,41.84-22.6,52,3.05,7.45,7.59,1.54,9,.62s2.42-6.25,3.05-7.86a103.45,103.45,0,0,1,7.78-16.35c2.86-4.64,11.25-11.8,16.14-15.77,2.44-2,14.17-9.78,17-11a20.74,20.74,0,0,1,15,0c11.58,4.35,22.85,9.45,34.87,12.54,13.64,3.51,26.23,1.77,37.46-7.28,5-4,6.12-8.88,8.52-14.78l11.11-27.34c3.69-9.09,11.07-17.09,16.66-25.07q20.19-28.84,40.14-57.86c10.1-14.74,20.85-29.37,29.67-44.93,11.46-20.22,19.59-42.77,27.71-64.47,7.07-18.9,15-38,16-58.29.44-8.79,4-21.46-3.13-28.47-2.46-2.43-5.9-4.31-8.68-6.34L1248,766.07c-33.07-24.1-66.09-48.27-99.34-72.12-24.88-17.85-49.17-36.41-73.38-55.17-17.49-13.55-35-27.14-52.25-40.95-16.27-13-30.65-28.21-47.17-40.87-11-8.4-35.41-14.22-69.8-.59-14.17,5.61-26.94,16-40.67,22.66a108.64,108.64,0,0,1-25.1,8.38c-9.53,1.94-19.46,2.63-29.11,3.77l14.3-52c4,4,7.86,8.71,12.8,11.54,6.11,3.51,12.79,3.78,19.6,2.89,8.69-1.13,17.44-1.94,26-3.88,21.81-5,43.4-10.27,64.75-17.06,5.88-1.87,12.09-3.62,17.53-6.59s10.4-7,15.2-10.87c11.13-9,21.65-18.84,32-28.78,12.65-12.19,22.69-26.8,33.51-40.61,5-6.37,10.48-12.39,13.57-19.95,2.25-5.5,4.41-11,6.62-16.55.8-2,1.59-3.09,1.16-4.9s-2.37-4.23-3.34-6q-3-5.42-6-10.87-8.62-15.76-16.93-31.69c-13.08-25.09-26-50.49-36.29-76.87-3.49-8.93-7.28-18.42-8.31-28-.31-2.89-.18-5.8-.26-8.71-.06-2.15.56-7.75-1-9.56-1.83-2.18-2.42,1-3.09,3-2,6.06-5.07,10.58-9.15,15.69-10.33,12.92-23.7,23.8-40.05,27.68a232.68,232.68,0,0,0-28.91,8.59c-6.57,2.49-13.06,5.25-19.9,6.93-7.51,1.85-14.34,2.85-21.29,6.57A126.44,126.44,0,0,0,853,315.63c-3,2.46-5.87,5-8.65,7.68"/><path class="aq" d="M802.68,768.38a70.35,70.35,0,0,0-3.94-7.94,2.85,2.85,0,0,1-2.25.75,9.33,9.33,0,0,1,.36,3.29c-.33,3.21-5.41,3.3-5.08.05.46-4.53-6.47-14.25-7.18-18.48-1.22-7.27-29.47-34.8-29.55-34.92,27.22,8.2,45.63,39.23,52.52,55.85,1.25,3-3.64,4.38-4.88,1.4m272.6-129.6-4.07-3.17c-4.85,11.54-12.39,21.07-23.93,20.91-3.56,0-13.7-4.22-17.07-5.81a39.09,39.09,0,0,1-6.2-5.58c.77,1.53,1.51,3.07,2.21,4.61a13.66,13.66,0,0,1-2.44-4.89c-.49-.62-.74-1.09-.55-1.25-17.7-34.24-51.74-65-92.42-56.38-19.07,4-34,16-53,20.3s-41,14.21-54.05,29.48c-13.31,15.51-16.26,27.83-39.68,19.94-17.31-5.83-31.24-18.94-49.3-22.22-19.58-3.55-37.89-8.65-57.07-14.06-20.3-5.73-48.16-6.21-62.52-21.92,19.57,9.91,48.08,12.22,69.6,13.63,21.32,1.39,47.37-.41,67.39,7.76,13.47,5.5,40.93,31.48,37.73,7.49-5.3-39.77,8.64-58.92,5.91-73.72-3.08-16.73-25.5-35.66-18.89-94.5,6.45-57.46,32-86.1,34.67-95-4.78-.34-11.52-4.49-15.27-7.26l-.42.28c-4.87,3.07-9.21,5.62-13.16,9.91q-5.31,5.77-10.33,11.8c-16.54,19.83-30,41.44-42.21,64.15-10.71,20-20.94,40.24-31,60.54q-5.67,11.41-11.26,22.85c-1.67,3.41-9.67,14.5-11.63,15.87a81.56,81.56,0,0,1-20,10.34c-10.74,3.7-17.59,1.1-27.32-3.12-10.11-4.38-20.2-8.88-30.73-12.17-7.85-2.45-16-3.63-24.08-5-8.74-1.49-19-2.95-27.13,1.41S531.82,544.83,525,550.8c-5.29,4.61-10.4,8.74-14.28,14.53Q470,626.17,429.5,687.16a5.45,5.45,0,0,1,5.47,2.08c22.89,29.79,44.92,60.32,62.14,93.63,3.26-2.74,6.36-5.85,9.43-8.5l29.4-25.43c3.17-2.74,2.88-3.18,6.53-2.18q8,2.18,16,4.27,31.13,8.16,62.49,15.42c58.65,13.59,118.18,25.8,178.24,31,24.38,2.11,49.61,3.51,73.88-.54,8.45-1.41,17.13-3.54,24.62-7.85,4-2.28,7-5.25,10.16-8.49q13.49-13.7,27.71-26.67a499.42,499.42,0,0,1,40.4-33.41c2.42-1.77,9.17-8.43,12.31-8.25.93.05,2.69,1.73,3.46,2.22l7.3,4.68,24.64,15.77q19.13,12.22,38.27,24.44c11.54-19.79,31.68-34.47,51.43-48.61,4-3.84,8.11-7.47,12.35-11-.46-.12-.91-.28-1.37-.38a3.93,3.93,0,0,1-2.88-5.26c-.87-.37-1.73-.75-2.6-1.11a3.49,3.49,0,0,1-2.17-3.73l-4.79-2.24c-4.44-2.08-1.46-9.12,3.11-7.84a186.06,186.06,0,0,1,19.25,6.57,4.26,4.26,0,0,1,1.53-.24c.5,0,1,.07,1.47.11-20.91-15.27-41.47-31-62-46.83"/><g class="ar"><g class="k"><path class="h" d="M882.75,679.71C864,679,844.34,689.13,828,697c-13,6.3-26,16.1-39.55,22.77q5.64,5.59,10.86,11.46a6.69,6.69,0,0,1,3.24,1.45c-1.58-1.28,6.63-1.33,9.31-1.78,4.67-.78,9.31-1.84,13.93-2.86,6.36-1.41,12.68-2.86,19.11-3.89s13.51-2.15,20.56-3.69l1.52-.7c4.26-2,8.65-4,13-6,7.59-3.88,15-8.13,22.35-12.48a204.15,204.15,0,0,0-19.65-21.6M703.38,693.38c-15.51,1.85-31,4.33-46.32,7.17,21.39,9,42.61,17.51,65.55,23.17,12.19,3,24.49,5.36,36.82,7.68-.81-1-1.58-2-2.42-2.93-14.68-15.44-33.19-26.69-53.63-35.1M785.18,365c-.82.74-1.64,1.49-2.43,2.35q-5.31,5.77-10.32,11.8c-16.54,19.82-30,41.44-42.21,64.15-10.71,20-20.94,40.23-31,60.54q-5.67,11.4-11.26,22.85c-1.67,3.41-9.67,14.5-11.64,15.87a81.59,81.59,0,0,1-20,10.34c-10.74,3.7-17.59,1.1-27.32-3.12-10.11-4.38-20.2-8.88-30.73-12.17-7.85-2.45-16-3.63-24.08-5-8.74-1.49-19-2.95-27.13,1.41S531.82,544.83,525,550.8c-5.29,4.61-10.4,8.74-14.28,14.53q-19.8,29.59-39.57,59.2c7.16,2.34,14.43,4,22,3.56a57.89,57.89,0,0,0,9.51-1.91c8.89-13.27,19.65-30.52,30.5-39.32,14.65-11.88,21.69-25.53,40.12-22.27,26.76,4.74,32.85,15.84,38.43,25.23a42.6,42.6,0,0,1,6.06,6A251.86,251.86,0,0,0,656.38,605c10.09.36,20.18.59,30.26,1.41,7.07.57,20.32-.6,30.82,1.24-2.26-51.35,13.3-122,20.18-138,16.37-38.13,20.28-61.57,44.61-95.22,1.39-2.08,2.83-4.13,4.35-6.12l-.4-1c-.37-.76-.68-1.57-1-2.35"/></g></g><path class="i" d="M958.51,672.92a8,8,0,0,1,.92,1.51,7,7,0,0,0,2.65,1.17c-1.69-1.32-2.79-2.14-3.57-2.67m-1.36-.81a6.82,6.82,0,0,1,1.36.81c-.44-.55-.93-.93-1.36-.81m2.28,2.31c-.75-.49-1.47-1-2.2-1.44-2-1.17-4.08-2.29-6-3.66-3.27-2.33-7-4.36-10.42-6.43a20.84,20.84,0,0,0-3.51-2.05c-1.13-.36-3.16-1.28-4.35-.95-3.22.92-4.48,5.06-5.18,7.86-1.14,4.57-.75,9.51-.75,14.32,0,4.33-.76,9.55.56,13.64,1,3,1.68,6.78,5.78,5.92,5.24-1.1,9.08-6.23,14.15-8,6.12-2.1,13.11-5.65,13.06-12.9a19.31,19.31,0,0,0-.91-5.76,5.24,5.24,0,0,0-.25-.59m-2.62-2.11a.69.69,0,0,1,.34-.2c-.3-.1-.32.05-.34.2m-345,15.37c-.85-5.2-1.67-10.55-2.94-15.7-.93-3.76-2.14-7.44-3.17-11.15-.66-2.38-1.13-6.49-3.33-8s-5.81,1.05-7.42,2.54c-.84.77-1.29,2-2.11,2.82s-1.55,1.44-2.24,2.22c-2,2.29-4,4.45-5.92,6.87-1.19,1.51-2.23,3.14-3.56,4.51-1.08,1.12-2.47,2.25-3,3.73l1-.87a8.68,8.68,0,0,0-1,4.61c.3,2.27,2.55,3.88,4.48,5,2.24,1.31,4.29,2.8,6.67,3.93,4,1.91,8,3.45,11.91,5.62a47.33,47.33,0,0,0,5.36,2.61c1.49.59,2.91,1.64,4.45,2.07s2.48.42,3.74,1.26c0-1.63-1.25-3.63-1.47-5.32-.31-2.34-1-4.49-1.42-6.83"/><path class="aq" d="M1286.84,815.58c-4.71-4.77-9.4-9.33-13.72-13.63A482.24,482.24,0,0,0,1225,760.21c-17.4-13.23-35.81-24.78-54.08-36.72-4.66-3-9.42-6.21-14.28-9.25-11,12.38-26.33,22-36.57,34.39-8.59,10.38-15.43,21.91-21.91,33.68,21.7,13.73,43.45,27.38,65.36,40.77,7.12,4.35,14.24,8.71,21.49,12.82a49.91,49.91,0,0,0,4.83,2.17c4.57-1.76,9.18-3.44,13.79-5.13,9-3.28,30.07-8.08,29.74-6.7a2,2,0,0,1-1.49,2.35c-.86.24-1.68.53-2.52.8-10.92,5-20.41,12.19-29.83,19.48q-2.86,4.67-5.39,9.53a132.1,132.1,0,0,0-11.35,29.17c-2.28,9.17-4.36,18.4-6.55,27.59-7.21,30.27-14.61,60.53-23.46,90.37-3.6,12.13-7.29,24.37-12.33,36-1.49,3.44-3,7.19-5.42,10.14-3.93,4.86-11.85,6.47-17.6,8-10.23,2.71-18.06-.82-27.86-3.55-15.09-4.2-30.29-8.14-45.66-11.15a148.68,148.68,0,0,0-20.49-2.94c-7.09-.38-13.16,1.59-19.55,4.74-21.53,10.61-35.14,28.49-43.82,50.43-1.74,4.4-3.51,8.87-5.33,13.17-1.59,3.76-1.61,8.9-.11,12.13,1.49-.45,4.49,1.9,9.22-5.73,10.23-16,17.36-26.55,29.62-41,7.38-8.71,16.78-21.48,29.78-19.06a1.5,1.5,0,0,1,.71,2.48c-4.88,4.16-10.36,7.45-15.46,11.32-6.34,4.81-11.21,11.19-16.35,17.19-9.34,10.89-23.59,31.47-23.59,31.47-6,8.56-7.13,14.09-6.33,17.69,3.12,3.33,5.15,0,7.68-1.3a1.53,1.53,0,0,1,.24-.06c2.1-2,6.33-7.53,6.78-7.55q3.31-4.61,6.79-9.09c5.08-7,10.29-13.84,15.88-20.41,10.86-12.75,39.86-27.25,39-26.59,2.05-.91,4.18-2.59,6.19-1,.11.09,2.18,2.29.87,3.1,0,0-3.11,2.8-3.42,2.59-2.06.71-6.94,3-7.65,3.24q-5.08,2-10,4.53c-2.88,1.46-5.68,3-8.43,4.71a143.32,143.32,0,0,0-16.33,15.09c-1.86,2-3.61,4.15-5.4,6.24a1.41,1.41,0,0,1-.12.34c-5.89,10-14.09,19.18-21.31,28.23-1.35,2.83-3.71,4.88-3.5,7.88.07,2.49.27,6,1.53,8.55,8.07-2.55,12.44-9,17.82-14.92a1.29,1.29,0,0,1,.24-.61c3.5-4.88,7.32-9.88,11.92-13.88a199.93,199.93,0,0,1,25.28-20.27c9.22-6.44,17.83-11.26,29.35-9.82.82.1,3.6,3.38,2.27,4.21-1.73,1.08-5.45,3-5.57,3.05a164,164,0,0,0-18.36,14.1c-11.87,10.56-26.78,41.84-22.6,52,1.84,4.49,4.21,4.12,6.12,2.92,1.42-4.47,2.67-9.77,3.74-12.64.83-2.24,1.55-4.46,2.51-6.65a59.17,59.17,0,0,1,10.56-16.12c9.95-10.89,23.45-17.93,35.56-26.07.39-.26,2.36-1.52,3-2.08,1.56-1.43,7,3,8.42,3.87a2.58,2.58,0,0,1,.88.48,55.86,55.86,0,0,0,5.32,2.61c1.88.65,3.8,1.38,5.75,2.16,1.39.44,2.81.83,4.23,1.18,17.1.88,34.09,5,49.61-1.84a67.52,67.52,0,0,0,7.45-9.41,4.36,4.36,0,0,1,.44-1.36c12.77-24.71,19.32-52,33.23-76.16,13.49-23.46,29.71-45.28,43.66-68.48,15.16-25.21,28.2-51.27,38-79,7.56-21.35,16.43-42.79,18.41-65.39l-1.44-1.6"/><g class="as"><g class="k"><path class="h" d="M1062.49,1101.38a24.32,24.32,0,0,0,10.62,4.29c9.57-4.2,42.89-10.93,44.81-11,14.91-.75,22.37-2.24,29.45-.75-1.73-5.56-13.43-33.91-17.41-38.37-3.94,2-8.72,3.1-12.55,4.12-10.23,2.71-18.06-.82-27.86-3.55-15.09-4.2-30.29-8.14-45.66-11.15a166.31,166.31,0,0,0-17.87-2.72l0,0c-5,3-3.89,6.55.2,10.57.77,1.23,6,2.92,7.24,3.48,1,.45.76,1.79.81,2.84.41,7.79,19.82,7.31,14.7,12.41s-2.37,9.68,7.28,14.33c4.07,2,4.94,3.31,6.11,7.7.88,3.32-1.95,3.2.15,7.82"/></g></g><path class="aq" d="M703.45,1213.83c12.54,6.71,24.59,14.73,36.37,22.58,12.75,8.5,23.22,20.35,36.46,28,5.14,3,18.2,9.78,23.73,5.47a17,17,0,0,0-.44-3.1c-.76-3.24-4-7.24-6.36-9.55-2-1.92-5.51-3-8-4.23a4,4,0,0,0,1.45.33c-5.71-2.87-10.18-7.44-14.84-11.76-5.29-3.62-10.61-7.19-15.73-10.84-14.35-10.24-28.07-21.57-43-30.92a2.42,2.42,0,0,0-.6-1.16,1.83,1.83,0,0,0-1.63-1.56,10.72,10.72,0,0,1-.35-1.19,5.59,5.59,0,0,0,.57.22,2.2,2.2,0,0,0,.52,0c12.85,3.95,25.12,14.13,35.92,21.55,12.08,8.3,25.34,20.1,39.48,24.64,3.87,1.24,8.69,1.47,11.75-1.06a17.25,17.25,0,0,0-1.24-6.24c-2.35-4.5-8.13-8-12.18-11-4.38-3.31-8.83-6.53-13.28-9.76q-17.57-12.75-35.29-25.31c-5.87-4.18-11.69-9.24-18-12.75-4.74-2.63-10.21-4.38-15.19-6.51-2.35-1-2.48-1.07-4.67-.77-7.93,1.06-16,3.92-23.78,5.82l-76.93,18.82c-4.5,1.1-19.68,6.92-22.37,4.38-2.16,11.17-19.9,42.49-18.11,36.27,2.64-9.19,3.81-14,4.25-17.59-1.72.26-26-19.95-33.1-27.55-12.71-13.59-25-27.47-36.58-42.06-23.51-29.66-45.63-62.55-57.1-99-11-19.93-21.52-40.09-32-60.28-13-25-27.29-47.29-53.43-60a5.51,5.51,0,0,1-1.67-1.24h0c-1.15.15-9.66-4.9-7.11-8,21.78-26.7,47.28-50.15,66.41-79a310.29,310.29,0,0,0,21.88-39.17c3.52-8.25,6.94-16.54,10.63-24.71q2-5.26,4-10.58-4.34-5-8.51-10.07c-7.64-8.54-15.18-17.19-22.24-26.17-2.21-2.35-4.42-4.66-6.59-7-3.51,5.09-7.12,10.09-11.07,15-18.78,23.38-37.66,46.68-56.15,70.3-20.33,26-40.81,52.08-58.8,79.75-4.95,7.61-11,16-13.47,24.87-1.52,5.5.11,11.7,1.42,17.08,2.5,10.26,6.38,20.18,10.53,29.87,4.39,10.24,8.53,22.09,14.91,31.3,7.74,11.17,17,21.46,25.71,31.9,24.24,29.2,48.72,58.3,74.49,86.18s51.64,55.27,77.7,82.67c10.31,10.84,20.6,21.69,31.1,32.35,6.09,6.18,12.83,11.25,19.55,16.75,8.93,7.3,18,14.35,26.13,22.55,1.64,1.67,3.37,3.33,5.16,5h.06l.5.15-.91-.81c18.24,6.74,42.41-.74,59.35-6.2,12.38-4,25-7.36,37-12.59,7.31-3.2,14.49-6,19-12.15,9,21.07,24.13,40.53,37.6,58.77,3.74,5.07,12,17.26,20,17.77,5-3.61,3.13-8.66,2.93-10.1-.43-3-5-7.55-6.64-10.06l-26.37-39.95q-6.59-10-13.21-19.94a1.34,1.34,0,0,1-1.16-1.37v-.25s0-.06,0-.09l-.58-.88.67.46a1.24,1.24,0,0,1,.1-.21l-.36-.25c-.47-.61-.89-1.25-1.35-1.87,12,1.68,21.16,9.77,30.77,16.77,10.85,7.91,22.15,15.26,32.71,23.55,7.18,5.63,24.47,26,35.53,15.77a6.63,6.63,0,0,0,2.3-4.39l.41.44a17.3,17.3,0,0,0-.5-4.13c-.74-1.64-1.48-3.28-2.3-4.89a1.36,1.36,0,0,1-.08-.17c-9-7.78-19.48-14.55-28.59-21.14-17.59-12.74-35.29-25.51-53.6-37.21.14-.41.25-.83.36-1.24a43.42,43.42,0,0,0,6.23,2.7"/><g class="at"><g class="k"><path class="h" d="M702,1181.53c3.91-7.61-.1-10.44-5.65-12.19-7.05,1.27-14.17,3.64-21,5.32l-76.93,18.82c-6,1.47-13.16,4.49-19.4,4.75a16.19,16.19,0,0,1-3.2-.24c-4.84,13.14-9,26-18.11,36.27,6.16-.42,12.58.49,18.63.45,12.21-.08,24.41-1.19,36.57-2.17,12.39-1,24.78-2.11,37.21-2.65,4.27-.19,9.38.37,13.59-.47,18.39-3.67,5.46-4.14,12-8,2.13-1.27,5.83-2,7.64-3.21,6.38-4.4,2.33-6.52,3.71-11.51,1.46-5.31,5.07-4.74,8.77-7.47,5.47-4,.25-7.8,1.85-12.93.76-2.44,3.39-2.74,4.42-4.73"/></g></g><path class="au" d="M1015.06,1154.85c-.82-.22-1.66-.42-2.5-.6a46.9,46.9,0,0,0-1.69,7.71c.08,2.48.78,4.75,2.85,6.06a3.3,3.3,0,0,0,4.34-.6,49.34,49.34,0,0,0,2-11c-1.63-.61-3.3-1.12-5-1.55M972,1140.7c-1.26,2-2.63,3.74-2.47,6.06a24.73,24.73,0,0,0,1.15,7.52,3.67,3.67,0,0,0,3-.06,2,2,0,0,1,.22-.06,24,24,0,0,0,3-1.72c2.94-2.74,5.28-6.66,5.78-9.37a1.92,1.92,0,0,1,.48-1c-2.21-2.35-4.91-4.33-7.29-6.47a35,35,0,0,1-3.84,5M956.9,1105c-.73,1.79-1.45,3.57-2.19,5.32a17.1,17.1,0,0,0-.7,10.39l2.29,1.19c3.87-1.8,9.13-8.27,9.35-11.6a28.15,28.15,0,0,0-8.74-5.29m16.79,24.15a2.27,2.27,0,0,1,.47-.8,22,22,0,0,0-3-4.16,12.84,12.84,0,0,0-2-1.87,4.16,4.16,0,0,0-.7-.4,1.87,1.87,0,0,1-2,.2c-4.24,6.87-5,11.51-4.34,14.67,2.56,2.73,4.39,1,6.37-.44a17.7,17.7,0,0,0,5.12-7.2"/><path class="au" d="M793.2,1257.27c-2-1.92-5.51-3-8-4.23a4,4,0,0,0,1.45.33,22.08,22.08,0,0,1-1.94-1.16,2.47,2.47,0,0,1-.91.06c-2-.26-3.87,3.19-4.6,4.53a19.74,19.74,0,0,0-1.23,2.79c3.66,3.56,9.38,5.83,15,7.22a11.81,11.81,0,0,0,5.08-3.45,30.06,30.06,0,0,0-4.85-6.09M722,1295.74a50,50,0,0,0-4.36,2.64c-1.08.68-2.15,1.4-3.18,2.17,1.69,1.77,3.37,3.55,5.11,5.27,1.27,1.26,2.59,2.47,3.92,3.67a15.59,15.59,0,0,0,2.09-.14,2.4,2.4,0,0,1,1.25.14,6.73,6.73,0,0,0,.93-2.16c.91-3.92-2.5-8.74-5.78-11.58m57.16-24.85a1.37,1.37,0,0,1-.08-.17c-2.66-2.29-5.46-4.48-8.31-6.62a2.3,2.3,0,0,1-.76.18c-5,.15-8.63,2.92-11.15,6.67.6.76,1.18,1.54,1.82,2.26a21.56,21.56,0,0,0,9.32,6.39c2.53.93,5.14,1.59,7.72,2.33,2.53-1.54,3.87-4,2.93-7.86-.49-1.07-1-2.14-1.5-3.18m18.66-35a6.88,6.88,0,0,0-.33-.85c-1.88-3.59-5.94-6.51-9.56-9.11-3.33,1.43-5.28,5.33-6.88,8.5,3.71,3.34,8.51,4.8,13.39,6.22a20.87,20.87,0,0,0,3.39-4.75"/><path class="av" d="M500.31,599.51c-19.47-16.08-17.55-7.8-25.36,8.78C461.38,637.14,436.61,662,417,687c-13.37,17.07-.11,26.15,17.47,37.06C451,734.33,459,744.71,471.57,760.68c10.33,13.16,22.77,26.44,36.08,36.57,9.67,7.35,20.19,6.92,29.65,12.72,5.42,3.32,3.83,4.11,7.91,10.76,13.7,22.31,25,48.83,36.77,72.41,10.67,21.4,15.25,44,11.79,67.49-3.11,21.07-10.58,44.45-5.88,65.73,5.76,26.07,29.06,10.22,47.14,1.94,44.17-20.23,96.76-9.44,143.23,2,39.43,9.68,86.17,21.29,126.66,10.92,19.71-5,37.17-18.52,56.67-23.32,5.41-1.33,17.65,0,23.52-4.06,7.33-5.08-1.88-32.37-1.72-40.13.77-36.51.89-54.86-1.61-91.32-1.07-15.63-3.61-17.13,5.58-27.89,13.75-16.09,32.27-28.91,47.4-43.75,18.55-18.19,28.13-43.08,44.72-62.8,12.22-14.52,26.87-28,41-40.59,6.23-5.55,13.16-12.85,20.84-16.41,2.55-1.18,10.4,7.26,12.79,4.49,12.92-15-62-58.12-70.09-63.68-11.31-7.8-28.89-26-42.31-29.18-11.47-2.75-13.72,3.74-24.73,13.63-24.39,21.91-48.56,44.05-72.94,66-23.65,21.25-44.83,30.81-74.58,43.35-17,7.14-58.46,17.09-76.92,16.06-74.91-4.17-121.05-28.33-131.17-32.67-37.29-16-103.21-61.6-161.08-109.39"/><rect class="a" x="586.51" y="601.92" width="569.11" height="443.33"/><rect class="a" x="637.55" y="715.79" width="307.02" height="78.8"/><path class="aw" d="M845,255.8a.71.71,0,0,0-.29-.56c1,.72,1.37,2.89,1.67,4,.2.8,0,1.58.22,2.37a7.48,7.48,0,0,1,.4,1.09,12,12,0,0,1,0,1.5c0,3.65,0,7.29,0,10.94,0,2.07-.79,3.91-1,6a22.59,22.59,0,0,1-.48,3c-.24,1-.37,2-.62,3-.82,3.27-1.75,7-3.49,9.93-.89,1.49-1.65,1.67-3.25,2.11-.48.13-.4.46-1.09.43s-1-.46-1.49-.56a16.22,16.22,0,0,0-3.48-.11,10.26,10.26,0,0,0-6,2.1,16.64,16.64,0,0,0-5.6,8c-.85,2.86-2.46,5.91-1.77,9s3.78,6.86,6.85,7.59c4.07,1,7.46-.9,10.2-3.85,4.55-4.9,7.13-11.13,9.95-17.07,1.58-3.32,2.46-6.75,3.72-10.19a94.41,94.41,0,0,0,3-9,33.16,33.16,0,0,0-.15-16.68,20.73,20.73,0,0,0-.84-3.59,19,19,0,0,0-1.42-1.94c-.68-1.09-1.07-2.39-1.71-3.5a17.67,17.67,0,0,0-4.7-4.94c.38.93,2.4,2.54,1.34,1"/><path class="ax" d="M820.44,334.24c-.5.49-8.58-.52-11.23-4.25-4.2-5.92-3.2-14.89-1.19-21.43,2.23-7.26,7-15.69,14.84-17.93,6.49-1.85,11.29.66,13.41,5.92,3.56-5.92,5.28-17.3,4.1-22.61-3-13.6-24.93,1.94-24.25.51,3.76-8,11.84-18.84,21.87-18.35,7.86.38,12.13,8.27,11.95,15.06-.95,35.54-9.4,27.59-19.34,35.54-9.15,7.32,6,11.93-10.16,27.53m161.1,81.91c13-10.39,27.35-18.6,42.39-25.71,6.42-3,13.15-5.53,19.76-8.25a416.07,416.07,0,0,1-28.08-63.74c-5-14.82-8.76-30-12.75-45.15-.58-2.2-1.08-4.34-1.49-6.46a74.93,74.93,0,0,1-3.82-16c-.31-2.89-.18-5.81-.26-8.71-.06-2.15.56-7.75-1-9.56-1.83-2.18-2.42,1-3.09,3-2,6.06-5.07,10.58-9.15,15.69C973.77,264.22,960.4,275.1,944,279a232.68,232.68,0,0,0-28.91,8.59c-6.57,2.49-13.06,5.25-19.9,6.93-7.51,1.85-14.34,2.85-21.29,6.57a126.38,126.38,0,0,0-20.72,14.43c-3,2.46-5.87,5-8.65,7.68,5.42-9,11.11-17.68,14.3-27.84,3.89-12.37,2.39-25.12-.32-37.61-1.91-8.78-5.89-16.79-15.7-18-9.62-1.15-19.72,4.71-27.34,9.94-3.5,2.41-5.53,5.52-7.88,9.09a109.64,109.64,0,0,0-14.21,30.28,102.28,102.28,0,0,0-1.15,48.62c.75,3.23,1.76,6.55,3.85,9.18.88,1.11,2.5,3.59,3.12,4.53a37.57,37.57,0,0,0,7.23,3.94c3.85,1.69,5.69-.15,7.46.25,2.91-.25,6.19-1.5,8.77-2.24,1.37-.4,6-2.36,7.64-2.61.6-.09-3.51,8.8-4.06,9.89-7.07,13.86-16,27.17-21.12,41.92-5.45,15.59-4.44,31.07-2.36,47.17,4,31,9.2,63.46,24.52,91,3.44,3.58,6.92,7.45,11.19,9.9,6.11,3.5,12.79,3.78,19.6,2.89l.23,0c7.45-1.79,15-3.26,22-5,21.27-5.28,42.36-10.64,61.47-21.77a209.07,209.07,0,0,0,50.52-41.78c8.88-10,16.65-20.95,24.73-31.62q1.59-2.78,3-5.64a46.12,46.12,0,0,1-8,.68A11.28,11.28,0,0,1,1001,435.41a112.23,112.23,0,0,1-13.45,1.7c-12.39.77-13.84-14.7-6-21"/><rect class="a" x="789.89" y="239.63" width="57.07" height="102.68"/><rect class="a" x="801.14" y="266.43" width="167.85" height="203.21"/><path class="au" d="M840.67,441.84c-.41,2.09,3.43,12.68,3.9,16.25,1.15,8.77,2.24,20.18,4.37,28.78,3.88,15.7,14.16,28.76,34.64,31.68,13.31,1.9,19.61-8.32,12.21-12.49-3.37-1.9-14.64-6.38-17.66-8.9-3.39-2.82-5.69-6.47-8.28-9.92-5.63-7.49-10.67-15.44-16.17-23.05a121.54,121.54,0,0,1-7.56-11.43c-.63-1.11-5-10.51-5.74-10.59-.07.31,1.06,1.35.29-.34-.12.64.63,1.4,0,0"/><path class="n" d="M846.73,450.23c-2.1-5,7,13.23,9.92,16.24,2.74,2.79,5.42,5.86,8.57,8.19,3.52,2.61,7.75,4.22,11.11,7.07s4.66,5.77,5.62,9.85c.43,1.82.5,2.55,2,3.42,1.22.68,3.16.35,4.47.48a26.21,26.21,0,0,1,8.84,2.64c2.76,1.34,4.52,5.45,5.79,8.41s.93,6.21-3.59,5.6c-2.5-.34-5.69-3.91-8.13-5-3.89-1.79-8.39-2.44-12.14-4.45s-5.22-5.67-7.43-9c-2.38-3.55-5.3-6.64-7.73-10.15-4.74-6.83-10-13.58-14.28-20.69A84.9,84.9,0,0,1,843.52,450c-1-2.51-5-9.35-2.47-11.86,3.8-3.75,3.45,5.59,3.57,7.11"/><rect class="a" x="855.87" y="479.99" width="32.65" height="30.81"/><path class="ay" d="M1064.94,415.51a10.31,10.31,0,0,0-3.09-5.37c-3.1-3.21-7.7-5.54-11.72-7.37-8.18-3.72-18.55-4.1-27.52-3.09.35-.31.65-.63.77-.74a5.14,5.14,0,0,0-2.44.93l-.19,0s0,0,0,.07c-1.37.86-2.79,2-3.67,2.56a43.65,43.65,0,0,1-7,3.57c1.36,1.78,10,.81,12.09,1,5.08.38,10.58.74,15.57,1.61,9.52,1.66,20.06,6.66,26.21,14.21-.14-2.58,1.41-4.68.92-7.37m-83.24-63.68c-1.65-3.93-3.27-7.87-5-11.77-3.32-7.54-5.33-15.59-8.79-23.06-3.66-7.89-9.57-13.36-16.7-18.2a64.81,64.81,0,0,0-10.5-5.68,39.23,39.23,0,0,0-6.7-2.26,21.37,21.37,0,0,0-3.94-.51c1.07,0,16.34,8.61,21.45,14,6.46,6.78,10.51,15,12.88,24,2.15,8.15,4.37,17,8.23,24.53,1.59,3.11,3.69,6.59,7.08,8,2.07.86,6.88,1.72,9.09,1.36-4.12,0-5.9-7.47-7.12-10.37"/><path class="aw" d="M891.88,459.41c.74,1.39,1.14,3,2.19,4.26,1.27,1.53,3.51,2.09,5.45,2.22,1.73.12,3-.71,4.43-.09a8,8,0,0,1,3.4,3.47,13,13,0,0,0,6.15,5.57,9,9,0,0,0,4,1h2.65a10.73,10.73,0,0,0,1.19,0,7.73,7.73,0,0,0,1.29-.47c1.6-.35,3-.53,4.57-.86a4,4,0,0,1,4.59,2.63c1.45,3.42-1.91,5.21-4.46,5.88a6.51,6.51,0,0,1-2.19.46h-2.65a8.38,8.38,0,0,1-2.35-.29c-1-.26-2.11-.35-3.18-.59a16.93,16.93,0,0,1-9.64-6.21c-1.13-1.45-2.24-2.95-3.34-4.38a9.47,9.47,0,0,0-4.87-3.38,11.53,11.53,0,0,1-4.69-3.55,9.19,9.19,0,0,1-2-5c.29,2,2.47,4.16-.52-.7"/><rect class="a" x="901.19" y="306.71" width="49.97" height="81.49"/><path class="h" d="M899.19,318.64c.09,4.31-1.9,9-2.56,13.19a103.68,103.68,0,0,0-1.34,20.07c.26,7,1.65,14.84,4.91,21.13,3.09,6,7.78,9.51,12.94,13.39,4.68,3.51,9.18,7,14.39,9.75,2.12,1.1,6.07,3.86,8.55,4s3.4-2.9,4.39-5.1c6.09-13.55,6.65-30.28-.46-43.52-4-7.36-11.16-12-17.62-17-7.48-5.79-16.33-9.51-23.67-15.33a.68.68,0,0,0,.81.07l-.34-.64c0,.79.73,1,0,0"/><path d="M936.09,400.12c-1.09-1.64-4.13-3-5.45-3.92-2.21-1.6-4.24-3.24-6.57-4.68a77.42,77.42,0,0,1-9.48-7c-6.25-5.27-12.17-12-15.13-19.85-3.2-8.46-3.28-18.5-2.55-27.32.36-4.33,2.07-11.05,2.69-15.36a3.31,3.31,0,0,0-.16-1.53c.49.32.92.6,1.18.8,2.46,1.9,16.53,8.15,21.65,15.93l0,0c1.41,1.31-.31,4-2.37,3.05-.64-.3-5.57,4-5.53,4-3.16,3.57-3.66,9.44-2.63,13.85a16.78,16.78,0,0,0,7.71,10.73,1.55,1.55,0,0,1,1-.19c5.51.65,16.73,1.18,17.61-7.1.14-1.34,1.53-2.59,2.9-1.73l.08.05s0,0,0,.05c0-.16.1-.33.13-.49,3,3.5,2.81,12.25,3.09,16.47.92,14.12-3.17,18-8.12,24.27m5.83-55.3C936.13,336.77,928,330.75,920,325c-7.29-5.2-16.92-16.65-16.91-26.3l-.49-1.5c-.9,4.92-3.81,8.45-2.33,13.75.62,2.22,2.9,5.6,2.38,7.65-3.94-1.46-9-4.46-13.21-4.88a10.36,10.36,0,0,0,1.18.9l1.18.85a12.22,12.22,0,0,1,4.39,6.34c.93,2.76,0,5.79,0,8.59a8.4,8.4,0,0,0-2-6.38c-.44-.52-2.72-2.94-3.49-2.84,6,7,3.07,20.38,3.08,28.82,0,10.75,1.86,20.83,8.69,29.42,5.37,6.77,11.77,9.54,18.83,14,4.1,2.59,14.65,6.72,15.13,7.21,0-.06-.08-.12-.11-.19,1.45.65,10.42-11.45,11.54-15.58,1.25-4.66,1.19-7.58,1.47-12.42.56-9.73-1.65-19.67-7.37-27.63"/><path class="az" d="M940.79,357.66a31.29,31.29,0,0,0-2-4.22A12.56,12.56,0,0,1,932.08,364c-4.44,2.13-10.2,1.48-13.42-2.45-2.91-3.54-3-8.79-1-12.81a13,13,0,0,1,11.1-6.91h0c-2-1.67-4.08-3.27-6.22-4.88a3.46,3.46,0,0,1-.39.08l.09.12c-1,1.37-6.1.86-11.05,11.52a14.53,14.53,0,0,0,2,15.14c3.25,4.21,8.75,8.94,16.69,6.65,7.34-2.12,10.59-7.31,11.26-11.09a6.67,6.67,0,0,1,.45.71c-.25-.81-.49-1.63-.79-2.44"/><path class="h" d="M914,348.16a5.86,5.86,0,1,0,5.86-5.86,5.86,5.86,0,0,0-5.86,5.86"/><rect class="a" x="970.81" y="415.49" width="74.35" height="41.57"/><path class="h" d="M976.53,453.57a29.41,29.41,0,0,0,22,9.45,71.55,71.55,0,0,0,20.45-3.93c3.77-1.32,7.07-3.69,10.48-5.7,1.31-.77,9.21-3.78,9.69-5.11.58-1.62-2.55-5.49-3.63-7a84.73,84.73,0,0,0-7.91-8.87c-5.34-5.43-14.14-8.53-21.46-9.88s-14.5-1.77-21.71.66a55.06,55.06,0,0,0-11,4.94c-3.28,2-8.81,5.21-8.55,5.57-.07,3.3,7.34,15.32,11.68,19.86"/><path d="M1025.11,454.21c-4.61,2.5-7.7,4.71-12.88,5.89-4.23,1-8.86,1.91-13.15,1.31-12-1.71-15.71-3.91-22.08-10.81a76.53,76.53,0,0,1-9.51-13.31c-3.08-5.37-2.63-3.56-2.63-3.56h0c2.59-1.14,10.36-5.29,14.93-6.2,1.74-.35,11.75-3.2,11.73-1.82a2.09,2.09,0,0,1-.28,3.72c-3.54,1.39-.74,10.26.54,12.27a14.39,14.39,0,0,0,19.67,3.86c2.23-1.55,6.44-7.3,4.57-10.16-1.12-1.71.86-3.33,2.39-2.77,0,0,0-.1,0-.15,2.75.79,6.66,4.57,8.95,6.42,2.48,2,4.35,4.53,6.71,6.59a15.66,15.66,0,0,0,2.8,1.91c-3.86,1.4-8.11,4.83-11.78,6.82m16.49-9.59c-3.93-2.29-6.84-6-9.86-9.31-7.09-7.72-11.91-13.57-22.69-16.12-8.11-1.92-19-2.72-26.55,1.06C974.29,424.35,963,433.2,964,434H964a.79.79,0,0,0,0,.28c1.79,5.12,13.75,26.9,28.93,29.54,6.24,1.09,11.52.24,17.8-.63,8.42-1.17,16.85-7.93,25-2.71a48.2,48.2,0,0,0-3.71-3.81c-.5-.39-2.21-1.05-2.45-1.63,2.18-3.43,14-3.14,16.77-1-1.85-1.26-3.06-3.23-4.61-4.85a19.76,19.76,0,0,0,2.07.33,31.89,31.89,0,0,0,6,0c1.22-.13,3.22-1.17,4.38-1-3.64.24-9.59-2.08-12.68-3.88"/><path class="az" d="M1018.44,432.62a45.09,45.09,0,0,0-5.35-3.81c3,6.48,0,15.93-9.3,15.93-12,0-13.91-15.85-5.49-20.54a25.34,25.34,0,0,0-7.8,1.16c.43.06.65.21.52.5-3.25,7.69-2.69,7.76-2.49,10.18.61,7.38,7.67,13.28,14.91,13.41a14.09,14.09,0,0,0,11-4.5,16.33,16.33,0,0,0,3.53-5.76c.63-2.17-.3-4.51.45-6.57h0"/><path class="h" d="M992,433.5a5.37,5.37,0,1,0,5.37-5.37A5.37,5.37,0,0,0,992,433.5"/><rect class="a" x="895.17" y="397.93" width="62.17" height="69.13"/><path class="af" d="M821.85,360.4c-3.68-5.36-7.42-10.82-9.47-15.33a3.74,3.74,0,0,0-3.29.13,3.58,3.58,0,0,0-1.84,2.91c2.28,4.85,5.9,10.15,9.68,15.66,7.16,10.43,15.29,22.25,10.45,26.91s-11.27,8.78-17.5,12.78c-4.42,2.83-9,5.76-13,8.87-1.17.92-2.78,2.29-4.65,3.9-12.76,10.94-20.36,15.88-22.57,14.69-2-1.08-5-6.7-6.83-10.06-1-1.92-1.92-3.58-2.75-4.83l-1.71-2.58c-2.92-4.41-5.93-9-8.74-13.53-1.05-1.71-2.29-3.42-3.49-5.07-5-6.89-7.77-11.41-4.38-16,6.39-8.57,15.08-13.37,24.28-18.46a84.82,84.82,0,0,0,10.74-7.6c5.61-4.39,11.4-8.9,17-10.2A18.5,18.5,0,0,1,792,337c-6.69,1.7-12.88,6.51-18.87,11.19a80.94,80.94,0,0,1-10,7.07c-9.78,5.41-19,10.51-26.18,20.11-6.25,8.39-.39,16.5,4.33,23,1.19,1.64,2.31,3.19,3.24,4.71,2.86,4.64,5.9,9.24,8.85,13.69l1.7,2.58c.68,1,1.55,2.65,2.47,4.37,2.66,4.95,5.67,10.56,9.25,12.48a6.83,6.83,0,0,0,3.3.79c6.47,0,15.66-7.36,26-16.21,1.79-1.53,3.32-2.85,4.44-3.72,3.77-2.94,8-5.67,12.52-8.56,6.47-4.15,13.17-8.45,18.42-13.51,8.48-8.17-.75-21.6-9.67-34.59"/><path class="ba" d="M820.08,363.47c-4.24-5.75-8.91-10.93-12.22-17.11a4.15,4.15,0,0,0-.61,1.76c2.28,4.85,5.9,10.16,9.68,15.67,7.16,10.43,15.29,22.25,10.45,26.91s-11.27,8.79-17.5,12.78c-4.42,2.83-9,5.76-13,8.87-1.17.92-2.78,2.29-4.65,3.9C780,426.78,772.53,431.69,770,431a4.37,4.37,0,0,1-2.9-.27c-5.92-2.22-10-14.33-12.66-18.4-7-10.53-25.22-26-11.78-38.1a1.94,1.94,0,0,1,1.25-.5c3.44-3.83,7.85-6.92,12.15-9.8l.21-.19a106.41,106.41,0,0,1,12.24-8.62c3.06-2.46,6.14-4.9,9.12-7.43,4.53-3.83,9.14-7.37,14.61-9.49-.09-.41-.17-.81-.24-1.23-6.69,1.7-12.88,6.51-18.87,11.19a81,81,0,0,1-10,7.07c-9.78,5.4-19,10.51-26.18,20.11-6.25,8.39-.39,16.5,4.33,23,1.19,1.64,2.31,3.19,3.24,4.71,2.86,4.64,5.9,9.24,8.85,13.69l1.7,2.58c.68,1,1.55,2.65,2.47,4.37,2.66,4.95,5.67,10.56,9.25,12.49a6.54,6.54,0,0,0,2.21.67c2.48-1.47,4.55-2.91,5.31-3.47,3.92-2.89,7.82-5.8,11.75-8.68,5.93-5,11.67-10.28,18.29-14.48,11.09-7,20.18-12.56,26.65-23.42a69.68,69.68,0,0,0-11-23.35"/><rect class="a" x="735.06" y="337.16" width="95.05" height="97.92"/></g></svg>